G04*
G04 #@! TF.GenerationSoftware,Altium Limited,Altium Designer,18.1.6 (161)*
G04*
G04 Layer_Color=8388736*
%FSLAX25Y25*%
%MOIN*%
G70*
G01*
G75*
%ADD10C,0.00787*%
%ADD13C,0.00984*%
%ADD14C,0.00394*%
%ADD16C,0.01575*%
%ADD66R,0.04724X0.04331*%
G04:AMPARAMS|DCode=67|XSize=43.31mil|YSize=47.24mil|CornerRadius=0mil|HoleSize=0mil|Usage=FLASHONLY|Rotation=315.000|XOffset=0mil|YOffset=0mil|HoleType=Round|Shape=Rectangle|*
%AMROTATEDRECTD67*
4,1,4,-0.03202,-0.00139,0.00139,0.03202,0.03202,0.00139,-0.00139,-0.03202,-0.03202,-0.00139,0.0*
%
%ADD67ROTATEDRECTD67*%

G04:AMPARAMS|DCode=68|XSize=43.31mil|YSize=47.24mil|CornerRadius=0mil|HoleSize=0mil|Usage=FLASHONLY|Rotation=45.000|XOffset=0mil|YOffset=0mil|HoleType=Round|Shape=Rectangle|*
%AMROTATEDRECTD68*
4,1,4,0.00139,-0.03202,-0.03202,0.00139,-0.00139,0.03202,0.03202,-0.00139,0.00139,-0.03202,0.0*
%
%ADD68ROTATEDRECTD68*%

%ADD69R,0.04331X0.03740*%
%ADD70R,0.04331X0.03740*%
G04:AMPARAMS|DCode=71|XSize=37.4mil|YSize=43.31mil|CornerRadius=0mil|HoleSize=0mil|Usage=FLASHONLY|Rotation=315.000|XOffset=0mil|YOffset=0mil|HoleType=Round|Shape=Rectangle|*
%AMROTATEDRECTD71*
4,1,4,-0.02854,-0.00209,0.00209,0.02854,0.02854,0.00209,-0.00209,-0.02854,-0.02854,-0.00209,0.0*
%
%ADD71ROTATEDRECTD71*%

G04:AMPARAMS|DCode=72|XSize=37.4mil|YSize=43.31mil|CornerRadius=0mil|HoleSize=0mil|Usage=FLASHONLY|Rotation=315.000|XOffset=0mil|YOffset=0mil|HoleType=Round|Shape=Rectangle|*
%AMROTATEDRECTD72*
4,1,4,-0.02854,-0.00209,0.00209,0.02854,0.02854,0.00209,-0.00209,-0.02854,-0.02854,-0.00209,0.0*
%
%ADD72ROTATEDRECTD72*%

G04:AMPARAMS|DCode=73|XSize=37.4mil|YSize=43.31mil|CornerRadius=0mil|HoleSize=0mil|Usage=FLASHONLY|Rotation=340.000|XOffset=0mil|YOffset=0mil|HoleType=Round|Shape=Rectangle|*
%AMROTATEDRECTD73*
4,1,4,-0.02498,-0.01395,-0.01017,0.02674,0.02498,0.01395,0.01017,-0.02674,-0.02498,-0.01395,0.0*
%
%ADD73ROTATEDRECTD73*%

G04:AMPARAMS|DCode=74|XSize=37.4mil|YSize=43.31mil|CornerRadius=0mil|HoleSize=0mil|Usage=FLASHONLY|Rotation=340.000|XOffset=0mil|YOffset=0mil|HoleType=Round|Shape=Rectangle|*
%AMROTATEDRECTD74*
4,1,4,-0.02498,-0.01395,-0.01017,0.02674,0.02498,0.01395,0.01017,-0.02674,-0.02498,-0.01395,0.0*
%
%ADD74ROTATEDRECTD74*%

G04:AMPARAMS|DCode=75|XSize=25.59mil|YSize=35.43mil|CornerRadius=0mil|HoleSize=0mil|Usage=FLASHONLY|Rotation=170.000|XOffset=0mil|YOffset=0mil|HoleType=Round|Shape=Rectangle|*
%AMROTATEDRECTD75*
4,1,4,0.01568,0.01523,0.00952,-0.01967,-0.01568,-0.01523,-0.00952,0.01967,0.01568,0.01523,0.0*
%
%ADD75ROTATEDRECTD75*%

%ADD76C,0.03543*%
G04:AMPARAMS|DCode=77|XSize=21.65mil|YSize=47.24mil|CornerRadius=0mil|HoleSize=0mil|Usage=FLASHONLY|Rotation=170.000|XOffset=0mil|YOffset=0mil|HoleType=Round|Shape=Rectangle|*
%AMROTATEDRECTD77*
4,1,4,0.01476,0.02138,0.00656,-0.02514,-0.01476,-0.02138,-0.00656,0.02514,0.01476,0.02138,0.0*
%
%ADD77ROTATEDRECTD77*%

G04:AMPARAMS|DCode=78|XSize=122.05mil|YSize=240.16mil|CornerRadius=0mil|HoleSize=0mil|Usage=FLASHONLY|Rotation=315.000|XOffset=0mil|YOffset=0mil|HoleType=Round|Shape=Rectangle|*
%AMROTATEDRECTD78*
4,1,4,-0.12806,-0.04176,0.04176,0.12806,0.12806,0.04176,-0.04176,-0.12806,-0.12806,-0.04176,0.0*
%
%ADD78ROTATEDRECTD78*%

G04:AMPARAMS|DCode=79|XSize=47.24mil|YSize=80.71mil|CornerRadius=12.8mil|HoleSize=0mil|Usage=FLASHONLY|Rotation=225.000|XOffset=0mil|YOffset=0mil|HoleType=Round|Shape=RoundedRectangle|*
%AMROUNDEDRECTD79*
21,1,0.04724,0.05512,0,0,225.0*
21,1,0.02165,0.08071,0,0,225.0*
1,1,0.02559,-0.02714,0.01183*
1,1,0.02559,-0.01183,0.02714*
1,1,0.02559,0.02714,-0.01183*
1,1,0.02559,0.01183,-0.02714*
%
%ADD79ROUNDEDRECTD79*%
G04:AMPARAMS|DCode=80|XSize=47.24mil|YSize=80.71mil|CornerRadius=0mil|HoleSize=0mil|Usage=FLASHONLY|Rotation=45.000|XOffset=0mil|YOffset=0mil|HoleType=Round|Shape=Rectangle|*
%AMROTATEDRECTD80*
4,1,4,0.01183,-0.04524,-0.04524,0.01183,-0.01183,0.04524,0.04524,-0.01183,0.01183,-0.04524,0.0*
%
%ADD80ROTATEDRECTD80*%

G04:AMPARAMS|DCode=81|XSize=74.8mil|YSize=59.06mil|CornerRadius=0mil|HoleSize=0mil|Usage=FLASHONLY|Rotation=355.000|XOffset=0mil|YOffset=0mil|HoleType=Round|Shape=Rectangle|*
%AMROTATEDRECTD81*
4,1,4,-0.03983,-0.02616,-0.03469,0.03267,0.03983,0.02616,0.03469,-0.03267,-0.03983,-0.02616,0.0*
%
%ADD81ROTATEDRECTD81*%

G04:AMPARAMS|DCode=82|XSize=82.68mil|YSize=59.06mil|CornerRadius=0mil|HoleSize=0mil|Usage=FLASHONLY|Rotation=355.000|XOffset=0mil|YOffset=0mil|HoleType=Round|Shape=Rectangle|*
%AMROTATEDRECTD82*
4,1,4,-0.04376,-0.02581,-0.03861,0.03302,0.04376,0.02581,0.03861,-0.03302,-0.04376,-0.02581,0.0*
%
%ADD82ROTATEDRECTD82*%

G04:AMPARAMS|DCode=83|XSize=82.68mil|YSize=59.06mil|CornerRadius=0mil|HoleSize=0mil|Usage=FLASHONLY|Rotation=8.000|XOffset=0mil|YOffset=0mil|HoleType=Round|Shape=Rectangle|*
%AMROTATEDRECTD83*
4,1,4,-0.03683,-0.03499,-0.04505,0.02349,0.03683,0.03499,0.04505,-0.02349,-0.03683,-0.03499,0.0*
%
%ADD83ROTATEDRECTD83*%

G04:AMPARAMS|DCode=84|XSize=82.68mil|YSize=59.06mil|CornerRadius=0mil|HoleSize=0mil|Usage=FLASHONLY|Rotation=285.000|XOffset=0mil|YOffset=0mil|HoleType=Round|Shape=Rectangle|*
%AMROTATEDRECTD84*
4,1,4,-0.03922,0.03229,0.01782,0.04757,0.03922,-0.03229,-0.01782,-0.04757,-0.03922,0.03229,0.0*
%
%ADD84ROTATEDRECTD84*%

G04:AMPARAMS|DCode=85|XSize=27.56mil|YSize=49.21mil|CornerRadius=0mil|HoleSize=0mil|Usage=FLASHONLY|Rotation=315.000|XOffset=0mil|YOffset=0mil|HoleType=Round|Shape=Rectangle|*
%AMROTATEDRECTD85*
4,1,4,-0.02714,-0.00766,0.00766,0.02714,0.02714,0.00766,-0.00766,-0.02714,-0.02714,-0.00766,0.0*
%
%ADD85ROTATEDRECTD85*%

%ADD86R,0.04921X0.02756*%
G04:AMPARAMS|DCode=87|XSize=27.56mil|YSize=49.21mil|CornerRadius=0mil|HoleSize=0mil|Usage=FLASHONLY|Rotation=45.000|XOffset=0mil|YOffset=0mil|HoleType=Round|Shape=Rectangle|*
%AMROTATEDRECTD87*
4,1,4,0.00766,-0.02714,-0.02714,0.00766,-0.00766,0.02714,0.02714,-0.00766,0.00766,-0.02714,0.0*
%
%ADD87ROTATEDRECTD87*%

G04:AMPARAMS|DCode=88|XSize=21.65mil|YSize=59.06mil|CornerRadius=0mil|HoleSize=0mil|Usage=FLASHONLY|Rotation=225.000|XOffset=0mil|YOffset=0mil|HoleType=Round|Shape=Round|*
%AMOVALD88*
21,1,0.03740,0.02165,0.00000,0.00000,315.0*
1,1,0.02165,-0.01322,0.01322*
1,1,0.02165,0.01322,-0.01322*
%
%ADD88OVALD88*%

G04:AMPARAMS|DCode=89|XSize=98.82mil|YSize=133.86mil|CornerRadius=0mil|HoleSize=0mil|Usage=FLASHONLY|Rotation=70.000|XOffset=0mil|YOffset=0mil|HoleType=Round|Shape=Rectangle|*
%AMROTATEDRECTD89*
4,1,4,0.04599,-0.06932,-0.07979,-0.02354,-0.04599,0.06932,0.07979,0.02354,0.04599,-0.06932,0.0*
%
%ADD89ROTATEDRECTD89*%

G04:AMPARAMS|DCode=90|XSize=27.56mil|YSize=82.68mil|CornerRadius=0mil|HoleSize=0mil|Usage=FLASHONLY|Rotation=160.000|XOffset=0mil|YOffset=0mil|HoleType=Round|Shape=Round|*
%AMOVALD90*
21,1,0.05512,0.02756,0.00000,0.00000,250.0*
1,1,0.02756,0.00943,0.02590*
1,1,0.02756,-0.00943,-0.02590*
%
%ADD90OVALD90*%

G04:AMPARAMS|DCode=91|XSize=27.56mil|YSize=90.55mil|CornerRadius=0mil|HoleSize=0mil|Usage=FLASHONLY|Rotation=190.000|XOffset=0mil|YOffset=0mil|HoleType=Round|Shape=Round|*
%AMOVALD91*
21,1,0.06299,0.02756,0.00000,0.00000,280.0*
1,1,0.02756,-0.00547,0.03102*
1,1,0.02756,0.00547,-0.03102*
%
%ADD91OVALD91*%

G04:AMPARAMS|DCode=92|XSize=27.56mil|YSize=90.55mil|CornerRadius=0mil|HoleSize=0mil|Usage=FLASHONLY|Rotation=170.000|XOffset=0mil|YOffset=0mil|HoleType=Round|Shape=Round|*
%AMOVALD92*
21,1,0.06299,0.02756,0.00000,0.00000,260.0*
1,1,0.02756,0.00547,0.03102*
1,1,0.02756,-0.00547,-0.03102*
%
%ADD92OVALD92*%

%ADD93O,0.02559X0.04902*%
%ADD94O,0.04902X0.02559*%
G04:AMPARAMS|DCode=95|XSize=82.68mil|YSize=59.06mil|CornerRadius=0mil|HoleSize=0mil|Usage=FLASHONLY|Rotation=155.000|XOffset=0mil|YOffset=0mil|HoleType=Round|Shape=Rectangle|*
%AMROTATEDRECTD95*
4,1,4,0.04994,0.00929,0.02499,-0.04423,-0.04994,-0.00929,-0.02499,0.04423,0.04994,0.00929,0.0*
%
%ADD95ROTATEDRECTD95*%

G04:AMPARAMS|DCode=96|XSize=51.18mil|YSize=39.37mil|CornerRadius=0mil|HoleSize=0mil|Usage=FLASHONLY|Rotation=170.000|XOffset=0mil|YOffset=0mil|HoleType=Round|Shape=Rectangle|*
%AMROTATEDRECTD96*
4,1,4,0.02862,0.01494,0.02178,-0.02383,-0.02862,-0.01494,-0.02178,0.02383,0.02862,0.01494,0.0*
%
%ADD96ROTATEDRECTD96*%

G04:AMPARAMS|DCode=97|XSize=39.37mil|YSize=51.18mil|CornerRadius=0mil|HoleSize=0mil|Usage=FLASHONLY|Rotation=170.000|XOffset=0mil|YOffset=0mil|HoleType=Round|Shape=Rectangle|*
%AMROTATEDRECTD97*
4,1,4,0.02383,0.02178,0.01494,-0.02862,-0.02383,-0.02178,-0.01494,0.02862,0.02383,0.02178,0.0*
%
%ADD97ROTATEDRECTD97*%

%ADD98P,0.28396X4X215.0*%
G04:AMPARAMS|DCode=99|XSize=13.78mil|YSize=33.47mil|CornerRadius=0mil|HoleSize=0mil|Usage=FLASHONLY|Rotation=135.000|XOffset=0mil|YOffset=0mil|HoleType=Round|Shape=Round|*
%AMOVALD99*
21,1,0.01968,0.01378,0.00000,0.00000,225.0*
1,1,0.01378,0.00696,0.00696*
1,1,0.01378,-0.00696,-0.00696*
%
%ADD99OVALD99*%

G04:AMPARAMS|DCode=100|XSize=13.78mil|YSize=33.47mil|CornerRadius=0mil|HoleSize=0mil|Usage=FLASHONLY|Rotation=45.000|XOffset=0mil|YOffset=0mil|HoleType=Round|Shape=Round|*
%AMOVALD100*
21,1,0.01968,0.01378,0.00000,0.00000,135.0*
1,1,0.01378,0.00696,-0.00696*
1,1,0.01378,-0.00696,0.00696*
%
%ADD100OVALD100*%

%ADD101P,0.16147X4X90.0*%
G04:AMPARAMS|DCode=102|XSize=55.12mil|YSize=43.31mil|CornerRadius=0mil|HoleSize=0mil|Usage=FLASHONLY|Rotation=135.000|XOffset=0mil|YOffset=0mil|HoleType=Round|Shape=Rectangle|*
%AMROTATEDRECTD102*
4,1,4,0.03480,-0.00418,0.00418,-0.03480,-0.03480,0.00418,-0.00418,0.03480,0.03480,-0.00418,0.0*
%
%ADD102ROTATEDRECTD102*%

G04:AMPARAMS|DCode=103|XSize=55.12mil|YSize=43.31mil|CornerRadius=0mil|HoleSize=0mil|Usage=FLASHONLY|Rotation=225.000|XOffset=0mil|YOffset=0mil|HoleType=Round|Shape=Rectangle|*
%AMROTATEDRECTD103*
4,1,4,0.00418,0.03480,0.03480,0.00418,-0.00418,-0.03480,-0.03480,-0.00418,0.00418,0.03480,0.0*
%
%ADD103ROTATEDRECTD103*%

G04:AMPARAMS|DCode=104|XSize=55.12mil|YSize=43.31mil|CornerRadius=0mil|HoleSize=0mil|Usage=FLASHONLY|Rotation=250.000|XOffset=0mil|YOffset=0mil|HoleType=Round|Shape=Rectangle|*
%AMROTATEDRECTD104*
4,1,4,-0.01092,0.03330,0.02977,0.01849,0.01092,-0.03330,-0.02977,-0.01849,-0.01092,0.03330,0.0*
%
%ADD104ROTATEDRECTD104*%

%ADD105R,0.04331X0.04724*%
G04:AMPARAMS|DCode=106|XSize=43.31mil|YSize=47.24mil|CornerRadius=0mil|HoleSize=0mil|Usage=FLASHONLY|Rotation=170.000|XOffset=0mil|YOffset=0mil|HoleType=Round|Shape=Rectangle|*
%AMROTATEDRECTD106*
4,1,4,0.02543,0.01950,0.01722,-0.02702,-0.02543,-0.01950,-0.01722,0.02702,0.02543,0.01950,0.0*
%
%ADD106ROTATEDRECTD106*%

G04:AMPARAMS|DCode=107|XSize=43.31mil|YSize=47.24mil|CornerRadius=0mil|HoleSize=0mil|Usage=FLASHONLY|Rotation=10.000|XOffset=0mil|YOffset=0mil|HoleType=Round|Shape=Rectangle|*
%AMROTATEDRECTD107*
4,1,4,-0.01722,-0.02702,-0.02543,0.01950,0.01722,0.02702,0.02543,-0.01950,-0.01722,-0.02702,0.0*
%
%ADD107ROTATEDRECTD107*%

G04:AMPARAMS|DCode=108|XSize=43.31mil|YSize=47.24mil|CornerRadius=0mil|HoleSize=0mil|Usage=FLASHONLY|Rotation=250.000|XOffset=0mil|YOffset=0mil|HoleType=Round|Shape=Rectangle|*
%AMROTATEDRECTD108*
4,1,4,-0.01479,0.02843,0.02960,0.01227,0.01479,-0.02843,-0.02960,-0.01227,-0.01479,0.02843,0.0*
%
%ADD108ROTATEDRECTD108*%

G04:AMPARAMS|DCode=109|XSize=62.99mil|YSize=55.12mil|CornerRadius=0mil|HoleSize=0mil|Usage=FLASHONLY|Rotation=135.000|XOffset=0mil|YOffset=0mil|HoleType=Round|Shape=Rectangle|*
%AMROTATEDRECTD109*
4,1,4,0.04176,-0.00278,0.00278,-0.04176,-0.04176,0.00278,-0.00278,0.04176,0.04176,-0.00278,0.0*
%
%ADD109ROTATEDRECTD109*%

G04:AMPARAMS|DCode=110|XSize=62.99mil|YSize=55.12mil|CornerRadius=0mil|HoleSize=0mil|Usage=FLASHONLY|Rotation=225.000|XOffset=0mil|YOffset=0mil|HoleType=Round|Shape=Rectangle|*
%AMROTATEDRECTD110*
4,1,4,0.00278,0.04176,0.04176,0.00278,-0.00278,-0.04176,-0.04176,-0.00278,0.00278,0.04176,0.0*
%
%ADD110ROTATEDRECTD110*%

G04:AMPARAMS|DCode=111|XSize=62.99mil|YSize=55.12mil|CornerRadius=0mil|HoleSize=0mil|Usage=FLASHONLY|Rotation=350.000|XOffset=0mil|YOffset=0mil|HoleType=Round|Shape=Rectangle|*
%AMROTATEDRECTD111*
4,1,4,-0.03580,-0.02167,-0.02623,0.03261,0.03580,0.02167,0.02623,-0.03261,-0.03580,-0.02167,0.0*
%
%ADD111ROTATEDRECTD111*%

G04:AMPARAMS|DCode=112|XSize=62.99mil|YSize=55.12mil|CornerRadius=0mil|HoleSize=0mil|Usage=FLASHONLY|Rotation=160.000|XOffset=0mil|YOffset=0mil|HoleType=Round|Shape=Rectangle|*
%AMROTATEDRECTD112*
4,1,4,0.03902,0.01513,0.02017,-0.03667,-0.03902,-0.01513,-0.02017,0.03667,0.03902,0.01513,0.0*
%
%ADD112ROTATEDRECTD112*%

G04:AMPARAMS|DCode=113|XSize=43.31mil|YSize=47.24mil|CornerRadius=0mil|HoleSize=0mil|Usage=FLASHONLY|Rotation=340.000|XOffset=0mil|YOffset=0mil|HoleType=Round|Shape=Rectangle|*
%AMROTATEDRECTD113*
4,1,4,-0.02843,-0.01479,-0.01227,0.02960,0.02843,0.01479,0.01227,-0.02960,-0.02843,-0.01479,0.0*
%
%ADD113ROTATEDRECTD113*%

%ADD114C,0.06299*%
%ADD115P,0.08908X4X205.0*%
%ADD116C,0.12992*%
%ADD117C,0.14173*%
G04:AMPARAMS|DCode=118|XSize=98.43mil|YSize=51.18mil|CornerRadius=0mil|HoleSize=0mil|Usage=FLASHONLY|Rotation=80.000|XOffset=0mil|YOffset=0mil|HoleType=Round|Shape=Round|*
%AMOVALD118*
21,1,0.04724,0.05118,0.00000,0.00000,80.0*
1,1,0.05118,-0.00410,-0.02326*
1,1,0.05118,0.00410,0.02326*
%
%ADD118OVALD118*%

G04:AMPARAMS|DCode=119|XSize=86.61mil|YSize=51.18mil|CornerRadius=0mil|HoleSize=0mil|Usage=FLASHONLY|Rotation=80.000|XOffset=0mil|YOffset=0mil|HoleType=Round|Shape=Round|*
%AMOVALD119*
21,1,0.03543,0.05118,0.00000,0.00000,80.0*
1,1,0.05118,-0.00308,-0.01745*
1,1,0.05118,0.00308,0.01745*
%
%ADD119OVALD119*%

%ADD120P,0.08908X4X71.0*%
%ADD121C,0.27953*%
%ADD122C,0.00394*%
%ADD123R,0.06299X0.06299*%
G36*
X183602Y345210D02*
X178870Y338782D01*
X173960Y332488D01*
X168876Y326334D01*
X163623Y320324D01*
X158203Y314463D01*
X152623Y308756D01*
X149755Y305981D01*
X149754Y305981D01*
X149753Y305979D01*
X149751Y305978D01*
X147964Y304235D01*
X144279Y300865D01*
X140487Y297614D01*
X136593Y294487D01*
X134597Y292987D01*
X134591Y292982D01*
X134585Y292978D01*
X133828Y292387D01*
X132271Y291262D01*
X130673Y290195D01*
X129037Y289189D01*
X128873Y289096D01*
X121336Y301788D01*
X125410Y304333D01*
X125413Y304335D01*
X125417Y304338D01*
X134811Y310340D01*
X134816Y310343D01*
X134820Y310346D01*
X144132Y316475D01*
X144136Y316478D01*
X144141Y316481D01*
X153368Y322736D01*
X153372Y322739D01*
X153375Y322741D01*
X157957Y325916D01*
X157959Y325918D01*
X157962Y325919D01*
X160498Y327707D01*
X160502Y327710D01*
X160507Y327713D01*
X165529Y331356D01*
X165535Y331361D01*
X165541Y331365D01*
X170497Y335098D01*
X170503Y335103D01*
X170508Y335107D01*
X175396Y338929D01*
X175400Y338932D01*
X175405Y338935D01*
X177823Y340880D01*
X177823Y340880D01*
X179676Y342369D01*
X179688Y342379D01*
X179700Y342389D01*
X183288Y345509D01*
X183303Y345523D01*
X183318Y345536D01*
X184863Y347026D01*
X183602Y345210D01*
D02*
G37*
G36*
X-202012Y316196D02*
X-197821Y314135D01*
X-193697Y311942D01*
X-189646Y309618D01*
X-185670Y307166D01*
X-181775Y304588D01*
X-177964Y301887D01*
X-174241Y299067D01*
X-172426Y297598D01*
X-172410Y297586D01*
X-172394Y297573D01*
X-150239Y281426D01*
X-131452Y267568D01*
X-130277Y266672D01*
X-130270Y266667D01*
X-130263Y266662D01*
X-127864Y264914D01*
X-127854Y264908D01*
X-127845Y264901D01*
X-125395Y263224D01*
X-125385Y263218D01*
X-125376Y263211D01*
X-124300Y262520D01*
X-128709Y263101D01*
X-133686Y264116D01*
X-138580Y265477D01*
X-140965Y266323D01*
X-141757Y266623D01*
X-143313Y267325D01*
X-144824Y268123D01*
X-146282Y269012D01*
X-146982Y269501D01*
X-146988Y269506D01*
X-146995Y269511D01*
X-147020Y269525D01*
X-147044Y269541D01*
X-147046Y269542D01*
X-147047Y269543D01*
X-147054Y269546D01*
X-147061Y269550D01*
X-147087Y269563D01*
X-147113Y269576D01*
X-147115Y269576D01*
X-147116Y269577D01*
X-147124Y269580D01*
X-147131Y269584D01*
X-147158Y269593D01*
X-147185Y269603D01*
X-147187Y269604D01*
X-147188Y269605D01*
X-147196Y269607D01*
X-147204Y269610D01*
X-147232Y269617D01*
X-147259Y269624D01*
X-147261Y269625D01*
X-147263Y269625D01*
X-147271Y269626D01*
X-147279Y269629D01*
X-147308Y269633D01*
X-147336Y269638D01*
X-147338Y269638D01*
X-147339Y269638D01*
X-147347Y269639D01*
X-147356Y269640D01*
X-147384Y269641D01*
X-147413Y269643D01*
X-147415Y269643D01*
X-147417Y269643D01*
X-147425Y269643D01*
X-147433Y269644D01*
X-147461Y269642D01*
X-147490Y269642D01*
X-147492Y269641D01*
X-147494Y269641D01*
X-147502Y269640D01*
X-147510Y269640D01*
X-147539Y269636D01*
X-147567Y269632D01*
X-147569Y269632D01*
X-147571Y269632D01*
X-147579Y269630D01*
X-147587Y269629D01*
X-147615Y269621D01*
X-147642Y269615D01*
X-147644Y269615D01*
X-147646Y269614D01*
X-147654Y269612D01*
X-147662Y269610D01*
X-147689Y269600D01*
X-147716Y269591D01*
X-147718Y269590D01*
X-147720Y269590D01*
X-147727Y269586D01*
X-147735Y269584D01*
X-147760Y269571D01*
X-147787Y269560D01*
X-147788Y269559D01*
X-147790Y269558D01*
X-147797Y269554D01*
X-147805Y269550D01*
X-147829Y269536D01*
X-147854Y269522D01*
X-147856Y269521D01*
X-147857Y269520D01*
X-147864Y269515D01*
X-147871Y269511D01*
X-147894Y269494D01*
X-147917Y269477D01*
X-147919Y269476D01*
X-147920Y269475D01*
X-147926Y269470D01*
X-147933Y269465D01*
X-147954Y269446D01*
X-147976Y269427D01*
X-147977Y269425D01*
X-147979Y269424D01*
X-147984Y269418D01*
X-147990Y269413D01*
X-148010Y269392D01*
X-148029Y269371D01*
X-148031Y269369D01*
X-148032Y269368D01*
X-148037Y269361D01*
X-148042Y269355D01*
X-148059Y269333D01*
X-148077Y269310D01*
X-148078Y269308D01*
X-148079Y269307D01*
X-148083Y269300D01*
X-148089Y269293D01*
X-148103Y269269D01*
X-148118Y269245D01*
X-148119Y269243D01*
X-148120Y269241D01*
X-148124Y269234D01*
X-148128Y269227D01*
X-148140Y269201D01*
X-148153Y269176D01*
X-148154Y269174D01*
X-148155Y269172D01*
X-148158Y269164D01*
X-148161Y269157D01*
X-148171Y269130D01*
X-148181Y269104D01*
X-148182Y269102D01*
X-148182Y269100D01*
X-148185Y269092D01*
X-148187Y269084D01*
X-148194Y269056D01*
X-148202Y269029D01*
X-148202Y269027D01*
X-148203Y269025D01*
X-148204Y269017D01*
X-148206Y269009D01*
X-148210Y268981D01*
X-148215Y268953D01*
X-148215Y268951D01*
X-148216Y268949D01*
X-148216Y268941D01*
X-148217Y268933D01*
X-148219Y268904D01*
X-148221Y268876D01*
X-148241Y268099D01*
X-148240Y268075D01*
X-148241Y268051D01*
X-148187Y266499D01*
X-148184Y266467D01*
X-148182Y266435D01*
X-148003Y264892D01*
X-147998Y264861D01*
X-147993Y264829D01*
X-147691Y263306D01*
X-147683Y263275D01*
X-147676Y263244D01*
X-147252Y261750D01*
X-147241Y261719D01*
X-147232Y261689D01*
X-146688Y260234D01*
X-146676Y260205D01*
X-146664Y260175D01*
X-146005Y258768D01*
X-145990Y258740D01*
X-145976Y258712D01*
X-145205Y257363D01*
X-145193Y257343D01*
X-145181Y257322D01*
X-144768Y256691D01*
X-144355Y255974D01*
X-144351Y255968D01*
X-144347Y255961D01*
X-143471Y254506D01*
X-143465Y254497D01*
X-143460Y254489D01*
X-142547Y253057D01*
X-142541Y253048D01*
X-142536Y253040D01*
X-141586Y251631D01*
X-141581Y251625D01*
X-141577Y251619D01*
X-141089Y250924D01*
X-141087Y250922D01*
X-141086Y250920D01*
X-140548Y250166D01*
X-140544Y250161D01*
X-140540Y250155D01*
X-139439Y248666D01*
X-139433Y248659D01*
X-139428Y248652D01*
X-138294Y247188D01*
X-138288Y247181D01*
X-138282Y247174D01*
X-137643Y246387D01*
X-138545Y246538D01*
X-139560Y246815D01*
X-140051Y247003D01*
X-140067Y247008D01*
X-140083Y247015D01*
X-140769Y247244D01*
X-142117Y247772D01*
X-143436Y248366D01*
X-144725Y249026D01*
X-145352Y249387D01*
X-145352Y249388D01*
X-145352Y249388D01*
X-146320Y249944D01*
X-148207Y251138D01*
X-150042Y252410D01*
X-151822Y253758D01*
X-152682Y254469D01*
X-152683Y254470D01*
X-152683Y254470D01*
X-153920Y255490D01*
X-156323Y257613D01*
X-158652Y259817D01*
X-160904Y262100D01*
X-161990Y263279D01*
X-162014Y263302D01*
X-162038Y263327D01*
X-162042Y263330D01*
X-162045Y263333D01*
X-162071Y263354D01*
X-162098Y263376D01*
X-162101Y263379D01*
X-162105Y263382D01*
X-162134Y263401D01*
X-162162Y263419D01*
X-162166Y263422D01*
X-162170Y263424D01*
X-162200Y263440D01*
X-162230Y263456D01*
X-162234Y263458D01*
X-162239Y263460D01*
X-162270Y263473D01*
X-162301Y263486D01*
X-162306Y263487D01*
X-162310Y263489D01*
X-162343Y263499D01*
X-162375Y263509D01*
X-162380Y263510D01*
X-162384Y263511D01*
X-162418Y263517D01*
X-162451Y263524D01*
X-162456Y263525D01*
X-162460Y263526D01*
X-162494Y263529D01*
X-162528Y263532D01*
X-162532Y263532D01*
X-162538Y263533D01*
X-162572Y263532D01*
X-162605Y263532D01*
X-162610Y263532D01*
X-162615Y263532D01*
X-162648Y263528D01*
X-162682Y263525D01*
X-162687Y263524D01*
X-162692Y263524D01*
X-162725Y263517D01*
X-162758Y263510D01*
X-162763Y263509D01*
X-162768Y263508D01*
X-162800Y263498D01*
X-162832Y263488D01*
X-162837Y263487D01*
X-162841Y263485D01*
X-162873Y263472D01*
X-162904Y263459D01*
X-162908Y263457D01*
X-162913Y263455D01*
X-162943Y263439D01*
X-162972Y263423D01*
X-162976Y263420D01*
X-162981Y263418D01*
X-163009Y263399D01*
X-163037Y263380D01*
X-163040Y263377D01*
X-163045Y263374D01*
X-163071Y263352D01*
X-163097Y263332D01*
X-163100Y263328D01*
X-163104Y263325D01*
X-163128Y263301D01*
X-163152Y263277D01*
X-163155Y263273D01*
X-163158Y263270D01*
X-163180Y263243D01*
X-163201Y263217D01*
X-163204Y263213D01*
X-163207Y263210D01*
X-163226Y263181D01*
X-163244Y263153D01*
X-163247Y263149D01*
X-163249Y263145D01*
X-163265Y263115D01*
X-163281Y263085D01*
X-163283Y263081D01*
X-163285Y263076D01*
X-163298Y263045D01*
X-163311Y263014D01*
X-163312Y263009D01*
X-163314Y263005D01*
X-163324Y262972D01*
X-163334Y262940D01*
X-163335Y262935D01*
X-163336Y262930D01*
X-163342Y262897D01*
X-163349Y262864D01*
X-163350Y262859D01*
X-163351Y262854D01*
X-163354Y262821D01*
X-163357Y262787D01*
X-163357Y262782D01*
X-163358Y262777D01*
X-163357Y262743D01*
X-163357Y262710D01*
X-163357Y262705D01*
X-163357Y262700D01*
X-163354Y262667D01*
X-163350Y262633D01*
X-163349Y262628D01*
X-163349Y262623D01*
X-163342Y262590D01*
X-163336Y262557D01*
X-163334Y262552D01*
X-163333Y262547D01*
X-163323Y262515D01*
X-163313Y262483D01*
X-163312Y262478D01*
X-163310Y262473D01*
X-163297Y262442D01*
X-163284Y262411D01*
X-162114Y259907D01*
X-162106Y259892D01*
X-162099Y259877D01*
X-159544Y254976D01*
X-159532Y254956D01*
X-159521Y254936D01*
X-156687Y250191D01*
X-156674Y250172D01*
X-156662Y250152D01*
X-153558Y245580D01*
X-153548Y245566D01*
X-153538Y245552D01*
X-151888Y243335D01*
X-151888Y243335D01*
X-151128Y242312D01*
X-151125Y242309D01*
X-151123Y242305D01*
X-149582Y240275D01*
X-149578Y240271D01*
X-149575Y240267D01*
X-148006Y238258D01*
X-148003Y238254D01*
X-148000Y238249D01*
X-146405Y236261D01*
X-146402Y236258D01*
X-146400Y236255D01*
X-145592Y235269D01*
X-145592Y235268D01*
X-145592Y235268D01*
X-145591Y235267D01*
X-145590Y235267D01*
X-144775Y234278D01*
X-144772Y234275D01*
X-144770Y234272D01*
X-143119Y232313D01*
X-143115Y232309D01*
X-143111Y232304D01*
X-142450Y231542D01*
X-145393Y233509D01*
X-150120Y237123D01*
X-154608Y241031D01*
X-158838Y245216D01*
X-162794Y249661D01*
X-166460Y254349D01*
X-169820Y259260D01*
X-171341Y261817D01*
X-171347Y261825D01*
X-171352Y261834D01*
X-171358Y261843D01*
X-171363Y261852D01*
X-171368Y261858D01*
X-171372Y261865D01*
X-173382Y264750D01*
X-177283Y270602D01*
X-181061Y276534D01*
X-184715Y282544D01*
X-186479Y285585D01*
X-186480Y285587D01*
X-186481Y285588D01*
X-187968Y288132D01*
X-190862Y293267D01*
X-193675Y298446D01*
X-196408Y303669D01*
X-197734Y306301D01*
X-197737Y306307D01*
X-197740Y306313D01*
X-198496Y307751D01*
X-199921Y310672D01*
X-201257Y313635D01*
X-202389Y316366D01*
X-202012Y316196D01*
D02*
G37*
G36*
X189315Y211579D02*
X189317Y211575D01*
X189318Y211572D01*
X190856Y208423D01*
X193647Y201994D01*
X196148Y195447D01*
X198354Y188795D01*
X199306Y185424D01*
X199480Y184801D01*
X199804Y183546D01*
X200103Y182285D01*
X200314Y181309D01*
X199090Y181487D01*
X199062Y181490D01*
X199035Y181494D01*
X194705Y181919D01*
X194669Y181921D01*
X194632Y181924D01*
X190285Y182077D01*
X190248Y182077D01*
X190210Y182077D01*
X185862Y181958D01*
X185835Y181956D01*
X185807Y181955D01*
X183845Y181809D01*
X183830Y181814D01*
X183815Y181819D01*
X183786Y181828D01*
X183757Y181836D01*
X183741Y181840D01*
X183725Y181845D01*
X183696Y181851D01*
X183667Y181857D01*
X183651Y181860D01*
X183634Y181863D01*
X183605Y181866D01*
X183575Y181871D01*
X183559Y181872D01*
X183542Y181874D01*
X183512Y181875D01*
X183483Y181877D01*
X183466Y181877D01*
X183449Y181878D01*
X183420Y181876D01*
X183390Y181876D01*
X183373Y181875D01*
X183357Y181874D01*
X178005Y181456D01*
X178166Y181836D01*
X178166Y181837D01*
X178167Y181838D01*
X178183Y181881D01*
X178199Y181923D01*
X178199Y181924D01*
X178199Y181925D01*
X179241Y185065D01*
X179246Y185081D01*
X179251Y185097D01*
X179259Y185126D01*
X179267Y185154D01*
X179270Y185171D01*
X179275Y185187D01*
X179976Y188420D01*
X179979Y188437D01*
X179982Y188453D01*
X179987Y188482D01*
X179992Y188512D01*
X179994Y188528D01*
X179996Y188545D01*
X180349Y191835D01*
X180349Y191836D01*
X180349Y191837D01*
X180352Y191881D01*
X180355Y191927D01*
X180355Y191928D01*
X180355Y191929D01*
X180399Y193584D01*
X180399Y193605D01*
X180400Y193627D01*
X180393Y194256D01*
X180392Y194274D01*
X180392Y194292D01*
X180341Y195550D01*
X180339Y195574D01*
X180338Y195598D01*
X180236Y196852D01*
X180233Y196876D01*
X180231Y196900D01*
X180078Y198150D01*
X180075Y198167D01*
X180073Y198185D01*
X179978Y198807D01*
X179978Y198808D01*
X179977Y198810D01*
X179977Y198812D01*
X179977Y198814D01*
X179976Y198817D01*
X179976Y198817D01*
X179976Y198818D01*
X179976Y198819D01*
X179976Y198819D01*
X179976Y198822D01*
X179664Y200804D01*
X179657Y200837D01*
X179651Y200870D01*
X178803Y204792D01*
X178791Y204837D01*
X178781Y204879D01*
X178780Y204882D01*
X178780Y204882D01*
X178780Y204882D01*
X177639Y208722D01*
X177639Y208722D01*
X177639Y208722D01*
X177638Y208725D01*
X177624Y208768D01*
X177609Y208810D01*
X177608Y208813D01*
X177608Y208813D01*
X177608Y208813D01*
X176179Y212559D01*
X176166Y212590D01*
X176153Y212621D01*
X175666Y213708D01*
X186299Y217863D01*
X189315Y211579D01*
D02*
G37*
G36*
X938794Y-186079D02*
X938507D01*
Y-186365D01*
X938221D01*
Y-186652D01*
Y-186938D01*
X937935D01*
Y-187224D01*
X937649D01*
Y-187511D01*
X937362D01*
Y-187797D01*
Y-188083D01*
X937076D01*
Y-188370D01*
X936790D01*
Y-188656D01*
X936503D01*
Y-188942D01*
X936217D01*
Y-189229D01*
Y-189515D01*
X935931D01*
Y-189801D01*
X935644D01*
Y-190088D01*
X935358D01*
Y-190374D01*
Y-190660D01*
X935072D01*
Y-190946D01*
X934785D01*
Y-191233D01*
X934499D01*
Y-191519D01*
X934213D01*
Y-191806D01*
Y-192092D01*
X933926D01*
Y-192378D01*
X933640D01*
Y-192664D01*
X933354D01*
Y-192951D01*
Y-193237D01*
X933068D01*
Y-193523D01*
X932781D01*
Y-193810D01*
X932495D01*
Y-194096D01*
Y-194382D01*
X932209D01*
Y-194669D01*
X931922D01*
Y-194955D01*
X931636D01*
Y-195241D01*
X931350D01*
Y-195528D01*
Y-195814D01*
X931063D01*
Y-196100D01*
X930777D01*
Y-196387D01*
X930491D01*
Y-196673D01*
Y-196959D01*
X930204D01*
Y-197245D01*
X929918D01*
Y-197532D01*
X929632D01*
Y-197818D01*
Y-198104D01*
X929346D01*
Y-198391D01*
X929059D01*
Y-198677D01*
X928773D01*
Y-198963D01*
X928487D01*
Y-199250D01*
Y-199536D01*
X928200D01*
Y-199822D01*
X927914D01*
Y-200109D01*
X927628D01*
Y-200395D01*
Y-200681D01*
X927341D01*
Y-200968D01*
X927055D01*
Y-201254D01*
X926769D01*
Y-201540D01*
Y-201826D01*
X926482D01*
Y-202113D01*
X926196D01*
Y-202399D01*
X925910D01*
Y-202685D01*
X925623D01*
Y-202972D01*
Y-203258D01*
X925337D01*
Y-203544D01*
X925051D01*
Y-203831D01*
X924765D01*
Y-204117D01*
Y-204403D01*
X924478D01*
Y-204690D01*
X924192D01*
Y-204976D01*
X923906D01*
Y-205262D01*
X923619D01*
Y-205549D01*
Y-205835D01*
X923906D01*
Y-206121D01*
Y-206407D01*
X924192D01*
Y-206694D01*
Y-206980D01*
X924478D01*
Y-207266D01*
X924765D01*
Y-207553D01*
Y-207839D01*
X925051D01*
Y-208125D01*
Y-208412D01*
X925337D01*
Y-208698D01*
Y-208984D01*
X925623D01*
Y-209271D01*
Y-209557D01*
X925910D01*
Y-209843D01*
Y-210129D01*
X926196D01*
Y-210416D01*
Y-210702D01*
X926482D01*
Y-210988D01*
Y-211275D01*
X926769D01*
Y-211561D01*
Y-211847D01*
X927055D01*
Y-212134D01*
X927341D01*
Y-212420D01*
Y-212706D01*
X927628D01*
Y-212993D01*
Y-213279D01*
X927914D01*
Y-213565D01*
Y-213851D01*
X928200D01*
Y-214138D01*
Y-214424D01*
X928487D01*
Y-214710D01*
Y-214997D01*
X928773D01*
Y-215283D01*
Y-215569D01*
X929059D01*
Y-215856D01*
Y-216142D01*
X929346D01*
Y-216428D01*
X929632D01*
Y-216715D01*
Y-217001D01*
X929918D01*
Y-217287D01*
Y-217574D01*
X930204D01*
Y-217860D01*
Y-218146D01*
X930491D01*
Y-218433D01*
Y-218719D01*
X930777D01*
Y-219005D01*
Y-219291D01*
X931063D01*
Y-219578D01*
Y-219864D01*
X931350D01*
Y-220150D01*
Y-220437D01*
X931636D01*
Y-220723D01*
X931922D01*
Y-221009D01*
Y-221296D01*
X932209D01*
Y-221582D01*
Y-221868D01*
X932495D01*
Y-222155D01*
X917320D01*
Y-221868D01*
X917034D01*
Y-221582D01*
Y-221296D01*
Y-221009D01*
X916748D01*
Y-220723D01*
Y-220437D01*
Y-220150D01*
X916461D01*
Y-219864D01*
Y-219578D01*
X916175D01*
Y-219291D01*
Y-219005D01*
Y-218719D01*
X915889D01*
Y-218433D01*
Y-218146D01*
Y-217860D01*
X915602D01*
Y-217574D01*
Y-217287D01*
X915316D01*
Y-217001D01*
Y-216715D01*
Y-216428D01*
X915030D01*
Y-216142D01*
Y-215856D01*
Y-215569D01*
X914744D01*
Y-215283D01*
Y-214997D01*
Y-214710D01*
X914457D01*
Y-214424D01*
X913885D01*
Y-214710D01*
Y-214997D01*
X913598D01*
Y-215283D01*
X913312D01*
Y-215569D01*
Y-215856D01*
X913026D01*
Y-216142D01*
X912739D01*
Y-216428D01*
Y-216715D01*
X912453D01*
Y-217001D01*
X912167D01*
Y-217287D01*
Y-217574D01*
X911880D01*
Y-217860D01*
X911594D01*
Y-218146D01*
X911308D01*
Y-218433D01*
Y-218719D01*
X911022D01*
Y-219005D01*
X910735D01*
Y-219291D01*
Y-219578D01*
X910449D01*
Y-219864D01*
X910163D01*
Y-220150D01*
Y-220437D01*
X909876D01*
Y-220723D01*
X909590D01*
Y-221009D01*
Y-221296D01*
X909304D01*
Y-221582D01*
X909017D01*
Y-221868D01*
Y-222155D01*
X892984D01*
Y-221868D01*
X893270D01*
Y-221582D01*
X893556D01*
Y-221296D01*
X893843D01*
Y-221009D01*
X894129D01*
Y-220723D01*
Y-220437D01*
X894415D01*
Y-220150D01*
X894702D01*
Y-219864D01*
X894988D01*
Y-219578D01*
X895274D01*
Y-219291D01*
Y-219005D01*
X895561D01*
Y-218719D01*
X895847D01*
Y-218433D01*
X896133D01*
Y-218146D01*
Y-217860D01*
X896420D01*
Y-217574D01*
X896706D01*
Y-217287D01*
X896992D01*
Y-217001D01*
X897278D01*
Y-216715D01*
Y-216428D01*
X897565D01*
Y-216142D01*
X897851D01*
Y-215856D01*
X898137D01*
Y-215569D01*
X898424D01*
Y-215283D01*
Y-214997D01*
X898710D01*
Y-214710D01*
X898996D01*
Y-214424D01*
X899283D01*
Y-214138D01*
Y-213851D01*
X899569D01*
Y-213565D01*
X899855D01*
Y-213279D01*
X900142D01*
Y-212993D01*
X900428D01*
Y-212706D01*
Y-212420D01*
X900714D01*
Y-212134D01*
X901000D01*
Y-211847D01*
X901287D01*
Y-211561D01*
Y-211275D01*
X901573D01*
Y-210988D01*
X901859D01*
Y-210702D01*
X902146D01*
Y-210416D01*
X902432D01*
Y-210129D01*
Y-209843D01*
X902718D01*
Y-209557D01*
X903005D01*
Y-209271D01*
X903291D01*
Y-208984D01*
Y-208698D01*
X903577D01*
Y-208412D01*
X903864D01*
Y-208125D01*
X904150D01*
Y-207839D01*
X904436D01*
Y-207553D01*
Y-207266D01*
X904723D01*
Y-206980D01*
X905009D01*
Y-206694D01*
X905295D01*
Y-206407D01*
X905581D01*
Y-206121D01*
Y-205835D01*
X905868D01*
Y-205549D01*
X906154D01*
Y-205262D01*
X906441D01*
Y-204976D01*
Y-204690D01*
X906727D01*
Y-204403D01*
X907013D01*
Y-204117D01*
X907299D01*
Y-203831D01*
X907586D01*
Y-203544D01*
Y-203258D01*
X907872D01*
Y-202972D01*
Y-202685D01*
Y-202399D01*
X907586D01*
Y-202113D01*
X907299D01*
Y-201826D01*
Y-201540D01*
X907013D01*
Y-201254D01*
Y-200968D01*
X906727D01*
Y-200681D01*
Y-200395D01*
X906441D01*
Y-200109D01*
Y-199822D01*
X906154D01*
Y-199536D01*
Y-199250D01*
X905868D01*
Y-198963D01*
Y-198677D01*
X905581D01*
Y-198391D01*
X905295D01*
Y-198104D01*
Y-197818D01*
X905009D01*
Y-197532D01*
Y-197245D01*
X904723D01*
Y-196959D01*
Y-196673D01*
X904436D01*
Y-196387D01*
Y-196100D01*
X904150D01*
Y-195814D01*
Y-195528D01*
X903864D01*
Y-195241D01*
Y-194955D01*
X903577D01*
Y-194669D01*
X903291D01*
Y-194382D01*
Y-194096D01*
X903005D01*
Y-193810D01*
Y-193523D01*
X902718D01*
Y-193237D01*
Y-192951D01*
X902432D01*
Y-192664D01*
Y-192378D01*
X902146D01*
Y-192092D01*
Y-191806D01*
X901859D01*
Y-191519D01*
Y-191233D01*
X901573D01*
Y-190946D01*
Y-190660D01*
X901287D01*
Y-190374D01*
X901000D01*
Y-190088D01*
Y-189801D01*
X900714D01*
Y-189515D01*
Y-189229D01*
X900428D01*
Y-188942D01*
Y-188656D01*
X900142D01*
Y-188370D01*
Y-188083D01*
X899855D01*
Y-187797D01*
Y-187511D01*
X899569D01*
Y-187224D01*
Y-186938D01*
X899283D01*
Y-186652D01*
X898996D01*
Y-186365D01*
Y-186079D01*
X898710D01*
Y-185793D01*
X914457D01*
Y-186079D01*
X914744D01*
Y-186365D01*
Y-186652D01*
Y-186938D01*
X915030D01*
Y-187224D01*
Y-187511D01*
Y-187797D01*
X915316D01*
Y-188083D01*
Y-188370D01*
Y-188656D01*
X915602D01*
Y-188942D01*
Y-189229D01*
Y-189515D01*
X915889D01*
Y-189801D01*
Y-190088D01*
Y-190374D01*
X916175D01*
Y-190660D01*
Y-190946D01*
Y-191233D01*
X916461D01*
Y-191519D01*
Y-191806D01*
Y-192092D01*
X916748D01*
Y-192378D01*
Y-192664D01*
Y-192951D01*
X917034D01*
Y-193237D01*
Y-193523D01*
Y-193810D01*
Y-194096D01*
X917607D01*
Y-193810D01*
X917893D01*
Y-193523D01*
X918179D01*
Y-193237D01*
Y-192951D01*
X918466D01*
Y-192664D01*
X918752D01*
Y-192378D01*
Y-192092D01*
X919038D01*
Y-191806D01*
X919324D01*
Y-191519D01*
Y-191233D01*
X919611D01*
Y-190946D01*
X919897D01*
Y-190660D01*
Y-190374D01*
X920183D01*
Y-190088D01*
X920470D01*
Y-189801D01*
Y-189515D01*
X920756D01*
Y-189229D01*
X921042D01*
Y-188942D01*
Y-188656D01*
X921329D01*
Y-188370D01*
X921615D01*
Y-188083D01*
Y-187797D01*
X921901D01*
Y-187511D01*
X922188D01*
Y-187224D01*
Y-186938D01*
X922474D01*
Y-186652D01*
X922760D01*
Y-186365D01*
Y-186079D01*
X923047D01*
Y-185793D01*
X938794D01*
Y-186079D01*
D02*
G37*
G36*
X805658Y-172050D02*
X807376D01*
Y-172336D01*
X808235D01*
Y-172623D01*
X809094D01*
Y-172909D01*
X809953D01*
Y-173195D01*
X810526D01*
Y-173481D01*
X810812D01*
Y-173768D01*
X811385D01*
Y-174054D01*
X811671D01*
Y-174340D01*
X812243D01*
Y-174627D01*
X812530D01*
Y-174913D01*
X812816D01*
Y-175199D01*
X813103D01*
Y-175486D01*
X813389D01*
Y-175772D01*
X813675D01*
Y-176058D01*
X813961D01*
Y-176345D01*
Y-176631D01*
X814248D01*
Y-176917D01*
X814534D01*
Y-177204D01*
Y-177490D01*
X814820D01*
Y-177776D01*
X815107D01*
Y-178062D01*
Y-178349D01*
X815393D01*
Y-178635D01*
Y-178921D01*
Y-179208D01*
X815679D01*
Y-179494D01*
Y-179780D01*
Y-180067D01*
X815966D01*
Y-180353D01*
Y-180639D01*
Y-180926D01*
Y-181212D01*
X816252D01*
Y-181498D01*
Y-181784D01*
Y-182071D01*
Y-182357D01*
Y-182643D01*
X816538D01*
Y-182930D01*
Y-183216D01*
Y-183502D01*
Y-183789D01*
Y-184075D01*
Y-184361D01*
Y-184648D01*
Y-184934D01*
Y-185220D01*
Y-185507D01*
Y-185793D01*
Y-186079D01*
Y-186365D01*
Y-186652D01*
Y-186938D01*
Y-187224D01*
Y-187511D01*
Y-187797D01*
Y-188083D01*
Y-188370D01*
X816252D01*
Y-188656D01*
Y-188942D01*
Y-189229D01*
Y-189515D01*
Y-189801D01*
Y-190088D01*
Y-190374D01*
X815966D01*
Y-190660D01*
Y-190946D01*
Y-191233D01*
Y-191519D01*
Y-191806D01*
X815679D01*
Y-192092D01*
Y-192378D01*
Y-192664D01*
Y-192951D01*
Y-193237D01*
X815393D01*
Y-193523D01*
Y-193810D01*
Y-194096D01*
X815107D01*
Y-194382D01*
Y-194669D01*
Y-194955D01*
Y-195241D01*
X814820D01*
Y-195528D01*
Y-195814D01*
Y-196100D01*
X814534D01*
Y-196387D01*
Y-196673D01*
X814248D01*
Y-196959D01*
Y-197245D01*
Y-197532D01*
X813961D01*
Y-197818D01*
Y-198104D01*
X813675D01*
Y-198391D01*
Y-198677D01*
X813389D01*
Y-198963D01*
Y-199250D01*
X813103D01*
Y-199536D01*
X812816D01*
Y-199822D01*
Y-200109D01*
X812530D01*
Y-200395D01*
X812243D01*
Y-200681D01*
X811957D01*
Y-200968D01*
Y-201254D01*
X811671D01*
Y-201540D01*
X811385D01*
Y-201826D01*
X811098D01*
Y-202113D01*
X810812D01*
Y-202399D01*
X810526D01*
Y-202685D01*
X809953D01*
Y-202972D01*
X809667D01*
Y-203258D01*
X809094D01*
Y-203544D01*
X808808D01*
Y-203831D01*
X808235D01*
Y-204117D01*
X807376D01*
Y-204403D01*
X806517D01*
Y-204690D01*
X805658D01*
Y-204976D01*
X803940D01*
Y-205262D01*
X798787D01*
Y-204976D01*
X796210D01*
Y-204690D01*
X794206D01*
Y-204403D01*
X792774D01*
Y-204117D01*
X791343D01*
Y-203831D01*
X789911D01*
Y-204117D01*
Y-204403D01*
Y-204690D01*
Y-204976D01*
Y-205262D01*
Y-205549D01*
Y-205835D01*
X789625D01*
Y-206121D01*
Y-206407D01*
Y-206694D01*
Y-206980D01*
Y-207266D01*
Y-207553D01*
X789338D01*
Y-207839D01*
Y-208125D01*
Y-208412D01*
Y-208698D01*
Y-208984D01*
Y-209271D01*
X789052D01*
Y-209557D01*
Y-209843D01*
Y-210129D01*
Y-210416D01*
Y-210702D01*
Y-210988D01*
Y-211275D01*
X788766D01*
Y-211561D01*
Y-211847D01*
Y-212134D01*
Y-212420D01*
Y-212706D01*
Y-212993D01*
X788480D01*
Y-213279D01*
Y-213565D01*
Y-213851D01*
Y-214138D01*
Y-214424D01*
Y-214710D01*
X788193D01*
Y-214997D01*
Y-215283D01*
Y-215569D01*
Y-215856D01*
Y-216142D01*
Y-216428D01*
Y-216715D01*
X787907D01*
Y-217001D01*
Y-217287D01*
Y-217574D01*
Y-217860D01*
Y-218146D01*
Y-218433D01*
X787621D01*
Y-218719D01*
Y-219005D01*
Y-219291D01*
Y-219578D01*
Y-219864D01*
Y-220150D01*
X787334D01*
Y-220437D01*
Y-220723D01*
Y-221009D01*
Y-221296D01*
Y-221582D01*
Y-221868D01*
Y-222155D01*
X773878D01*
Y-221868D01*
X774164D01*
Y-221582D01*
Y-221296D01*
Y-221009D01*
Y-220723D01*
Y-220437D01*
X774450D01*
Y-220150D01*
Y-219864D01*
Y-219578D01*
Y-219291D01*
Y-219005D01*
Y-218719D01*
Y-218433D01*
X774737D01*
Y-218146D01*
Y-217860D01*
Y-217574D01*
Y-217287D01*
Y-217001D01*
Y-216715D01*
X775023D01*
Y-216428D01*
Y-216142D01*
Y-215856D01*
Y-215569D01*
Y-215283D01*
Y-214997D01*
X775309D01*
Y-214710D01*
Y-214424D01*
Y-214138D01*
Y-213851D01*
Y-213565D01*
Y-213279D01*
Y-212993D01*
X775596D01*
Y-212706D01*
Y-212420D01*
Y-212134D01*
Y-211847D01*
Y-211561D01*
Y-211275D01*
X775882D01*
Y-210988D01*
Y-210702D01*
Y-210416D01*
Y-210129D01*
Y-209843D01*
Y-209557D01*
X776168D01*
Y-209271D01*
Y-208984D01*
Y-208698D01*
Y-208412D01*
Y-208125D01*
Y-207839D01*
X776454D01*
Y-207553D01*
Y-207266D01*
Y-206980D01*
Y-206694D01*
Y-206407D01*
Y-206121D01*
Y-205835D01*
X776741D01*
Y-205549D01*
Y-205262D01*
Y-204976D01*
Y-204690D01*
Y-204403D01*
Y-204117D01*
X777027D01*
Y-203831D01*
Y-203544D01*
Y-203258D01*
Y-202972D01*
Y-202685D01*
Y-202399D01*
X777313D01*
Y-202113D01*
Y-201826D01*
Y-201540D01*
Y-201254D01*
Y-200968D01*
Y-200681D01*
X777600D01*
Y-200395D01*
Y-200109D01*
Y-199822D01*
Y-199536D01*
Y-199250D01*
Y-198963D01*
Y-198677D01*
X777886D01*
Y-198391D01*
Y-198104D01*
Y-197818D01*
Y-197532D01*
Y-197245D01*
Y-196959D01*
X778172D01*
Y-196673D01*
Y-196387D01*
Y-196100D01*
Y-195814D01*
Y-195528D01*
Y-195241D01*
X778459D01*
Y-194955D01*
Y-194669D01*
Y-194382D01*
Y-194096D01*
Y-193810D01*
Y-193523D01*
Y-193237D01*
X778745D01*
Y-192951D01*
Y-192664D01*
Y-192378D01*
Y-192092D01*
Y-191806D01*
Y-191519D01*
X779031D01*
Y-191233D01*
Y-190946D01*
Y-190660D01*
Y-190374D01*
Y-190088D01*
Y-189801D01*
X779318D01*
Y-189515D01*
Y-189229D01*
Y-188942D01*
Y-188656D01*
Y-188370D01*
Y-188083D01*
X779604D01*
Y-187797D01*
Y-187511D01*
Y-187224D01*
Y-186938D01*
Y-186652D01*
Y-186365D01*
Y-186079D01*
X779890D01*
Y-185793D01*
Y-185507D01*
Y-185220D01*
Y-184934D01*
Y-184648D01*
Y-184361D01*
X780176D01*
Y-184075D01*
Y-183789D01*
Y-183502D01*
Y-183216D01*
Y-182930D01*
Y-182643D01*
X780463D01*
Y-182357D01*
Y-182071D01*
Y-181784D01*
Y-181498D01*
Y-181212D01*
Y-180926D01*
Y-180639D01*
X780749D01*
Y-180353D01*
Y-180067D01*
Y-179780D01*
Y-179494D01*
Y-179208D01*
Y-178921D01*
X781035D01*
Y-178635D01*
Y-178349D01*
Y-178062D01*
Y-177776D01*
Y-177490D01*
Y-177204D01*
X781322D01*
Y-176917D01*
Y-176631D01*
Y-176345D01*
Y-176058D01*
Y-175772D01*
Y-175486D01*
Y-175199D01*
X781608D01*
Y-174913D01*
Y-174627D01*
Y-174340D01*
Y-174054D01*
Y-173768D01*
Y-173481D01*
X781894D01*
Y-173195D01*
Y-172909D01*
Y-172623D01*
Y-172336D01*
Y-172050D01*
Y-171764D01*
X805658D01*
Y-172050D01*
D02*
G37*
G36*
X894702Y-186079D02*
Y-186365D01*
Y-186652D01*
Y-186938D01*
Y-187224D01*
Y-187511D01*
Y-187797D01*
Y-188083D01*
Y-188370D01*
Y-188656D01*
Y-188942D01*
Y-189229D01*
Y-189515D01*
Y-189801D01*
Y-190088D01*
Y-190374D01*
Y-190660D01*
Y-190946D01*
Y-191233D01*
Y-191519D01*
Y-191806D01*
X894415D01*
Y-192092D01*
Y-192378D01*
Y-192664D01*
Y-192951D01*
Y-193237D01*
X894129D01*
Y-193523D01*
Y-193810D01*
Y-194096D01*
Y-194382D01*
X893843D01*
Y-194669D01*
Y-194955D01*
Y-195241D01*
Y-195528D01*
X893556D01*
Y-195814D01*
Y-196100D01*
Y-196387D01*
X893270D01*
Y-196673D01*
Y-196959D01*
Y-197245D01*
X892984D01*
Y-197532D01*
Y-197818D01*
Y-198104D01*
X892698D01*
Y-198391D01*
Y-198677D01*
Y-198963D01*
X892411D01*
Y-199250D01*
Y-199536D01*
X892125D01*
Y-199822D01*
Y-200109D01*
X891838D01*
Y-200395D01*
Y-200681D01*
Y-200968D01*
X891552D01*
Y-201254D01*
Y-201540D01*
X891266D01*
Y-201826D01*
Y-202113D01*
Y-202399D01*
X890980D01*
Y-202685D01*
Y-202972D01*
X890693D01*
Y-203258D01*
Y-203544D01*
Y-203831D01*
X890407D01*
Y-204117D01*
Y-204403D01*
X890121D01*
Y-204690D01*
Y-204976D01*
Y-205262D01*
X889834D01*
Y-205549D01*
Y-205835D01*
X889548D01*
Y-206121D01*
Y-206407D01*
Y-206694D01*
X889262D01*
Y-206980D01*
Y-207266D01*
X888975D01*
Y-207553D01*
Y-207839D01*
Y-208125D01*
X888689D01*
Y-208412D01*
Y-208698D01*
X888403D01*
Y-208984D01*
Y-209271D01*
Y-209557D01*
X888116D01*
Y-209843D01*
Y-210129D01*
X887830D01*
Y-210416D01*
Y-210702D01*
Y-210988D01*
X887544D01*
Y-211275D01*
Y-211561D01*
X887257D01*
Y-211847D01*
Y-212134D01*
Y-212420D01*
X886971D01*
Y-212706D01*
Y-212993D01*
X886685D01*
Y-213279D01*
Y-213565D01*
Y-213851D01*
X886399D01*
Y-214138D01*
Y-214424D01*
X886112D01*
Y-214710D01*
Y-214997D01*
Y-215283D01*
X885826D01*
Y-215569D01*
Y-215856D01*
X885540D01*
Y-216142D01*
Y-216428D01*
Y-216715D01*
X885253D01*
Y-217001D01*
Y-217287D01*
X884967D01*
Y-217574D01*
Y-217860D01*
Y-218146D01*
X884681D01*
Y-218433D01*
Y-218719D01*
X884394D01*
Y-219005D01*
Y-219291D01*
Y-219578D01*
X884108D01*
Y-219864D01*
Y-220150D01*
X883822D01*
Y-220437D01*
Y-220723D01*
Y-221009D01*
X883535D01*
Y-221296D01*
Y-221582D01*
X883249D01*
Y-221868D01*
Y-222155D01*
Y-222441D01*
X882963D01*
Y-222727D01*
Y-223014D01*
X882677D01*
Y-223300D01*
Y-223586D01*
X882390D01*
Y-223872D01*
Y-224159D01*
X882104D01*
Y-224445D01*
Y-224731D01*
Y-225018D01*
X881818D01*
Y-225304D01*
X881531D01*
Y-225590D01*
Y-225877D01*
Y-226163D01*
X881245D01*
Y-226449D01*
X880959D01*
Y-226736D01*
Y-227022D01*
X880672D01*
Y-227308D01*
Y-227595D01*
X880386D01*
Y-227881D01*
Y-228167D01*
X880100D01*
Y-228453D01*
Y-228740D01*
X879813D01*
Y-229026D01*
X879527D01*
Y-229312D01*
Y-229599D01*
X879241D01*
Y-229885D01*
Y-230171D01*
X878954D01*
Y-230458D01*
X878668D01*
Y-230744D01*
X878382D01*
Y-231030D01*
Y-231317D01*
X878096D01*
Y-231603D01*
X877809D01*
Y-231889D01*
Y-232176D01*
X877523D01*
Y-232462D01*
X877237D01*
Y-232748D01*
X876950D01*
Y-233034D01*
Y-233321D01*
X876664D01*
Y-233607D01*
X876378D01*
Y-233893D01*
X876091D01*
Y-234180D01*
X875805D01*
Y-234466D01*
X875519D01*
Y-234752D01*
Y-235039D01*
X875232D01*
Y-235325D01*
X874946D01*
Y-235611D01*
X874660D01*
Y-235898D01*
X874373D01*
Y-236184D01*
X874087D01*
Y-236470D01*
X873801D01*
Y-236757D01*
X873514D01*
Y-237043D01*
X872942D01*
Y-237329D01*
X872656D01*
Y-237615D01*
X872369D01*
Y-237902D01*
X872083D01*
Y-238188D01*
X871797D01*
Y-238474D01*
X871224D01*
Y-238761D01*
X870938D01*
Y-239047D01*
X870365D01*
Y-239333D01*
X870079D01*
Y-239620D01*
X869506D01*
Y-239906D01*
X869220D01*
Y-240192D01*
X868647D01*
Y-240479D01*
X868075D01*
Y-240765D01*
X867502D01*
Y-241051D01*
X866929D01*
Y-241338D01*
X866357D01*
Y-241624D01*
X865498D01*
Y-241910D01*
X864925D01*
Y-242196D01*
X864066D01*
Y-242483D01*
X862921D01*
Y-242769D01*
X861776D01*
Y-243056D01*
X860058D01*
Y-243342D01*
X858054D01*
Y-243628D01*
X857767D01*
Y-243342D01*
Y-243056D01*
Y-242769D01*
Y-242483D01*
Y-242196D01*
Y-241910D01*
Y-241624D01*
Y-241338D01*
Y-241051D01*
Y-240765D01*
Y-240479D01*
Y-240192D01*
Y-239906D01*
Y-239620D01*
Y-239333D01*
Y-239047D01*
Y-238761D01*
Y-238474D01*
Y-238188D01*
Y-237902D01*
Y-237615D01*
Y-237329D01*
Y-237043D01*
Y-236757D01*
Y-236470D01*
Y-236184D01*
Y-235898D01*
Y-235611D01*
Y-235325D01*
Y-235039D01*
Y-234752D01*
Y-234466D01*
Y-234180D01*
X858340D01*
Y-233893D01*
X858912D01*
Y-233607D01*
X859485D01*
Y-233321D01*
X860058D01*
Y-233034D01*
X860630D01*
Y-232748D01*
X861203D01*
Y-232462D01*
X861489D01*
Y-232176D01*
X862062D01*
Y-231889D01*
X862348D01*
Y-231603D01*
X862921D01*
Y-231317D01*
X863207D01*
Y-231030D01*
X863494D01*
Y-230744D01*
X864066D01*
Y-230458D01*
X864353D01*
Y-230171D01*
X864639D01*
Y-229885D01*
X864925D01*
Y-229599D01*
X865211D01*
Y-229312D01*
X865498D01*
Y-229026D01*
X865784D01*
Y-228740D01*
X866070D01*
Y-228453D01*
X866357D01*
Y-228167D01*
X866643D01*
Y-227881D01*
X866929D01*
Y-227595D01*
X867216D01*
Y-227308D01*
Y-227022D01*
X867502D01*
Y-226736D01*
X867788D01*
Y-226449D01*
X868075D01*
Y-226163D01*
Y-225877D01*
X868361D01*
Y-225590D01*
X868647D01*
Y-225304D01*
Y-225018D01*
X868933D01*
Y-224731D01*
Y-224445D01*
X869220D01*
Y-224159D01*
X869506D01*
Y-223872D01*
Y-223586D01*
X869792D01*
Y-223300D01*
Y-223014D01*
X870079D01*
Y-222727D01*
Y-222441D01*
X868361D01*
Y-222155D01*
X866357D01*
Y-221868D01*
X865211D01*
Y-221582D01*
X864639D01*
Y-221296D01*
X863780D01*
Y-221009D01*
X863207D01*
Y-220723D01*
X862921D01*
Y-220437D01*
X862348D01*
Y-220150D01*
X862062D01*
Y-219864D01*
X861776D01*
Y-219578D01*
X861489D01*
Y-219291D01*
X861203D01*
Y-219005D01*
X860917D01*
Y-218719D01*
Y-218433D01*
X860630D01*
Y-218146D01*
X860344D01*
Y-217860D01*
Y-217574D01*
X860058D01*
Y-217287D01*
Y-217001D01*
X859772D01*
Y-216715D01*
Y-216428D01*
X859485D01*
Y-216142D01*
Y-215856D01*
Y-215569D01*
X859199D01*
Y-215283D01*
Y-214997D01*
Y-214710D01*
Y-214424D01*
X858912D01*
Y-214138D01*
Y-213851D01*
Y-213565D01*
Y-213279D01*
Y-212993D01*
Y-212706D01*
Y-212420D01*
X858626D01*
Y-212134D01*
Y-211847D01*
Y-211561D01*
Y-211275D01*
Y-210988D01*
Y-210702D01*
Y-210416D01*
Y-210129D01*
Y-209843D01*
Y-209557D01*
Y-209271D01*
Y-208984D01*
Y-208698D01*
Y-208412D01*
Y-208125D01*
X858340D01*
Y-207839D01*
Y-207553D01*
Y-207266D01*
Y-206980D01*
Y-206694D01*
Y-206407D01*
Y-206121D01*
Y-205835D01*
Y-205549D01*
Y-205262D01*
Y-204976D01*
Y-204690D01*
Y-204403D01*
Y-204117D01*
Y-203831D01*
X858054D01*
Y-203544D01*
Y-203258D01*
Y-202972D01*
Y-202685D01*
Y-202399D01*
Y-202113D01*
Y-201826D01*
Y-201540D01*
Y-201254D01*
Y-200968D01*
Y-200681D01*
Y-200395D01*
Y-200109D01*
Y-199822D01*
Y-199536D01*
Y-199250D01*
X857767D01*
Y-198963D01*
Y-198677D01*
Y-198391D01*
Y-198104D01*
Y-197818D01*
Y-197532D01*
Y-197245D01*
Y-196959D01*
Y-196673D01*
Y-196387D01*
Y-196100D01*
Y-195814D01*
Y-195528D01*
Y-195241D01*
Y-194955D01*
Y-194669D01*
X857481D01*
Y-194382D01*
Y-194096D01*
Y-193810D01*
Y-193523D01*
Y-193237D01*
Y-192951D01*
Y-192664D01*
Y-192378D01*
Y-192092D01*
Y-191806D01*
Y-191519D01*
Y-191233D01*
Y-190946D01*
Y-190660D01*
X857195D01*
Y-190374D01*
Y-190088D01*
Y-189801D01*
Y-189515D01*
Y-189229D01*
Y-188942D01*
Y-188656D01*
Y-188370D01*
Y-188083D01*
Y-187797D01*
Y-187511D01*
Y-187224D01*
Y-186938D01*
Y-186652D01*
Y-186365D01*
Y-186079D01*
X856908D01*
Y-185793D01*
X870651D01*
Y-186079D01*
Y-186365D01*
Y-186652D01*
Y-186938D01*
Y-187224D01*
Y-187511D01*
Y-187797D01*
Y-188083D01*
Y-188370D01*
Y-188656D01*
Y-188942D01*
Y-189229D01*
Y-189515D01*
Y-189801D01*
X870938D01*
Y-190088D01*
Y-190374D01*
Y-190660D01*
Y-190946D01*
Y-191233D01*
Y-191519D01*
Y-191806D01*
Y-192092D01*
Y-192378D01*
Y-192664D01*
Y-192951D01*
Y-193237D01*
Y-193523D01*
Y-193810D01*
Y-194096D01*
Y-194382D01*
Y-194669D01*
Y-194955D01*
Y-195241D01*
Y-195528D01*
Y-195814D01*
Y-196100D01*
Y-196387D01*
Y-196673D01*
Y-196959D01*
Y-197245D01*
Y-197532D01*
Y-197818D01*
Y-198104D01*
Y-198391D01*
Y-198677D01*
Y-198963D01*
Y-199250D01*
Y-199536D01*
Y-199822D01*
Y-200109D01*
Y-200395D01*
Y-200681D01*
Y-200968D01*
Y-201254D01*
Y-201540D01*
X871224D01*
Y-201826D01*
X870938D01*
Y-202113D01*
Y-202399D01*
X871224D01*
Y-202685D01*
Y-202972D01*
Y-203258D01*
Y-203544D01*
Y-203831D01*
Y-204117D01*
Y-204403D01*
Y-204690D01*
Y-204976D01*
Y-205262D01*
Y-205549D01*
Y-205835D01*
Y-206121D01*
Y-206407D01*
Y-206694D01*
Y-206980D01*
Y-207266D01*
Y-207553D01*
Y-207839D01*
Y-208125D01*
Y-208412D01*
Y-208698D01*
Y-208984D01*
Y-209271D01*
Y-209557D01*
Y-209843D01*
X871510D01*
Y-210129D01*
Y-210416D01*
Y-210702D01*
X871797D01*
Y-210988D01*
X872083D01*
Y-211275D01*
X872369D01*
Y-211561D01*
X873228D01*
Y-211847D01*
X874087D01*
Y-211561D01*
X874373D01*
Y-211275D01*
Y-210988D01*
Y-210702D01*
X874660D01*
Y-210416D01*
Y-210129D01*
X874946D01*
Y-209843D01*
Y-209557D01*
Y-209271D01*
X875232D01*
Y-208984D01*
Y-208698D01*
Y-208412D01*
X875519D01*
Y-208125D01*
Y-207839D01*
Y-207553D01*
X875805D01*
Y-207266D01*
Y-206980D01*
Y-206694D01*
X876091D01*
Y-206407D01*
Y-206121D01*
X876378D01*
Y-205835D01*
Y-205549D01*
Y-205262D01*
X876664D01*
Y-204976D01*
Y-204690D01*
Y-204403D01*
X876950D01*
Y-204117D01*
Y-203831D01*
Y-203544D01*
X877237D01*
Y-203258D01*
Y-202972D01*
X877523D01*
Y-202685D01*
Y-202399D01*
Y-202113D01*
X877809D01*
Y-201826D01*
Y-201540D01*
Y-201254D01*
X878096D01*
Y-200968D01*
Y-200681D01*
Y-200395D01*
X878382D01*
Y-200109D01*
Y-199822D01*
X878668D01*
Y-199536D01*
Y-199250D01*
Y-198963D01*
X878954D01*
Y-198677D01*
Y-198391D01*
Y-198104D01*
X879241D01*
Y-197818D01*
Y-197532D01*
Y-197245D01*
X879527D01*
Y-196959D01*
Y-196673D01*
X879813D01*
Y-196387D01*
Y-196100D01*
Y-195814D01*
X880100D01*
Y-195528D01*
Y-195241D01*
Y-194955D01*
X880386D01*
Y-194669D01*
Y-194382D01*
Y-194096D01*
X880672D01*
Y-193810D01*
Y-193523D01*
Y-193237D01*
Y-192951D01*
X880959D01*
Y-192664D01*
Y-192378D01*
Y-192092D01*
Y-191806D01*
X881245D01*
Y-191519D01*
Y-191233D01*
Y-190946D01*
Y-190660D01*
Y-190374D01*
X881531D01*
Y-190088D01*
Y-189801D01*
Y-189515D01*
Y-189229D01*
Y-188942D01*
Y-188656D01*
X881818D01*
Y-188370D01*
Y-188083D01*
Y-187797D01*
Y-187511D01*
Y-187224D01*
Y-186938D01*
Y-186652D01*
Y-186365D01*
Y-186079D01*
Y-185793D01*
X894702D01*
Y-186079D01*
D02*
G37*
G36*
X836866Y-168614D02*
Y-168900D01*
X836580D01*
Y-169187D01*
Y-169473D01*
Y-169759D01*
Y-170046D01*
Y-170332D01*
Y-170618D01*
X836294D01*
Y-170905D01*
Y-171191D01*
Y-171477D01*
Y-171764D01*
Y-172050D01*
Y-172336D01*
X836007D01*
Y-172623D01*
Y-172909D01*
Y-173195D01*
Y-173481D01*
Y-173768D01*
Y-174054D01*
Y-174340D01*
X835721D01*
Y-174627D01*
Y-174913D01*
Y-175199D01*
Y-175486D01*
Y-175772D01*
Y-176058D01*
X835435D01*
Y-176345D01*
Y-176631D01*
Y-176917D01*
Y-177204D01*
Y-177490D01*
Y-177776D01*
X835149D01*
Y-178062D01*
Y-178349D01*
Y-178635D01*
Y-178921D01*
Y-179208D01*
Y-179494D01*
Y-179780D01*
X834862D01*
Y-180067D01*
Y-180353D01*
Y-180639D01*
Y-180926D01*
Y-181212D01*
Y-181498D01*
X834576D01*
Y-181784D01*
Y-182071D01*
Y-182357D01*
Y-182643D01*
Y-182930D01*
Y-183216D01*
X834290D01*
Y-183502D01*
Y-183789D01*
Y-184075D01*
Y-184361D01*
Y-184648D01*
Y-184934D01*
X834003D01*
Y-185220D01*
Y-185507D01*
Y-185793D01*
Y-186079D01*
Y-186365D01*
Y-186652D01*
Y-186938D01*
X833717D01*
Y-187224D01*
Y-187511D01*
Y-187797D01*
Y-188083D01*
Y-188370D01*
Y-188656D01*
X833431D01*
Y-188942D01*
Y-189229D01*
X834003D01*
Y-188942D01*
X834290D01*
Y-188656D01*
X834576D01*
Y-188370D01*
X835149D01*
Y-188083D01*
X835435D01*
Y-187797D01*
X835721D01*
Y-187511D01*
X836294D01*
Y-187224D01*
X836866D01*
Y-186938D01*
X837153D01*
Y-186652D01*
X837725D01*
Y-186365D01*
X838584D01*
Y-186079D01*
X839157D01*
Y-185793D01*
X840016D01*
Y-185507D01*
X841448D01*
Y-185220D01*
X847746D01*
Y-185507D01*
X848892D01*
Y-185793D01*
X849751D01*
Y-186079D01*
X850323D01*
Y-186365D01*
X850609D01*
Y-186652D01*
X851182D01*
Y-186938D01*
X851468D01*
Y-187224D01*
X851755D01*
Y-187511D01*
X852041D01*
Y-187797D01*
X852327D01*
Y-188083D01*
Y-188370D01*
X852614D01*
Y-188656D01*
Y-188942D01*
X852900D01*
Y-189229D01*
Y-189515D01*
Y-189801D01*
X853186D01*
Y-190088D01*
Y-190374D01*
Y-190660D01*
Y-190946D01*
X853473D01*
Y-191233D01*
Y-191519D01*
Y-191806D01*
Y-192092D01*
Y-192378D01*
Y-192664D01*
Y-192951D01*
Y-193237D01*
Y-193523D01*
Y-193810D01*
Y-194096D01*
Y-194382D01*
Y-194669D01*
Y-194955D01*
Y-195241D01*
Y-195528D01*
Y-195814D01*
Y-196100D01*
X853186D01*
Y-196387D01*
Y-196673D01*
Y-196959D01*
Y-197245D01*
Y-197532D01*
Y-197818D01*
Y-198104D01*
X852900D01*
Y-198391D01*
Y-198677D01*
Y-198963D01*
Y-199250D01*
Y-199536D01*
Y-199822D01*
Y-200109D01*
X852614D01*
Y-200395D01*
Y-200681D01*
Y-200968D01*
Y-201254D01*
Y-201540D01*
Y-201826D01*
X852327D01*
Y-202113D01*
Y-202399D01*
Y-202685D01*
Y-202972D01*
Y-203258D01*
Y-203544D01*
X852041D01*
Y-203831D01*
Y-204117D01*
Y-204403D01*
Y-204690D01*
Y-204976D01*
Y-205262D01*
X851755D01*
Y-205549D01*
Y-205835D01*
Y-206121D01*
Y-206407D01*
Y-206694D01*
Y-206980D01*
Y-207266D01*
X851468D01*
Y-207553D01*
Y-207839D01*
Y-208125D01*
Y-208412D01*
Y-208698D01*
Y-208984D01*
X851182D01*
Y-209271D01*
Y-209557D01*
Y-209843D01*
Y-210129D01*
Y-210416D01*
Y-210702D01*
X850896D01*
Y-210988D01*
Y-211275D01*
Y-211561D01*
Y-211847D01*
Y-212134D01*
Y-212420D01*
Y-212706D01*
X850609D01*
Y-212993D01*
Y-213279D01*
Y-213565D01*
Y-213851D01*
Y-214138D01*
Y-214424D01*
X850323D01*
Y-214710D01*
Y-214997D01*
Y-215283D01*
Y-215569D01*
Y-215856D01*
Y-216142D01*
X850037D01*
Y-216428D01*
Y-216715D01*
Y-217001D01*
Y-217287D01*
Y-217574D01*
Y-217860D01*
X849751D01*
Y-218146D01*
Y-218433D01*
Y-218719D01*
Y-219005D01*
Y-219291D01*
Y-219578D01*
Y-219864D01*
X849464D01*
Y-220150D01*
Y-220437D01*
Y-220723D01*
Y-221009D01*
Y-221296D01*
Y-221582D01*
X849178D01*
Y-221868D01*
Y-222155D01*
X836007D01*
Y-221868D01*
Y-221582D01*
X836294D01*
Y-221296D01*
Y-221009D01*
Y-220723D01*
Y-220437D01*
Y-220150D01*
Y-219864D01*
X836580D01*
Y-219578D01*
Y-219291D01*
Y-219005D01*
Y-218719D01*
Y-218433D01*
Y-218146D01*
Y-217860D01*
X836866D01*
Y-217574D01*
Y-217287D01*
Y-217001D01*
Y-216715D01*
Y-216428D01*
Y-216142D01*
X837153D01*
Y-215856D01*
Y-215569D01*
Y-215283D01*
Y-214997D01*
Y-214710D01*
Y-214424D01*
X837439D01*
Y-214138D01*
Y-213851D01*
Y-213565D01*
Y-213279D01*
Y-212993D01*
Y-212706D01*
Y-212420D01*
X837725D01*
Y-212134D01*
Y-211847D01*
Y-211561D01*
Y-211275D01*
Y-210988D01*
Y-210702D01*
X838012D01*
Y-210416D01*
Y-210129D01*
Y-209843D01*
Y-209557D01*
Y-209271D01*
Y-208984D01*
Y-208698D01*
X838298D01*
Y-208412D01*
Y-208125D01*
Y-207839D01*
Y-207553D01*
Y-207266D01*
Y-206980D01*
X838584D01*
Y-206694D01*
Y-206407D01*
Y-206121D01*
Y-205835D01*
Y-205549D01*
Y-205262D01*
X838871D01*
Y-204976D01*
Y-204690D01*
Y-204403D01*
Y-204117D01*
Y-203831D01*
Y-203544D01*
X839157D01*
Y-203258D01*
Y-202972D01*
Y-202685D01*
Y-202399D01*
Y-202113D01*
Y-201826D01*
Y-201540D01*
X839443D01*
Y-201254D01*
Y-200968D01*
Y-200681D01*
Y-200395D01*
Y-200109D01*
Y-199822D01*
X839730D01*
Y-199536D01*
Y-199250D01*
Y-198963D01*
Y-198677D01*
Y-198391D01*
Y-198104D01*
Y-197818D01*
X840016D01*
Y-197532D01*
Y-197245D01*
Y-196959D01*
Y-196673D01*
Y-196387D01*
Y-196100D01*
X839730D01*
Y-195814D01*
Y-195528D01*
X839443D01*
Y-195241D01*
X839157D01*
Y-194955D01*
X838584D01*
Y-194669D01*
X836866D01*
Y-194955D01*
X835435D01*
Y-195241D01*
X834576D01*
Y-195528D01*
X834003D01*
Y-195814D01*
X833717D01*
Y-196100D01*
X833144D01*
Y-196387D01*
X832858D01*
Y-196673D01*
X832572D01*
Y-196959D01*
Y-197245D01*
X832285D01*
Y-197532D01*
Y-197818D01*
Y-198104D01*
X831999D01*
Y-198391D01*
Y-198677D01*
Y-198963D01*
Y-199250D01*
Y-199536D01*
Y-199822D01*
X831713D01*
Y-200109D01*
Y-200395D01*
Y-200681D01*
Y-200968D01*
Y-201254D01*
Y-201540D01*
Y-201826D01*
X831427D01*
Y-202113D01*
Y-202399D01*
Y-202685D01*
Y-202972D01*
Y-203258D01*
Y-203544D01*
X831140D01*
Y-203831D01*
Y-204117D01*
Y-204403D01*
Y-204690D01*
Y-204976D01*
Y-205262D01*
X830854D01*
Y-205549D01*
Y-205835D01*
Y-206121D01*
Y-206407D01*
Y-206694D01*
Y-206980D01*
X830568D01*
Y-207266D01*
Y-207553D01*
Y-207839D01*
Y-208125D01*
Y-208412D01*
Y-208698D01*
Y-208984D01*
X830281D01*
Y-209271D01*
Y-209557D01*
Y-209843D01*
Y-210129D01*
Y-210416D01*
Y-210702D01*
X829995D01*
Y-210988D01*
Y-211275D01*
Y-211561D01*
Y-211847D01*
Y-212134D01*
Y-212420D01*
X829709D01*
Y-212706D01*
Y-212993D01*
Y-213279D01*
Y-213565D01*
Y-213851D01*
Y-214138D01*
Y-214424D01*
X829422D01*
Y-214710D01*
Y-214997D01*
Y-215283D01*
Y-215569D01*
Y-215856D01*
Y-216142D01*
X829136D01*
Y-216428D01*
Y-216715D01*
Y-217001D01*
Y-217287D01*
Y-217574D01*
Y-217860D01*
X828850D01*
Y-218146D01*
Y-218433D01*
Y-218719D01*
Y-219005D01*
Y-219291D01*
Y-219578D01*
X828563D01*
Y-219864D01*
Y-220150D01*
Y-220437D01*
Y-220723D01*
Y-221009D01*
Y-221296D01*
Y-221582D01*
X828277D01*
Y-221868D01*
Y-222155D01*
X815107D01*
Y-221868D01*
Y-221582D01*
X815393D01*
Y-221296D01*
Y-221009D01*
Y-220723D01*
Y-220437D01*
Y-220150D01*
Y-219864D01*
Y-219578D01*
X815679D01*
Y-219291D01*
Y-219005D01*
Y-218719D01*
Y-218433D01*
Y-218146D01*
Y-217860D01*
X815966D01*
Y-217574D01*
Y-217287D01*
Y-217001D01*
Y-216715D01*
Y-216428D01*
Y-216142D01*
X816252D01*
Y-215856D01*
Y-215569D01*
Y-215283D01*
Y-214997D01*
Y-214710D01*
Y-214424D01*
Y-214138D01*
X816538D01*
Y-213851D01*
Y-213565D01*
Y-213279D01*
Y-212993D01*
Y-212706D01*
Y-212420D01*
X816825D01*
Y-212134D01*
Y-211847D01*
Y-211561D01*
Y-211275D01*
Y-210988D01*
Y-210702D01*
X817111D01*
Y-210416D01*
Y-210129D01*
Y-209843D01*
Y-209557D01*
Y-209271D01*
Y-208984D01*
X817397D01*
Y-208698D01*
Y-208412D01*
Y-208125D01*
Y-207839D01*
Y-207553D01*
Y-207266D01*
Y-206980D01*
X817684D01*
Y-206694D01*
Y-206407D01*
Y-206121D01*
Y-205835D01*
Y-205549D01*
Y-205262D01*
X817970D01*
Y-204976D01*
Y-204690D01*
Y-204403D01*
Y-204117D01*
Y-203831D01*
Y-203544D01*
X818256D01*
Y-203258D01*
Y-202972D01*
Y-202685D01*
Y-202399D01*
Y-202113D01*
Y-201826D01*
Y-201540D01*
X818542D01*
Y-201254D01*
Y-200968D01*
Y-200681D01*
Y-200395D01*
Y-200109D01*
Y-199822D01*
X818829D01*
Y-199536D01*
Y-199250D01*
Y-198963D01*
Y-198677D01*
Y-198391D01*
Y-198104D01*
X819115D01*
Y-197818D01*
Y-197532D01*
Y-197245D01*
Y-196959D01*
Y-196673D01*
Y-196387D01*
X819401D01*
Y-196100D01*
Y-195814D01*
Y-195528D01*
Y-195241D01*
Y-194955D01*
Y-194669D01*
Y-194382D01*
X819688D01*
Y-194096D01*
Y-193810D01*
Y-193523D01*
Y-193237D01*
Y-192951D01*
Y-192664D01*
X819974D01*
Y-192378D01*
Y-192092D01*
Y-191806D01*
Y-191519D01*
Y-191233D01*
Y-190946D01*
X820260D01*
Y-190660D01*
Y-190374D01*
Y-190088D01*
Y-189801D01*
Y-189515D01*
Y-189229D01*
X820547D01*
Y-188942D01*
Y-188656D01*
Y-188370D01*
Y-188083D01*
Y-187797D01*
Y-187511D01*
Y-187224D01*
X820833D01*
Y-186938D01*
Y-186652D01*
Y-186365D01*
Y-186079D01*
Y-185793D01*
Y-185507D01*
X821119D01*
Y-185220D01*
Y-184934D01*
Y-184648D01*
Y-184361D01*
Y-184075D01*
Y-183789D01*
X821406D01*
Y-183502D01*
Y-183216D01*
Y-182930D01*
Y-182643D01*
Y-182357D01*
Y-182071D01*
Y-181784D01*
X821692D01*
Y-181498D01*
Y-181212D01*
Y-180926D01*
Y-180639D01*
Y-180353D01*
Y-180067D01*
X821978D01*
Y-179780D01*
Y-179494D01*
Y-179208D01*
Y-178921D01*
Y-178635D01*
Y-178349D01*
X822264D01*
Y-178062D01*
Y-177776D01*
Y-177490D01*
Y-177204D01*
Y-176917D01*
Y-176631D01*
X822551D01*
Y-176345D01*
Y-176058D01*
Y-175772D01*
Y-175486D01*
Y-175199D01*
Y-174913D01*
Y-174627D01*
X822837D01*
Y-174340D01*
Y-174054D01*
Y-173768D01*
Y-173481D01*
Y-173195D01*
Y-172909D01*
X823123D01*
Y-172623D01*
Y-172336D01*
Y-172050D01*
Y-171764D01*
Y-171477D01*
Y-171191D01*
X823410D01*
Y-170905D01*
Y-170618D01*
Y-170332D01*
Y-170046D01*
Y-169759D01*
Y-169473D01*
Y-169187D01*
X823696D01*
Y-168900D01*
Y-168614D01*
Y-168328D01*
X836866D01*
Y-168614D01*
D02*
G37*
%LPC*%
G36*
X801364Y-182930D02*
X793347D01*
Y-183216D01*
Y-183502D01*
Y-183789D01*
Y-184075D01*
Y-184361D01*
X793061D01*
Y-184648D01*
Y-184934D01*
Y-185220D01*
Y-185507D01*
Y-185793D01*
Y-186079D01*
X792774D01*
Y-186365D01*
Y-186652D01*
Y-186938D01*
Y-187224D01*
Y-187511D01*
Y-187797D01*
X792488D01*
Y-188083D01*
Y-188370D01*
Y-188656D01*
Y-188942D01*
Y-189229D01*
Y-189515D01*
X792202D01*
Y-189801D01*
Y-190088D01*
Y-190374D01*
Y-190660D01*
Y-190946D01*
Y-191233D01*
Y-191519D01*
X791915D01*
Y-191806D01*
Y-192092D01*
Y-192378D01*
Y-192664D01*
Y-192951D01*
Y-193237D01*
X791629D01*
Y-193523D01*
Y-193810D01*
Y-194096D01*
X798787D01*
Y-193810D01*
X799932D01*
Y-193523D01*
X800505D01*
Y-193237D01*
X800791D01*
Y-192951D01*
X801077D01*
Y-192664D01*
X801364D01*
Y-192378D01*
X801650D01*
Y-192092D01*
Y-191806D01*
X801936D01*
Y-191519D01*
Y-191233D01*
X802223D01*
Y-190946D01*
Y-190660D01*
X802509D01*
Y-190374D01*
Y-190088D01*
Y-189801D01*
Y-189515D01*
X802795D01*
Y-189229D01*
Y-188942D01*
Y-188656D01*
Y-188370D01*
Y-188083D01*
X803082D01*
Y-187797D01*
Y-187511D01*
Y-187224D01*
Y-186938D01*
Y-186652D01*
Y-186365D01*
Y-186079D01*
Y-185793D01*
Y-185507D01*
Y-185220D01*
Y-184934D01*
X802795D01*
Y-184648D01*
Y-184361D01*
X802509D01*
Y-184075D01*
Y-183789D01*
X802223D01*
Y-183502D01*
X801936D01*
Y-183216D01*
X801364D01*
Y-182930D01*
D02*
G37*
%LPD*%
D10*
X-423228Y-299213D02*
X1230315D01*
X-423228D02*
Y870079D01*
X1230315Y-299213D02*
Y870079D01*
X-423228D02*
X1230315D01*
X954724Y-299213D02*
Y-141732D01*
X757874Y-299213D02*
Y-141732D01*
X1230315D01*
X757874Y-259842D02*
X1230315D01*
X954724Y-220472D02*
X1230315D01*
X954724Y-181102D02*
X1230315D01*
X1112205Y-259842D02*
Y-220472D01*
X968503Y-285435D02*
X964567D01*
Y-288387D01*
X966535D01*
X964567D01*
Y-291339D01*
X970471Y-287403D02*
Y-291339D01*
Y-289371D01*
X971454Y-288387D01*
X972438Y-287403D01*
X973422D01*
X976374Y-291339D02*
X978342D01*
X977358D01*
Y-287403D01*
X976374D01*
X981294Y-286419D02*
X982278Y-285435D01*
X984246D01*
X985229Y-286419D01*
Y-287403D01*
X984246Y-288387D01*
X983262D01*
X984246D01*
X985229Y-289371D01*
Y-290355D01*
X984246Y-291339D01*
X982278D01*
X981294Y-290355D01*
X987197Y-285435D02*
Y-291339D01*
X990149D01*
X991133Y-290355D01*
Y-286419D01*
X990149Y-285435D01*
X987197D01*
X993101Y-292322D02*
X997037D01*
X1002940Y-291339D02*
X999005D01*
X1002940Y-287403D01*
Y-286419D01*
X1001956Y-285435D01*
X999988D01*
X999005Y-286419D01*
X1004908D02*
X1005892Y-285435D01*
X1007860D01*
X1008844Y-286419D01*
Y-290355D01*
X1007860Y-291339D01*
X1005892D01*
X1004908Y-290355D01*
Y-286419D01*
X1010812Y-291339D02*
X1012780D01*
X1011796D01*
Y-285435D01*
X1010812Y-286419D01*
X1015732D02*
X1016715Y-285435D01*
X1018683D01*
X1019667Y-286419D01*
Y-287403D01*
X1018683Y-288387D01*
X1019667Y-289371D01*
Y-290355D01*
X1018683Y-291339D01*
X1016715D01*
X1015732Y-290355D01*
Y-289371D01*
X1016715Y-288387D01*
X1015732Y-287403D01*
Y-286419D01*
X1016715Y-288387D02*
X1018683D01*
X1021635Y-292322D02*
X1025571D01*
X1027539Y-286419D02*
X1028523Y-285435D01*
X1030490D01*
X1031474Y-286419D01*
Y-290355D01*
X1030490Y-291339D01*
X1028523D01*
X1027539Y-290355D01*
Y-286419D01*
X1033442D02*
X1034426Y-285435D01*
X1036394D01*
X1037378Y-286419D01*
Y-290355D01*
X1036394Y-291339D01*
X1034426D01*
X1033442Y-290355D01*
Y-286419D01*
X1039346Y-291339D02*
Y-290355D01*
X1040330D01*
Y-291339D01*
X1039346D01*
X1044265D02*
Y-285435D01*
X1047217D01*
X1048201Y-286419D01*
Y-288387D01*
X1047217Y-289371D01*
X1044265D01*
X1054105Y-287403D02*
X1051153D01*
X1050169Y-288387D01*
Y-290355D01*
X1051153Y-291339D01*
X1054105D01*
X1056073Y-285435D02*
Y-291339D01*
X1059025D01*
X1060009Y-290355D01*
Y-289371D01*
Y-288387D01*
X1059025Y-287403D01*
X1056073D01*
X1061976Y-285435D02*
Y-291339D01*
X1064928D01*
X1065912Y-290355D01*
Y-286419D01*
X1064928Y-285435D01*
X1061976D01*
X1068864Y-291339D02*
X1070832D01*
X1071816Y-290355D01*
Y-288387D01*
X1070832Y-287403D01*
X1068864D01*
X1067880Y-288387D01*
Y-290355D01*
X1068864Y-291339D01*
X1077719Y-287403D02*
X1074767D01*
X1073783Y-288387D01*
Y-290355D01*
X1074767Y-291339D01*
X1077719D01*
D13*
X958661Y-263782D02*
Y-271654D01*
X962597D01*
X963909Y-270342D01*
Y-265094D01*
X962597Y-263782D01*
X958661D01*
X967845Y-271654D02*
X970469D01*
X971780Y-270342D01*
Y-267718D01*
X970469Y-266406D01*
X967845D01*
X966533Y-267718D01*
Y-270342D01*
X967845Y-271654D01*
X979652Y-266406D02*
X975716D01*
X974404Y-267718D01*
Y-270342D01*
X975716Y-271654D01*
X979652D01*
X982276Y-266406D02*
Y-270342D01*
X983588Y-271654D01*
X987523D01*
Y-266406D01*
X990147Y-271654D02*
Y-266406D01*
X991459D01*
X992771Y-267718D01*
Y-271654D01*
Y-267718D01*
X994083Y-266406D01*
X995395Y-267718D01*
Y-271654D01*
X1001955D02*
X999331D01*
X998019Y-270342D01*
Y-267718D01*
X999331Y-266406D01*
X1001955D01*
X1003267Y-267718D01*
Y-269030D01*
X998019D01*
X1005890Y-271654D02*
Y-266406D01*
X1009826D01*
X1011138Y-267718D01*
Y-271654D01*
X1015074Y-265094D02*
Y-266406D01*
X1013762D01*
X1016386D01*
X1015074D01*
Y-270342D01*
X1016386Y-271654D01*
X958661Y-224412D02*
Y-232283D01*
X962597D01*
X963909Y-230972D01*
Y-225724D01*
X962597Y-224412D01*
X958661D01*
X967845Y-227036D02*
X970469D01*
X971780Y-228348D01*
Y-232283D01*
X967845D01*
X966533Y-230972D01*
X967845Y-229660D01*
X971780D01*
X975716Y-225724D02*
Y-227036D01*
X974404D01*
X977028D01*
X975716D01*
Y-230972D01*
X977028Y-232283D01*
X984900D02*
X982276D01*
X980964Y-230972D01*
Y-228348D01*
X982276Y-227036D01*
X984900D01*
X986212Y-228348D01*
Y-229660D01*
X980964D01*
X958661Y-185042D02*
Y-192913D01*
X963909D01*
X967845Y-187666D02*
X970469D01*
X971780Y-188978D01*
Y-192913D01*
X967845D01*
X966533Y-191602D01*
X967845Y-190290D01*
X971780D01*
X974404Y-187666D02*
Y-191602D01*
X975716Y-192913D01*
X979652D01*
Y-194225D01*
X978340Y-195537D01*
X977028D01*
X979652Y-192913D02*
Y-187666D01*
X986212Y-192913D02*
X983588D01*
X982276Y-191602D01*
Y-188978D01*
X983588Y-187666D01*
X986212D01*
X987523Y-188978D01*
Y-190290D01*
X982276D01*
X990147Y-187666D02*
Y-192913D01*
Y-190290D01*
X991459Y-188978D01*
X992771Y-187666D01*
X994083D01*
X1005890Y-192913D02*
Y-185042D01*
X1011138Y-192913D01*
Y-185042D01*
X1015074Y-187666D02*
X1017698D01*
X1019009Y-188978D01*
Y-192913D01*
X1015074D01*
X1013762Y-191602D01*
X1015074Y-190290D01*
X1019009D01*
X1021633Y-192913D02*
Y-187666D01*
X1022945D01*
X1024257Y-188978D01*
Y-192913D01*
Y-188978D01*
X1025569Y-187666D01*
X1026881Y-188978D01*
Y-192913D01*
X1033440D02*
X1030817D01*
X1029505Y-191602D01*
Y-188978D01*
X1030817Y-187666D01*
X1033440D01*
X1034752Y-188978D01*
Y-190290D01*
X1029505D01*
X958661Y-145672D02*
Y-153543D01*
X962597D01*
X963909Y-152231D01*
Y-146984D01*
X962597Y-145672D01*
X958661D01*
X967845Y-153543D02*
X970469D01*
X971780Y-152231D01*
Y-149608D01*
X970469Y-148296D01*
X967845D01*
X966533Y-149608D01*
Y-152231D01*
X967845Y-153543D01*
X979652Y-148296D02*
X975716D01*
X974404Y-149608D01*
Y-152231D01*
X975716Y-153543D01*
X979652D01*
X982276Y-148296D02*
Y-152231D01*
X983588Y-153543D01*
X987523D01*
Y-148296D01*
X990147Y-153543D02*
Y-148296D01*
X991459D01*
X992771Y-149608D01*
Y-153543D01*
Y-149608D01*
X994083Y-148296D01*
X995395Y-149608D01*
Y-153543D01*
X1001955D02*
X999331D01*
X998019Y-152231D01*
Y-149608D01*
X999331Y-148296D01*
X1001955D01*
X1003267Y-149608D01*
Y-150919D01*
X998019D01*
X1005890Y-153543D02*
Y-148296D01*
X1009826D01*
X1011138Y-149608D01*
Y-153543D01*
X1015074Y-146984D02*
Y-148296D01*
X1013762D01*
X1016386D01*
X1015074D01*
Y-152231D01*
X1016386Y-153543D01*
X761811Y-263782D02*
Y-271654D01*
X765747D01*
X767059Y-270342D01*
Y-265094D01*
X765747Y-263782D01*
X761811D01*
X773618Y-271654D02*
X770994D01*
X769683Y-270342D01*
Y-267718D01*
X770994Y-266406D01*
X773618D01*
X774930Y-267718D01*
Y-269030D01*
X769683D01*
X777554Y-271654D02*
X781490D01*
X782802Y-270342D01*
X781490Y-269030D01*
X778866D01*
X777554Y-267718D01*
X778866Y-266406D01*
X782802D01*
X788049Y-274277D02*
X789361D01*
X790673Y-272966D01*
Y-266406D01*
X786737D01*
X785426Y-267718D01*
Y-270342D01*
X786737Y-271654D01*
X790673D01*
X793297D02*
X795921D01*
X794609D01*
Y-266406D01*
X793297D01*
X799857Y-271654D02*
Y-266406D01*
X803792D01*
X805104Y-267718D01*
Y-271654D01*
X811664D02*
X809040D01*
X807728Y-270342D01*
Y-267718D01*
X809040Y-266406D01*
X811664D01*
X812976Y-267718D01*
Y-269030D01*
X807728D01*
X815600Y-266406D02*
Y-271654D01*
Y-269030D01*
X816911Y-267718D01*
X818223Y-266406D01*
X819535D01*
X1116142Y-232283D02*
Y-224412D01*
X1120078D01*
X1121389Y-225724D01*
Y-228348D01*
X1120078Y-229660D01*
X1116142D01*
X1118766D02*
X1121389Y-232283D01*
X1127949D02*
X1125325D01*
X1124013Y-230972D01*
Y-228348D01*
X1125325Y-227036D01*
X1127949D01*
X1129261Y-228348D01*
Y-229660D01*
X1124013D01*
X1131885Y-227036D02*
X1134509Y-232283D01*
X1137132Y-227036D01*
D14*
X93177Y92517D02*
G03*
X124128Y96447I15747J-171D01*
G01*
X147731Y131444D02*
G03*
X151868Y128960I582261J965229D01*
G01*
X131127Y107580D02*
G03*
X123644Y111930I-10258J-9032D01*
G01*
X131127Y107580D02*
G03*
X151868Y128960I14042J7128D01*
G01*
X124164Y99302D02*
G03*
X124128Y96447I50773J-2062D01*
G01*
X93177Y92517D02*
G03*
X93509Y103737I-99554J8564D01*
G01*
X156848Y359997D02*
G03*
X215438Y401339I-141946J263359D01*
G01*
X70109Y317150D02*
G03*
X18935Y319960I-65279J-721524D01*
G01*
X200857Y227610D02*
G03*
X178460Y241099I-75973J-100813D01*
G01*
X-182012Y335514D02*
G03*
X-218077Y331224I-279J-151416D01*
G01*
X-40641Y319960D02*
G03*
X-63489Y318182I-1549J-127826D01*
G01*
X207734Y295562D02*
G03*
X218355Y322043I-200632J95839D01*
G01*
X97675Y330931D02*
G03*
X127869Y344776I-248579J581966D01*
G01*
X-47029Y53188D02*
G03*
X-37030Y33870I121983J50892D01*
G01*
X-178957Y250941D02*
G03*
X-158897Y230072I64166J41603D01*
G01*
X-166468Y149144D02*
G03*
X-172920Y142853I37797J-45218D01*
G01*
X-195212Y275153D02*
G03*
X-218001Y306065I-822538J-582524D01*
G01*
X127869Y344776D02*
G03*
X156848Y359997I-253236J517306D01*
G01*
X88926Y315100D02*
G03*
X70109Y317150I-64033J-500175D01*
G01*
X163917Y248163D02*
G03*
X184959Y262171I-22157J56092D01*
G01*
X142253Y133733D02*
G03*
X149197Y141927I-5078J11342D01*
G01*
X83094Y99015D02*
G03*
X91148Y103876I-1536J11650D01*
G01*
X45460Y19859D02*
G03*
X57125Y35135I-9196J19114D01*
G01*
X-63489Y318182D02*
G03*
X-79511Y313739I16600J-90959D01*
G01*
X-126713Y325390D02*
G03*
X-150488Y332181I-69234J-197391D01*
G01*
X-97717Y313572D02*
G03*
X-116192Y321462I-196920J-435530D01*
G01*
X-150488Y332181D02*
G03*
X-182012Y335514I-31448J-146698D01*
G01*
X-162848Y197059D02*
G03*
X-182135Y183660I30640J-64690D01*
G01*
X-146365Y129096D02*
G03*
X-173402Y120957I9170J-79436D01*
G01*
X-17895Y320070D02*
G03*
X-9015Y321051I-14076J168098D01*
G01*
X-13643Y10979D02*
G03*
X-1896Y7221I17629J34876D01*
G01*
X-165612Y197907D02*
G03*
X-178401Y201503I-104173J-346047D01*
G01*
X-130074Y130123D02*
G03*
X-146365Y129096I-300J-125031D01*
G01*
X-104938Y116513D02*
G03*
X-113846Y114151I21527J-99166D01*
G01*
X203098Y193081D02*
G03*
X194469Y214279I-142599J-45693D01*
G01*
X-61610Y103598D02*
G03*
X-51758Y65576I264066J48136D01*
G01*
X218355Y322043D02*
G03*
X231993Y380169I-333123J108825D01*
G01*
X184959Y262171D02*
G03*
X196413Y275940I-68462J68599D01*
G01*
X178460Y241099D02*
G03*
X162806Y247747I-81609J-170404D01*
G01*
X27545Y1250D02*
G03*
X45460Y19859I-1035J18923D01*
G01*
X-29531Y23747D02*
G03*
X-13643Y10979I40069J33590D01*
G01*
X-182845Y257051D02*
G03*
X-195213Y275153I-556576J-366975D01*
G01*
X-182135Y183660D02*
G03*
X-187769Y176950I35416J-35454D01*
G01*
X196413Y275940D02*
G03*
X207734Y295562I-119388J81957D01*
G01*
X173919Y158840D02*
G03*
X169611Y174145I-97579J-19210D01*
G01*
X157610Y139583D02*
G03*
X150169Y142482I-39440J-90216D01*
G01*
X147731Y131444D02*
G03*
X142253Y133733I-18205J-35858D01*
G01*
X96148Y320238D02*
G03*
X88926Y315100I11368J-23620D01*
G01*
X-37030Y33870D02*
G03*
X-29531Y23747I71846J45383D01*
G01*
X-97578Y313433D02*
G03*
X-89524Y309822I87850J185184D01*
G01*
X-116192Y321462D02*
G03*
X-126713Y325390I-97005J-243742D01*
G01*
X-127436Y130123D02*
G03*
X-134595Y120974I36068J-35599D01*
G01*
X-118767Y112504D02*
G03*
X-130074Y108042I67346J-187239D01*
G01*
X-158897Y230072D02*
G03*
X-152432Y225805I56288J78243D01*
G01*
D02*
G03*
X-167899Y219630I43050J-130294D01*
G01*
X-152432Y158591D02*
G03*
X-166468Y149144I40151J-74800D01*
G01*
X-173650Y216526D02*
G03*
X-178114Y213402I20412J-33917D01*
G01*
X-187769Y176950D02*
G03*
X-192150Y169007I34964J-24461D01*
G01*
X-172920Y142853D02*
G03*
X-178131Y135536I32545J-28695D01*
G01*
X-218001Y306065D02*
G03*
X-228951Y320099I-700696J-535423D01*
G01*
X187342Y175607D02*
G03*
X183459Y175415I5167J-143712D01*
G01*
X194958Y175548D02*
G03*
X190858Y175672I-3977J-63430D01*
G01*
X179209Y175103D02*
G03*
X169611Y174145I28269J-331931D01*
G01*
X163638Y136550D02*
G03*
X160797Y138083I-27128J-46868D01*
G01*
X78094Y99293D02*
G03*
X81427Y98877I3352J13280D01*
G01*
X81427D02*
G03*
X82094Y98885I111J16670D01*
G01*
X71567Y96238D02*
G03*
X75737Y97618I-2091J13307D01*
G01*
X-9015Y321051D02*
G03*
X11853Y324820I-37033J264650D01*
G01*
X-26615Y319682D02*
G03*
X-17895Y320070I-423J107763D01*
G01*
X-79511Y313739D02*
G03*
X-86746Y310933I102375J-274759D01*
G01*
X-134595Y120974D02*
G03*
X-136221Y117946I30535J-18355D01*
G01*
X-113846Y114151D02*
G03*
X-118767Y112504I39245J-125377D01*
G01*
X-181237Y254560D02*
G03*
X-182845Y257051I-99104J-62242D01*
G01*
X-218077Y331224D02*
G03*
X-224180Y329523I25220J-102284D01*
G01*
X174749Y138733D02*
G03*
X173919Y158840I-61794J7520D01*
G01*
X231993Y380169D02*
G03*
X232520Y384119I-150895J22129D01*
G01*
X206273Y181505D02*
G03*
X203098Y193081I-109758J-23881D01*
G01*
X-51758Y65576D02*
G03*
X-47029Y53188I184666J63401D01*
G01*
X-136221Y117946D02*
G03*
X-137434Y114986I25672J-12248D01*
G01*
X-178114Y213402D02*
G03*
X-181318Y210251I14134J-17578D01*
G01*
X-178131Y135536D02*
G03*
X-181456Y127206I29001J-16405D01*
G01*
X198257Y175210D02*
G03*
X196707Y175402I-5210J-35663D01*
G01*
X199607Y174978D02*
G03*
X198257Y175210I-5210J-26246D01*
G01*
X196707Y175402D02*
G03*
X194958Y175548I-4720J-46159D01*
G01*
X190858Y175672D02*
G03*
X187342Y175607I113J-100388D01*
G01*
X183459Y175415D02*
G03*
X179209Y175102I12734J-202412D01*
G01*
X166139Y134983D02*
G03*
X163638Y136550I-23569J-34848D01*
G01*
X160797Y138083D02*
G03*
X157610Y139583I-31065J-61882D01*
G01*
X149197Y141927D02*
G03*
X149579Y142142I-2909J5604D01*
G01*
X149988Y142384D02*
G03*
X149579Y142142I12096J-20886D01*
G01*
X150169Y142482D02*
G03*
X149988Y142384I1769J-3493D01*
G01*
X95399Y321953D02*
G03*
X94759Y323293I-37693J-17180D01*
G01*
X96148Y320238D02*
G03*
X95399Y321953I-50495J-21021D01*
G01*
X91148Y103876D02*
G03*
X91864Y103767I1027J4344D01*
G01*
X91864Y103767D02*
G03*
X92238Y103746I663J8427D01*
G01*
X92238D02*
G03*
X92606Y103738I478J13917D01*
G01*
X82094Y98885D02*
G03*
X82427Y98906I-257J6702D01*
G01*
D02*
G03*
X82761Y98948I-429J4853D01*
G01*
X82761D02*
G03*
X83094Y99015I-617J3888D01*
G01*
X75737Y97618D02*
G03*
X78094Y99293I-5361J10040D01*
G01*
X70727Y96078D02*
G03*
X70179Y95960I420J-3294D01*
G01*
X70727Y96078D02*
G03*
X71303Y96169I-1452J11034D01*
G01*
X71303Y96169D02*
G03*
X71567Y96238I-446J2253D01*
G01*
X-167899Y219630D02*
G03*
X-173650Y216526I29135J-60853D01*
G01*
X-224180Y329523D02*
G03*
X-226590Y328709I12989J-42408D01*
G01*
X-65011Y129287D02*
G03*
X-67566Y132936I-3102J547D01*
G01*
X-91992Y137243D02*
G03*
X-95641Y134688I-547J-3102D01*
G01*
X-187567Y161369D02*
X-166979Y159649D01*
X6853Y139D02*
X27545Y1250D01*
X-141323Y103320D02*
X-130074Y108042D01*
X57125Y35135D02*
X67679Y95544D01*
X215438Y401339D02*
X220299Y405922D01*
X-186734Y203586D02*
X-181318Y210251D01*
X223493Y400228D02*
X231686Y387729D01*
X200857Y227610D02*
X208634Y221639D01*
X199468Y218028D02*
X208634Y221639D01*
X199607Y174978D02*
X207939Y173173D01*
X166139Y134983D02*
X173499Y129984D01*
X15880Y325793D02*
X17824Y322182D01*
X-1896Y7221D02*
X2132Y2222D01*
X-89524Y309822D02*
X-86746Y310933D01*
X-184373Y115124D02*
X-181456Y127206D01*
X-184373Y115124D02*
X-173402Y120957D01*
X-233811Y326070D02*
X-228951Y320099D01*
X193774Y215806D02*
X194469Y214279D01*
X193774Y215806D02*
X199468Y218028D01*
X92259Y328709D02*
X97675Y330931D01*
X17824Y322182D02*
X18935Y319960D01*
X-38541Y319945D02*
X-36408Y319902D01*
X-40641Y319960D02*
X-38541Y319945D01*
X-34242Y319840D02*
X-29809Y319682D01*
X-166979Y159649D02*
X-152432Y158591D01*
X-186734Y203586D02*
X-178401Y201503D01*
X-195066Y162063D02*
X-187567Y161369D01*
X-233811Y326070D02*
X-226590Y328709D01*
X220299Y405922D02*
X223493Y400228D01*
X206273Y181505D02*
X207939Y173173D01*
X-141323Y103320D02*
X-137434Y114986D01*
X173499Y129984D02*
X174749Y138733D01*
X123644Y111930D02*
X123771Y108263D01*
X124164Y99302D01*
X92259Y328709D02*
X94759Y323432D01*
X11853Y324820D02*
X15880Y325793D01*
X-165612Y197907D02*
X-162848Y197059D01*
X-181237Y254560D02*
X-180465Y253332D01*
X-179708Y252123D01*
X-195066Y162063D02*
X-192150Y169007D01*
X231686Y387729D02*
X232797Y386063D01*
X232520Y384119D02*
X232797Y386063D01*
X162806Y247747D02*
X163917Y248163D01*
X94759Y323293D02*
Y323432D01*
X92954Y103737D02*
X93509D01*
X92606Y103738D02*
X92954Y103737D01*
X68679Y95710D02*
X69179Y95794D01*
X69679Y95877D01*
X70179Y95960D01*
X67679Y95544D02*
X68679Y95710D01*
X2132Y2222D02*
X3937Y-0D01*
X6853Y139D01*
X-29809Y319682D02*
X-26615D01*
X-36408Y319902D02*
X-34242Y319840D01*
X-97717Y313572D02*
X-97578Y313433D01*
X-130074Y130123D02*
X-127436D01*
X-179708Y252123D02*
X-178957Y250941D01*
X-68224Y111064D02*
X-65011Y129287D01*
X-98854Y116465D02*
X-95641Y134688D01*
X-91992Y137243D02*
X-67566Y132936D01*
X-104938Y116513D02*
X-98854Y116465D01*
X-68224Y111064D02*
X-63779Y109843D01*
X-61610Y103598D01*
D16*
X976378Y-198823D02*
X985561D01*
X980970D01*
Y-212598D01*
X992449D02*
X997041D01*
X999336Y-210303D01*
Y-205711D01*
X997041Y-203415D01*
X992449D01*
X990153Y-205711D01*
Y-210303D01*
X992449Y-212598D01*
X1003928Y-217190D02*
Y-203415D01*
X1010816D01*
X1013111Y-205711D01*
Y-210303D01*
X1010816Y-212598D01*
X1003928D01*
X1040662Y-201119D02*
X1038366Y-198823D01*
X1033774D01*
X1031478Y-201119D01*
Y-203415D01*
X1033774Y-205711D01*
X1038366D01*
X1040662Y-208007D01*
Y-210303D01*
X1038366Y-212598D01*
X1033774D01*
X1031478Y-210303D01*
X1047549Y-212598D02*
X1052141D01*
X1054437Y-210303D01*
Y-205711D01*
X1052141Y-203415D01*
X1047549D01*
X1045253Y-205711D01*
Y-210303D01*
X1047549Y-212598D01*
X1059028D02*
X1063620D01*
X1061324D01*
Y-198823D01*
X1059028D01*
X1079691D02*
Y-212598D01*
X1072803D01*
X1070508Y-210303D01*
Y-205711D01*
X1072803Y-203415D01*
X1079691D01*
X1091170Y-212598D02*
X1086579D01*
X1084283Y-210303D01*
Y-205711D01*
X1086579Y-203415D01*
X1091170D01*
X1093466Y-205711D01*
Y-208007D01*
X1084283D01*
X1098058Y-203415D02*
Y-212598D01*
Y-208007D01*
X1100354Y-205711D01*
X1102649Y-203415D01*
X1104945D01*
X975062Y-159454D02*
X964567D01*
Y-167325D01*
X969815D01*
X964567D01*
Y-175197D01*
X980310Y-164702D02*
Y-175197D01*
Y-169949D01*
X982934Y-167325D01*
X985557Y-164702D01*
X988181D01*
X996053Y-175197D02*
X1001300D01*
X998677D01*
Y-164702D01*
X996053D01*
X1009172Y-162078D02*
X1011796Y-159454D01*
X1017043D01*
X1019667Y-162078D01*
Y-164702D01*
X1017043Y-167325D01*
X1014420D01*
X1017043D01*
X1019667Y-169949D01*
Y-172573D01*
X1017043Y-175197D01*
X1011796D01*
X1009172Y-172573D01*
X1024915Y-159454D02*
Y-175197D01*
X1032786D01*
X1035410Y-172573D01*
Y-162078D01*
X1032786Y-159454D01*
X1024915D01*
X1056401D02*
Y-175197D01*
X1064272D01*
X1066896Y-172573D01*
Y-169949D01*
X1064272Y-167325D01*
X1056401D01*
X1064272D01*
X1066896Y-164702D01*
Y-162078D01*
X1064272Y-159454D01*
X1056401D01*
X1074767Y-164702D02*
X1080015D01*
X1082639Y-167325D01*
Y-175197D01*
X1074767D01*
X1072144Y-172573D01*
X1074767Y-169949D01*
X1082639D01*
X1098382Y-159454D02*
Y-175197D01*
X1090510D01*
X1087887Y-172573D01*
Y-167325D01*
X1090510Y-164702D01*
X1098382D01*
X1108877Y-180445D02*
X1111501D01*
X1114125Y-177821D01*
Y-164702D01*
X1106253D01*
X1103630Y-167325D01*
Y-172573D01*
X1106253Y-175197D01*
X1114125D01*
X1127244D02*
X1121996D01*
X1119372Y-172573D01*
Y-167325D01*
X1121996Y-164702D01*
X1127244D01*
X1129868Y-167325D01*
Y-169949D01*
X1119372D01*
X1161354Y-175197D02*
X1150858D01*
X1161354Y-164702D01*
Y-162078D01*
X1158730Y-159454D01*
X1153482D01*
X1150858Y-162078D01*
X1166601D02*
X1169225Y-159454D01*
X1174473D01*
X1177097Y-162078D01*
Y-172573D01*
X1174473Y-175197D01*
X1169225D01*
X1166601Y-172573D01*
Y-162078D01*
X1182344Y-175197D02*
X1187592D01*
X1184968D01*
Y-159454D01*
X1182344Y-162078D01*
X1195463D02*
X1198087Y-159454D01*
X1203335D01*
X1205959Y-162078D01*
Y-164702D01*
X1203335Y-167325D01*
X1205959Y-169949D01*
Y-172573D01*
X1203335Y-175197D01*
X1198087D01*
X1195463Y-172573D01*
Y-169949D01*
X1198087Y-167325D01*
X1195463Y-164702D01*
Y-162078D01*
X1198087Y-167325D02*
X1203335D01*
X970472Y-253937D02*
X975064D01*
X972768D01*
Y-240162D01*
X970472Y-242458D01*
X981952Y-253937D02*
X991135Y-244754D01*
X995727Y-242458D02*
X998023Y-240162D01*
X1002614D01*
X1004910Y-242458D01*
Y-251641D01*
X1002614Y-253937D01*
X998023D01*
X995727Y-251641D01*
Y-242458D01*
X1018685Y-240162D02*
X1009502D01*
Y-247049D01*
X1014093Y-244754D01*
X1016389D01*
X1018685Y-247049D01*
Y-251641D01*
X1016389Y-253937D01*
X1011798D01*
X1009502Y-251641D01*
X1023277Y-253937D02*
X1032460Y-244754D01*
X1046235Y-253937D02*
X1037052D01*
X1046235Y-244754D01*
Y-242458D01*
X1043939Y-240162D01*
X1039348D01*
X1037052Y-242458D01*
X1050827D02*
X1053123Y-240162D01*
X1057715D01*
X1060010Y-242458D01*
Y-251641D01*
X1057715Y-253937D01*
X1053123D01*
X1050827Y-251641D01*
Y-242458D01*
X1064602Y-253937D02*
X1069194D01*
X1066898D01*
Y-240162D01*
X1064602Y-242458D01*
X1076081D02*
X1078377Y-240162D01*
X1082969D01*
X1085265Y-242458D01*
Y-244754D01*
X1082969Y-247049D01*
X1085265Y-249345D01*
Y-251641D01*
X1082969Y-253937D01*
X1078377D01*
X1076081Y-251641D01*
Y-249345D01*
X1078377Y-247049D01*
X1076081Y-244754D01*
Y-242458D01*
X1078377Y-247049D02*
X1082969D01*
X1133858Y-240818D02*
X1136482Y-238194D01*
X1141730D01*
X1144353Y-240818D01*
Y-251313D01*
X1141730Y-253937D01*
X1136482D01*
X1133858Y-251313D01*
Y-240818D01*
X1149601D02*
X1152225Y-238194D01*
X1157473D01*
X1160096Y-240818D01*
Y-251313D01*
X1157473Y-253937D01*
X1152225D01*
X1149601Y-251313D01*
Y-240818D01*
X779528Y-277564D02*
Y-293307D01*
X784775Y-288059D01*
X790023Y-293307D01*
Y-277564D01*
X795270Y-293307D02*
X800518D01*
X797894D01*
Y-282812D01*
X795270D01*
X808390Y-293307D02*
Y-282812D01*
X811013D01*
X813637Y-285436D01*
Y-293307D01*
Y-285436D01*
X816261Y-282812D01*
X818885Y-285436D01*
Y-293307D01*
X824133Y-277564D02*
Y-288059D01*
X829380Y-293307D01*
X834628Y-288059D01*
Y-277564D01*
X850371Y-280188D02*
X847747Y-277564D01*
X842499D01*
X839876Y-280188D01*
Y-290683D01*
X842499Y-293307D01*
X847747D01*
X850371Y-290683D01*
Y-285436D01*
X845123D01*
D66*
X167717Y189961D02*
D03*
X161024D02*
D03*
X102952Y294783D02*
D03*
X109645Y294783D02*
D03*
X86811Y294882D02*
D03*
X93504Y294882D02*
D03*
D67*
X-138587Y283066D02*
D03*
X-133854Y287799D02*
D03*
X-55494Y124406D02*
D03*
X-50761Y129138D02*
D03*
X26973Y132287D02*
D03*
X22240Y127555D02*
D03*
X17319Y131491D02*
D03*
X22051Y136224D02*
D03*
X-116540Y127555D02*
D03*
X-111807Y132288D02*
D03*
X-23224Y144493D02*
D03*
X-27957Y139760D02*
D03*
X-98027Y252367D02*
D03*
X-102760Y247634D02*
D03*
X-91933D02*
D03*
X-87201Y252367D02*
D03*
X-76374D02*
D03*
X-81106Y247634D02*
D03*
X-70280D02*
D03*
X-65547Y252367D02*
D03*
X-54720D02*
D03*
X-59453Y247634D02*
D03*
X-48626D02*
D03*
X-43894Y252367D02*
D03*
X-33067D02*
D03*
X-37799Y247634D02*
D03*
D68*
X116934Y305114D02*
D03*
X112201Y309847D02*
D03*
X-34628Y130319D02*
D03*
X-29896Y125586D02*
D03*
X104721Y133469D02*
D03*
X109453Y128736D02*
D03*
X92918Y111807D02*
D03*
X88185Y116540D02*
D03*
X-129524Y198421D02*
D03*
X-134256Y203154D02*
D03*
X37988Y152957D02*
D03*
X42721Y148224D02*
D03*
X80310Y112602D02*
D03*
X85043Y107870D02*
D03*
X-27162Y103933D02*
D03*
X-31894Y108666D02*
D03*
X-30691Y134256D02*
D03*
X-25959Y129524D02*
D03*
X-25981Y149602D02*
D03*
X-30713Y154335D02*
D03*
X53547Y247634D02*
D03*
X48814Y252366D02*
D03*
X59641D02*
D03*
X64374Y247634D02*
D03*
X75200D02*
D03*
X70468Y252366D02*
D03*
X81295D02*
D03*
X86027Y247634D02*
D03*
X96854D02*
D03*
X92121Y252366D02*
D03*
X102948D02*
D03*
X107681Y247634D02*
D03*
X118508D02*
D03*
X113775Y252366D02*
D03*
X-129335Y208075D02*
D03*
X-124603Y203342D02*
D03*
X-135538Y223823D02*
D03*
X-130806Y219090D02*
D03*
X-153942Y206106D02*
D03*
X-149209Y201374D02*
D03*
D69*
X-40945Y164961D02*
D03*
X-50394Y168701D02*
D03*
X-56693Y161221D02*
D03*
X-66142Y164961D02*
D03*
D70*
X-50394Y161221D02*
D03*
X-56693Y168701D02*
D03*
D71*
X35821Y146057D02*
D03*
X26495Y142021D02*
D03*
D72*
X31784Y136731D02*
D03*
D73*
X138177Y261800D02*
D03*
X144923Y269400D02*
D03*
D74*
X145206Y259242D02*
D03*
D75*
X-66839Y152940D02*
D03*
X-63156Y152290D02*
D03*
X-59473Y151641D02*
D03*
X-61113Y142336D02*
D03*
X-64797Y142985D02*
D03*
X-68480Y143635D02*
D03*
D76*
X-178642Y290551D02*
D03*
X148228Y313583D02*
D03*
X184646Y190157D02*
D03*
D77*
X-79116Y138850D02*
D03*
X-76596Y138406D02*
D03*
X-81636Y139295D02*
D03*
X-84156Y139739D02*
D03*
X-74075Y137962D02*
D03*
D78*
X-16703Y180089D02*
D03*
X16703Y146683D02*
D03*
D79*
X170355Y291141D02*
D03*
D80*
X156436Y277221D02*
D03*
X163395Y284181D02*
D03*
X179124Y268452D02*
D03*
X172165Y261492D02*
D03*
X186084Y275412D02*
D03*
D81*
X-178962Y177522D02*
D03*
D82*
X-151900Y175154D02*
D03*
X-180384Y165790D02*
D03*
X-152929Y163388D02*
D03*
D83*
X-163286Y143694D02*
D03*
X-135995Y147530D02*
D03*
X-161643Y131998D02*
D03*
X-134352Y135834D02*
D03*
D84*
X-40864Y103421D02*
D03*
X-33731Y76801D02*
D03*
X-52272Y100364D02*
D03*
X-45140Y73744D02*
D03*
D85*
X104341Y122674D02*
D03*
X101696Y125318D02*
D03*
X99052Y127963D02*
D03*
X92510Y121421D02*
D03*
X97799Y116131D02*
D03*
D86*
X75197Y301279D02*
D03*
Y305020D02*
D03*
Y308760D02*
D03*
X65945D02*
D03*
Y301279D02*
D03*
D87*
X-134832Y213941D02*
D03*
X-140122Y208651D02*
D03*
X-146664Y215193D02*
D03*
X-144019Y217838D02*
D03*
X-141374Y220483D02*
D03*
X-137477Y211296D02*
D03*
D88*
X-146077Y192813D02*
D03*
X-144267Y194623D02*
D03*
X-142458Y196432D02*
D03*
X-140648Y198242D02*
D03*
X-162502Y209238D02*
D03*
X-160692Y211048D02*
D03*
X-158882Y212857D02*
D03*
X-157073Y214667D02*
D03*
D89*
X117323Y274803D02*
D03*
D90*
X106909Y268119D02*
D03*
X111607Y266409D02*
D03*
X116306Y264699D02*
D03*
X121004Y262989D02*
D03*
X113642Y286617D02*
D03*
X118340Y284907D02*
D03*
X123038Y283197D02*
D03*
X127737Y281487D02*
D03*
D91*
X-100873Y286662D02*
D03*
X-105797Y285794D02*
D03*
X-95949Y287530D02*
D03*
X-91025Y288399D02*
D03*
X-86101Y289267D02*
D03*
X-81177Y290135D02*
D03*
X-71329Y291872D02*
D03*
X-76253Y291003D02*
D03*
X-68047Y273261D02*
D03*
X-82819Y270656D02*
D03*
X-77895Y271525D02*
D03*
X-72971Y272393D02*
D03*
X-87744Y269788D02*
D03*
X-92668Y268920D02*
D03*
X-97592Y268052D02*
D03*
X-102516Y267183D02*
D03*
X43136Y282725D02*
D03*
X38212Y281857D02*
D03*
X48060Y283594D02*
D03*
X52984Y284462D02*
D03*
X57908Y285330D02*
D03*
X62832Y286198D02*
D03*
X72680Y287935D02*
D03*
X67756Y287066D02*
D03*
X75962Y269324D02*
D03*
X61189Y266719D02*
D03*
X66114Y267588D02*
D03*
X71038Y268456D02*
D03*
X56265Y265851D02*
D03*
X51341Y264983D02*
D03*
X46417Y264115D02*
D03*
X41493Y263246D02*
D03*
D92*
X-50039Y291003D02*
D03*
X-54963Y291872D02*
D03*
X-45115Y290135D02*
D03*
X-40191Y289267D02*
D03*
X-35267Y288399D02*
D03*
X-30343Y287530D02*
D03*
X-20495Y285794D02*
D03*
X-25419Y286662D02*
D03*
X-23777Y267183D02*
D03*
X-38549Y269788D02*
D03*
X-33625Y268920D02*
D03*
X-28701Y268052D02*
D03*
X-43473Y270656D02*
D03*
X-48397Y271525D02*
D03*
X-53321Y272393D02*
D03*
X-58245Y273261D02*
D03*
D93*
X90945Y271663D02*
D03*
Y288179D02*
D03*
D94*
X95266Y272047D02*
D03*
Y275197D02*
D03*
Y278346D02*
D03*
Y281496D02*
D03*
Y284646D02*
D03*
Y287795D02*
D03*
X86624D02*
D03*
Y284646D02*
D03*
Y281496D02*
D03*
Y278346D02*
D03*
Y275197D02*
D03*
Y272047D02*
D03*
D95*
X163142Y143549D02*
D03*
X138165Y155196D02*
D03*
X168134Y154253D02*
D03*
X143157Y165900D02*
D03*
D96*
X44009Y44332D02*
D03*
X44877Y49256D02*
D03*
X45745Y54180D02*
D03*
X46614Y59104D02*
D03*
X47482Y64028D02*
D03*
X48350Y68952D02*
D03*
X49218Y73876D02*
D03*
X50087Y78800D02*
D03*
X50955Y83724D02*
D03*
X51823Y88648D02*
D03*
X52691Y93572D02*
D03*
X53560Y98497D02*
D03*
X54428Y103421D02*
D03*
X55296Y108345D02*
D03*
X-15610Y120847D02*
D03*
X-16478Y115923D02*
D03*
X-17347Y110999D02*
D03*
X-18215Y106075D02*
D03*
X-19083Y101151D02*
D03*
X-19951Y96227D02*
D03*
X-20820Y91303D02*
D03*
X-21688Y86379D02*
D03*
X-22556Y81455D02*
D03*
X-23424Y76531D02*
D03*
X-24293Y71607D02*
D03*
X-25161Y66683D02*
D03*
X-26029Y61759D02*
D03*
X-26897Y56835D02*
D03*
D97*
X43130Y117090D02*
D03*
X38214Y117957D02*
D03*
X33290Y118825D02*
D03*
X28365Y119694D02*
D03*
X23441Y120562D02*
D03*
X18517Y121430D02*
D03*
X13593Y122298D02*
D03*
X8669Y123166D02*
D03*
X3745Y124035D02*
D03*
X-1179Y124903D02*
D03*
D98*
X16384Y79108D02*
D03*
D99*
X-33126Y145719D02*
D03*
X-44122Y134723D02*
D03*
X-51082Y141683D02*
D03*
X-49690Y140290D02*
D03*
X-45514Y136115D02*
D03*
X-34518Y147111D02*
D03*
X-35910Y148503D02*
D03*
X-37302Y149895D02*
D03*
X-38694Y151287D02*
D03*
X-40086Y152679D02*
D03*
X-48298Y138899D02*
D03*
X-46906Y137507D02*
D03*
D100*
X-33126Y141683D02*
D03*
X-44122Y152679D02*
D03*
X-40086Y134723D02*
D03*
X-38694Y136115D02*
D03*
X-37302Y137507D02*
D03*
X-35910Y138899D02*
D03*
X-34518Y140290D02*
D03*
X-45514Y151287D02*
D03*
X-46906Y149895D02*
D03*
X-48298Y148503D02*
D03*
X-49690Y147111D02*
D03*
X-51082Y145719D02*
D03*
D101*
X-42104Y143701D02*
D03*
D102*
X-121093Y123002D02*
D03*
X-126939Y117156D02*
D03*
X-103317Y237234D02*
D03*
X-97471Y243080D02*
D03*
X-86644D02*
D03*
X-92490Y237234D02*
D03*
X-81663D02*
D03*
X-75817Y243080D02*
D03*
X-64990D02*
D03*
X-70837Y237234D02*
D03*
X-60010D02*
D03*
X-54163Y243080D02*
D03*
X-43337D02*
D03*
X-49183Y237234D02*
D03*
X-38356D02*
D03*
X-32510Y243080D02*
D03*
X-97471Y232254D02*
D03*
X-103317Y226408D02*
D03*
X-92490D02*
D03*
X-86644Y232254D02*
D03*
X-75817D02*
D03*
X-81663Y226408D02*
D03*
X-70837D02*
D03*
X-64990Y232254D02*
D03*
X-54163D02*
D03*
X-60010Y226408D02*
D03*
X-49183D02*
D03*
X-43337Y232254D02*
D03*
X-32510D02*
D03*
X-38356Y226408D02*
D03*
X-103317Y215581D02*
D03*
X-97471Y221427D02*
D03*
X-86644D02*
D03*
X-92490Y215581D02*
D03*
X-81663D02*
D03*
X-75817Y221427D02*
D03*
X-64990D02*
D03*
X-70837Y215581D02*
D03*
X-60010D02*
D03*
X-54163Y221427D02*
D03*
X-43337D02*
D03*
X-49183Y215581D02*
D03*
X-38356D02*
D03*
X-32510Y221427D02*
D03*
X-97471Y210600D02*
D03*
X-103317Y204754D02*
D03*
X-92490D02*
D03*
X-86644Y210600D02*
D03*
X-75817D02*
D03*
X-81663Y204754D02*
D03*
X-70837D02*
D03*
X-64990Y210600D02*
D03*
X-54163D02*
D03*
X-60010Y204754D02*
D03*
X-49183D02*
D03*
X-43337Y210600D02*
D03*
X-32510D02*
D03*
X-38356Y204754D02*
D03*
X-103317Y193927D02*
D03*
X-97471Y199774D02*
D03*
X-86644D02*
D03*
X-92490Y193927D02*
D03*
X-81663D02*
D03*
X-75817Y199774D02*
D03*
X-64990D02*
D03*
X-70837Y193927D02*
D03*
X-60010D02*
D03*
X-54163Y199774D02*
D03*
X-43337D02*
D03*
X-49183Y193927D02*
D03*
X-38356D02*
D03*
X-32510Y199774D02*
D03*
D103*
X48258Y243080D02*
D03*
X54104Y237234D02*
D03*
X64931D02*
D03*
X59085Y243080D02*
D03*
X69912D02*
D03*
X75758Y237234D02*
D03*
X86585D02*
D03*
X80738Y243080D02*
D03*
X91565D02*
D03*
X97411Y237234D02*
D03*
X108238D02*
D03*
X102392Y243080D02*
D03*
X113219D02*
D03*
X119065Y237234D02*
D03*
X54104Y226408D02*
D03*
X48258Y232254D02*
D03*
X59085D02*
D03*
X64931Y226408D02*
D03*
X75758D02*
D03*
X69912Y232254D02*
D03*
X80738D02*
D03*
X86585Y226408D02*
D03*
X97411D02*
D03*
X91565Y232254D02*
D03*
X102392D02*
D03*
X108238Y226408D02*
D03*
X119065D02*
D03*
X113219Y232254D02*
D03*
X48258Y221427D02*
D03*
X54104Y215581D02*
D03*
X64931D02*
D03*
X59085Y221427D02*
D03*
X69912D02*
D03*
X75758Y215581D02*
D03*
X86585D02*
D03*
X80738Y221427D02*
D03*
X91565D02*
D03*
X97411Y215581D02*
D03*
X108238D02*
D03*
X102392Y221427D02*
D03*
X113219D02*
D03*
X119065Y215581D02*
D03*
X54104Y204754D02*
D03*
X48258Y210600D02*
D03*
X59085D02*
D03*
X64931Y204754D02*
D03*
X75758D02*
D03*
X69912Y210600D02*
D03*
X80738D02*
D03*
X86585Y204754D02*
D03*
X97411D02*
D03*
X91565Y210600D02*
D03*
X102392D02*
D03*
X108238Y204754D02*
D03*
X119065D02*
D03*
X113219Y210600D02*
D03*
X48258Y199774D02*
D03*
X54104Y193927D02*
D03*
X64931D02*
D03*
X59085Y199774D02*
D03*
X69912D02*
D03*
X75758Y193927D02*
D03*
X86585D02*
D03*
X80738Y199774D02*
D03*
X91565D02*
D03*
X97411Y193927D02*
D03*
X108238D02*
D03*
X102392Y199774D02*
D03*
X113219D02*
D03*
X119065Y193927D02*
D03*
X-23395Y136781D02*
D03*
X-17549Y130935D02*
D03*
X-12431Y136053D02*
D03*
X-18277Y141900D02*
D03*
D104*
X219098Y366690D02*
D03*
X211329Y369517D02*
D03*
X213832Y381729D02*
D03*
X221601Y378901D02*
D03*
D105*
X79921Y285630D02*
D03*
Y292323D02*
D03*
X-62992Y294685D02*
D03*
Y287992D02*
D03*
X82579Y307480D02*
D03*
Y300787D02*
D03*
X58662D02*
D03*
Y307480D02*
D03*
X18504Y280512D02*
D03*
Y287205D02*
D03*
D106*
X56093Y58413D02*
D03*
X54931Y51822D02*
D03*
D107*
X-112786Y287548D02*
D03*
X-111624Y280957D02*
D03*
X30915Y283217D02*
D03*
X32077Y276626D02*
D03*
D108*
X143892Y281336D02*
D03*
X137603Y283625D02*
D03*
X101973Y261381D02*
D03*
X108262Y259091D02*
D03*
X205506Y370902D02*
D03*
X199217Y373192D02*
D03*
D109*
X-52623Y115465D02*
D03*
X-47333Y120755D02*
D03*
D110*
X-40812Y126660D02*
D03*
X-35522Y121371D02*
D03*
D111*
X52618Y45022D02*
D03*
X51319Y37655D02*
D03*
D112*
X130019Y264144D02*
D03*
X127461Y257115D02*
D03*
X135137Y278318D02*
D03*
X132579Y271288D02*
D03*
D113*
X205942Y378351D02*
D03*
X208231Y384640D02*
D03*
D114*
X-149603Y315701D02*
D03*
X-140206Y312281D02*
D03*
X-130809Y308861D02*
D03*
X150624Y347903D02*
D03*
X141636Y343519D02*
D03*
X132648Y339135D02*
D03*
X123660Y334752D02*
D03*
X114672Y330368D02*
D03*
X128044Y325764D02*
D03*
X119056Y321380D02*
D03*
X110068Y316996D02*
D03*
X-6142Y311417D02*
D03*
X3858D02*
D03*
X13858D02*
D03*
X-136786Y321678D02*
D03*
X-127389Y318258D02*
D03*
X-117992Y314838D02*
D03*
X-108595Y311418D02*
D03*
X-99199Y307997D02*
D03*
D115*
X-121413Y305441D02*
D03*
X-146183Y325098D02*
D03*
D116*
X-105532Y181102D02*
D03*
X113406D02*
D03*
D117*
X-139567D02*
D03*
X147441D02*
D03*
D118*
X-101398Y124709D02*
D03*
X-63014Y117941D02*
D03*
D119*
X-98664Y140218D02*
D03*
X-60279Y133450D02*
D03*
D120*
X105684Y325984D02*
D03*
X137032Y330147D02*
D03*
D121*
X108924Y92346D02*
D03*
X171917Y312819D02*
D03*
X-174539D02*
D03*
X145169Y114708D02*
D03*
D122*
X-5315Y99606D02*
D03*
Y68189D02*
D03*
D123*
X23858Y311417D02*
D03*
M02*
