G04*
G04 #@! TF.GenerationSoftware,Altium Limited,Altium Designer,18.1.6 (161)*
G04*
G04 Layer_Physical_Order=1*
G04 Layer_Color=48896*
%FSLAX25Y25*%
%MOIN*%
G70*
G01*
G75*
%ADD10C,0.00787*%
%ADD11C,0.00984*%
%ADD12C,0.00591*%
%ADD13C,0.01575*%
%ADD18C,0.00394*%
%ADD19R,0.29528X0.07087*%
%ADD20R,0.23622X0.04724*%
%ADD21R,0.04331X0.03937*%
%ADD22R,0.02362X0.03937*%
%ADD23R,0.05512X0.08268*%
%ADD24R,0.14567X0.04331*%
%ADD25R,0.05906X0.05118*%
%ADD26R,0.06299X0.10630*%
%ADD27R,0.02362X0.04528*%
%ADD28R,0.03937X0.04331*%
%ADD29R,0.09449X0.05906*%
%ADD30R,0.01575X0.02756*%
%ADD31R,0.01968X0.01378*%
%ADD32R,0.10630X0.06299*%
%ADD54C,0.05906*%
%ADD57C,0.06693*%
%ADD58C,0.05512*%
%ADD59C,0.05118*%
%ADD60C,0.05906*%
%ADD61C,0.02362*%
%ADD62C,0.02756*%
%ADD63R,0.05906X0.05906*%
%ADD64R,0.03937X0.03937*%
G04:AMPARAMS|DCode=65|XSize=39.37mil|YSize=39.37mil|CornerRadius=9.84mil|HoleSize=0mil|Usage=FLASHONLY|Rotation=0.000|XOffset=0mil|YOffset=0mil|HoleType=Round|Shape=RoundedRectangle|*
%AMROUNDEDRECTD65*
21,1,0.03937,0.01968,0,0,0.0*
21,1,0.01968,0.03937,0,0,0.0*
1,1,0.01968,0.00984,-0.00984*
1,1,0.01968,-0.00984,-0.00984*
1,1,0.01968,-0.00984,0.00984*
1,1,0.01968,0.00984,0.00984*
%
%ADD65ROUNDEDRECTD65*%
G04:AMPARAMS|DCode=66|XSize=49.21mil|YSize=49.21mil|CornerRadius=12.3mil|HoleSize=0mil|Usage=FLASHONLY|Rotation=0.000|XOffset=0mil|YOffset=0mil|HoleType=Round|Shape=RoundedRectangle|*
%AMROUNDEDRECTD66*
21,1,0.04921,0.02461,0,0,0.0*
21,1,0.02461,0.04921,0,0,0.0*
1,1,0.02461,0.01230,-0.01230*
1,1,0.02461,-0.01230,-0.01230*
1,1,0.02461,-0.01230,0.01230*
1,1,0.02461,0.01230,0.01230*
%
%ADD66ROUNDEDRECTD66*%
%ADD67R,0.04921X0.04921*%
%ADD68R,0.05906X0.05906*%
%ADD69C,0.05512*%
%ADD70P,0.08352X4X65.0*%
%ADD71C,0.27559*%
%ADD72C,0.02756*%
G36*
X36335Y107980D02*
X40830Y107718D01*
X45316Y107321D01*
X49788Y106789D01*
X54241Y106123D01*
X58044Y105437D01*
X57999Y104937D01*
X57396D01*
Y101771D01*
X56896D01*
Y101271D01*
X53927D01*
Y98850D01*
X53746Y98425D01*
X53746Y98181D01*
Y96188D01*
X53265Y96052D01*
X52857Y96719D01*
X51683Y98092D01*
X51679Y98088D01*
X48088Y101679D01*
X48092Y101683D01*
X46719Y102857D01*
X45179Y103800D01*
X43510Y104492D01*
X41753Y104913D01*
X39952Y105055D01*
Y105049D01*
X8984D01*
Y105055D01*
X7183Y104913D01*
X5426Y104492D01*
X3757Y103800D01*
X2217Y102857D01*
X843Y101683D01*
X848Y101679D01*
X-1438Y99393D01*
X-1926Y99501D01*
X-3558Y103986D01*
X-3318Y104425D01*
X-1601Y104807D01*
X313Y105217D01*
X4173Y105939D01*
X8052Y106558D01*
X11945Y107074D01*
X15851Y107487D01*
X19767Y107796D01*
X23688Y108002D01*
X27615Y108104D01*
X29579Y108103D01*
X29581Y108103D01*
X29583Y108103D01*
X31834Y108107D01*
X36335Y107980D01*
D02*
G37*
G36*
X72735Y101709D02*
X73313Y101504D01*
X73600Y101398D01*
X73603Y101398D01*
X73606Y101396D01*
X78306Y99679D01*
X78439Y99196D01*
X75273Y95307D01*
X75269Y95299D01*
X75261Y95293D01*
X73877Y93550D01*
X73875Y93548D01*
X73873Y93546D01*
X72815Y92203D01*
X72342Y92367D01*
Y96653D01*
Y100394D01*
X72161D01*
Y100583D01*
X70177D01*
Y101583D01*
X72313D01*
X72568Y101766D01*
X72735Y101709D01*
D02*
G37*
G36*
X41614Y101894D02*
X43211Y101410D01*
X44683Y100623D01*
X45921Y99607D01*
X45959Y99550D01*
X49550Y95959D01*
X49607Y95921D01*
X50623Y94683D01*
X51410Y93211D01*
X51734Y92143D01*
X51619Y91988D01*
X51350Y91748D01*
X50106D01*
Y89370D01*
X49106D01*
Y91748D01*
X48063D01*
X47638Y91929D01*
Y91929D01*
X47638Y91929D01*
X43701D01*
Y86811D01*
Y79528D01*
Y75804D01*
X42429D01*
Y72835D01*
X41929D01*
Y72335D01*
X38764D01*
Y70797D01*
X30441D01*
Y70803D01*
X28640Y70661D01*
X26884Y70240D01*
X25215Y69548D01*
X23675Y68605D01*
X22301Y67431D01*
X22306Y67427D01*
X15748Y60869D01*
X12977Y63640D01*
X12920Y63678D01*
X11904Y64916D01*
X11117Y66388D01*
X10633Y67986D01*
X10475Y69580D01*
X10489Y69647D01*
Y73941D01*
X10495D01*
X10354Y75742D01*
X9932Y77499D01*
X10392Y77694D01*
X11496Y76402D01*
X13286Y74873D01*
X15294Y73643D01*
X17470Y72741D01*
X19759Y72192D01*
X22107Y72007D01*
X24455Y72192D01*
X26744Y72741D01*
X28920Y73643D01*
X30928Y74873D01*
X32719Y76402D01*
X34248Y78193D01*
X35478Y80201D01*
X36379Y82376D01*
X36929Y84666D01*
X37114Y87014D01*
X36929Y89361D01*
X36379Y91651D01*
X35478Y93827D01*
X34248Y95835D01*
X32719Y97625D01*
X30928Y99155D01*
X28920Y100385D01*
X26744Y101286D01*
X25695Y101538D01*
X25755Y102038D01*
X39952D01*
X40019Y102051D01*
X41614Y101894D01*
D02*
G37*
G36*
X-41722Y81560D02*
X-41737Y81376D01*
X-41726D01*
Y79891D01*
X-41737D01*
X-41567Y77735D01*
X-41062Y75632D01*
X-40234Y73634D01*
X-39104Y71790D01*
X-37700Y70146D01*
X-37693Y70153D01*
X-29928Y62389D01*
X-29881Y62352D01*
X-29563Y61877D01*
X-29683Y61529D01*
X-29808Y61377D01*
X-65158Y61377D01*
X-65618Y61286D01*
X-66009Y61024D01*
X-66010Y61024D01*
X-66142D01*
Y60826D01*
X-66270Y60634D01*
X-66362Y60173D01*
Y53000D01*
X-66339Y52884D01*
Y52766D01*
X-66142Y51776D01*
Y51575D01*
X-66078D01*
X-66058Y51475D01*
X-65643Y50472D01*
X-65577Y50373D01*
X-65531Y50263D01*
X-64928Y49361D01*
X-64844Y49277D01*
X-64779Y49178D01*
X-64011Y48410D01*
X-63912Y48345D01*
X-63828Y48261D01*
X-62925Y47657D01*
X-62816Y47612D01*
X-62717Y47546D01*
X-61714Y47131D01*
X-61598Y47108D01*
X-61488Y47062D01*
X-60423Y46850D01*
X-60305D01*
X-60189Y46827D01*
X-59646D01*
X-32079Y46827D01*
X-31693Y46553D01*
Y39663D01*
X-27765D01*
X-27429Y39439D01*
X-26969Y39347D01*
X-24213D01*
X-23752Y39439D01*
X-23622Y39525D01*
X-23492Y39439D01*
X-23031Y39347D01*
X-20559D01*
X-20098Y39439D01*
X-19763Y39663D01*
X-19488D01*
Y40028D01*
X-19447Y40090D01*
X-19355Y40551D01*
Y40699D01*
X-17913D01*
X-17913Y38482D01*
X-17732Y38057D01*
Y35241D01*
X-9827D01*
Y38057D01*
X-9646Y38482D01*
X-9646Y38726D01*
Y45962D01*
X-17913D01*
Y45516D01*
X-19355D01*
Y46575D01*
X-19209D01*
Y59567D01*
X-19673D01*
X-19753Y59760D01*
X-20015Y60151D01*
X-20582Y60718D01*
X-20972Y60979D01*
X-21713Y61286D01*
X-21833Y61309D01*
X-21987Y62875D01*
X-22527Y64655D01*
X-23404Y66295D01*
X-24584Y67733D01*
X-24593Y67724D01*
X-31487Y74618D01*
X-31379Y75106D01*
X-25721Y77165D01*
X-25721Y77165D01*
X-25240Y77378D01*
X-24248Y77732D01*
X-23226Y77986D01*
X-22184Y78140D01*
X-21132Y78190D01*
X-20080Y78137D01*
X-19038Y77982D01*
X-18453Y77834D01*
X-18107Y77186D01*
X-17230Y76118D01*
X-17227Y76122D01*
X-17227Y76122D01*
X-8915Y67809D01*
X-8858Y67772D01*
X-7842Y66533D01*
X-7055Y65061D01*
X-6570Y63464D01*
X-6413Y61870D01*
X-6427Y61803D01*
Y11294D01*
X-6422Y11270D01*
X-6532Y10151D01*
X-6865Y9052D01*
X-7407Y8039D01*
X-8135Y7151D01*
X-9023Y6423D01*
X-10036Y5881D01*
X-11135Y5548D01*
X-12254Y5438D01*
X-12278Y5442D01*
X-143543D01*
X-143610Y5429D01*
X-145204Y5586D01*
X-146802Y6070D01*
X-148274Y6857D01*
X-149564Y7916D01*
X-150623Y9206D01*
X-151410Y10679D01*
X-151894Y12276D01*
X-152051Y13870D01*
X-152038Y13937D01*
Y23110D01*
X-144380D01*
Y30389D01*
X-143918Y30581D01*
X-138819Y25481D01*
Y23110D01*
X-134956D01*
X-134685Y23075D01*
X-134414Y23110D01*
X-130551D01*
Y23273D01*
X-118144D01*
Y21260D01*
X-118307D01*
Y12992D01*
X-110039D01*
Y21260D01*
X-110202D01*
Y27033D01*
X-107480D01*
Y22343D01*
X-105879D01*
Y20894D01*
X-106258Y20737D01*
X-107122Y20074D01*
X-107784Y19211D01*
X-108201Y18205D01*
X-108343Y17126D01*
X-108201Y16047D01*
X-107784Y15041D01*
X-107122Y14178D01*
X-106258Y13515D01*
X-105252Y13099D01*
X-104173Y12957D01*
X-103094Y13099D01*
X-102088Y13515D01*
X-101225Y14178D01*
X-100562Y15041D01*
X-100146Y16047D01*
X-100004Y17126D01*
X-100146Y18205D01*
X-100562Y19211D01*
X-101225Y20074D01*
X-102088Y20737D01*
X-102467Y20894D01*
Y23211D01*
X-102458D01*
X-102626Y24490D01*
X-102756Y24803D01*
Y27033D01*
X-100000D01*
Y22343D01*
X-95786D01*
X-95761Y22333D01*
X-95402Y21843D01*
X-95603Y21008D01*
X-96258Y20737D01*
X-97122Y20074D01*
X-97784Y19211D01*
X-98201Y18205D01*
X-98343Y17126D01*
X-98201Y16047D01*
X-97784Y15041D01*
X-97122Y14178D01*
X-96258Y13515D01*
X-95252Y13099D01*
X-94173Y12957D01*
X-93094Y13099D01*
X-92089Y13515D01*
X-91225Y14178D01*
X-90562Y15041D01*
X-90146Y16047D01*
X-90004Y17126D01*
X-90146Y18205D01*
X-90562Y19211D01*
X-91225Y20074D01*
X-92089Y20737D01*
X-92165Y20768D01*
X-91880Y21708D01*
X-91541Y22343D01*
X-88976D01*
Y27033D01*
X-86221D01*
Y22343D01*
X-81496D01*
Y27033D01*
X-78960D01*
Y20669D01*
X-78960Y20278D01*
X-78869Y19817D01*
X-78569Y19093D01*
X-78308Y18703D01*
X-77754Y18149D01*
X-77363Y17888D01*
X-76640Y17588D01*
X-76179Y17496D01*
X-75787Y17496D01*
X-64976Y17496D01*
Y15461D01*
X-57071D01*
Y17496D01*
X-54264D01*
Y13190D01*
X-55905D01*
Y6891D01*
X-49712D01*
X-49212Y6891D01*
X-48712Y6891D01*
X-42519D01*
Y6891D01*
X-36720D01*
X-36220Y6891D01*
Y6891D01*
X-36220D01*
Y6891D01*
X-29527D01*
Y8535D01*
X-28346D01*
Y6891D01*
X-21897D01*
X-21653Y6891D01*
X-21228Y7072D01*
X-18807D01*
Y10041D01*
Y13009D01*
X-21228D01*
X-21653Y13190D01*
X-21897Y13190D01*
X-23053D01*
X-23232Y13690D01*
X-22318Y14440D01*
X-21396Y15564D01*
X-20710Y16846D01*
X-20288Y18238D01*
X-20146Y19685D01*
X-20153D01*
Y30411D01*
X-19488D01*
Y37301D01*
X-24213D01*
Y37119D01*
X-25091D01*
Y33856D01*
Y30592D01*
X-24213D01*
Y30411D01*
X-23163D01*
Y19685D01*
X-23153Y19635D01*
X-23297Y18542D01*
X-23738Y17477D01*
X-24440Y16562D01*
X-25355Y15860D01*
X-25790Y15680D01*
X-26180Y16059D01*
Y26574D01*
X-26345D01*
Y30592D01*
X-26091D01*
Y33856D01*
Y37119D01*
X-26591D01*
X-26697Y37279D01*
X-27088Y37540D01*
X-27549Y37632D01*
X-32411D01*
X-32558Y37646D01*
X-32882Y37780D01*
X-33086Y37985D01*
X-33220Y38308D01*
X-33234Y38455D01*
Y40756D01*
X-33326Y41217D01*
X-33626Y41941D01*
X-33887Y42331D01*
X-34440Y42885D01*
X-34831Y43146D01*
X-35555Y43446D01*
X-36015Y43537D01*
X-41326D01*
X-41468Y43632D01*
X-41929Y43724D01*
X-41929Y43724D01*
X-58465D01*
X-58925Y43632D01*
X-59067Y43537D01*
X-61401D01*
X-61518Y43514D01*
X-61636D01*
X-62397Y43363D01*
X-62506Y43317D01*
X-62623Y43294D01*
X-63339Y42998D01*
X-63438Y42932D01*
X-63547Y42886D01*
X-64192Y42455D01*
X-64276Y42371D01*
X-64375Y42306D01*
X-64923Y41757D01*
X-64989Y41659D01*
X-65073Y41575D01*
X-65504Y40930D01*
X-65549Y40820D01*
X-65615Y40722D01*
X-65912Y40005D01*
X-65935Y39889D01*
X-65980Y39779D01*
X-66132Y39019D01*
Y38976D01*
X-66142D01*
Y38849D01*
X-66155Y38784D01*
Y30522D01*
X-66142Y30457D01*
Y29528D01*
X-65588D01*
X-65411Y29410D01*
X-64950Y29318D01*
X-43484D01*
X-42622Y29276D01*
X-40903Y28934D01*
X-39311Y28274D01*
X-37878Y27317D01*
X-36660Y26098D01*
X-35702Y24666D01*
X-35043Y23074D01*
X-34701Y21354D01*
X-34659Y20493D01*
Y16743D01*
X-34567Y16282D01*
X-34357Y15968D01*
X-34402Y15576D01*
X-34458Y15391D01*
X-34635Y15293D01*
Y15293D01*
X-35772Y15144D01*
X-36831Y14705D01*
X-37741Y14007D01*
X-37735Y14001D01*
X-38546Y13190D01*
X-42913D01*
Y13190D01*
X-48712D01*
X-49212Y13190D01*
X-49712Y13190D01*
X-50852D01*
Y15171D01*
X-50793Y15262D01*
X-50371Y15561D01*
X-50352Y15559D01*
X-50195Y15528D01*
X-44289Y15538D01*
X-44059Y15585D01*
X-43830Y15630D01*
X-43830Y15631D01*
X-43829Y15631D01*
X-43635Y15761D01*
X-43440Y15891D01*
X-43439Y15892D01*
X-43438Y15892D01*
X-43309Y16086D01*
X-43179Y16282D01*
X-43179Y16283D01*
X-43178Y16284D01*
X-43132Y16514D01*
X-43087Y16743D01*
X-43087Y25314D01*
X-43179Y25775D01*
X-43418Y26353D01*
X-43503Y26480D01*
Y26574D01*
X-43566D01*
X-43679Y26744D01*
X-44122Y27187D01*
X-44513Y27448D01*
X-45092Y27687D01*
X-45552Y27779D01*
X-65657D01*
X-65841Y27788D01*
X-66230Y27865D01*
X-66569Y28006D01*
X-66874Y28210D01*
X-67133Y28469D01*
X-67337Y28774D01*
X-67478Y29113D01*
X-67555Y29502D01*
X-67564Y29686D01*
X-67564Y59008D01*
X-67549Y59389D01*
X-67568Y59506D01*
X-67563Y59624D01*
X-67690Y60425D01*
X-67731Y60536D01*
X-67750Y60653D01*
X-68030Y61413D01*
X-68092Y61514D01*
X-68133Y61625D01*
X-68556Y62316D01*
X-68637Y62403D01*
X-68699Y62504D01*
X-68974Y62802D01*
X-68993Y62816D01*
X-69007Y62836D01*
X-70978Y64807D01*
X-71120Y64964D01*
X-71371Y65339D01*
X-71532Y65728D01*
X-71620Y66171D01*
X-71630Y66382D01*
Y69396D01*
X-71189Y69631D01*
X-70998Y69503D01*
X-70128Y69330D01*
X-69398D01*
Y72835D01*
X-68898D01*
Y73335D01*
X-65393D01*
Y74065D01*
X-65566Y74935D01*
X-66059Y75673D01*
X-66635Y76058D01*
X-66484Y76558D01*
X-51174D01*
Y76555D01*
X-49904Y76680D01*
X-48683Y77051D01*
X-47558Y77652D01*
X-46572Y78461D01*
X-46568Y78458D01*
X-45901Y79328D01*
X-45481Y80341D01*
X-45364Y81235D01*
X-44911Y81616D01*
X-44910Y81616D01*
X-44561Y81506D01*
X-43474Y81459D01*
X-42411Y81694D01*
X-42139Y81836D01*
X-41722Y81560D01*
D02*
G37*
G36*
X-88220Y67917D02*
X-87741Y67611D01*
X-87411Y65951D01*
X-87366Y65841D01*
X-87343Y65725D01*
X-86589Y63905D01*
X-86523Y63806D01*
X-86477Y63697D01*
X-85383Y62059D01*
X-85299Y61975D01*
X-85233Y61877D01*
X-84537Y61180D01*
X-84537Y61180D01*
X-84537Y61180D01*
X-81557Y58201D01*
X-80978Y57561D01*
X-80004Y56104D01*
X-79344Y54512D01*
X-79002Y52793D01*
X-78960Y51930D01*
Y34975D01*
X-81677D01*
Y35819D01*
X-83858D01*
Y36819D01*
X-81677D01*
Y39173D01*
X-80906D01*
Y44094D01*
Y50393D01*
X-87099D01*
X-87599Y50393D01*
Y50393D01*
X-87599D01*
Y50393D01*
X-89543D01*
X-89557Y50506D01*
X-89905Y51344D01*
X-90457Y52063D01*
X-91176Y52615D01*
X-92014Y52962D01*
X-92913Y53081D01*
Y53080D01*
X-95473D01*
Y55604D01*
X-99426D01*
X-103378D01*
Y53080D01*
X-105473D01*
Y55604D01*
X-109426D01*
X-113378D01*
Y53080D01*
X-126212D01*
Y53087D01*
X-128013Y52945D01*
X-129770Y52523D01*
X-131439Y51832D01*
X-132858Y50962D01*
X-133606Y51272D01*
X-134685Y51414D01*
X-135764Y51272D01*
X-136286Y51055D01*
X-136843Y51735D01*
X-137630Y53207D01*
X-137811Y53802D01*
X-137379Y54101D01*
X-136770Y53633D01*
X-135764Y53217D01*
X-134685Y53075D01*
X-133606Y53217D01*
X-132600Y53633D01*
X-131737Y54296D01*
X-131074Y55159D01*
X-130834Y55739D01*
X-129703D01*
Y55732D01*
X-127902Y55874D01*
X-126146Y56296D01*
X-124477Y56987D01*
X-122936Y57931D01*
X-121563Y59104D01*
X-121567Y59109D01*
X-114433Y66243D01*
X-113977Y65991D01*
X-113837Y64922D01*
X-113380Y63821D01*
X-112655Y62875D01*
X-111709Y62149D01*
X-110608Y61693D01*
X-109426Y61538D01*
X-99426D01*
Y61530D01*
X-97523Y61717D01*
X-95694Y62272D01*
X-94008Y63173D01*
X-92531Y64385D01*
X-92537Y64391D01*
X-90251Y66677D01*
X-90167Y66786D01*
X-89144Y67571D01*
X-88295Y67923D01*
X-88220Y67917D01*
D02*
G37*
G36*
X8726Y64421D02*
X9670Y62880D01*
X10843Y61507D01*
X10848Y61511D01*
X13619Y58740D01*
X5596Y50717D01*
X5016Y50957D01*
X3937Y51099D01*
X2858Y50957D01*
X1852Y50540D01*
X1021Y49902D01*
X799Y49942D01*
X521Y50036D01*
Y54110D01*
X994Y54271D01*
X1118Y54110D01*
X1944Y53476D01*
X2905Y53078D01*
X3437Y53008D01*
Y56929D01*
Y60850D01*
X2905Y60780D01*
X1944Y60382D01*
X1118Y59748D01*
X994Y59588D01*
X521Y59748D01*
Y62795D01*
X8071D01*
Y64722D01*
X8561Y64819D01*
X8726Y64421D01*
D02*
G37*
G36*
X-148014Y43008D02*
X-147482Y43078D01*
X-146521Y43476D01*
X-145695Y44110D01*
X-145396Y44500D01*
X-144904Y44410D01*
X-144719Y43800D01*
X-144125Y42688D01*
X-143325Y41714D01*
X-142351Y40915D01*
X-141240Y40321D01*
X-140034Y39955D01*
X-138779Y39831D01*
Y39833D01*
X-138246D01*
X-138025Y39385D01*
X-138138Y39237D01*
X-138536Y38276D01*
X-138605Y37754D01*
X-139136Y37550D01*
X-140423Y38650D01*
X-142254Y39772D01*
X-144237Y40593D01*
X-146324Y41094D01*
X-148465Y41263D01*
X-148465Y41263D01*
X-148514Y41256D01*
X-148832Y41214D01*
X-148939Y41200D01*
X-148959Y41198D01*
X-149593Y41114D01*
X-150599Y40698D01*
X-151462Y40035D01*
X-151565Y39902D01*
X-152038Y40063D01*
Y44207D01*
X-151538Y44377D01*
X-151333Y44110D01*
X-150508Y43476D01*
X-149546Y43078D01*
X-149014Y43008D01*
Y46929D01*
X-148014D01*
Y43008D01*
D02*
G37*
G36*
X-22575Y60173D02*
X-22174D01*
X-21433Y59866D01*
X-20866Y59299D01*
X-20559Y58559D01*
X-20559Y58158D01*
X-20559Y40551D01*
X-23031D01*
Y46063D01*
X-23031Y46063D01*
X-23039Y46140D01*
X-23098Y46282D01*
X-23207Y46390D01*
X-23348Y46449D01*
X-23425Y46457D01*
X-23819Y46457D01*
X-23819Y46457D01*
X-23896Y46449D01*
X-24038Y46390D01*
X-24146Y46282D01*
X-24205Y46140D01*
X-24213Y46063D01*
Y40551D01*
X-26969D01*
Y46063D01*
X-26969Y46063D01*
X-27006Y46447D01*
X-27300Y47157D01*
X-27843Y47700D01*
X-28553Y47994D01*
X-28937Y48031D01*
X-59646Y48031D01*
X-60189D01*
X-61253Y48243D01*
X-62256Y48659D01*
X-63159Y49262D01*
X-63927Y50030D01*
X-64530Y50933D01*
X-64946Y51936D01*
X-65158Y53000D01*
Y53543D01*
Y60173D01*
X-22575Y60173D01*
X-22575Y60173D01*
D02*
G37*
G36*
X-116157Y38295D02*
X-113189D01*
Y37295D01*
X-116157D01*
Y34630D01*
X-116338Y34449D01*
X-116338D01*
X-116640Y34073D01*
X-116981Y33812D01*
X-117612Y32989D01*
X-118009Y32032D01*
X-118116Y31215D01*
X-130551D01*
Y31378D01*
X-132922D01*
X-134342Y32798D01*
X-134163Y33326D01*
X-133653Y33393D01*
X-132692Y33791D01*
X-131866Y34425D01*
X-131232Y35251D01*
X-130834Y36212D01*
X-130764Y36744D01*
X-134685D01*
Y37744D01*
X-130764D01*
X-130834Y38276D01*
X-131232Y39237D01*
X-131345Y39385D01*
X-131124Y39833D01*
X-116157D01*
Y38295D01*
D02*
G37*
G36*
X-41743Y42333D02*
X-36015D01*
X-35292Y42033D01*
X-34738Y41480D01*
X-34439Y40756D01*
Y40365D01*
Y38396D01*
X-34401Y38012D01*
X-34107Y37302D01*
X-33564Y36759D01*
X-32854Y36465D01*
X-32470Y36428D01*
X-27549D01*
Y16743D01*
X-33454D01*
Y20522D01*
X-33503Y21502D01*
X-33885Y23425D01*
X-34635Y25236D01*
X-35724Y26866D01*
X-37110Y28252D01*
X-38740Y29341D01*
X-40551Y30091D01*
X-42474Y30474D01*
X-43454Y30522D01*
X-64950D01*
Y38396D01*
Y38784D01*
X-64799Y39544D01*
X-64502Y40261D01*
X-64072Y40906D01*
X-63523Y41454D01*
X-62878Y41885D01*
X-62162Y42182D01*
X-61401Y42333D01*
X-58651D01*
X-58465Y42520D01*
X-41929D01*
X-41743Y42333D01*
D02*
G37*
G36*
X-75623Y76620D02*
X-74907Y76324D01*
X-74262Y75893D01*
X-73714Y75344D01*
X-73283Y74699D01*
X-72986Y73983D01*
X-72835Y73222D01*
Y72835D01*
Y66353D01*
Y66353D01*
X-72818Y66023D01*
X-72690Y65377D01*
X-72438Y64768D01*
X-72072Y64221D01*
X-71850Y63976D01*
X-69858Y61984D01*
X-69858Y61984D01*
X-69583Y61687D01*
X-69160Y60996D01*
X-68879Y60236D01*
X-68752Y59436D01*
X-68768Y59031D01*
X-68768Y29657D01*
Y29657D01*
X-68753Y29355D01*
X-68636Y28762D01*
X-68404Y28204D01*
X-68069Y27702D01*
X-67642Y27274D01*
X-67139Y26939D01*
X-66581Y26708D01*
X-65988Y26590D01*
X-65686Y26575D01*
X-45552D01*
X-44974Y26335D01*
X-44531Y25892D01*
X-44291Y25314D01*
Y25001D01*
X-44291Y16743D01*
X-50197Y16732D01*
X-50197Y16732D01*
X-50235Y17116D01*
X-50529Y17826D01*
X-51072Y18369D01*
X-51781Y18663D01*
X-52165Y18701D01*
X-75787Y18701D01*
X-75787D01*
X-76179Y18701D01*
X-76903Y19001D01*
X-77456Y19554D01*
X-77756Y20278D01*
X-77756Y20669D01*
Y51960D01*
X-77756Y51960D01*
X-77804Y52940D01*
X-78186Y54863D01*
X-78937Y56674D01*
X-80026Y58304D01*
X-80685Y59031D01*
X-83685Y62032D01*
X-83685D01*
X-84382Y62728D01*
X-85476Y64366D01*
X-86230Y66186D01*
X-86614Y68118D01*
X-86614Y69103D01*
Y72835D01*
Y73222D01*
X-86463Y73983D01*
X-86166Y74699D01*
X-85735Y75344D01*
X-85187Y75893D01*
X-84542Y76324D01*
X-83826Y76620D01*
X-83065Y76772D01*
X-76384D01*
X-75623Y76620D01*
D02*
G37*
G36*
X1047062Y-166394D02*
X1046775D01*
Y-166681D01*
X1046489D01*
Y-166967D01*
Y-167253D01*
X1046203D01*
Y-167539D01*
X1045916D01*
Y-167826D01*
X1045630D01*
Y-168112D01*
Y-168398D01*
X1045344D01*
Y-168685D01*
X1045057D01*
Y-168971D01*
X1044771D01*
Y-169257D01*
X1044485D01*
Y-169544D01*
Y-169830D01*
X1044198D01*
Y-170116D01*
X1043912D01*
Y-170403D01*
X1043626D01*
Y-170689D01*
Y-170975D01*
X1043340D01*
Y-171262D01*
X1043053D01*
Y-171548D01*
X1042767D01*
Y-171834D01*
X1042480D01*
Y-172120D01*
Y-172407D01*
X1042194D01*
Y-172693D01*
X1041908D01*
Y-172979D01*
X1041622D01*
Y-173266D01*
Y-173552D01*
X1041335D01*
Y-173838D01*
X1041049D01*
Y-174125D01*
X1040763D01*
Y-174411D01*
Y-174697D01*
X1040476D01*
Y-174984D01*
X1040190D01*
Y-175270D01*
X1039904D01*
Y-175556D01*
X1039617D01*
Y-175842D01*
Y-176129D01*
X1039331D01*
Y-176415D01*
X1039045D01*
Y-176701D01*
X1038758D01*
Y-176988D01*
Y-177274D01*
X1038472D01*
Y-177560D01*
X1038186D01*
Y-177847D01*
X1037899D01*
Y-178133D01*
Y-178419D01*
X1037613D01*
Y-178706D01*
X1037327D01*
Y-178992D01*
X1037041D01*
Y-179278D01*
X1036754D01*
Y-179565D01*
Y-179851D01*
X1036468D01*
Y-180137D01*
X1036182D01*
Y-180423D01*
X1035895D01*
Y-180710D01*
Y-180996D01*
X1035609D01*
Y-181282D01*
X1035323D01*
Y-181569D01*
X1035036D01*
Y-181855D01*
Y-182141D01*
X1034750D01*
Y-182428D01*
X1034464D01*
Y-182714D01*
X1034177D01*
Y-183000D01*
X1033891D01*
Y-183287D01*
Y-183573D01*
X1033605D01*
Y-183859D01*
X1033319D01*
Y-184146D01*
X1033032D01*
Y-184432D01*
Y-184718D01*
X1032746D01*
Y-185004D01*
X1032460D01*
Y-185291D01*
X1032173D01*
Y-185577D01*
X1031887D01*
Y-185863D01*
Y-186150D01*
X1032173D01*
Y-186436D01*
Y-186722D01*
X1032460D01*
Y-187009D01*
Y-187295D01*
X1032746D01*
Y-187581D01*
X1033032D01*
Y-187868D01*
Y-188154D01*
X1033319D01*
Y-188440D01*
Y-188727D01*
X1033605D01*
Y-189013D01*
Y-189299D01*
X1033891D01*
Y-189585D01*
Y-189872D01*
X1034177D01*
Y-190158D01*
Y-190444D01*
X1034464D01*
Y-190731D01*
Y-191017D01*
X1034750D01*
Y-191303D01*
Y-191590D01*
X1035036D01*
Y-191876D01*
Y-192162D01*
X1035323D01*
Y-192449D01*
X1035609D01*
Y-192735D01*
Y-193021D01*
X1035895D01*
Y-193308D01*
Y-193594D01*
X1036182D01*
Y-193880D01*
Y-194167D01*
X1036468D01*
Y-194453D01*
Y-194739D01*
X1036754D01*
Y-195025D01*
Y-195312D01*
X1037041D01*
Y-195598D01*
Y-195884D01*
X1037327D01*
Y-196171D01*
Y-196457D01*
X1037613D01*
Y-196743D01*
X1037899D01*
Y-197030D01*
Y-197316D01*
X1038186D01*
Y-197602D01*
Y-197889D01*
X1038472D01*
Y-198175D01*
Y-198461D01*
X1038758D01*
Y-198748D01*
Y-199034D01*
X1039045D01*
Y-199320D01*
Y-199606D01*
X1039331D01*
Y-199893D01*
Y-200179D01*
X1039617D01*
Y-200465D01*
Y-200752D01*
X1039904D01*
Y-201038D01*
X1040190D01*
Y-201324D01*
Y-201611D01*
X1040476D01*
Y-201897D01*
Y-202183D01*
X1040763D01*
Y-202470D01*
X1025588D01*
Y-202183D01*
X1025302D01*
Y-201897D01*
Y-201611D01*
Y-201324D01*
X1025016D01*
Y-201038D01*
Y-200752D01*
Y-200465D01*
X1024729D01*
Y-200179D01*
Y-199893D01*
X1024443D01*
Y-199606D01*
Y-199320D01*
Y-199034D01*
X1024156D01*
Y-198748D01*
Y-198461D01*
Y-198175D01*
X1023870D01*
Y-197889D01*
Y-197602D01*
X1023584D01*
Y-197316D01*
Y-197030D01*
Y-196743D01*
X1023298D01*
Y-196457D01*
Y-196171D01*
Y-195884D01*
X1023011D01*
Y-195598D01*
Y-195312D01*
Y-195025D01*
X1022725D01*
Y-194739D01*
X1022152D01*
Y-195025D01*
Y-195312D01*
X1021866D01*
Y-195598D01*
X1021580D01*
Y-195884D01*
Y-196171D01*
X1021293D01*
Y-196457D01*
X1021007D01*
Y-196743D01*
Y-197030D01*
X1020721D01*
Y-197316D01*
X1020434D01*
Y-197602D01*
Y-197889D01*
X1020148D01*
Y-198175D01*
X1019862D01*
Y-198461D01*
X1019576D01*
Y-198748D01*
Y-199034D01*
X1019289D01*
Y-199320D01*
X1019003D01*
Y-199606D01*
Y-199893D01*
X1018717D01*
Y-200179D01*
X1018430D01*
Y-200465D01*
Y-200752D01*
X1018144D01*
Y-201038D01*
X1017858D01*
Y-201324D01*
Y-201611D01*
X1017571D01*
Y-201897D01*
X1017285D01*
Y-202183D01*
Y-202470D01*
X1001252D01*
Y-202183D01*
X1001538D01*
Y-201897D01*
X1001824D01*
Y-201611D01*
X1002110D01*
Y-201324D01*
X1002397D01*
Y-201038D01*
Y-200752D01*
X1002683D01*
Y-200465D01*
X1002969D01*
Y-200179D01*
X1003256D01*
Y-199893D01*
X1003542D01*
Y-199606D01*
Y-199320D01*
X1003828D01*
Y-199034D01*
X1004115D01*
Y-198748D01*
X1004401D01*
Y-198461D01*
Y-198175D01*
X1004687D01*
Y-197889D01*
X1004974D01*
Y-197602D01*
X1005260D01*
Y-197316D01*
X1005546D01*
Y-197030D01*
Y-196743D01*
X1005832D01*
Y-196457D01*
X1006119D01*
Y-196171D01*
X1006405D01*
Y-195884D01*
X1006691D01*
Y-195598D01*
Y-195312D01*
X1006978D01*
Y-195025D01*
X1007264D01*
Y-194739D01*
X1007550D01*
Y-194453D01*
Y-194167D01*
X1007837D01*
Y-193880D01*
X1008123D01*
Y-193594D01*
X1008409D01*
Y-193308D01*
X1008696D01*
Y-193021D01*
Y-192735D01*
X1008982D01*
Y-192449D01*
X1009268D01*
Y-192162D01*
X1009555D01*
Y-191876D01*
Y-191590D01*
X1009841D01*
Y-191303D01*
X1010127D01*
Y-191017D01*
X1010413D01*
Y-190731D01*
X1010700D01*
Y-190444D01*
Y-190158D01*
X1010986D01*
Y-189872D01*
X1011272D01*
Y-189585D01*
X1011559D01*
Y-189299D01*
Y-189013D01*
X1011845D01*
Y-188727D01*
X1012131D01*
Y-188440D01*
X1012418D01*
Y-188154D01*
X1012704D01*
Y-187868D01*
Y-187581D01*
X1012990D01*
Y-187295D01*
X1013277D01*
Y-187009D01*
X1013563D01*
Y-186722D01*
X1013849D01*
Y-186436D01*
Y-186150D01*
X1014136D01*
Y-185863D01*
X1014422D01*
Y-185577D01*
X1014708D01*
Y-185291D01*
Y-185004D01*
X1014995D01*
Y-184718D01*
X1015281D01*
Y-184432D01*
X1015567D01*
Y-184146D01*
X1015853D01*
Y-183859D01*
Y-183573D01*
X1016140D01*
Y-183287D01*
Y-183000D01*
Y-182714D01*
X1015853D01*
Y-182428D01*
X1015567D01*
Y-182141D01*
Y-181855D01*
X1015281D01*
Y-181569D01*
Y-181282D01*
X1014995D01*
Y-180996D01*
Y-180710D01*
X1014708D01*
Y-180423D01*
Y-180137D01*
X1014422D01*
Y-179851D01*
Y-179565D01*
X1014136D01*
Y-179278D01*
Y-178992D01*
X1013849D01*
Y-178706D01*
X1013563D01*
Y-178419D01*
Y-178133D01*
X1013277D01*
Y-177847D01*
Y-177560D01*
X1012990D01*
Y-177274D01*
Y-176988D01*
X1012704D01*
Y-176701D01*
Y-176415D01*
X1012418D01*
Y-176129D01*
Y-175842D01*
X1012131D01*
Y-175556D01*
Y-175270D01*
X1011845D01*
Y-174984D01*
X1011559D01*
Y-174697D01*
Y-174411D01*
X1011272D01*
Y-174125D01*
Y-173838D01*
X1010986D01*
Y-173552D01*
Y-173266D01*
X1010700D01*
Y-172979D01*
Y-172693D01*
X1010413D01*
Y-172407D01*
Y-172120D01*
X1010127D01*
Y-171834D01*
Y-171548D01*
X1009841D01*
Y-171262D01*
Y-170975D01*
X1009555D01*
Y-170689D01*
X1009268D01*
Y-170403D01*
Y-170116D01*
X1008982D01*
Y-169830D01*
Y-169544D01*
X1008696D01*
Y-169257D01*
Y-168971D01*
X1008409D01*
Y-168685D01*
Y-168398D01*
X1008123D01*
Y-168112D01*
Y-167826D01*
X1007837D01*
Y-167539D01*
Y-167253D01*
X1007550D01*
Y-166967D01*
X1007264D01*
Y-166681D01*
Y-166394D01*
X1006978D01*
Y-166108D01*
X1022725D01*
Y-166394D01*
X1023011D01*
Y-166681D01*
Y-166967D01*
Y-167253D01*
X1023298D01*
Y-167539D01*
Y-167826D01*
Y-168112D01*
X1023584D01*
Y-168398D01*
Y-168685D01*
Y-168971D01*
X1023870D01*
Y-169257D01*
Y-169544D01*
Y-169830D01*
X1024156D01*
Y-170116D01*
Y-170403D01*
Y-170689D01*
X1024443D01*
Y-170975D01*
Y-171262D01*
Y-171548D01*
X1024729D01*
Y-171834D01*
Y-172120D01*
Y-172407D01*
X1025016D01*
Y-172693D01*
Y-172979D01*
Y-173266D01*
X1025302D01*
Y-173552D01*
Y-173838D01*
Y-174125D01*
Y-174411D01*
X1025874D01*
Y-174125D01*
X1026161D01*
Y-173838D01*
X1026447D01*
Y-173552D01*
Y-173266D01*
X1026733D01*
Y-172979D01*
X1027020D01*
Y-172693D01*
Y-172407D01*
X1027306D01*
Y-172120D01*
X1027592D01*
Y-171834D01*
Y-171548D01*
X1027879D01*
Y-171262D01*
X1028165D01*
Y-170975D01*
Y-170689D01*
X1028451D01*
Y-170403D01*
X1028738D01*
Y-170116D01*
Y-169830D01*
X1029024D01*
Y-169544D01*
X1029310D01*
Y-169257D01*
Y-168971D01*
X1029597D01*
Y-168685D01*
X1029883D01*
Y-168398D01*
Y-168112D01*
X1030169D01*
Y-167826D01*
X1030455D01*
Y-167539D01*
Y-167253D01*
X1030742D01*
Y-166967D01*
X1031028D01*
Y-166681D01*
Y-166394D01*
X1031314D01*
Y-166108D01*
X1047062D01*
Y-166394D01*
D02*
G37*
G36*
X913926Y-152365D02*
X915644D01*
Y-152651D01*
X916503D01*
Y-152937D01*
X917362D01*
Y-153224D01*
X918221D01*
Y-153510D01*
X918793D01*
Y-153796D01*
X919080D01*
Y-154083D01*
X919652D01*
Y-154369D01*
X919939D01*
Y-154655D01*
X920511D01*
Y-154942D01*
X920798D01*
Y-155228D01*
X921084D01*
Y-155514D01*
X921370D01*
Y-155801D01*
X921657D01*
Y-156087D01*
X921943D01*
Y-156373D01*
X922229D01*
Y-156659D01*
Y-156946D01*
X922515D01*
Y-157232D01*
X922802D01*
Y-157518D01*
Y-157805D01*
X923088D01*
Y-158091D01*
X923374D01*
Y-158377D01*
Y-158664D01*
X923661D01*
Y-158950D01*
Y-159236D01*
Y-159523D01*
X923947D01*
Y-159809D01*
Y-160095D01*
Y-160382D01*
X924233D01*
Y-160668D01*
Y-160954D01*
Y-161240D01*
Y-161527D01*
X924520D01*
Y-161813D01*
Y-162100D01*
Y-162386D01*
Y-162672D01*
Y-162958D01*
X924806D01*
Y-163245D01*
Y-163531D01*
Y-163817D01*
Y-164104D01*
Y-164390D01*
Y-164676D01*
Y-164963D01*
Y-165249D01*
Y-165535D01*
Y-165822D01*
Y-166108D01*
Y-166394D01*
Y-166681D01*
Y-166967D01*
Y-167253D01*
Y-167539D01*
Y-167826D01*
Y-168112D01*
Y-168398D01*
Y-168685D01*
X924520D01*
Y-168971D01*
Y-169257D01*
Y-169544D01*
Y-169830D01*
Y-170116D01*
Y-170403D01*
Y-170689D01*
X924233D01*
Y-170975D01*
Y-171262D01*
Y-171548D01*
Y-171834D01*
Y-172120D01*
X923947D01*
Y-172407D01*
Y-172693D01*
Y-172979D01*
Y-173266D01*
Y-173552D01*
X923661D01*
Y-173838D01*
Y-174125D01*
Y-174411D01*
X923374D01*
Y-174697D01*
Y-174984D01*
Y-175270D01*
Y-175556D01*
X923088D01*
Y-175842D01*
Y-176129D01*
Y-176415D01*
X922802D01*
Y-176701D01*
Y-176988D01*
X922515D01*
Y-177274D01*
Y-177560D01*
Y-177847D01*
X922229D01*
Y-178133D01*
Y-178419D01*
X921943D01*
Y-178706D01*
Y-178992D01*
X921657D01*
Y-179278D01*
Y-179565D01*
X921370D01*
Y-179851D01*
X921084D01*
Y-180137D01*
Y-180423D01*
X920798D01*
Y-180710D01*
X920511D01*
Y-180996D01*
X920225D01*
Y-181282D01*
Y-181569D01*
X919939D01*
Y-181855D01*
X919652D01*
Y-182141D01*
X919366D01*
Y-182428D01*
X919080D01*
Y-182714D01*
X918793D01*
Y-183000D01*
X918221D01*
Y-183287D01*
X917934D01*
Y-183573D01*
X917362D01*
Y-183859D01*
X917076D01*
Y-184146D01*
X916503D01*
Y-184432D01*
X915644D01*
Y-184718D01*
X914785D01*
Y-185004D01*
X913926D01*
Y-185291D01*
X912208D01*
Y-185577D01*
X907055D01*
Y-185291D01*
X904478D01*
Y-185004D01*
X902474D01*
Y-184718D01*
X901042D01*
Y-184432D01*
X899610D01*
Y-184146D01*
X898179D01*
Y-184432D01*
Y-184718D01*
Y-185004D01*
Y-185291D01*
Y-185577D01*
Y-185863D01*
Y-186150D01*
X897892D01*
Y-186436D01*
Y-186722D01*
Y-187009D01*
Y-187295D01*
Y-187581D01*
Y-187868D01*
X897606D01*
Y-188154D01*
Y-188440D01*
Y-188727D01*
Y-189013D01*
Y-189299D01*
Y-189585D01*
X897320D01*
Y-189872D01*
Y-190158D01*
Y-190444D01*
Y-190731D01*
Y-191017D01*
Y-191303D01*
Y-191590D01*
X897034D01*
Y-191876D01*
Y-192162D01*
Y-192449D01*
Y-192735D01*
Y-193021D01*
Y-193308D01*
X896747D01*
Y-193594D01*
Y-193880D01*
Y-194167D01*
Y-194453D01*
Y-194739D01*
Y-195025D01*
X896461D01*
Y-195312D01*
Y-195598D01*
Y-195884D01*
Y-196171D01*
Y-196457D01*
Y-196743D01*
Y-197030D01*
X896175D01*
Y-197316D01*
Y-197602D01*
Y-197889D01*
Y-198175D01*
Y-198461D01*
Y-198748D01*
X895888D01*
Y-199034D01*
Y-199320D01*
Y-199606D01*
Y-199893D01*
Y-200179D01*
Y-200465D01*
X895602D01*
Y-200752D01*
Y-201038D01*
Y-201324D01*
Y-201611D01*
Y-201897D01*
Y-202183D01*
Y-202470D01*
X882145D01*
Y-202183D01*
X882432D01*
Y-201897D01*
Y-201611D01*
Y-201324D01*
Y-201038D01*
Y-200752D01*
X882718D01*
Y-200465D01*
Y-200179D01*
Y-199893D01*
Y-199606D01*
Y-199320D01*
Y-199034D01*
Y-198748D01*
X883004D01*
Y-198461D01*
Y-198175D01*
Y-197889D01*
Y-197602D01*
Y-197316D01*
Y-197030D01*
X883291D01*
Y-196743D01*
Y-196457D01*
Y-196171D01*
Y-195884D01*
Y-195598D01*
Y-195312D01*
X883577D01*
Y-195025D01*
Y-194739D01*
Y-194453D01*
Y-194167D01*
Y-193880D01*
Y-193594D01*
Y-193308D01*
X883863D01*
Y-193021D01*
Y-192735D01*
Y-192449D01*
Y-192162D01*
Y-191876D01*
Y-191590D01*
X884149D01*
Y-191303D01*
Y-191017D01*
Y-190731D01*
Y-190444D01*
Y-190158D01*
Y-189872D01*
X884436D01*
Y-189585D01*
Y-189299D01*
Y-189013D01*
Y-188727D01*
Y-188440D01*
Y-188154D01*
X884722D01*
Y-187868D01*
Y-187581D01*
Y-187295D01*
Y-187009D01*
Y-186722D01*
Y-186436D01*
Y-186150D01*
X885009D01*
Y-185863D01*
Y-185577D01*
Y-185291D01*
Y-185004D01*
Y-184718D01*
Y-184432D01*
X885295D01*
Y-184146D01*
Y-183859D01*
Y-183573D01*
Y-183287D01*
Y-183000D01*
Y-182714D01*
X885581D01*
Y-182428D01*
Y-182141D01*
Y-181855D01*
Y-181569D01*
Y-181282D01*
Y-180996D01*
X885867D01*
Y-180710D01*
Y-180423D01*
Y-180137D01*
Y-179851D01*
Y-179565D01*
Y-179278D01*
Y-178992D01*
X886154D01*
Y-178706D01*
Y-178419D01*
Y-178133D01*
Y-177847D01*
Y-177560D01*
Y-177274D01*
X886440D01*
Y-176988D01*
Y-176701D01*
Y-176415D01*
Y-176129D01*
Y-175842D01*
Y-175556D01*
X886726D01*
Y-175270D01*
Y-174984D01*
Y-174697D01*
Y-174411D01*
Y-174125D01*
Y-173838D01*
Y-173552D01*
X887013D01*
Y-173266D01*
Y-172979D01*
Y-172693D01*
Y-172407D01*
Y-172120D01*
Y-171834D01*
X887299D01*
Y-171548D01*
Y-171262D01*
Y-170975D01*
Y-170689D01*
Y-170403D01*
Y-170116D01*
X887585D01*
Y-169830D01*
Y-169544D01*
Y-169257D01*
Y-168971D01*
Y-168685D01*
Y-168398D01*
X887872D01*
Y-168112D01*
Y-167826D01*
Y-167539D01*
Y-167253D01*
Y-166967D01*
Y-166681D01*
Y-166394D01*
X888158D01*
Y-166108D01*
Y-165822D01*
Y-165535D01*
Y-165249D01*
Y-164963D01*
Y-164676D01*
X888444D01*
Y-164390D01*
Y-164104D01*
Y-163817D01*
Y-163531D01*
Y-163245D01*
Y-162958D01*
X888731D01*
Y-162672D01*
Y-162386D01*
Y-162100D01*
Y-161813D01*
Y-161527D01*
Y-161240D01*
Y-160954D01*
X889017D01*
Y-160668D01*
Y-160382D01*
Y-160095D01*
Y-159809D01*
Y-159523D01*
Y-159236D01*
X889303D01*
Y-158950D01*
Y-158664D01*
Y-158377D01*
Y-158091D01*
Y-157805D01*
Y-157518D01*
X889590D01*
Y-157232D01*
Y-156946D01*
Y-156659D01*
Y-156373D01*
Y-156087D01*
Y-155801D01*
Y-155514D01*
X889876D01*
Y-155228D01*
Y-154942D01*
Y-154655D01*
Y-154369D01*
Y-154083D01*
Y-153796D01*
X890162D01*
Y-153510D01*
Y-153224D01*
Y-152937D01*
Y-152651D01*
Y-152365D01*
Y-152078D01*
X913926D01*
Y-152365D01*
D02*
G37*
G36*
X1002969Y-166394D02*
Y-166681D01*
Y-166967D01*
Y-167253D01*
Y-167539D01*
Y-167826D01*
Y-168112D01*
Y-168398D01*
Y-168685D01*
Y-168971D01*
Y-169257D01*
Y-169544D01*
Y-169830D01*
Y-170116D01*
Y-170403D01*
Y-170689D01*
Y-170975D01*
Y-171262D01*
Y-171548D01*
Y-171834D01*
Y-172120D01*
X1002683D01*
Y-172407D01*
Y-172693D01*
Y-172979D01*
Y-173266D01*
Y-173552D01*
X1002397D01*
Y-173838D01*
Y-174125D01*
Y-174411D01*
Y-174697D01*
X1002110D01*
Y-174984D01*
Y-175270D01*
Y-175556D01*
Y-175842D01*
X1001824D01*
Y-176129D01*
Y-176415D01*
Y-176701D01*
X1001538D01*
Y-176988D01*
Y-177274D01*
Y-177560D01*
X1001252D01*
Y-177847D01*
Y-178133D01*
Y-178419D01*
X1000965D01*
Y-178706D01*
Y-178992D01*
Y-179278D01*
X1000679D01*
Y-179565D01*
Y-179851D01*
X1000393D01*
Y-180137D01*
Y-180423D01*
X1000106D01*
Y-180710D01*
Y-180996D01*
Y-181282D01*
X999820D01*
Y-181569D01*
Y-181855D01*
X999534D01*
Y-182141D01*
Y-182428D01*
Y-182714D01*
X999247D01*
Y-183000D01*
Y-183287D01*
X998961D01*
Y-183573D01*
Y-183859D01*
Y-184146D01*
X998675D01*
Y-184432D01*
Y-184718D01*
X998388D01*
Y-185004D01*
Y-185291D01*
Y-185577D01*
X998102D01*
Y-185863D01*
Y-186150D01*
X997816D01*
Y-186436D01*
Y-186722D01*
Y-187009D01*
X997529D01*
Y-187295D01*
Y-187581D01*
X997243D01*
Y-187868D01*
Y-188154D01*
Y-188440D01*
X996957D01*
Y-188727D01*
Y-189013D01*
X996671D01*
Y-189299D01*
Y-189585D01*
Y-189872D01*
X996384D01*
Y-190158D01*
Y-190444D01*
X996098D01*
Y-190731D01*
Y-191017D01*
Y-191303D01*
X995811D01*
Y-191590D01*
Y-191876D01*
X995525D01*
Y-192162D01*
Y-192449D01*
Y-192735D01*
X995239D01*
Y-193021D01*
Y-193308D01*
X994953D01*
Y-193594D01*
Y-193880D01*
Y-194167D01*
X994666D01*
Y-194453D01*
Y-194739D01*
X994380D01*
Y-195025D01*
Y-195312D01*
Y-195598D01*
X994094D01*
Y-195884D01*
Y-196171D01*
X993807D01*
Y-196457D01*
Y-196743D01*
Y-197030D01*
X993521D01*
Y-197316D01*
Y-197602D01*
X993235D01*
Y-197889D01*
Y-198175D01*
Y-198461D01*
X992948D01*
Y-198748D01*
Y-199034D01*
X992662D01*
Y-199320D01*
Y-199606D01*
Y-199893D01*
X992376D01*
Y-200179D01*
Y-200465D01*
X992089D01*
Y-200752D01*
Y-201038D01*
Y-201324D01*
X991803D01*
Y-201611D01*
Y-201897D01*
X991517D01*
Y-202183D01*
Y-202470D01*
Y-202756D01*
X991230D01*
Y-203042D01*
Y-203328D01*
X990944D01*
Y-203615D01*
Y-203901D01*
X990658D01*
Y-204187D01*
Y-204474D01*
X990372D01*
Y-204760D01*
Y-205046D01*
Y-205333D01*
X990085D01*
Y-205619D01*
X989799D01*
Y-205905D01*
Y-206192D01*
Y-206478D01*
X989513D01*
Y-206764D01*
X989226D01*
Y-207051D01*
Y-207337D01*
X988940D01*
Y-207623D01*
Y-207909D01*
X988654D01*
Y-208196D01*
Y-208482D01*
X988367D01*
Y-208769D01*
Y-209055D01*
X988081D01*
Y-209341D01*
X987795D01*
Y-209627D01*
Y-209914D01*
X987508D01*
Y-210200D01*
Y-210486D01*
X987222D01*
Y-210773D01*
X986936D01*
Y-211059D01*
X986650D01*
Y-211345D01*
Y-211632D01*
X986363D01*
Y-211918D01*
X986077D01*
Y-212204D01*
Y-212491D01*
X985791D01*
Y-212777D01*
X985504D01*
Y-213063D01*
X985218D01*
Y-213350D01*
Y-213636D01*
X984932D01*
Y-213922D01*
X984645D01*
Y-214208D01*
X984359D01*
Y-214495D01*
X984073D01*
Y-214781D01*
X983786D01*
Y-215067D01*
Y-215354D01*
X983500D01*
Y-215640D01*
X983214D01*
Y-215926D01*
X982928D01*
Y-216213D01*
X982641D01*
Y-216499D01*
X982355D01*
Y-216785D01*
X982069D01*
Y-217072D01*
X981782D01*
Y-217358D01*
X981210D01*
Y-217644D01*
X980923D01*
Y-217931D01*
X980637D01*
Y-218217D01*
X980351D01*
Y-218503D01*
X980064D01*
Y-218789D01*
X979492D01*
Y-219076D01*
X979205D01*
Y-219362D01*
X978633D01*
Y-219648D01*
X978347D01*
Y-219935D01*
X977774D01*
Y-220221D01*
X977487D01*
Y-220507D01*
X976915D01*
Y-220794D01*
X976342D01*
Y-221080D01*
X975770D01*
Y-221366D01*
X975197D01*
Y-221653D01*
X974624D01*
Y-221939D01*
X973765D01*
Y-222225D01*
X973193D01*
Y-222512D01*
X972334D01*
Y-222798D01*
X971189D01*
Y-223084D01*
X970043D01*
Y-223370D01*
X968326D01*
Y-223657D01*
X966321D01*
Y-223943D01*
X966035D01*
Y-223657D01*
Y-223370D01*
Y-223084D01*
Y-222798D01*
Y-222512D01*
Y-222225D01*
Y-221939D01*
Y-221653D01*
Y-221366D01*
Y-221080D01*
Y-220794D01*
Y-220507D01*
Y-220221D01*
Y-219935D01*
Y-219648D01*
Y-219362D01*
Y-219076D01*
Y-218789D01*
Y-218503D01*
Y-218217D01*
Y-217931D01*
Y-217644D01*
Y-217358D01*
Y-217072D01*
Y-216785D01*
Y-216499D01*
Y-216213D01*
Y-215926D01*
Y-215640D01*
Y-215354D01*
Y-215067D01*
Y-214781D01*
Y-214495D01*
X966608D01*
Y-214208D01*
X967180D01*
Y-213922D01*
X967753D01*
Y-213636D01*
X968326D01*
Y-213350D01*
X968898D01*
Y-213063D01*
X969471D01*
Y-212777D01*
X969757D01*
Y-212491D01*
X970330D01*
Y-212204D01*
X970616D01*
Y-211918D01*
X971189D01*
Y-211632D01*
X971475D01*
Y-211345D01*
X971761D01*
Y-211059D01*
X972334D01*
Y-210773D01*
X972620D01*
Y-210486D01*
X972906D01*
Y-210200D01*
X973193D01*
Y-209914D01*
X973479D01*
Y-209627D01*
X973765D01*
Y-209341D01*
X974052D01*
Y-209055D01*
X974338D01*
Y-208769D01*
X974624D01*
Y-208482D01*
X974911D01*
Y-208196D01*
X975197D01*
Y-207909D01*
X975483D01*
Y-207623D01*
Y-207337D01*
X975770D01*
Y-207051D01*
X976056D01*
Y-206764D01*
X976342D01*
Y-206478D01*
Y-206192D01*
X976629D01*
Y-205905D01*
X976915D01*
Y-205619D01*
Y-205333D01*
X977201D01*
Y-205046D01*
Y-204760D01*
X977487D01*
Y-204474D01*
X977774D01*
Y-204187D01*
Y-203901D01*
X978060D01*
Y-203615D01*
Y-203328D01*
X978347D01*
Y-203042D01*
Y-202756D01*
X976629D01*
Y-202470D01*
X974624D01*
Y-202183D01*
X973479D01*
Y-201897D01*
X972906D01*
Y-201611D01*
X972048D01*
Y-201324D01*
X971475D01*
Y-201038D01*
X971189D01*
Y-200752D01*
X970616D01*
Y-200465D01*
X970330D01*
Y-200179D01*
X970043D01*
Y-199893D01*
X969757D01*
Y-199606D01*
X969471D01*
Y-199320D01*
X969184D01*
Y-199034D01*
Y-198748D01*
X968898D01*
Y-198461D01*
X968612D01*
Y-198175D01*
Y-197889D01*
X968326D01*
Y-197602D01*
Y-197316D01*
X968039D01*
Y-197030D01*
Y-196743D01*
X967753D01*
Y-196457D01*
Y-196171D01*
Y-195884D01*
X967467D01*
Y-195598D01*
Y-195312D01*
Y-195025D01*
Y-194739D01*
X967180D01*
Y-194453D01*
Y-194167D01*
Y-193880D01*
Y-193594D01*
Y-193308D01*
Y-193021D01*
Y-192735D01*
X966894D01*
Y-192449D01*
Y-192162D01*
Y-191876D01*
Y-191590D01*
Y-191303D01*
Y-191017D01*
Y-190731D01*
Y-190444D01*
Y-190158D01*
Y-189872D01*
Y-189585D01*
Y-189299D01*
Y-189013D01*
Y-188727D01*
Y-188440D01*
X966608D01*
Y-188154D01*
Y-187868D01*
Y-187581D01*
Y-187295D01*
Y-187009D01*
Y-186722D01*
Y-186436D01*
Y-186150D01*
Y-185863D01*
Y-185577D01*
Y-185291D01*
Y-185004D01*
Y-184718D01*
Y-184432D01*
Y-184146D01*
X966321D01*
Y-183859D01*
Y-183573D01*
Y-183287D01*
Y-183000D01*
Y-182714D01*
Y-182428D01*
Y-182141D01*
Y-181855D01*
Y-181569D01*
Y-181282D01*
Y-180996D01*
Y-180710D01*
Y-180423D01*
Y-180137D01*
Y-179851D01*
Y-179565D01*
X966035D01*
Y-179278D01*
Y-178992D01*
Y-178706D01*
Y-178419D01*
Y-178133D01*
Y-177847D01*
Y-177560D01*
Y-177274D01*
Y-176988D01*
Y-176701D01*
Y-176415D01*
Y-176129D01*
Y-175842D01*
Y-175556D01*
Y-175270D01*
Y-174984D01*
X965749D01*
Y-174697D01*
Y-174411D01*
Y-174125D01*
Y-173838D01*
Y-173552D01*
Y-173266D01*
Y-172979D01*
Y-172693D01*
Y-172407D01*
Y-172120D01*
Y-171834D01*
Y-171548D01*
Y-171262D01*
Y-170975D01*
X965462D01*
Y-170689D01*
Y-170403D01*
Y-170116D01*
Y-169830D01*
Y-169544D01*
Y-169257D01*
Y-168971D01*
Y-168685D01*
Y-168398D01*
Y-168112D01*
Y-167826D01*
Y-167539D01*
Y-167253D01*
Y-166967D01*
Y-166681D01*
Y-166394D01*
X965176D01*
Y-166108D01*
X978919D01*
Y-166394D01*
Y-166681D01*
Y-166967D01*
Y-167253D01*
Y-167539D01*
Y-167826D01*
Y-168112D01*
Y-168398D01*
Y-168685D01*
Y-168971D01*
Y-169257D01*
Y-169544D01*
Y-169830D01*
Y-170116D01*
X979205D01*
Y-170403D01*
Y-170689D01*
Y-170975D01*
Y-171262D01*
Y-171548D01*
Y-171834D01*
Y-172120D01*
Y-172407D01*
Y-172693D01*
Y-172979D01*
Y-173266D01*
Y-173552D01*
Y-173838D01*
Y-174125D01*
Y-174411D01*
Y-174697D01*
Y-174984D01*
Y-175270D01*
Y-175556D01*
Y-175842D01*
Y-176129D01*
Y-176415D01*
Y-176701D01*
Y-176988D01*
Y-177274D01*
Y-177560D01*
Y-177847D01*
Y-178133D01*
Y-178419D01*
Y-178706D01*
Y-178992D01*
Y-179278D01*
Y-179565D01*
Y-179851D01*
Y-180137D01*
Y-180423D01*
Y-180710D01*
Y-180996D01*
Y-181282D01*
Y-181569D01*
Y-181855D01*
X979492D01*
Y-182141D01*
X979205D01*
Y-182428D01*
Y-182714D01*
X979492D01*
Y-183000D01*
Y-183287D01*
Y-183573D01*
Y-183859D01*
Y-184146D01*
Y-184432D01*
Y-184718D01*
Y-185004D01*
Y-185291D01*
Y-185577D01*
Y-185863D01*
Y-186150D01*
Y-186436D01*
Y-186722D01*
Y-187009D01*
Y-187295D01*
Y-187581D01*
Y-187868D01*
Y-188154D01*
Y-188440D01*
Y-188727D01*
Y-189013D01*
Y-189299D01*
Y-189585D01*
Y-189872D01*
Y-190158D01*
X979778D01*
Y-190444D01*
Y-190731D01*
Y-191017D01*
X980064D01*
Y-191303D01*
X980351D01*
Y-191590D01*
X980637D01*
Y-191876D01*
X981496D01*
Y-192162D01*
X982355D01*
Y-191876D01*
X982641D01*
Y-191590D01*
Y-191303D01*
Y-191017D01*
X982928D01*
Y-190731D01*
Y-190444D01*
X983214D01*
Y-190158D01*
Y-189872D01*
Y-189585D01*
X983500D01*
Y-189299D01*
Y-189013D01*
Y-188727D01*
X983786D01*
Y-188440D01*
Y-188154D01*
Y-187868D01*
X984073D01*
Y-187581D01*
Y-187295D01*
Y-187009D01*
X984359D01*
Y-186722D01*
Y-186436D01*
X984645D01*
Y-186150D01*
Y-185863D01*
Y-185577D01*
X984932D01*
Y-185291D01*
Y-185004D01*
Y-184718D01*
X985218D01*
Y-184432D01*
Y-184146D01*
Y-183859D01*
X985504D01*
Y-183573D01*
Y-183287D01*
X985791D01*
Y-183000D01*
Y-182714D01*
Y-182428D01*
X986077D01*
Y-182141D01*
Y-181855D01*
Y-181569D01*
X986363D01*
Y-181282D01*
Y-180996D01*
Y-180710D01*
X986650D01*
Y-180423D01*
Y-180137D01*
X986936D01*
Y-179851D01*
Y-179565D01*
Y-179278D01*
X987222D01*
Y-178992D01*
Y-178706D01*
Y-178419D01*
X987508D01*
Y-178133D01*
Y-177847D01*
Y-177560D01*
X987795D01*
Y-177274D01*
Y-176988D01*
X988081D01*
Y-176701D01*
Y-176415D01*
Y-176129D01*
X988367D01*
Y-175842D01*
Y-175556D01*
Y-175270D01*
X988654D01*
Y-174984D01*
Y-174697D01*
Y-174411D01*
X988940D01*
Y-174125D01*
Y-173838D01*
Y-173552D01*
Y-173266D01*
X989226D01*
Y-172979D01*
Y-172693D01*
Y-172407D01*
Y-172120D01*
X989513D01*
Y-171834D01*
Y-171548D01*
Y-171262D01*
Y-170975D01*
Y-170689D01*
X989799D01*
Y-170403D01*
Y-170116D01*
Y-169830D01*
Y-169544D01*
Y-169257D01*
Y-168971D01*
X990085D01*
Y-168685D01*
Y-168398D01*
Y-168112D01*
Y-167826D01*
Y-167539D01*
Y-167253D01*
Y-166967D01*
Y-166681D01*
Y-166394D01*
Y-166108D01*
X1002969D01*
Y-166394D01*
D02*
G37*
G36*
X945134Y-148929D02*
Y-149215D01*
X944848D01*
Y-149502D01*
Y-149788D01*
Y-150074D01*
Y-150361D01*
Y-150647D01*
Y-150933D01*
X944561D01*
Y-151220D01*
Y-151506D01*
Y-151792D01*
Y-152078D01*
Y-152365D01*
Y-152651D01*
X944275D01*
Y-152937D01*
Y-153224D01*
Y-153510D01*
Y-153796D01*
Y-154083D01*
Y-154369D01*
Y-154655D01*
X943989D01*
Y-154942D01*
Y-155228D01*
Y-155514D01*
Y-155801D01*
Y-156087D01*
Y-156373D01*
X943703D01*
Y-156659D01*
Y-156946D01*
Y-157232D01*
Y-157518D01*
Y-157805D01*
Y-158091D01*
X943416D01*
Y-158377D01*
Y-158664D01*
Y-158950D01*
Y-159236D01*
Y-159523D01*
Y-159809D01*
Y-160095D01*
X943130D01*
Y-160382D01*
Y-160668D01*
Y-160954D01*
Y-161240D01*
Y-161527D01*
Y-161813D01*
X942844D01*
Y-162100D01*
Y-162386D01*
Y-162672D01*
Y-162958D01*
Y-163245D01*
Y-163531D01*
X942557D01*
Y-163817D01*
Y-164104D01*
Y-164390D01*
Y-164676D01*
Y-164963D01*
Y-165249D01*
X942271D01*
Y-165535D01*
Y-165822D01*
Y-166108D01*
Y-166394D01*
Y-166681D01*
Y-166967D01*
Y-167253D01*
X941985D01*
Y-167539D01*
Y-167826D01*
Y-168112D01*
Y-168398D01*
Y-168685D01*
Y-168971D01*
X941698D01*
Y-169257D01*
Y-169544D01*
X942271D01*
Y-169257D01*
X942557D01*
Y-168971D01*
X942844D01*
Y-168685D01*
X943416D01*
Y-168398D01*
X943703D01*
Y-168112D01*
X943989D01*
Y-167826D01*
X944561D01*
Y-167539D01*
X945134D01*
Y-167253D01*
X945420D01*
Y-166967D01*
X945993D01*
Y-166681D01*
X946852D01*
Y-166394D01*
X947425D01*
Y-166108D01*
X948284D01*
Y-165822D01*
X949715D01*
Y-165535D01*
X956014D01*
Y-165822D01*
X957159D01*
Y-166108D01*
X958018D01*
Y-166394D01*
X958591D01*
Y-166681D01*
X958877D01*
Y-166967D01*
X959450D01*
Y-167253D01*
X959736D01*
Y-167539D01*
X960022D01*
Y-167826D01*
X960309D01*
Y-168112D01*
X960595D01*
Y-168398D01*
Y-168685D01*
X960881D01*
Y-168971D01*
Y-169257D01*
X961168D01*
Y-169544D01*
Y-169830D01*
Y-170116D01*
X961454D01*
Y-170403D01*
Y-170689D01*
Y-170975D01*
Y-171262D01*
X961740D01*
Y-171548D01*
Y-171834D01*
Y-172120D01*
Y-172407D01*
Y-172693D01*
Y-172979D01*
Y-173266D01*
Y-173552D01*
Y-173838D01*
Y-174125D01*
Y-174411D01*
Y-174697D01*
Y-174984D01*
Y-175270D01*
Y-175556D01*
Y-175842D01*
Y-176129D01*
Y-176415D01*
X961454D01*
Y-176701D01*
Y-176988D01*
Y-177274D01*
Y-177560D01*
Y-177847D01*
Y-178133D01*
Y-178419D01*
X961168D01*
Y-178706D01*
Y-178992D01*
Y-179278D01*
Y-179565D01*
Y-179851D01*
Y-180137D01*
Y-180423D01*
X960881D01*
Y-180710D01*
Y-180996D01*
Y-181282D01*
Y-181569D01*
Y-181855D01*
Y-182141D01*
X960595D01*
Y-182428D01*
Y-182714D01*
Y-183000D01*
Y-183287D01*
Y-183573D01*
Y-183859D01*
X960309D01*
Y-184146D01*
Y-184432D01*
Y-184718D01*
Y-185004D01*
Y-185291D01*
Y-185577D01*
X960022D01*
Y-185863D01*
Y-186150D01*
Y-186436D01*
Y-186722D01*
Y-187009D01*
Y-187295D01*
Y-187581D01*
X959736D01*
Y-187868D01*
Y-188154D01*
Y-188440D01*
Y-188727D01*
Y-189013D01*
Y-189299D01*
X959450D01*
Y-189585D01*
Y-189872D01*
Y-190158D01*
Y-190444D01*
Y-190731D01*
Y-191017D01*
X959163D01*
Y-191303D01*
Y-191590D01*
Y-191876D01*
Y-192162D01*
Y-192449D01*
Y-192735D01*
Y-193021D01*
X958877D01*
Y-193308D01*
Y-193594D01*
Y-193880D01*
Y-194167D01*
Y-194453D01*
Y-194739D01*
X958591D01*
Y-195025D01*
Y-195312D01*
Y-195598D01*
Y-195884D01*
Y-196171D01*
Y-196457D01*
X958305D01*
Y-196743D01*
Y-197030D01*
Y-197316D01*
Y-197602D01*
Y-197889D01*
Y-198175D01*
X958018D01*
Y-198461D01*
Y-198748D01*
Y-199034D01*
Y-199320D01*
Y-199606D01*
Y-199893D01*
Y-200179D01*
X957732D01*
Y-200465D01*
Y-200752D01*
Y-201038D01*
Y-201324D01*
Y-201611D01*
Y-201897D01*
X957446D01*
Y-202183D01*
Y-202470D01*
X944275D01*
Y-202183D01*
Y-201897D01*
X944561D01*
Y-201611D01*
Y-201324D01*
Y-201038D01*
Y-200752D01*
Y-200465D01*
Y-200179D01*
X944848D01*
Y-199893D01*
Y-199606D01*
Y-199320D01*
Y-199034D01*
Y-198748D01*
Y-198461D01*
Y-198175D01*
X945134D01*
Y-197889D01*
Y-197602D01*
Y-197316D01*
Y-197030D01*
Y-196743D01*
Y-196457D01*
X945420D01*
Y-196171D01*
Y-195884D01*
Y-195598D01*
Y-195312D01*
Y-195025D01*
Y-194739D01*
X945707D01*
Y-194453D01*
Y-194167D01*
Y-193880D01*
Y-193594D01*
Y-193308D01*
Y-193021D01*
Y-192735D01*
X945993D01*
Y-192449D01*
Y-192162D01*
Y-191876D01*
Y-191590D01*
Y-191303D01*
Y-191017D01*
X946279D01*
Y-190731D01*
Y-190444D01*
Y-190158D01*
Y-189872D01*
Y-189585D01*
Y-189299D01*
Y-189013D01*
X946566D01*
Y-188727D01*
Y-188440D01*
Y-188154D01*
Y-187868D01*
Y-187581D01*
Y-187295D01*
X946852D01*
Y-187009D01*
Y-186722D01*
Y-186436D01*
Y-186150D01*
Y-185863D01*
Y-185577D01*
X947138D01*
Y-185291D01*
Y-185004D01*
Y-184718D01*
Y-184432D01*
Y-184146D01*
Y-183859D01*
X947425D01*
Y-183573D01*
Y-183287D01*
Y-183000D01*
Y-182714D01*
Y-182428D01*
Y-182141D01*
Y-181855D01*
X947711D01*
Y-181569D01*
Y-181282D01*
Y-180996D01*
Y-180710D01*
Y-180423D01*
Y-180137D01*
X947997D01*
Y-179851D01*
Y-179565D01*
Y-179278D01*
Y-178992D01*
Y-178706D01*
Y-178419D01*
Y-178133D01*
X948284D01*
Y-177847D01*
Y-177560D01*
Y-177274D01*
Y-176988D01*
Y-176701D01*
Y-176415D01*
X947997D01*
Y-176129D01*
Y-175842D01*
X947711D01*
Y-175556D01*
X947425D01*
Y-175270D01*
X946852D01*
Y-174984D01*
X945134D01*
Y-175270D01*
X943703D01*
Y-175556D01*
X942844D01*
Y-175842D01*
X942271D01*
Y-176129D01*
X941985D01*
Y-176415D01*
X941412D01*
Y-176701D01*
X941126D01*
Y-176988D01*
X940839D01*
Y-177274D01*
Y-177560D01*
X940553D01*
Y-177847D01*
Y-178133D01*
Y-178419D01*
X940267D01*
Y-178706D01*
Y-178992D01*
Y-179278D01*
Y-179565D01*
Y-179851D01*
Y-180137D01*
X939981D01*
Y-180423D01*
Y-180710D01*
Y-180996D01*
Y-181282D01*
Y-181569D01*
Y-181855D01*
Y-182141D01*
X939694D01*
Y-182428D01*
Y-182714D01*
Y-183000D01*
Y-183287D01*
Y-183573D01*
Y-183859D01*
X939408D01*
Y-184146D01*
Y-184432D01*
Y-184718D01*
Y-185004D01*
Y-185291D01*
Y-185577D01*
X939122D01*
Y-185863D01*
Y-186150D01*
Y-186436D01*
Y-186722D01*
Y-187009D01*
Y-187295D01*
X938835D01*
Y-187581D01*
Y-187868D01*
Y-188154D01*
Y-188440D01*
Y-188727D01*
Y-189013D01*
Y-189299D01*
X938549D01*
Y-189585D01*
Y-189872D01*
Y-190158D01*
Y-190444D01*
Y-190731D01*
Y-191017D01*
X938263D01*
Y-191303D01*
Y-191590D01*
Y-191876D01*
Y-192162D01*
Y-192449D01*
Y-192735D01*
X937976D01*
Y-193021D01*
Y-193308D01*
Y-193594D01*
Y-193880D01*
Y-194167D01*
Y-194453D01*
Y-194739D01*
X937690D01*
Y-195025D01*
Y-195312D01*
Y-195598D01*
Y-195884D01*
Y-196171D01*
Y-196457D01*
X937404D01*
Y-196743D01*
Y-197030D01*
Y-197316D01*
Y-197602D01*
Y-197889D01*
Y-198175D01*
X937117D01*
Y-198461D01*
Y-198748D01*
Y-199034D01*
Y-199320D01*
Y-199606D01*
Y-199893D01*
X936831D01*
Y-200179D01*
Y-200465D01*
Y-200752D01*
Y-201038D01*
Y-201324D01*
Y-201611D01*
Y-201897D01*
X936545D01*
Y-202183D01*
Y-202470D01*
X923374D01*
Y-202183D01*
Y-201897D01*
X923661D01*
Y-201611D01*
Y-201324D01*
Y-201038D01*
Y-200752D01*
Y-200465D01*
Y-200179D01*
Y-199893D01*
X923947D01*
Y-199606D01*
Y-199320D01*
Y-199034D01*
Y-198748D01*
Y-198461D01*
Y-198175D01*
X924233D01*
Y-197889D01*
Y-197602D01*
Y-197316D01*
Y-197030D01*
Y-196743D01*
Y-196457D01*
X924520D01*
Y-196171D01*
Y-195884D01*
Y-195598D01*
Y-195312D01*
Y-195025D01*
Y-194739D01*
Y-194453D01*
X924806D01*
Y-194167D01*
Y-193880D01*
Y-193594D01*
Y-193308D01*
Y-193021D01*
Y-192735D01*
X925092D01*
Y-192449D01*
Y-192162D01*
Y-191876D01*
Y-191590D01*
Y-191303D01*
Y-191017D01*
X925379D01*
Y-190731D01*
Y-190444D01*
Y-190158D01*
Y-189872D01*
Y-189585D01*
Y-189299D01*
X925665D01*
Y-189013D01*
Y-188727D01*
Y-188440D01*
Y-188154D01*
Y-187868D01*
Y-187581D01*
Y-187295D01*
X925951D01*
Y-187009D01*
Y-186722D01*
Y-186436D01*
Y-186150D01*
Y-185863D01*
Y-185577D01*
X926237D01*
Y-185291D01*
Y-185004D01*
Y-184718D01*
Y-184432D01*
Y-184146D01*
Y-183859D01*
X926524D01*
Y-183573D01*
Y-183287D01*
Y-183000D01*
Y-182714D01*
Y-182428D01*
Y-182141D01*
Y-181855D01*
X926810D01*
Y-181569D01*
Y-181282D01*
Y-180996D01*
Y-180710D01*
Y-180423D01*
Y-180137D01*
X927096D01*
Y-179851D01*
Y-179565D01*
Y-179278D01*
Y-178992D01*
Y-178706D01*
Y-178419D01*
X927383D01*
Y-178133D01*
Y-177847D01*
Y-177560D01*
Y-177274D01*
Y-176988D01*
Y-176701D01*
X927669D01*
Y-176415D01*
Y-176129D01*
Y-175842D01*
Y-175556D01*
Y-175270D01*
Y-174984D01*
Y-174697D01*
X927955D01*
Y-174411D01*
Y-174125D01*
Y-173838D01*
Y-173552D01*
Y-173266D01*
Y-172979D01*
X928242D01*
Y-172693D01*
Y-172407D01*
Y-172120D01*
Y-171834D01*
Y-171548D01*
Y-171262D01*
X928528D01*
Y-170975D01*
Y-170689D01*
Y-170403D01*
Y-170116D01*
Y-169830D01*
Y-169544D01*
X928814D01*
Y-169257D01*
Y-168971D01*
Y-168685D01*
Y-168398D01*
Y-168112D01*
Y-167826D01*
Y-167539D01*
X929101D01*
Y-167253D01*
Y-166967D01*
Y-166681D01*
Y-166394D01*
Y-166108D01*
Y-165822D01*
X929387D01*
Y-165535D01*
Y-165249D01*
Y-164963D01*
Y-164676D01*
Y-164390D01*
Y-164104D01*
X929673D01*
Y-163817D01*
Y-163531D01*
Y-163245D01*
Y-162958D01*
Y-162672D01*
Y-162386D01*
Y-162100D01*
X929960D01*
Y-161813D01*
Y-161527D01*
Y-161240D01*
Y-160954D01*
Y-160668D01*
Y-160382D01*
X930246D01*
Y-160095D01*
Y-159809D01*
Y-159523D01*
Y-159236D01*
Y-158950D01*
Y-158664D01*
X930532D01*
Y-158377D01*
Y-158091D01*
Y-157805D01*
Y-157518D01*
Y-157232D01*
Y-156946D01*
X930818D01*
Y-156659D01*
Y-156373D01*
Y-156087D01*
Y-155801D01*
Y-155514D01*
Y-155228D01*
Y-154942D01*
X931105D01*
Y-154655D01*
Y-154369D01*
Y-154083D01*
Y-153796D01*
Y-153510D01*
Y-153224D01*
X931391D01*
Y-152937D01*
Y-152651D01*
Y-152365D01*
Y-152078D01*
Y-151792D01*
Y-151506D01*
X931678D01*
Y-151220D01*
Y-150933D01*
Y-150647D01*
Y-150361D01*
Y-150074D01*
Y-149788D01*
Y-149502D01*
X931964D01*
Y-149215D01*
Y-148929D01*
Y-148643D01*
X945134D01*
Y-148929D01*
D02*
G37*
%LPC*%
G36*
X56396Y104937D02*
X53927D01*
Y102271D01*
X56396D01*
Y104937D01*
D02*
G37*
G36*
X41429Y75804D02*
X38764D01*
Y73335D01*
X41429D01*
Y75804D01*
D02*
G37*
G36*
X-65393Y72335D02*
X-68398D01*
Y69330D01*
X-67667D01*
X-66797Y69503D01*
X-66059Y69996D01*
X-65566Y70734D01*
X-65393Y71604D01*
Y72335D01*
D02*
G37*
G36*
X-8366Y59386D02*
X-12016D01*
Y53571D01*
X-8366D01*
Y59386D01*
D02*
G37*
G36*
X-13016D02*
X-16666D01*
Y53571D01*
X-13016D01*
Y59386D01*
D02*
G37*
G36*
X-8366Y52571D02*
X-12016D01*
Y46756D01*
X-8366D01*
Y52571D01*
D02*
G37*
G36*
X-13016D02*
X-16666D01*
Y46756D01*
X-13016D01*
Y52571D01*
D02*
G37*
G36*
X-9827Y34242D02*
X-13280D01*
Y31182D01*
X-9827D01*
Y34242D01*
D02*
G37*
G36*
X-14279D02*
X-17732D01*
Y31182D01*
X-14279D01*
Y34242D01*
D02*
G37*
G36*
X-83673Y21047D02*
Y17626D01*
X-80252D01*
X-80322Y18158D01*
X-80721Y19119D01*
X-81354Y19945D01*
X-82180Y20579D01*
X-83141Y20977D01*
X-83673Y21047D01*
D02*
G37*
G36*
X-84673D02*
X-85205Y20977D01*
X-86167Y20579D01*
X-86992Y19945D01*
X-87626Y19119D01*
X-88024Y18158D01*
X-88094Y17626D01*
X-84673D01*
Y21047D01*
D02*
G37*
G36*
X-80252Y16626D02*
X-83673D01*
Y13205D01*
X-83141Y13275D01*
X-82180Y13673D01*
X-81354Y14307D01*
X-80721Y15133D01*
X-80322Y16094D01*
X-80252Y16626D01*
D02*
G37*
G36*
X-84673D02*
X-88094D01*
X-88024Y16094D01*
X-87626Y15133D01*
X-86992Y14307D01*
X-86167Y13673D01*
X-85205Y13275D01*
X-84673Y13205D01*
Y16626D01*
D02*
G37*
G36*
X-65535Y16354D02*
X-71350D01*
Y12705D01*
X-65535D01*
Y16354D01*
D02*
G37*
G36*
X-72350D02*
X-78165D01*
Y12705D01*
X-72350D01*
Y16354D01*
D02*
G37*
G36*
X-57071Y14461D02*
X-60524D01*
Y11402D01*
X-57071D01*
Y14461D01*
D02*
G37*
G36*
X-61524D02*
X-64976D01*
Y11402D01*
X-61524D01*
Y14461D01*
D02*
G37*
G36*
X-17807Y13009D02*
Y10541D01*
X-15141D01*
Y13009D01*
X-17807D01*
D02*
G37*
G36*
X-65535Y11705D02*
X-71350D01*
Y8055D01*
X-65535D01*
Y11705D01*
D02*
G37*
G36*
X-72350D02*
X-78165D01*
Y8055D01*
X-72350D01*
Y11705D01*
D02*
G37*
G36*
X-15141Y9540D02*
X-17807D01*
Y7072D01*
X-15141D01*
Y9540D01*
D02*
G37*
G36*
X-95473Y60057D02*
X-98926D01*
Y56604D01*
X-95473D01*
Y60057D01*
D02*
G37*
G36*
X-105473D02*
X-108926D01*
Y56604D01*
X-105473D01*
Y60057D01*
D02*
G37*
G36*
X-99926D02*
X-103378D01*
Y56604D01*
X-99926D01*
Y60057D01*
D02*
G37*
G36*
X-109926D02*
X-113378D01*
Y56604D01*
X-109926D01*
Y60057D01*
D02*
G37*
G36*
X4437Y60850D02*
Y57429D01*
X7858D01*
X7788Y57961D01*
X7390Y58923D01*
X6756Y59748D01*
X5930Y60382D01*
X4969Y60780D01*
X4437Y60850D01*
D02*
G37*
G36*
X7858Y56429D02*
X4437D01*
Y53008D01*
X4969Y53078D01*
X5930Y53476D01*
X6756Y54110D01*
X7390Y54936D01*
X7788Y55897D01*
X7858Y56429D01*
D02*
G37*
G36*
X909631Y-163245D02*
X901615D01*
Y-163531D01*
Y-163817D01*
Y-164104D01*
Y-164390D01*
Y-164676D01*
X901328D01*
Y-164963D01*
Y-165249D01*
Y-165535D01*
Y-165822D01*
Y-166108D01*
Y-166394D01*
X901042D01*
Y-166681D01*
Y-166967D01*
Y-167253D01*
Y-167539D01*
Y-167826D01*
Y-168112D01*
X900756D01*
Y-168398D01*
Y-168685D01*
Y-168971D01*
Y-169257D01*
Y-169544D01*
Y-169830D01*
X900469D01*
Y-170116D01*
Y-170403D01*
Y-170689D01*
Y-170975D01*
Y-171262D01*
Y-171548D01*
Y-171834D01*
X900183D01*
Y-172120D01*
Y-172407D01*
Y-172693D01*
Y-172979D01*
Y-173266D01*
Y-173552D01*
X899897D01*
Y-173838D01*
Y-174125D01*
Y-174411D01*
X907055D01*
Y-174125D01*
X908200D01*
Y-173838D01*
X908772D01*
Y-173552D01*
X909059D01*
Y-173266D01*
X909345D01*
Y-172979D01*
X909631D01*
Y-172693D01*
X909918D01*
Y-172407D01*
Y-172120D01*
X910204D01*
Y-171834D01*
Y-171548D01*
X910490D01*
Y-171262D01*
Y-170975D01*
X910777D01*
Y-170689D01*
Y-170403D01*
Y-170116D01*
Y-169830D01*
X911063D01*
Y-169544D01*
Y-169257D01*
Y-168971D01*
Y-168685D01*
Y-168398D01*
X911349D01*
Y-168112D01*
Y-167826D01*
Y-167539D01*
Y-167253D01*
Y-166967D01*
Y-166681D01*
Y-166394D01*
Y-166108D01*
Y-165822D01*
Y-165535D01*
Y-165249D01*
X911063D01*
Y-164963D01*
Y-164676D01*
X910777D01*
Y-164390D01*
Y-164104D01*
X910490D01*
Y-163817D01*
X910204D01*
Y-163531D01*
X909631D01*
Y-163245D01*
D02*
G37*
%LPD*%
D10*
X67918Y100022D02*
G03*
X65354Y101083I-2564J-2568D01*
G01*
X63779Y93307D02*
G03*
X64567Y94095I0J787D01*
G01*
X67920Y100020D02*
G03*
X67918Y100022I-2566J-2566D01*
G01*
X65354Y101083D02*
X65748D01*
X64567D02*
X65354D01*
X62205Y93307D02*
X63779D01*
X56896Y93405D02*
X62106D01*
X56896Y95965D02*
X62106D01*
X69416Y98524D02*
X70177D01*
X67920Y100020D02*
X69416Y98524D01*
X56896Y93405D02*
Y95078D01*
Y95965D01*
X62106D02*
X64567D01*
Y101083D01*
Y94095D02*
Y95965D01*
X62106Y101083D02*
X64567D01*
X1220472Y-240158D02*
Y-200787D01*
X1062992Y-161417D02*
X1338583D01*
X1062992Y-200787D02*
X1338583D01*
X866142Y-240158D02*
X1338583D01*
X866142Y-122047D02*
X1338583D01*
X866142Y-279527D02*
Y-122047D01*
X1062992Y-279527D02*
Y-122047D01*
X-314961Y889764D02*
X1338583D01*
Y-279527D02*
Y889764D01*
X-314961Y-279527D02*
Y889764D01*
Y-279527D02*
X1338583D01*
X1076770Y-265750D02*
X1072835D01*
Y-268702D01*
X1074802D01*
X1072835D01*
Y-271654D01*
X1078738Y-267718D02*
Y-271654D01*
Y-269686D01*
X1079722Y-268702D01*
X1080706Y-267718D01*
X1081690D01*
X1084642Y-271654D02*
X1086610D01*
X1085626D01*
Y-267718D01*
X1084642D01*
X1089561Y-266734D02*
X1090545Y-265750D01*
X1092513D01*
X1093497Y-266734D01*
Y-267718D01*
X1092513Y-268702D01*
X1091529D01*
X1092513D01*
X1093497Y-269686D01*
Y-270670D01*
X1092513Y-271654D01*
X1090545D01*
X1089561Y-270670D01*
X1095465Y-265750D02*
Y-271654D01*
X1098417D01*
X1099401Y-270670D01*
Y-266734D01*
X1098417Y-265750D01*
X1095465D01*
X1101369Y-272638D02*
X1105304D01*
X1107272Y-271654D02*
Y-267718D01*
X1109240Y-265750D01*
X1111208Y-267718D01*
Y-271654D01*
Y-268702D01*
X1107272D01*
X1113176Y-271654D02*
X1115144D01*
X1114160D01*
Y-267718D01*
X1113176D01*
X1118096D02*
Y-271654D01*
Y-269686D01*
X1119079Y-268702D01*
X1120063Y-267718D01*
X1121047D01*
X1123999Y-272638D02*
X1127935D01*
X1133838Y-271654D02*
X1129903D01*
X1133838Y-267718D01*
Y-266734D01*
X1132855Y-265750D01*
X1130887D01*
X1129903Y-266734D01*
X1135806D02*
X1136790Y-265750D01*
X1138758D01*
X1139742Y-266734D01*
Y-270670D01*
X1138758Y-271654D01*
X1136790D01*
X1135806Y-270670D01*
Y-266734D01*
X1141710Y-271654D02*
X1143678D01*
X1142694D01*
Y-265750D01*
X1141710Y-266734D01*
X1146630D02*
X1147614Y-265750D01*
X1149582D01*
X1150565Y-266734D01*
Y-267718D01*
X1149582Y-268702D01*
X1150565Y-269686D01*
Y-270670D01*
X1149582Y-271654D01*
X1147614D01*
X1146630Y-270670D01*
Y-269686D01*
X1147614Y-268702D01*
X1146630Y-267718D01*
Y-266734D01*
X1147614Y-268702D02*
X1149582D01*
X1152533Y-272638D02*
X1156469D01*
X1158437Y-266734D02*
X1159421Y-265750D01*
X1161389D01*
X1162373Y-266734D01*
Y-270670D01*
X1161389Y-271654D01*
X1159421D01*
X1158437Y-270670D01*
Y-266734D01*
X1164340Y-271654D02*
X1166308D01*
X1165324D01*
Y-265750D01*
X1164340Y-266734D01*
X1169260Y-271654D02*
Y-270670D01*
X1170244D01*
Y-271654D01*
X1169260D01*
X1174180D02*
Y-265750D01*
X1177132D01*
X1178115Y-266734D01*
Y-268702D01*
X1177132Y-269686D01*
X1174180D01*
X1184019Y-267718D02*
X1181067D01*
X1180083Y-268702D01*
Y-270670D01*
X1181067Y-271654D01*
X1184019D01*
X1185987Y-265750D02*
Y-271654D01*
X1188939D01*
X1189923Y-270670D01*
Y-269686D01*
Y-268702D01*
X1188939Y-267718D01*
X1185987D01*
X1191891Y-265750D02*
Y-271654D01*
X1194842D01*
X1195826Y-270670D01*
Y-266734D01*
X1194842Y-265750D01*
X1191891D01*
X1198778Y-271654D02*
X1200746D01*
X1201730Y-270670D01*
Y-268702D01*
X1200746Y-267718D01*
X1198778D01*
X1197794Y-268702D01*
Y-270670D01*
X1198778Y-271654D01*
X1207633Y-267718D02*
X1204682D01*
X1203698Y-268702D01*
Y-270670D01*
X1204682Y-271654D01*
X1207633D01*
D11*
X-83621Y36417D02*
G03*
X-83858Y36319I0J-336D01*
G01*
X-91339D02*
G03*
X-91576Y36417I-238J-238D01*
G01*
X-97400D02*
G03*
X-97638Y36319I0J-336D01*
G01*
X-52194Y23228D02*
G03*
X-52558Y22349I880J-880D01*
G01*
X-83661Y31004D02*
G03*
X-83858Y30529I475J-475D01*
G01*
X-97638Y30053D02*
G03*
X-98032Y31004I-1345J0D01*
G01*
X-91339Y25492D02*
G03*
X-94173Y18649I6843J-6843D01*
G01*
X-104173Y23211D02*
G03*
X-105118Y25492I-3226J0D01*
G01*
X59800Y98867D02*
G03*
X60630Y98524I830J830D01*
G01*
X-108858Y37795D02*
X-105118D01*
Y36319D02*
Y37795D01*
X-83621Y36417D02*
X-80709D01*
X-94488D02*
X-91576D01*
X-97400D02*
X-94488D01*
X-52558Y10040D02*
Y22349D01*
X-83858Y25492D02*
Y30529D01*
X-97638Y25492D02*
Y30053D01*
X-94173Y17126D02*
Y18649D01*
X-104173Y17126D02*
Y23211D01*
X56896Y101771D02*
X59800Y98867D01*
X60630Y98524D02*
X62106D01*
X56896Y91141D02*
Y93405D01*
X70823Y101083D02*
X73480Y98425D01*
X70177Y101083D02*
X70823D01*
X52959Y101771D02*
X56896D01*
X48622Y68898D02*
Y72835D01*
X37992D02*
X41930D01*
X49606Y89370D02*
Y92913D01*
X1224409Y-212598D02*
Y-204727D01*
X1228345D01*
X1229657Y-206039D01*
Y-208663D01*
X1228345Y-209975D01*
X1224409D01*
X1227033D02*
X1229657Y-212598D01*
X1236217D02*
X1233593D01*
X1232281Y-211286D01*
Y-208663D01*
X1233593Y-207351D01*
X1236217D01*
X1237529Y-208663D01*
Y-209975D01*
X1232281D01*
X1240152Y-207351D02*
X1242776Y-212598D01*
X1245400Y-207351D01*
X870079Y-244097D02*
Y-251969D01*
X874014D01*
X875326Y-250657D01*
Y-245409D01*
X874014Y-244097D01*
X870079D01*
X881886Y-251969D02*
X879262D01*
X877950Y-250657D01*
Y-248033D01*
X879262Y-246721D01*
X881886D01*
X883198Y-248033D01*
Y-249345D01*
X877950D01*
X885822Y-251969D02*
X889757D01*
X891069Y-250657D01*
X889757Y-249345D01*
X887134D01*
X885822Y-248033D01*
X887134Y-246721D01*
X891069D01*
X896317Y-254592D02*
X897629D01*
X898941Y-253280D01*
Y-246721D01*
X895005D01*
X893693Y-248033D01*
Y-250657D01*
X895005Y-251969D01*
X898941D01*
X901565D02*
X904189D01*
X902877D01*
Y-246721D01*
X901565D01*
X908124Y-251969D02*
Y-246721D01*
X912060D01*
X913372Y-248033D01*
Y-251969D01*
X919931D02*
X917308D01*
X915996Y-250657D01*
Y-248033D01*
X917308Y-246721D01*
X919931D01*
X921243Y-248033D01*
Y-249345D01*
X915996D01*
X923867Y-246721D02*
Y-251969D01*
Y-249345D01*
X925179Y-248033D01*
X926491Y-246721D01*
X927803D01*
X1066929Y-125987D02*
Y-133858D01*
X1070865D01*
X1072177Y-132546D01*
Y-127299D01*
X1070865Y-125987D01*
X1066929D01*
X1076112Y-133858D02*
X1078736D01*
X1080048Y-132546D01*
Y-129922D01*
X1078736Y-128611D01*
X1076112D01*
X1074801Y-129922D01*
Y-132546D01*
X1076112Y-133858D01*
X1087920Y-128611D02*
X1083984D01*
X1082672Y-129922D01*
Y-132546D01*
X1083984Y-133858D01*
X1087920D01*
X1090544Y-128611D02*
Y-132546D01*
X1091856Y-133858D01*
X1095791D01*
Y-128611D01*
X1098415Y-133858D02*
Y-128611D01*
X1099727D01*
X1101039Y-129922D01*
Y-133858D01*
Y-129922D01*
X1102351Y-128611D01*
X1103663Y-129922D01*
Y-133858D01*
X1110222D02*
X1107598D01*
X1106287Y-132546D01*
Y-129922D01*
X1107598Y-128611D01*
X1110222D01*
X1111534Y-129922D01*
Y-131234D01*
X1106287D01*
X1114158Y-133858D02*
Y-128611D01*
X1118094D01*
X1119406Y-129922D01*
Y-133858D01*
X1123341Y-127299D02*
Y-128611D01*
X1122029D01*
X1124653D01*
X1123341D01*
Y-132546D01*
X1124653Y-133858D01*
X1066929Y-165357D02*
Y-173228D01*
X1072177D01*
X1076112Y-167981D02*
X1078736D01*
X1080048Y-169293D01*
Y-173228D01*
X1076112D01*
X1074801Y-171916D01*
X1076112Y-170605D01*
X1080048D01*
X1082672Y-167981D02*
Y-171916D01*
X1083984Y-173228D01*
X1087920D01*
Y-174540D01*
X1086608Y-175852D01*
X1085296D01*
X1087920Y-173228D02*
Y-167981D01*
X1094479Y-173228D02*
X1091856D01*
X1090544Y-171916D01*
Y-169293D01*
X1091856Y-167981D01*
X1094479D01*
X1095791Y-169293D01*
Y-170605D01*
X1090544D01*
X1098415Y-167981D02*
Y-173228D01*
Y-170605D01*
X1099727Y-169293D01*
X1101039Y-167981D01*
X1102351D01*
X1114158Y-173228D02*
Y-165357D01*
X1119406Y-173228D01*
Y-165357D01*
X1123341Y-167981D02*
X1125965D01*
X1127277Y-169293D01*
Y-173228D01*
X1123341D01*
X1122029Y-171916D01*
X1123341Y-170605D01*
X1127277D01*
X1129901Y-173228D02*
Y-167981D01*
X1131213D01*
X1132525Y-169293D01*
Y-173228D01*
Y-169293D01*
X1133837Y-167981D01*
X1135149Y-169293D01*
Y-173228D01*
X1141708D02*
X1139084D01*
X1137772Y-171916D01*
Y-169293D01*
X1139084Y-167981D01*
X1141708D01*
X1143020Y-169293D01*
Y-170605D01*
X1137772D01*
X1066929Y-204727D02*
Y-212598D01*
X1070865D01*
X1072177Y-211286D01*
Y-206039D01*
X1070865Y-204727D01*
X1066929D01*
X1076112Y-207351D02*
X1078736D01*
X1080048Y-208663D01*
Y-212598D01*
X1076112D01*
X1074801Y-211286D01*
X1076112Y-209975D01*
X1080048D01*
X1083984Y-206039D02*
Y-207351D01*
X1082672D01*
X1085296D01*
X1083984D01*
Y-211286D01*
X1085296Y-212598D01*
X1093167D02*
X1090544D01*
X1089232Y-211286D01*
Y-208663D01*
X1090544Y-207351D01*
X1093167D01*
X1094479Y-208663D01*
Y-209975D01*
X1089232D01*
X1066929Y-244097D02*
Y-251969D01*
X1070865D01*
X1072177Y-250657D01*
Y-245409D01*
X1070865Y-244097D01*
X1066929D01*
X1076112Y-251969D02*
X1078736D01*
X1080048Y-250657D01*
Y-248033D01*
X1078736Y-246721D01*
X1076112D01*
X1074801Y-248033D01*
Y-250657D01*
X1076112Y-251969D01*
X1087920Y-246721D02*
X1083984D01*
X1082672Y-248033D01*
Y-250657D01*
X1083984Y-251969D01*
X1087920D01*
X1090544Y-246721D02*
Y-250657D01*
X1091856Y-251969D01*
X1095791D01*
Y-246721D01*
X1098415Y-251969D02*
Y-246721D01*
X1099727D01*
X1101039Y-248033D01*
Y-251969D01*
Y-248033D01*
X1102351Y-246721D01*
X1103663Y-248033D01*
Y-251969D01*
X1110222D02*
X1107598D01*
X1106287Y-250657D01*
Y-248033D01*
X1107598Y-246721D01*
X1110222D01*
X1111534Y-248033D01*
Y-249345D01*
X1106287D01*
X1114158Y-251969D02*
Y-246721D01*
X1118094D01*
X1119406Y-248033D01*
Y-251969D01*
X1123341Y-245409D02*
Y-246721D01*
X1122029D01*
X1124653D01*
X1123341D01*
Y-250657D01*
X1124653Y-251969D01*
D12*
X-101187Y80201D02*
G03*
X-108258Y77272I0J-10000D01*
G01*
X-58041Y80201D02*
G03*
X-53234Y82192I0J6799D01*
G01*
X-129703Y57244D02*
G03*
X-122632Y60173I0J10000D01*
G01*
X-21658Y33663D02*
G03*
X-21850Y33856I-192J0D01*
G01*
X-27563Y13780D02*
G03*
X-21658Y19685I0J5906D01*
G01*
X-34635Y13780D02*
G03*
X-36670Y12937I0J-2878D01*
G01*
X-4921Y61803D02*
G03*
X-7850Y68874I-10000J0D01*
G01*
X-12278Y3937D02*
G03*
X-4921Y11294I0J7357D01*
G01*
X-12155Y1969D02*
G03*
X-2829Y11294I0J9326D01*
G01*
Y65026D02*
G03*
X-5758Y72097I-10000J0D01*
G01*
X-984Y44634D02*
G03*
X984Y39882I6721J0D01*
G01*
X-984Y71092D02*
G03*
X-3913Y78163I-10000J0D01*
G01*
X8984Y69647D02*
G03*
X11912Y62576I10000J0D01*
G01*
X8984Y73941D02*
G03*
X6055Y81013I-10000J0D01*
G01*
X-6249Y99293D02*
G03*
X-10094Y100886I-3845J-3845D01*
G01*
X-16625Y100022D02*
G03*
X-19877Y98675I0J-4599D01*
G01*
D02*
G03*
X-20669Y96763I1912J-1912D01*
G01*
D02*
G03*
X-19001Y92737I5695J0D01*
G01*
X-17784Y89798D02*
G03*
X-19001Y92737I-4155J0D01*
G01*
X-17784Y81102D02*
G03*
X-16162Y77186I5539J0D01*
G01*
X-143701Y48228D02*
G03*
X-146338Y54596I-9005J0D01*
G01*
X-150614Y54672D02*
G03*
X-153543Y47600I7071J-7071D01*
G01*
X-143701Y46260D02*
G03*
X-138779Y41339I4921J0D01*
G01*
X-153543Y13937D02*
G03*
X-143543Y3937I10000J0D01*
G01*
X-117118Y50394D02*
G03*
X-124189Y47465I0J-10000D01*
G01*
X-131612Y43108D02*
G03*
X-126378Y45276I0J7402D01*
G01*
X-126212Y51575D02*
G03*
X-133283Y48646I0J-10000D01*
G01*
X-90945Y49607D02*
G03*
X-92913Y51575I-1968J0D01*
G01*
X-94488Y48819D02*
G03*
X-96063Y50394I-1575J0D01*
G01*
X-101378Y35925D02*
G03*
X-101279Y36163I-238J238D01*
G01*
X-100792Y39562D02*
G03*
X-101279Y38386I1176J-1176D01*
G01*
X-87013Y39562D02*
G03*
X-87500Y38386I1176J-1176D01*
G01*
X-87598Y35925D02*
G03*
X-87500Y36163I-238J238D01*
G01*
X-15646Y95873D02*
G03*
X-15650Y95869I5162J-5162D01*
G01*
X-16043Y90945D02*
G03*
X-15646Y91904I-959J959D01*
G01*
X-16043Y90945D02*
G03*
X-16240Y90470I475J-475D01*
G01*
X-94488Y43307D02*
G03*
X-93504Y42323I984J0D01*
G01*
X-141744Y48040D02*
G03*
X-136811Y43108I4933J0D01*
G01*
X-141744Y55702D02*
G03*
X-144673Y62773I-10000J0D01*
G01*
X-153567Y61561D02*
G03*
X-156496Y54490I7071J-7071D01*
G01*
X-46023Y83426D02*
G03*
X-46850Y81428I1998J-1998D01*
G01*
X-51174Y78063D02*
G03*
X-47638Y79528I0J5000D01*
G01*
X-94696Y78063D02*
G03*
X-99426Y76104I0J-6688D01*
G01*
X-47638Y79528D02*
G03*
X-46850Y81428I-1901J1901D01*
G01*
X-108778Y70866D02*
G03*
X-114173Y68632I0J-7629D01*
G01*
X-107607Y70866D02*
G03*
X-102583Y72947I0J7105D01*
G01*
X-127664Y62008D02*
G03*
X-120593Y64937I0J10000D01*
G01*
X-156496Y10827D02*
G03*
X-147638Y1969I8858J0D01*
G01*
X-139764Y56465D02*
G03*
X-136835Y49394I10000J0D01*
G01*
X-135827Y62008D02*
G03*
X-139764Y58071I0J-3937D01*
G01*
X-16240Y83623D02*
G03*
X-15502Y81841I2520J0D01*
G01*
X62106Y93405D02*
G03*
X62205Y93307I98J0D01*
G01*
X68799Y95965D02*
G03*
X66535Y93701I0J-2264D01*
G01*
X61137Y88302D02*
G03*
X66535Y93701I0J5399D01*
G01*
X53543Y89253D02*
G03*
X53937Y88302I1344J0D01*
G01*
X53543Y89952D02*
G03*
X50614Y97023I-10000J0D01*
G01*
X30441Y69291D02*
G03*
X23370Y66362I0J-10000D01*
G01*
X46161Y67716D02*
G03*
X44587Y69291I-1575J0D01*
G01*
X46161Y67716D02*
G03*
X47736Y66142I1575J0D01*
G01*
X50394D02*
G03*
X53543Y69291I0J3150D01*
G01*
X47023Y100614D02*
G03*
X39952Y103543I-7071J-7071D01*
G01*
X8984D02*
G03*
X1912Y100614I0J-10000D01*
G01*
X70079Y93307D02*
G03*
X70177Y93405I0J98D01*
G01*
X68504Y93307D02*
G03*
X67716Y92520I0J-787D01*
G01*
X64788Y82504D02*
G03*
X67716Y89575I-7071J7071D01*
G01*
X56896Y77953D02*
G03*
X62598Y80315I0J8065D01*
G01*
X-109426Y76104D02*
X-108258Y77272D01*
X-101187Y80201D02*
X-58041D01*
X-134685Y57244D02*
X-129703D01*
X-119095Y47244D02*
X-104725D01*
X-21658Y19685D02*
Y33663D01*
X-34635Y13780D02*
X-27563D01*
X-39566Y10040D02*
X-36670Y12937D01*
X-16162Y77186D02*
X-7850Y68874D01*
X-4921Y11294D02*
Y61803D01*
X-143543Y3937D02*
X-12278D01*
X-147638Y1969D02*
X-12155D01*
X-2829Y11294D02*
Y65026D01*
X-15502Y81841D02*
X-5758Y72097D01*
X984Y39882D02*
X3937Y36929D01*
X-984Y44634D02*
Y71092D01*
X-12226Y86476D02*
X1912Y100614D01*
X-12226Y86476D02*
X-3913Y78163D01*
X15748Y58740D02*
X23370Y66362D01*
X3937Y46929D02*
X15748Y58740D01*
X11912Y62576D02*
X15748Y58740D01*
X8984Y69647D02*
Y73941D01*
X-2829Y89896D02*
X6055Y81013D01*
X-12327Y100591D02*
X-10094Y100886D01*
X-16625Y100022D02*
X-12327Y100591D01*
X-17784Y81102D02*
Y89798D01*
X-143701Y46260D02*
Y48228D01*
X-150614Y54672D02*
X-148514Y56772D01*
X-105709Y41339D02*
X-104725Y42322D01*
X-138779Y41339D02*
X-105709D01*
X-153543Y13937D02*
Y47600D01*
X-117118Y50394D02*
X-96063D01*
X-126378Y45276D02*
X-124189Y47465D01*
X-136811Y43108D02*
X-131612D01*
X-136835Y49394D02*
X-134685Y47244D01*
X-133283Y48646D01*
X-126212Y51575D02*
X-92913D01*
X-90945Y47244D02*
Y49607D01*
X-94488Y43307D02*
Y48819D01*
X-98032Y42322D02*
Y47244D01*
X-100792Y39562D02*
X-98032Y42322D01*
X-101279Y36163D02*
Y38386D01*
X-87500Y36163D02*
Y38386D01*
X-87013Y39562D02*
X-84252Y42322D01*
Y47244D01*
X-15646Y91904D02*
Y95873D01*
X-16240Y83623D02*
Y90470D01*
X-93504Y42323D02*
X-90945D01*
Y42322D02*
Y42323D01*
X-141744Y48040D02*
Y55702D01*
X-148514Y66614D02*
X-144673Y62773D01*
X-153567Y61561D02*
X-148514Y66614D01*
X-156496Y10827D02*
Y54490D01*
X-148514Y56772D02*
X-146338Y54596D01*
X-120593Y64937D02*
X-109426Y76104D01*
X-46023Y83426D02*
X-43837Y85612D01*
X-94696Y78063D02*
X-51174D01*
X-102583Y72947D02*
X-99426Y76104D01*
X-122632Y60173D02*
X-114173Y68632D01*
X-108778Y70866D02*
X-107607D01*
X-135827Y62008D02*
X-127664D01*
X-139764Y56465D02*
Y58071D01*
X-32873Y10040D02*
X-24999D01*
X-45865D02*
X-39566D01*
X-45865Y10040D02*
Y10040D01*
X49606Y72835D02*
Y77953D01*
X48622Y72835D02*
X49606D01*
X53937Y88302D02*
X61137D01*
X53543Y89370D02*
Y89952D01*
Y89253D02*
Y89370D01*
X30441Y69291D02*
X44587D01*
X47736Y66142D02*
X50394D01*
X53543Y77953D02*
X56896D01*
X53543Y69291D02*
Y77953D01*
X47023Y100614D02*
X50614Y97023D01*
X8984Y103543D02*
X39952D01*
X68799Y95965D02*
X70177D01*
X68504Y93307D02*
X70079D01*
X67716Y89575D02*
Y92520D01*
X62598Y80315D02*
X64788Y82504D01*
D13*
X1084646Y-179138D02*
X1093829D01*
X1089237D01*
Y-192913D01*
X1100717D02*
X1105308D01*
X1107604Y-190618D01*
Y-186026D01*
X1105308Y-183730D01*
X1100717D01*
X1098421Y-186026D01*
Y-190618D01*
X1100717Y-192913D01*
X1112196Y-197505D02*
Y-183730D01*
X1119083D01*
X1121379Y-186026D01*
Y-190618D01*
X1119083Y-192913D01*
X1112196D01*
X1139746Y-179138D02*
Y-192913D01*
X1148929D01*
X1155817Y-183730D02*
X1160409D01*
X1162704Y-186026D01*
Y-192913D01*
X1155817D01*
X1153521Y-190618D01*
X1155817Y-188322D01*
X1162704D01*
X1167296Y-183730D02*
Y-190618D01*
X1169592Y-192913D01*
X1176480D01*
Y-195209D01*
X1174184Y-197505D01*
X1171888D01*
X1176480Y-192913D02*
Y-183730D01*
X1187959Y-192913D02*
X1183367D01*
X1181071Y-190618D01*
Y-186026D01*
X1183367Y-183730D01*
X1187959D01*
X1190255Y-186026D01*
Y-188322D01*
X1181071D01*
X1194846Y-183730D02*
Y-192913D01*
Y-188322D01*
X1197142Y-186026D01*
X1199438Y-183730D01*
X1201734D01*
X887795Y-257879D02*
Y-273622D01*
X893043Y-268374D01*
X898291Y-273622D01*
Y-257879D01*
X903538Y-273622D02*
X908786D01*
X906162D01*
Y-263127D01*
X903538D01*
X916657Y-273622D02*
Y-263127D01*
X919281D01*
X921905Y-265751D01*
Y-273622D01*
Y-265751D01*
X924529Y-263127D01*
X927153Y-265751D01*
Y-273622D01*
X932400Y-257879D02*
Y-268374D01*
X937648Y-273622D01*
X942896Y-268374D01*
Y-257879D01*
X958638Y-260503D02*
X956015Y-257879D01*
X950767D01*
X948143Y-260503D01*
Y-270998D01*
X950767Y-273622D01*
X956015D01*
X958638Y-270998D01*
Y-265751D01*
X953391D01*
X1242126Y-221133D02*
X1244750Y-218509D01*
X1249998D01*
X1252621Y-221133D01*
Y-231628D01*
X1249998Y-234252D01*
X1244750D01*
X1242126Y-231628D01*
Y-221133D01*
X1257869Y-234252D02*
X1263117D01*
X1260493D01*
Y-218509D01*
X1257869Y-221133D01*
X1078740Y-234252D02*
X1083332D01*
X1081036D01*
Y-220477D01*
X1078740Y-222773D01*
X1099403Y-234252D02*
X1090219D01*
X1099403Y-225069D01*
Y-222773D01*
X1097107Y-220477D01*
X1092515D01*
X1090219Y-222773D01*
X1103994Y-234252D02*
X1113178Y-225069D01*
X1117770Y-222773D02*
X1120065Y-220477D01*
X1124657D01*
X1126953Y-222773D01*
Y-231956D01*
X1124657Y-234252D01*
X1120065D01*
X1117770Y-231956D01*
Y-222773D01*
X1140728Y-220477D02*
X1136136Y-222773D01*
X1131545Y-227364D01*
Y-231956D01*
X1133840Y-234252D01*
X1138432D01*
X1140728Y-231956D01*
Y-229660D01*
X1138432Y-227364D01*
X1131545D01*
X1145320Y-234252D02*
X1154503Y-225069D01*
X1168278Y-234252D02*
X1159095D01*
X1168278Y-225069D01*
Y-222773D01*
X1165982Y-220477D01*
X1161391D01*
X1159095Y-222773D01*
X1172870D02*
X1175166Y-220477D01*
X1179757D01*
X1182053Y-222773D01*
Y-231956D01*
X1179757Y-234252D01*
X1175166D01*
X1172870Y-231956D01*
Y-222773D01*
X1186645Y-234252D02*
X1191237D01*
X1188941D01*
Y-220477D01*
X1186645Y-222773D01*
X1198124D02*
X1200420Y-220477D01*
X1205012D01*
X1207308Y-222773D01*
Y-225069D01*
X1205012Y-227364D01*
X1207308Y-229660D01*
Y-231956D01*
X1205012Y-234252D01*
X1200420D01*
X1198124Y-231956D01*
Y-229660D01*
X1200420Y-227364D01*
X1198124Y-225069D01*
Y-222773D01*
X1200420Y-227364D02*
X1205012D01*
X1083330Y-139769D02*
X1072835D01*
Y-147640D01*
X1078082D01*
X1072835D01*
Y-155512D01*
X1088578Y-145017D02*
Y-155512D01*
Y-150264D01*
X1091201Y-147640D01*
X1093825Y-145017D01*
X1096449D01*
X1104321Y-155512D02*
X1109568D01*
X1106944D01*
Y-145017D01*
X1104321D01*
X1117440Y-142393D02*
X1120063Y-139769D01*
X1125311D01*
X1127935Y-142393D01*
Y-145017D01*
X1125311Y-147640D01*
X1122687D01*
X1125311D01*
X1127935Y-150264D01*
Y-152888D01*
X1125311Y-155512D01*
X1120063D01*
X1117440Y-152888D01*
X1133183Y-139769D02*
Y-155512D01*
X1141054D01*
X1143678Y-152888D01*
Y-142393D01*
X1141054Y-139769D01*
X1133183D01*
X1164668Y-155512D02*
Y-145017D01*
X1169916Y-139769D01*
X1175164Y-145017D01*
Y-155512D01*
Y-147640D01*
X1164668D01*
X1180411Y-155512D02*
X1185659D01*
X1183035D01*
Y-145017D01*
X1180411D01*
X1193530D02*
Y-155512D01*
Y-150264D01*
X1196154Y-147640D01*
X1198778Y-145017D01*
X1201402D01*
X1235512Y-155512D02*
X1225016D01*
X1235512Y-145017D01*
Y-142393D01*
X1232888Y-139769D01*
X1227640D01*
X1225016Y-142393D01*
X1240759D02*
X1243383Y-139769D01*
X1248631D01*
X1251255Y-142393D01*
Y-152888D01*
X1248631Y-155512D01*
X1243383D01*
X1240759Y-152888D01*
Y-142393D01*
X1256502Y-155512D02*
X1261750D01*
X1259126D01*
Y-139769D01*
X1256502Y-142393D01*
X1269621D02*
X1272245Y-139769D01*
X1277493D01*
X1280117Y-142393D01*
Y-145017D01*
X1277493Y-147640D01*
X1280117Y-150264D01*
Y-152888D01*
X1277493Y-155512D01*
X1272245D01*
X1269621Y-152888D01*
Y-150264D01*
X1272245Y-147640D01*
X1269621Y-145017D01*
Y-142393D01*
X1272245Y-147640D02*
X1277493D01*
D18*
X65645Y105419D02*
G03*
X29580Y109708I-35786J-147126D01*
G01*
X-88943Y92377D02*
G03*
X-111792Y94155I-21300J-126048D01*
G01*
X6465Y4267D02*
G03*
X26524Y25136I-44106J62472D01*
G01*
X65569Y80260D02*
G03*
X42780Y49348I799750J-613435D01*
G01*
X-72921Y87933D02*
G03*
X-88943Y92377I-32623J-86515D01*
G01*
X-1944Y106376D02*
G03*
X-25719Y99585I45459J-204182D01*
G01*
X-36240Y95657D02*
G03*
X-54715Y87767I178444J-443420D01*
G01*
X29580Y109708D02*
G03*
X-1944Y106376I-76J-150031D01*
G01*
X-143418Y95246D02*
G03*
X-134538Y94265I22956J167117D01*
G01*
X42780Y49348D02*
G03*
X30413Y31246I544208J-385077D01*
G01*
X-62909Y84017D02*
G03*
X-54854Y87628I-79796J188795D01*
G01*
X-25719Y99585D02*
G03*
X-36240Y95657I86484J-247670D01*
G01*
X0Y0D02*
G03*
X6465Y4267I-49823J82511D01*
G01*
X76518Y94294D02*
G03*
X65569Y80260I689746J-549456D01*
G01*
X-164285Y99015D02*
G03*
X-143418Y95246I57900J260881D01*
G01*
X-134538Y94265D02*
G03*
X-125818Y93877I9143J107375D01*
G01*
X-65686Y85128D02*
G03*
X-72921Y87933I-109610J-271954D01*
G01*
X30413Y31246D02*
G03*
X28804Y28755I97495J-64732D01*
G01*
X71748Y103718D02*
G03*
X65645Y105419I-31323J-100583D01*
G01*
X74157Y102904D02*
G03*
X71748Y103718I-15399J-41594D01*
G01*
X-170256Y96377D02*
X-168312Y99988D01*
X-65686Y85128D02*
X-62909Y84017D01*
X76518Y94294D02*
X81379Y100265D01*
X-171368Y94155D02*
X-170256Y96377D01*
X-116024Y94097D02*
X-113891Y94139D01*
X-111792Y94155D01*
X-122624Y93877D02*
X-118191Y94035D01*
X74157Y102904D02*
X81379Y100265D01*
X-168312Y99988D02*
X-164285Y99015D01*
X28033Y27527D02*
X28804Y28755D01*
X27275Y26318D02*
X28033Y27527D01*
X-125818Y93877D02*
X-122624D01*
X-118191Y94035D02*
X-116024Y94097D01*
X-54854Y87628D02*
X-54715Y87767D01*
X26524Y25136D02*
X27275Y26318D01*
X-171368Y0D02*
X0D01*
X-171368D02*
Y94155D01*
D19*
X-50197Y34252D02*
D03*
Y56299D02*
D03*
D20*
Y36024D02*
D03*
Y54528D02*
D03*
D21*
X-90945Y47244D02*
D03*
X-84252D02*
D03*
X-104725D02*
D03*
X-98032D02*
D03*
X-90945Y42322D02*
D03*
X-84252D02*
D03*
X-104725D02*
D03*
X-98032D02*
D03*
X-24999Y10040D02*
D03*
X-18306D02*
D03*
X-39566D02*
D03*
X-32873D02*
D03*
X41930Y72835D02*
D03*
X48622D02*
D03*
X-45865Y10040D02*
D03*
X-52558D02*
D03*
D22*
X-83858Y36319D02*
D03*
X-87598D02*
D03*
X-91339D02*
D03*
Y25492D02*
D03*
X-83858D02*
D03*
X-97638Y36319D02*
D03*
X-101378D02*
D03*
X-105118D02*
D03*
Y25492D02*
D03*
X-97638D02*
D03*
D23*
X-47440Y21259D02*
D03*
X-30117D02*
D03*
D24*
X-50197Y39370D02*
D03*
Y51181D02*
D03*
D25*
X-13780Y42222D02*
D03*
Y34742D02*
D03*
X-61024Y22441D02*
D03*
Y14961D02*
D03*
D26*
X-12516Y53071D02*
D03*
X-23539D02*
D03*
D27*
X-29331Y43108D02*
D03*
X-21850D02*
D03*
Y33856D02*
D03*
X-25591D02*
D03*
X-29331D02*
D03*
X-25591Y43108D02*
D03*
D28*
X56896Y101771D02*
D03*
Y95078D02*
D03*
X-113189Y37795D02*
D03*
X-113189Y31102D02*
D03*
D29*
X49606Y83661D02*
D03*
D30*
X53543Y89370D02*
D03*
X49606D02*
D03*
X45669D02*
D03*
X53543Y77953D02*
D03*
X49606D02*
D03*
X45669D02*
D03*
D31*
X70177Y98524D02*
D03*
Y101083D02*
D03*
Y95965D02*
D03*
Y93405D02*
D03*
X62106D02*
D03*
Y95965D02*
D03*
Y98524D02*
D03*
Y101083D02*
D03*
D32*
X-71850Y12205D02*
D03*
Y23228D02*
D03*
D54*
X-84173Y17126D02*
D03*
X-94173D02*
D03*
X-104173D02*
D03*
X-99426Y76104D02*
D03*
Y66104D02*
D03*
X-109426Y76104D02*
D03*
Y66104D02*
D03*
X-148514Y56772D02*
D03*
Y46929D02*
D03*
Y37087D02*
D03*
Y66614D02*
D03*
X-2829Y89896D02*
D03*
X-12226Y86476D02*
D03*
X-21623Y83056D02*
D03*
X-53234Y82192D02*
D03*
X-43837Y85612D02*
D03*
X-34440Y89033D02*
D03*
X-25043Y92453D02*
D03*
X-15646Y95873D02*
D03*
X-134685Y67244D02*
D03*
Y57244D02*
D03*
Y47244D02*
D03*
Y37244D02*
D03*
X3937Y36929D02*
D03*
X3937Y46929D02*
D03*
X3937Y56929D02*
D03*
D57*
X-86409Y72835D02*
G03*
X-93480Y69906I0J-10000D01*
G01*
X-99426Y66104D02*
G03*
X-95766Y67620I0J5176D01*
G01*
X-86409Y72835D02*
X-82677D01*
X-95766Y67620D02*
X-93480Y69906D01*
X-109426Y66104D02*
X-99426D01*
X-72835Y31004D02*
Y53880D01*
D58*
X-47440Y21259D02*
G03*
X-52194Y23228I-4754J-4754D01*
G01*
X-12516Y62030D02*
G03*
X-15445Y69101I-10000J0D01*
G01*
X-21623Y78737D02*
G03*
X-19178Y72835I8347J0D01*
G01*
X-21623Y84890D02*
G03*
X-24552Y91961I-10000J0D01*
G01*
X-71850Y23228D02*
X-52194D01*
X-83661Y31004D02*
X-72835D01*
X-98032D02*
X-83661D01*
X-114173D02*
X-98032D01*
X-72835D02*
X-71850Y23228D01*
X-12516Y55433D02*
Y62030D01*
X-19178Y72835D02*
X-15445Y69101D01*
X-114173Y27244D02*
Y31004D01*
Y17126D02*
Y27244D01*
X-134685D02*
X-114173D01*
X-21623Y78737D02*
Y83056D01*
Y84890D01*
X-25043Y92453D02*
X-24552Y91961D01*
D59*
X-25591Y58022D02*
G03*
X-23539Y53071I7003J0D01*
G01*
X-25591Y61024D02*
G03*
X-27261Y65056I-5703J0D01*
G01*
X-37954Y79891D02*
G03*
X-35025Y72820I10000J0D01*
G01*
Y88447D02*
G03*
X-37954Y81376I7071J-7071D01*
G01*
X-25591Y58022D02*
Y61024D01*
X-35025Y72820D02*
X-27261Y65056D01*
X-35025Y88447D02*
X-34440Y89033D01*
X-37954Y79891D02*
Y81376D01*
D60*
X-141744Y34303D02*
G03*
X-148465Y37087I-6721J-6721D01*
G01*
X-141744Y34303D02*
X-134685Y27244D01*
D61*
X-25591Y43108D02*
Y53071D01*
X-21850Y43108D02*
Y53071D01*
X-113189Y37795D02*
X-108858D01*
X-25591Y33856D02*
Y38186D01*
X-69488Y7087D02*
Y12205D01*
X-74213Y7087D02*
Y12205D01*
X-61024Y10630D02*
Y14961D01*
X-12516Y55433D02*
X-7398D01*
X-12516Y50709D02*
X-7398D01*
X-21850Y43108D02*
X-13780D01*
X-15748Y42222D02*
X-13780D01*
Y43108D01*
X-18306Y10040D02*
X-13976D01*
X-13780Y30411D02*
Y34742D01*
D62*
X-12516Y53071D02*
Y55433D01*
D63*
X-114173Y17126D02*
D03*
D64*
X-76772Y72835D02*
D03*
D65*
X-68898D02*
D03*
D66*
X-68898D02*
D03*
D67*
X-82677D02*
D03*
D68*
X-99426Y56104D02*
D03*
X-109426D02*
D03*
X-148514Y27244D02*
D03*
X-134685D02*
D03*
X3937Y66929D02*
D03*
D69*
X39370Y61929D02*
D03*
D70*
X-31020Y79636D02*
D03*
X-6249Y99293D02*
D03*
D71*
X22107Y87014D02*
D03*
D72*
X-45552Y73222D02*
D03*
X-119095Y47244D02*
D03*
X-80709Y36417D02*
D03*
X-94488D02*
D03*
X-108858Y37795D02*
D03*
X-25591Y38186D02*
D03*
X-61024Y10630D02*
D03*
X-69488Y7087D02*
D03*
X-74213D02*
D03*
X-7398Y55433D02*
D03*
Y50709D02*
D03*
X-13976Y10040D02*
D03*
X-13780Y30411D02*
D03*
X56896Y91141D02*
D03*
X73480Y98425D02*
D03*
X52959Y101771D02*
D03*
X48622Y68898D02*
D03*
X37992Y72835D02*
D03*
X49606Y92913D02*
D03*
M02*
