M48
;Layer_Color=9474304
;FILE_FORMAT=2:5
INCH,LZ
;TYPE=PLATED
T1F00S00C0.01378
T2F00S00C0.02559
T3F00S00C0.02953
T4F00S00C0.03543
T5F00S00C0.03937
T6F00S00C0.18898
;TYPE=NON_PLATED
T7F00S00C0.11811
%
T01
X-0119095Y0047244
X-0108858Y0037795
X-0094488Y0036417
X-0080709
X-0074213Y0007087
X-0069488
X-0061024Y001063
X-0013976Y001004
X-001378Y0030411
X-0025591Y0038186
X-0007398Y0050709
Y0055433
X-0045552Y0073222
X0037992Y0072835
X0048622Y0068898
X0049606Y0092913
X0056896Y0091141
X0052959Y0101771
X007348Y0098425
T02
X-0076772Y0072835
X-0068898
T03
X-0082677Y0072835
X-0068898
T04
X-0134685Y0027244
Y0037244
Y0047244
X-0114173Y0017126
X-0104173
X-0094173
X-0084173
X0003937Y0036929
X0003937Y0046929
X0003937Y0056929
Y0066929
X-0002829Y0089896
X-0012226Y0086476
X-0015646Y0095873
X-0006249Y0099293
X-0025043Y0092453
X-0021623Y0083056
X-003102Y0079636
X-003444Y0089033
X-0043837Y0085612
X-0053234Y0082192
X-0099426Y0076104
Y0066104
Y0056104
X-0109426
Y0066104
Y0076104
X-0134685Y0067244
Y0057244
T05
X-0148514Y0027244
Y0037087
Y0046929
Y0056772
Y0066614
T06
X0022107Y0087014
T07
X003937Y0061929
M30
