G04*
G04 #@! TF.GenerationSoftware,Altium Limited,Altium Designer,18.1.6 (161)*
G04*
G04 Layer_Physical_Order=2*
G04 Layer_Color=40191*
%FSLAX25Y25*%
%MOIN*%
G70*
G01*
G75*
%ADD10C,0.01968*%
%ADD11C,0.00984*%
%ADD12C,0.03937*%
%ADD13C,0.00787*%
%ADD15C,0.00394*%
%ADD16C,0.00591*%
%ADD17C,0.01575*%
%ADD63R,0.03937X0.04331*%
%ADD66R,0.04331X0.03937*%
%ADD130C,0.04724*%
%ADD137C,0.01181*%
%ADD143C,0.01500*%
G04:AMPARAMS|DCode=144|XSize=61.02mil|YSize=35.43mil|CornerRadius=0mil|HoleSize=0mil|Usage=FLASHONLY|Rotation=80.000|XOffset=0mil|YOffset=0mil|HoleType=Round|Shape=Round|*
%AMOVALD144*
21,1,0.02559,0.03543,0.00000,0.00000,80.0*
1,1,0.03543,-0.00222,-0.01260*
1,1,0.03543,0.00222,0.01260*
%
%ADD144OVALD144*%

G04:AMPARAMS|DCode=145|XSize=49.21mil|YSize=37.4mil|CornerRadius=0mil|HoleSize=0mil|Usage=FLASHONLY|Rotation=170.000|XOffset=0mil|YOffset=0mil|HoleType=Round|Shape=Round|*
%AMOVALD145*
21,1,0.01181,0.03740,0.00000,0.00000,170.0*
1,1,0.03740,0.00582,-0.00103*
1,1,0.03740,-0.00582,0.00103*
%
%ADD145OVALD145*%

%ADD146C,0.04331*%
%ADD147C,0.27559*%
%ADD148C,0.11811*%
%ADD149C,0.05906*%
%ADD150R,0.05906X0.05906*%
%ADD151C,0.02756*%
%ADD152C,0.05906*%
%ADD153C,0.07874*%
%ADD154R,0.12205X0.05512*%
%ADD155R,0.13386X0.05906*%
%ADD156R,0.09449X0.05512*%
%ADD157R,0.06299X0.05512*%
%ADD158R,0.05512X0.06299*%
%ADD159R,0.07874X0.02756*%
G36*
X193906Y381650D02*
X213195D01*
X213264Y381664D01*
X214341Y381558D01*
X215444Y381224D01*
X216460Y380681D01*
X217297Y379994D01*
X217337Y379935D01*
X217951Y379321D01*
X218037Y379263D01*
X218945Y378156D01*
X219668Y376804D01*
X220113Y375337D01*
X220253Y373912D01*
X220233Y373811D01*
Y355323D01*
X220253Y355222D01*
X220113Y353797D01*
X219668Y352330D01*
X218945Y350977D01*
X218037Y349871D01*
X217951Y349813D01*
X210817Y342679D01*
X210794Y342645D01*
X209576Y341220D01*
X209379Y340898D01*
X208198Y341231D01*
Y363284D01*
X208518Y363529D01*
X208928Y364064D01*
X209186Y364686D01*
X209274Y365354D01*
X209186Y366022D01*
X208928Y366645D01*
X208518Y367179D01*
X207983Y367590D01*
X207361Y367847D01*
X206693Y367935D01*
X206025Y367847D01*
X205402Y367590D01*
X204868Y367179D01*
X204458Y366645D01*
X204200Y366022D01*
X204172Y365809D01*
X203053Y365534D01*
X202945Y365540D01*
X201855Y366816D01*
X201852Y366812D01*
X199773Y368892D01*
X199825Y369291D01*
X199737Y369959D01*
X199479Y370582D01*
X199069Y371116D01*
X198535Y371527D01*
X197912Y371784D01*
X197244Y371872D01*
X196576Y371784D01*
X195954Y371527D01*
X195419Y371116D01*
X195009Y370582D01*
X194751Y369959D01*
X194663Y369291D01*
X194751Y368623D01*
X195009Y368001D01*
X195419Y367466D01*
X195954Y367056D01*
X196576Y366798D01*
X197244Y366710D01*
X197644Y366763D01*
X199723Y364684D01*
X199772Y364651D01*
X200720Y363495D01*
X201452Y362126D01*
X201903Y360640D01*
X202049Y359152D01*
X202038Y359095D01*
Y313985D01*
X202051Y313918D01*
X201894Y312323D01*
X201410Y310726D01*
X200623Y309254D01*
X199611Y308021D01*
X199556Y307984D01*
X199556Y307983D01*
X199554Y307980D01*
X199550Y307978D01*
X190648Y299076D01*
X190647Y299074D01*
X190645Y299073D01*
X190606Y299015D01*
X189594Y298238D01*
X188346Y297721D01*
X187078Y297554D01*
X187008Y297568D01*
X177279D01*
X177044Y298749D01*
X178730Y299448D01*
X180738Y300678D01*
X182529Y302207D01*
X184058Y303998D01*
X185289Y306006D01*
X186190Y308182D01*
X186740Y310471D01*
X186924Y312819D01*
X186740Y315166D01*
X186190Y317456D01*
X185289Y319632D01*
X184058Y321640D01*
X182529Y323430D01*
X180738Y324960D01*
X178730Y326190D01*
X176555Y327091D01*
X174265Y327641D01*
X172617Y327771D01*
X172098Y328996D01*
X174575Y331995D01*
X179498Y338306D01*
X184244Y344752D01*
X185983Y347258D01*
X186628Y348186D01*
D01*
X188808Y351327D01*
X190997Y354678D01*
X189442Y352879D01*
X189442Y352879D01*
X188597Y351976D01*
X186546Y349782D01*
X185716Y348945D01*
X185716Y348945D01*
X184872Y348130D01*
X182771Y346104D01*
X179182Y342984D01*
X177329Y341494D01*
X177329Y341494D01*
X177329Y341494D01*
X174911Y339550D01*
X170023Y335728D01*
X165067Y331994D01*
X160044Y328351D01*
X157508Y326564D01*
X156814Y327520D01*
X164955Y335661D01*
X165354Y335608D01*
X166022Y335696D01*
X166645Y335954D01*
X167180Y336364D01*
X167590Y336898D01*
X167848Y337521D01*
X167936Y338189D01*
X167848Y338857D01*
X167590Y339480D01*
X167180Y340014D01*
X166645Y340424D01*
X166022Y340682D01*
X165354Y340770D01*
X164686Y340682D01*
X164064Y340424D01*
X163529Y340014D01*
X163119Y339480D01*
X162861Y338857D01*
X162773Y338189D01*
X162826Y337789D01*
X153525Y328488D01*
X153509Y328465D01*
X152605Y327723D01*
X151550Y327159D01*
X150404Y326811D01*
X150357Y326806D01*
X149213Y326717D01*
Y326717D01*
X147433Y326542D01*
X145721Y326023D01*
X144143Y325180D01*
X142761Y324045D01*
X142771Y324034D01*
X138589Y319851D01*
X138189Y319904D01*
X137521Y319816D01*
X136898Y319558D01*
X136364Y319148D01*
X135954Y318613D01*
X135696Y317991D01*
X135608Y317323D01*
X135696Y316655D01*
X135954Y316032D01*
X136364Y315498D01*
X136898Y315088D01*
X137521Y314830D01*
X137962Y314772D01*
X138247Y314147D01*
X138303Y313582D01*
X134387Y311004D01*
X124992Y305002D01*
X121262Y302672D01*
X121203Y302635D01*
X120617Y302269D01*
X120265Y302049D01*
X120265Y302049D01*
X120265Y302049D01*
X127458Y289933D01*
X127015Y289154D01*
X126699Y288899D01*
X125296Y289037D01*
X123876Y289467D01*
X122829Y290027D01*
X122846Y290158D01*
X122758Y290826D01*
X122500Y291448D01*
X122090Y291983D01*
X121555Y292393D01*
X121090Y292586D01*
X121018Y292667D01*
X120834Y293093D01*
X120657Y293878D01*
X120739Y293985D01*
X120997Y294607D01*
X121085Y295276D01*
X120997Y295944D01*
X120739Y296566D01*
X120329Y297101D01*
X119794Y297511D01*
X119172Y297769D01*
X118504Y297857D01*
X117836Y297769D01*
X117213Y297511D01*
X116679Y297101D01*
X116269Y296566D01*
X116011Y295944D01*
X116005Y295899D01*
X115422Y295316D01*
X115356Y295218D01*
X114632Y294336D01*
X114040Y293227D01*
X113675Y292024D01*
X113563Y290889D01*
X113540Y290774D01*
X113565Y290650D01*
X113594Y290350D01*
X112465Y289899D01*
X112452Y289897D01*
X111920Y290305D01*
X111298Y290563D01*
X110630Y290651D01*
X109962Y290563D01*
X109339Y290305D01*
X108805Y289895D01*
X108395Y289360D01*
X108137Y288738D01*
X108049Y288070D01*
X108137Y287402D01*
X108395Y286779D01*
X108805Y286245D01*
X109339Y285835D01*
X109962Y285577D01*
X110007Y285571D01*
X111926Y283651D01*
X111960Y283629D01*
X113386Y282411D01*
X115018Y281411D01*
X116788Y280678D01*
X118649Y280231D01*
X120519Y280084D01*
X120559Y280076D01*
X137930D01*
X138719Y278895D01*
X138613Y278638D01*
X138471Y277559D01*
Y263869D01*
X138482Y263782D01*
X138346Y262748D01*
X137914Y261703D01*
X137202Y260830D01*
X137202Y260830D01*
X136013Y259382D01*
X135130Y257729D01*
X134586Y255937D01*
X134403Y254072D01*
X134413D01*
Y244504D01*
X131534D01*
X131417Y244585D01*
X130797Y245685D01*
X130840Y245789D01*
X130928Y246457D01*
X130840Y247125D01*
X130726Y247399D01*
X130436Y248510D01*
X130959Y248962D01*
X131369Y249497D01*
X131627Y250119D01*
X131715Y250787D01*
X131627Y251455D01*
X131369Y252078D01*
X130959Y252612D01*
X130424Y253023D01*
X129802Y253281D01*
X129134Y253368D01*
X128466Y253281D01*
X127843Y253023D01*
X127309Y252612D01*
X126899Y252078D01*
X126641Y251455D01*
X126623Y251321D01*
X125488Y250665D01*
X125268Y250721D01*
X125025Y251038D01*
X124491Y251448D01*
X123869Y251706D01*
X123200Y251794D01*
X122801Y251741D01*
X121686Y252856D01*
X121695Y252865D01*
X120698Y253629D01*
X120955Y254801D01*
X120973Y254844D01*
X121061Y255512D01*
X120973Y256180D01*
X120715Y256802D01*
X120305Y257337D01*
X119770Y257747D01*
X119148Y258005D01*
X118480Y258093D01*
X118080Y258040D01*
X111276Y264844D01*
X111274Y264845D01*
X111273Y264848D01*
X111245Y264866D01*
X110462Y265820D01*
X109863Y266941D01*
X109494Y268158D01*
X109420Y268910D01*
X109390Y270079D01*
X109390D01*
X109233Y271672D01*
X108768Y273205D01*
X108013Y274617D01*
X106997Y275855D01*
X106990Y275848D01*
X106990Y275848D01*
X104472Y278365D01*
X104522Y278740D01*
X104434Y279408D01*
X104176Y280031D01*
X103766Y280565D01*
X103231Y280976D01*
X102609Y281233D01*
X101941Y281321D01*
X101272Y281233D01*
X100650Y280976D01*
X100115Y280565D01*
X99705Y280031D01*
X99447Y279408D01*
X99359Y278740D01*
X99447Y278072D01*
X99705Y277450D01*
X99742Y277171D01*
X99541Y276068D01*
X99452Y275936D01*
X99328Y275841D01*
X98918Y275306D01*
X98660Y274684D01*
X98572Y274016D01*
X98660Y273348D01*
X98918Y272725D01*
X99328Y272191D01*
X99863Y271780D01*
X100405Y271556D01*
X100501Y271494D01*
X100608Y271301D01*
X100284Y269952D01*
X99750Y269542D01*
X99339Y269007D01*
X99082Y268385D01*
X98994Y267717D01*
X99082Y267049D01*
X99339Y266426D01*
X99750Y265891D01*
X100284Y265481D01*
X100478Y265401D01*
X100613Y264956D01*
X101034Y264168D01*
X100499Y263087D01*
X99606Y262938D01*
X98533Y263199D01*
X98203Y263420D01*
X98250Y263779D01*
X98163Y264448D01*
X97905Y265070D01*
X97494Y265605D01*
X96960Y266015D01*
X96337Y266273D01*
X95669Y266361D01*
X95001Y266273D01*
X94379Y266015D01*
X93844Y265605D01*
X93434Y265070D01*
X93176Y264448D01*
X93088Y263779D01*
X93176Y263111D01*
X93434Y262489D01*
X93844Y261954D01*
X94379Y261544D01*
X95001Y261286D01*
X95669Y261198D01*
X96102Y261255D01*
X96944Y260609D01*
X98228Y260077D01*
X99606Y259895D01*
Y259895D01*
X100751Y259808D01*
X100832Y259801D01*
X102010Y259443D01*
X103096Y258863D01*
X103163Y258807D01*
X104041Y258075D01*
X104876Y257240D01*
X107482Y254634D01*
X107030Y253543D01*
X97244D01*
Y245669D01*
X111811D01*
Y248762D01*
X112902Y249214D01*
X115724Y246393D01*
X115724Y246392D01*
X115719Y246388D01*
X116822Y245483D01*
X117735Y244995D01*
X118035Y244835D01*
X118035Y244835D01*
X118081Y244810D01*
X118813Y244588D01*
X119079Y244504D01*
X119079Y242524D01*
X118710Y242248D01*
X117898Y241997D01*
X117599Y242226D01*
X116977Y242483D01*
X116309Y242571D01*
X115641Y242483D01*
X115018Y242226D01*
X114484Y241815D01*
X114392Y241696D01*
X107399D01*
X107307Y241815D01*
X106773Y242226D01*
X106150Y242483D01*
X105482Y242571D01*
X104814Y242483D01*
X104192Y242226D01*
X103657Y241815D01*
X103566Y241696D01*
X96572D01*
X96481Y241815D01*
X95946Y242226D01*
X95323Y242483D01*
X94655Y242571D01*
X93987Y242483D01*
X93365Y242226D01*
X92830Y241815D01*
X92739Y241696D01*
X85745D01*
X85654Y241815D01*
X85119Y242226D01*
X84497Y242483D01*
X83829Y242571D01*
X83161Y242483D01*
X82538Y242226D01*
X82003Y241815D01*
X81912Y241696D01*
X74918D01*
X74827Y241815D01*
X74292Y242226D01*
X73670Y242483D01*
X73002Y242571D01*
X72334Y242483D01*
X71711Y242226D01*
X71177Y241815D01*
X71085Y241696D01*
X64092D01*
X64000Y241815D01*
X63466Y242226D01*
X62843Y242483D01*
X62175Y242571D01*
X61507Y242483D01*
X60884Y242226D01*
X60350Y241815D01*
X60259Y241696D01*
X53265D01*
X53173Y241815D01*
X52639Y242226D01*
X52016Y242483D01*
X51348Y242571D01*
X50680Y242483D01*
X50058Y242226D01*
X49523Y241815D01*
X49432Y241696D01*
X42438D01*
X42347Y241815D01*
X41812Y242226D01*
X41190Y242483D01*
X40521Y242571D01*
X39854Y242483D01*
X39231Y242226D01*
X38696Y241815D01*
X38286Y241281D01*
X38028Y240658D01*
X37940Y239990D01*
X38028Y239322D01*
X38286Y238700D01*
X38696Y238165D01*
X39231Y237755D01*
X39854Y237497D01*
X40521Y237409D01*
X41190Y237497D01*
X41812Y237755D01*
X42347Y238165D01*
X42438Y238284D01*
X49432D01*
X49523Y238165D01*
X50058Y237755D01*
X50680Y237497D01*
X51348Y237409D01*
X52016Y237497D01*
X52639Y237755D01*
X53173Y238165D01*
X53265Y238284D01*
X60259D01*
X60350Y238165D01*
X60884Y237755D01*
X61507Y237497D01*
X62175Y237409D01*
X62843Y237497D01*
X63466Y237755D01*
X64000Y238165D01*
X64092Y238284D01*
X71085D01*
X71177Y238165D01*
X71711Y237755D01*
X72334Y237497D01*
X73002Y237409D01*
X73670Y237497D01*
X74292Y237755D01*
X74827Y238165D01*
X74918Y238284D01*
X81912D01*
X82003Y238165D01*
X82538Y237755D01*
X83161Y237497D01*
X83829Y237409D01*
X84497Y237497D01*
X85119Y237755D01*
X85654Y238165D01*
X85745Y238284D01*
X92739D01*
X92830Y238165D01*
X93365Y237755D01*
X93987Y237497D01*
X94655Y237409D01*
X95323Y237497D01*
X95946Y237755D01*
X96481Y238165D01*
X96572Y238284D01*
X103566D01*
X103657Y238165D01*
X104192Y237755D01*
X104814Y237497D01*
X105482Y237409D01*
X106150Y237497D01*
X106773Y237755D01*
X107307Y238165D01*
X107399Y238284D01*
X114392D01*
X114484Y238165D01*
X115018Y237755D01*
X115641Y237497D01*
X116309Y237409D01*
X116977Y237497D01*
X117599Y237755D01*
X118718Y237221D01*
X118898Y236811D01*
X118898Y236811D01*
X118898Y236811D01*
Y231849D01*
X117717Y231309D01*
X117599Y231399D01*
X116977Y231657D01*
X116309Y231745D01*
X115641Y231657D01*
X115018Y231399D01*
X114484Y230989D01*
X114392Y230870D01*
X107399D01*
X107307Y230989D01*
X106773Y231399D01*
X106150Y231657D01*
X105482Y231745D01*
X104814Y231657D01*
X104192Y231399D01*
X103657Y230989D01*
X103566Y230870D01*
X96572D01*
X96481Y230989D01*
X95946Y231399D01*
X95323Y231657D01*
X94655Y231745D01*
X93987Y231657D01*
X93365Y231399D01*
X92830Y230989D01*
X92739Y230870D01*
X85745D01*
X85654Y230989D01*
X85119Y231399D01*
X84497Y231657D01*
X83829Y231745D01*
X83161Y231657D01*
X82538Y231399D01*
X82003Y230989D01*
X81912Y230870D01*
X74918D01*
X74827Y230989D01*
X74292Y231399D01*
X73670Y231657D01*
X73002Y231745D01*
X72334Y231657D01*
X71711Y231399D01*
X71177Y230989D01*
X71085Y230870D01*
X64092D01*
X64000Y230989D01*
X63466Y231399D01*
X62843Y231657D01*
X62175Y231745D01*
X61507Y231657D01*
X60884Y231399D01*
X60350Y230989D01*
X60259Y230870D01*
X53265D01*
X53173Y230989D01*
X52639Y231399D01*
X52016Y231657D01*
X51348Y231745D01*
X50680Y231657D01*
X50058Y231399D01*
X49523Y230989D01*
X49432Y230870D01*
X42438D01*
X42347Y230989D01*
X41812Y231399D01*
X41190Y231657D01*
X40521Y231745D01*
X39854Y231657D01*
X39231Y231399D01*
X38696Y230989D01*
X38286Y230454D01*
X38028Y229832D01*
X37940Y229164D01*
X38028Y228496D01*
X38286Y227873D01*
X38696Y227338D01*
X39231Y226928D01*
X39854Y226670D01*
X40521Y226582D01*
X41190Y226670D01*
X41812Y226928D01*
X42347Y227338D01*
X42438Y227457D01*
X49432D01*
X49523Y227338D01*
X50058Y226928D01*
X50680Y226670D01*
X51348Y226582D01*
X52016Y226670D01*
X52639Y226928D01*
X53173Y227338D01*
X53265Y227457D01*
X60259D01*
X60350Y227338D01*
X60884Y226928D01*
X61507Y226670D01*
X62175Y226582D01*
X62843Y226670D01*
X63466Y226928D01*
X64000Y227338D01*
X64092Y227457D01*
X71085D01*
X71177Y227338D01*
X71711Y226928D01*
X72334Y226670D01*
X73002Y226582D01*
X73670Y226670D01*
X74292Y226928D01*
X74827Y227338D01*
X74918Y227457D01*
X81912D01*
X82003Y227338D01*
X82538Y226928D01*
X83161Y226670D01*
X83829Y226582D01*
X84497Y226670D01*
X85119Y226928D01*
X85654Y227338D01*
X85745Y227457D01*
X92739D01*
X92830Y227338D01*
X93365Y226928D01*
X93987Y226670D01*
X94655Y226582D01*
X95323Y226670D01*
X95946Y226928D01*
X96063Y227018D01*
X97244Y226479D01*
Y221022D01*
X96063Y220482D01*
X95946Y220572D01*
X95323Y220830D01*
X94655Y220918D01*
X93987Y220830D01*
X93365Y220572D01*
X92830Y220162D01*
X92739Y220043D01*
X85745D01*
X85654Y220162D01*
X85119Y220572D01*
X84497Y220830D01*
X83829Y220918D01*
X83161Y220830D01*
X82538Y220572D01*
X82003Y220162D01*
X81912Y220043D01*
X74918D01*
X74827Y220162D01*
X74292Y220572D01*
X73670Y220830D01*
X73002Y220918D01*
X72334Y220830D01*
X71711Y220572D01*
X71177Y220162D01*
X71085Y220043D01*
X64092D01*
X64000Y220162D01*
X63466Y220572D01*
X62843Y220830D01*
X62175Y220918D01*
X61507Y220830D01*
X60884Y220572D01*
X60350Y220162D01*
X60259Y220043D01*
X53265D01*
X53173Y220162D01*
X52639Y220572D01*
X52016Y220830D01*
X51348Y220918D01*
X50680Y220830D01*
X50058Y220572D01*
X49523Y220162D01*
X49432Y220043D01*
X42438D01*
X42347Y220162D01*
X41812Y220572D01*
X41190Y220830D01*
X40521Y220918D01*
X39854Y220830D01*
X39231Y220572D01*
X38696Y220162D01*
X38286Y219627D01*
X38028Y219005D01*
X37940Y218337D01*
X38028Y217669D01*
X38286Y217046D01*
X38696Y216512D01*
X39231Y216101D01*
X39854Y215844D01*
X40521Y215756D01*
X41190Y215844D01*
X41812Y216101D01*
X42347Y216512D01*
X42438Y216631D01*
X49432D01*
X49523Y216512D01*
X50058Y216101D01*
X50680Y215844D01*
X51348Y215756D01*
X52016Y215844D01*
X52639Y216101D01*
X53173Y216512D01*
X53265Y216631D01*
X60259D01*
X60350Y216512D01*
X60884Y216101D01*
X61507Y215844D01*
X62175Y215756D01*
X62843Y215844D01*
X63466Y216101D01*
X64000Y216512D01*
X64092Y216631D01*
X71085D01*
X71177Y216512D01*
X71711Y216101D01*
X72334Y215844D01*
X73002Y215756D01*
X73670Y215844D01*
X74292Y216101D01*
X74827Y216512D01*
X74918Y216631D01*
X81912D01*
X82003Y216512D01*
X82538Y216101D01*
X83161Y215844D01*
X83829Y215756D01*
X84497Y215844D01*
X85119Y216101D01*
X85654Y216512D01*
X85745Y216631D01*
X92739D01*
X92830Y216512D01*
X93365Y216101D01*
X93987Y215844D01*
X94655Y215756D01*
X95323Y215844D01*
X95946Y216101D01*
X96481Y216512D01*
X96572Y216631D01*
X103566D01*
X103657Y216512D01*
X104192Y216101D01*
X104814Y215844D01*
X105482Y215756D01*
X106150Y215844D01*
X106773Y216101D01*
X107307Y216512D01*
X107399Y216631D01*
X114392D01*
X114484Y216512D01*
X115018Y216101D01*
X115641Y215844D01*
X116309Y215756D01*
X116977Y215844D01*
X117599Y216101D01*
X118134Y216512D01*
X118544Y217046D01*
X118802Y217669D01*
X118890Y218337D01*
X118802Y219005D01*
X118544Y219627D01*
X118134Y220162D01*
X117599Y220572D01*
X116977Y220830D01*
X116309Y220918D01*
X115641Y220830D01*
X115018Y220572D01*
X114484Y220162D01*
X114392Y220043D01*
X111811D01*
Y227457D01*
X114392D01*
X114484Y227338D01*
X115018Y226928D01*
X115641Y226670D01*
X116309Y226582D01*
X116977Y226670D01*
X117599Y226928D01*
X118134Y227338D01*
X118544Y227873D01*
X119388Y228521D01*
X119893Y228543D01*
X126501D01*
X126772Y228508D01*
X134413D01*
Y217134D01*
X134405D01*
X134580Y214916D01*
X135099Y212753D01*
X135950Y210698D01*
X137113Y208801D01*
X138558Y207109D01*
X138563Y207115D01*
X141564Y204115D01*
X141612Y204078D01*
X142300Y203239D01*
X142840Y202228D01*
X143173Y201132D01*
X143279Y200052D01*
X143271Y199992D01*
Y186848D01*
X142406Y186138D01*
X141520Y185058D01*
X140862Y183827D01*
X140553Y182808D01*
X139575D01*
X139498Y182793D01*
X137953Y182945D01*
X136392Y183419D01*
X134955Y184187D01*
X133754Y185172D01*
X133711Y185238D01*
X129726Y189222D01*
X129728Y189225D01*
X128331Y190418D01*
X126764Y191378D01*
X125067Y192081D01*
X123280Y192510D01*
X121448Y192654D01*
Y192651D01*
X2704Y192651D01*
X2613Y192770D01*
X2078Y193180D01*
X1455Y193438D01*
X787Y193526D01*
X119Y193438D01*
X-503Y193180D01*
X-1038Y192770D01*
X-1448Y192235D01*
X-1706Y191613D01*
X-1794Y190945D01*
X-1706Y190277D01*
X-1448Y189654D01*
X-1264Y189414D01*
X-1610Y188441D01*
X-1786Y188233D01*
X-66724D01*
Y188236D01*
X-69096Y188049D01*
X-71410Y187494D01*
X-73609Y186583D01*
X-75638Y185339D01*
X-77447Y183794D01*
X-77445Y183792D01*
X-82784Y178453D01*
X-86918Y174320D01*
X-87738Y173250D01*
X-88254Y172005D01*
X-88430Y170669D01*
X-88254Y169333D01*
X-87738Y168088D01*
X-86918Y167019D01*
X-85849Y166199D01*
X-84604Y165683D01*
X-83268Y165507D01*
X-81932Y165683D01*
X-80687Y166199D01*
X-79617Y167019D01*
X-78908Y167729D01*
X-78631Y167843D01*
X-78096Y168254D01*
X-77686Y168788D01*
X-77571Y169065D01*
X-75484Y171153D01*
X-70145Y176492D01*
X-70061Y176601D01*
X-69161Y177292D01*
X-67985Y177778D01*
X-66860Y177927D01*
X-66724Y177909D01*
X-26772D01*
Y149241D01*
X-26753Y149146D01*
X-26896Y146973D01*
X-27339Y144744D01*
X-28070Y142591D01*
X-29075Y140553D01*
X-30338Y138663D01*
X-31836Y136954D01*
X-33545Y135456D01*
X-35435Y134193D01*
X-37473Y133188D01*
X-39625Y132457D01*
X-41855Y132014D01*
X-42584Y131966D01*
X-42832Y132157D01*
X-43454Y132414D01*
X-44122Y132502D01*
X-44791Y132414D01*
X-45413Y132157D01*
X-45948Y131746D01*
X-46358Y131212D01*
X-46616Y130589D01*
X-46704Y129921D01*
X-46616Y129253D01*
X-46358Y128631D01*
X-45948Y128096D01*
X-45413Y127686D01*
X-44791Y127428D01*
X-44122Y127340D01*
X-43454Y127428D01*
X-42832Y127686D01*
X-42343Y128061D01*
X-41343Y128127D01*
X-38611Y128670D01*
X-35973Y129566D01*
X-33474Y130798D01*
X-31158Y132345D01*
X-29064Y134182D01*
X-27227Y136276D01*
X-25680Y138593D01*
X-24448Y141091D01*
X-23552Y143729D01*
X-23009Y146461D01*
X-22826Y149241D01*
X-22834D01*
Y177909D01*
X-11135D01*
X-10802Y176727D01*
X-11460Y176325D01*
X-12869Y175121D01*
X-12868Y175120D01*
X-16512Y171476D01*
X-16535Y171479D01*
X-17203Y171391D01*
X-17826Y171133D01*
X-18361Y170723D01*
X-18771Y170188D01*
X-19029Y169566D01*
X-19117Y168898D01*
X-19029Y168230D01*
X-18771Y167607D01*
X-18361Y167072D01*
X-17826Y166662D01*
X-17203Y166404D01*
X-16535Y166316D01*
X-15867Y166404D01*
X-15245Y166662D01*
X-14710Y167072D01*
X-14300Y167607D01*
X-14042Y168230D01*
X-13954Y168898D01*
X-13957Y168921D01*
X-10313Y172565D01*
X-10267Y172635D01*
X-9085Y173605D01*
X-7664Y174364D01*
X-6123Y174832D01*
X-4601Y174981D01*
X-4519Y174965D01*
X35956D01*
X35970Y174946D01*
X36505Y174536D01*
X37127Y174278D01*
X37795Y174190D01*
X38463Y174278D01*
X39086Y174536D01*
X39620Y174946D01*
X40031Y175481D01*
X40288Y176104D01*
X40376Y176772D01*
X41278Y177909D01*
X109637D01*
X109774Y177927D01*
X110899Y177778D01*
X112074Y177292D01*
X112975Y176601D01*
X113058Y176492D01*
X121720Y167830D01*
X122553Y166993D01*
X122553Y166993D01*
X124362Y165448D01*
X126391Y164205D01*
X128590Y163294D01*
X130904Y162738D01*
X133276Y162552D01*
Y162554D01*
X146645D01*
Y162552D01*
X149018Y162738D01*
X151331Y163294D01*
X153530Y164205D01*
X155559Y165448D01*
X157368Y166993D01*
X157367Y166995D01*
X158595Y168224D01*
X158597Y168222D01*
X160143Y170032D01*
X160603Y170782D01*
X161784Y170449D01*
Y165546D01*
X161790Y165502D01*
X161663Y164213D01*
X161274Y162931D01*
X160642Y161749D01*
X159820Y160748D01*
X159785Y160721D01*
X157389Y158325D01*
X157362Y158290D01*
X156361Y157468D01*
X155179Y156836D01*
X153898Y156448D01*
X152608Y156321D01*
X152564Y156326D01*
X143512D01*
Y156340D01*
X141449Y156177D01*
X139436Y155694D01*
X137524Y154902D01*
X135759Y153821D01*
X134185Y152477D01*
X134195Y152467D01*
X109958Y128231D01*
X109454Y127573D01*
X109136Y126806D01*
X109028Y125984D01*
X109136Y125162D01*
X109454Y124396D01*
X109958Y123738D01*
X110616Y123233D01*
X111382Y122916D01*
X112205Y122808D01*
X113027Y122916D01*
X113793Y123233D01*
X114451Y123738D01*
X138688Y147974D01*
X138714Y148009D01*
X139716Y148831D01*
X140897Y149463D01*
X142179Y149852D01*
X143468Y149979D01*
X143512Y149973D01*
X152564D01*
Y149959D01*
X154628Y150122D01*
X156640Y150605D01*
X158553Y151397D01*
X160317Y152479D01*
X161891Y153823D01*
X161882Y153832D01*
X164278Y156228D01*
X164288Y156219D01*
X165632Y157793D01*
X166713Y159558D01*
X167505Y161470D01*
X167989Y163482D01*
X168151Y165546D01*
X168137D01*
Y168624D01*
X169318Y168811D01*
X169611Y167912D01*
X170668Y164158D01*
X171573Y160365D01*
X171950Y158452D01*
X171953Y158444D01*
X171953Y158434D01*
X172201Y157237D01*
X172598Y154824D01*
X172896Y152396D01*
X173096Y149959D01*
X173197Y147516D01*
X173199Y145070D01*
X173101Y142627D01*
X172904Y140189D01*
X172759Y138996D01*
X172125Y134555D01*
X171044Y134077D01*
X167267Y136643D01*
X167261Y136646D01*
X167256Y136651D01*
X166949Y136856D01*
X166937Y136861D01*
X166928Y136870D01*
X166309Y137273D01*
X166293Y137280D01*
X166279Y137292D01*
X165654Y137684D01*
X165637Y137690D01*
X165624Y137702D01*
X164992Y138083D01*
X164979Y138087D01*
X164969Y138096D01*
X164651Y138282D01*
X164643Y138285D01*
X164637Y138290D01*
X164287Y138491D01*
X164276Y138495D01*
X164268Y138502D01*
X163563Y138896D01*
X163549Y138901D01*
X163537Y138910D01*
X162827Y139294D01*
X162812Y139298D01*
X162800Y139308D01*
X162084Y139681D01*
X162073Y139684D01*
X162064Y139691D01*
X161704Y139873D01*
X161698Y139875D01*
X161692Y139879D01*
X161298Y140076D01*
X161288Y140078D01*
X161281Y140084D01*
X160489Y140469D01*
X160476Y140472D01*
X160466Y140480D01*
X159669Y140855D01*
X159656Y140858D01*
X159645Y140866D01*
X158844Y141231D01*
X158834Y141233D01*
X158826Y141238D01*
X158424Y141417D01*
X158414Y141419D01*
X158405Y141426D01*
X157488Y141821D01*
X157473Y141824D01*
X157459Y141833D01*
X155614Y142596D01*
X155594Y142599D01*
X155576Y142611D01*
X153715Y143336D01*
X153695Y143339D01*
X153677Y143350D01*
X151802Y144037D01*
X151768Y144043D01*
X151739Y144059D01*
X150773Y144377D01*
X150752Y144380D01*
X150733Y144390D01*
X150364Y144427D01*
X149996Y144472D01*
X149975Y144466D01*
X149954Y144468D01*
X149598Y144361D01*
X149241Y144262D01*
X149224Y144249D01*
X149204Y144243D01*
X149113Y144194D01*
X149095Y144180D01*
X149073Y144172D01*
X149005Y144135D01*
X148994Y144125D01*
X148979Y144120D01*
X148928Y144090D01*
X148925Y144088D01*
X148922Y144086D01*
X148819Y144026D01*
X148816Y144023D01*
X148811Y144021D01*
X148709Y143961D01*
X148705Y143957D01*
X148700Y143956D01*
X148598Y143895D01*
X148594Y143891D01*
X148588Y143888D01*
X148503Y143837D01*
X148436Y143798D01*
X148376Y143764D01*
X148251Y143697D01*
X148221Y143672D01*
X148183Y143659D01*
X147919Y143425D01*
X147646Y143201D01*
X147627Y143166D01*
X147598Y143140D01*
X147443Y142822D01*
X147276Y142510D01*
X147273Y142471D01*
X147255Y142435D01*
X147108Y141872D01*
X146688Y140784D01*
X146151Y139751D01*
X145501Y138783D01*
X144748Y137894D01*
X143900Y137095D01*
X142969Y136395D01*
X141965Y135803D01*
X141433Y135565D01*
X141398Y135540D01*
X141356Y135529D01*
X141080Y135314D01*
X140795Y135112D01*
X140771Y135075D01*
X140737Y135049D01*
X140564Y134745D01*
X140378Y134449D01*
X140371Y134406D01*
X140349Y134369D01*
X140305Y134021D01*
X140247Y133677D01*
X140257Y133634D01*
X140251Y133591D01*
X140343Y133254D01*
X140421Y132913D01*
X140446Y132878D01*
X140458Y132836D01*
X140672Y132560D01*
X140875Y132275D01*
X140911Y132252D01*
X140938Y132217D01*
X141242Y132044D01*
X141538Y131858D01*
X141580Y131851D01*
X141618Y131829D01*
X142287Y131606D01*
X143609Y131110D01*
X144646Y130677D01*
X144455Y129482D01*
X144453Y129477D01*
X142850Y129351D01*
X140588Y128807D01*
X138439Y127917D01*
X136455Y126702D01*
X134686Y125191D01*
X133176Y123422D01*
X131960Y121438D01*
X131070Y119289D01*
X130527Y117027D01*
X130384Y115208D01*
X145169D01*
Y114208D01*
X130384D01*
X130527Y112389D01*
X130544Y112317D01*
X130052Y111858D01*
X129499Y111610D01*
X127775Y112613D01*
X127621Y112665D01*
X127484Y112752D01*
X125429Y113538D01*
X125309Y113559D01*
X125198Y113611D01*
X124131Y113878D01*
X123851Y113891D01*
X123575Y113936D01*
X123463Y113910D01*
X123348Y113916D01*
X123085Y113821D01*
X122813Y113757D01*
X122720Y113690D01*
X122611Y113651D01*
X122404Y113463D01*
X122177Y113300D01*
X122116Y113202D01*
X122031Y113125D01*
X121912Y112872D01*
X121765Y112634D01*
X121746Y112521D01*
X121697Y112417D01*
X121684Y112137D01*
X121638Y111861D01*
X121765Y108194D01*
X121767Y108185D01*
X121766Y108175D01*
X122052Y101660D01*
X120882Y101381D01*
X119535Y102957D01*
X117745Y104487D01*
X115737Y105717D01*
X113561Y106618D01*
X111272Y107168D01*
X108924Y107353D01*
X106576Y107168D01*
X104287Y106618D01*
X102111Y105717D01*
X100103Y104487D01*
X98312Y102957D01*
X96783Y101167D01*
X96723Y101068D01*
X95542Y101402D01*
X95544Y102330D01*
X95539Y102351D01*
X95543Y102373D01*
X95516Y103776D01*
X95436Y104140D01*
X95363Y104505D01*
X95352Y104522D01*
X95348Y104541D01*
X95135Y104847D01*
X94928Y105156D01*
X94912Y105167D01*
X94900Y105184D01*
X94587Y105385D01*
X94277Y105591D01*
X94258Y105595D01*
X94241Y105606D01*
X93874Y105671D01*
X93509Y105744D01*
X92958D01*
X92578Y105745D01*
X92503Y105747D01*
X92426Y105748D01*
X92347Y105750D01*
X92271Y105753D01*
X92199Y105756D01*
X92132Y105760D01*
X92006Y105769D01*
X92005Y105769D01*
X92004Y105769D01*
X91954Y105773D01*
X91855Y105784D01*
X91756Y105799D01*
X91659Y105818D01*
X91610Y105829D01*
X91601Y105829D01*
X91593Y105833D01*
X91211Y105843D01*
X90828Y105857D01*
X90819Y105854D01*
X90810Y105854D01*
X90453Y105717D01*
X90094Y105584D01*
X90087Y105577D01*
X90079Y105574D01*
X89801Y105311D01*
X89521Y105050D01*
X89517Y105042D01*
X89510Y105035D01*
X89220Y104626D01*
X88559Y103870D01*
X87823Y103187D01*
X87022Y102582D01*
X86162Y102064D01*
X85253Y101636D01*
X84306Y101304D01*
X83322Y101069D01*
X82775Y100993D01*
X82695Y100965D01*
X82610Y100963D01*
X82549Y100949D01*
X82508Y100941D01*
X82467Y100933D01*
X82422Y100926D01*
X82373Y100919D01*
X82324Y100913D01*
X82275Y100908D01*
X82221Y100903D01*
X82163Y100899D01*
X82109Y100895D01*
X82013Y100891D01*
X81954Y100889D01*
X81807Y100885D01*
X81661Y100883D01*
X81513Y100883D01*
X81441Y100883D01*
X81436Y100882D01*
X81430Y100883D01*
X81071Y100884D01*
X80354Y100929D01*
X79640Y101018D01*
X78934Y101151D01*
X78586Y101239D01*
X78378Y101250D01*
X78175Y101298D01*
X77990Y101269D01*
X77804Y101279D01*
X77607Y101209D01*
X77401Y101177D01*
X77242Y101079D01*
X77066Y101016D01*
X76911Y100877D01*
X76733Y100768D01*
X76514Y100566D01*
X76050Y100189D01*
X75563Y99843D01*
X75055Y99529D01*
X74798Y99392D01*
X74388Y99177D01*
X73524Y98810D01*
X72632Y98515D01*
X71711Y98291D01*
X71205Y98207D01*
X71092Y98164D01*
X70971Y98154D01*
X70935Y98143D01*
X70906Y98137D01*
X70878Y98132D01*
X70761Y98111D01*
X70643Y98093D01*
X70525Y98076D01*
X70466Y98068D01*
X70459Y98066D01*
X70452Y98066D01*
X70383Y98056D01*
X70352Y98046D01*
X70320Y98047D01*
X70182Y98023D01*
X70142Y98008D01*
X70099Y98007D01*
X69961Y97978D01*
X69921Y97961D01*
X69878Y97958D01*
X69742Y97923D01*
X69741Y97922D01*
X69349Y97857D01*
X69349D01*
X68849Y97773D01*
X68849Y97773D01*
X67349Y97523D01*
X67297Y97504D01*
X67242Y97502D01*
X66933Y97366D01*
X66617Y97246D01*
X66576Y97208D01*
X66525Y97186D01*
X66292Y96941D01*
X66046Y96710D01*
X66023Y96659D01*
X65985Y96619D01*
X65863Y96304D01*
X65724Y95996D01*
X65722Y95941D01*
X65702Y95889D01*
X55149Y35489D01*
X54946Y34386D01*
X54280Y32227D01*
X53364Y30160D01*
X53246Y29961D01*
X52074Y29814D01*
X43649Y38238D01*
X43660Y38300D01*
X43660Y38300D01*
X43650Y38770D01*
X43461Y39200D01*
X43121Y39525D01*
X42683Y39695D01*
X-27238Y52024D01*
X-27238Y52025D01*
X-27708Y52014D01*
X-28138Y51825D01*
X-28342Y51612D01*
X-45455Y54622D01*
X-45816Y55479D01*
X-47038Y58525D01*
X-48209Y61591D01*
X-49327Y64676D01*
X-49859Y66226D01*
X-51423Y70840D01*
X-54214Y80188D01*
X-56661Y89632D01*
X-58761Y99159D01*
X-59636Y103958D01*
X-59693Y104103D01*
X-59715Y104257D01*
X-61884Y110501D01*
X-61977Y110660D01*
X-62035Y110835D01*
X-62173Y110994D01*
X-62280Y111177D01*
X-62427Y111288D01*
X-62547Y111427D01*
X-62736Y111521D01*
X-62905Y111649D01*
X-63083Y111695D01*
X-63248Y111778D01*
X-66787Y112751D01*
X-67103Y114063D01*
X-67082Y114082D01*
X-66690Y114697D01*
X-66471Y115393D01*
X-66335Y116161D01*
X-69089Y116646D01*
X-71842Y117132D01*
X-71977Y116364D01*
X-72009Y115635D01*
X-71851Y114922D01*
X-72640Y113881D01*
X-93837Y117619D01*
X-94223Y118867D01*
X-93831Y119483D01*
X-93611Y120179D01*
X-93476Y120946D01*
X-96229Y121432D01*
X-98982Y121917D01*
X-99117Y121150D01*
X-99149Y120421D01*
X-98991Y119708D01*
X-98963Y119654D01*
X-99658Y118479D01*
X-104922Y118520D01*
X-105147Y118477D01*
X-105375Y118472D01*
X-106500Y118221D01*
X-106516Y118214D01*
X-106533Y118213D01*
X-108774Y117674D01*
X-108795Y117664D01*
X-108818Y117662D01*
X-111046Y117072D01*
X-111066Y117061D01*
X-111090Y117060D01*
X-113303Y116419D01*
X-113319Y116410D01*
X-113336Y116409D01*
X-114437Y116069D01*
X-114443Y116066D01*
X-114450Y116065D01*
X-115069Y115870D01*
X-115076Y115866D01*
X-115083Y115865D01*
X-116317Y115466D01*
X-116326Y115461D01*
X-116336Y115459D01*
X-117566Y115048D01*
X-117575Y115042D01*
X-117585Y115041D01*
X-118811Y114617D01*
X-118818Y114613D01*
X-118825Y114612D01*
X-119437Y114396D01*
X-119444Y114391D01*
X-119453Y114390D01*
X-120881Y113870D01*
X-120891Y113864D01*
X-120903Y113862D01*
X-123747Y112790D01*
X-123760Y112781D01*
X-123775Y112779D01*
X-126602Y111663D01*
X-126616Y111654D01*
X-126631Y111652D01*
X-129441Y110493D01*
X-129451Y110486D01*
X-129462Y110484D01*
X-130855Y109891D01*
X-136701Y107437D01*
X-137567Y108240D01*
X-135534Y114340D01*
X-135416Y114682D01*
X-135153Y115378D01*
X-134871Y116067D01*
X-134570Y116746D01*
X-134410Y117082D01*
X-134409Y117083D01*
X-134409Y117083D01*
X-134235Y117449D01*
X-133868Y118172D01*
X-133484Y118887D01*
X-133083Y119592D01*
X-132879Y119933D01*
X-132153Y121119D01*
X-130559Y123416D01*
X-128836Y125618D01*
X-126989Y127718D01*
X-126007Y128713D01*
X-125795Y129035D01*
X-125581Y129355D01*
X-125580Y129361D01*
X-125576Y129367D01*
X-125504Y129745D01*
X-125428Y130123D01*
X-125430Y130129D01*
X-125429Y130136D01*
X-125506Y130512D01*
X-125581Y130891D01*
X-125585Y130896D01*
X-125586Y130903D01*
X-125803Y131222D01*
X-126016Y131542D01*
X-126022Y131545D01*
X-126026Y131551D01*
X-126348Y131764D01*
X-126667Y131977D01*
X-126674Y131978D01*
X-126680Y131982D01*
X-127058Y132054D01*
X-127436Y132130D01*
X-130074D01*
X-130080Y132129D01*
X-130086Y132130D01*
X-132127Y132118D01*
X-132152Y132113D01*
X-132177Y132117D01*
X-136258Y131993D01*
X-136291Y131986D01*
X-136324Y131990D01*
X-140399Y131734D01*
X-140432Y131725D01*
X-140465Y131728D01*
X-144530Y131339D01*
X-144554Y131331D01*
X-144579Y131333D01*
X-146606Y131089D01*
X-146612Y131087D01*
X-146618Y131087D01*
X-148378Y130864D01*
X-148410Y130853D01*
X-148444Y130855D01*
X-151946Y130292D01*
X-151989Y130276D01*
X-152034Y130276D01*
X-155508Y129558D01*
X-155550Y129541D01*
X-155595Y129538D01*
X-159034Y128667D01*
X-159075Y128648D01*
X-159120Y128644D01*
X-162517Y127621D01*
X-162557Y127600D01*
X-162602Y127594D01*
X-165950Y126421D01*
X-165989Y126398D01*
X-166034Y126390D01*
X-169327Y125070D01*
X-169365Y125046D01*
X-169409Y125035D01*
X-172640Y123571D01*
X-172668Y123551D01*
X-172700Y123542D01*
X-174291Y122757D01*
X-174315Y122738D01*
X-174344Y122729D01*
X-180104Y119667D01*
X-181037Y120391D01*
X-179507Y126728D01*
X-179253Y127746D01*
X-178603Y129758D01*
X-177820Y131722D01*
X-176905Y133628D01*
X-176384Y134548D01*
X-175856Y135481D01*
X-174703Y137292D01*
X-173458Y139040D01*
X-172124Y140721D01*
X-171414Y141526D01*
X-171414Y141527D01*
X-171413Y141528D01*
X-170693Y142345D01*
X-169193Y143925D01*
X-167633Y145445D01*
X-166017Y146905D01*
X-165184Y147601D01*
X-163595Y148919D01*
X-160282Y151398D01*
X-156849Y153708D01*
X-153306Y155844D01*
X-151483Y156823D01*
X-151312Y156964D01*
X-151120Y157073D01*
X-151013Y157210D01*
X-150879Y157321D01*
X-150775Y157516D01*
X-150639Y157691D01*
X-150593Y157858D01*
X-150511Y158012D01*
X-150490Y158232D01*
X-150431Y158446D01*
X-150452Y158618D01*
X-150435Y158791D01*
X-150500Y159003D01*
X-150527Y159223D01*
X-150613Y159374D01*
X-150664Y159540D01*
X-150805Y159711D01*
X-150914Y159904D01*
X-151051Y160011D01*
X-151162Y160145D01*
X-151357Y160249D01*
X-151532Y160385D01*
X-151700Y160431D01*
X-151853Y160513D01*
X-152074Y160534D01*
X-152287Y160593D01*
X-166824Y161650D01*
X-187390Y163368D01*
X-191161Y163717D01*
X-191769Y164730D01*
X-190299Y168229D01*
X-190299Y168230D01*
X-190299Y168230D01*
X-189880Y169228D01*
X-188936Y171178D01*
X-187891Y173074D01*
X-186745Y174912D01*
X-186125Y175800D01*
X-185521Y176661D01*
X-184239Y178332D01*
X-182885Y179945D01*
X-181462Y181496D01*
X-180726Y182231D01*
X-179708Y183222D01*
X-177574Y185135D01*
X-175362Y186959D01*
X-173077Y188690D01*
X-170723Y190325D01*
X-168303Y191862D01*
X-165822Y193299D01*
X-163284Y194631D01*
X-161989Y195245D01*
X-161952Y195272D01*
X-161908Y195285D01*
X-161639Y195505D01*
X-161360Y195712D01*
X-161336Y195751D01*
X-161301Y195780D01*
X-161136Y196086D01*
X-160958Y196384D01*
X-160951Y196429D01*
X-160929Y196469D01*
X-160894Y196815D01*
X-160843Y197158D01*
X-160854Y197203D01*
X-160850Y197249D01*
X-160949Y197581D01*
X-161034Y197918D01*
X-161061Y197955D01*
X-161075Y197999D01*
X-161294Y198268D01*
X-161501Y198547D01*
X-161540Y198570D01*
X-161569Y198606D01*
X-161875Y198770D01*
X-162173Y198949D01*
X-162218Y198956D01*
X-162259Y198977D01*
X-165023Y199826D01*
X-165031Y199827D01*
X-165038Y199831D01*
X-166629Y200306D01*
X-166636Y200306D01*
X-166642Y200310D01*
X-169831Y201238D01*
X-169841Y201239D01*
X-169849Y201243D01*
X-173047Y202142D01*
X-173056Y202142D01*
X-173064Y202147D01*
X-176270Y203016D01*
X-176277Y203016D01*
X-176284Y203020D01*
X-177889Y203443D01*
X-177903Y203444D01*
X-177915Y203450D01*
X-182120Y204501D01*
X-182493Y205622D01*
X-179767Y208977D01*
X-179447Y209362D01*
X-178753Y210116D01*
X-178022Y210835D01*
X-177255Y211517D01*
X-176856Y211838D01*
X-176854Y211840D01*
X-176852Y211841D01*
X-176349Y212248D01*
X-175315Y213026D01*
X-174255Y213768D01*
X-173169Y214473D01*
X-172615Y214807D01*
X-172614Y214808D01*
X-172612Y214808D01*
X-171933Y215218D01*
X-170556Y216005D01*
X-169161Y216758D01*
X-167748Y217477D01*
X-167038Y217817D01*
X-165187Y218690D01*
X-161422Y220327D01*
X-157609Y221850D01*
X-153752Y223255D01*
X-151803Y223899D01*
X-151528Y224055D01*
X-151242Y224189D01*
X-151189Y224247D01*
X-151121Y224285D01*
X-150927Y224534D01*
X-150714Y224768D01*
X-150688Y224841D01*
X-150640Y224903D01*
X-150555Y225207D01*
X-150448Y225504D01*
X-150452Y225582D01*
X-150431Y225658D01*
X-150470Y225971D01*
X-150484Y226286D01*
X-150517Y226357D01*
X-150527Y226435D01*
X-150682Y226710D01*
X-150817Y226995D01*
X-150874Y227048D01*
X-150913Y227116D01*
X-151162Y227310D01*
X-151395Y227523D01*
X-152207Y228013D01*
X-153810Y229026D01*
X-155394Y230071D01*
X-156955Y231148D01*
X-157725Y231702D01*
X-157733Y231705D01*
X-157739Y231712D01*
X-159188Y232734D01*
X-161983Y234915D01*
X-164672Y237226D01*
X-167248Y239662D01*
X-169705Y242218D01*
X-172037Y244888D01*
X-174240Y247666D01*
X-176308Y250545D01*
X-177268Y252025D01*
X-178011Y253195D01*
X-178765Y254398D01*
X-178765Y254398D01*
X-178765Y254398D01*
X-179536Y255627D01*
X-179538Y255629D01*
X-179539Y255631D01*
X-179736Y255944D01*
X-179740Y255948D01*
X-179741Y255952D01*
X-180140Y256577D01*
X-180144Y256582D01*
X-180146Y256588D01*
X-180549Y257211D01*
X-180553Y257215D01*
X-180555Y257222D01*
X-180962Y257842D01*
X-180965Y257845D01*
X-180967Y257850D01*
X-181171Y258159D01*
X-181172Y258159D01*
X-181172Y258159D01*
X-182685Y260444D01*
X-182690Y260449D01*
X-182692Y260455D01*
X-185747Y265006D01*
X-185753Y265012D01*
X-185756Y265019D01*
X-188848Y269545D01*
X-188854Y269551D01*
X-188857Y269559D01*
X-191986Y274059D01*
X-191991Y274063D01*
X-191993Y274069D01*
X-193572Y276309D01*
X-193575Y276313D01*
X-193577Y276317D01*
X-196361Y280228D01*
X-196367Y280233D01*
X-196370Y280240D01*
X-201993Y288022D01*
X-202000Y288029D01*
X-202005Y288038D01*
X-207702Y295766D01*
X-207709Y295773D01*
X-207713Y295781D01*
X-213484Y303455D01*
X-213490Y303460D01*
X-213493Y303467D01*
X-216405Y307283D01*
X-216407Y307284D01*
X-216408Y307286D01*
X-217761Y309052D01*
X-217764Y309054D01*
X-217765Y309058D01*
X-220485Y312580D01*
X-220489Y312584D01*
X-220491Y312588D01*
X-223229Y316097D01*
X-223233Y316100D01*
X-223235Y316105D01*
X-225990Y319599D01*
X-225993Y319602D01*
X-225995Y319605D01*
X-227379Y321347D01*
X-227388Y321355D01*
X-227394Y321366D01*
X-234773Y330432D01*
X-234460Y331571D01*
X-225901Y334698D01*
X-225897Y334700D01*
X-225893Y334701D01*
X-225608Y334806D01*
X-225036Y335009D01*
X-224461Y335203D01*
X-223883Y335389D01*
X-223592Y335478D01*
X-223588Y335480D01*
X-223583Y335481D01*
X-222842Y335712D01*
X-221351Y336152D01*
X-219854Y336569D01*
X-218352Y336964D01*
X-217600Y337149D01*
X-215421Y337679D01*
X-211028Y338609D01*
X-206608Y339406D01*
X-202166Y340070D01*
X-197707Y340600D01*
X-193233Y340997D01*
X-188750Y341258D01*
X-184261Y341385D01*
X-182016Y341381D01*
X-182013Y341381D01*
X-182011Y341381D01*
X-180052Y341382D01*
X-176137Y341280D01*
X-172225Y341075D01*
X-168321Y340766D01*
X-164425Y340354D01*
X-160542Y339840D01*
X-156674Y339222D01*
X-152824Y338503D01*
X-150917Y338094D01*
X-147934Y337430D01*
X-141997Y335923D01*
X-136106Y334240D01*
X-130268Y332384D01*
X-127408Y331381D01*
X-84254Y314689D01*
X-83385Y314280D01*
X-83272Y314252D01*
X-83170Y314194D01*
X-81217Y313538D01*
X-81063Y313518D01*
X-80918Y313463D01*
X-78887Y313113D01*
X-78732Y313118D01*
X-78580Y313085D01*
X-76520Y313051D01*
X-76405Y313072D01*
X-76289Y313060D01*
X-75263Y313162D01*
X-75055Y313225D01*
X-74841Y313251D01*
X-73403Y313718D01*
X-70499Y314555D01*
X-67569Y315295D01*
X-64615Y315937D01*
X-63141Y316206D01*
X-60370Y316674D01*
X-54765Y317364D01*
X-49134Y317802D01*
X-43489Y317987D01*
X-40665Y317953D01*
X-40660Y317954D01*
X-40656Y317953D01*
X-38569Y317938D01*
X-36456Y317896D01*
X-34306Y317834D01*
X-29880Y317676D01*
X-29844Y317682D01*
X-29809Y317675D01*
X-26615D01*
X-26606Y317677D01*
X-26597Y317675D01*
X-25505Y317685D01*
X-25490Y317688D01*
X-25475Y317686D01*
X-23293Y317738D01*
X-23273Y317743D01*
X-23252Y317740D01*
X-21072Y317837D01*
X-21052Y317842D01*
X-21031Y317839D01*
X-18853Y317980D01*
X-18838Y317984D01*
X-18823Y317982D01*
X-17735Y318069D01*
X-17728Y318071D01*
X-17721Y318071D01*
X-16608Y318167D01*
X-16598Y318170D01*
X-16588Y318169D01*
X-14365Y318385D01*
X-14352Y318389D01*
X-14338Y318388D01*
X-12118Y318633D01*
X-12105Y318637D01*
X-12092Y318636D01*
X-9875Y318911D01*
X-9865Y318914D01*
X-9855Y318913D01*
X-8748Y319062D01*
X-8738Y319065D01*
X-8727Y319065D01*
X-6103Y319445D01*
X-6089Y319450D01*
X-6073Y319450D01*
X-838Y320289D01*
X-819Y320296D01*
X-798Y320295D01*
X4420Y321238D01*
X4439Y321245D01*
X4459Y321245D01*
X9657Y322291D01*
X9672Y322297D01*
X9687Y322297D01*
X12278Y322859D01*
X12300Y322869D01*
X12324Y322869D01*
X14846Y323479D01*
X16043Y321257D01*
X16694Y319954D01*
X15964Y318773D01*
X3851D01*
Y318780D01*
X2050Y318638D01*
X293Y318216D01*
X-1376Y317525D01*
X-2916Y316581D01*
X-4289Y315408D01*
X-5435Y315494D01*
X-6142Y315587D01*
X-7221Y315445D01*
X-8226Y315028D01*
X-9090Y314366D01*
X-9753Y313502D01*
X-10169Y312496D01*
X-10311Y311417D01*
X-10169Y310338D01*
X-9753Y309333D01*
X-9421Y308901D01*
X-9974Y307720D01*
X-84834D01*
X-84935Y307699D01*
X-86360Y307840D01*
X-87828Y308285D01*
X-89180Y309008D01*
X-90287Y309916D01*
X-90344Y310002D01*
X-92140Y311797D01*
X-92135Y311802D01*
X-93692Y313081D01*
X-95470Y314031D01*
X-97398Y314616D01*
X-99404Y314813D01*
Y314813D01*
X-100584Y314815D01*
X-101715Y314926D01*
X-103182Y315371D01*
X-104534Y316094D01*
X-105641Y317003D01*
X-105699Y317089D01*
X-109706Y321096D01*
X-109712Y321141D01*
X-109969Y321763D01*
X-110380Y322298D01*
X-110914Y322708D01*
X-111537Y322966D01*
X-112205Y323054D01*
X-112873Y322966D01*
X-113495Y322708D01*
X-114030Y322298D01*
X-114440Y321763D01*
X-114698Y321141D01*
X-114786Y320472D01*
X-114698Y319804D01*
X-114440Y319182D01*
X-114030Y318647D01*
X-113495Y318237D01*
X-112873Y317979D01*
X-112828Y317973D01*
X-110377Y315523D01*
X-110620Y314095D01*
X-110764Y314004D01*
X-111359Y313354D01*
X-111766Y312573D01*
X-111957Y311713D01*
X-111918Y310832D01*
X-111653Y309992D01*
X-111180Y309249D01*
X-110530Y308653D01*
X-109749Y308247D01*
X-109166Y308118D01*
X-108742Y307409D01*
X-108624Y306885D01*
X-108964Y306232D01*
X-109166Y305321D01*
X-109125Y304389D01*
X-108845Y303499D01*
X-108344Y302713D01*
X-107656Y302082D01*
X-106828Y301652D01*
X-105917Y301449D01*
X-104985Y301490D01*
X-104095Y301771D01*
X-103309Y302272D01*
X-102678Y302960D01*
X-102248Y303787D01*
X-102088Y304506D01*
X-101661Y304832D01*
X-100881Y305102D01*
X-100352Y304826D01*
X-99491Y304636D01*
X-98611Y304674D01*
X-97771Y304939D01*
X-97028Y305413D01*
X-96432Y306062D01*
X-96026Y306844D01*
X-95858Y307600D01*
X-95521Y307806D01*
X-94669Y308082D01*
X-93466Y306880D01*
X-93432Y306857D01*
X-92007Y305639D01*
X-90374Y304639D01*
X-88605Y303906D01*
X-86743Y303459D01*
X-84874Y303312D01*
X-84834Y303304D01*
X-80831D01*
X-80596Y302123D01*
X-81713Y301660D01*
X-83346Y300659D01*
X-84771Y299442D01*
X-84805Y299419D01*
X-88653Y295572D01*
X-88710Y295486D01*
X-89817Y294578D01*
X-91169Y293855D01*
X-92637Y293410D01*
X-94062Y293269D01*
X-94163Y293289D01*
X-109303D01*
X-109339Y293317D01*
X-109962Y293575D01*
X-110630Y293663D01*
X-111298Y293575D01*
X-111679Y293417D01*
X-112555Y293780D01*
X-113292Y294345D01*
X-113335Y294410D01*
X-116399Y297474D01*
X-116404Y297518D01*
X-116662Y298141D01*
X-117072Y298675D01*
X-117607Y299086D01*
X-118230Y299344D01*
X-118898Y299431D01*
X-119566Y299344D01*
X-120188Y299086D01*
X-120723Y298675D01*
X-121133Y298141D01*
X-121391Y297518D01*
X-121479Y296850D01*
X-121391Y296182D01*
X-121133Y295560D01*
X-120723Y295025D01*
X-120188Y294615D01*
X-119566Y294357D01*
X-119521Y294351D01*
X-116457Y291288D01*
X-116434Y291272D01*
X-115207Y290265D01*
X-113783Y289504D01*
X-112237Y289035D01*
X-112156Y289027D01*
X-111920Y288846D01*
X-111298Y288589D01*
X-110630Y288501D01*
X-109962Y288589D01*
X-109339Y288846D01*
X-109303Y288874D01*
X-94163D01*
X-94123Y288882D01*
X-92254Y289029D01*
X-90392Y289476D01*
X-88623Y290209D01*
X-86990Y291209D01*
X-85565Y292427D01*
X-85531Y292449D01*
X-81683Y296297D01*
X-81626Y296383D01*
X-80519Y297291D01*
X-79167Y298014D01*
X-77699Y298459D01*
X-76274Y298599D01*
X-76173Y298579D01*
X-34397D01*
X-34361Y298552D01*
X-33739Y298294D01*
X-33070Y298206D01*
X-32403Y298294D01*
X-31780Y298552D01*
X-31245Y298962D01*
X-30835Y299497D01*
X-30577Y300119D01*
X-30489Y300787D01*
X-30577Y301455D01*
X-30835Y302078D01*
X-30870Y302123D01*
X-30288Y303304D01*
X44067D01*
X44161Y303323D01*
X45243Y303181D01*
X46339Y302727D01*
X47204Y302062D01*
X47258Y301982D01*
X47478Y301762D01*
X47512Y301739D01*
X48938Y300521D01*
X50571Y299521D01*
X52340Y298788D01*
X54202Y298341D01*
X56071Y298194D01*
X56111Y298186D01*
X74204D01*
X74305Y298206D01*
X75730Y298066D01*
X77198Y297621D01*
X78550Y296898D01*
X79394Y296206D01*
X79397Y296182D01*
X79654Y295560D01*
X80065Y295025D01*
X80599Y294615D01*
X81222Y294357D01*
X81890Y294269D01*
X82558Y294357D01*
X83180Y294615D01*
X83715Y295025D01*
X84125Y295560D01*
X84383Y296182D01*
X84471Y296850D01*
X84383Y297518D01*
X84125Y298141D01*
X83715Y298675D01*
X83180Y299086D01*
X82558Y299344D01*
X82439Y299359D01*
X81377Y300266D01*
X79744Y301267D01*
X77975Y301999D01*
X76113Y302446D01*
X74244Y302593D01*
X74204Y302602D01*
X56111D01*
X56010Y302581D01*
X54585Y302722D01*
X53117Y303167D01*
X51765Y303890D01*
X51237Y304322D01*
X50380Y305105D01*
X50380Y305105D01*
X49027Y306215D01*
X47484Y307041D01*
X45809Y307549D01*
X44067Y307720D01*
Y307720D01*
X27811D01*
Y310917D01*
X23858D01*
Y311917D01*
X27811D01*
Y313849D01*
X32230D01*
X78615Y310536D01*
X88226Y309620D01*
X89227Y309525D01*
X89370Y309518D01*
X90510Y309419D01*
X90748Y309396D01*
X92073Y308994D01*
X92846Y308580D01*
X92838Y308518D01*
X92926Y307850D01*
X93184Y307228D01*
X93594Y306693D01*
X94128Y306283D01*
X94751Y306025D01*
X95443Y305179D01*
Y293763D01*
X95175Y293557D01*
X94765Y293023D01*
X94507Y292400D01*
X94419Y291732D01*
X94507Y291064D01*
X94765Y290442D01*
X95175Y289907D01*
X95710Y289497D01*
X96332Y289239D01*
X97000Y289151D01*
X97668Y289239D01*
X98291Y289497D01*
X98825Y289907D01*
X99236Y290442D01*
X99493Y291064D01*
X99581Y291732D01*
X99493Y292400D01*
X99236Y293023D01*
X98825Y293557D01*
X98454Y293842D01*
Y294668D01*
X99213Y295759D01*
X99881Y295847D01*
X100503Y296105D01*
X101038Y296515D01*
X101448Y297050D01*
X101706Y297672D01*
X102938Y297982D01*
X102996Y297906D01*
X103531Y297496D01*
X104153Y297238D01*
X104822Y297150D01*
X105490Y297238D01*
X106112Y297496D01*
X106647Y297906D01*
X107057Y298441D01*
X107315Y299063D01*
X107321Y299108D01*
X122813Y314600D01*
X122844Y314646D01*
X123994Y315994D01*
X124949Y317551D01*
X125647Y319238D01*
X126074Y321014D01*
X126125Y321661D01*
X126365Y321927D01*
X127374Y322484D01*
X127808Y322396D01*
X128687Y322450D01*
X129523Y322729D01*
X130258Y323216D01*
X130842Y323875D01*
X131235Y324664D01*
X131410Y325528D01*
X131357Y326407D01*
X131077Y327243D01*
X130591Y327977D01*
X129931Y328561D01*
X129142Y328954D01*
X128279Y329130D01*
X127399Y329076D01*
X127165Y328998D01*
X126509Y329408D01*
X126251Y330031D01*
X125841Y330565D01*
X125657Y330706D01*
X125612Y331836D01*
X125702Y332090D01*
X125874Y332204D01*
X126458Y332863D01*
X126851Y333652D01*
X127027Y334516D01*
X126973Y335395D01*
X126693Y336231D01*
X126207Y336965D01*
X125547Y337549D01*
X124759Y337942D01*
X123895Y338118D01*
X123016Y338064D01*
X122180Y337785D01*
X121445Y337298D01*
X120861Y336638D01*
X120468Y335850D01*
X120292Y334986D01*
X120346Y334107D01*
X120626Y333271D01*
X121112Y332537D01*
X121772Y331953D01*
X121946Y331866D01*
X122174Y330654D01*
X122137Y330495D01*
X121780Y330031D01*
X121523Y329408D01*
X121435Y328740D01*
X121523Y328072D01*
X121780Y327450D01*
X121808Y327414D01*
Y324989D01*
X121524Y324723D01*
X120627Y324335D01*
X120154Y324571D01*
X119291Y324746D01*
X118411Y324693D01*
X117576Y324413D01*
X117078Y324084D01*
X116274Y324271D01*
X115815Y324550D01*
X115582Y325248D01*
X115175Y325862D01*
X115238Y326396D01*
X115585Y327144D01*
X116151Y327333D01*
X116886Y327820D01*
X117470Y328480D01*
X117863Y329268D01*
X118039Y330132D01*
X117985Y331011D01*
X117705Y331847D01*
X117219Y332582D01*
X116559Y333166D01*
X115771Y333559D01*
X114907Y333734D01*
X114028Y333681D01*
X113968Y333660D01*
X113465Y334738D01*
X114435Y335332D01*
X115809Y336506D01*
X115804Y336510D01*
X121720Y342425D01*
X121720Y342425D01*
X121720Y342425D01*
X122641Y343052D01*
X123174Y343272D01*
X123995Y343381D01*
X124016Y343377D01*
X127354D01*
X127421Y343390D01*
X129015Y343233D01*
X130127Y342896D01*
X130368Y341938D01*
X130378Y341775D01*
X130327Y341562D01*
X129849Y341022D01*
X129456Y340234D01*
X129280Y339370D01*
X129334Y338491D01*
X129614Y337655D01*
X130100Y336920D01*
X130760Y336336D01*
X131549Y335943D01*
X132412Y335768D01*
X133292Y335821D01*
X134127Y336101D01*
X134862Y336587D01*
X135446Y337247D01*
X135508Y337372D01*
X136854Y337866D01*
X137005Y337841D01*
X137498Y337538D01*
X139167Y336847D01*
X140924Y336425D01*
X142725Y336283D01*
Y336290D01*
X147773D01*
Y336286D01*
X149116Y336418D01*
X150408Y336810D01*
X151599Y337446D01*
X152642Y338303D01*
X152642Y338303D01*
X152682Y338340D01*
X153329Y339183D01*
X153354Y339245D01*
X153709Y340101D01*
X153735Y340164D01*
X153873Y341216D01*
X153982Y342352D01*
X154034Y342615D01*
X154548Y343384D01*
X154608Y343424D01*
X154629Y343455D01*
X155403Y344050D01*
X156340Y344438D01*
X157308Y344565D01*
X157345Y344558D01*
X158953D01*
X159198Y344238D01*
X159733Y343828D01*
X160356Y343570D01*
X161024Y343482D01*
X161692Y343570D01*
X162314Y343828D01*
X162849Y344238D01*
X163259Y344772D01*
X163517Y345395D01*
X163605Y346063D01*
X163517Y346731D01*
X163259Y347354D01*
X162849Y347888D01*
X162314Y348298D01*
X161692Y348556D01*
X161024Y348644D01*
X160356Y348556D01*
X159733Y348298D01*
X159198Y347888D01*
X158953Y347568D01*
X157345D01*
Y347572D01*
X156002Y347440D01*
X155094Y347165D01*
X154610Y347385D01*
X154212Y347685D01*
X153971Y347992D01*
X153937Y348546D01*
X153657Y349382D01*
X153171Y350116D01*
X152511Y350700D01*
X151722Y351094D01*
X150859Y351269D01*
X149979Y351215D01*
X149144Y350936D01*
X148409Y350449D01*
X147825Y349790D01*
X147432Y349001D01*
X147256Y348137D01*
X147310Y347258D01*
X147590Y346422D01*
X147919Y345925D01*
X147732Y345121D01*
X147453Y344662D01*
X146755Y344428D01*
X146141Y344022D01*
X145607Y344085D01*
X144859Y344432D01*
X144669Y344998D01*
X144183Y345733D01*
X143523Y346317D01*
X142734Y346710D01*
X141871Y346885D01*
X140991Y346832D01*
X140156Y346552D01*
X139421Y346066D01*
X138837Y345406D01*
X138444Y344617D01*
X138268Y343754D01*
X138322Y342874D01*
X138602Y342039D01*
X138918Y341561D01*
X138098Y340660D01*
X137994Y340716D01*
X136756Y341732D01*
X136718Y341789D01*
X135489Y343017D01*
X135494Y343022D01*
X135444Y343065D01*
X135376Y343330D01*
X135549Y344528D01*
X135683Y344632D01*
X136094Y345166D01*
X136351Y345789D01*
X136357Y345833D01*
X143514Y352990D01*
X143571Y353076D01*
X144678Y353984D01*
X146031Y354707D01*
X147498Y355152D01*
X148923Y355293D01*
X149024Y355273D01*
X159244D01*
X159284Y355280D01*
X161153Y355428D01*
X163015Y355875D01*
X164784Y356607D01*
X166416Y357608D01*
X167842Y358825D01*
X167876Y358848D01*
X188396Y379368D01*
X188453Y379454D01*
X189560Y380362D01*
X190912Y381085D01*
X192380Y381530D01*
X193805Y381671D01*
X193906Y381650D01*
D02*
G37*
G36*
X168110Y288976D02*
Y286614D01*
X168110D01*
X166535Y285039D01*
X160630D01*
X158268Y287402D01*
Y290551D01*
X159449Y291732D01*
X165354D01*
X168110Y288976D01*
D02*
G37*
G36*
X181452Y290561D02*
X183272Y289807D01*
X184910Y288712D01*
X185606Y288016D01*
X185606Y288016D01*
X190551Y283071D01*
X190738Y282884D01*
X191033Y282443D01*
X191235Y281954D01*
X191339Y281435D01*
Y281170D01*
Y281102D01*
Y280789D01*
X191099Y280210D01*
X190656Y279767D01*
X190077Y279528D01*
X185940D01*
X185389Y279637D01*
X184870Y279852D01*
X184403Y280164D01*
X184204Y280363D01*
X184204D01*
X182850Y281717D01*
X182123Y282376D01*
X180493Y283465D01*
X178682Y284215D01*
X176759Y284597D01*
X175779Y284646D01*
X170947D01*
X170368Y284885D01*
X169925Y285328D01*
X169685Y285907D01*
Y286221D01*
Y286614D01*
Y286849D01*
X169865Y287283D01*
X170197Y287615D01*
X170631Y287795D01*
X172441D01*
X172748Y287825D01*
X173316Y288061D01*
X173750Y288495D01*
X173986Y289063D01*
X174016Y289370D01*
Y289683D01*
X174256Y290262D01*
X174698Y290705D01*
X175277Y290945D01*
X179520D01*
X181452Y290561D01*
D02*
G37*
G36*
X178183Y275754D02*
X178183D01*
X178322Y275628D01*
X178631Y275421D01*
X178976Y275279D01*
X179341Y275206D01*
X179528Y275197D01*
X179808D01*
X180359Y275087D01*
X180878Y274872D01*
X181345Y274560D01*
X181544Y274362D01*
X183465Y272441D01*
X183465Y272441D01*
X183558Y272347D01*
X183705Y272127D01*
X183807Y271883D01*
X183858Y271623D01*
Y271491D01*
Y270472D01*
Y269724D01*
X183566Y268254D01*
X182993Y266871D01*
X182161Y265625D01*
X181631Y265096D01*
X175984Y259449D01*
X177165Y276772D01*
X178183Y275754D01*
D02*
G37*
G36*
X160950Y280804D02*
X161815Y280446D01*
X162594Y279926D01*
X162925Y279595D01*
X162925D01*
X173296Y269224D01*
X173495Y269025D01*
X173807Y268558D01*
X174021Y268039D01*
X174131Y267488D01*
Y267208D01*
Y266927D01*
X174021Y266376D01*
X173807Y265857D01*
X173495Y265390D01*
X173296Y265191D01*
X167995Y259890D01*
X167862Y259758D01*
X167551Y259550D01*
X167205Y259407D01*
X166838Y259333D01*
X166338D01*
X165759Y259573D01*
X165316Y260016D01*
X165076Y260595D01*
Y260908D01*
Y266609D01*
X165028Y267589D01*
X164645Y269512D01*
X163895Y271323D01*
X162806Y272953D01*
X162147Y273680D01*
X162147Y273680D01*
X159103Y276724D01*
X158838Y276989D01*
X158422Y277611D01*
X158135Y278303D01*
X157989Y279038D01*
Y279412D01*
Y279726D01*
X158229Y280304D01*
X158672Y280747D01*
X159251Y280987D01*
X160032D01*
X160950Y280804D01*
D02*
G37*
G36*
X938794Y-186079D02*
X938507D01*
Y-186365D01*
X938221D01*
Y-186652D01*
Y-186938D01*
X937935D01*
Y-187224D01*
X937649D01*
Y-187511D01*
X937362D01*
Y-187797D01*
Y-188083D01*
X937076D01*
Y-188370D01*
X936790D01*
Y-188656D01*
X936503D01*
Y-188942D01*
X936217D01*
Y-189229D01*
Y-189515D01*
X935931D01*
Y-189801D01*
X935644D01*
Y-190088D01*
X935358D01*
Y-190374D01*
Y-190660D01*
X935072D01*
Y-190946D01*
X934785D01*
Y-191233D01*
X934499D01*
Y-191519D01*
X934213D01*
Y-191806D01*
Y-192092D01*
X933926D01*
Y-192378D01*
X933640D01*
Y-192664D01*
X933354D01*
Y-192951D01*
Y-193237D01*
X933068D01*
Y-193523D01*
X932781D01*
Y-193810D01*
X932495D01*
Y-194096D01*
Y-194382D01*
X932209D01*
Y-194669D01*
X931922D01*
Y-194955D01*
X931636D01*
Y-195241D01*
X931350D01*
Y-195528D01*
Y-195814D01*
X931063D01*
Y-196100D01*
X930777D01*
Y-196387D01*
X930491D01*
Y-196673D01*
Y-196959D01*
X930204D01*
Y-197245D01*
X929918D01*
Y-197532D01*
X929632D01*
Y-197818D01*
Y-198104D01*
X929346D01*
Y-198391D01*
X929059D01*
Y-198677D01*
X928773D01*
Y-198963D01*
X928487D01*
Y-199250D01*
Y-199536D01*
X928200D01*
Y-199822D01*
X927914D01*
Y-200109D01*
X927628D01*
Y-200395D01*
Y-200681D01*
X927341D01*
Y-200968D01*
X927055D01*
Y-201254D01*
X926769D01*
Y-201540D01*
Y-201826D01*
X926482D01*
Y-202113D01*
X926196D01*
Y-202399D01*
X925910D01*
Y-202685D01*
X925623D01*
Y-202972D01*
Y-203258D01*
X925337D01*
Y-203544D01*
X925051D01*
Y-203831D01*
X924765D01*
Y-204117D01*
Y-204403D01*
X924478D01*
Y-204690D01*
X924192D01*
Y-204976D01*
X923906D01*
Y-205262D01*
X923619D01*
Y-205549D01*
Y-205835D01*
X923906D01*
Y-206121D01*
Y-206407D01*
X924192D01*
Y-206694D01*
Y-206980D01*
X924478D01*
Y-207266D01*
X924765D01*
Y-207553D01*
Y-207839D01*
X925051D01*
Y-208125D01*
Y-208412D01*
X925337D01*
Y-208698D01*
Y-208984D01*
X925623D01*
Y-209271D01*
Y-209557D01*
X925910D01*
Y-209843D01*
Y-210129D01*
X926196D01*
Y-210416D01*
Y-210702D01*
X926482D01*
Y-210988D01*
Y-211275D01*
X926769D01*
Y-211561D01*
Y-211847D01*
X927055D01*
Y-212134D01*
X927341D01*
Y-212420D01*
Y-212706D01*
X927628D01*
Y-212993D01*
Y-213279D01*
X927914D01*
Y-213565D01*
Y-213851D01*
X928200D01*
Y-214138D01*
Y-214424D01*
X928487D01*
Y-214710D01*
Y-214997D01*
X928773D01*
Y-215283D01*
Y-215569D01*
X929059D01*
Y-215856D01*
Y-216142D01*
X929346D01*
Y-216428D01*
X929632D01*
Y-216715D01*
Y-217001D01*
X929918D01*
Y-217287D01*
Y-217574D01*
X930204D01*
Y-217860D01*
Y-218146D01*
X930491D01*
Y-218433D01*
Y-218719D01*
X930777D01*
Y-219005D01*
Y-219291D01*
X931063D01*
Y-219578D01*
Y-219864D01*
X931350D01*
Y-220150D01*
Y-220437D01*
X931636D01*
Y-220723D01*
X931922D01*
Y-221009D01*
Y-221296D01*
X932209D01*
Y-221582D01*
Y-221868D01*
X932495D01*
Y-222155D01*
X917320D01*
Y-221868D01*
X917034D01*
Y-221582D01*
Y-221296D01*
Y-221009D01*
X916748D01*
Y-220723D01*
Y-220437D01*
Y-220150D01*
X916461D01*
Y-219864D01*
Y-219578D01*
X916175D01*
Y-219291D01*
Y-219005D01*
Y-218719D01*
X915889D01*
Y-218433D01*
Y-218146D01*
Y-217860D01*
X915602D01*
Y-217574D01*
Y-217287D01*
X915316D01*
Y-217001D01*
Y-216715D01*
Y-216428D01*
X915030D01*
Y-216142D01*
Y-215856D01*
Y-215569D01*
X914744D01*
Y-215283D01*
Y-214997D01*
Y-214710D01*
X914457D01*
Y-214424D01*
X913885D01*
Y-214710D01*
Y-214997D01*
X913598D01*
Y-215283D01*
X913312D01*
Y-215569D01*
Y-215856D01*
X913026D01*
Y-216142D01*
X912739D01*
Y-216428D01*
Y-216715D01*
X912453D01*
Y-217001D01*
X912167D01*
Y-217287D01*
Y-217574D01*
X911880D01*
Y-217860D01*
X911594D01*
Y-218146D01*
X911308D01*
Y-218433D01*
Y-218719D01*
X911022D01*
Y-219005D01*
X910735D01*
Y-219291D01*
Y-219578D01*
X910449D01*
Y-219864D01*
X910163D01*
Y-220150D01*
Y-220437D01*
X909876D01*
Y-220723D01*
X909590D01*
Y-221009D01*
Y-221296D01*
X909304D01*
Y-221582D01*
X909017D01*
Y-221868D01*
Y-222155D01*
X892984D01*
Y-221868D01*
X893270D01*
Y-221582D01*
X893556D01*
Y-221296D01*
X893843D01*
Y-221009D01*
X894129D01*
Y-220723D01*
Y-220437D01*
X894415D01*
Y-220150D01*
X894702D01*
Y-219864D01*
X894988D01*
Y-219578D01*
X895274D01*
Y-219291D01*
Y-219005D01*
X895561D01*
Y-218719D01*
X895847D01*
Y-218433D01*
X896133D01*
Y-218146D01*
Y-217860D01*
X896420D01*
Y-217574D01*
X896706D01*
Y-217287D01*
X896992D01*
Y-217001D01*
X897278D01*
Y-216715D01*
Y-216428D01*
X897565D01*
Y-216142D01*
X897851D01*
Y-215856D01*
X898137D01*
Y-215569D01*
X898424D01*
Y-215283D01*
Y-214997D01*
X898710D01*
Y-214710D01*
X898996D01*
Y-214424D01*
X899283D01*
Y-214138D01*
Y-213851D01*
X899569D01*
Y-213565D01*
X899855D01*
Y-213279D01*
X900142D01*
Y-212993D01*
X900428D01*
Y-212706D01*
Y-212420D01*
X900714D01*
Y-212134D01*
X901000D01*
Y-211847D01*
X901287D01*
Y-211561D01*
Y-211275D01*
X901573D01*
Y-210988D01*
X901859D01*
Y-210702D01*
X902146D01*
Y-210416D01*
X902432D01*
Y-210129D01*
Y-209843D01*
X902718D01*
Y-209557D01*
X903005D01*
Y-209271D01*
X903291D01*
Y-208984D01*
Y-208698D01*
X903577D01*
Y-208412D01*
X903864D01*
Y-208125D01*
X904150D01*
Y-207839D01*
X904436D01*
Y-207553D01*
Y-207266D01*
X904723D01*
Y-206980D01*
X905009D01*
Y-206694D01*
X905295D01*
Y-206407D01*
X905581D01*
Y-206121D01*
Y-205835D01*
X905868D01*
Y-205549D01*
X906154D01*
Y-205262D01*
X906441D01*
Y-204976D01*
Y-204690D01*
X906727D01*
Y-204403D01*
X907013D01*
Y-204117D01*
X907299D01*
Y-203831D01*
X907586D01*
Y-203544D01*
Y-203258D01*
X907872D01*
Y-202972D01*
Y-202685D01*
Y-202399D01*
X907586D01*
Y-202113D01*
X907299D01*
Y-201826D01*
Y-201540D01*
X907013D01*
Y-201254D01*
Y-200968D01*
X906727D01*
Y-200681D01*
Y-200395D01*
X906441D01*
Y-200109D01*
Y-199822D01*
X906154D01*
Y-199536D01*
Y-199250D01*
X905868D01*
Y-198963D01*
Y-198677D01*
X905581D01*
Y-198391D01*
X905295D01*
Y-198104D01*
Y-197818D01*
X905009D01*
Y-197532D01*
Y-197245D01*
X904723D01*
Y-196959D01*
Y-196673D01*
X904436D01*
Y-196387D01*
Y-196100D01*
X904150D01*
Y-195814D01*
Y-195528D01*
X903864D01*
Y-195241D01*
Y-194955D01*
X903577D01*
Y-194669D01*
X903291D01*
Y-194382D01*
Y-194096D01*
X903005D01*
Y-193810D01*
Y-193523D01*
X902718D01*
Y-193237D01*
Y-192951D01*
X902432D01*
Y-192664D01*
Y-192378D01*
X902146D01*
Y-192092D01*
Y-191806D01*
X901859D01*
Y-191519D01*
Y-191233D01*
X901573D01*
Y-190946D01*
Y-190660D01*
X901287D01*
Y-190374D01*
X901000D01*
Y-190088D01*
Y-189801D01*
X900714D01*
Y-189515D01*
Y-189229D01*
X900428D01*
Y-188942D01*
Y-188656D01*
X900142D01*
Y-188370D01*
Y-188083D01*
X899855D01*
Y-187797D01*
Y-187511D01*
X899569D01*
Y-187224D01*
Y-186938D01*
X899283D01*
Y-186652D01*
X898996D01*
Y-186365D01*
Y-186079D01*
X898710D01*
Y-185793D01*
X914457D01*
Y-186079D01*
X914744D01*
Y-186365D01*
Y-186652D01*
Y-186938D01*
X915030D01*
Y-187224D01*
Y-187511D01*
Y-187797D01*
X915316D01*
Y-188083D01*
Y-188370D01*
Y-188656D01*
X915602D01*
Y-188942D01*
Y-189229D01*
Y-189515D01*
X915889D01*
Y-189801D01*
Y-190088D01*
Y-190374D01*
X916175D01*
Y-190660D01*
Y-190946D01*
Y-191233D01*
X916461D01*
Y-191519D01*
Y-191806D01*
Y-192092D01*
X916748D01*
Y-192378D01*
Y-192664D01*
Y-192951D01*
X917034D01*
Y-193237D01*
Y-193523D01*
Y-193810D01*
Y-194096D01*
X917607D01*
Y-193810D01*
X917893D01*
Y-193523D01*
X918179D01*
Y-193237D01*
Y-192951D01*
X918466D01*
Y-192664D01*
X918752D01*
Y-192378D01*
Y-192092D01*
X919038D01*
Y-191806D01*
X919324D01*
Y-191519D01*
Y-191233D01*
X919611D01*
Y-190946D01*
X919897D01*
Y-190660D01*
Y-190374D01*
X920183D01*
Y-190088D01*
X920470D01*
Y-189801D01*
Y-189515D01*
X920756D01*
Y-189229D01*
X921042D01*
Y-188942D01*
Y-188656D01*
X921329D01*
Y-188370D01*
X921615D01*
Y-188083D01*
Y-187797D01*
X921901D01*
Y-187511D01*
X922188D01*
Y-187224D01*
Y-186938D01*
X922474D01*
Y-186652D01*
X922760D01*
Y-186365D01*
Y-186079D01*
X923047D01*
Y-185793D01*
X938794D01*
Y-186079D01*
D02*
G37*
G36*
X805658Y-172050D02*
X807376D01*
Y-172336D01*
X808235D01*
Y-172623D01*
X809094D01*
Y-172909D01*
X809953D01*
Y-173195D01*
X810526D01*
Y-173481D01*
X810812D01*
Y-173768D01*
X811385D01*
Y-174054D01*
X811671D01*
Y-174340D01*
X812243D01*
Y-174627D01*
X812530D01*
Y-174913D01*
X812816D01*
Y-175199D01*
X813103D01*
Y-175486D01*
X813389D01*
Y-175772D01*
X813675D01*
Y-176058D01*
X813961D01*
Y-176345D01*
Y-176631D01*
X814248D01*
Y-176917D01*
X814534D01*
Y-177204D01*
Y-177490D01*
X814820D01*
Y-177776D01*
X815107D01*
Y-178062D01*
Y-178349D01*
X815393D01*
Y-178635D01*
Y-178921D01*
Y-179208D01*
X815679D01*
Y-179494D01*
Y-179780D01*
Y-180067D01*
X815966D01*
Y-180353D01*
Y-180639D01*
Y-180926D01*
Y-181212D01*
X816252D01*
Y-181498D01*
Y-181784D01*
Y-182071D01*
Y-182357D01*
Y-182643D01*
X816538D01*
Y-182930D01*
Y-183216D01*
Y-183502D01*
Y-183789D01*
Y-184075D01*
Y-184361D01*
Y-184648D01*
Y-184934D01*
Y-185220D01*
Y-185507D01*
Y-185793D01*
Y-186079D01*
Y-186365D01*
Y-186652D01*
Y-186938D01*
Y-187224D01*
Y-187511D01*
Y-187797D01*
Y-188083D01*
Y-188370D01*
X816252D01*
Y-188656D01*
Y-188942D01*
Y-189229D01*
Y-189515D01*
Y-189801D01*
Y-190088D01*
Y-190374D01*
X815966D01*
Y-190660D01*
Y-190946D01*
Y-191233D01*
Y-191519D01*
Y-191806D01*
X815679D01*
Y-192092D01*
Y-192378D01*
Y-192664D01*
Y-192951D01*
Y-193237D01*
X815393D01*
Y-193523D01*
Y-193810D01*
Y-194096D01*
X815107D01*
Y-194382D01*
Y-194669D01*
Y-194955D01*
Y-195241D01*
X814820D01*
Y-195528D01*
Y-195814D01*
Y-196100D01*
X814534D01*
Y-196387D01*
Y-196673D01*
X814248D01*
Y-196959D01*
Y-197245D01*
Y-197532D01*
X813961D01*
Y-197818D01*
Y-198104D01*
X813675D01*
Y-198391D01*
Y-198677D01*
X813389D01*
Y-198963D01*
Y-199250D01*
X813103D01*
Y-199536D01*
X812816D01*
Y-199822D01*
Y-200109D01*
X812530D01*
Y-200395D01*
X812243D01*
Y-200681D01*
X811957D01*
Y-200968D01*
Y-201254D01*
X811671D01*
Y-201540D01*
X811385D01*
Y-201826D01*
X811098D01*
Y-202113D01*
X810812D01*
Y-202399D01*
X810526D01*
Y-202685D01*
X809953D01*
Y-202972D01*
X809667D01*
Y-203258D01*
X809094D01*
Y-203544D01*
X808808D01*
Y-203831D01*
X808235D01*
Y-204117D01*
X807376D01*
Y-204403D01*
X806517D01*
Y-204690D01*
X805658D01*
Y-204976D01*
X803940D01*
Y-205262D01*
X798787D01*
Y-204976D01*
X796210D01*
Y-204690D01*
X794206D01*
Y-204403D01*
X792774D01*
Y-204117D01*
X791343D01*
Y-203831D01*
X789911D01*
Y-204117D01*
Y-204403D01*
Y-204690D01*
Y-204976D01*
Y-205262D01*
Y-205549D01*
Y-205835D01*
X789625D01*
Y-206121D01*
Y-206407D01*
Y-206694D01*
Y-206980D01*
Y-207266D01*
Y-207553D01*
X789338D01*
Y-207839D01*
Y-208125D01*
Y-208412D01*
Y-208698D01*
Y-208984D01*
Y-209271D01*
X789052D01*
Y-209557D01*
Y-209843D01*
Y-210129D01*
Y-210416D01*
Y-210702D01*
Y-210988D01*
Y-211275D01*
X788766D01*
Y-211561D01*
Y-211847D01*
Y-212134D01*
Y-212420D01*
Y-212706D01*
Y-212993D01*
X788480D01*
Y-213279D01*
Y-213565D01*
Y-213851D01*
Y-214138D01*
Y-214424D01*
Y-214710D01*
X788193D01*
Y-214997D01*
Y-215283D01*
Y-215569D01*
Y-215856D01*
Y-216142D01*
Y-216428D01*
Y-216715D01*
X787907D01*
Y-217001D01*
Y-217287D01*
Y-217574D01*
Y-217860D01*
Y-218146D01*
Y-218433D01*
X787621D01*
Y-218719D01*
Y-219005D01*
Y-219291D01*
Y-219578D01*
Y-219864D01*
Y-220150D01*
X787334D01*
Y-220437D01*
Y-220723D01*
Y-221009D01*
Y-221296D01*
Y-221582D01*
Y-221868D01*
Y-222155D01*
X773878D01*
Y-221868D01*
X774164D01*
Y-221582D01*
Y-221296D01*
Y-221009D01*
Y-220723D01*
Y-220437D01*
X774450D01*
Y-220150D01*
Y-219864D01*
Y-219578D01*
Y-219291D01*
Y-219005D01*
Y-218719D01*
Y-218433D01*
X774737D01*
Y-218146D01*
Y-217860D01*
Y-217574D01*
Y-217287D01*
Y-217001D01*
Y-216715D01*
X775023D01*
Y-216428D01*
Y-216142D01*
Y-215856D01*
Y-215569D01*
Y-215283D01*
Y-214997D01*
X775309D01*
Y-214710D01*
Y-214424D01*
Y-214138D01*
Y-213851D01*
Y-213565D01*
Y-213279D01*
Y-212993D01*
X775596D01*
Y-212706D01*
Y-212420D01*
Y-212134D01*
Y-211847D01*
Y-211561D01*
Y-211275D01*
X775882D01*
Y-210988D01*
Y-210702D01*
Y-210416D01*
Y-210129D01*
Y-209843D01*
Y-209557D01*
X776168D01*
Y-209271D01*
Y-208984D01*
Y-208698D01*
Y-208412D01*
Y-208125D01*
Y-207839D01*
X776454D01*
Y-207553D01*
Y-207266D01*
Y-206980D01*
Y-206694D01*
Y-206407D01*
Y-206121D01*
Y-205835D01*
X776741D01*
Y-205549D01*
Y-205262D01*
Y-204976D01*
Y-204690D01*
Y-204403D01*
Y-204117D01*
X777027D01*
Y-203831D01*
Y-203544D01*
Y-203258D01*
Y-202972D01*
Y-202685D01*
Y-202399D01*
X777313D01*
Y-202113D01*
Y-201826D01*
Y-201540D01*
Y-201254D01*
Y-200968D01*
Y-200681D01*
X777600D01*
Y-200395D01*
Y-200109D01*
Y-199822D01*
Y-199536D01*
Y-199250D01*
Y-198963D01*
Y-198677D01*
X777886D01*
Y-198391D01*
Y-198104D01*
Y-197818D01*
Y-197532D01*
Y-197245D01*
Y-196959D01*
X778172D01*
Y-196673D01*
Y-196387D01*
Y-196100D01*
Y-195814D01*
Y-195528D01*
Y-195241D01*
X778459D01*
Y-194955D01*
Y-194669D01*
Y-194382D01*
Y-194096D01*
Y-193810D01*
Y-193523D01*
Y-193237D01*
X778745D01*
Y-192951D01*
Y-192664D01*
Y-192378D01*
Y-192092D01*
Y-191806D01*
Y-191519D01*
X779031D01*
Y-191233D01*
Y-190946D01*
Y-190660D01*
Y-190374D01*
Y-190088D01*
Y-189801D01*
X779318D01*
Y-189515D01*
Y-189229D01*
Y-188942D01*
Y-188656D01*
Y-188370D01*
Y-188083D01*
X779604D01*
Y-187797D01*
Y-187511D01*
Y-187224D01*
Y-186938D01*
Y-186652D01*
Y-186365D01*
Y-186079D01*
X779890D01*
Y-185793D01*
Y-185507D01*
Y-185220D01*
Y-184934D01*
Y-184648D01*
Y-184361D01*
X780176D01*
Y-184075D01*
Y-183789D01*
Y-183502D01*
Y-183216D01*
Y-182930D01*
Y-182643D01*
X780463D01*
Y-182357D01*
Y-182071D01*
Y-181784D01*
Y-181498D01*
Y-181212D01*
Y-180926D01*
Y-180639D01*
X780749D01*
Y-180353D01*
Y-180067D01*
Y-179780D01*
Y-179494D01*
Y-179208D01*
Y-178921D01*
X781035D01*
Y-178635D01*
Y-178349D01*
Y-178062D01*
Y-177776D01*
Y-177490D01*
Y-177204D01*
X781322D01*
Y-176917D01*
Y-176631D01*
Y-176345D01*
Y-176058D01*
Y-175772D01*
Y-175486D01*
Y-175199D01*
X781608D01*
Y-174913D01*
Y-174627D01*
Y-174340D01*
Y-174054D01*
Y-173768D01*
Y-173481D01*
X781894D01*
Y-173195D01*
Y-172909D01*
Y-172623D01*
Y-172336D01*
Y-172050D01*
Y-171764D01*
X805658D01*
Y-172050D01*
D02*
G37*
G36*
X894702Y-186079D02*
Y-186365D01*
Y-186652D01*
Y-186938D01*
Y-187224D01*
Y-187511D01*
Y-187797D01*
Y-188083D01*
Y-188370D01*
Y-188656D01*
Y-188942D01*
Y-189229D01*
Y-189515D01*
Y-189801D01*
Y-190088D01*
Y-190374D01*
Y-190660D01*
Y-190946D01*
Y-191233D01*
Y-191519D01*
Y-191806D01*
X894415D01*
Y-192092D01*
Y-192378D01*
Y-192664D01*
Y-192951D01*
Y-193237D01*
X894129D01*
Y-193523D01*
Y-193810D01*
Y-194096D01*
Y-194382D01*
X893843D01*
Y-194669D01*
Y-194955D01*
Y-195241D01*
Y-195528D01*
X893556D01*
Y-195814D01*
Y-196100D01*
Y-196387D01*
X893270D01*
Y-196673D01*
Y-196959D01*
Y-197245D01*
X892984D01*
Y-197532D01*
Y-197818D01*
Y-198104D01*
X892698D01*
Y-198391D01*
Y-198677D01*
Y-198963D01*
X892411D01*
Y-199250D01*
Y-199536D01*
X892125D01*
Y-199822D01*
Y-200109D01*
X891838D01*
Y-200395D01*
Y-200681D01*
Y-200968D01*
X891552D01*
Y-201254D01*
Y-201540D01*
X891266D01*
Y-201826D01*
Y-202113D01*
Y-202399D01*
X890980D01*
Y-202685D01*
Y-202972D01*
X890693D01*
Y-203258D01*
Y-203544D01*
Y-203831D01*
X890407D01*
Y-204117D01*
Y-204403D01*
X890121D01*
Y-204690D01*
Y-204976D01*
Y-205262D01*
X889834D01*
Y-205549D01*
Y-205835D01*
X889548D01*
Y-206121D01*
Y-206407D01*
Y-206694D01*
X889262D01*
Y-206980D01*
Y-207266D01*
X888975D01*
Y-207553D01*
Y-207839D01*
Y-208125D01*
X888689D01*
Y-208412D01*
Y-208698D01*
X888403D01*
Y-208984D01*
Y-209271D01*
Y-209557D01*
X888116D01*
Y-209843D01*
Y-210129D01*
X887830D01*
Y-210416D01*
Y-210702D01*
Y-210988D01*
X887544D01*
Y-211275D01*
Y-211561D01*
X887257D01*
Y-211847D01*
Y-212134D01*
Y-212420D01*
X886971D01*
Y-212706D01*
Y-212993D01*
X886685D01*
Y-213279D01*
Y-213565D01*
Y-213851D01*
X886399D01*
Y-214138D01*
Y-214424D01*
X886112D01*
Y-214710D01*
Y-214997D01*
Y-215283D01*
X885826D01*
Y-215569D01*
Y-215856D01*
X885540D01*
Y-216142D01*
Y-216428D01*
Y-216715D01*
X885253D01*
Y-217001D01*
Y-217287D01*
X884967D01*
Y-217574D01*
Y-217860D01*
Y-218146D01*
X884681D01*
Y-218433D01*
Y-218719D01*
X884394D01*
Y-219005D01*
Y-219291D01*
Y-219578D01*
X884108D01*
Y-219864D01*
Y-220150D01*
X883822D01*
Y-220437D01*
Y-220723D01*
Y-221009D01*
X883535D01*
Y-221296D01*
Y-221582D01*
X883249D01*
Y-221868D01*
Y-222155D01*
Y-222441D01*
X882963D01*
Y-222727D01*
Y-223014D01*
X882677D01*
Y-223300D01*
Y-223586D01*
X882390D01*
Y-223872D01*
Y-224159D01*
X882104D01*
Y-224445D01*
Y-224731D01*
Y-225018D01*
X881818D01*
Y-225304D01*
X881531D01*
Y-225590D01*
Y-225877D01*
Y-226163D01*
X881245D01*
Y-226449D01*
X880959D01*
Y-226736D01*
Y-227022D01*
X880672D01*
Y-227308D01*
Y-227595D01*
X880386D01*
Y-227881D01*
Y-228167D01*
X880100D01*
Y-228453D01*
Y-228740D01*
X879813D01*
Y-229026D01*
X879527D01*
Y-229312D01*
Y-229599D01*
X879241D01*
Y-229885D01*
Y-230171D01*
X878954D01*
Y-230458D01*
X878668D01*
Y-230744D01*
X878382D01*
Y-231030D01*
Y-231317D01*
X878096D01*
Y-231603D01*
X877809D01*
Y-231889D01*
Y-232176D01*
X877523D01*
Y-232462D01*
X877237D01*
Y-232748D01*
X876950D01*
Y-233034D01*
Y-233321D01*
X876664D01*
Y-233607D01*
X876378D01*
Y-233893D01*
X876091D01*
Y-234180D01*
X875805D01*
Y-234466D01*
X875519D01*
Y-234752D01*
Y-235039D01*
X875232D01*
Y-235325D01*
X874946D01*
Y-235611D01*
X874660D01*
Y-235898D01*
X874373D01*
Y-236184D01*
X874087D01*
Y-236470D01*
X873801D01*
Y-236757D01*
X873514D01*
Y-237043D01*
X872942D01*
Y-237329D01*
X872656D01*
Y-237615D01*
X872369D01*
Y-237902D01*
X872083D01*
Y-238188D01*
X871797D01*
Y-238474D01*
X871224D01*
Y-238761D01*
X870938D01*
Y-239047D01*
X870365D01*
Y-239333D01*
X870079D01*
Y-239620D01*
X869506D01*
Y-239906D01*
X869220D01*
Y-240192D01*
X868647D01*
Y-240479D01*
X868075D01*
Y-240765D01*
X867502D01*
Y-241051D01*
X866929D01*
Y-241338D01*
X866357D01*
Y-241624D01*
X865498D01*
Y-241910D01*
X864925D01*
Y-242196D01*
X864066D01*
Y-242483D01*
X862921D01*
Y-242769D01*
X861776D01*
Y-243056D01*
X860058D01*
Y-243342D01*
X858054D01*
Y-243628D01*
X857767D01*
Y-243342D01*
Y-243056D01*
Y-242769D01*
Y-242483D01*
Y-242196D01*
Y-241910D01*
Y-241624D01*
Y-241338D01*
Y-241051D01*
Y-240765D01*
Y-240479D01*
Y-240192D01*
Y-239906D01*
Y-239620D01*
Y-239333D01*
Y-239047D01*
Y-238761D01*
Y-238474D01*
Y-238188D01*
Y-237902D01*
Y-237615D01*
Y-237329D01*
Y-237043D01*
Y-236757D01*
Y-236470D01*
Y-236184D01*
Y-235898D01*
Y-235611D01*
Y-235325D01*
Y-235039D01*
Y-234752D01*
Y-234466D01*
Y-234180D01*
X858340D01*
Y-233893D01*
X858912D01*
Y-233607D01*
X859485D01*
Y-233321D01*
X860058D01*
Y-233034D01*
X860630D01*
Y-232748D01*
X861203D01*
Y-232462D01*
X861489D01*
Y-232176D01*
X862062D01*
Y-231889D01*
X862348D01*
Y-231603D01*
X862921D01*
Y-231317D01*
X863207D01*
Y-231030D01*
X863494D01*
Y-230744D01*
X864066D01*
Y-230458D01*
X864353D01*
Y-230171D01*
X864639D01*
Y-229885D01*
X864925D01*
Y-229599D01*
X865211D01*
Y-229312D01*
X865498D01*
Y-229026D01*
X865784D01*
Y-228740D01*
X866070D01*
Y-228453D01*
X866357D01*
Y-228167D01*
X866643D01*
Y-227881D01*
X866929D01*
Y-227595D01*
X867216D01*
Y-227308D01*
Y-227022D01*
X867502D01*
Y-226736D01*
X867788D01*
Y-226449D01*
X868075D01*
Y-226163D01*
Y-225877D01*
X868361D01*
Y-225590D01*
X868647D01*
Y-225304D01*
Y-225018D01*
X868933D01*
Y-224731D01*
Y-224445D01*
X869220D01*
Y-224159D01*
X869506D01*
Y-223872D01*
Y-223586D01*
X869792D01*
Y-223300D01*
Y-223014D01*
X870079D01*
Y-222727D01*
Y-222441D01*
X868361D01*
Y-222155D01*
X866357D01*
Y-221868D01*
X865211D01*
Y-221582D01*
X864639D01*
Y-221296D01*
X863780D01*
Y-221009D01*
X863207D01*
Y-220723D01*
X862921D01*
Y-220437D01*
X862348D01*
Y-220150D01*
X862062D01*
Y-219864D01*
X861776D01*
Y-219578D01*
X861489D01*
Y-219291D01*
X861203D01*
Y-219005D01*
X860917D01*
Y-218719D01*
Y-218433D01*
X860630D01*
Y-218146D01*
X860344D01*
Y-217860D01*
Y-217574D01*
X860058D01*
Y-217287D01*
Y-217001D01*
X859772D01*
Y-216715D01*
Y-216428D01*
X859485D01*
Y-216142D01*
Y-215856D01*
Y-215569D01*
X859199D01*
Y-215283D01*
Y-214997D01*
Y-214710D01*
Y-214424D01*
X858912D01*
Y-214138D01*
Y-213851D01*
Y-213565D01*
Y-213279D01*
Y-212993D01*
Y-212706D01*
Y-212420D01*
X858626D01*
Y-212134D01*
Y-211847D01*
Y-211561D01*
Y-211275D01*
Y-210988D01*
Y-210702D01*
Y-210416D01*
Y-210129D01*
Y-209843D01*
Y-209557D01*
Y-209271D01*
Y-208984D01*
Y-208698D01*
Y-208412D01*
Y-208125D01*
X858340D01*
Y-207839D01*
Y-207553D01*
Y-207266D01*
Y-206980D01*
Y-206694D01*
Y-206407D01*
Y-206121D01*
Y-205835D01*
Y-205549D01*
Y-205262D01*
Y-204976D01*
Y-204690D01*
Y-204403D01*
Y-204117D01*
Y-203831D01*
X858054D01*
Y-203544D01*
Y-203258D01*
Y-202972D01*
Y-202685D01*
Y-202399D01*
Y-202113D01*
Y-201826D01*
Y-201540D01*
Y-201254D01*
Y-200968D01*
Y-200681D01*
Y-200395D01*
Y-200109D01*
Y-199822D01*
Y-199536D01*
Y-199250D01*
X857767D01*
Y-198963D01*
Y-198677D01*
Y-198391D01*
Y-198104D01*
Y-197818D01*
Y-197532D01*
Y-197245D01*
Y-196959D01*
Y-196673D01*
Y-196387D01*
Y-196100D01*
Y-195814D01*
Y-195528D01*
Y-195241D01*
Y-194955D01*
Y-194669D01*
X857481D01*
Y-194382D01*
Y-194096D01*
Y-193810D01*
Y-193523D01*
Y-193237D01*
Y-192951D01*
Y-192664D01*
Y-192378D01*
Y-192092D01*
Y-191806D01*
Y-191519D01*
Y-191233D01*
Y-190946D01*
Y-190660D01*
X857195D01*
Y-190374D01*
Y-190088D01*
Y-189801D01*
Y-189515D01*
Y-189229D01*
Y-188942D01*
Y-188656D01*
Y-188370D01*
Y-188083D01*
Y-187797D01*
Y-187511D01*
Y-187224D01*
Y-186938D01*
Y-186652D01*
Y-186365D01*
Y-186079D01*
X856908D01*
Y-185793D01*
X870651D01*
Y-186079D01*
Y-186365D01*
Y-186652D01*
Y-186938D01*
Y-187224D01*
Y-187511D01*
Y-187797D01*
Y-188083D01*
Y-188370D01*
Y-188656D01*
Y-188942D01*
Y-189229D01*
Y-189515D01*
Y-189801D01*
X870938D01*
Y-190088D01*
Y-190374D01*
Y-190660D01*
Y-190946D01*
Y-191233D01*
Y-191519D01*
Y-191806D01*
Y-192092D01*
Y-192378D01*
Y-192664D01*
Y-192951D01*
Y-193237D01*
Y-193523D01*
Y-193810D01*
Y-194096D01*
Y-194382D01*
Y-194669D01*
Y-194955D01*
Y-195241D01*
Y-195528D01*
Y-195814D01*
Y-196100D01*
Y-196387D01*
Y-196673D01*
Y-196959D01*
Y-197245D01*
Y-197532D01*
Y-197818D01*
Y-198104D01*
Y-198391D01*
Y-198677D01*
Y-198963D01*
Y-199250D01*
Y-199536D01*
Y-199822D01*
Y-200109D01*
Y-200395D01*
Y-200681D01*
Y-200968D01*
Y-201254D01*
Y-201540D01*
X871224D01*
Y-201826D01*
X870938D01*
Y-202113D01*
Y-202399D01*
X871224D01*
Y-202685D01*
Y-202972D01*
Y-203258D01*
Y-203544D01*
Y-203831D01*
Y-204117D01*
Y-204403D01*
Y-204690D01*
Y-204976D01*
Y-205262D01*
Y-205549D01*
Y-205835D01*
Y-206121D01*
Y-206407D01*
Y-206694D01*
Y-206980D01*
Y-207266D01*
Y-207553D01*
Y-207839D01*
Y-208125D01*
Y-208412D01*
Y-208698D01*
Y-208984D01*
Y-209271D01*
Y-209557D01*
Y-209843D01*
X871510D01*
Y-210129D01*
Y-210416D01*
Y-210702D01*
X871797D01*
Y-210988D01*
X872083D01*
Y-211275D01*
X872369D01*
Y-211561D01*
X873228D01*
Y-211847D01*
X874087D01*
Y-211561D01*
X874373D01*
Y-211275D01*
Y-210988D01*
Y-210702D01*
X874660D01*
Y-210416D01*
Y-210129D01*
X874946D01*
Y-209843D01*
Y-209557D01*
Y-209271D01*
X875232D01*
Y-208984D01*
Y-208698D01*
Y-208412D01*
X875519D01*
Y-208125D01*
Y-207839D01*
Y-207553D01*
X875805D01*
Y-207266D01*
Y-206980D01*
Y-206694D01*
X876091D01*
Y-206407D01*
Y-206121D01*
X876378D01*
Y-205835D01*
Y-205549D01*
Y-205262D01*
X876664D01*
Y-204976D01*
Y-204690D01*
Y-204403D01*
X876950D01*
Y-204117D01*
Y-203831D01*
Y-203544D01*
X877237D01*
Y-203258D01*
Y-202972D01*
X877523D01*
Y-202685D01*
Y-202399D01*
Y-202113D01*
X877809D01*
Y-201826D01*
Y-201540D01*
Y-201254D01*
X878096D01*
Y-200968D01*
Y-200681D01*
Y-200395D01*
X878382D01*
Y-200109D01*
Y-199822D01*
X878668D01*
Y-199536D01*
Y-199250D01*
Y-198963D01*
X878954D01*
Y-198677D01*
Y-198391D01*
Y-198104D01*
X879241D01*
Y-197818D01*
Y-197532D01*
Y-197245D01*
X879527D01*
Y-196959D01*
Y-196673D01*
X879813D01*
Y-196387D01*
Y-196100D01*
Y-195814D01*
X880100D01*
Y-195528D01*
Y-195241D01*
Y-194955D01*
X880386D01*
Y-194669D01*
Y-194382D01*
Y-194096D01*
X880672D01*
Y-193810D01*
Y-193523D01*
Y-193237D01*
Y-192951D01*
X880959D01*
Y-192664D01*
Y-192378D01*
Y-192092D01*
Y-191806D01*
X881245D01*
Y-191519D01*
Y-191233D01*
Y-190946D01*
Y-190660D01*
Y-190374D01*
X881531D01*
Y-190088D01*
Y-189801D01*
Y-189515D01*
Y-189229D01*
Y-188942D01*
Y-188656D01*
X881818D01*
Y-188370D01*
Y-188083D01*
Y-187797D01*
Y-187511D01*
Y-187224D01*
Y-186938D01*
Y-186652D01*
Y-186365D01*
Y-186079D01*
Y-185793D01*
X894702D01*
Y-186079D01*
D02*
G37*
G36*
X836866Y-168614D02*
Y-168900D01*
X836580D01*
Y-169187D01*
Y-169473D01*
Y-169759D01*
Y-170046D01*
Y-170332D01*
Y-170618D01*
X836294D01*
Y-170905D01*
Y-171191D01*
Y-171477D01*
Y-171764D01*
Y-172050D01*
Y-172336D01*
X836007D01*
Y-172623D01*
Y-172909D01*
Y-173195D01*
Y-173481D01*
Y-173768D01*
Y-174054D01*
Y-174340D01*
X835721D01*
Y-174627D01*
Y-174913D01*
Y-175199D01*
Y-175486D01*
Y-175772D01*
Y-176058D01*
X835435D01*
Y-176345D01*
Y-176631D01*
Y-176917D01*
Y-177204D01*
Y-177490D01*
Y-177776D01*
X835149D01*
Y-178062D01*
Y-178349D01*
Y-178635D01*
Y-178921D01*
Y-179208D01*
Y-179494D01*
Y-179780D01*
X834862D01*
Y-180067D01*
Y-180353D01*
Y-180639D01*
Y-180926D01*
Y-181212D01*
Y-181498D01*
X834576D01*
Y-181784D01*
Y-182071D01*
Y-182357D01*
Y-182643D01*
Y-182930D01*
Y-183216D01*
X834290D01*
Y-183502D01*
Y-183789D01*
Y-184075D01*
Y-184361D01*
Y-184648D01*
Y-184934D01*
X834003D01*
Y-185220D01*
Y-185507D01*
Y-185793D01*
Y-186079D01*
Y-186365D01*
Y-186652D01*
Y-186938D01*
X833717D01*
Y-187224D01*
Y-187511D01*
Y-187797D01*
Y-188083D01*
Y-188370D01*
Y-188656D01*
X833431D01*
Y-188942D01*
Y-189229D01*
X834003D01*
Y-188942D01*
X834290D01*
Y-188656D01*
X834576D01*
Y-188370D01*
X835149D01*
Y-188083D01*
X835435D01*
Y-187797D01*
X835721D01*
Y-187511D01*
X836294D01*
Y-187224D01*
X836866D01*
Y-186938D01*
X837153D01*
Y-186652D01*
X837725D01*
Y-186365D01*
X838584D01*
Y-186079D01*
X839157D01*
Y-185793D01*
X840016D01*
Y-185507D01*
X841448D01*
Y-185220D01*
X847746D01*
Y-185507D01*
X848892D01*
Y-185793D01*
X849751D01*
Y-186079D01*
X850323D01*
Y-186365D01*
X850609D01*
Y-186652D01*
X851182D01*
Y-186938D01*
X851468D01*
Y-187224D01*
X851755D01*
Y-187511D01*
X852041D01*
Y-187797D01*
X852327D01*
Y-188083D01*
Y-188370D01*
X852614D01*
Y-188656D01*
Y-188942D01*
X852900D01*
Y-189229D01*
Y-189515D01*
Y-189801D01*
X853186D01*
Y-190088D01*
Y-190374D01*
Y-190660D01*
Y-190946D01*
X853473D01*
Y-191233D01*
Y-191519D01*
Y-191806D01*
Y-192092D01*
Y-192378D01*
Y-192664D01*
Y-192951D01*
Y-193237D01*
Y-193523D01*
Y-193810D01*
Y-194096D01*
Y-194382D01*
Y-194669D01*
Y-194955D01*
Y-195241D01*
Y-195528D01*
Y-195814D01*
Y-196100D01*
X853186D01*
Y-196387D01*
Y-196673D01*
Y-196959D01*
Y-197245D01*
Y-197532D01*
Y-197818D01*
Y-198104D01*
X852900D01*
Y-198391D01*
Y-198677D01*
Y-198963D01*
Y-199250D01*
Y-199536D01*
Y-199822D01*
Y-200109D01*
X852614D01*
Y-200395D01*
Y-200681D01*
Y-200968D01*
Y-201254D01*
Y-201540D01*
Y-201826D01*
X852327D01*
Y-202113D01*
Y-202399D01*
Y-202685D01*
Y-202972D01*
Y-203258D01*
Y-203544D01*
X852041D01*
Y-203831D01*
Y-204117D01*
Y-204403D01*
Y-204690D01*
Y-204976D01*
Y-205262D01*
X851755D01*
Y-205549D01*
Y-205835D01*
Y-206121D01*
Y-206407D01*
Y-206694D01*
Y-206980D01*
Y-207266D01*
X851468D01*
Y-207553D01*
Y-207839D01*
Y-208125D01*
Y-208412D01*
Y-208698D01*
Y-208984D01*
X851182D01*
Y-209271D01*
Y-209557D01*
Y-209843D01*
Y-210129D01*
Y-210416D01*
Y-210702D01*
X850896D01*
Y-210988D01*
Y-211275D01*
Y-211561D01*
Y-211847D01*
Y-212134D01*
Y-212420D01*
Y-212706D01*
X850609D01*
Y-212993D01*
Y-213279D01*
Y-213565D01*
Y-213851D01*
Y-214138D01*
Y-214424D01*
X850323D01*
Y-214710D01*
Y-214997D01*
Y-215283D01*
Y-215569D01*
Y-215856D01*
Y-216142D01*
X850037D01*
Y-216428D01*
Y-216715D01*
Y-217001D01*
Y-217287D01*
Y-217574D01*
Y-217860D01*
X849751D01*
Y-218146D01*
Y-218433D01*
Y-218719D01*
Y-219005D01*
Y-219291D01*
Y-219578D01*
Y-219864D01*
X849464D01*
Y-220150D01*
Y-220437D01*
Y-220723D01*
Y-221009D01*
Y-221296D01*
Y-221582D01*
X849178D01*
Y-221868D01*
Y-222155D01*
X836007D01*
Y-221868D01*
Y-221582D01*
X836294D01*
Y-221296D01*
Y-221009D01*
Y-220723D01*
Y-220437D01*
Y-220150D01*
Y-219864D01*
X836580D01*
Y-219578D01*
Y-219291D01*
Y-219005D01*
Y-218719D01*
Y-218433D01*
Y-218146D01*
Y-217860D01*
X836866D01*
Y-217574D01*
Y-217287D01*
Y-217001D01*
Y-216715D01*
Y-216428D01*
Y-216142D01*
X837153D01*
Y-215856D01*
Y-215569D01*
Y-215283D01*
Y-214997D01*
Y-214710D01*
Y-214424D01*
X837439D01*
Y-214138D01*
Y-213851D01*
Y-213565D01*
Y-213279D01*
Y-212993D01*
Y-212706D01*
Y-212420D01*
X837725D01*
Y-212134D01*
Y-211847D01*
Y-211561D01*
Y-211275D01*
Y-210988D01*
Y-210702D01*
X838012D01*
Y-210416D01*
Y-210129D01*
Y-209843D01*
Y-209557D01*
Y-209271D01*
Y-208984D01*
Y-208698D01*
X838298D01*
Y-208412D01*
Y-208125D01*
Y-207839D01*
Y-207553D01*
Y-207266D01*
Y-206980D01*
X838584D01*
Y-206694D01*
Y-206407D01*
Y-206121D01*
Y-205835D01*
Y-205549D01*
Y-205262D01*
X838871D01*
Y-204976D01*
Y-204690D01*
Y-204403D01*
Y-204117D01*
Y-203831D01*
Y-203544D01*
X839157D01*
Y-203258D01*
Y-202972D01*
Y-202685D01*
Y-202399D01*
Y-202113D01*
Y-201826D01*
Y-201540D01*
X839443D01*
Y-201254D01*
Y-200968D01*
Y-200681D01*
Y-200395D01*
Y-200109D01*
Y-199822D01*
X839730D01*
Y-199536D01*
Y-199250D01*
Y-198963D01*
Y-198677D01*
Y-198391D01*
Y-198104D01*
Y-197818D01*
X840016D01*
Y-197532D01*
Y-197245D01*
Y-196959D01*
Y-196673D01*
Y-196387D01*
Y-196100D01*
X839730D01*
Y-195814D01*
Y-195528D01*
X839443D01*
Y-195241D01*
X839157D01*
Y-194955D01*
X838584D01*
Y-194669D01*
X836866D01*
Y-194955D01*
X835435D01*
Y-195241D01*
X834576D01*
Y-195528D01*
X834003D01*
Y-195814D01*
X833717D01*
Y-196100D01*
X833144D01*
Y-196387D01*
X832858D01*
Y-196673D01*
X832572D01*
Y-196959D01*
Y-197245D01*
X832285D01*
Y-197532D01*
Y-197818D01*
Y-198104D01*
X831999D01*
Y-198391D01*
Y-198677D01*
Y-198963D01*
Y-199250D01*
Y-199536D01*
Y-199822D01*
X831713D01*
Y-200109D01*
Y-200395D01*
Y-200681D01*
Y-200968D01*
Y-201254D01*
Y-201540D01*
Y-201826D01*
X831427D01*
Y-202113D01*
Y-202399D01*
Y-202685D01*
Y-202972D01*
Y-203258D01*
Y-203544D01*
X831140D01*
Y-203831D01*
Y-204117D01*
Y-204403D01*
Y-204690D01*
Y-204976D01*
Y-205262D01*
X830854D01*
Y-205549D01*
Y-205835D01*
Y-206121D01*
Y-206407D01*
Y-206694D01*
Y-206980D01*
X830568D01*
Y-207266D01*
Y-207553D01*
Y-207839D01*
Y-208125D01*
Y-208412D01*
Y-208698D01*
Y-208984D01*
X830281D01*
Y-209271D01*
Y-209557D01*
Y-209843D01*
Y-210129D01*
Y-210416D01*
Y-210702D01*
X829995D01*
Y-210988D01*
Y-211275D01*
Y-211561D01*
Y-211847D01*
Y-212134D01*
Y-212420D01*
X829709D01*
Y-212706D01*
Y-212993D01*
Y-213279D01*
Y-213565D01*
Y-213851D01*
Y-214138D01*
Y-214424D01*
X829422D01*
Y-214710D01*
Y-214997D01*
Y-215283D01*
Y-215569D01*
Y-215856D01*
Y-216142D01*
X829136D01*
Y-216428D01*
Y-216715D01*
Y-217001D01*
Y-217287D01*
Y-217574D01*
Y-217860D01*
X828850D01*
Y-218146D01*
Y-218433D01*
Y-218719D01*
Y-219005D01*
Y-219291D01*
Y-219578D01*
X828563D01*
Y-219864D01*
Y-220150D01*
Y-220437D01*
Y-220723D01*
Y-221009D01*
Y-221296D01*
Y-221582D01*
X828277D01*
Y-221868D01*
Y-222155D01*
X815107D01*
Y-221868D01*
Y-221582D01*
X815393D01*
Y-221296D01*
Y-221009D01*
Y-220723D01*
Y-220437D01*
Y-220150D01*
Y-219864D01*
Y-219578D01*
X815679D01*
Y-219291D01*
Y-219005D01*
Y-218719D01*
Y-218433D01*
Y-218146D01*
Y-217860D01*
X815966D01*
Y-217574D01*
Y-217287D01*
Y-217001D01*
Y-216715D01*
Y-216428D01*
Y-216142D01*
X816252D01*
Y-215856D01*
Y-215569D01*
Y-215283D01*
Y-214997D01*
Y-214710D01*
Y-214424D01*
Y-214138D01*
X816538D01*
Y-213851D01*
Y-213565D01*
Y-213279D01*
Y-212993D01*
Y-212706D01*
Y-212420D01*
X816825D01*
Y-212134D01*
Y-211847D01*
Y-211561D01*
Y-211275D01*
Y-210988D01*
Y-210702D01*
X817111D01*
Y-210416D01*
Y-210129D01*
Y-209843D01*
Y-209557D01*
Y-209271D01*
Y-208984D01*
X817397D01*
Y-208698D01*
Y-208412D01*
Y-208125D01*
Y-207839D01*
Y-207553D01*
Y-207266D01*
Y-206980D01*
X817684D01*
Y-206694D01*
Y-206407D01*
Y-206121D01*
Y-205835D01*
Y-205549D01*
Y-205262D01*
X817970D01*
Y-204976D01*
Y-204690D01*
Y-204403D01*
Y-204117D01*
Y-203831D01*
Y-203544D01*
X818256D01*
Y-203258D01*
Y-202972D01*
Y-202685D01*
Y-202399D01*
Y-202113D01*
Y-201826D01*
Y-201540D01*
X818542D01*
Y-201254D01*
Y-200968D01*
Y-200681D01*
Y-200395D01*
Y-200109D01*
Y-199822D01*
X818829D01*
Y-199536D01*
Y-199250D01*
Y-198963D01*
Y-198677D01*
Y-198391D01*
Y-198104D01*
X819115D01*
Y-197818D01*
Y-197532D01*
Y-197245D01*
Y-196959D01*
Y-196673D01*
Y-196387D01*
X819401D01*
Y-196100D01*
Y-195814D01*
Y-195528D01*
Y-195241D01*
Y-194955D01*
Y-194669D01*
Y-194382D01*
X819688D01*
Y-194096D01*
Y-193810D01*
Y-193523D01*
Y-193237D01*
Y-192951D01*
Y-192664D01*
X819974D01*
Y-192378D01*
Y-192092D01*
Y-191806D01*
Y-191519D01*
Y-191233D01*
Y-190946D01*
X820260D01*
Y-190660D01*
Y-190374D01*
Y-190088D01*
Y-189801D01*
Y-189515D01*
Y-189229D01*
X820547D01*
Y-188942D01*
Y-188656D01*
Y-188370D01*
Y-188083D01*
Y-187797D01*
Y-187511D01*
Y-187224D01*
X820833D01*
Y-186938D01*
Y-186652D01*
Y-186365D01*
Y-186079D01*
Y-185793D01*
Y-185507D01*
X821119D01*
Y-185220D01*
Y-184934D01*
Y-184648D01*
Y-184361D01*
Y-184075D01*
Y-183789D01*
X821406D01*
Y-183502D01*
Y-183216D01*
Y-182930D01*
Y-182643D01*
Y-182357D01*
Y-182071D01*
Y-181784D01*
X821692D01*
Y-181498D01*
Y-181212D01*
Y-180926D01*
Y-180639D01*
Y-180353D01*
Y-180067D01*
X821978D01*
Y-179780D01*
Y-179494D01*
Y-179208D01*
Y-178921D01*
Y-178635D01*
Y-178349D01*
X822264D01*
Y-178062D01*
Y-177776D01*
Y-177490D01*
Y-177204D01*
Y-176917D01*
Y-176631D01*
X822551D01*
Y-176345D01*
Y-176058D01*
Y-175772D01*
Y-175486D01*
Y-175199D01*
Y-174913D01*
Y-174627D01*
X822837D01*
Y-174340D01*
Y-174054D01*
Y-173768D01*
Y-173481D01*
Y-173195D01*
Y-172909D01*
X823123D01*
Y-172623D01*
Y-172336D01*
Y-172050D01*
Y-171764D01*
Y-171477D01*
Y-171191D01*
X823410D01*
Y-170905D01*
Y-170618D01*
Y-170332D01*
Y-170046D01*
Y-169759D01*
Y-169473D01*
Y-169187D01*
X823696D01*
Y-168900D01*
Y-168614D01*
Y-168328D01*
X836866D01*
Y-168614D01*
D02*
G37*
%LPC*%
G36*
X137267Y333514D02*
X136387Y333460D01*
X135552Y333180D01*
X134817Y332694D01*
X134233Y332034D01*
X133840Y331246D01*
X133664Y330382D01*
X133718Y329503D01*
X133998Y328667D01*
X134484Y327932D01*
X135144Y327348D01*
X135932Y326955D01*
X136796Y326780D01*
X137675Y326833D01*
X138511Y327113D01*
X139246Y327599D01*
X139830Y328259D01*
X140223Y329048D01*
X140398Y329911D01*
X140345Y330791D01*
X140065Y331626D01*
X139579Y332361D01*
X138919Y332945D01*
X138130Y333338D01*
X137267Y333514D01*
D02*
G37*
G36*
X-145888Y328462D02*
X-146768Y328423D01*
X-147608Y328158D01*
X-148352Y327685D01*
X-148947Y327035D01*
X-149354Y326254D01*
X-149544Y325393D01*
X-149506Y324513D01*
X-149241Y323673D01*
X-148767Y322930D01*
X-148118Y322334D01*
X-147336Y321927D01*
X-146754Y321798D01*
X-146330Y321090D01*
X-146212Y320566D01*
X-146552Y319913D01*
X-146711Y319194D01*
X-147139Y318869D01*
X-147918Y318599D01*
X-148448Y318874D01*
X-149308Y319065D01*
X-150188Y319026D01*
X-151029Y318761D01*
X-151772Y318288D01*
X-152367Y317638D01*
X-152774Y316857D01*
X-152965Y315996D01*
X-152926Y315116D01*
X-152661Y314276D01*
X-152188Y313533D01*
X-151538Y312937D01*
X-150757Y312530D01*
X-149896Y312340D01*
X-149016Y312378D01*
X-148176Y312643D01*
X-147432Y313117D01*
X-146837Y313766D01*
X-146430Y314548D01*
X-146301Y315130D01*
X-145593Y315554D01*
X-145069Y315672D01*
X-144416Y315332D01*
X-143697Y315173D01*
X-143372Y314745D01*
X-143101Y313966D01*
X-143377Y313437D01*
X-143568Y312576D01*
X-143529Y311696D01*
X-143264Y310856D01*
X-142791Y310112D01*
X-142141Y309517D01*
X-141360Y309110D01*
X-140499Y308920D01*
X-139619Y308958D01*
X-138779Y309223D01*
X-138036Y309696D01*
X-137440Y310346D01*
X-137033Y311128D01*
X-136843Y311988D01*
X-136881Y312868D01*
X-137146Y313708D01*
X-137619Y314452D01*
X-138269Y315047D01*
X-139051Y315454D01*
X-139633Y315583D01*
X-140057Y316291D01*
X-140175Y316815D01*
X-139835Y317468D01*
X-139676Y318187D01*
X-139248Y318513D01*
X-138469Y318783D01*
X-137939Y318507D01*
X-137079Y318317D01*
X-136199Y318355D01*
X-135359Y318620D01*
X-134615Y319093D01*
X-134020Y319743D01*
X-133613Y320525D01*
X-133423Y321385D01*
X-133461Y322265D01*
X-133726Y323106D01*
X-134199Y323849D01*
X-134849Y324444D01*
X-135631Y324851D01*
X-136491Y325042D01*
X-137371Y325003D01*
X-138211Y324738D01*
X-138955Y324265D01*
X-139550Y323615D01*
X-139957Y322833D01*
X-140086Y322251D01*
X-140794Y321827D01*
X-141318Y321709D01*
X-141971Y322049D01*
X-142690Y322208D01*
X-143015Y322636D01*
X-143286Y323415D01*
X-143010Y323945D01*
X-142819Y324805D01*
X-142858Y325685D01*
X-143123Y326526D01*
X-143596Y327269D01*
X-144246Y327864D01*
X-145027Y328271D01*
X-145888Y328462D01*
D02*
G37*
G36*
X-127094Y321621D02*
X-127974Y321583D01*
X-128814Y321318D01*
X-129558Y320844D01*
X-130153Y320195D01*
X-130560Y319413D01*
X-130751Y318553D01*
X-130712Y317673D01*
X-130447Y316832D01*
X-129974Y316089D01*
X-129324Y315494D01*
X-128542Y315087D01*
X-127682Y314896D01*
X-126953Y314928D01*
X-126700Y314848D01*
X-125739Y314031D01*
X-125722Y313899D01*
X-125464Y313276D01*
X-125054Y312742D01*
X-124734Y312496D01*
Y311676D01*
X-124726Y311639D01*
X-124854Y310671D01*
X-125242Y309734D01*
X-125836Y308959D01*
X-125868Y308938D01*
X-126311Y308495D01*
X-127465Y309011D01*
X-127484Y309448D01*
X-127749Y310288D01*
X-128223Y311032D01*
X-128872Y311627D01*
X-129654Y312034D01*
X-130514Y312224D01*
X-131394Y312186D01*
X-132235Y311921D01*
X-132978Y311448D01*
X-133573Y310798D01*
X-133980Y310016D01*
X-134171Y309156D01*
X-134132Y308276D01*
X-133867Y307435D01*
X-133394Y306692D01*
X-132744Y306097D01*
X-131963Y305690D01*
X-131102Y305499D01*
X-130222Y305538D01*
X-130218Y305539D01*
X-129532Y304783D01*
X-129422Y304552D01*
X-130082Y302958D01*
X-130504Y301202D01*
X-130646Y299401D01*
X-130639D01*
Y280023D01*
X-130959Y279778D01*
X-131369Y279243D01*
X-131627Y278621D01*
X-131715Y277953D01*
X-131627Y277285D01*
X-131369Y276662D01*
X-130959Y276128D01*
X-130424Y275717D01*
X-129802Y275460D01*
X-129134Y275372D01*
X-128466Y275460D01*
X-127843Y275717D01*
X-127309Y276128D01*
X-126899Y276662D01*
X-126641Y277285D01*
X-126553Y277953D01*
X-126641Y278621D01*
X-126899Y279243D01*
X-127309Y279778D01*
X-127629Y280023D01*
Y299401D01*
X-127642Y299468D01*
X-127485Y301062D01*
X-127000Y302660D01*
X-126214Y304132D01*
X-125856Y304567D01*
X-124557Y304289D01*
X-124470Y304015D01*
X-123997Y303272D01*
X-123347Y302677D01*
X-122566Y302270D01*
X-121705Y302079D01*
X-120825Y302118D01*
X-119985Y302383D01*
X-119242Y302856D01*
X-118646Y303506D01*
X-118239Y304287D01*
X-118049Y305148D01*
X-118087Y306028D01*
X-118352Y306868D01*
X-118826Y307611D01*
X-119475Y308207D01*
X-120257Y308613D01*
X-121083Y308797D01*
X-121120Y308808D01*
X-121967Y309949D01*
X-121851Y310332D01*
X-121719Y311676D01*
X-121719D01*
X-121694Y311763D01*
X-120422Y312410D01*
X-120221Y312343D01*
X-119927Y312074D01*
X-119146Y311667D01*
X-118285Y311476D01*
X-117405Y311514D01*
X-116565Y311779D01*
X-115822Y312253D01*
X-115226Y312903D01*
X-114819Y313684D01*
X-114629Y314544D01*
X-114667Y315425D01*
X-114932Y316265D01*
X-115405Y317008D01*
X-116055Y317603D01*
X-116837Y318010D01*
X-117697Y318201D01*
X-118577Y318163D01*
X-119418Y317898D01*
X-120161Y317424D01*
X-120458Y317100D01*
X-120888Y316778D01*
X-121938Y316802D01*
X-122560Y317060D01*
X-123003Y317118D01*
X-123506Y317521D01*
X-124037Y318233D01*
X-124064Y318845D01*
X-124329Y319685D01*
X-124802Y320428D01*
X-125452Y321024D01*
X-126234Y321430D01*
X-127094Y321621D01*
D02*
G37*
G36*
X-174539Y327826D02*
X-176887Y327641D01*
X-179177Y327091D01*
X-181352Y326190D01*
X-183360Y324960D01*
X-185151Y323430D01*
X-186680Y321640D01*
X-187911Y319632D01*
X-188812Y317456D01*
X-189362Y315166D01*
X-189546Y312819D01*
X-189465Y311785D01*
X-190593Y311070D01*
X-193316Y312632D01*
X-197462Y314837D01*
X-201676Y316909D01*
X-203815Y317877D01*
X-203815Y317877D01*
X-203234Y316346D01*
X-203220Y316311D01*
X-201980Y313322D01*
X-200635Y310337D01*
X-199200Y307395D01*
X-198438Y305946D01*
X-198438Y305946D01*
X-198438D01*
X-197109Y303309D01*
X-194371Y298075D01*
X-191551Y292885D01*
X-188651Y287740D01*
X-187161Y285190D01*
X-185393Y282141D01*
X-181730Y276118D01*
X-177944Y270172D01*
X-174034Y264306D01*
X-172658Y262331D01*
X-172019Y261414D01*
X-172019Y261414D01*
X-170485Y258835D01*
X-167096Y253883D01*
X-163400Y249156D01*
X-159410Y244673D01*
X-155144Y240453D01*
X-150619Y236512D01*
X-145852Y232868D01*
X-141721Y230106D01*
X-141721Y230106D01*
X-140863Y229533D01*
X-138268Y228027D01*
X-138268Y228027D01*
X-138267D01*
X-138268Y228027D01*
X-139130Y228973D01*
X-139131Y228974D01*
X-140837Y230885D01*
X-141591Y231754D01*
X-142516Y232821D01*
X-144167Y234780D01*
X-144982Y235768D01*
X-145790Y236754D01*
X-147385Y238743D01*
X-148954Y240752D01*
X-150495Y242782D01*
X-151256Y243805D01*
X-152906Y246022D01*
X-156010Y250595D01*
X-158845Y255340D01*
X-160910Y259301D01*
X-159944Y260004D01*
X-159204Y259254D01*
X-156855Y257031D01*
X-154432Y254890D01*
X-153184Y253862D01*
Y253862D01*
X-153184Y253862D01*
X-152311Y253140D01*
X-152304Y253135D01*
X-150505Y251771D01*
X-148643Y250480D01*
X-146744Y249279D01*
X-146728Y249269D01*
X-145745Y248705D01*
Y248704D01*
X-145101Y248333D01*
X-144785Y248171D01*
X-144785Y248171D01*
X-144743Y248150D01*
X-143778Y247656D01*
X-142422Y247045D01*
X-141038Y246503D01*
X-140333Y246267D01*
X-139805Y246065D01*
X-138714Y245768D01*
X-137600Y245581D01*
X-137549Y245577D01*
X-137482Y245573D01*
Y245573D01*
X-136471Y245506D01*
X-135907Y245525D01*
X-135907Y245525D01*
X-135923Y245545D01*
X-136169Y245839D01*
X-136896Y246717D01*
X-136896D01*
X-137670Y247671D01*
X-138805Y249134D01*
X-139790Y250467D01*
X-140442Y251375D01*
X-140444Y251378D01*
X-141082Y252294D01*
X-141882Y253480D01*
X-142795Y254912D01*
X-143672Y256368D01*
X-144096Y257103D01*
X-144521Y257754D01*
X-145291Y259103D01*
X-145950Y260510D01*
X-146493Y261965D01*
X-146918Y263459D01*
X-147220Y264983D01*
X-147399Y266526D01*
X-147430Y267412D01*
X-147335Y267537D01*
X-146271Y268083D01*
X-145213Y267437D01*
X-143660Y266617D01*
X-142253Y265982D01*
X-142059Y265894D01*
X-141237Y265583D01*
X-141237Y265583D01*
X-141237Y265583D01*
X-138818Y264724D01*
X-133871Y263349D01*
X-128839Y262323D01*
X-124790Y261789D01*
X-123749Y261652D01*
X-123713Y261650D01*
X-123666Y261647D01*
Y261647D01*
X-121186Y261495D01*
X-122354Y262210D01*
X-122355Y262210D01*
X-123286Y262806D01*
Y262806D01*
X-123288Y262807D01*
X-123288Y262807D01*
X-124950Y263875D01*
X-127399Y265551D01*
X-129799Y267299D01*
X-130980Y268199D01*
X-149772Y282061D01*
X-170636Y297268D01*
X-170405Y298426D01*
X-169902Y298547D01*
X-167726Y299448D01*
X-165718Y300678D01*
X-163928Y302207D01*
X-162399Y303998D01*
X-161168Y306006D01*
X-160267Y308182D01*
X-159717Y310471D01*
X-159532Y312819D01*
X-159717Y315166D01*
X-160267Y317456D01*
X-161168Y319632D01*
X-162399Y321640D01*
X-163928Y323430D01*
X-165718Y324960D01*
X-167726Y326190D01*
X-169902Y327091D01*
X-172192Y327641D01*
X-174539Y327826D01*
D02*
G37*
G36*
X57087Y295101D02*
X56419Y295013D01*
X55796Y294755D01*
X55261Y294345D01*
X54851Y293810D01*
X54593Y293188D01*
X54505Y292520D01*
X54593Y291852D01*
X54851Y291229D01*
X55261Y290695D01*
X55796Y290284D01*
X56419Y290026D01*
X57087Y289939D01*
X57308Y289968D01*
X57316Y289958D01*
X58103Y288486D01*
X58587Y286889D01*
X58744Y285295D01*
X58731Y285228D01*
Y282105D01*
X57732Y281124D01*
X57064Y281036D01*
X56441Y280779D01*
X55907Y280368D01*
X55661Y280049D01*
X53937D01*
Y280053D01*
X52220Y279918D01*
X50546Y279517D01*
X48956Y278857D01*
X47488Y277958D01*
X46181Y276842D01*
X46178Y276840D01*
X46182Y276836D01*
X31213Y261867D01*
X31175Y261811D01*
X29937Y260794D01*
X28464Y260008D01*
X26867Y259523D01*
X25273Y259366D01*
X25206Y259379D01*
X20678D01*
Y259386D01*
X18877Y259244D01*
X17120Y258822D01*
X15451Y258131D01*
X13911Y257187D01*
X12538Y256014D01*
X12542Y256010D01*
X9849Y253316D01*
X9449Y253368D01*
X8781Y253281D01*
X8158Y253023D01*
X7624Y252612D01*
X7214Y252078D01*
X6956Y251455D01*
X6868Y250787D01*
X6956Y250119D01*
X7214Y249497D01*
X7624Y248962D01*
X8158Y248552D01*
X8781Y248294D01*
X9449Y248206D01*
X10117Y248294D01*
X10739Y248552D01*
X11274Y248962D01*
X11530Y249296D01*
X12205Y249409D01*
X12879Y249296D01*
X13136Y248962D01*
X13670Y248552D01*
X14293Y248294D01*
X14916Y248212D01*
X14840Y247638D01*
X14928Y246970D01*
X15186Y246347D01*
X15596Y245813D01*
X16131Y245403D01*
X16753Y245145D01*
X17421Y245057D01*
X18089Y245145D01*
X18712Y245403D01*
X19246Y245813D01*
X19261Y245831D01*
X21055D01*
Y245830D01*
X22902Y245975D01*
X24704Y246408D01*
X26415Y247117D01*
X27995Y248085D01*
X29404Y249288D01*
X29403Y249289D01*
X47955Y267841D01*
X48001Y267910D01*
X49183Y268880D01*
X50604Y269640D01*
X52145Y270107D01*
X52604Y270152D01*
X53748Y270240D01*
Y270240D01*
X55548Y270382D01*
X57303Y270803D01*
X58971Y271494D01*
X60510Y272437D01*
X61883Y273609D01*
X61882Y273610D01*
X63253Y274981D01*
X63277Y274978D01*
X63945Y275066D01*
X64567Y275324D01*
X65102Y275734D01*
X65512Y276269D01*
X65770Y276891D01*
X65858Y277559D01*
X65770Y278227D01*
X65512Y278850D01*
X65102Y279384D01*
X64567Y279794D01*
X63945Y280052D01*
X63277Y280140D01*
X62923Y280094D01*
X62095Y280597D01*
X61742Y280972D01*
Y285228D01*
X61748D01*
X61606Y287029D01*
X61185Y288785D01*
X60493Y290454D01*
X59590Y291929D01*
X59668Y292520D01*
X59580Y293188D01*
X59322Y293810D01*
X58912Y294345D01*
X58377Y294755D01*
X57755Y295013D01*
X57087Y295101D01*
D02*
G37*
G36*
X-35600Y242571D02*
X-36268Y242483D01*
X-36891Y242226D01*
X-37425Y241815D01*
X-37517Y241696D01*
X-44510D01*
X-44602Y241815D01*
X-45136Y242226D01*
X-45759Y242483D01*
X-46427Y242571D01*
X-47095Y242483D01*
X-47718Y242226D01*
X-48252Y241815D01*
X-48344Y241696D01*
X-55337D01*
X-55429Y241815D01*
X-55963Y242226D01*
X-56586Y242483D01*
X-57254Y242571D01*
X-57922Y242483D01*
X-58544Y242226D01*
X-59079Y241815D01*
X-59170Y241696D01*
X-66164D01*
X-66255Y241815D01*
X-66790Y242226D01*
X-67413Y242483D01*
X-68081Y242571D01*
X-68749Y242483D01*
X-69371Y242226D01*
X-69906Y241815D01*
X-69997Y241696D01*
X-76991D01*
X-77082Y241815D01*
X-77617Y242226D01*
X-78239Y242483D01*
X-78907Y242571D01*
X-79575Y242483D01*
X-80198Y242226D01*
X-80733Y241815D01*
X-80824Y241696D01*
X-87818D01*
X-87909Y241815D01*
X-88444Y242226D01*
X-89066Y242483D01*
X-89734Y242571D01*
X-90402Y242483D01*
X-91025Y242226D01*
X-91559Y241815D01*
X-91651Y241696D01*
X-98644D01*
X-98736Y241815D01*
X-99270Y242226D01*
X-99893Y242483D01*
X-100561Y242571D01*
X-101229Y242483D01*
X-101851Y242226D01*
X-102386Y241815D01*
X-102796Y241281D01*
X-103054Y240658D01*
X-103142Y239990D01*
X-103054Y239322D01*
X-102796Y238700D01*
X-102386Y238165D01*
X-101851Y237755D01*
X-101229Y237497D01*
X-100561Y237409D01*
X-99893Y237497D01*
X-99270Y237755D01*
X-98736Y238165D01*
X-98644Y238284D01*
X-91651D01*
X-91559Y238165D01*
X-91025Y237755D01*
X-90402Y237497D01*
X-89734Y237409D01*
X-89066Y237497D01*
X-88444Y237755D01*
X-87909Y238165D01*
X-87818Y238284D01*
X-80824D01*
X-80733Y238165D01*
X-80198Y237755D01*
X-79575Y237497D01*
X-78907Y237409D01*
X-78239Y237497D01*
X-77617Y237755D01*
X-77082Y238165D01*
X-76991Y238284D01*
X-69997D01*
X-69906Y238165D01*
X-69371Y237755D01*
X-68749Y237497D01*
X-68081Y237409D01*
X-67413Y237497D01*
X-66790Y237755D01*
X-66255Y238165D01*
X-66164Y238284D01*
X-59170D01*
X-59079Y238165D01*
X-58544Y237755D01*
X-57922Y237497D01*
X-57254Y237409D01*
X-56586Y237497D01*
X-55963Y237755D01*
X-55429Y238165D01*
X-55337Y238284D01*
X-48344D01*
X-48252Y238165D01*
X-47718Y237755D01*
X-47095Y237497D01*
X-46427Y237409D01*
X-45759Y237497D01*
X-45136Y237755D01*
X-44602Y238165D01*
X-44510Y238284D01*
X-37517D01*
X-37425Y238165D01*
X-36891Y237755D01*
X-36268Y237497D01*
X-35600Y237409D01*
X-34932Y237497D01*
X-34310Y237755D01*
X-33775Y238165D01*
X-33365Y238700D01*
X-33107Y239322D01*
X-33019Y239990D01*
X-33107Y240658D01*
X-33365Y241281D01*
X-33775Y241815D01*
X-34310Y242226D01*
X-34932Y242483D01*
X-35600Y242571D01*
D02*
G37*
G36*
Y231745D02*
X-36268Y231657D01*
X-36891Y231399D01*
X-37425Y230989D01*
X-37517Y230870D01*
X-44510D01*
X-44602Y230989D01*
X-45136Y231399D01*
X-45759Y231657D01*
X-46427Y231745D01*
X-47095Y231657D01*
X-47718Y231399D01*
X-48252Y230989D01*
X-48344Y230870D01*
X-55337D01*
X-55429Y230989D01*
X-55963Y231399D01*
X-56586Y231657D01*
X-57254Y231745D01*
X-57922Y231657D01*
X-58544Y231399D01*
X-59079Y230989D01*
X-59170Y230870D01*
X-66164D01*
X-66255Y230989D01*
X-66790Y231399D01*
X-67413Y231657D01*
X-68081Y231745D01*
X-68749Y231657D01*
X-69371Y231399D01*
X-69906Y230989D01*
X-69997Y230870D01*
X-76991D01*
X-77082Y230989D01*
X-77617Y231399D01*
X-78239Y231657D01*
X-78907Y231745D01*
X-79575Y231657D01*
X-80198Y231399D01*
X-80733Y230989D01*
X-80824Y230870D01*
X-87818D01*
X-87909Y230989D01*
X-88444Y231399D01*
X-89066Y231657D01*
X-89734Y231745D01*
X-90402Y231657D01*
X-91025Y231399D01*
X-91559Y230989D01*
X-91651Y230870D01*
X-98644D01*
X-98736Y230989D01*
X-99270Y231399D01*
X-99893Y231657D01*
X-100561Y231745D01*
X-101229Y231657D01*
X-101851Y231399D01*
X-102386Y230989D01*
X-102796Y230454D01*
X-103054Y229832D01*
X-103142Y229164D01*
X-103054Y228496D01*
X-102796Y227873D01*
X-102386Y227338D01*
X-101851Y226928D01*
X-101229Y226670D01*
X-100561Y226582D01*
X-99893Y226670D01*
X-99270Y226928D01*
X-98736Y227338D01*
X-98644Y227457D01*
X-91651D01*
X-91559Y227338D01*
X-91025Y226928D01*
X-90402Y226670D01*
X-89734Y226582D01*
X-89066Y226670D01*
X-88444Y226928D01*
X-87909Y227338D01*
X-87818Y227457D01*
X-80824D01*
X-80733Y227338D01*
X-80198Y226928D01*
X-79575Y226670D01*
X-78907Y226582D01*
X-78239Y226670D01*
X-77617Y226928D01*
X-77082Y227338D01*
X-76991Y227457D01*
X-69997D01*
X-69906Y227338D01*
X-69371Y226928D01*
X-68749Y226670D01*
X-68081Y226582D01*
X-67413Y226670D01*
X-66790Y226928D01*
X-66255Y227338D01*
X-66164Y227457D01*
X-59170D01*
X-59079Y227338D01*
X-58544Y226928D01*
X-57922Y226670D01*
X-57254Y226582D01*
X-56586Y226670D01*
X-55963Y226928D01*
X-55429Y227338D01*
X-55337Y227457D01*
X-48344D01*
X-48252Y227338D01*
X-47718Y226928D01*
X-47095Y226670D01*
X-46427Y226582D01*
X-45759Y226670D01*
X-45136Y226928D01*
X-44602Y227338D01*
X-44510Y227457D01*
X-37517D01*
X-37425Y227338D01*
X-36891Y226928D01*
X-36268Y226670D01*
X-35600Y226582D01*
X-34932Y226670D01*
X-34310Y226928D01*
X-33775Y227338D01*
X-33365Y227873D01*
X-33107Y228496D01*
X-33019Y229164D01*
X-33107Y229832D01*
X-33365Y230454D01*
X-33775Y230989D01*
X-34310Y231399D01*
X-34932Y231657D01*
X-35600Y231745D01*
D02*
G37*
G36*
Y220918D02*
X-36268Y220830D01*
X-36891Y220572D01*
X-37425Y220162D01*
X-37517Y220043D01*
X-44510D01*
X-44602Y220162D01*
X-45136Y220572D01*
X-45759Y220830D01*
X-46427Y220918D01*
X-47095Y220830D01*
X-47718Y220572D01*
X-48252Y220162D01*
X-48344Y220043D01*
X-55337D01*
X-55429Y220162D01*
X-55963Y220572D01*
X-56586Y220830D01*
X-57254Y220918D01*
X-57922Y220830D01*
X-58544Y220572D01*
X-59079Y220162D01*
X-59170Y220043D01*
X-66164D01*
X-66255Y220162D01*
X-66790Y220572D01*
X-67413Y220830D01*
X-68081Y220918D01*
X-68749Y220830D01*
X-69371Y220572D01*
X-69906Y220162D01*
X-69997Y220043D01*
X-76991D01*
X-77082Y220162D01*
X-77617Y220572D01*
X-78239Y220830D01*
X-78907Y220918D01*
X-79575Y220830D01*
X-80198Y220572D01*
X-80733Y220162D01*
X-80824Y220043D01*
X-87818D01*
X-87909Y220162D01*
X-88444Y220572D01*
X-89066Y220830D01*
X-89734Y220918D01*
X-90402Y220830D01*
X-91025Y220572D01*
X-91559Y220162D01*
X-91651Y220043D01*
X-98644D01*
X-98736Y220162D01*
X-99270Y220572D01*
X-99893Y220830D01*
X-100561Y220918D01*
X-101229Y220830D01*
X-101851Y220572D01*
X-102386Y220162D01*
X-102796Y219627D01*
X-103054Y219005D01*
X-103142Y218337D01*
X-103054Y217669D01*
X-102796Y217046D01*
X-102386Y216512D01*
X-101851Y216101D01*
X-101229Y215844D01*
X-100561Y215756D01*
X-99893Y215844D01*
X-99270Y216101D01*
X-98736Y216512D01*
X-98644Y216631D01*
X-91651D01*
X-91559Y216512D01*
X-91025Y216101D01*
X-90402Y215844D01*
X-89734Y215756D01*
X-89066Y215844D01*
X-88444Y216101D01*
X-87909Y216512D01*
X-87818Y216631D01*
X-80824D01*
X-80733Y216512D01*
X-80198Y216101D01*
X-79575Y215844D01*
X-78907Y215756D01*
X-78239Y215844D01*
X-77617Y216101D01*
X-77082Y216512D01*
X-76991Y216631D01*
X-69997D01*
X-69906Y216512D01*
X-69371Y216101D01*
X-68749Y215844D01*
X-68081Y215756D01*
X-67413Y215844D01*
X-66790Y216101D01*
X-66255Y216512D01*
X-66164Y216631D01*
X-59170D01*
X-59079Y216512D01*
X-58544Y216101D01*
X-57922Y215844D01*
X-57254Y215756D01*
X-56586Y215844D01*
X-55963Y216101D01*
X-55429Y216512D01*
X-55337Y216631D01*
X-48344D01*
X-48252Y216512D01*
X-47718Y216101D01*
X-47095Y215844D01*
X-46427Y215756D01*
X-45759Y215844D01*
X-45136Y216101D01*
X-44602Y216512D01*
X-44510Y216631D01*
X-37517D01*
X-37425Y216512D01*
X-36891Y216101D01*
X-36268Y215844D01*
X-35600Y215756D01*
X-34932Y215844D01*
X-34310Y216101D01*
X-33775Y216512D01*
X-33365Y217046D01*
X-33107Y217669D01*
X-33019Y218337D01*
X-33107Y219005D01*
X-33365Y219627D01*
X-33775Y220162D01*
X-34310Y220572D01*
X-34932Y220830D01*
X-35600Y220918D01*
D02*
G37*
G36*
X116309Y210091D02*
X115641Y210003D01*
X115018Y209745D01*
X114484Y209335D01*
X114392Y209216D01*
X107399D01*
X107307Y209335D01*
X106773Y209745D01*
X106150Y210003D01*
X105482Y210091D01*
X104814Y210003D01*
X104192Y209745D01*
X103657Y209335D01*
X103566Y209216D01*
X96572D01*
X96481Y209335D01*
X95946Y209745D01*
X95323Y210003D01*
X94655Y210091D01*
X93987Y210003D01*
X93365Y209745D01*
X92830Y209335D01*
X92739Y209216D01*
X85745D01*
X85654Y209335D01*
X85119Y209745D01*
X84497Y210003D01*
X83829Y210091D01*
X83161Y210003D01*
X82538Y209745D01*
X82003Y209335D01*
X81912Y209216D01*
X74918D01*
X74827Y209335D01*
X74292Y209745D01*
X73670Y210003D01*
X73002Y210091D01*
X72334Y210003D01*
X71711Y209745D01*
X71177Y209335D01*
X71085Y209216D01*
X64092D01*
X64000Y209335D01*
X63466Y209745D01*
X62843Y210003D01*
X62175Y210091D01*
X61507Y210003D01*
X60884Y209745D01*
X60350Y209335D01*
X60259Y209216D01*
X53265D01*
X53173Y209335D01*
X52639Y209745D01*
X52016Y210003D01*
X51348Y210091D01*
X50680Y210003D01*
X50058Y209745D01*
X49523Y209335D01*
X49432Y209216D01*
X42438D01*
X42347Y209335D01*
X41812Y209745D01*
X41190Y210003D01*
X40521Y210091D01*
X39854Y210003D01*
X39231Y209745D01*
X38696Y209335D01*
X38286Y208801D01*
X38028Y208178D01*
X37940Y207510D01*
X38028Y206842D01*
X38286Y206219D01*
X38696Y205685D01*
X39231Y205275D01*
X39854Y205017D01*
X40521Y204929D01*
X41190Y205017D01*
X41812Y205275D01*
X42347Y205685D01*
X42438Y205804D01*
X49432D01*
X49523Y205685D01*
X50058Y205275D01*
X50680Y205017D01*
X51348Y204929D01*
X52016Y205017D01*
X52639Y205275D01*
X53173Y205685D01*
X53265Y205804D01*
X60259D01*
X60350Y205685D01*
X60884Y205275D01*
X61507Y205017D01*
X62175Y204929D01*
X62843Y205017D01*
X63466Y205275D01*
X64000Y205685D01*
X64092Y205804D01*
X71085D01*
X71177Y205685D01*
X71711Y205275D01*
X72334Y205017D01*
X73002Y204929D01*
X73670Y205017D01*
X74292Y205275D01*
X74827Y205685D01*
X74918Y205804D01*
X81912D01*
X82003Y205685D01*
X82538Y205275D01*
X83161Y205017D01*
X83829Y204929D01*
X84497Y205017D01*
X85119Y205275D01*
X85654Y205685D01*
X85745Y205804D01*
X92739D01*
X92830Y205685D01*
X93365Y205275D01*
X93987Y205017D01*
X94655Y204929D01*
X95323Y205017D01*
X95946Y205275D01*
X96481Y205685D01*
X96572Y205804D01*
X103566D01*
X103657Y205685D01*
X104192Y205275D01*
X104814Y205017D01*
X105482Y204929D01*
X106150Y205017D01*
X106773Y205275D01*
X107307Y205685D01*
X107399Y205804D01*
X114392D01*
X114484Y205685D01*
X115018Y205275D01*
X115641Y205017D01*
X116309Y204929D01*
X116977Y205017D01*
X117599Y205275D01*
X118134Y205685D01*
X118544Y206219D01*
X118802Y206842D01*
X118890Y207510D01*
X118802Y208178D01*
X118544Y208801D01*
X118134Y209335D01*
X117599Y209745D01*
X116977Y210003D01*
X116309Y210091D01*
D02*
G37*
G36*
X-35600D02*
X-36268Y210003D01*
X-36891Y209745D01*
X-37425Y209335D01*
X-37517Y209216D01*
X-44510D01*
X-44602Y209335D01*
X-45136Y209745D01*
X-45759Y210003D01*
X-46427Y210091D01*
X-47095Y210003D01*
X-47718Y209745D01*
X-48252Y209335D01*
X-48344Y209216D01*
X-55337D01*
X-55429Y209335D01*
X-55963Y209745D01*
X-56586Y210003D01*
X-57254Y210091D01*
X-57922Y210003D01*
X-58544Y209745D01*
X-59079Y209335D01*
X-59170Y209216D01*
X-66164D01*
X-66255Y209335D01*
X-66790Y209745D01*
X-67413Y210003D01*
X-68081Y210091D01*
X-68749Y210003D01*
X-69371Y209745D01*
X-69906Y209335D01*
X-69997Y209216D01*
X-76991D01*
X-77082Y209335D01*
X-77617Y209745D01*
X-78239Y210003D01*
X-78907Y210091D01*
X-79575Y210003D01*
X-80198Y209745D01*
X-80733Y209335D01*
X-80824Y209216D01*
X-87818D01*
X-87909Y209335D01*
X-88444Y209745D01*
X-89066Y210003D01*
X-89734Y210091D01*
X-90402Y210003D01*
X-91025Y209745D01*
X-91559Y209335D01*
X-91651Y209216D01*
X-98644D01*
X-98736Y209335D01*
X-99270Y209745D01*
X-99893Y210003D01*
X-100561Y210091D01*
X-101229Y210003D01*
X-101851Y209745D01*
X-102386Y209335D01*
X-102796Y208801D01*
X-103054Y208178D01*
X-103142Y207510D01*
X-103054Y206842D01*
X-102796Y206219D01*
X-102386Y205685D01*
X-101851Y205275D01*
X-101229Y205017D01*
X-100561Y204929D01*
X-99893Y205017D01*
X-99270Y205275D01*
X-98736Y205685D01*
X-98644Y205804D01*
X-91651D01*
X-91559Y205685D01*
X-91025Y205275D01*
X-90402Y205017D01*
X-89734Y204929D01*
X-89066Y205017D01*
X-88444Y205275D01*
X-87909Y205685D01*
X-87818Y205804D01*
X-80824D01*
X-80733Y205685D01*
X-80198Y205275D01*
X-79575Y205017D01*
X-78907Y204929D01*
X-78239Y205017D01*
X-77617Y205275D01*
X-77082Y205685D01*
X-76991Y205804D01*
X-69997D01*
X-69906Y205685D01*
X-69371Y205275D01*
X-68749Y205017D01*
X-68081Y204929D01*
X-67413Y205017D01*
X-66790Y205275D01*
X-66255Y205685D01*
X-66164Y205804D01*
X-59170D01*
X-59079Y205685D01*
X-58544Y205275D01*
X-57922Y205017D01*
X-57254Y204929D01*
X-56586Y205017D01*
X-55963Y205275D01*
X-55429Y205685D01*
X-55337Y205804D01*
X-48344D01*
X-48252Y205685D01*
X-47718Y205275D01*
X-47095Y205017D01*
X-46427Y204929D01*
X-45759Y205017D01*
X-45136Y205275D01*
X-44602Y205685D01*
X-44510Y205804D01*
X-37517D01*
X-37425Y205685D01*
X-36891Y205275D01*
X-36268Y205017D01*
X-35600Y204929D01*
X-34932Y205017D01*
X-34310Y205275D01*
X-33775Y205685D01*
X-33365Y206219D01*
X-33107Y206842D01*
X-33019Y207510D01*
X-33107Y208178D01*
X-33365Y208801D01*
X-33775Y209335D01*
X-34310Y209745D01*
X-34932Y210003D01*
X-35600Y210091D01*
D02*
G37*
G36*
X116309Y199264D02*
X115641Y199176D01*
X115018Y198918D01*
X114484Y198508D01*
X114392Y198389D01*
X107399D01*
X107307Y198508D01*
X106773Y198918D01*
X106150Y199176D01*
X105482Y199264D01*
X104814Y199176D01*
X104192Y198918D01*
X103657Y198508D01*
X103566Y198389D01*
X96572D01*
X96481Y198508D01*
X95946Y198918D01*
X95323Y199176D01*
X94655Y199264D01*
X93987Y199176D01*
X93365Y198918D01*
X92830Y198508D01*
X92739Y198389D01*
X85745D01*
X85654Y198508D01*
X85119Y198918D01*
X84497Y199176D01*
X83829Y199264D01*
X83161Y199176D01*
X82538Y198918D01*
X82003Y198508D01*
X81912Y198389D01*
X74918D01*
X74827Y198508D01*
X74292Y198918D01*
X73670Y199176D01*
X73002Y199264D01*
X72334Y199176D01*
X71711Y198918D01*
X71177Y198508D01*
X71085Y198389D01*
X64092D01*
X64000Y198508D01*
X63466Y198918D01*
X62843Y199176D01*
X62175Y199264D01*
X61507Y199176D01*
X60884Y198918D01*
X60350Y198508D01*
X60259Y198389D01*
X53265D01*
X53173Y198508D01*
X52639Y198918D01*
X52016Y199176D01*
X51348Y199264D01*
X50680Y199176D01*
X50058Y198918D01*
X49523Y198508D01*
X49113Y197974D01*
X48855Y197351D01*
X48767Y196683D01*
X48855Y196015D01*
X49113Y195393D01*
X49523Y194858D01*
X50058Y194448D01*
X50680Y194190D01*
X51348Y194102D01*
X52016Y194190D01*
X52639Y194448D01*
X53173Y194858D01*
X53265Y194977D01*
X60259D01*
X60350Y194858D01*
X60884Y194448D01*
X61507Y194190D01*
X62175Y194102D01*
X62843Y194190D01*
X63466Y194448D01*
X64000Y194858D01*
X64092Y194977D01*
X71085D01*
X71177Y194858D01*
X71711Y194448D01*
X72334Y194190D01*
X73002Y194102D01*
X73670Y194190D01*
X74292Y194448D01*
X74827Y194858D01*
X74918Y194977D01*
X81912D01*
X82003Y194858D01*
X82538Y194448D01*
X83161Y194190D01*
X83829Y194102D01*
X84497Y194190D01*
X85119Y194448D01*
X85654Y194858D01*
X85745Y194977D01*
X92739D01*
X92830Y194858D01*
X93365Y194448D01*
X93987Y194190D01*
X94655Y194102D01*
X95323Y194190D01*
X95946Y194448D01*
X96481Y194858D01*
X96572Y194977D01*
X103566D01*
X103657Y194858D01*
X104192Y194448D01*
X104814Y194190D01*
X105482Y194102D01*
X106150Y194190D01*
X106773Y194448D01*
X107307Y194858D01*
X107399Y194977D01*
X114392D01*
X114484Y194858D01*
X115018Y194448D01*
X115641Y194190D01*
X116309Y194102D01*
X116977Y194190D01*
X117599Y194448D01*
X118134Y194858D01*
X118544Y195393D01*
X118802Y196015D01*
X118890Y196683D01*
X118802Y197351D01*
X118544Y197974D01*
X118134Y198508D01*
X117599Y198918D01*
X116977Y199176D01*
X116309Y199264D01*
D02*
G37*
G36*
X-35600D02*
X-36268Y199176D01*
X-36891Y198918D01*
X-37425Y198508D01*
X-37517Y198389D01*
X-44510D01*
X-44602Y198508D01*
X-45136Y198918D01*
X-45759Y199176D01*
X-46427Y199264D01*
X-47095Y199176D01*
X-47718Y198918D01*
X-48252Y198508D01*
X-48344Y198389D01*
X-55337D01*
X-55429Y198508D01*
X-55963Y198918D01*
X-56586Y199176D01*
X-57254Y199264D01*
X-57922Y199176D01*
X-58544Y198918D01*
X-59079Y198508D01*
X-59170Y198389D01*
X-66164D01*
X-66255Y198508D01*
X-66790Y198918D01*
X-67413Y199176D01*
X-68081Y199264D01*
X-68749Y199176D01*
X-69371Y198918D01*
X-69906Y198508D01*
X-69997Y198389D01*
X-76991D01*
X-77082Y198508D01*
X-77617Y198918D01*
X-78239Y199176D01*
X-78907Y199264D01*
X-79575Y199176D01*
X-80198Y198918D01*
X-80733Y198508D01*
X-80824Y198389D01*
X-87818D01*
X-87909Y198508D01*
X-88444Y198918D01*
X-89066Y199176D01*
X-89734Y199264D01*
X-90402Y199176D01*
X-91025Y198918D01*
X-91559Y198508D01*
X-91651Y198389D01*
X-98644D01*
X-98736Y198508D01*
X-99270Y198918D01*
X-99893Y199176D01*
X-100561Y199264D01*
X-101229Y199176D01*
X-101851Y198918D01*
X-102386Y198508D01*
X-102796Y197974D01*
X-103054Y197351D01*
X-103142Y196683D01*
X-103054Y196015D01*
X-102796Y195393D01*
X-102386Y194858D01*
X-101851Y194448D01*
X-101229Y194190D01*
X-100561Y194102D01*
X-99893Y194190D01*
X-99270Y194448D01*
X-98736Y194858D01*
X-98644Y194977D01*
X-91651D01*
X-91559Y194858D01*
X-91025Y194448D01*
X-90402Y194190D01*
X-89734Y194102D01*
X-89066Y194190D01*
X-88444Y194448D01*
X-87909Y194858D01*
X-87818Y194977D01*
X-80824D01*
X-80733Y194858D01*
X-80198Y194448D01*
X-79575Y194190D01*
X-78907Y194102D01*
X-78239Y194190D01*
X-77617Y194448D01*
X-77082Y194858D01*
X-76991Y194977D01*
X-69997D01*
X-69906Y194858D01*
X-69371Y194448D01*
X-68749Y194190D01*
X-68081Y194102D01*
X-67413Y194190D01*
X-66790Y194448D01*
X-66255Y194858D01*
X-66164Y194977D01*
X-59170D01*
X-59079Y194858D01*
X-58544Y194448D01*
X-57922Y194190D01*
X-57254Y194102D01*
X-56586Y194190D01*
X-55963Y194448D01*
X-55429Y194858D01*
X-55337Y194977D01*
X-48344D01*
X-48252Y194858D01*
X-47718Y194448D01*
X-47095Y194190D01*
X-46427Y194102D01*
X-45759Y194190D01*
X-45136Y194448D01*
X-44602Y194858D01*
X-44510Y194977D01*
X-37517D01*
X-37425Y194858D01*
X-36891Y194448D01*
X-36268Y194190D01*
X-35600Y194102D01*
X-34932Y194190D01*
X-34310Y194448D01*
X-33775Y194858D01*
X-33365Y195393D01*
X-33107Y196015D01*
X-33019Y196683D01*
X-33107Y197351D01*
X-33365Y197974D01*
X-33775Y198508D01*
X-34310Y198918D01*
X-34932Y199176D01*
X-35600Y199264D01*
D02*
G37*
G36*
X-139567Y188223D02*
X-140956Y188086D01*
X-142292Y187681D01*
X-143523Y187023D01*
X-144602Y186138D01*
X-145488Y185058D01*
X-146146Y183827D01*
X-146551Y182492D01*
X-146688Y181102D01*
X-146551Y179713D01*
X-146146Y178377D01*
X-145488Y177146D01*
X-144602Y176067D01*
X-143523Y175181D01*
X-142292Y174523D01*
X-140956Y174118D01*
X-139567Y173981D01*
X-138178Y174118D01*
X-136842Y174523D01*
X-135611Y175181D01*
X-134532Y176067D01*
X-133646Y177146D01*
X-132988Y178377D01*
X-132583Y179713D01*
X-132446Y181102D01*
X-132583Y182492D01*
X-132988Y183827D01*
X-133646Y185058D01*
X-134532Y186138D01*
X-135611Y187023D01*
X-136842Y187681D01*
X-138178Y188086D01*
X-139567Y188223D01*
D02*
G37*
G36*
X759Y166754D02*
X91Y166666D01*
X-531Y166409D01*
X-1066Y165998D01*
X-1476Y165464D01*
X-1734Y164841D01*
X-1822Y164173D01*
X-1768Y163769D01*
X-2857Y162495D01*
X-3801Y160955D01*
X-4492Y159286D01*
X-4913Y157529D01*
X-5055Y155728D01*
X-5049D01*
Y152961D01*
X-5035Y152894D01*
X-5192Y151300D01*
X-5677Y149703D01*
X-6464Y148231D01*
X-7480Y146992D01*
X-7537Y146954D01*
X-10091Y144399D01*
X-10095Y144403D01*
X-11218Y143089D01*
X-11721Y142268D01*
X-13026Y142398D01*
X-13131Y142683D01*
X-13104Y142750D01*
X-12451Y143660D01*
X-12451Y143660D01*
X-11197Y145188D01*
X-10266Y146930D01*
X-9780Y148533D01*
X-9733Y148552D01*
X-9199Y148962D01*
X-8788Y149497D01*
X-8530Y150119D01*
X-8443Y150787D01*
X-8530Y151455D01*
X-8788Y152078D01*
X-9199Y152612D01*
X-9199Y153687D01*
X-8788Y154221D01*
X-8530Y154844D01*
X-8443Y155512D01*
X-8530Y156180D01*
X-8788Y156802D01*
X-9199Y157337D01*
X-9733Y157747D01*
X-10356Y158005D01*
X-11024Y158093D01*
X-11692Y158005D01*
X-12314Y157747D01*
X-12849Y157337D01*
X-13259Y156802D01*
X-13517Y156180D01*
X-13605Y155512D01*
X-13528Y154927D01*
X-14280Y153520D01*
X-14745Y151987D01*
X-14901Y150394D01*
X-14902D01*
X-14991Y149250D01*
X-15029Y148963D01*
X-15484Y147863D01*
X-15515Y147822D01*
X-16227Y146936D01*
X-17168Y145790D01*
X-17866Y144483D01*
X-18297Y143064D01*
X-18442Y141589D01*
X-18434D01*
Y81293D01*
X-18427Y81258D01*
X-18550Y80012D01*
X-18924Y78779D01*
X-19252Y78166D01*
X-19291Y78172D01*
X-19959Y78084D01*
X-20582Y77826D01*
X-21116Y77416D01*
X-21527Y76881D01*
X-21784Y76259D01*
X-21872Y75590D01*
X-21784Y74923D01*
X-21532Y74313D01*
X-21526Y74298D01*
X-21401Y73345D01*
X-21780Y72786D01*
X-21904Y72691D01*
X-22314Y72157D01*
X-22572Y71534D01*
X-22660Y70866D01*
X-22572Y70198D01*
X-22314Y69576D01*
X-21904Y69041D01*
X-21369Y68631D01*
X-20747Y68373D01*
X-20079Y68285D01*
X-19411Y68373D01*
X-18788Y68631D01*
X-18254Y69041D01*
X-17843Y69576D01*
X-17586Y70198D01*
X-17498Y70866D01*
X-17528Y71098D01*
X-16820Y71986D01*
X-16820Y71986D01*
X-15678Y73323D01*
X-15552Y73328D01*
X-14497Y72976D01*
Y69000D01*
X-14817Y68754D01*
X-15227Y68220D01*
X-15485Y67597D01*
X-15573Y66929D01*
X-15485Y66261D01*
X-15227Y65639D01*
X-14817Y65104D01*
X-14283Y64694D01*
X-13660Y64436D01*
X-12992Y64348D01*
X-12324Y64436D01*
X-11702Y64694D01*
X-11167Y65104D01*
X-10757Y65639D01*
X-10499Y66261D01*
X-10411Y66929D01*
X-10499Y67597D01*
X-10757Y68220D01*
X-11167Y68754D01*
X-11487Y69000D01*
Y107591D01*
X-10306Y108379D01*
X-9752Y108178D01*
X-9744Y108158D01*
X-9333Y107624D01*
X-8799Y107213D01*
X-8176Y106956D01*
X-7508Y106868D01*
X-6840Y106956D01*
X-6218Y107213D01*
X-5683Y107624D01*
X-5273Y108158D01*
X-5015Y108781D01*
X-4927Y109449D01*
X-5015Y110117D01*
X-5273Y110739D01*
X-5683Y111274D01*
X-6007Y111523D01*
X-6174Y112788D01*
X-6496Y113567D01*
X-5806Y114748D01*
X-4240D01*
Y118504D01*
Y122260D01*
X-5956D01*
X-6388Y122918D01*
X-6557Y123441D01*
X-6056Y124376D01*
X-5700Y125551D01*
X-5580Y126772D01*
X-5581D01*
Y129758D01*
X-5562D01*
X-5754Y131221D01*
X-6319Y132585D01*
X-7025Y133505D01*
X-6432Y134428D01*
X-6343Y134510D01*
X-5709Y134427D01*
X-5041Y134515D01*
X-4972Y134543D01*
X-4442Y134223D01*
X-4212Y132813D01*
X-4232Y132787D01*
X-4490Y132164D01*
X-4578Y131496D01*
X-4490Y130828D01*
X-4232Y130206D01*
X-3822Y129671D01*
X-3287Y129261D01*
X-2664Y129003D01*
X-1996Y128915D01*
X-1597Y128968D01*
X5188Y122183D01*
Y118234D01*
X4840Y117967D01*
X4430Y117432D01*
X4172Y116810D01*
X4084Y116142D01*
X4172Y115474D01*
X4430Y114851D01*
X4840Y114317D01*
X5374Y113906D01*
X5997Y113649D01*
X6665Y113561D01*
X7333Y113649D01*
X7955Y113906D01*
X8490Y114317D01*
X8900Y114851D01*
X9705Y115087D01*
X10328Y114830D01*
X10996Y114742D01*
X11664Y114830D01*
X12286Y115087D01*
X12821Y115498D01*
X13231Y116032D01*
X13489Y116655D01*
X13577Y117323D01*
X13489Y117991D01*
X13231Y118613D01*
X12821Y119148D01*
X12529Y119372D01*
Y120146D01*
X12414Y120722D01*
X12088Y121211D01*
X5460Y127839D01*
X6171Y128798D01*
X6351Y128702D01*
X7568Y128333D01*
X7607Y128237D01*
X8017Y127702D01*
X8552Y127292D01*
X9174Y127034D01*
X9843Y126946D01*
X10511Y127034D01*
X11133Y127292D01*
X11668Y127702D01*
X12078Y128237D01*
X12336Y128859D01*
X12424Y129528D01*
X12336Y130196D01*
X12078Y130818D01*
X11668Y131353D01*
X11133Y131763D01*
X10511Y132021D01*
X9843Y132109D01*
X9174Y132021D01*
X8552Y131763D01*
X8017Y131353D01*
X8006Y131338D01*
X7506Y131489D01*
X6450Y132054D01*
X5546Y132795D01*
X5530Y132819D01*
X-1409Y139758D01*
X-1356Y140157D01*
X-1444Y140825D01*
X-1702Y141448D01*
X-2112Y141983D01*
X-2413Y142213D01*
X-2524Y142384D01*
X-2659Y143005D01*
X-2673Y143682D01*
X-1896Y144592D01*
X-952Y146132D01*
X-261Y147801D01*
X161Y149557D01*
X303Y151358D01*
X303D01*
X314Y152535D01*
X440Y153818D01*
X924Y155415D01*
X1711Y156887D01*
X2709Y158103D01*
X3122Y158049D01*
X3790Y158137D01*
X4412Y158395D01*
X4947Y158805D01*
X5357Y159339D01*
X5615Y159962D01*
X5703Y160630D01*
X5615Y161298D01*
X5357Y161920D01*
X4947Y162455D01*
X4412Y162865D01*
X4287Y162917D01*
X3253Y163505D01*
X3341Y164173D01*
X3253Y164841D01*
X2995Y165464D01*
X2585Y165998D01*
X2050Y166409D01*
X1428Y166666D01*
X759Y166754D01*
D02*
G37*
G36*
X-47849Y157109D02*
X-48517Y157021D01*
X-49139Y156763D01*
X-49674Y156353D01*
X-50084Y155818D01*
X-50342Y155196D01*
X-50430Y154528D01*
X-50377Y154128D01*
X-57143Y147363D01*
X-57144Y147364D01*
X-57926Y146410D01*
X-58508Y145322D01*
X-58530Y145248D01*
X-58771Y145149D01*
X-59305Y144738D01*
X-59716Y144204D01*
X-59974Y143581D01*
X-60061Y142913D01*
X-59974Y142245D01*
X-59716Y141623D01*
X-59305Y141088D01*
X-58771Y140678D01*
X-58148Y140420D01*
X-57480Y140332D01*
X-56812Y140420D01*
X-56190Y140678D01*
X-55655Y141088D01*
X-55245Y141623D01*
X-54987Y142245D01*
X-54899Y142913D01*
X-54987Y143581D01*
X-55245Y144204D01*
X-55014Y145234D01*
X-48248Y151999D01*
X-47849Y151947D01*
X-47181Y152035D01*
X-46558Y152293D01*
X-46023Y152703D01*
X-45613Y153237D01*
X-45355Y153860D01*
X-45268Y154528D01*
X-45355Y155196D01*
X-45613Y155818D01*
X-46023Y156353D01*
X-46558Y156763D01*
X-47181Y157021D01*
X-47849Y157109D01*
D02*
G37*
G36*
X37988Y160455D02*
X37320Y160367D01*
X36698Y160109D01*
X36163Y159699D01*
X35753Y159165D01*
X35495Y158542D01*
X35407Y157874D01*
X35495Y157206D01*
X35753Y156583D01*
X36163Y156049D01*
X36182Y156035D01*
Y129528D01*
Y127965D01*
X36180D01*
X36325Y126118D01*
X36758Y124316D01*
X37467Y122604D01*
X38435Y121025D01*
X39639Y119616D01*
X39640Y119617D01*
X40849Y118408D01*
X47368Y111888D01*
X47438Y111842D01*
X48407Y110660D01*
X49167Y109239D01*
X49635Y107698D01*
X49784Y106176D01*
X49768Y106094D01*
Y100442D01*
X48933Y99607D01*
X48228D01*
Y99607D01*
X48228D01*
Y99607D01*
X42526D01*
X42389Y99704D01*
X41841Y100689D01*
X42296Y101776D01*
X42766Y101838D01*
X43389Y102095D01*
X43923Y102506D01*
X44333Y103040D01*
X44591Y103663D01*
X44679Y104331D01*
X44591Y104999D01*
X44333Y105621D01*
X43923Y106156D01*
X43389Y106566D01*
X42766Y106824D01*
X42098Y106912D01*
X41698Y106859D01*
X39115Y109443D01*
X39167Y109843D01*
X39079Y110511D01*
X38822Y111133D01*
X38411Y111668D01*
X37877Y112078D01*
X37811Y112105D01*
Y114461D01*
X34055D01*
X30299D01*
Y110811D01*
X31704D01*
X32029Y110005D01*
X32034Y109630D01*
X31611Y109305D01*
X31201Y108771D01*
X30944Y108148D01*
X30856Y107480D01*
X30944Y106812D01*
X31201Y106190D01*
X31611Y105655D01*
X32146Y105245D01*
X32769Y104987D01*
X33437Y104899D01*
X33836Y104952D01*
X36814Y101974D01*
X36761Y101575D01*
X36849Y100907D01*
X37107Y100284D01*
X37174Y100197D01*
X36606Y99016D01*
X31693D01*
Y98679D01*
X30602Y98227D01*
X28111Y100718D01*
X28172Y101181D01*
X28084Y101849D01*
X27826Y102472D01*
X27416Y103006D01*
X26881Y103416D01*
X26259Y103674D01*
X25591Y103762D01*
X24923Y103674D01*
X24300Y103416D01*
X23765Y103006D01*
X23355Y102472D01*
X23097Y101849D01*
X23009Y101181D01*
X23097Y100513D01*
X23355Y99891D01*
X23765Y99356D01*
X24300Y98946D01*
X24923Y98688D01*
X25591Y98600D01*
X25927Y98644D01*
X29352Y95219D01*
X29377Y94748D01*
X29144Y93757D01*
X28883Y93557D01*
X28473Y93023D01*
X28216Y92400D01*
X28128Y91732D01*
X28216Y91064D01*
X28473Y90442D01*
X28883Y89907D01*
X29203Y89662D01*
Y88976D01*
X29221Y88887D01*
X29301Y88283D01*
X29568Y87636D01*
X29994Y87081D01*
X30549Y86655D01*
X30741Y86576D01*
X31693Y86024D01*
Y80639D01*
X29517D01*
X29465Y80629D01*
X28043Y80769D01*
X26626Y81199D01*
X25320Y81897D01*
X24175Y82837D01*
X23236Y83981D01*
X22537Y85287D01*
X22108Y86704D01*
X21968Y88127D01*
X21978Y88178D01*
X21969Y88224D01*
X22107Y89275D01*
X22530Y90298D01*
X23176Y91139D01*
X23215Y91165D01*
X23616Y91566D01*
X24016Y91513D01*
X24684Y91601D01*
X25306Y91859D01*
X25841Y92269D01*
X26251Y92804D01*
X26509Y93426D01*
X26597Y94095D01*
X26509Y94762D01*
X26251Y95385D01*
X25841Y95920D01*
X25306Y96330D01*
X24684Y96588D01*
X24016Y96676D01*
X23348Y96588D01*
X22725Y96330D01*
X22191Y95920D01*
X21780Y95385D01*
X21523Y94762D01*
X21464Y94320D01*
X21082Y93298D01*
Y93298D01*
X20181Y92201D01*
X19512Y90949D01*
X19100Y89591D01*
X18961Y88178D01*
X18963D01*
X19094Y86527D01*
X19480Y84917D01*
X20114Y83387D01*
X20979Y81975D01*
X22054Y80716D01*
X23314Y79641D01*
X24726Y78775D01*
X26256Y78141D01*
X27866Y77755D01*
X29517Y77625D01*
Y77629D01*
X31693D01*
Y76575D01*
X31874D01*
Y75303D01*
X36811D01*
Y74303D01*
X31874D01*
Y73032D01*
X31693D01*
Y71978D01*
X29230D01*
Y71996D01*
X27791Y71807D01*
X26451Y71252D01*
X25300Y70369D01*
X25309Y70361D01*
X24641Y69491D01*
X24235Y68510D01*
X24221Y68478D01*
X24078Y67390D01*
X24085D01*
Y65456D01*
X23765Y65211D01*
X23355Y64676D01*
X23097Y64054D01*
X23009Y63386D01*
X23097Y62718D01*
X23355Y62095D01*
X23765Y61561D01*
X24300Y61150D01*
X24923Y60893D01*
X25591Y60805D01*
X26259Y60893D01*
X26881Y61150D01*
X27416Y61561D01*
X27826Y62095D01*
X28084Y62718D01*
X28172Y63386D01*
X28084Y64054D01*
X27826Y64676D01*
X27416Y65211D01*
X27096Y65456D01*
Y67390D01*
X27095Y67395D01*
X27184Y67844D01*
X27439Y68225D01*
X27442Y68227D01*
X27482Y68287D01*
X28252Y68801D01*
X29159Y68981D01*
X29230Y68967D01*
X30622D01*
X31693Y68701D01*
Y63583D01*
Y60055D01*
X29906D01*
Y56799D01*
X34055D01*
X38205D01*
Y59252D01*
X41929D01*
X42126Y58153D01*
Y58071D01*
X48425D01*
X48973Y57117D01*
Y53689D01*
X48946Y53653D01*
X48688Y53030D01*
X48600Y52362D01*
X48688Y51694D01*
X48946Y51072D01*
X49356Y50537D01*
X49891Y50127D01*
X50513Y49869D01*
X51181Y49781D01*
X51849Y49869D01*
X52472Y50127D01*
X53006Y50537D01*
X53416Y51072D01*
X53674Y51694D01*
X53762Y52362D01*
X53674Y53030D01*
X53416Y53653D01*
X53389Y53689D01*
Y61212D01*
X53369Y61313D01*
X53509Y62738D01*
X53954Y64206D01*
X54677Y65558D01*
X55585Y66665D01*
X55671Y66722D01*
X56591Y67642D01*
X56614Y67676D01*
X57831Y69102D01*
X58832Y70734D01*
X59565Y72504D01*
X60012Y74365D01*
X60159Y76235D01*
X60167Y76274D01*
Y92362D01*
X60147Y92463D01*
X60287Y93888D01*
X60732Y95356D01*
X61455Y96708D01*
X62428Y97893D01*
X63613Y98866D01*
X64966Y99589D01*
X66433Y100034D01*
X67580Y100147D01*
X67607Y100127D01*
X67844Y100029D01*
X68053Y99889D01*
X68898Y99721D01*
X69743Y99889D01*
X69951Y100029D01*
X70188Y100127D01*
X70723Y100537D01*
X71133Y101072D01*
X71391Y101694D01*
X71479Y102362D01*
X71391Y103030D01*
X71133Y103653D01*
X70723Y104187D01*
X70188Y104597D01*
X69566Y104855D01*
X68898Y104943D01*
X68230Y104855D01*
X67607Y104597D01*
X67520Y104531D01*
X66050Y104415D01*
X64188Y103968D01*
X62419Y103235D01*
X60786Y102235D01*
X59330Y100991D01*
X58087Y99535D01*
X57086Y97902D01*
X56353Y96133D01*
X56102Y95086D01*
X54921Y95226D01*
Y99607D01*
X53381D01*
Y106094D01*
X53382D01*
X53237Y107942D01*
X52805Y109743D01*
X52096Y111455D01*
X51127Y113035D01*
X49924Y114444D01*
X49923Y114443D01*
X42194Y122171D01*
X42125Y122218D01*
X41155Y123399D01*
X40396Y124820D01*
X39928Y126362D01*
X39778Y127884D01*
X39794Y127965D01*
Y129092D01*
X39873Y129209D01*
X40609Y129734D01*
X40975Y129827D01*
X41064Y129790D01*
X41732Y129702D01*
X42400Y129790D01*
X43023Y130048D01*
X43523Y130432D01*
X44284Y130117D01*
X45284Y129349D01*
X45322Y129293D01*
X45324Y129292D01*
X45325Y129290D01*
X47754Y126860D01*
X47754Y126860D01*
X52584Y122030D01*
X52580Y122026D01*
X53953Y120853D01*
X55494Y119909D01*
X57163Y119218D01*
X58919Y118796D01*
X60536Y118669D01*
X60787Y118341D01*
X61322Y117931D01*
X61944Y117673D01*
X62612Y117585D01*
X63280Y117673D01*
X63903Y117931D01*
X64437Y118341D01*
X65104Y118647D01*
X65639Y118237D01*
X66261Y117979D01*
X66929Y117891D01*
X67597Y117979D01*
X68220Y118237D01*
X68754Y118647D01*
X69164Y119182D01*
X69422Y119804D01*
X69510Y120472D01*
X69422Y121141D01*
X69164Y121763D01*
X68754Y122298D01*
X68220Y122708D01*
X67597Y122966D01*
X66929Y123054D01*
X66327Y122974D01*
X66230Y123055D01*
X64487Y123986D01*
X62596Y124560D01*
X60630Y124753D01*
X60630Y124753D01*
X59501Y124878D01*
X58524Y125283D01*
X57687Y125925D01*
X57662Y125963D01*
X48198Y135427D01*
X48250Y135827D01*
X48162Y136495D01*
X47905Y137117D01*
X47494Y137652D01*
X46960Y138062D01*
X46337Y138320D01*
X45669Y138408D01*
X45001Y138320D01*
X44379Y138062D01*
X43844Y137652D01*
X43434Y137117D01*
X43176Y136495D01*
X43088Y135827D01*
X43096Y135767D01*
X42838Y135400D01*
X42142Y134836D01*
X42085Y134818D01*
X41732Y134865D01*
X41064Y134777D01*
X40975Y134740D01*
X39861Y135377D01*
X39794Y135475D01*
Y156035D01*
X39813Y156049D01*
X39828Y156068D01*
X57669D01*
X57750Y156084D01*
X59272Y155934D01*
X60814Y155466D01*
X62234Y154707D01*
X63416Y153737D01*
X63463Y153668D01*
X76950Y140181D01*
X76946Y140157D01*
X77034Y139489D01*
X77292Y138867D01*
X77702Y138332D01*
X78237Y137922D01*
X78860Y137664D01*
X79528Y137576D01*
X80196Y137664D01*
X80818Y137922D01*
X81353Y138332D01*
X81763Y138867D01*
X82021Y139489D01*
X82109Y140157D01*
X82021Y140825D01*
X81763Y141448D01*
X81353Y141983D01*
X80818Y142393D01*
X80196Y142651D01*
X79528Y142739D01*
X79504Y142736D01*
X66017Y156222D01*
X66018Y156224D01*
X64609Y157427D01*
X63030Y158395D01*
X61318Y159104D01*
X59516Y159537D01*
X57669Y159682D01*
Y159680D01*
X39828D01*
X39813Y159699D01*
X39279Y160109D01*
X38656Y160367D01*
X37988Y160455D01*
D02*
G37*
G36*
X-91253Y134695D02*
X-91991Y134532D01*
X-92661Y134183D01*
X-93218Y133672D01*
X-93624Y133035D01*
X-93700Y132795D01*
X-90825Y132288D01*
X-90409Y134647D01*
X-90498Y134662D01*
X-91253Y134695D01*
D02*
G37*
G36*
X-89424Y134473D02*
X-89840Y132115D01*
X-86965Y131608D01*
X-86954Y131859D01*
X-87117Y132597D01*
X-87466Y133267D01*
X-87977Y133824D01*
X-88614Y134230D01*
X-89335Y134457D01*
X-89424Y134473D01*
D02*
G37*
G36*
X-93874Y131810D02*
X-93884Y131559D01*
X-93721Y130822D01*
X-93372Y130151D01*
X-92861Y129594D01*
X-92224Y129188D01*
X-91503Y128961D01*
X-91414Y128945D01*
X-90998Y131303D01*
X-93874Y131810D01*
D02*
G37*
G36*
X-71867Y131277D02*
X-72605Y131114D01*
X-73275Y130765D01*
X-73832Y130254D01*
X-74238Y129617D01*
X-74314Y129377D01*
X-71439Y128870D01*
X-71023Y131228D01*
X-71112Y131244D01*
X-71867Y131277D01*
D02*
G37*
G36*
X-90013Y131130D02*
X-90429Y128771D01*
X-90340Y128756D01*
X-89585Y128723D01*
X-88847Y128886D01*
X-88177Y129235D01*
X-87620Y129746D01*
X-87214Y130383D01*
X-87138Y130623D01*
X-90013Y131130D01*
D02*
G37*
G36*
X-70038Y131055D02*
X-70454Y128696D01*
X-67579Y128189D01*
X-67568Y128440D01*
X-67731Y129178D01*
X-68080Y129849D01*
X-68591Y130406D01*
X-69228Y130812D01*
X-69949Y131039D01*
X-70038Y131055D01*
D02*
G37*
G36*
X-74488Y128392D02*
X-74498Y128141D01*
X-74335Y127403D01*
X-73986Y126733D01*
X-73475Y126176D01*
X-72838Y125770D01*
X-72117Y125542D01*
X-72028Y125527D01*
X-71612Y127885D01*
X-74488Y128392D01*
D02*
G37*
G36*
X-70627Y127712D02*
X-71043Y125353D01*
X-70954Y125337D01*
X-70199Y125304D01*
X-69461Y125468D01*
X-68791Y125817D01*
X-68234Y126327D01*
X-67828Y126965D01*
X-67752Y127205D01*
X-70627Y127712D01*
D02*
G37*
G36*
X-96164Y125969D02*
X-96876Y125811D01*
X-97523Y125474D01*
X-98061Y124981D01*
X-98453Y124366D01*
X-98673Y123670D01*
X-98808Y122902D01*
X-96548Y122503D01*
X-95938Y125959D01*
X-96164Y125969D01*
D02*
G37*
G36*
X-94954Y125786D02*
X-95563Y122330D01*
X-93302Y121931D01*
X-93167Y122699D01*
X-93135Y123428D01*
X-93293Y124141D01*
X-93630Y124788D01*
X-94123Y125326D01*
X-94738Y125718D01*
X-94954Y125786D01*
D02*
G37*
G36*
X1984Y122260D02*
X-3240D01*
Y119004D01*
X1984D01*
Y122260D01*
D02*
G37*
G36*
X-69023Y121184D02*
X-69736Y121026D01*
X-70383Y120689D01*
X-70921Y120196D01*
X-71313Y119580D01*
X-71533Y118884D01*
X-71668Y118116D01*
X-69407Y117718D01*
X-68798Y121174D01*
X-69023Y121184D01*
D02*
G37*
G36*
X-67813Y121000D02*
X-68423Y117544D01*
X-66162Y117146D01*
X-66026Y117913D01*
X-65995Y118642D01*
X-66153Y119355D01*
X-66489Y120002D01*
X-66983Y120540D01*
X-67598Y120932D01*
X-67813Y121000D01*
D02*
G37*
G36*
X37811Y119110D02*
X34555D01*
Y115461D01*
X37811D01*
Y119110D01*
D02*
G37*
G36*
X33555D02*
X30299D01*
Y115461D01*
X33555D01*
Y119110D01*
D02*
G37*
G36*
X1984Y118004D02*
X-3240D01*
Y114748D01*
X1984D01*
Y118004D01*
D02*
G37*
G36*
X-5315Y102783D02*
X-6137Y102675D01*
X-6903Y102357D01*
X-7561Y101853D01*
X-8066Y101195D01*
X-8383Y100428D01*
X-8492Y99606D01*
X-8383Y98784D01*
X-8066Y98018D01*
X-7561Y97360D01*
X-6903Y96855D01*
X-6137Y96538D01*
X-5315Y96430D01*
X-4493Y96538D01*
X-3727Y96855D01*
X-3069Y97360D01*
X-2564Y98018D01*
X-2246Y98784D01*
X-2138Y99606D01*
X-2246Y100428D01*
X-2564Y101195D01*
X-3069Y101853D01*
X-3727Y102357D01*
X-4493Y102675D01*
X-5315Y102783D01*
D02*
G37*
G36*
Y71366D02*
X-6137Y71258D01*
X-6903Y70940D01*
X-7561Y70435D01*
X-8066Y69777D01*
X-8383Y69011D01*
X-8492Y68189D01*
X-8383Y67367D01*
X-8066Y66601D01*
X-7561Y65943D01*
X-6903Y65438D01*
X-6137Y65120D01*
X-5315Y65012D01*
X-4493Y65120D01*
X-3727Y65438D01*
X-3069Y65943D01*
X-2564Y66601D01*
X-2246Y67367D01*
X-2138Y68189D01*
X-2246Y69011D01*
X-2564Y69777D01*
X-3069Y70435D01*
X-3727Y70940D01*
X-4493Y71258D01*
X-5315Y71366D01*
D02*
G37*
G36*
X1984Y60449D02*
X-3240D01*
Y57193D01*
X1984D01*
Y60449D01*
D02*
G37*
G36*
X-4240D02*
X-9465D01*
Y57193D01*
X-4240D01*
Y60449D01*
D02*
G37*
G36*
X1984Y56193D02*
X-3240D01*
Y52937D01*
X1984D01*
Y56193D01*
D02*
G37*
G36*
X-4240D02*
X-9465D01*
Y52937D01*
X-4240D01*
Y56193D01*
D02*
G37*
G36*
X38205Y55799D02*
X34555D01*
Y52543D01*
X38205D01*
Y55799D01*
D02*
G37*
G36*
X33555D02*
X29906D01*
Y52543D01*
X33555D01*
Y55799D01*
D02*
G37*
G36*
X801364Y-182930D02*
X793347D01*
Y-183216D01*
Y-183502D01*
Y-183789D01*
Y-184075D01*
Y-184361D01*
X793061D01*
Y-184648D01*
Y-184934D01*
Y-185220D01*
Y-185507D01*
Y-185793D01*
Y-186079D01*
X792774D01*
Y-186365D01*
Y-186652D01*
Y-186938D01*
Y-187224D01*
Y-187511D01*
Y-187797D01*
X792488D01*
Y-188083D01*
Y-188370D01*
Y-188656D01*
Y-188942D01*
Y-189229D01*
Y-189515D01*
X792202D01*
Y-189801D01*
Y-190088D01*
Y-190374D01*
Y-190660D01*
Y-190946D01*
Y-191233D01*
Y-191519D01*
X791915D01*
Y-191806D01*
Y-192092D01*
Y-192378D01*
Y-192664D01*
Y-192951D01*
Y-193237D01*
X791629D01*
Y-193523D01*
Y-193810D01*
Y-194096D01*
X798787D01*
Y-193810D01*
X799932D01*
Y-193523D01*
X800505D01*
Y-193237D01*
X800791D01*
Y-192951D01*
X801077D01*
Y-192664D01*
X801364D01*
Y-192378D01*
X801650D01*
Y-192092D01*
Y-191806D01*
X801936D01*
Y-191519D01*
Y-191233D01*
X802223D01*
Y-190946D01*
Y-190660D01*
X802509D01*
Y-190374D01*
Y-190088D01*
Y-189801D01*
Y-189515D01*
X802795D01*
Y-189229D01*
Y-188942D01*
Y-188656D01*
Y-188370D01*
Y-188083D01*
X803082D01*
Y-187797D01*
Y-187511D01*
Y-187224D01*
Y-186938D01*
Y-186652D01*
Y-186365D01*
Y-186079D01*
Y-185793D01*
Y-185507D01*
Y-185220D01*
Y-184934D01*
X802795D01*
Y-184648D01*
Y-184361D01*
X802509D01*
Y-184075D01*
Y-183789D01*
X802223D01*
Y-183502D01*
X801936D01*
Y-183216D01*
X801364D01*
Y-182930D01*
D02*
G37*
%LPD*%
D10*
X130191Y129686D02*
G03*
X126772Y131102I-3420J-3420D01*
G01*
X166535Y268299D02*
G03*
X163607Y275370I-10000J0D01*
G01*
X81275Y297465D02*
G03*
X74204Y300394I-7071J-7071D01*
G01*
X49040Y303323D02*
G03*
X56111Y300394I7071J7071D01*
G01*
X48819Y303543D02*
G03*
X44067Y305512I-4752J-4752D01*
G01*
X222441Y373811D02*
G03*
X219512Y380882I-10000J0D01*
G01*
Y348252D02*
G03*
X222441Y355323I-7071J7071D01*
G01*
X218898Y381496D02*
G03*
X213195Y383858I-5703J-5703D01*
G01*
X193906D02*
G03*
X186835Y380929I0J-10000D01*
G01*
X212378Y341118D02*
G03*
X209449Y334047I7071J-7071D01*
G01*
X206520Y303370D02*
G03*
X209449Y310441I-7071J7071D01*
G01*
X191527Y292520D02*
G03*
X198598Y295449I0J10000D01*
G01*
X159244Y357480D02*
G03*
X166315Y360409I0J10000D01*
G01*
X157337Y295813D02*
G03*
X153881Y297244I-3456J-3456D01*
G01*
X170433Y292520D02*
G03*
X163779Y289764I0J-9409D01*
G01*
X159843D02*
G03*
X157337Y295813I-8554J0D01*
G01*
X149024Y357480D02*
G03*
X141953Y354551I0J-10000D01*
G01*
X153881Y297244D02*
G03*
X148320Y294941I0J-7864D01*
G01*
X-107260Y315527D02*
G03*
X-100189Y312598I7071J7071D01*
G01*
X-93701Y310236D02*
G03*
X-99404Y312598I-5703J-5703D01*
G01*
X-91905Y308441D02*
G03*
X-84834Y305512I7071J7071D01*
G01*
X134277Y285039D02*
G03*
X141348Y287968I0J10000D01*
G01*
X115748Y290774D02*
G03*
X116929Y287922I4033J0D01*
G01*
X116983Y293754D02*
G03*
X115748Y290774I2981J-2981D01*
G01*
X116929Y287922D02*
G03*
X123889Y285039I6960J6960D01*
G01*
X113487Y285212D02*
G03*
X120559Y282283I7071J7071D01*
G01*
X-76173Y300787D02*
G03*
X-83244Y297858I0J-10000D01*
G01*
X-94163Y291082D02*
G03*
X-87092Y294011I0J10000D01*
G01*
X-114896Y292849D02*
G03*
X-110630Y291082I4266J4266D01*
G01*
X121252Y316161D02*
G03*
X124016Y322835I-6673J6673D01*
G01*
X129923Y320474D02*
G03*
X132648Y327054I-6583J6581D01*
G01*
X129921Y320472D02*
G03*
X129923Y320474I-6582J6582D01*
G01*
Y335432D02*
G03*
X129921Y335433I-6583J-6581D01*
G01*
X132648Y328851D02*
G03*
X129923Y335432I-9308J0D01*
G01*
X67959Y102362D02*
G03*
X57959Y92362I0J-10000D01*
G01*
X55030Y69203D02*
G03*
X57959Y76274I-7071J7071D01*
G01*
X54110Y68283D02*
G03*
X51181Y61212I7071J-7071D01*
G01*
X130191Y129686D02*
X145169Y114708D01*
X166535Y267323D02*
Y268299D01*
X162598Y276378D02*
X163607Y275370D01*
X56111Y300394D02*
X74204D01*
X81275Y297465D02*
X81890Y296850D01*
X48819Y303543D02*
X49040Y303323D01*
X-84834Y305512D02*
X44067D01*
X218898Y381496D02*
X219512Y380882D01*
X222441Y355323D02*
Y373811D01*
X193906Y383858D02*
X213195D01*
X166315Y360409D02*
X186835Y380929D01*
X212378Y341118D02*
X219512Y348252D01*
X209449Y310441D02*
Y334047D01*
X198598Y295449D02*
X206520Y303370D01*
X170433Y292520D02*
X191527D01*
X149024Y357480D02*
X159244D01*
X141348Y287968D02*
X148320Y294941D01*
X133858Y346457D02*
X141953Y354551D01*
X-112205Y320472D02*
X-107260Y315527D01*
X-100189Y312598D02*
X-99404D01*
X-93701Y310236D02*
X-91905Y308441D01*
X123889Y285039D02*
X134277D01*
X110630Y288070D02*
X113487Y285212D01*
X120559Y282283D02*
X153150D01*
X-76173Y300787D02*
X-33070D01*
X-87092Y294011D02*
X-83244Y297858D01*
X-110630Y291082D02*
X-94163D01*
X-118898Y296850D02*
X-114896Y292849D01*
X124016Y322835D02*
Y328740D01*
X113474Y304025D02*
X129923Y320474D01*
X121232Y316142D02*
X121252Y316161D01*
X125984Y339370D02*
X129923Y335432D01*
X132648Y327054D02*
Y328851D01*
X132677Y260224D02*
X135039Y262587D01*
X132677Y242913D02*
Y260224D01*
X130315Y240551D02*
X132677Y242913D01*
X186221Y281102D02*
X189764D01*
X181102Y286221D02*
X186221Y281102D01*
X175591Y286221D02*
X181102D01*
X171260D02*
X175591D01*
Y289370D01*
X166535Y261024D02*
Y267323D01*
X172441D01*
X159449Y279528D02*
X162598Y276378D01*
X161417Y287795D02*
X163779Y290158D01*
X133858Y346457D02*
Y346457D01*
X104822Y299731D02*
X121252Y316161D01*
X116983Y293754D02*
X118504Y295276D01*
X102362Y288976D02*
X113386Y277953D01*
X113474Y297845D02*
Y304025D01*
X110511Y294882D02*
X113474Y297845D01*
X107874Y294882D02*
X110511D01*
X101969Y288976D02*
X107874Y294882D01*
X122185Y277953D02*
X126772Y273366D01*
X113386Y277953D02*
X122185D01*
X101969Y288976D02*
X102362D01*
X80315Y257087D02*
Y266142D01*
Y257087D02*
X94095Y243307D01*
X119291D01*
X122047Y240551D01*
X126772D01*
Y273366D02*
X135039Y265098D01*
Y262587D02*
Y265098D01*
X126772Y240551D02*
X130315D01*
X67959Y102362D02*
X68898D01*
X57959Y76274D02*
Y92362D01*
X54110Y68283D02*
X55030Y69203D01*
X51181Y52362D02*
Y61212D01*
X68898Y101929D02*
Y102362D01*
X36999Y311084D02*
X39370Y311024D01*
X54134Y308071D01*
X66043Y305020D01*
X70965D01*
X87598Y308169D01*
X89764Y287402D01*
X95669Y282677D01*
Y278346D02*
Y282677D01*
Y268504D02*
Y278346D01*
Y268504D02*
X99213Y264961D01*
X95669Y282677D02*
X101969Y288976D01*
D11*
X132504Y184031D02*
G03*
X139575Y181102I7071J7071D01*
G01*
X128519Y188016D02*
G03*
X121448Y190945I-7071J-7071D01*
G01*
X51043Y77027D02*
G03*
X51181Y77363I-337J335D01*
G01*
X51042Y77026D02*
G03*
X51043Y77027I-336J336D01*
G01*
X45180Y72835D02*
G03*
X48031Y74016I0J4033D01*
G01*
X139575Y181102D02*
X147441D01*
X787Y190945D02*
X121448Y190945D01*
X128519Y188016D02*
X132504Y184031D01*
X51042Y77026D02*
X51043Y77027D01*
X48031Y74016D02*
X51042Y77026D01*
X42913Y72835D02*
X45180D01*
X36811Y74803D02*
X42913Y72835D01*
X79921Y266536D02*
X80315Y266142D01*
X79921Y266536D02*
Y278346D01*
X95669D02*
X95669Y278346D01*
X79921Y278346D02*
X95669D01*
X40521Y218337D02*
X51348D01*
X40521Y229164D02*
X51348D01*
X40521Y239990D02*
X51348D01*
X62175D01*
X73002D01*
X83829D01*
X94655D01*
X105482D01*
X116309D01*
X51348Y229164D02*
X62175D01*
X73002D01*
X83829D01*
X94655D01*
X105482D01*
X116309D01*
X51348Y218337D02*
X62175D01*
X73002D01*
X83829D01*
X94655D01*
X105482D01*
X116309D01*
X62175Y207510D02*
X73002D01*
X83829D01*
X94655D01*
X105482D01*
X116309D01*
X62175Y196683D02*
X73002D01*
X83829D01*
X94655D01*
X105482D01*
X116309D01*
X-100561D02*
X-89734D01*
X-78907D01*
X-68081D01*
X-57254D01*
X-46427D01*
X-35600D01*
X-100561Y207510D02*
X-89734D01*
X-78907D01*
X-68081D01*
X-57254D01*
X-46427D01*
X-35600D01*
X-100561Y218337D02*
X-89734D01*
X-78907D01*
X-68081D01*
X-57254D01*
X-46427D01*
X-35600D01*
X-100561Y229164D02*
X-89734D01*
X-78907D01*
X-68081D01*
X-57254D01*
X-46427D01*
X-35600D01*
X-100561Y239990D02*
X-89734D01*
X-78907D01*
X-68081D01*
X-57254D01*
X-46427D01*
X-35600D01*
X51348Y196683D02*
X62175D01*
X51348Y207510D02*
X62175D01*
X40521D02*
X51348D01*
X958661Y-263782D02*
Y-271654D01*
X962597D01*
X963909Y-270342D01*
Y-265094D01*
X962597Y-263782D01*
X958661D01*
X967845Y-271654D02*
X970469D01*
X971780Y-270342D01*
Y-267718D01*
X970469Y-266406D01*
X967845D01*
X966533Y-267718D01*
Y-270342D01*
X967845Y-271654D01*
X979652Y-266406D02*
X975716D01*
X974404Y-267718D01*
Y-270342D01*
X975716Y-271654D01*
X979652D01*
X982276Y-266406D02*
Y-270342D01*
X983588Y-271654D01*
X987523D01*
Y-266406D01*
X990147Y-271654D02*
Y-266406D01*
X991459D01*
X992771Y-267718D01*
Y-271654D01*
Y-267718D01*
X994083Y-266406D01*
X995395Y-267718D01*
Y-271654D01*
X1001955D02*
X999331D01*
X998019Y-270342D01*
Y-267718D01*
X999331Y-266406D01*
X1001955D01*
X1003267Y-267718D01*
Y-269030D01*
X998019D01*
X1005890Y-271654D02*
Y-266406D01*
X1009826D01*
X1011138Y-267718D01*
Y-271654D01*
X1015074Y-265094D02*
Y-266406D01*
X1013762D01*
X1016386D01*
X1015074D01*
Y-270342D01*
X1016386Y-271654D01*
X958661Y-224412D02*
Y-232283D01*
X962597D01*
X963909Y-230972D01*
Y-225724D01*
X962597Y-224412D01*
X958661D01*
X967845Y-227036D02*
X970469D01*
X971780Y-228348D01*
Y-232283D01*
X967845D01*
X966533Y-230972D01*
X967845Y-229660D01*
X971780D01*
X975716Y-225724D02*
Y-227036D01*
X974404D01*
X977028D01*
X975716D01*
Y-230972D01*
X977028Y-232283D01*
X984900D02*
X982276D01*
X980964Y-230972D01*
Y-228348D01*
X982276Y-227036D01*
X984900D01*
X986212Y-228348D01*
Y-229660D01*
X980964D01*
X958661Y-185042D02*
Y-192913D01*
X963909D01*
X967845Y-187666D02*
X970469D01*
X971780Y-188978D01*
Y-192913D01*
X967845D01*
X966533Y-191602D01*
X967845Y-190290D01*
X971780D01*
X974404Y-187666D02*
Y-191602D01*
X975716Y-192913D01*
X979652D01*
Y-194225D01*
X978340Y-195537D01*
X977028D01*
X979652Y-192913D02*
Y-187666D01*
X986212Y-192913D02*
X983588D01*
X982276Y-191602D01*
Y-188978D01*
X983588Y-187666D01*
X986212D01*
X987523Y-188978D01*
Y-190290D01*
X982276D01*
X990147Y-187666D02*
Y-192913D01*
Y-190290D01*
X991459Y-188978D01*
X992771Y-187666D01*
X994083D01*
X1005890Y-192913D02*
Y-185042D01*
X1011138Y-192913D01*
Y-185042D01*
X1015074Y-187666D02*
X1017698D01*
X1019009Y-188978D01*
Y-192913D01*
X1015074D01*
X1013762Y-191602D01*
X1015074Y-190290D01*
X1019009D01*
X1021633Y-192913D02*
Y-187666D01*
X1022945D01*
X1024257Y-188978D01*
Y-192913D01*
Y-188978D01*
X1025569Y-187666D01*
X1026881Y-188978D01*
Y-192913D01*
X1033440D02*
X1030817D01*
X1029505Y-191602D01*
Y-188978D01*
X1030817Y-187666D01*
X1033440D01*
X1034752Y-188978D01*
Y-190290D01*
X1029505D01*
X958661Y-145672D02*
Y-153543D01*
X962597D01*
X963909Y-152231D01*
Y-146984D01*
X962597Y-145672D01*
X958661D01*
X967845Y-153543D02*
X970469D01*
X971780Y-152231D01*
Y-149608D01*
X970469Y-148296D01*
X967845D01*
X966533Y-149608D01*
Y-152231D01*
X967845Y-153543D01*
X979652Y-148296D02*
X975716D01*
X974404Y-149608D01*
Y-152231D01*
X975716Y-153543D01*
X979652D01*
X982276Y-148296D02*
Y-152231D01*
X983588Y-153543D01*
X987523D01*
Y-148296D01*
X990147Y-153543D02*
Y-148296D01*
X991459D01*
X992771Y-149608D01*
Y-153543D01*
Y-149608D01*
X994083Y-148296D01*
X995395Y-149608D01*
Y-153543D01*
X1001955D02*
X999331D01*
X998019Y-152231D01*
Y-149608D01*
X999331Y-148296D01*
X1001955D01*
X1003267Y-149608D01*
Y-150919D01*
X998019D01*
X1005890Y-153543D02*
Y-148296D01*
X1009826D01*
X1011138Y-149608D01*
Y-153543D01*
X1015074Y-146984D02*
Y-148296D01*
X1013762D01*
X1016386D01*
X1015074D01*
Y-152231D01*
X1016386Y-153543D01*
X761811Y-263782D02*
Y-271654D01*
X765747D01*
X767059Y-270342D01*
Y-265094D01*
X765747Y-263782D01*
X761811D01*
X773618Y-271654D02*
X770994D01*
X769683Y-270342D01*
Y-267718D01*
X770994Y-266406D01*
X773618D01*
X774930Y-267718D01*
Y-269030D01*
X769683D01*
X777554Y-271654D02*
X781490D01*
X782802Y-270342D01*
X781490Y-269030D01*
X778866D01*
X777554Y-267718D01*
X778866Y-266406D01*
X782802D01*
X788049Y-274277D02*
X789361D01*
X790673Y-272966D01*
Y-266406D01*
X786737D01*
X785426Y-267718D01*
Y-270342D01*
X786737Y-271654D01*
X790673D01*
X793297D02*
X795921D01*
X794609D01*
Y-266406D01*
X793297D01*
X799857Y-271654D02*
Y-266406D01*
X803792D01*
X805104Y-267718D01*
Y-271654D01*
X811664D02*
X809040D01*
X807728Y-270342D01*
Y-267718D01*
X809040Y-266406D01*
X811664D01*
X812976Y-267718D01*
Y-269030D01*
X807728D01*
X815600Y-266406D02*
Y-271654D01*
Y-269030D01*
X816911Y-267718D01*
X818223Y-266406D01*
X819535D01*
X1116142Y-232283D02*
Y-224412D01*
X1120078D01*
X1121389Y-225724D01*
Y-228348D01*
X1120078Y-229660D01*
X1116142D01*
X1118766D02*
X1121389Y-232283D01*
X1127949D02*
X1125325D01*
X1124013Y-230972D01*
Y-228348D01*
X1125325Y-227036D01*
X1127949D01*
X1129261Y-228348D01*
Y-229660D01*
X1124013D01*
X1131885Y-227036D02*
X1134509Y-232283D01*
X1137132Y-227036D01*
D12*
X167890Y185606D02*
G03*
X164961Y178535I7071J-7071D01*
G01*
X162032Y158475D02*
G03*
X164961Y165546I-7071J7071D01*
G01*
X152564Y153150D02*
G03*
X159635Y156079I0J10000D01*
G01*
X183071Y213574D02*
G03*
X180142Y220645I-10000J0D01*
G01*
Y197859D02*
G03*
X183071Y204930I-7071J7071D01*
G01*
X174630Y260457D02*
G03*
X177446Y266029I-7071J7071D01*
G01*
X163316Y253285D02*
G03*
X170387Y256214I0J10000D01*
G01*
X162002Y253285D02*
G03*
X157874Y251575I0J-5838D01*
G01*
D02*
G03*
X155905Y246822I4752J-4752D01*
G01*
D02*
G03*
X157278Y243510I4685J0D01*
G01*
X143512Y153150D02*
G03*
X136441Y150221I0J-10000D01*
G01*
X177446Y266029D02*
G03*
X177559Y267528I-9887J1499D01*
G01*
X168677Y186393D02*
X180142Y197859D01*
X167890Y185606D02*
X168677Y186393D01*
X164961Y165546D02*
Y178535D01*
X159635Y156079D02*
X162032Y158475D01*
X163779Y287402D02*
Y289764D01*
Y287402D02*
X177559Y273622D01*
X157278Y243510D02*
X180142Y220645D01*
X183071Y204930D02*
Y213574D01*
X170387Y256214D02*
X174630Y260457D01*
X162002Y253285D02*
X163316D01*
X143512Y153150D02*
X152564D01*
X112205Y125984D02*
X136441Y150221D01*
X177559Y267528D02*
Y273622D01*
D13*
X-423228Y-299213D02*
X1230315D01*
X-423228D02*
Y870079D01*
X1230315Y-299213D02*
Y870079D01*
X-423228D02*
X1230315D01*
X954724Y-299213D02*
Y-141732D01*
X757874Y-299213D02*
Y-141732D01*
X1230315D01*
X757874Y-259842D02*
X1230315D01*
X954724Y-220472D02*
X1230315D01*
X954724Y-181102D02*
X1230315D01*
X1112205Y-259842D02*
Y-220472D01*
X968503Y-285435D02*
X964567D01*
Y-288387D01*
X966535D01*
X964567D01*
Y-291339D01*
X970471Y-287403D02*
Y-291339D01*
Y-289371D01*
X971454Y-288387D01*
X972438Y-287403D01*
X973422D01*
X976374Y-291339D02*
X978342D01*
X977358D01*
Y-287403D01*
X976374D01*
X981294Y-286419D02*
X982278Y-285435D01*
X984246D01*
X985229Y-286419D01*
Y-287403D01*
X984246Y-288387D01*
X983262D01*
X984246D01*
X985229Y-289371D01*
Y-290355D01*
X984246Y-291339D01*
X982278D01*
X981294Y-290355D01*
X987197Y-285435D02*
Y-291339D01*
X990149D01*
X991133Y-290355D01*
Y-286419D01*
X990149Y-285435D01*
X987197D01*
X993101Y-292322D02*
X997037D01*
X1002940Y-291339D02*
X999005D01*
X1002940Y-287403D01*
Y-286419D01*
X1001956Y-285435D01*
X999988D01*
X999005Y-286419D01*
X1004908D02*
X1005892Y-285435D01*
X1007860D01*
X1008844Y-286419D01*
Y-290355D01*
X1007860Y-291339D01*
X1005892D01*
X1004908Y-290355D01*
Y-286419D01*
X1010812Y-291339D02*
X1012780D01*
X1011796D01*
Y-285435D01*
X1010812Y-286419D01*
X1015732D02*
X1016715Y-285435D01*
X1018683D01*
X1019667Y-286419D01*
Y-287403D01*
X1018683Y-288387D01*
X1019667Y-289371D01*
Y-290355D01*
X1018683Y-291339D01*
X1016715D01*
X1015732Y-290355D01*
Y-289371D01*
X1016715Y-288387D01*
X1015732Y-287403D01*
Y-286419D01*
X1016715Y-288387D02*
X1018683D01*
X1021635Y-292322D02*
X1025571D01*
X1027539Y-286419D02*
X1028523Y-285435D01*
X1030490D01*
X1031474Y-286419D01*
Y-290355D01*
X1030490Y-291339D01*
X1028523D01*
X1027539Y-290355D01*
Y-286419D01*
X1033442Y-291339D02*
X1035410D01*
X1034426D01*
Y-285435D01*
X1033442Y-286419D01*
X1038362Y-291339D02*
Y-290355D01*
X1039346D01*
Y-291339D01*
X1038362D01*
X1043282D02*
Y-285435D01*
X1046233D01*
X1047217Y-286419D01*
Y-288387D01*
X1046233Y-289371D01*
X1043282D01*
X1053121Y-287403D02*
X1050169D01*
X1049185Y-288387D01*
Y-290355D01*
X1050169Y-291339D01*
X1053121D01*
X1055089Y-285435D02*
Y-291339D01*
X1058041D01*
X1059025Y-290355D01*
Y-289371D01*
Y-288387D01*
X1058041Y-287403D01*
X1055089D01*
X1060992Y-285435D02*
Y-291339D01*
X1063944D01*
X1064928Y-290355D01*
Y-286419D01*
X1063944Y-285435D01*
X1060992D01*
X1067880Y-291339D02*
X1069848D01*
X1070832Y-290355D01*
Y-288387D01*
X1069848Y-287403D01*
X1067880D01*
X1066896Y-288387D01*
Y-290355D01*
X1067880Y-291339D01*
X1076735Y-287403D02*
X1073783D01*
X1072800Y-288387D01*
Y-290355D01*
X1073783Y-291339D01*
X1076735D01*
D15*
X-83465Y316535D02*
G03*
X-75461Y315160I6167J11908D01*
G01*
X-63489Y318182D02*
G03*
X-75461Y315160I16601J-90959D01*
G01*
X93177Y92517D02*
G03*
X124128Y96447I15747J-171D01*
G01*
X147731Y131444D02*
G03*
X151868Y128960I582261J965229D01*
G01*
X131127Y107580D02*
G03*
X123644Y111930I-10258J-9032D01*
G01*
X131127Y107580D02*
G03*
X151868Y128960I14042J7128D01*
G01*
X124164Y99302D02*
G03*
X124128Y96447I50773J-2062D01*
G01*
X93177Y92517D02*
G03*
X93509Y103737I-99554J8564D01*
G01*
X156848Y367871D02*
G03*
X215438Y409213I-141946J263359D01*
G01*
X70109Y317150D02*
G03*
X18935Y319960I-65279J-721524D01*
G01*
X200857Y227610D02*
G03*
X178460Y241099I-75973J-100813D01*
G01*
X-182012Y343388D02*
G03*
X-218077Y339098I-279J-151416D01*
G01*
X-40641Y319960D02*
G03*
X-63489Y318182I-1549J-127826D01*
G01*
X207734Y295562D02*
G03*
X218355Y322043I-200632J95839D01*
G01*
X97675Y338805D02*
G03*
X127869Y352650I-248579J581966D01*
G01*
X-47029Y53188D02*
G03*
X-37030Y33870I121983J50892D01*
G01*
X-178957Y250941D02*
G03*
X-158897Y230072I64166J41603D01*
G01*
X-166468Y149144D02*
G03*
X-172920Y142853I37797J-45218D01*
G01*
X-195212Y275153D02*
G03*
X-218001Y306065I-822538J-582524D01*
G01*
X127869Y352650D02*
G03*
X156848Y367871I-253236J517306D01*
G01*
X88926Y315100D02*
G03*
X70109Y317150I-64033J-500175D01*
G01*
X163917Y248163D02*
G03*
X184959Y262171I-22157J56092D01*
G01*
X142253Y133733D02*
G03*
X149197Y141927I-5078J11342D01*
G01*
X83094Y99015D02*
G03*
X91148Y103876I-1536J11650D01*
G01*
X45460Y19859D02*
G03*
X57125Y35135I-9196J19114D01*
G01*
X-126713Y333264D02*
G03*
X-150488Y340055I-69234J-197391D01*
G01*
D02*
G03*
X-182012Y343388I-31448J-146698D01*
G01*
X-162848Y197059D02*
G03*
X-182135Y183660I30640J-64690D01*
G01*
X-146365Y129096D02*
G03*
X-173402Y120957I9170J-79436D01*
G01*
X-17895Y320070D02*
G03*
X-9015Y321051I-14076J168098D01*
G01*
X-13643Y10979D02*
G03*
X-1896Y7221I17629J34876D01*
G01*
X-165612Y197907D02*
G03*
X-178401Y201503I-104173J-346047D01*
G01*
X-130074Y130123D02*
G03*
X-146365Y129096I-300J-125031D01*
G01*
X-104938Y116513D02*
G03*
X-113846Y114151I21527J-99166D01*
G01*
X203098Y193081D02*
G03*
X194469Y214279I-142599J-45693D01*
G01*
X-61610Y103598D02*
G03*
X-51758Y65576I264066J48136D01*
G01*
X218355Y322043D02*
G03*
X231993Y380169I-333123J108825D01*
G01*
X184959Y262171D02*
G03*
X196413Y275940I-68462J68599D01*
G01*
X178460Y241099D02*
G03*
X162806Y247747I-81609J-170404D01*
G01*
X27545Y1250D02*
G03*
X45460Y19859I-1035J18923D01*
G01*
X-29531Y23747D02*
G03*
X-13643Y10979I40069J33590D01*
G01*
X-182845Y257051D02*
G03*
X-195213Y275153I-556576J-366975D01*
G01*
X-182135Y183660D02*
G03*
X-187769Y176950I35416J-35454D01*
G01*
X196413Y275940D02*
G03*
X207734Y295562I-119388J81957D01*
G01*
X173919Y158840D02*
G03*
X169611Y174145I-97579J-19210D01*
G01*
X157610Y139583D02*
G03*
X150169Y142482I-39440J-90216D01*
G01*
X147731Y131444D02*
G03*
X142253Y133733I-18205J-35858D01*
G01*
X96148Y320238D02*
G03*
X88926Y315100I11368J-23620D01*
G01*
X-37030Y33870D02*
G03*
X-29531Y23747I71846J45383D01*
G01*
X-127436Y130123D02*
G03*
X-134595Y120974I36068J-35599D01*
G01*
X-118767Y112504D02*
G03*
X-130074Y108042I67346J-187239D01*
G01*
X-158897Y230072D02*
G03*
X-152432Y225805I56288J78243D01*
G01*
D02*
G03*
X-167899Y219630I43050J-130294D01*
G01*
X-152432Y158591D02*
G03*
X-166468Y149144I40151J-74800D01*
G01*
X-173650Y216526D02*
G03*
X-178114Y213402I20412J-33917D01*
G01*
X-187769Y176950D02*
G03*
X-192150Y169007I34964J-24461D01*
G01*
X-172920Y142853D02*
G03*
X-178131Y135536I32545J-28695D01*
G01*
X-218001Y306065D02*
G03*
X-228951Y320099I-700696J-535423D01*
G01*
X187342Y175607D02*
G03*
X183459Y175415I5167J-143712D01*
G01*
X194958Y175548D02*
G03*
X190858Y175672I-3977J-63430D01*
G01*
X179209Y175103D02*
G03*
X169611Y174145I28269J-331931D01*
G01*
X163638Y136550D02*
G03*
X160797Y138083I-27128J-46868D01*
G01*
X78094Y99293D02*
G03*
X81427Y98877I3352J13280D01*
G01*
X81427D02*
G03*
X82094Y98885I111J16670D01*
G01*
X71567Y96238D02*
G03*
X75737Y97618I-2091J13307D01*
G01*
X-9015Y321051D02*
G03*
X11853Y324820I-37033J264650D01*
G01*
X-26615Y319682D02*
G03*
X-17895Y320070I-423J107763D01*
G01*
X-134595Y120974D02*
G03*
X-136221Y117946I30535J-18355D01*
G01*
X-113846Y114151D02*
G03*
X-118767Y112504I39245J-125377D01*
G01*
X-181237Y254560D02*
G03*
X-182845Y257051I-99104J-62242D01*
G01*
X-218077Y339098D02*
G03*
X-224180Y337397I25220J-102284D01*
G01*
X174749Y138733D02*
G03*
X173919Y158840I-61794J7520D01*
G01*
X231993Y380169D02*
G03*
X232520Y384119I-150895J22129D01*
G01*
X206273Y181505D02*
G03*
X203098Y193081I-109758J-23881D01*
G01*
X-51758Y65576D02*
G03*
X-47029Y53188I184666J63401D01*
G01*
X-136221Y117946D02*
G03*
X-137434Y114986I25672J-12248D01*
G01*
X-178114Y213402D02*
G03*
X-181318Y210251I14134J-17578D01*
G01*
X-178131Y135536D02*
G03*
X-181456Y127206I29001J-16405D01*
G01*
X198257Y175210D02*
G03*
X196707Y175402I-5210J-35663D01*
G01*
X199607Y174978D02*
G03*
X198257Y175210I-5210J-26246D01*
G01*
X196707Y175402D02*
G03*
X194958Y175548I-4720J-46159D01*
G01*
X190858Y175672D02*
G03*
X187342Y175607I113J-100388D01*
G01*
X183459Y175415D02*
G03*
X179209Y175102I12734J-202412D01*
G01*
X166139Y134983D02*
G03*
X163638Y136550I-23569J-34848D01*
G01*
X160797Y138083D02*
G03*
X157610Y139583I-31065J-61882D01*
G01*
X149197Y141927D02*
G03*
X149579Y142142I-2909J5604D01*
G01*
X149988Y142384D02*
G03*
X149579Y142142I12096J-20886D01*
G01*
X150169Y142482D02*
G03*
X149988Y142384I1769J-3493D01*
G01*
X95399Y321953D02*
G03*
X94759Y323293I-37693J-17180D01*
G01*
X96148Y320238D02*
G03*
X95399Y321953I-50495J-21021D01*
G01*
X91148Y103876D02*
G03*
X91864Y103767I1027J4344D01*
G01*
X91864Y103767D02*
G03*
X92238Y103746I663J8427D01*
G01*
X92238D02*
G03*
X92606Y103738I478J13917D01*
G01*
X82094Y98885D02*
G03*
X82427Y98906I-257J6702D01*
G01*
D02*
G03*
X82761Y98948I-429J4853D01*
G01*
X82761D02*
G03*
X83094Y99015I-617J3888D01*
G01*
X75737Y97618D02*
G03*
X78094Y99293I-5361J10040D01*
G01*
X70727Y96078D02*
G03*
X70179Y95960I420J-3294D01*
G01*
X70727Y96078D02*
G03*
X71303Y96169I-1452J11034D01*
G01*
X71303Y96169D02*
G03*
X71567Y96238I-446J2253D01*
G01*
X-167899Y219630D02*
G03*
X-173650Y216526I29135J-60853D01*
G01*
X-224180Y337397D02*
G03*
X-226590Y336583I12989J-42408D01*
G01*
X-238681Y332053D02*
X-238669Y332169D01*
X-126713Y333264D02*
X-83465Y316535D01*
X-98854Y116465D02*
X-68224Y111064D01*
X-187567Y161369D02*
X-166979Y159649D01*
X6853Y139D02*
X27545Y1250D01*
X-141323Y103320D02*
X-130074Y108042D01*
X57125Y35135D02*
X67679Y95544D01*
X215438Y409213D02*
X217407Y411069D01*
X-186734Y203586D02*
X-181318Y210251D01*
X223493Y400228D02*
X231686Y387729D01*
X200857Y227610D02*
X208634Y221639D01*
X199468Y218028D02*
X208634Y221639D01*
X199607Y174978D02*
X207939Y173173D01*
X166139Y134983D02*
X173499Y129984D01*
X15880Y325793D02*
X17824Y322182D01*
X-1896Y7221D02*
X2132Y2222D01*
X-184373Y115124D02*
X-181456Y127206D01*
X-184373Y115124D02*
X-173402Y120957D01*
X-238681Y332053D02*
X-228951Y320099D01*
X193774Y215806D02*
X194469Y214279D01*
X193774Y215806D02*
X199468Y218028D01*
X89129Y335299D02*
X97675Y338805D01*
X17824Y322182D02*
X18935Y319960D01*
X-38541Y319945D02*
X-36408Y319902D01*
X-40641Y319960D02*
X-38541Y319945D01*
X-34242Y319840D02*
X-29809Y319682D01*
X-166979Y159649D02*
X-152432Y158591D01*
X-186734Y203586D02*
X-178401Y201503D01*
X-195066Y162063D02*
X-187567Y161369D01*
X-238669Y332169D02*
X-226590Y336583D01*
X217418Y411057D02*
X223493Y400228D01*
X206273Y181505D02*
X207939Y173173D01*
X-141323Y103320D02*
X-137434Y114986D01*
X173499Y129984D02*
X174749Y138733D01*
X123644Y111930D02*
X123771Y108263D01*
X124164Y99302D01*
X89136Y335302D02*
X94759Y323432D01*
X11853Y324820D02*
X15880Y325793D01*
X-165612Y197907D02*
X-162848Y197059D01*
X-181237Y254560D02*
X-180465Y253332D01*
X-179708Y252123D01*
X-195066Y162063D02*
X-192150Y169007D01*
X231686Y387729D02*
X232797Y386063D01*
X232520Y384119D02*
X232797Y386063D01*
X162806Y247747D02*
X163917Y248163D01*
X94759Y323293D02*
Y323432D01*
X92954Y103737D02*
X93509D01*
X92606Y103738D02*
X92954Y103737D01*
X68679Y95710D02*
X69179Y95794D01*
X69679Y95877D01*
X70179Y95960D01*
X67679Y95544D02*
X68679Y95710D01*
X2132Y2222D02*
X3937Y-0D01*
X6853Y139D01*
X-29809Y319682D02*
X-26615D01*
X-36408Y319902D02*
X-34242Y319840D01*
X-130074Y130123D02*
X-127436D01*
X-179708Y252123D02*
X-178957Y250941D01*
X-104938Y116513D02*
X-98854Y116465D01*
X-68224Y111064D02*
X-63779Y109843D01*
X-61610Y103598D01*
D16*
X-56078Y146298D02*
G03*
X-57480Y142913I3385J-3385D01*
G01*
X29230Y70473D02*
G03*
X26378Y69291I0J-4033D01*
G01*
D02*
G03*
X25591Y67390I1901J-1901D01*
G01*
X30709Y88976D02*
G03*
X31890Y87795I1181J0D01*
G01*
X46387Y130357D02*
G03*
X41732Y132283I-4654J-4660D01*
G01*
X46389Y130354D02*
G03*
X46387Y130357I-4657J-4657D01*
G01*
X-14931Y141817D02*
G03*
X-14961Y141283I4858J-535D01*
G01*
X-13529Y144739D02*
G03*
X-14931Y141817I3456J-3456D01*
G01*
X-13529Y144739D02*
G03*
X-11024Y150787I-6049J6049D01*
G01*
X-15159Y145864D02*
G03*
X-16929Y141589I4279J-4275D01*
G01*
X-15157Y145866D02*
G03*
X-15159Y145864I4277J-4277D01*
G01*
X-15156Y145868D02*
G03*
X-13386Y150143I-4279J4275D01*
G01*
X-15157Y145866D02*
G03*
X-15156Y145868I-4277J4277D01*
G01*
X-11437Y155098D02*
G03*
X-13386Y150394I4705J-4705D01*
G01*
X-4138Y144287D02*
G03*
X-1209Y151358I-7071J7071D01*
G01*
X1720Y159228D02*
G03*
X-1209Y152157I7071J-7071D01*
G01*
X-614Y162799D02*
G03*
X-3543Y155728I7071J-7071D01*
G01*
X-6472Y145890D02*
G03*
X-3543Y152961I-7071J7071D01*
G01*
X-9030Y143332D02*
G03*
X-11811Y136614I6724J-6718D01*
G01*
X-9027Y143335D02*
G03*
X-9030Y143332I6721J-6721D01*
G01*
X-7484Y140942D02*
G03*
X-9449Y136193I4755J-4749D01*
G01*
X-7480Y140945D02*
G03*
X-7484Y140942I4752J-4752D01*
G01*
X-9449Y135461D02*
G03*
X-8296Y132677I3937J0D01*
G01*
X-7087Y129758D02*
G03*
X-8296Y132677I-4128J0D01*
G01*
X-8481Y123409D02*
G03*
X-9870Y120051I3362J-3358D01*
G01*
X-8478Y123411D02*
G03*
X-8481Y123409I3360J-3360D01*
G01*
X-9870Y117053D02*
G03*
X-8689Y114201I4033J0D01*
G01*
X-8688Y114199D02*
G03*
X-8689Y114201I-2853J-2850D01*
G01*
X-7508Y111350D02*
G03*
X-8688Y114199I-4033J0D01*
G01*
X-8478Y123411D02*
G03*
X-7087Y126772I-3360J3360D01*
G01*
X-10239Y131893D02*
G03*
X-10236Y131890I3805J3799D01*
G01*
X-11811Y135692D02*
G03*
X-10239Y131893I5377J0D01*
G01*
X-9055Y129038D02*
G03*
X-10236Y131890I-4033J0D01*
G01*
Y124409D02*
G03*
X-9055Y127261I-2851J2851D01*
G01*
X-10236Y124409D02*
G03*
X-11417Y121558I2851J-2851D01*
G01*
Y114595D02*
G03*
X-10264Y111811I3937J0D01*
G01*
X-12205Y128347D02*
G03*
X-12992Y126445I1901J-1901D01*
G01*
X-17890Y73055D02*
G03*
X-14961Y80126I-7071J7071D01*
G01*
X-19291Y75590D02*
G03*
X-16929Y81293I-5703J5703D01*
G01*
X3851Y317268D02*
G03*
X-3220Y314339I0J-10000D01*
G01*
X11937Y315354D02*
G03*
X4866Y312425I0J-10000D01*
G01*
X116788Y247457D02*
G03*
X120866Y245768I4078J4078D01*
G01*
X126377Y248030D02*
G03*
X126378Y248031I-2613J2615D01*
G01*
X123764Y246949D02*
G03*
X126377Y248030I0J3697D01*
G01*
X121063Y247047D02*
G03*
X122047Y246949I984J4892D01*
G01*
X118519Y248410D02*
G03*
X121063Y247047I3528J3528D01*
G01*
X120622Y251791D02*
G03*
X118293Y252756I-2328J-2328D01*
G01*
X115965Y253720D02*
G03*
X118293Y252756I2328J2328D01*
G01*
X105105Y259139D02*
G03*
X99606Y261417I-5499J-5499D01*
G01*
X96918Y262531D02*
G03*
X99606Y261417I2688J2688D01*
G01*
X103242Y263687D02*
G03*
X103245Y263684I4035J4030D01*
G01*
X101575Y267717D02*
G03*
X103242Y263687I5703J0D01*
G01*
X105118Y267717D02*
G03*
X107345Y262340I7604J0D01*
G01*
X103470Y271699D02*
G03*
X103468Y271701I-3987J-3982D01*
G01*
X105118Y267717D02*
G03*
X103470Y271699I-5635J0D01*
G01*
X110208Y263783D02*
G03*
X110212Y263779I5648J5641D01*
G01*
X107874Y269424D02*
G03*
X110208Y263783I7982J0D01*
G01*
X107874Y270079D02*
G03*
X105925Y274783I-6653J0D01*
G01*
X149213Y325197D02*
G03*
X154589Y327424I0J7604D01*
G01*
X149213Y325197D02*
G03*
X143836Y322970I0J-7604D01*
G01*
X157345Y346063D02*
G03*
X153543Y344488I0J-5377D01*
G01*
D02*
G03*
X152362Y341637I2851J-2851D01*
G01*
X151613Y339409D02*
G03*
X152362Y341216I-1807J1807D01*
G01*
X135654Y340724D02*
G03*
X142725Y337795I7071J7071D01*
G01*
X134425Y341953D02*
G03*
X127354Y344882I-7071J-7071D01*
G01*
X147773Y337795D02*
G03*
X151575Y339370I0J5377D01*
G01*
X124016Y344882D02*
G03*
X120655Y343490I0J-4752D01*
G01*
X107669Y334646D02*
G03*
X114740Y337575I0J10000D01*
G01*
X203764Y308095D02*
G03*
X206693Y315166I-7071J7071D01*
G01*
X20661Y250787D02*
G03*
X27732Y253716I0J10000D01*
G01*
X53190Y275032D02*
G03*
X46119Y272103I0J-10000D01*
G01*
X59168Y276097D02*
G03*
X59170Y276099I-2573J2577D01*
G01*
X56595Y275032D02*
G03*
X59168Y276097I0J3641D01*
G01*
X59170Y276099D02*
G03*
X60236Y278674I-2575J2575D01*
G01*
Y285228D02*
G03*
X57307Y292299I-10000J0D01*
G01*
X47249Y275774D02*
G03*
X47246Y275772I6688J-6694D01*
G01*
X53937Y278543D02*
G03*
X47249Y275774I0J-9462D01*
G01*
X25206Y257874D02*
G03*
X32277Y260803I0J10000D01*
G01*
X20678Y257874D02*
G03*
X13607Y254945I0J-10000D01*
G01*
X95419Y308518D02*
G03*
X89370Y311024I-6049J-6049D01*
G01*
X96949Y305179D02*
G03*
X95669Y308268I-4369J0D01*
G01*
X102362Y309842D02*
G03*
X95709Y312598I-6653J-6653D01*
G01*
X102141Y309622D02*
G03*
X99213Y302551I7071J-7071D01*
G01*
X-126564Y306095D02*
G03*
X-129134Y299401I7430J-6693D01*
G01*
X-126205Y306472D02*
G03*
X-126564Y306095I7071J-7071D01*
G01*
X-124803Y307874D02*
G03*
X-123228Y311676I-3802J3802D01*
G01*
X4466Y131755D02*
G03*
X9843Y129528I5377J5377D01*
G01*
X66679Y120723D02*
G03*
X60630Y123228I-6049J-6049D01*
G01*
X56597Y124899D02*
G03*
X60630Y123228I4033J4033D01*
G01*
X53649Y123095D02*
G03*
X60720Y120166I7071J7071D01*
G01*
X49053Y66375D02*
G03*
X49213Y67716I-5543J1341D01*
G01*
X47542Y63684D02*
G03*
X49053Y66375I-4033J4033D01*
G01*
X53581Y72872D02*
G03*
X55118Y76583I-3711J3711D01*
G01*
X49769Y69061D02*
G03*
X49213Y67716I1344J-1344D01*
G01*
X43307Y70079D02*
G03*
X42357Y70473I-951J-951D01*
G01*
X32992Y93708D02*
G03*
X36811Y92126I3819J3819D01*
G01*
X44882Y90552D02*
G03*
X44211Y90274I0J-949D01*
G01*
X41175Y87795D02*
G03*
X42126Y88189I0J1344D01*
G01*
X52756Y82477D02*
G03*
X52618Y82619I-6174J-5894D01*
G01*
X55118Y76583D02*
G03*
X52756Y82477I-8536J0D01*
G01*
X192123Y296454D02*
G03*
X192126Y296457I-3799J3805D01*
G01*
X188324Y294882D02*
G03*
X192123Y296454I0J5377D01*
G01*
X160927Y297735D02*
G03*
X167922Y294882I6995J7147D01*
G01*
X160851Y297811D02*
G03*
X160927Y297735I7071J7071D01*
G01*
X203543Y359095D02*
G03*
X200787Y365748I-9409J0D01*
G01*
X200621Y306920D02*
G03*
X203543Y313985I-7077J7065D01*
G01*
X200614Y306914D02*
G03*
X200621Y306920I-7071J7071D01*
G01*
X191709Y298009D02*
G03*
X191712Y298012I-4702J4708D01*
G01*
X187008Y296063D02*
G03*
X191709Y298009I0J6653D01*
G01*
X164311Y298288D02*
G03*
X169685Y296063I5374J5379D01*
G01*
X164308Y298290D02*
G03*
X164311Y298288I5377J5377D01*
G01*
X162989Y299609D02*
G03*
X159190Y301181I-3799J-3805D01*
G01*
X162992Y299606D02*
G03*
X162989Y299609I-3802J-3802D01*
G01*
X154536Y301181D02*
G03*
X147465Y298252I0J-10000D01*
G01*
X139325Y290112D02*
G03*
X139328Y290115I-6548J6554D01*
G01*
X132776Y287402D02*
G03*
X139325Y290112I0J9265D01*
G01*
X120369Y290054D02*
G03*
X126772Y287402I6403J6403D01*
G01*
X20472Y88178D02*
G03*
X29517Y79134I9044J0D01*
G01*
X22150Y92229D02*
G03*
X20472Y88178I4051J-4051D01*
G01*
X-56078Y146298D02*
X-47849Y154528D01*
X36811Y70473D02*
X42357D01*
X29230D02*
X36811D01*
X25591Y63386D02*
Y67390D01*
X197244Y369291D02*
X200787Y365748D01*
X-3937Y140157D02*
X4466Y131755D01*
X25591Y101109D02*
X32992Y93708D01*
X-7508Y109449D02*
Y111350D01*
X6693Y116142D02*
Y122807D01*
X11024Y117323D02*
Y120146D01*
X1720Y159228D02*
X3122Y160630D01*
X-614Y162799D02*
X759Y164173D01*
X30709Y88976D02*
Y91732D01*
X31890Y87795D02*
X36811D01*
X48819Y127925D02*
X53649Y123095D01*
X46389Y130354D02*
X48819Y127925D01*
X-14961Y80126D02*
Y141283D01*
X-16929Y81293D02*
Y141589D01*
X-13386Y150143D02*
Y150394D01*
X-11437Y155098D02*
X-11024Y155512D01*
X-7480Y140945D02*
X-4138Y144287D01*
X-1209Y151358D02*
Y152157D01*
X-3543Y152961D02*
Y155728D01*
X-9027Y143335D02*
X-6472Y145890D01*
X-11811Y135692D02*
Y136614D01*
X-9449Y135461D02*
Y136193D01*
X-7087Y126772D02*
Y129758D01*
X-9870Y117053D02*
Y120051D01*
X-9055Y127261D02*
Y129038D01*
X-11417Y114595D02*
Y121558D01*
X-12992Y66929D02*
Y126445D01*
X-20079Y70866D02*
X-17890Y73055D01*
X-6142Y311417D02*
X-3220Y314339D01*
X3851Y317268D02*
X32040D01*
X11937Y315354D02*
X32283D01*
X3858Y311417D02*
X4866Y312425D01*
X120866Y245768D02*
X127657D01*
X105105Y259139D02*
X116788Y247457D01*
X126378Y248031D02*
X129134Y250787D01*
X122047Y246949D02*
X123764D01*
X103245Y263684D02*
X118519Y248410D01*
X120622Y251791D02*
X123200Y249213D01*
X107345Y262340D02*
X115965Y253720D01*
X95669Y263779D02*
X96918Y262531D01*
X101153Y274016D02*
X103468Y271701D01*
X110212Y263779D02*
X118480Y255512D01*
X107874Y269424D02*
Y270079D01*
X101941Y278768D02*
X105925Y274783D01*
X138189Y317323D02*
X143836Y322970D01*
X157345Y346063D02*
X161024D01*
X152362Y341216D02*
Y341637D01*
X134425Y341953D02*
X135654Y340724D01*
X151575Y339370D02*
X151613Y339409D01*
X142725Y337795D02*
X147773D01*
X124016Y344882D02*
X127354D01*
X114740Y337575D02*
X120655Y343490D01*
X106693Y334646D02*
X107669D01*
X192126Y296457D02*
X203764Y308095D01*
X206693Y315166D02*
Y365354D01*
X14961Y250787D02*
X20661D01*
X27732Y253716D02*
X46119Y272103D01*
X53190Y275032D02*
X56595D01*
X60236Y278674D02*
Y285228D01*
X57087Y292520D02*
X57307Y292299D01*
X53937Y278543D02*
X57732D01*
X32277Y260803D02*
X47246Y275772D01*
X20678Y257874D02*
X25206D01*
X9449Y250787D02*
X13607Y254945D01*
X154589Y327424D02*
X165354Y338189D01*
X102141Y309622D02*
X102362Y309842D01*
X78740Y312036D02*
X89370Y311024D01*
X96949Y291784D02*
Y305179D01*
X95419Y308518D02*
X95669Y308268D01*
X99213Y298340D02*
Y302551D01*
X85039Y313008D02*
X89108Y312598D01*
X95709D01*
X51181Y84055D02*
X52618Y82619D01*
X-129134Y277953D02*
Y299401D01*
X-126205Y306472D02*
X-124803Y307874D01*
X-123228Y311676D02*
Y314567D01*
X45669Y135827D02*
X56597Y124899D01*
X787Y130383D02*
Y132283D01*
X-3937Y137008D02*
X787Y132283D01*
X-5709Y137008D02*
X-3937D01*
X66679Y120723D02*
X66929Y120472D01*
X60720Y120166D02*
X62612D01*
X49769Y69061D02*
X53581Y72872D01*
X45276Y61418D02*
X47542Y63684D01*
X43307Y70079D02*
X45275Y68111D01*
X45276D01*
X36811Y92126D02*
X42913Y94488D01*
X44882Y96457D01*
X42126Y88189D02*
X44211Y90274D01*
X36811Y87795D02*
X41175D01*
X29517Y79134D02*
X36811D01*
X45275D01*
Y77362D02*
Y79134D01*
X32040Y317268D02*
X85039Y313008D01*
X167922Y294882D02*
X188324D01*
X160236Y298425D02*
X160851Y297811D01*
X203543Y313985D02*
Y359095D01*
X169685Y296063D02*
X187008D01*
X191712Y298012D02*
X200614Y306914D01*
X154536Y301181D02*
X159190D01*
X162992Y299606D02*
X164308Y298290D01*
X139328Y290115D02*
X147465Y298252D01*
X126772Y287402D02*
X132776D01*
X120265Y290158D02*
X120369Y290054D01*
X96949Y291784D02*
X97000Y291732D01*
X127657Y245768D02*
X128347Y246457D01*
X-12992Y66929D02*
X-12992Y66929D01*
X32283Y315354D02*
X78740Y312036D01*
X-1996Y131496D02*
X6693Y122807D01*
X25591Y101109D02*
Y101181D01*
X22150Y92229D02*
X24016Y94095D01*
X101941Y278768D02*
Y279134D01*
X787Y130383D02*
X11024Y120146D01*
X36586Y109843D02*
X42098Y104331D01*
X33437Y107480D02*
X39342Y101575D01*
D17*
X976378Y-198823D02*
Y-212598D01*
X983265D01*
X985561Y-210303D01*
Y-208007D01*
X983265Y-205711D01*
X976378D01*
X983265D01*
X985561Y-203415D01*
Y-201119D01*
X983265Y-198823D01*
X976378D01*
X992449Y-212598D02*
X997041D01*
X999336Y-210303D01*
Y-205711D01*
X997041Y-203415D01*
X992449D01*
X990153Y-205711D01*
Y-210303D01*
X992449Y-212598D01*
X1006224Y-201119D02*
Y-203415D01*
X1003928D01*
X1008520D01*
X1006224D01*
Y-210303D01*
X1008520Y-212598D01*
X1017703Y-201119D02*
Y-203415D01*
X1015407D01*
X1019999D01*
X1017703D01*
Y-210303D01*
X1019999Y-212598D01*
X1029182D02*
X1033774D01*
X1036070Y-210303D01*
Y-205711D01*
X1033774Y-203415D01*
X1029182D01*
X1026887Y-205711D01*
Y-210303D01*
X1029182Y-212598D01*
X1040662D02*
Y-203415D01*
X1042957D01*
X1045253Y-205711D01*
Y-212598D01*
Y-205711D01*
X1047549Y-203415D01*
X1049845Y-205711D01*
Y-212598D01*
X1068212Y-198823D02*
Y-212598D01*
X1077395D01*
X1084283Y-203415D02*
X1088874D01*
X1091170Y-205711D01*
Y-212598D01*
X1084283D01*
X1081987Y-210303D01*
X1084283Y-208007D01*
X1091170D01*
X1095762Y-203415D02*
Y-210303D01*
X1098058Y-212598D01*
X1104945D01*
Y-214894D01*
X1102649Y-217190D01*
X1100354D01*
X1104945Y-212598D02*
Y-203415D01*
X1116425Y-212598D02*
X1111833D01*
X1109537Y-210303D01*
Y-205711D01*
X1111833Y-203415D01*
X1116425D01*
X1118720Y-205711D01*
Y-208007D01*
X1109537D01*
X1123312Y-203415D02*
Y-212598D01*
Y-208007D01*
X1125608Y-205711D01*
X1127904Y-203415D01*
X1130200D01*
X975062Y-159454D02*
X964567D01*
Y-167325D01*
X969815D01*
X964567D01*
Y-175197D01*
X980310Y-164702D02*
Y-175197D01*
Y-169949D01*
X982934Y-167325D01*
X985557Y-164702D01*
X988181D01*
X996053Y-175197D02*
X1001300D01*
X998677D01*
Y-164702D01*
X996053D01*
X1009172Y-162078D02*
X1011796Y-159454D01*
X1017043D01*
X1019667Y-162078D01*
Y-164702D01*
X1017043Y-167325D01*
X1014420D01*
X1017043D01*
X1019667Y-169949D01*
Y-172573D01*
X1017043Y-175197D01*
X1011796D01*
X1009172Y-172573D01*
X1024915Y-159454D02*
Y-175197D01*
X1032786D01*
X1035410Y-172573D01*
Y-162078D01*
X1032786Y-159454D01*
X1024915D01*
X1056401D02*
Y-175197D01*
X1064272D01*
X1066896Y-172573D01*
Y-169949D01*
X1064272Y-167325D01*
X1056401D01*
X1064272D01*
X1066896Y-164702D01*
Y-162078D01*
X1064272Y-159454D01*
X1056401D01*
X1074767Y-164702D02*
X1080015D01*
X1082639Y-167325D01*
Y-175197D01*
X1074767D01*
X1072144Y-172573D01*
X1074767Y-169949D01*
X1082639D01*
X1098382Y-159454D02*
Y-175197D01*
X1090510D01*
X1087887Y-172573D01*
Y-167325D01*
X1090510Y-164702D01*
X1098382D01*
X1108877Y-180445D02*
X1111501D01*
X1114125Y-177821D01*
Y-164702D01*
X1106253D01*
X1103630Y-167325D01*
Y-172573D01*
X1106253Y-175197D01*
X1114125D01*
X1127244D02*
X1121996D01*
X1119372Y-172573D01*
Y-167325D01*
X1121996Y-164702D01*
X1127244D01*
X1129868Y-167325D01*
Y-169949D01*
X1119372D01*
X1161354Y-175197D02*
X1150858D01*
X1161354Y-164702D01*
Y-162078D01*
X1158730Y-159454D01*
X1153482D01*
X1150858Y-162078D01*
X1166601D02*
X1169225Y-159454D01*
X1174473D01*
X1177097Y-162078D01*
Y-172573D01*
X1174473Y-175197D01*
X1169225D01*
X1166601Y-172573D01*
Y-162078D01*
X1182344Y-175197D02*
X1187592D01*
X1184968D01*
Y-159454D01*
X1182344Y-162078D01*
X1195463D02*
X1198087Y-159454D01*
X1203335D01*
X1205959Y-162078D01*
Y-164702D01*
X1203335Y-167325D01*
X1205959Y-169949D01*
Y-172573D01*
X1203335Y-175197D01*
X1198087D01*
X1195463Y-172573D01*
Y-169949D01*
X1198087Y-167325D01*
X1195463Y-164702D01*
Y-162078D01*
X1198087Y-167325D02*
X1203335D01*
X970472Y-253937D02*
X975064D01*
X972768D01*
Y-240162D01*
X970472Y-242458D01*
X981952D02*
X984247Y-240162D01*
X988839D01*
X991135Y-242458D01*
Y-244754D01*
X988839Y-247049D01*
X986543D01*
X988839D01*
X991135Y-249345D01*
Y-251641D01*
X988839Y-253937D01*
X984247D01*
X981952Y-251641D01*
X995727Y-253937D02*
X1004910Y-244754D01*
X1009502Y-242458D02*
X1011798Y-240162D01*
X1016389D01*
X1018685Y-242458D01*
Y-251641D01*
X1016389Y-253937D01*
X1011798D01*
X1009502Y-251641D01*
Y-242458D01*
X1032460Y-240162D02*
X1027869Y-242458D01*
X1023277Y-247049D01*
Y-251641D01*
X1025573Y-253937D01*
X1030164D01*
X1032460Y-251641D01*
Y-249345D01*
X1030164Y-247049D01*
X1023277D01*
X1037052Y-253937D02*
X1046235Y-244754D01*
X1060010Y-253937D02*
X1050827D01*
X1060010Y-244754D01*
Y-242458D01*
X1057715Y-240162D01*
X1053123D01*
X1050827Y-242458D01*
X1064602D02*
X1066898Y-240162D01*
X1071490D01*
X1073785Y-242458D01*
Y-251641D01*
X1071490Y-253937D01*
X1066898D01*
X1064602Y-251641D01*
Y-242458D01*
X1078377Y-253937D02*
X1082969D01*
X1080673D01*
Y-240162D01*
X1078377Y-242458D01*
X1089857D02*
X1092152Y-240162D01*
X1096744D01*
X1099040Y-242458D01*
Y-244754D01*
X1096744Y-247049D01*
X1099040Y-249345D01*
Y-251641D01*
X1096744Y-253937D01*
X1092152D01*
X1089857Y-251641D01*
Y-249345D01*
X1092152Y-247049D01*
X1089857Y-244754D01*
Y-242458D01*
X1092152Y-247049D02*
X1096744D01*
X1133858Y-240818D02*
X1136482Y-238194D01*
X1141730D01*
X1144353Y-240818D01*
Y-251313D01*
X1141730Y-253937D01*
X1136482D01*
X1133858Y-251313D01*
Y-240818D01*
X1149601Y-253937D02*
X1154849D01*
X1152225D01*
Y-238194D01*
X1149601Y-240818D01*
X779528Y-277564D02*
Y-293307D01*
X784775Y-288059D01*
X790023Y-293307D01*
Y-277564D01*
X795270Y-293307D02*
X800518D01*
X797894D01*
Y-282812D01*
X795270D01*
X808390Y-293307D02*
Y-282812D01*
X811013D01*
X813637Y-285436D01*
Y-293307D01*
Y-285436D01*
X816261Y-282812D01*
X818885Y-285436D01*
Y-293307D01*
X824133Y-277564D02*
Y-288059D01*
X829380Y-293307D01*
X834628Y-288059D01*
Y-277564D01*
X850371Y-280188D02*
X847747Y-277564D01*
X842499D01*
X839876Y-280188D01*
Y-290683D01*
X842499Y-293307D01*
X847747D01*
X850371Y-290683D01*
Y-285436D01*
X845123D01*
D63*
X45275Y77362D02*
D03*
Y84055D02*
D03*
X45276Y68111D02*
D03*
Y61418D02*
D03*
X51181Y84055D02*
D03*
X51181Y77363D02*
D03*
D66*
X44882Y96457D02*
D03*
X51574D02*
D03*
X44882Y90552D02*
D03*
X51574D02*
D03*
D130*
X-143193Y318691D02*
D03*
X-105606Y305010D02*
D03*
X112370Y323681D02*
D03*
X148321Y341216D02*
D03*
D137*
X-4519Y176772D02*
G03*
X-11590Y173843I0J-10000D01*
G01*
X37988Y127965D02*
G03*
X40917Y120894I10000J0D01*
G01*
X64740Y154945D02*
G03*
X57669Y157874I-7071J-7071D01*
G01*
X53748Y272047D02*
G03*
X60605Y274887I0J9696D01*
G01*
X53748Y272047D02*
G03*
X46677Y269118I0J-10000D01*
G01*
X21055Y247638D02*
G03*
X28126Y250567I0J10000D01*
G01*
X51574Y106094D02*
G03*
X48646Y113165I-10000J0D01*
G01*
X51181Y84055D02*
G03*
X51574Y85004I-949J949D01*
G01*
X43850Y83465D02*
G03*
X45276Y84055I0J2017D01*
G01*
X-16535Y168898D02*
X-11590Y173843D01*
X-4519Y176772D02*
X37795D01*
X-4519D02*
X-1969D01*
X37988Y127965D02*
Y157874D01*
Y127965D02*
Y129528D01*
X40917Y120894D02*
X48646Y113165D01*
X40917Y120894D02*
X42126Y119685D01*
X64740Y154945D02*
X79528Y140157D01*
X37988Y157874D02*
X57669D01*
X60605Y274887D02*
X63277Y277559D01*
X60605Y274887D02*
X60914Y275197D01*
X28126Y250567D02*
X46677Y269118D01*
X17421Y247638D02*
X21055D01*
X51574Y96457D02*
Y106094D01*
X45276Y84055D02*
X51181D01*
X36811Y83465D02*
X43850D01*
X51574Y90552D02*
Y96457D01*
Y85004D02*
Y90552D01*
D143*
X-44122Y129921D02*
G03*
X-24803Y149241I0J19319D01*
G01*
Y182283D01*
X-24016Y183071D01*
D144*
X-69002Y117139D02*
D03*
X-96142Y121924D02*
D03*
D145*
X-71033Y128291D02*
D03*
X-90419Y131709D02*
D03*
D146*
X-99197Y307998D02*
D03*
D03*
X-117991Y314839D02*
D03*
X-121411Y305442D02*
D03*
X-146182Y325099D02*
D03*
X-136785Y321679D02*
D03*
X-149602Y315702D02*
D03*
X-140205Y312282D02*
D03*
X-130808Y308862D02*
D03*
X-127388Y318259D02*
D03*
X-108594Y311418D02*
D03*
D03*
X150624Y347902D02*
D03*
D03*
X132648Y339135D02*
D03*
X137031Y330147D02*
D03*
X105684Y325984D02*
D03*
X114672Y330367D02*
D03*
X110067Y316996D02*
D03*
X119055Y321379D02*
D03*
X128043Y325763D02*
D03*
X123660Y334751D02*
D03*
X141636Y343518D02*
D03*
D03*
D147*
X108924Y92346D02*
D03*
X171917Y312819D02*
D03*
X-174539D02*
D03*
X145169Y114708D02*
D03*
D148*
X-139567Y181102D02*
D03*
X147441D02*
D03*
D149*
X-6142Y311417D02*
D03*
X3858D02*
D03*
X13858D02*
D03*
D150*
X23858D02*
D03*
D151*
X-57480Y142913D02*
D03*
X-47849Y154528D02*
D03*
X-112205Y320472D02*
D03*
X-110630Y291082D02*
D03*
X-119685Y288583D02*
D03*
X-138189Y303543D02*
D03*
X-129528Y327165D02*
D03*
X-120458Y323622D02*
D03*
X183071Y201575D02*
D03*
X138189Y317323D02*
D03*
X165354Y338189D02*
D03*
X127953Y318448D02*
D03*
X124016Y328740D02*
D03*
X95419Y308518D02*
D03*
X102362Y309842D02*
D03*
X125984Y339370D02*
D03*
X133858Y346457D02*
D03*
X161024Y346063D02*
D03*
X106693Y334646D02*
D03*
X182283Y271260D02*
D03*
X179528Y273622D02*
D03*
X186221Y281102D02*
D03*
X175591Y289370D02*
D03*
X159449Y279528D02*
D03*
X162598Y276378D02*
D03*
X172441Y267323D02*
D03*
X166535Y261024D02*
D03*
X-129134Y277953D02*
D03*
X-123228Y314567D02*
D03*
X45669Y135827D02*
D03*
X41732Y132283D02*
D03*
X9843Y129528D02*
D03*
X-3937Y140157D02*
D03*
X-5709Y137008D02*
D03*
X787Y190945D02*
D03*
X66929Y120472D02*
D03*
X42913Y72835D02*
D03*
X79528Y140157D02*
D03*
X-118898Y296850D02*
D03*
X-12205Y128347D02*
D03*
X112205Y125984D02*
D03*
X160236Y298425D02*
D03*
X118504Y295276D02*
D03*
X104822Y299731D02*
D03*
X171260Y286221D02*
D03*
X99213Y298340D02*
D03*
X110630Y288070D02*
D03*
X143892Y272047D02*
D03*
X141816Y274410D02*
D03*
X142640Y277559D02*
D03*
X23818Y301969D02*
D03*
X-33070Y300787D02*
D03*
X166535Y287402D02*
D03*
X163779Y290158D02*
D03*
X159843Y289764D02*
D03*
X155512Y289370D02*
D03*
X150787D02*
D03*
X151575Y292913D02*
D03*
X154724D02*
D03*
X146358Y237402D02*
D03*
Y240551D02*
D03*
Y243701D02*
D03*
X137402Y269400D02*
D03*
X128347Y246457D02*
D03*
X-22047Y55905D02*
D03*
X68898Y102362D02*
D03*
X-12992Y66929D02*
D03*
X197244Y369291D02*
D03*
X206693Y365354D02*
D03*
X135039Y262587D02*
D03*
X189764Y281102D02*
D03*
X-84646Y168504D02*
D03*
X-83071Y172441D02*
D03*
X-79921Y170079D02*
D03*
X-79134Y174803D02*
D03*
X9449Y250787D02*
D03*
X-110630Y272441D02*
D03*
X37795Y176772D02*
D03*
X-16535Y168898D02*
D03*
X63277Y277559D02*
D03*
X17421Y247638D02*
D03*
X14961Y250787D02*
D03*
X57087Y292520D02*
D03*
X57732Y278543D02*
D03*
X-1996Y131496D02*
D03*
X155645Y160077D02*
D03*
X129134Y250787D02*
D03*
X99213Y264961D02*
D03*
X80315Y266142D02*
D03*
X32677Y272441D02*
D03*
X37988Y157874D02*
D03*
X62612Y120166D02*
D03*
X101575Y267717D02*
D03*
X95669Y263779D02*
D03*
X30709Y91732D02*
D03*
X25591Y101181D02*
D03*
X56693Y62992D02*
D03*
X25591Y63386D02*
D03*
X24016Y94095D02*
D03*
Y89764D02*
D03*
X51181Y52362D02*
D03*
X12992Y91732D02*
D03*
X44488Y122047D02*
D03*
X-37823Y143661D02*
D03*
X-46091Y143701D02*
D03*
X-20472Y266929D02*
D03*
X-69291Y279528D02*
D03*
X-59055Y294882D02*
D03*
X-116920Y137402D02*
D03*
X81890Y296850D02*
D03*
X-46850Y80129D02*
D03*
X40521Y207510D02*
D03*
Y218337D02*
D03*
Y229164D02*
D03*
Y239990D02*
D03*
X70965Y305020D02*
D03*
X79921Y278346D02*
D03*
X116309Y239990D02*
D03*
Y229164D02*
D03*
Y218337D02*
D03*
Y207510D02*
D03*
Y196683D02*
D03*
X105482Y239990D02*
D03*
Y229164D02*
D03*
Y218337D02*
D03*
Y207510D02*
D03*
Y196683D02*
D03*
X94655Y239990D02*
D03*
Y229164D02*
D03*
Y218337D02*
D03*
Y207510D02*
D03*
Y196683D02*
D03*
X83829Y239990D02*
D03*
Y229164D02*
D03*
Y218337D02*
D03*
Y207510D02*
D03*
Y196683D02*
D03*
X73002Y239990D02*
D03*
Y229164D02*
D03*
Y218337D02*
D03*
Y207510D02*
D03*
Y196683D02*
D03*
X62175Y239990D02*
D03*
Y229164D02*
D03*
Y218337D02*
D03*
Y207510D02*
D03*
Y196683D02*
D03*
X51348Y218337D02*
D03*
Y229164D02*
D03*
Y239990D02*
D03*
X-35600D02*
D03*
Y229164D02*
D03*
Y218337D02*
D03*
Y207510D02*
D03*
Y196683D02*
D03*
X-46427D02*
D03*
Y207510D02*
D03*
Y218337D02*
D03*
Y229164D02*
D03*
Y239990D02*
D03*
X-57254Y196683D02*
D03*
Y207510D02*
D03*
Y218337D02*
D03*
Y229164D02*
D03*
Y239990D02*
D03*
X-68081Y196683D02*
D03*
Y207510D02*
D03*
Y218337D02*
D03*
Y229164D02*
D03*
Y239990D02*
D03*
X-78907Y196683D02*
D03*
Y207510D02*
D03*
Y218337D02*
D03*
Y229164D02*
D03*
Y239990D02*
D03*
X-89734Y196683D02*
D03*
Y207510D02*
D03*
Y218337D02*
D03*
Y229164D02*
D03*
Y239990D02*
D03*
X-100561Y196683D02*
D03*
Y207510D02*
D03*
Y218337D02*
D03*
Y229164D02*
D03*
Y239990D02*
D03*
X-44122Y129921D02*
D03*
X-47333Y112205D02*
D03*
X-49978Y110236D02*
D03*
X-40752Y118726D02*
D03*
X-38783Y116082D02*
D03*
X87598Y308169D02*
D03*
X54134Y308071D02*
D03*
X-74410Y134744D02*
D03*
X-70571Y133661D02*
D03*
X-77756Y136221D02*
D03*
X-74016Y139173D02*
D03*
X126772Y273366D02*
D03*
X51348Y196683D02*
D03*
Y207510D02*
D03*
X101941Y278740D02*
D03*
X101153Y274016D02*
D03*
X118480Y255512D02*
D03*
X123200Y249213D02*
D03*
X97000Y291732D02*
D03*
X120265Y290158D02*
D03*
X107480Y135827D02*
D03*
X98397Y122047D02*
D03*
X66043Y305020D02*
D03*
X-20079Y70866D02*
D03*
X-19291Y75590D02*
D03*
X31496Y129134D02*
D03*
X-7508Y109449D02*
D03*
X-10264Y111811D02*
D03*
X759Y164173D02*
D03*
X3122Y160630D02*
D03*
X-31496Y57480D02*
D03*
X39764Y45276D02*
D03*
X46850Y38583D02*
D03*
X-127953Y216142D02*
D03*
X-150000Y207677D02*
D03*
X-155512Y201969D02*
D03*
X-158296Y204724D02*
D03*
X-152784Y210236D02*
D03*
X-166957Y164613D02*
D03*
X-148025Y133916D02*
D03*
X-11024Y155512D02*
D03*
X-11024Y150787D02*
D03*
X6665Y116142D02*
D03*
X10996Y117323D02*
D03*
X39342Y101575D02*
D03*
X42098Y104331D02*
D03*
X36586Y109843D02*
D03*
X33437Y107480D02*
D03*
D152*
X147441Y199992D02*
G03*
X144512Y207063I-10000J0D01*
G01*
X140157Y257874D02*
G03*
X138583Y254072I3802J-3802D01*
G01*
Y217134D02*
G03*
X141512Y210063I10000J0D01*
G01*
X140157Y257874D02*
G03*
X142640Y263869I-5995J5995D01*
G01*
Y277559D01*
X147441Y181102D02*
Y199992D01*
X138583Y232677D02*
Y254072D01*
Y217134D02*
Y232677D01*
X141512Y210063D02*
X144512Y207063D01*
X126772Y232677D02*
X138583D01*
D153*
X150221Y253764D02*
G03*
X153150Y260835I-7071J7071D01*
G01*
X149213Y252756D02*
G03*
X147244Y248004I4752J-4752D01*
G01*
Y223040D02*
G03*
X150173Y215969I10000J0D01*
G01*
X157874Y204126D02*
G03*
X154945Y211197I-10000J0D01*
G01*
Y171874D02*
G03*
X157874Y178945I-7071J7071D01*
G01*
X146645Y167717D02*
G03*
X153716Y170645I0J10000D01*
G01*
X126205D02*
G03*
X133276Y167717I7071J7071D01*
G01*
X-66724Y183071D02*
G03*
X-73795Y180142I0J-10000D01*
G01*
X116708D02*
G03*
X109637Y183071I-7071J-7071D01*
G01*
X153150Y260835D02*
Y282283D01*
X149213Y252756D02*
X150221Y253764D01*
X147244Y223040D02*
Y248004D01*
X150173Y215969D02*
X154945Y211197D01*
X157874Y178945D02*
Y204126D01*
X116708Y180142D02*
X126205Y170645D01*
X153716D02*
X154945Y171874D01*
X133276Y167717D02*
X146645D01*
X153150Y260835D02*
Y273228D01*
X-83268Y170669D02*
X-79134Y174803D01*
X-73795Y180142D01*
X-66724Y183071D02*
X-24016D01*
X109637D01*
X153150Y282283D02*
Y290945D01*
D154*
X104528Y223622D02*
D03*
X104528Y249606D02*
D03*
D155*
X126772Y232677D02*
D03*
Y240551D02*
D03*
D156*
X-3740Y118504D02*
D03*
Y56693D02*
D03*
D157*
X34055Y56299D02*
D03*
D158*
X34055Y114961D02*
D03*
D159*
X36811Y96457D02*
D03*
Y92126D02*
D03*
X36811Y87795D02*
D03*
X36811Y83465D02*
D03*
Y79134D02*
D03*
Y74803D02*
D03*
X36811Y70473D02*
D03*
X36811Y66142D02*
D03*
Y61811D02*
D03*
M02*
