M48
;Layer_Color=9474304
;FILE_FORMAT=2:5
INCH,LZ
;TYPE=PLATED
T1F00S00C0.01181
T4F00S00C0.03543
T5F00S00C0.07874
T6F00S00C0.18898
;TYPE=NON_PLATED
T7F00S00C0.03937
T8F00S00C0.04331
T9F00S00C0.04724
%
T01
X-0148025Y0133916
X-011692Y0137402
X-0166957Y0164613
X-0084646Y0168504
X-0083071Y0172441
X-0079921Y0170079
X-0079134Y0174803
X-0077756Y0136221
X-007441Y0134744
X-0074016Y0139173
X-0070571Y0133661
X-005748Y0142913
X-0046091Y0143701
X-0037823Y0143661
X-0044122Y0129921
X-0040752Y0118726
X-0038783Y0116082
X-0047333Y0112205
X-0049978Y0110236
X-004685Y0080129
X-0019291Y007559
X-0020079Y0070866
X-0012992Y0066929
X-0022047Y0055905
X-0031496Y005748
X0025591Y0063386
X0042913Y0072835
X0056693Y0062992
X0051181Y0052362
X004685Y0038583
X0039764Y0045276
X0030709Y0091732
X0024016Y0089764
Y0094095
X0025591Y0101181
X0039342Y0101575
X0042098Y0104331
X0036586Y0109843
X0033437Y010748
X0031496Y0129134
X0041732Y0132283
X0045669Y0135827
X0044488Y0122047
X0062612Y0120166
X0010996Y0117323
X0006665Y0116142
X0009843Y0129528
X-0001996Y0131496
X-0005709Y0137008
X-0003937Y0140157
X-0011024Y0150787
X-0011024Y0155512
X-0016535Y0168898
X0000759Y0164173
X0003122Y016063
X0037988Y0157874
X0037795Y0176772
X-0012205Y0128347
X-0010264Y0111811
X-0007508Y0109449
X0012992Y0091732
X-0047849Y0154528
X0079528Y0140157
X010748Y0135827
X0112205Y0125984
X0098397Y0122047
X0066929Y0120472
X0068898Y0102362
X0155645Y0160077
X0183071Y0201575
X0182283Y027126
X0179528Y0273622
X0172441Y0267323
X0166535Y0261024
X0162598Y0276378
X0159449Y0279528
X0159843Y0289764
X0163779Y0290158
X0166535Y0287402
X017126Y0286221
X0175591Y028937
X0186221Y0281102
X0189764
X0155512Y028937
X0154724Y0292913
X0151575
X0150787Y028937
X0160236Y0298425
X014264Y0277559
X0141816Y027441
X0143892Y0272047
X0137402Y02694
X0135039Y0262587
X0129134Y0250787
X0128347Y0246457
X01232Y0249213
X011848Y0255512
X0116309Y023999
Y0229164
Y0218337
Y020751
Y0196683
X0105482
Y020751
Y0218337
Y0229164
Y023999
X0094655
Y0229164
Y0218337
Y020751
Y0196683
X0083829
Y020751
Y0218337
Y0229164
Y023999
X0073002
Y0229164
Y0218337
Y020751
Y0196683
X0080315Y0266142
X0079921Y0278346
X0063277Y0277559
X0066043Y030502
X0070965
X008189Y029685
X0087598Y0308169
X0095419Y0308518
X0102362Y0309842
X0104822Y0299731
X0099213Y029834
X0097Y0291732
X011063Y028807
X0120265Y0290158
X0118504Y0295276
X0126772Y0273366
X0101153Y0274016
X0101941Y027874
X0101575Y0267717
X0099213Y0264961
X0095669Y0263779
X0146358Y0243701
Y0240551
Y0237402
X0138189Y0317323
X0127953Y0318448
X0124016Y032874
X0125984Y033937
X0106693Y0334646
X0165354Y0338189
X0054134Y0308071
X0057087Y029252
X0057732Y0278543
X0032677Y0272441
X0023818Y0301969
X-003307Y0300787
X-0059055Y0294882
X-0069291Y0279528
X-0068081Y023999
X-0057254
X-0046427
X-00356
Y0229164
Y0218337
Y020751
Y0196683
X-0046427
Y020751
Y0218337
Y0229164
X-0057254
Y0218337
Y020751
Y0196683
X-0068081
Y020751
Y0218337
Y0229164
X-0078907
Y0218337
Y020751
Y0196683
X-0089734
Y020751
Y0218337
Y0229164
Y023999
X-0078907
X-0020472Y0266929
X0009449Y0250787
X0014961Y0250787
X0017421Y0247638
X0040521Y023999
Y0229164
Y0218337
Y020751
X0051348
X0062175
Y0218337
Y0229164
Y023999
X0051348
Y0229164
Y0218337
Y0196683
X0062175
X0000787Y0190945
X-0100561Y0196683
Y020751
Y0218337
Y0229164
Y023999
X-011063Y0272441
Y0291082
X-0119685Y0288583
X-0118898Y029685
X-0123228Y0314567
X-0120458Y0323622
X-0112205Y0320472
X-0129528Y0327165
X-0138189Y0303543
X-0129134Y0277953
X-0127953Y0216142
X-015Y0207677
X-0152784Y0210236
X-0155512Y0201969
X-0158296Y0204724
X0133858Y0346457
X0161024Y0346063
X0197244Y0369291
X0206693Y0365354
T04
X-0006142Y0311417
X0003858
X0013858
X0023858
T05
X-0139567Y0181102
X0147441
T06
X0108924Y0092346
X0145169Y0114708
X0171917Y0312819
X-0174539
T07
X-0005315Y0068189
Y0099606
T08
X0110067Y0316996
X0105684Y0325984
X0114672Y0330367
X012366Y0334751
X0132648Y0339135
X0137031Y0330147
X0128043Y0325763
X0119055Y0321379
X-0099197Y0307998
X-0108594Y0311418
X-0117991Y0314839
X-0121411Y0305442
X-0130808Y0308862
X-0127388Y0318259
X-0136785Y0321679
X-0146182Y0325099
X-0149602Y0315702
X-0140205Y0312282
X0141636Y0343518
X0150624Y0347902
T09
X011237Y0323681
X0148321Y0341216
X-0105606Y030501
X-0143193Y0318691
M30
