G04*
G04 #@! TF.GenerationSoftware,Altium Limited,Altium Designer,18.1.6 (161)*
G04*
G04 Layer_Color=16711935*
%FSLAX25Y25*%
%MOIN*%
G70*
G01*
G75*
%ADD11C,0.00984*%
%ADD13C,0.00787*%
%ADD15C,0.00394*%
%ADD17C,0.01575*%
%ADD118R,0.04331X0.04724*%
%ADD121R,0.04724X0.04331*%
G04:AMPARAMS|DCode=128|XSize=64.96mil|YSize=39.37mil|CornerRadius=0mil|HoleSize=0mil|Usage=FLASHONLY|Rotation=80.000|XOffset=0mil|YOffset=0mil|HoleType=Round|Shape=Round|*
%AMOVALD128*
21,1,0.02559,0.03937,0.00000,0.00000,80.0*
1,1,0.03937,-0.00222,-0.01260*
1,1,0.03937,0.00222,0.01260*
%
%ADD128OVALD128*%

G04:AMPARAMS|DCode=129|XSize=53.15mil|YSize=41.34mil|CornerRadius=0mil|HoleSize=0mil|Usage=FLASHONLY|Rotation=170.000|XOffset=0mil|YOffset=0mil|HoleType=Round|Shape=Round|*
%AMOVALD129*
21,1,0.01181,0.04134,0.00000,0.00000,170.0*
1,1,0.04134,0.00582,-0.00103*
1,1,0.04134,-0.00582,0.00103*
%
%ADD129OVALD129*%

%ADD130C,0.04724*%
%ADD131C,0.05118*%
%ADD132C,0.27953*%
%ADD133C,0.12205*%
%ADD134C,0.00394*%
%ADD135C,0.06299*%
%ADD136R,0.06299X0.06299*%
%ADD160R,0.12598X0.05906*%
%ADD161R,0.13780X0.06299*%
%ADD162R,0.09843X0.05906*%
%ADD163R,0.06693X0.05906*%
%ADD164R,0.05906X0.06693*%
%ADD165R,0.08268X0.03150*%
%ADD166C,0.01968*%
G36*
X68297Y137618D02*
X68340D01*
Y137575D01*
X68297D01*
Y137532D01*
X68340D01*
Y137490D01*
X68383D01*
Y137447D01*
X68340D01*
Y137404D01*
X68383D01*
Y137362D01*
X68340D01*
Y137319D01*
X68383D01*
Y137276D01*
Y137234D01*
Y137191D01*
X68425D01*
Y137148D01*
Y137106D01*
Y137063D01*
X68468D01*
Y137021D01*
X68425D01*
Y136978D01*
X68468D01*
Y136935D01*
X68425D01*
Y136893D01*
X68468D01*
Y136850D01*
Y136807D01*
Y136765D01*
X68511D01*
Y136722D01*
Y136679D01*
Y136637D01*
X68553D01*
Y136594D01*
X68511D01*
Y136552D01*
X68553D01*
Y136509D01*
X68511D01*
Y136466D01*
X68553D01*
Y136424D01*
Y136381D01*
Y136338D01*
X68596D01*
Y136296D01*
Y136253D01*
Y136211D01*
X68638D01*
Y136168D01*
X68596D01*
Y136125D01*
X68638D01*
Y136083D01*
Y136040D01*
Y135997D01*
Y135955D01*
X68681D01*
Y135912D01*
Y135869D01*
Y135827D01*
Y135784D01*
X68724D01*
Y135741D01*
X68681D01*
Y135699D01*
X68724D01*
Y135656D01*
Y135614D01*
Y135571D01*
X68766D01*
Y135528D01*
Y135486D01*
Y135443D01*
Y135400D01*
Y135358D01*
X68809D01*
Y135315D01*
X68766D01*
Y135273D01*
X68809D01*
Y135230D01*
Y135187D01*
Y135145D01*
X68852D01*
Y135102D01*
Y135059D01*
Y135017D01*
Y134974D01*
Y134931D01*
X68894D01*
Y134889D01*
Y134846D01*
Y134803D01*
Y134761D01*
Y134718D01*
X68937D01*
Y134676D01*
Y134633D01*
Y134590D01*
X68980D01*
Y134548D01*
X68937D01*
Y134505D01*
X68980D01*
Y134462D01*
Y134420D01*
Y134377D01*
X69022D01*
Y134335D01*
X68980D01*
Y134292D01*
X69022D01*
Y134249D01*
Y134206D01*
Y134164D01*
X69065D01*
Y134121D01*
X69022D01*
Y134079D01*
X69065D01*
Y134036D01*
Y133993D01*
Y133951D01*
X69108D01*
Y133908D01*
X69065D01*
Y133865D01*
X69108D01*
Y133823D01*
Y133780D01*
Y133738D01*
X69150D01*
Y133695D01*
X69108D01*
Y133652D01*
X69150D01*
Y133610D01*
Y133567D01*
Y133524D01*
X69193D01*
Y133482D01*
X69150D01*
Y133439D01*
X69193D01*
Y133396D01*
X69235D01*
Y133354D01*
X69193D01*
Y133311D01*
X69235D01*
Y133268D01*
X69193D01*
Y133226D01*
X69235D01*
Y133183D01*
Y133141D01*
Y133098D01*
X69278D01*
Y133055D01*
Y133013D01*
Y132970D01*
X69321D01*
Y132927D01*
X69278D01*
Y132885D01*
X69321D01*
Y132842D01*
X69278D01*
Y132799D01*
X69321D01*
Y132757D01*
Y132714D01*
Y132672D01*
X69363D01*
Y132629D01*
Y132586D01*
Y132544D01*
X69406D01*
Y132501D01*
X69363D01*
Y132458D01*
X69406D01*
Y132416D01*
X69363D01*
Y132373D01*
X69406D01*
Y132331D01*
Y132288D01*
Y132245D01*
X69449D01*
Y132203D01*
Y132160D01*
Y132117D01*
X69491D01*
Y132075D01*
X69449D01*
Y132032D01*
X69491D01*
Y131989D01*
Y131947D01*
Y131904D01*
Y131861D01*
X69534D01*
Y131819D01*
Y131776D01*
Y131734D01*
Y131691D01*
X69577D01*
Y131648D01*
X69534D01*
Y131606D01*
X69577D01*
Y131563D01*
X69534D01*
Y131520D01*
X69577D01*
Y131478D01*
X69619D01*
Y131435D01*
Y131393D01*
Y131350D01*
Y131307D01*
Y131265D01*
X69662D01*
Y131222D01*
X69619D01*
Y131179D01*
X69662D01*
Y131137D01*
Y131094D01*
Y131051D01*
X69704D01*
Y131009D01*
Y130966D01*
Y130923D01*
Y130881D01*
Y130838D01*
X69747D01*
Y130796D01*
Y130753D01*
Y130710D01*
Y130668D01*
Y130625D01*
X69790D01*
Y130582D01*
Y130540D01*
Y130497D01*
X69832D01*
Y130455D01*
X69790D01*
Y130412D01*
X69832D01*
Y130369D01*
Y130326D01*
Y130284D01*
X69875D01*
Y130241D01*
X69832D01*
Y130199D01*
X69875D01*
Y130156D01*
X69918D01*
Y130113D01*
X69875D01*
Y130071D01*
X69918D01*
Y130028D01*
X69875D01*
Y129985D01*
X69918D01*
Y129943D01*
Y129900D01*
Y129858D01*
X69960D01*
Y129815D01*
X69918D01*
Y129772D01*
X69960D01*
Y129730D01*
Y129687D01*
Y129644D01*
X70003D01*
Y129602D01*
X69960D01*
Y129559D01*
X70003D01*
Y129516D01*
Y129474D01*
Y129431D01*
X70046D01*
Y129388D01*
X70003D01*
Y129346D01*
X70046D01*
Y129303D01*
X70088D01*
Y129261D01*
X70046D01*
Y129218D01*
X70088D01*
Y129175D01*
X70046D01*
Y129133D01*
X70088D01*
Y129090D01*
Y129047D01*
Y129005D01*
X70131D01*
Y128962D01*
Y128919D01*
Y128877D01*
X70173D01*
Y128834D01*
X70131D01*
Y128792D01*
X70173D01*
Y128749D01*
X70131D01*
Y128706D01*
X70173D01*
Y128664D01*
Y128621D01*
Y128578D01*
X70216D01*
Y128536D01*
Y128493D01*
Y128451D01*
X70259D01*
Y128408D01*
X70216D01*
Y128365D01*
X70259D01*
Y128323D01*
X70216D01*
Y128280D01*
X70259D01*
Y128237D01*
Y128195D01*
Y128152D01*
X70301D01*
Y128109D01*
Y128067D01*
Y128024D01*
X70344D01*
Y127981D01*
X70301D01*
Y127939D01*
X70344D01*
Y127896D01*
Y127854D01*
Y127811D01*
Y127768D01*
X70387D01*
Y127726D01*
Y127683D01*
Y127640D01*
Y127598D01*
X70429D01*
Y127555D01*
X70387D01*
Y127513D01*
X70429D01*
Y127470D01*
Y127427D01*
Y127385D01*
X70472D01*
Y127342D01*
Y127299D01*
Y127257D01*
Y127214D01*
Y127171D01*
X70515D01*
Y127129D01*
X70472D01*
Y127086D01*
X70515D01*
Y127043D01*
Y127001D01*
Y126958D01*
X70557D01*
Y126916D01*
Y126873D01*
Y126830D01*
Y126788D01*
Y126745D01*
X70600D01*
Y126702D01*
Y126660D01*
Y126617D01*
Y126575D01*
Y126532D01*
X70642D01*
Y126489D01*
Y126447D01*
Y126404D01*
X70685D01*
Y126447D01*
Y126489D01*
Y126532D01*
X70728D01*
Y126575D01*
Y126617D01*
Y126660D01*
X70770D01*
Y126702D01*
X70728D01*
Y126745D01*
X70770D01*
Y126788D01*
Y126830D01*
Y126873D01*
X70813D01*
Y126916D01*
X70770D01*
Y126958D01*
X70813D01*
Y127001D01*
Y127043D01*
Y127086D01*
X70856D01*
Y127129D01*
X70813D01*
Y127171D01*
X70856D01*
Y127214D01*
Y127257D01*
Y127299D01*
X70898D01*
Y127342D01*
X70856D01*
Y127385D01*
X70898D01*
Y127427D01*
X70941D01*
Y127470D01*
X70898D01*
Y127513D01*
X70941D01*
Y127555D01*
X70898D01*
Y127598D01*
X70941D01*
Y127640D01*
Y127683D01*
Y127726D01*
X70983D01*
Y127768D01*
Y127811D01*
Y127854D01*
X71026D01*
Y127896D01*
X70983D01*
Y127939D01*
X71026D01*
Y127981D01*
Y128024D01*
Y128067D01*
Y128109D01*
X71069D01*
Y128152D01*
Y128195D01*
Y128237D01*
Y128280D01*
X71111D01*
Y128323D01*
X71069D01*
Y128365D01*
X71111D01*
Y128408D01*
Y128451D01*
Y128493D01*
X71154D01*
Y128536D01*
Y128578D01*
Y128621D01*
Y128664D01*
Y128706D01*
X71197D01*
Y128749D01*
X71154D01*
Y128792D01*
X71197D01*
Y128834D01*
Y128877D01*
Y128919D01*
X71239D01*
Y128962D01*
Y129005D01*
Y129047D01*
X71282D01*
Y129090D01*
X71239D01*
Y129133D01*
X71282D01*
Y129175D01*
Y129218D01*
Y129261D01*
X71325D01*
Y129303D01*
X71282D01*
Y129346D01*
X71325D01*
Y129388D01*
Y129431D01*
Y129474D01*
X71367D01*
Y129516D01*
X71325D01*
Y129559D01*
X71367D01*
Y129602D01*
Y129644D01*
Y129687D01*
X71410D01*
Y129730D01*
Y129772D01*
Y129815D01*
X71452D01*
Y129858D01*
X71410D01*
Y129900D01*
X71452D01*
Y129943D01*
X71410D01*
Y129985D01*
X71452D01*
Y130028D01*
Y130071D01*
Y130113D01*
X71495D01*
Y130156D01*
Y130199D01*
Y130241D01*
X72561D01*
Y130199D01*
X72518D01*
Y130156D01*
X72561D01*
Y130113D01*
Y130071D01*
Y130028D01*
X72604D01*
Y129985D01*
Y129943D01*
Y129900D01*
Y129858D01*
Y129815D01*
X72646D01*
Y129772D01*
Y129730D01*
Y129687D01*
Y129644D01*
Y129602D01*
X72689D01*
Y129559D01*
Y129516D01*
Y129474D01*
X72732D01*
Y129431D01*
X72689D01*
Y129388D01*
X72732D01*
Y129346D01*
Y129303D01*
Y129261D01*
X72774D01*
Y129218D01*
X72732D01*
Y129175D01*
X72774D01*
Y129133D01*
X72817D01*
Y129090D01*
X72774D01*
Y129047D01*
X72817D01*
Y129005D01*
X72774D01*
Y128962D01*
X72817D01*
Y128919D01*
Y128877D01*
Y128834D01*
X72860D01*
Y128792D01*
Y128749D01*
Y128706D01*
X72902D01*
Y128664D01*
X72860D01*
Y128621D01*
X72902D01*
Y128578D01*
X72860D01*
Y128536D01*
X72902D01*
Y128493D01*
Y128451D01*
Y128408D01*
X72945D01*
Y128365D01*
Y128323D01*
Y128280D01*
X72988D01*
Y128237D01*
X72945D01*
Y128195D01*
X72988D01*
Y128152D01*
X72945D01*
Y128109D01*
X72988D01*
Y128067D01*
Y128024D01*
Y127981D01*
X73030D01*
Y127939D01*
Y127896D01*
Y127854D01*
X73073D01*
Y127811D01*
X73030D01*
Y127768D01*
X73073D01*
Y127726D01*
Y127683D01*
Y127640D01*
Y127598D01*
X73115D01*
Y127555D01*
Y127513D01*
Y127470D01*
Y127427D01*
X73158D01*
Y127385D01*
X73115D01*
Y127342D01*
X73158D01*
Y127299D01*
Y127257D01*
Y127214D01*
X73201D01*
Y127171D01*
Y127129D01*
Y127086D01*
X73243D01*
Y127043D01*
X73201D01*
Y127001D01*
X73243D01*
Y126958D01*
Y126916D01*
Y126873D01*
Y126830D01*
Y126788D01*
X73286D01*
Y126745D01*
Y126702D01*
Y126660D01*
X73329D01*
Y126617D01*
X73286D01*
Y126575D01*
X73329D01*
Y126532D01*
Y126489D01*
Y126447D01*
X73371D01*
Y126489D01*
X73414D01*
Y126532D01*
X73371D01*
Y126575D01*
X73414D01*
Y126617D01*
X73371D01*
Y126660D01*
X73414D01*
Y126702D01*
Y126745D01*
Y126788D01*
Y126830D01*
Y126873D01*
Y126916D01*
Y126958D01*
X73457D01*
Y127001D01*
X73414D01*
Y127043D01*
X73457D01*
Y127086D01*
Y127129D01*
Y127171D01*
Y127214D01*
Y127257D01*
X73499D01*
Y127299D01*
X73457D01*
Y127342D01*
X73499D01*
Y127385D01*
X73457D01*
Y127427D01*
X73499D01*
Y127470D01*
Y127513D01*
Y127555D01*
Y127598D01*
Y127640D01*
X73542D01*
Y127683D01*
X73499D01*
Y127726D01*
X73542D01*
Y127768D01*
Y127811D01*
Y127854D01*
Y127896D01*
Y127939D01*
X73584D01*
Y127981D01*
X73542D01*
Y128024D01*
X73584D01*
Y128067D01*
X73542D01*
Y128109D01*
X73584D01*
Y128152D01*
X73542D01*
Y128195D01*
X73584D01*
Y128237D01*
Y128280D01*
Y128323D01*
X73627D01*
Y128365D01*
X73584D01*
Y128408D01*
X73627D01*
Y128451D01*
Y128493D01*
Y128536D01*
Y128578D01*
Y128621D01*
X73670D01*
Y128664D01*
X73627D01*
Y128706D01*
X73670D01*
Y128749D01*
X73627D01*
Y128792D01*
X73670D01*
Y128834D01*
Y128877D01*
Y128919D01*
Y128962D01*
Y129005D01*
Y129047D01*
Y129090D01*
X73712D01*
Y129133D01*
X73670D01*
Y129175D01*
X73712D01*
Y129218D01*
Y129261D01*
Y129303D01*
Y129346D01*
Y129388D01*
X73755D01*
Y129431D01*
X73712D01*
Y129474D01*
X73755D01*
Y129516D01*
X73712D01*
Y129559D01*
X73755D01*
Y129602D01*
Y129644D01*
Y129687D01*
Y129730D01*
Y129772D01*
Y129815D01*
Y129858D01*
X73798D01*
Y129900D01*
X73755D01*
Y129943D01*
X73798D01*
Y129985D01*
Y130028D01*
Y130071D01*
Y130113D01*
Y130156D01*
X73840D01*
Y130199D01*
X73798D01*
Y130241D01*
X73840D01*
Y130284D01*
X73798D01*
Y130326D01*
X73840D01*
Y130369D01*
Y130412D01*
Y130455D01*
Y130497D01*
Y130540D01*
X73883D01*
Y130582D01*
Y130625D01*
Y130668D01*
Y130710D01*
Y130753D01*
Y130796D01*
Y130838D01*
X73926D01*
Y130881D01*
X73883D01*
Y130923D01*
X73926D01*
Y130966D01*
X73883D01*
Y131009D01*
X73926D01*
Y131051D01*
X73883D01*
Y131094D01*
X73926D01*
Y131137D01*
Y131179D01*
Y131222D01*
X73968D01*
Y131265D01*
X73926D01*
Y131307D01*
X73968D01*
Y131350D01*
Y131393D01*
Y131435D01*
Y131478D01*
Y131520D01*
X74011D01*
Y131563D01*
X73968D01*
Y131606D01*
X74011D01*
Y131648D01*
X73968D01*
Y131691D01*
X74011D01*
Y131734D01*
Y131776D01*
Y131819D01*
Y131861D01*
Y131904D01*
Y131947D01*
Y131989D01*
X74053D01*
Y132032D01*
X74011D01*
Y132075D01*
X74053D01*
Y132117D01*
Y132160D01*
Y132203D01*
Y132245D01*
Y132288D01*
X74096D01*
Y132245D01*
X74224D01*
Y132288D01*
X74267D01*
Y132245D01*
X74395D01*
Y132288D01*
X74437D01*
Y132245D01*
X74565D01*
Y132288D01*
X74608D01*
Y132245D01*
X74736D01*
Y132288D01*
X74778D01*
Y132245D01*
X74906D01*
Y132288D01*
X74949D01*
Y132245D01*
X74991D01*
Y132203D01*
X75034D01*
Y132160D01*
X74991D01*
Y132117D01*
X75034D01*
Y132075D01*
X74991D01*
Y132032D01*
Y131989D01*
Y131947D01*
X74949D01*
Y131904D01*
Y131861D01*
Y131819D01*
Y131776D01*
Y131734D01*
Y131691D01*
Y131648D01*
X74906D01*
Y131606D01*
X74949D01*
Y131563D01*
X74906D01*
Y131520D01*
Y131478D01*
Y131435D01*
Y131393D01*
Y131350D01*
X74863D01*
Y131307D01*
Y131265D01*
Y131222D01*
Y131179D01*
Y131137D01*
X74821D01*
Y131094D01*
X74863D01*
Y131051D01*
X74821D01*
Y131009D01*
X74863D01*
Y130966D01*
X74821D01*
Y130923D01*
Y130881D01*
Y130838D01*
Y130796D01*
Y130753D01*
X74778D01*
Y130710D01*
Y130668D01*
Y130625D01*
Y130582D01*
Y130540D01*
X74736D01*
Y130497D01*
X74778D01*
Y130455D01*
X74736D01*
Y130412D01*
X74778D01*
Y130369D01*
X74736D01*
Y130326D01*
Y130284D01*
Y130241D01*
Y130199D01*
Y130156D01*
X74693D01*
Y130199D01*
X74650D01*
Y130156D01*
X74693D01*
Y130113D01*
Y130071D01*
Y130028D01*
X74650D01*
Y129985D01*
X74693D01*
Y129943D01*
X74650D01*
Y129900D01*
X74693D01*
Y129858D01*
X74650D01*
Y129815D01*
X74693D01*
Y129772D01*
X74650D01*
Y129730D01*
Y129687D01*
Y129644D01*
X74608D01*
Y129602D01*
X74650D01*
Y129559D01*
X74608D01*
Y129516D01*
Y129474D01*
Y129431D01*
X74565D01*
Y129388D01*
X74608D01*
Y129346D01*
X74565D01*
Y129303D01*
X74608D01*
Y129261D01*
X74565D01*
Y129218D01*
Y129175D01*
Y129133D01*
Y129090D01*
Y129047D01*
X74522D01*
Y129005D01*
Y128962D01*
Y128919D01*
Y128877D01*
Y128834D01*
X74480D01*
Y128792D01*
X74522D01*
Y128749D01*
X74480D01*
Y128706D01*
X74522D01*
Y128664D01*
X74480D01*
Y128621D01*
Y128578D01*
Y128536D01*
X74437D01*
Y128493D01*
X74480D01*
Y128451D01*
X74437D01*
Y128408D01*
Y128365D01*
Y128323D01*
Y128280D01*
Y128237D01*
X74395D01*
Y128195D01*
X74437D01*
Y128152D01*
X74395D01*
Y128109D01*
X74437D01*
Y128067D01*
X74395D01*
Y128024D01*
Y127981D01*
Y127939D01*
X74352D01*
Y127896D01*
X74395D01*
Y127854D01*
X74352D01*
Y127811D01*
X74309D01*
Y127768D01*
X74352D01*
Y127726D01*
Y127683D01*
Y127640D01*
X74309D01*
Y127598D01*
X74352D01*
Y127555D01*
X74309D01*
Y127513D01*
Y127470D01*
Y127427D01*
Y127385D01*
Y127342D01*
X74267D01*
Y127299D01*
Y127257D01*
Y127214D01*
Y127171D01*
Y127129D01*
X74224D01*
Y127086D01*
X74267D01*
Y127043D01*
X74224D01*
Y127001D01*
X74267D01*
Y126958D01*
X74224D01*
Y126916D01*
Y126873D01*
Y126830D01*
Y126788D01*
Y126745D01*
X74181D01*
Y126702D01*
Y126660D01*
Y126617D01*
X74139D01*
Y126575D01*
X74181D01*
Y126532D01*
X74139D01*
Y126489D01*
X74181D01*
Y126447D01*
X74139D01*
Y126404D01*
X74181D01*
Y126361D01*
X74139D01*
Y126319D01*
Y126276D01*
Y126233D01*
Y126191D01*
Y126148D01*
X74096D01*
Y126105D01*
Y126063D01*
Y126020D01*
X74053D01*
Y125978D01*
X74096D01*
Y125935D01*
X74053D01*
Y125892D01*
X74096D01*
Y125850D01*
X74053D01*
Y125807D01*
X74096D01*
Y125764D01*
X74053D01*
Y125722D01*
Y125679D01*
Y125636D01*
X74011D01*
Y125594D01*
Y125551D01*
Y125508D01*
Y125466D01*
Y125423D01*
X73968D01*
Y125381D01*
X74011D01*
Y125338D01*
X73968D01*
Y125295D01*
X74011D01*
Y125253D01*
X73968D01*
Y125210D01*
Y125167D01*
Y125125D01*
X73926D01*
Y125082D01*
X73968D01*
Y125040D01*
X73926D01*
Y124997D01*
X73883D01*
Y124954D01*
X73840D01*
Y124997D01*
X73798D01*
Y124954D01*
X73755D01*
Y124997D01*
X73712D01*
Y124954D01*
X73670D01*
Y124997D01*
X73627D01*
Y124954D01*
X73584D01*
Y124997D01*
X73542D01*
Y124954D01*
X73499D01*
Y124997D01*
X73457D01*
Y124954D01*
X73414D01*
Y124997D01*
X73371D01*
Y124954D01*
X73329D01*
Y124997D01*
X73286D01*
Y124954D01*
X73243D01*
Y124997D01*
X73201D01*
Y124954D01*
X73158D01*
Y124997D01*
X73115D01*
Y124954D01*
X73073D01*
Y124997D01*
X72945D01*
Y125040D01*
X72988D01*
Y125082D01*
X72945D01*
Y125125D01*
X72988D01*
Y125167D01*
X72945D01*
Y125210D01*
Y125253D01*
Y125295D01*
X72902D01*
Y125338D01*
Y125381D01*
Y125423D01*
X72860D01*
Y125466D01*
X72902D01*
Y125508D01*
X72860D01*
Y125551D01*
Y125594D01*
Y125636D01*
Y125679D01*
Y125722D01*
X72817D01*
Y125764D01*
Y125807D01*
Y125850D01*
X72774D01*
Y125892D01*
X72817D01*
Y125935D01*
X72774D01*
Y125978D01*
Y126020D01*
Y126063D01*
X72732D01*
Y126105D01*
Y126148D01*
Y126191D01*
X72689D01*
Y126233D01*
X72732D01*
Y126276D01*
X72689D01*
Y126319D01*
Y126361D01*
Y126404D01*
X72646D01*
Y126447D01*
Y126489D01*
Y126532D01*
X72604D01*
Y126575D01*
X72646D01*
Y126617D01*
X72604D01*
Y126660D01*
X72646D01*
Y126702D01*
X72604D01*
Y126745D01*
Y126788D01*
Y126830D01*
X72561D01*
Y126873D01*
Y126916D01*
Y126958D01*
X72518D01*
Y127001D01*
X72561D01*
Y127043D01*
X72518D01*
Y127086D01*
Y127129D01*
Y127171D01*
X72476D01*
Y127214D01*
Y127257D01*
Y127299D01*
Y127342D01*
Y127385D01*
X72433D01*
Y127427D01*
X72476D01*
Y127470D01*
X72433D01*
Y127513D01*
X72391D01*
Y127555D01*
Y127598D01*
Y127640D01*
Y127683D01*
Y127726D01*
X72348D01*
Y127768D01*
X72391D01*
Y127811D01*
X72348D01*
Y127854D01*
Y127896D01*
Y127939D01*
X72305D01*
Y127981D01*
Y128024D01*
Y128067D01*
X72263D01*
Y128109D01*
X72305D01*
Y128152D01*
X72263D01*
Y128195D01*
Y128237D01*
Y128280D01*
Y128323D01*
Y128365D01*
X72220D01*
Y128408D01*
Y128451D01*
Y128493D01*
X72177D01*
Y128536D01*
X72220D01*
Y128578D01*
X72177D01*
Y128621D01*
Y128664D01*
Y128706D01*
X72135D01*
Y128749D01*
Y128792D01*
Y128834D01*
X72092D01*
Y128877D01*
X72135D01*
Y128919D01*
X72092D01*
Y128962D01*
Y129005D01*
Y129047D01*
X72049D01*
Y129090D01*
Y129133D01*
Y129175D01*
X72007D01*
Y129133D01*
X71964D01*
Y129090D01*
Y129047D01*
Y129005D01*
X71921D01*
Y128962D01*
X71964D01*
Y128919D01*
X71921D01*
Y128877D01*
Y128834D01*
Y128792D01*
X71879D01*
Y128749D01*
Y128706D01*
Y128664D01*
X71836D01*
Y128621D01*
X71879D01*
Y128578D01*
X71836D01*
Y128536D01*
Y128493D01*
Y128451D01*
X71794D01*
Y128408D01*
Y128365D01*
Y128323D01*
X71751D01*
Y128280D01*
X71794D01*
Y128237D01*
X71751D01*
Y128195D01*
Y128152D01*
Y128109D01*
Y128067D01*
Y128024D01*
X71708D01*
Y127981D01*
Y127939D01*
Y127896D01*
X71666D01*
Y127854D01*
X71708D01*
Y127811D01*
X71666D01*
Y127768D01*
Y127726D01*
Y127683D01*
X71623D01*
Y127640D01*
Y127598D01*
Y127555D01*
X71580D01*
Y127513D01*
X71623D01*
Y127470D01*
X71580D01*
Y127427D01*
X71623D01*
Y127385D01*
X71580D01*
Y127342D01*
X71538D01*
Y127299D01*
Y127257D01*
Y127214D01*
Y127171D01*
Y127129D01*
X71495D01*
Y127086D01*
X71538D01*
Y127043D01*
X71495D01*
Y127001D01*
Y126958D01*
Y126916D01*
X71452D01*
Y126873D01*
Y126830D01*
Y126788D01*
X71410D01*
Y126745D01*
X71452D01*
Y126702D01*
X71410D01*
Y126660D01*
Y126617D01*
Y126575D01*
X71367D01*
Y126532D01*
X71410D01*
Y126489D01*
X71367D01*
Y126447D01*
X71325D01*
Y126404D01*
X71367D01*
Y126361D01*
X71325D01*
Y126319D01*
X71367D01*
Y126276D01*
X71325D01*
Y126233D01*
Y126191D01*
Y126148D01*
X71282D01*
Y126105D01*
X71239D01*
Y126063D01*
X71282D01*
Y126020D01*
X71239D01*
Y125978D01*
X71282D01*
Y125935D01*
X71239D01*
Y125892D01*
Y125850D01*
Y125807D01*
X71197D01*
Y125764D01*
Y125722D01*
Y125679D01*
X71154D01*
Y125636D01*
X71197D01*
Y125594D01*
X71154D01*
Y125551D01*
Y125508D01*
Y125466D01*
X71111D01*
Y125423D01*
Y125381D01*
Y125338D01*
Y125295D01*
Y125253D01*
X71069D01*
Y125210D01*
X71111D01*
Y125167D01*
X71069D01*
Y125125D01*
Y125082D01*
Y125040D01*
X71026D01*
Y124997D01*
X70983D01*
Y124954D01*
X70941D01*
Y124997D01*
X70898D01*
Y124954D01*
X70856D01*
Y124997D01*
X70813D01*
Y124954D01*
X70770D01*
Y124997D01*
X70728D01*
Y124954D01*
X70685D01*
Y124997D01*
X70642D01*
Y124954D01*
X70600D01*
Y124997D01*
X70557D01*
Y124954D01*
X70515D01*
Y124997D01*
X70472D01*
Y124954D01*
X70429D01*
Y124997D01*
X70387D01*
Y124954D01*
X70344D01*
Y124997D01*
X70301D01*
Y124954D01*
X70259D01*
Y124997D01*
X70216D01*
Y124954D01*
X70173D01*
Y124997D01*
X70131D01*
Y124954D01*
X70088D01*
Y124997D01*
X70046D01*
Y125040D01*
X70088D01*
Y125082D01*
X70046D01*
Y125125D01*
X70088D01*
Y125167D01*
X70046D01*
Y125210D01*
Y125253D01*
Y125295D01*
X70003D01*
Y125338D01*
Y125381D01*
Y125423D01*
X69960D01*
Y125466D01*
X70003D01*
Y125508D01*
X69960D01*
Y125551D01*
Y125594D01*
Y125636D01*
Y125679D01*
Y125722D01*
X69918D01*
Y125764D01*
Y125807D01*
Y125850D01*
X69875D01*
Y125892D01*
X69918D01*
Y125935D01*
X69875D01*
Y125978D01*
Y126020D01*
Y126063D01*
Y126105D01*
Y126148D01*
X69832D01*
Y126191D01*
Y126233D01*
Y126276D01*
X69790D01*
Y126319D01*
X69832D01*
Y126361D01*
X69790D01*
Y126404D01*
Y126447D01*
Y126489D01*
X69747D01*
Y126532D01*
Y126575D01*
Y126617D01*
X69704D01*
Y126660D01*
X69747D01*
Y126702D01*
X69704D01*
Y126745D01*
X69747D01*
Y126788D01*
X69704D01*
Y126830D01*
X69662D01*
Y126873D01*
Y126916D01*
Y126958D01*
Y127001D01*
Y127043D01*
X69619D01*
Y127086D01*
X69662D01*
Y127129D01*
X69619D01*
Y127171D01*
Y127214D01*
Y127257D01*
X69577D01*
Y127299D01*
Y127342D01*
Y127385D01*
X69534D01*
Y127427D01*
X69577D01*
Y127470D01*
X69534D01*
Y127513D01*
Y127555D01*
Y127598D01*
Y127640D01*
Y127683D01*
X69491D01*
Y127726D01*
Y127768D01*
Y127811D01*
X69449D01*
Y127854D01*
X69491D01*
Y127896D01*
X69449D01*
Y127939D01*
Y127981D01*
Y128024D01*
X69406D01*
Y128067D01*
Y128109D01*
Y128152D01*
Y128195D01*
Y128237D01*
X69363D01*
Y128280D01*
X69406D01*
Y128323D01*
X69363D01*
Y128365D01*
Y128408D01*
Y128451D01*
X69321D01*
Y128493D01*
Y128536D01*
Y128578D01*
X69278D01*
Y128621D01*
X69321D01*
Y128664D01*
X69278D01*
Y128706D01*
Y128749D01*
Y128792D01*
X69235D01*
Y128834D01*
X69278D01*
Y128877D01*
X69235D01*
Y128919D01*
Y128962D01*
Y129005D01*
X69193D01*
Y129047D01*
X69235D01*
Y129090D01*
X69193D01*
Y129133D01*
Y129175D01*
Y129218D01*
X69150D01*
Y129261D01*
Y129303D01*
Y129346D01*
X69108D01*
Y129388D01*
X69150D01*
Y129431D01*
X69108D01*
Y129474D01*
X69150D01*
Y129516D01*
X69108D01*
Y129559D01*
Y129602D01*
Y129644D01*
X69065D01*
Y129687D01*
Y129730D01*
Y129772D01*
X69022D01*
Y129815D01*
X69065D01*
Y129858D01*
X69022D01*
Y129900D01*
Y129943D01*
Y129985D01*
Y130028D01*
Y130071D01*
X68980D01*
Y130113D01*
Y130156D01*
Y130199D01*
X68937D01*
Y130241D01*
X68980D01*
Y130284D01*
X68937D01*
Y130326D01*
Y130369D01*
Y130412D01*
X68894D01*
Y130455D01*
X68852D01*
Y130497D01*
X68894D01*
Y130540D01*
X68852D01*
Y130582D01*
X68894D01*
Y130625D01*
X68852D01*
Y130668D01*
X68894D01*
Y130710D01*
X68852D01*
Y130753D01*
X68809D01*
Y130796D01*
Y130838D01*
Y130881D01*
Y130923D01*
Y130966D01*
X68766D01*
Y131009D01*
X68809D01*
Y131051D01*
X68766D01*
Y131094D01*
Y131137D01*
Y131179D01*
X68724D01*
Y131222D01*
Y131265D01*
Y131307D01*
X68681D01*
Y131350D01*
X68724D01*
Y131393D01*
X68681D01*
Y131435D01*
Y131478D01*
Y131520D01*
Y131563D01*
Y131606D01*
X68638D01*
Y131648D01*
Y131691D01*
Y131734D01*
X68596D01*
Y131776D01*
X68638D01*
Y131819D01*
X68596D01*
Y131861D01*
Y131904D01*
Y131947D01*
X68553D01*
Y131989D01*
X68596D01*
Y132032D01*
X68553D01*
Y132075D01*
Y132117D01*
Y132160D01*
X68511D01*
Y132203D01*
X68553D01*
Y132245D01*
X68511D01*
Y132288D01*
Y132331D01*
Y132373D01*
X68468D01*
Y132416D01*
Y132458D01*
Y132501D01*
X68425D01*
Y132544D01*
X68468D01*
Y132586D01*
X68425D01*
Y132629D01*
X68468D01*
Y132672D01*
X68425D01*
Y132714D01*
X68383D01*
Y132757D01*
X68425D01*
Y132799D01*
X68383D01*
Y132842D01*
Y132885D01*
Y132927D01*
X68340D01*
Y132970D01*
X68383D01*
Y133013D01*
X68340D01*
Y133055D01*
Y133098D01*
Y133141D01*
X68297D01*
Y133183D01*
Y133226D01*
Y133268D01*
X68255D01*
Y133311D01*
X68297D01*
Y133354D01*
X68255D01*
Y133396D01*
X68297D01*
Y133439D01*
X68255D01*
Y133482D01*
Y133524D01*
Y133567D01*
X68212D01*
Y133610D01*
Y133652D01*
Y133695D01*
X68169D01*
Y133738D01*
X68212D01*
Y133780D01*
X68169D01*
Y133823D01*
Y133865D01*
Y133908D01*
Y133951D01*
Y133993D01*
X68127D01*
Y134036D01*
Y134079D01*
Y134121D01*
X68084D01*
Y134164D01*
X68127D01*
Y134206D01*
X68084D01*
Y134249D01*
Y134292D01*
Y134335D01*
X68041D01*
Y134377D01*
Y134420D01*
Y134462D01*
Y134505D01*
Y134548D01*
X67999D01*
Y134590D01*
X68041D01*
Y134633D01*
X67999D01*
Y134676D01*
X67956D01*
Y134718D01*
X67999D01*
Y134761D01*
X67956D01*
Y134803D01*
Y134846D01*
Y134889D01*
X67914D01*
Y134931D01*
X67956D01*
Y134974D01*
X67914D01*
Y135017D01*
Y135059D01*
Y135102D01*
X67871D01*
Y135145D01*
Y135187D01*
Y135230D01*
X67828D01*
Y135273D01*
X67871D01*
Y135315D01*
X67828D01*
Y135358D01*
X67871D01*
Y135400D01*
X67828D01*
Y135443D01*
Y135486D01*
Y135528D01*
X67786D01*
Y135571D01*
Y135614D01*
Y135656D01*
X67743D01*
Y135699D01*
X67786D01*
Y135741D01*
X67743D01*
Y135784D01*
Y135827D01*
Y135869D01*
Y135912D01*
Y135955D01*
X67700D01*
Y135997D01*
Y136040D01*
Y136083D01*
X67658D01*
Y136125D01*
X67700D01*
Y136168D01*
X67658D01*
Y136211D01*
Y136253D01*
Y136296D01*
X67615D01*
Y136338D01*
Y136381D01*
Y136424D01*
X67572D01*
Y136466D01*
X67615D01*
Y136509D01*
X67572D01*
Y136552D01*
X67615D01*
Y136594D01*
X67572D01*
Y136637D01*
Y136679D01*
Y136722D01*
X67530D01*
Y136765D01*
Y136807D01*
Y136850D01*
X67487D01*
Y136893D01*
X67530D01*
Y136935D01*
X67487D01*
Y136978D01*
X67530D01*
Y137021D01*
X67487D01*
Y137063D01*
X67445D01*
Y137106D01*
Y137148D01*
Y137191D01*
X67402D01*
Y137234D01*
X67445D01*
Y137276D01*
X67402D01*
Y137319D01*
X67445D01*
Y137362D01*
X67402D01*
Y137404D01*
Y137447D01*
Y137490D01*
X67359D01*
Y137532D01*
Y137575D01*
Y137618D01*
X67317D01*
Y137660D01*
X68297D01*
Y137618D01*
D02*
G37*
G36*
X69235Y128749D02*
X69193D01*
Y128792D01*
X69235D01*
Y128749D01*
D02*
G37*
G36*
X938794Y-186079D02*
X938507D01*
Y-186365D01*
X938221D01*
Y-186652D01*
Y-186938D01*
X937935D01*
Y-187224D01*
X937649D01*
Y-187511D01*
X937362D01*
Y-187797D01*
Y-188083D01*
X937076D01*
Y-188370D01*
X936790D01*
Y-188656D01*
X936503D01*
Y-188942D01*
X936217D01*
Y-189229D01*
Y-189515D01*
X935931D01*
Y-189801D01*
X935644D01*
Y-190088D01*
X935358D01*
Y-190374D01*
Y-190660D01*
X935072D01*
Y-190946D01*
X934785D01*
Y-191233D01*
X934499D01*
Y-191519D01*
X934213D01*
Y-191806D01*
Y-192092D01*
X933926D01*
Y-192378D01*
X933640D01*
Y-192664D01*
X933354D01*
Y-192951D01*
Y-193237D01*
X933068D01*
Y-193523D01*
X932781D01*
Y-193810D01*
X932495D01*
Y-194096D01*
Y-194382D01*
X932209D01*
Y-194669D01*
X931922D01*
Y-194955D01*
X931636D01*
Y-195241D01*
X931350D01*
Y-195528D01*
Y-195814D01*
X931063D01*
Y-196100D01*
X930777D01*
Y-196387D01*
X930491D01*
Y-196673D01*
Y-196959D01*
X930204D01*
Y-197245D01*
X929918D01*
Y-197532D01*
X929632D01*
Y-197818D01*
Y-198104D01*
X929346D01*
Y-198391D01*
X929059D01*
Y-198677D01*
X928773D01*
Y-198963D01*
X928487D01*
Y-199250D01*
Y-199536D01*
X928200D01*
Y-199822D01*
X927914D01*
Y-200109D01*
X927628D01*
Y-200395D01*
Y-200681D01*
X927341D01*
Y-200968D01*
X927055D01*
Y-201254D01*
X926769D01*
Y-201540D01*
Y-201826D01*
X926482D01*
Y-202113D01*
X926196D01*
Y-202399D01*
X925910D01*
Y-202685D01*
X925623D01*
Y-202972D01*
Y-203258D01*
X925337D01*
Y-203544D01*
X925051D01*
Y-203831D01*
X924765D01*
Y-204117D01*
Y-204403D01*
X924478D01*
Y-204690D01*
X924192D01*
Y-204976D01*
X923906D01*
Y-205262D01*
X923619D01*
Y-205549D01*
Y-205835D01*
X923906D01*
Y-206121D01*
Y-206407D01*
X924192D01*
Y-206694D01*
Y-206980D01*
X924478D01*
Y-207266D01*
X924765D01*
Y-207553D01*
Y-207839D01*
X925051D01*
Y-208125D01*
Y-208412D01*
X925337D01*
Y-208698D01*
Y-208984D01*
X925623D01*
Y-209271D01*
Y-209557D01*
X925910D01*
Y-209843D01*
Y-210129D01*
X926196D01*
Y-210416D01*
Y-210702D01*
X926482D01*
Y-210988D01*
Y-211275D01*
X926769D01*
Y-211561D01*
Y-211847D01*
X927055D01*
Y-212134D01*
X927341D01*
Y-212420D01*
Y-212706D01*
X927628D01*
Y-212993D01*
Y-213279D01*
X927914D01*
Y-213565D01*
Y-213851D01*
X928200D01*
Y-214138D01*
Y-214424D01*
X928487D01*
Y-214710D01*
Y-214997D01*
X928773D01*
Y-215283D01*
Y-215569D01*
X929059D01*
Y-215856D01*
Y-216142D01*
X929346D01*
Y-216428D01*
X929632D01*
Y-216715D01*
Y-217001D01*
X929918D01*
Y-217287D01*
Y-217574D01*
X930204D01*
Y-217860D01*
Y-218146D01*
X930491D01*
Y-218433D01*
Y-218719D01*
X930777D01*
Y-219005D01*
Y-219291D01*
X931063D01*
Y-219578D01*
Y-219864D01*
X931350D01*
Y-220150D01*
Y-220437D01*
X931636D01*
Y-220723D01*
X931922D01*
Y-221009D01*
Y-221296D01*
X932209D01*
Y-221582D01*
Y-221868D01*
X932495D01*
Y-222155D01*
X917320D01*
Y-221868D01*
X917034D01*
Y-221582D01*
Y-221296D01*
Y-221009D01*
X916748D01*
Y-220723D01*
Y-220437D01*
Y-220150D01*
X916461D01*
Y-219864D01*
Y-219578D01*
X916175D01*
Y-219291D01*
Y-219005D01*
Y-218719D01*
X915889D01*
Y-218433D01*
Y-218146D01*
Y-217860D01*
X915602D01*
Y-217574D01*
Y-217287D01*
X915316D01*
Y-217001D01*
Y-216715D01*
Y-216428D01*
X915030D01*
Y-216142D01*
Y-215856D01*
Y-215569D01*
X914744D01*
Y-215283D01*
Y-214997D01*
Y-214710D01*
X914457D01*
Y-214424D01*
X913885D01*
Y-214710D01*
Y-214997D01*
X913598D01*
Y-215283D01*
X913312D01*
Y-215569D01*
Y-215856D01*
X913026D01*
Y-216142D01*
X912739D01*
Y-216428D01*
Y-216715D01*
X912453D01*
Y-217001D01*
X912167D01*
Y-217287D01*
Y-217574D01*
X911880D01*
Y-217860D01*
X911594D01*
Y-218146D01*
X911308D01*
Y-218433D01*
Y-218719D01*
X911022D01*
Y-219005D01*
X910735D01*
Y-219291D01*
Y-219578D01*
X910449D01*
Y-219864D01*
X910163D01*
Y-220150D01*
Y-220437D01*
X909876D01*
Y-220723D01*
X909590D01*
Y-221009D01*
Y-221296D01*
X909304D01*
Y-221582D01*
X909017D01*
Y-221868D01*
Y-222155D01*
X892984D01*
Y-221868D01*
X893270D01*
Y-221582D01*
X893556D01*
Y-221296D01*
X893843D01*
Y-221009D01*
X894129D01*
Y-220723D01*
Y-220437D01*
X894415D01*
Y-220150D01*
X894702D01*
Y-219864D01*
X894988D01*
Y-219578D01*
X895274D01*
Y-219291D01*
Y-219005D01*
X895561D01*
Y-218719D01*
X895847D01*
Y-218433D01*
X896133D01*
Y-218146D01*
Y-217860D01*
X896420D01*
Y-217574D01*
X896706D01*
Y-217287D01*
X896992D01*
Y-217001D01*
X897278D01*
Y-216715D01*
Y-216428D01*
X897565D01*
Y-216142D01*
X897851D01*
Y-215856D01*
X898137D01*
Y-215569D01*
X898424D01*
Y-215283D01*
Y-214997D01*
X898710D01*
Y-214710D01*
X898996D01*
Y-214424D01*
X899283D01*
Y-214138D01*
Y-213851D01*
X899569D01*
Y-213565D01*
X899855D01*
Y-213279D01*
X900142D01*
Y-212993D01*
X900428D01*
Y-212706D01*
Y-212420D01*
X900714D01*
Y-212134D01*
X901000D01*
Y-211847D01*
X901287D01*
Y-211561D01*
Y-211275D01*
X901573D01*
Y-210988D01*
X901859D01*
Y-210702D01*
X902146D01*
Y-210416D01*
X902432D01*
Y-210129D01*
Y-209843D01*
X902718D01*
Y-209557D01*
X903005D01*
Y-209271D01*
X903291D01*
Y-208984D01*
Y-208698D01*
X903577D01*
Y-208412D01*
X903864D01*
Y-208125D01*
X904150D01*
Y-207839D01*
X904436D01*
Y-207553D01*
Y-207266D01*
X904723D01*
Y-206980D01*
X905009D01*
Y-206694D01*
X905295D01*
Y-206407D01*
X905581D01*
Y-206121D01*
Y-205835D01*
X905868D01*
Y-205549D01*
X906154D01*
Y-205262D01*
X906441D01*
Y-204976D01*
Y-204690D01*
X906727D01*
Y-204403D01*
X907013D01*
Y-204117D01*
X907299D01*
Y-203831D01*
X907586D01*
Y-203544D01*
Y-203258D01*
X907872D01*
Y-202972D01*
Y-202685D01*
Y-202399D01*
X907586D01*
Y-202113D01*
X907299D01*
Y-201826D01*
Y-201540D01*
X907013D01*
Y-201254D01*
Y-200968D01*
X906727D01*
Y-200681D01*
Y-200395D01*
X906441D01*
Y-200109D01*
Y-199822D01*
X906154D01*
Y-199536D01*
Y-199250D01*
X905868D01*
Y-198963D01*
Y-198677D01*
X905581D01*
Y-198391D01*
X905295D01*
Y-198104D01*
Y-197818D01*
X905009D01*
Y-197532D01*
Y-197245D01*
X904723D01*
Y-196959D01*
Y-196673D01*
X904436D01*
Y-196387D01*
Y-196100D01*
X904150D01*
Y-195814D01*
Y-195528D01*
X903864D01*
Y-195241D01*
Y-194955D01*
X903577D01*
Y-194669D01*
X903291D01*
Y-194382D01*
Y-194096D01*
X903005D01*
Y-193810D01*
Y-193523D01*
X902718D01*
Y-193237D01*
Y-192951D01*
X902432D01*
Y-192664D01*
Y-192378D01*
X902146D01*
Y-192092D01*
Y-191806D01*
X901859D01*
Y-191519D01*
Y-191233D01*
X901573D01*
Y-190946D01*
Y-190660D01*
X901287D01*
Y-190374D01*
X901000D01*
Y-190088D01*
Y-189801D01*
X900714D01*
Y-189515D01*
Y-189229D01*
X900428D01*
Y-188942D01*
Y-188656D01*
X900142D01*
Y-188370D01*
Y-188083D01*
X899855D01*
Y-187797D01*
Y-187511D01*
X899569D01*
Y-187224D01*
Y-186938D01*
X899283D01*
Y-186652D01*
X898996D01*
Y-186365D01*
Y-186079D01*
X898710D01*
Y-185793D01*
X914457D01*
Y-186079D01*
X914744D01*
Y-186365D01*
Y-186652D01*
Y-186938D01*
X915030D01*
Y-187224D01*
Y-187511D01*
Y-187797D01*
X915316D01*
Y-188083D01*
Y-188370D01*
Y-188656D01*
X915602D01*
Y-188942D01*
Y-189229D01*
Y-189515D01*
X915889D01*
Y-189801D01*
Y-190088D01*
Y-190374D01*
X916175D01*
Y-190660D01*
Y-190946D01*
Y-191233D01*
X916461D01*
Y-191519D01*
Y-191806D01*
Y-192092D01*
X916748D01*
Y-192378D01*
Y-192664D01*
Y-192951D01*
X917034D01*
Y-193237D01*
Y-193523D01*
Y-193810D01*
Y-194096D01*
X917607D01*
Y-193810D01*
X917893D01*
Y-193523D01*
X918179D01*
Y-193237D01*
Y-192951D01*
X918466D01*
Y-192664D01*
X918752D01*
Y-192378D01*
Y-192092D01*
X919038D01*
Y-191806D01*
X919324D01*
Y-191519D01*
Y-191233D01*
X919611D01*
Y-190946D01*
X919897D01*
Y-190660D01*
Y-190374D01*
X920183D01*
Y-190088D01*
X920470D01*
Y-189801D01*
Y-189515D01*
X920756D01*
Y-189229D01*
X921042D01*
Y-188942D01*
Y-188656D01*
X921329D01*
Y-188370D01*
X921615D01*
Y-188083D01*
Y-187797D01*
X921901D01*
Y-187511D01*
X922188D01*
Y-187224D01*
Y-186938D01*
X922474D01*
Y-186652D01*
X922760D01*
Y-186365D01*
Y-186079D01*
X923047D01*
Y-185793D01*
X938794D01*
Y-186079D01*
D02*
G37*
G36*
X805658Y-172050D02*
X807376D01*
Y-172336D01*
X808235D01*
Y-172623D01*
X809094D01*
Y-172909D01*
X809953D01*
Y-173195D01*
X810526D01*
Y-173481D01*
X810812D01*
Y-173768D01*
X811385D01*
Y-174054D01*
X811671D01*
Y-174340D01*
X812243D01*
Y-174627D01*
X812530D01*
Y-174913D01*
X812816D01*
Y-175199D01*
X813103D01*
Y-175486D01*
X813389D01*
Y-175772D01*
X813675D01*
Y-176058D01*
X813961D01*
Y-176345D01*
Y-176631D01*
X814248D01*
Y-176917D01*
X814534D01*
Y-177204D01*
Y-177490D01*
X814820D01*
Y-177776D01*
X815107D01*
Y-178062D01*
Y-178349D01*
X815393D01*
Y-178635D01*
Y-178921D01*
Y-179208D01*
X815679D01*
Y-179494D01*
Y-179780D01*
Y-180067D01*
X815966D01*
Y-180353D01*
Y-180639D01*
Y-180926D01*
Y-181212D01*
X816252D01*
Y-181498D01*
Y-181784D01*
Y-182071D01*
Y-182357D01*
Y-182643D01*
X816538D01*
Y-182930D01*
Y-183216D01*
Y-183502D01*
Y-183789D01*
Y-184075D01*
Y-184361D01*
Y-184648D01*
Y-184934D01*
Y-185220D01*
Y-185507D01*
Y-185793D01*
Y-186079D01*
Y-186365D01*
Y-186652D01*
Y-186938D01*
Y-187224D01*
Y-187511D01*
Y-187797D01*
Y-188083D01*
Y-188370D01*
X816252D01*
Y-188656D01*
Y-188942D01*
Y-189229D01*
Y-189515D01*
Y-189801D01*
Y-190088D01*
Y-190374D01*
X815966D01*
Y-190660D01*
Y-190946D01*
Y-191233D01*
Y-191519D01*
Y-191806D01*
X815679D01*
Y-192092D01*
Y-192378D01*
Y-192664D01*
Y-192951D01*
Y-193237D01*
X815393D01*
Y-193523D01*
Y-193810D01*
Y-194096D01*
X815107D01*
Y-194382D01*
Y-194669D01*
Y-194955D01*
Y-195241D01*
X814820D01*
Y-195528D01*
Y-195814D01*
Y-196100D01*
X814534D01*
Y-196387D01*
Y-196673D01*
X814248D01*
Y-196959D01*
Y-197245D01*
Y-197532D01*
X813961D01*
Y-197818D01*
Y-198104D01*
X813675D01*
Y-198391D01*
Y-198677D01*
X813389D01*
Y-198963D01*
Y-199250D01*
X813103D01*
Y-199536D01*
X812816D01*
Y-199822D01*
Y-200109D01*
X812530D01*
Y-200395D01*
X812243D01*
Y-200681D01*
X811957D01*
Y-200968D01*
Y-201254D01*
X811671D01*
Y-201540D01*
X811385D01*
Y-201826D01*
X811098D01*
Y-202113D01*
X810812D01*
Y-202399D01*
X810526D01*
Y-202685D01*
X809953D01*
Y-202972D01*
X809667D01*
Y-203258D01*
X809094D01*
Y-203544D01*
X808808D01*
Y-203831D01*
X808235D01*
Y-204117D01*
X807376D01*
Y-204403D01*
X806517D01*
Y-204690D01*
X805658D01*
Y-204976D01*
X803940D01*
Y-205262D01*
X798787D01*
Y-204976D01*
X796210D01*
Y-204690D01*
X794206D01*
Y-204403D01*
X792774D01*
Y-204117D01*
X791343D01*
Y-203831D01*
X789911D01*
Y-204117D01*
Y-204403D01*
Y-204690D01*
Y-204976D01*
Y-205262D01*
Y-205549D01*
Y-205835D01*
X789625D01*
Y-206121D01*
Y-206407D01*
Y-206694D01*
Y-206980D01*
Y-207266D01*
Y-207553D01*
X789338D01*
Y-207839D01*
Y-208125D01*
Y-208412D01*
Y-208698D01*
Y-208984D01*
Y-209271D01*
X789052D01*
Y-209557D01*
Y-209843D01*
Y-210129D01*
Y-210416D01*
Y-210702D01*
Y-210988D01*
Y-211275D01*
X788766D01*
Y-211561D01*
Y-211847D01*
Y-212134D01*
Y-212420D01*
Y-212706D01*
Y-212993D01*
X788480D01*
Y-213279D01*
Y-213565D01*
Y-213851D01*
Y-214138D01*
Y-214424D01*
Y-214710D01*
X788193D01*
Y-214997D01*
Y-215283D01*
Y-215569D01*
Y-215856D01*
Y-216142D01*
Y-216428D01*
Y-216715D01*
X787907D01*
Y-217001D01*
Y-217287D01*
Y-217574D01*
Y-217860D01*
Y-218146D01*
Y-218433D01*
X787621D01*
Y-218719D01*
Y-219005D01*
Y-219291D01*
Y-219578D01*
Y-219864D01*
Y-220150D01*
X787334D01*
Y-220437D01*
Y-220723D01*
Y-221009D01*
Y-221296D01*
Y-221582D01*
Y-221868D01*
Y-222155D01*
X773878D01*
Y-221868D01*
X774164D01*
Y-221582D01*
Y-221296D01*
Y-221009D01*
Y-220723D01*
Y-220437D01*
X774450D01*
Y-220150D01*
Y-219864D01*
Y-219578D01*
Y-219291D01*
Y-219005D01*
Y-218719D01*
Y-218433D01*
X774737D01*
Y-218146D01*
Y-217860D01*
Y-217574D01*
Y-217287D01*
Y-217001D01*
Y-216715D01*
X775023D01*
Y-216428D01*
Y-216142D01*
Y-215856D01*
Y-215569D01*
Y-215283D01*
Y-214997D01*
X775309D01*
Y-214710D01*
Y-214424D01*
Y-214138D01*
Y-213851D01*
Y-213565D01*
Y-213279D01*
Y-212993D01*
X775596D01*
Y-212706D01*
Y-212420D01*
Y-212134D01*
Y-211847D01*
Y-211561D01*
Y-211275D01*
X775882D01*
Y-210988D01*
Y-210702D01*
Y-210416D01*
Y-210129D01*
Y-209843D01*
Y-209557D01*
X776168D01*
Y-209271D01*
Y-208984D01*
Y-208698D01*
Y-208412D01*
Y-208125D01*
Y-207839D01*
X776454D01*
Y-207553D01*
Y-207266D01*
Y-206980D01*
Y-206694D01*
Y-206407D01*
Y-206121D01*
Y-205835D01*
X776741D01*
Y-205549D01*
Y-205262D01*
Y-204976D01*
Y-204690D01*
Y-204403D01*
Y-204117D01*
X777027D01*
Y-203831D01*
Y-203544D01*
Y-203258D01*
Y-202972D01*
Y-202685D01*
Y-202399D01*
X777313D01*
Y-202113D01*
Y-201826D01*
Y-201540D01*
Y-201254D01*
Y-200968D01*
Y-200681D01*
X777600D01*
Y-200395D01*
Y-200109D01*
Y-199822D01*
Y-199536D01*
Y-199250D01*
Y-198963D01*
Y-198677D01*
X777886D01*
Y-198391D01*
Y-198104D01*
Y-197818D01*
Y-197532D01*
Y-197245D01*
Y-196959D01*
X778172D01*
Y-196673D01*
Y-196387D01*
Y-196100D01*
Y-195814D01*
Y-195528D01*
Y-195241D01*
X778459D01*
Y-194955D01*
Y-194669D01*
Y-194382D01*
Y-194096D01*
Y-193810D01*
Y-193523D01*
Y-193237D01*
X778745D01*
Y-192951D01*
Y-192664D01*
Y-192378D01*
Y-192092D01*
Y-191806D01*
Y-191519D01*
X779031D01*
Y-191233D01*
Y-190946D01*
Y-190660D01*
Y-190374D01*
Y-190088D01*
Y-189801D01*
X779318D01*
Y-189515D01*
Y-189229D01*
Y-188942D01*
Y-188656D01*
Y-188370D01*
Y-188083D01*
X779604D01*
Y-187797D01*
Y-187511D01*
Y-187224D01*
Y-186938D01*
Y-186652D01*
Y-186365D01*
Y-186079D01*
X779890D01*
Y-185793D01*
Y-185507D01*
Y-185220D01*
Y-184934D01*
Y-184648D01*
Y-184361D01*
X780176D01*
Y-184075D01*
Y-183789D01*
Y-183502D01*
Y-183216D01*
Y-182930D01*
Y-182643D01*
X780463D01*
Y-182357D01*
Y-182071D01*
Y-181784D01*
Y-181498D01*
Y-181212D01*
Y-180926D01*
Y-180639D01*
X780749D01*
Y-180353D01*
Y-180067D01*
Y-179780D01*
Y-179494D01*
Y-179208D01*
Y-178921D01*
X781035D01*
Y-178635D01*
Y-178349D01*
Y-178062D01*
Y-177776D01*
Y-177490D01*
Y-177204D01*
X781322D01*
Y-176917D01*
Y-176631D01*
Y-176345D01*
Y-176058D01*
Y-175772D01*
Y-175486D01*
Y-175199D01*
X781608D01*
Y-174913D01*
Y-174627D01*
Y-174340D01*
Y-174054D01*
Y-173768D01*
Y-173481D01*
X781894D01*
Y-173195D01*
Y-172909D01*
Y-172623D01*
Y-172336D01*
Y-172050D01*
Y-171764D01*
X805658D01*
Y-172050D01*
D02*
G37*
G36*
X894702Y-186079D02*
Y-186365D01*
Y-186652D01*
Y-186938D01*
Y-187224D01*
Y-187511D01*
Y-187797D01*
Y-188083D01*
Y-188370D01*
Y-188656D01*
Y-188942D01*
Y-189229D01*
Y-189515D01*
Y-189801D01*
Y-190088D01*
Y-190374D01*
Y-190660D01*
Y-190946D01*
Y-191233D01*
Y-191519D01*
Y-191806D01*
X894415D01*
Y-192092D01*
Y-192378D01*
Y-192664D01*
Y-192951D01*
Y-193237D01*
X894129D01*
Y-193523D01*
Y-193810D01*
Y-194096D01*
Y-194382D01*
X893843D01*
Y-194669D01*
Y-194955D01*
Y-195241D01*
Y-195528D01*
X893556D01*
Y-195814D01*
Y-196100D01*
Y-196387D01*
X893270D01*
Y-196673D01*
Y-196959D01*
Y-197245D01*
X892984D01*
Y-197532D01*
Y-197818D01*
Y-198104D01*
X892698D01*
Y-198391D01*
Y-198677D01*
Y-198963D01*
X892411D01*
Y-199250D01*
Y-199536D01*
X892125D01*
Y-199822D01*
Y-200109D01*
X891838D01*
Y-200395D01*
Y-200681D01*
Y-200968D01*
X891552D01*
Y-201254D01*
Y-201540D01*
X891266D01*
Y-201826D01*
Y-202113D01*
Y-202399D01*
X890980D01*
Y-202685D01*
Y-202972D01*
X890693D01*
Y-203258D01*
Y-203544D01*
Y-203831D01*
X890407D01*
Y-204117D01*
Y-204403D01*
X890121D01*
Y-204690D01*
Y-204976D01*
Y-205262D01*
X889834D01*
Y-205549D01*
Y-205835D01*
X889548D01*
Y-206121D01*
Y-206407D01*
Y-206694D01*
X889262D01*
Y-206980D01*
Y-207266D01*
X888975D01*
Y-207553D01*
Y-207839D01*
Y-208125D01*
X888689D01*
Y-208412D01*
Y-208698D01*
X888403D01*
Y-208984D01*
Y-209271D01*
Y-209557D01*
X888116D01*
Y-209843D01*
Y-210129D01*
X887830D01*
Y-210416D01*
Y-210702D01*
Y-210988D01*
X887544D01*
Y-211275D01*
Y-211561D01*
X887257D01*
Y-211847D01*
Y-212134D01*
Y-212420D01*
X886971D01*
Y-212706D01*
Y-212993D01*
X886685D01*
Y-213279D01*
Y-213565D01*
Y-213851D01*
X886399D01*
Y-214138D01*
Y-214424D01*
X886112D01*
Y-214710D01*
Y-214997D01*
Y-215283D01*
X885826D01*
Y-215569D01*
Y-215856D01*
X885540D01*
Y-216142D01*
Y-216428D01*
Y-216715D01*
X885253D01*
Y-217001D01*
Y-217287D01*
X884967D01*
Y-217574D01*
Y-217860D01*
Y-218146D01*
X884681D01*
Y-218433D01*
Y-218719D01*
X884394D01*
Y-219005D01*
Y-219291D01*
Y-219578D01*
X884108D01*
Y-219864D01*
Y-220150D01*
X883822D01*
Y-220437D01*
Y-220723D01*
Y-221009D01*
X883535D01*
Y-221296D01*
Y-221582D01*
X883249D01*
Y-221868D01*
Y-222155D01*
Y-222441D01*
X882963D01*
Y-222727D01*
Y-223014D01*
X882677D01*
Y-223300D01*
Y-223586D01*
X882390D01*
Y-223872D01*
Y-224159D01*
X882104D01*
Y-224445D01*
Y-224731D01*
Y-225018D01*
X881818D01*
Y-225304D01*
X881531D01*
Y-225590D01*
Y-225877D01*
Y-226163D01*
X881245D01*
Y-226449D01*
X880959D01*
Y-226736D01*
Y-227022D01*
X880672D01*
Y-227308D01*
Y-227595D01*
X880386D01*
Y-227881D01*
Y-228167D01*
X880100D01*
Y-228453D01*
Y-228740D01*
X879813D01*
Y-229026D01*
X879527D01*
Y-229312D01*
Y-229599D01*
X879241D01*
Y-229885D01*
Y-230171D01*
X878954D01*
Y-230458D01*
X878668D01*
Y-230744D01*
X878382D01*
Y-231030D01*
Y-231317D01*
X878096D01*
Y-231603D01*
X877809D01*
Y-231889D01*
Y-232176D01*
X877523D01*
Y-232462D01*
X877237D01*
Y-232748D01*
X876950D01*
Y-233034D01*
Y-233321D01*
X876664D01*
Y-233607D01*
X876378D01*
Y-233893D01*
X876091D01*
Y-234180D01*
X875805D01*
Y-234466D01*
X875519D01*
Y-234752D01*
Y-235039D01*
X875232D01*
Y-235325D01*
X874946D01*
Y-235611D01*
X874660D01*
Y-235898D01*
X874373D01*
Y-236184D01*
X874087D01*
Y-236470D01*
X873801D01*
Y-236757D01*
X873514D01*
Y-237043D01*
X872942D01*
Y-237329D01*
X872656D01*
Y-237615D01*
X872369D01*
Y-237902D01*
X872083D01*
Y-238188D01*
X871797D01*
Y-238474D01*
X871224D01*
Y-238761D01*
X870938D01*
Y-239047D01*
X870365D01*
Y-239333D01*
X870079D01*
Y-239620D01*
X869506D01*
Y-239906D01*
X869220D01*
Y-240192D01*
X868647D01*
Y-240479D01*
X868075D01*
Y-240765D01*
X867502D01*
Y-241051D01*
X866929D01*
Y-241338D01*
X866357D01*
Y-241624D01*
X865498D01*
Y-241910D01*
X864925D01*
Y-242196D01*
X864066D01*
Y-242483D01*
X862921D01*
Y-242769D01*
X861776D01*
Y-243056D01*
X860058D01*
Y-243342D01*
X858054D01*
Y-243628D01*
X857767D01*
Y-243342D01*
Y-243056D01*
Y-242769D01*
Y-242483D01*
Y-242196D01*
Y-241910D01*
Y-241624D01*
Y-241338D01*
Y-241051D01*
Y-240765D01*
Y-240479D01*
Y-240192D01*
Y-239906D01*
Y-239620D01*
Y-239333D01*
Y-239047D01*
Y-238761D01*
Y-238474D01*
Y-238188D01*
Y-237902D01*
Y-237615D01*
Y-237329D01*
Y-237043D01*
Y-236757D01*
Y-236470D01*
Y-236184D01*
Y-235898D01*
Y-235611D01*
Y-235325D01*
Y-235039D01*
Y-234752D01*
Y-234466D01*
Y-234180D01*
X858340D01*
Y-233893D01*
X858912D01*
Y-233607D01*
X859485D01*
Y-233321D01*
X860058D01*
Y-233034D01*
X860630D01*
Y-232748D01*
X861203D01*
Y-232462D01*
X861489D01*
Y-232176D01*
X862062D01*
Y-231889D01*
X862348D01*
Y-231603D01*
X862921D01*
Y-231317D01*
X863207D01*
Y-231030D01*
X863494D01*
Y-230744D01*
X864066D01*
Y-230458D01*
X864353D01*
Y-230171D01*
X864639D01*
Y-229885D01*
X864925D01*
Y-229599D01*
X865211D01*
Y-229312D01*
X865498D01*
Y-229026D01*
X865784D01*
Y-228740D01*
X866070D01*
Y-228453D01*
X866357D01*
Y-228167D01*
X866643D01*
Y-227881D01*
X866929D01*
Y-227595D01*
X867216D01*
Y-227308D01*
Y-227022D01*
X867502D01*
Y-226736D01*
X867788D01*
Y-226449D01*
X868075D01*
Y-226163D01*
Y-225877D01*
X868361D01*
Y-225590D01*
X868647D01*
Y-225304D01*
Y-225018D01*
X868933D01*
Y-224731D01*
Y-224445D01*
X869220D01*
Y-224159D01*
X869506D01*
Y-223872D01*
Y-223586D01*
X869792D01*
Y-223300D01*
Y-223014D01*
X870079D01*
Y-222727D01*
Y-222441D01*
X868361D01*
Y-222155D01*
X866357D01*
Y-221868D01*
X865211D01*
Y-221582D01*
X864639D01*
Y-221296D01*
X863780D01*
Y-221009D01*
X863207D01*
Y-220723D01*
X862921D01*
Y-220437D01*
X862348D01*
Y-220150D01*
X862062D01*
Y-219864D01*
X861776D01*
Y-219578D01*
X861489D01*
Y-219291D01*
X861203D01*
Y-219005D01*
X860917D01*
Y-218719D01*
Y-218433D01*
X860630D01*
Y-218146D01*
X860344D01*
Y-217860D01*
Y-217574D01*
X860058D01*
Y-217287D01*
Y-217001D01*
X859772D01*
Y-216715D01*
Y-216428D01*
X859485D01*
Y-216142D01*
Y-215856D01*
Y-215569D01*
X859199D01*
Y-215283D01*
Y-214997D01*
Y-214710D01*
Y-214424D01*
X858912D01*
Y-214138D01*
Y-213851D01*
Y-213565D01*
Y-213279D01*
Y-212993D01*
Y-212706D01*
Y-212420D01*
X858626D01*
Y-212134D01*
Y-211847D01*
Y-211561D01*
Y-211275D01*
Y-210988D01*
Y-210702D01*
Y-210416D01*
Y-210129D01*
Y-209843D01*
Y-209557D01*
Y-209271D01*
Y-208984D01*
Y-208698D01*
Y-208412D01*
Y-208125D01*
X858340D01*
Y-207839D01*
Y-207553D01*
Y-207266D01*
Y-206980D01*
Y-206694D01*
Y-206407D01*
Y-206121D01*
Y-205835D01*
Y-205549D01*
Y-205262D01*
Y-204976D01*
Y-204690D01*
Y-204403D01*
Y-204117D01*
Y-203831D01*
X858054D01*
Y-203544D01*
Y-203258D01*
Y-202972D01*
Y-202685D01*
Y-202399D01*
Y-202113D01*
Y-201826D01*
Y-201540D01*
Y-201254D01*
Y-200968D01*
Y-200681D01*
Y-200395D01*
Y-200109D01*
Y-199822D01*
Y-199536D01*
Y-199250D01*
X857767D01*
Y-198963D01*
Y-198677D01*
Y-198391D01*
Y-198104D01*
Y-197818D01*
Y-197532D01*
Y-197245D01*
Y-196959D01*
Y-196673D01*
Y-196387D01*
Y-196100D01*
Y-195814D01*
Y-195528D01*
Y-195241D01*
Y-194955D01*
Y-194669D01*
X857481D01*
Y-194382D01*
Y-194096D01*
Y-193810D01*
Y-193523D01*
Y-193237D01*
Y-192951D01*
Y-192664D01*
Y-192378D01*
Y-192092D01*
Y-191806D01*
Y-191519D01*
Y-191233D01*
Y-190946D01*
Y-190660D01*
X857195D01*
Y-190374D01*
Y-190088D01*
Y-189801D01*
Y-189515D01*
Y-189229D01*
Y-188942D01*
Y-188656D01*
Y-188370D01*
Y-188083D01*
Y-187797D01*
Y-187511D01*
Y-187224D01*
Y-186938D01*
Y-186652D01*
Y-186365D01*
Y-186079D01*
X856908D01*
Y-185793D01*
X870651D01*
Y-186079D01*
Y-186365D01*
Y-186652D01*
Y-186938D01*
Y-187224D01*
Y-187511D01*
Y-187797D01*
Y-188083D01*
Y-188370D01*
Y-188656D01*
Y-188942D01*
Y-189229D01*
Y-189515D01*
Y-189801D01*
X870938D01*
Y-190088D01*
Y-190374D01*
Y-190660D01*
Y-190946D01*
Y-191233D01*
Y-191519D01*
Y-191806D01*
Y-192092D01*
Y-192378D01*
Y-192664D01*
Y-192951D01*
Y-193237D01*
Y-193523D01*
Y-193810D01*
Y-194096D01*
Y-194382D01*
Y-194669D01*
Y-194955D01*
Y-195241D01*
Y-195528D01*
Y-195814D01*
Y-196100D01*
Y-196387D01*
Y-196673D01*
Y-196959D01*
Y-197245D01*
Y-197532D01*
Y-197818D01*
Y-198104D01*
Y-198391D01*
Y-198677D01*
Y-198963D01*
Y-199250D01*
Y-199536D01*
Y-199822D01*
Y-200109D01*
Y-200395D01*
Y-200681D01*
Y-200968D01*
Y-201254D01*
Y-201540D01*
X871224D01*
Y-201826D01*
X870938D01*
Y-202113D01*
Y-202399D01*
X871224D01*
Y-202685D01*
Y-202972D01*
Y-203258D01*
Y-203544D01*
Y-203831D01*
Y-204117D01*
Y-204403D01*
Y-204690D01*
Y-204976D01*
Y-205262D01*
Y-205549D01*
Y-205835D01*
Y-206121D01*
Y-206407D01*
Y-206694D01*
Y-206980D01*
Y-207266D01*
Y-207553D01*
Y-207839D01*
Y-208125D01*
Y-208412D01*
Y-208698D01*
Y-208984D01*
Y-209271D01*
Y-209557D01*
Y-209843D01*
X871510D01*
Y-210129D01*
Y-210416D01*
Y-210702D01*
X871797D01*
Y-210988D01*
X872083D01*
Y-211275D01*
X872369D01*
Y-211561D01*
X873228D01*
Y-211847D01*
X874087D01*
Y-211561D01*
X874373D01*
Y-211275D01*
Y-210988D01*
Y-210702D01*
X874660D01*
Y-210416D01*
Y-210129D01*
X874946D01*
Y-209843D01*
Y-209557D01*
Y-209271D01*
X875232D01*
Y-208984D01*
Y-208698D01*
Y-208412D01*
X875519D01*
Y-208125D01*
Y-207839D01*
Y-207553D01*
X875805D01*
Y-207266D01*
Y-206980D01*
Y-206694D01*
X876091D01*
Y-206407D01*
Y-206121D01*
X876378D01*
Y-205835D01*
Y-205549D01*
Y-205262D01*
X876664D01*
Y-204976D01*
Y-204690D01*
Y-204403D01*
X876950D01*
Y-204117D01*
Y-203831D01*
Y-203544D01*
X877237D01*
Y-203258D01*
Y-202972D01*
X877523D01*
Y-202685D01*
Y-202399D01*
Y-202113D01*
X877809D01*
Y-201826D01*
Y-201540D01*
Y-201254D01*
X878096D01*
Y-200968D01*
Y-200681D01*
Y-200395D01*
X878382D01*
Y-200109D01*
Y-199822D01*
X878668D01*
Y-199536D01*
Y-199250D01*
Y-198963D01*
X878954D01*
Y-198677D01*
Y-198391D01*
Y-198104D01*
X879241D01*
Y-197818D01*
Y-197532D01*
Y-197245D01*
X879527D01*
Y-196959D01*
Y-196673D01*
X879813D01*
Y-196387D01*
Y-196100D01*
Y-195814D01*
X880100D01*
Y-195528D01*
Y-195241D01*
Y-194955D01*
X880386D01*
Y-194669D01*
Y-194382D01*
Y-194096D01*
X880672D01*
Y-193810D01*
Y-193523D01*
Y-193237D01*
Y-192951D01*
X880959D01*
Y-192664D01*
Y-192378D01*
Y-192092D01*
Y-191806D01*
X881245D01*
Y-191519D01*
Y-191233D01*
Y-190946D01*
Y-190660D01*
Y-190374D01*
X881531D01*
Y-190088D01*
Y-189801D01*
Y-189515D01*
Y-189229D01*
Y-188942D01*
Y-188656D01*
X881818D01*
Y-188370D01*
Y-188083D01*
Y-187797D01*
Y-187511D01*
Y-187224D01*
Y-186938D01*
Y-186652D01*
Y-186365D01*
Y-186079D01*
Y-185793D01*
X894702D01*
Y-186079D01*
D02*
G37*
G36*
X836866Y-168614D02*
Y-168900D01*
X836580D01*
Y-169187D01*
Y-169473D01*
Y-169759D01*
Y-170046D01*
Y-170332D01*
Y-170618D01*
X836294D01*
Y-170905D01*
Y-171191D01*
Y-171477D01*
Y-171764D01*
Y-172050D01*
Y-172336D01*
X836007D01*
Y-172623D01*
Y-172909D01*
Y-173195D01*
Y-173481D01*
Y-173768D01*
Y-174054D01*
Y-174340D01*
X835721D01*
Y-174627D01*
Y-174913D01*
Y-175199D01*
Y-175486D01*
Y-175772D01*
Y-176058D01*
X835435D01*
Y-176345D01*
Y-176631D01*
Y-176917D01*
Y-177204D01*
Y-177490D01*
Y-177776D01*
X835149D01*
Y-178062D01*
Y-178349D01*
Y-178635D01*
Y-178921D01*
Y-179208D01*
Y-179494D01*
Y-179780D01*
X834862D01*
Y-180067D01*
Y-180353D01*
Y-180639D01*
Y-180926D01*
Y-181212D01*
Y-181498D01*
X834576D01*
Y-181784D01*
Y-182071D01*
Y-182357D01*
Y-182643D01*
Y-182930D01*
Y-183216D01*
X834290D01*
Y-183502D01*
Y-183789D01*
Y-184075D01*
Y-184361D01*
Y-184648D01*
Y-184934D01*
X834003D01*
Y-185220D01*
Y-185507D01*
Y-185793D01*
Y-186079D01*
Y-186365D01*
Y-186652D01*
Y-186938D01*
X833717D01*
Y-187224D01*
Y-187511D01*
Y-187797D01*
Y-188083D01*
Y-188370D01*
Y-188656D01*
X833431D01*
Y-188942D01*
Y-189229D01*
X834003D01*
Y-188942D01*
X834290D01*
Y-188656D01*
X834576D01*
Y-188370D01*
X835149D01*
Y-188083D01*
X835435D01*
Y-187797D01*
X835721D01*
Y-187511D01*
X836294D01*
Y-187224D01*
X836866D01*
Y-186938D01*
X837153D01*
Y-186652D01*
X837725D01*
Y-186365D01*
X838584D01*
Y-186079D01*
X839157D01*
Y-185793D01*
X840016D01*
Y-185507D01*
X841448D01*
Y-185220D01*
X847746D01*
Y-185507D01*
X848892D01*
Y-185793D01*
X849751D01*
Y-186079D01*
X850323D01*
Y-186365D01*
X850609D01*
Y-186652D01*
X851182D01*
Y-186938D01*
X851468D01*
Y-187224D01*
X851755D01*
Y-187511D01*
X852041D01*
Y-187797D01*
X852327D01*
Y-188083D01*
Y-188370D01*
X852614D01*
Y-188656D01*
Y-188942D01*
X852900D01*
Y-189229D01*
Y-189515D01*
Y-189801D01*
X853186D01*
Y-190088D01*
Y-190374D01*
Y-190660D01*
Y-190946D01*
X853473D01*
Y-191233D01*
Y-191519D01*
Y-191806D01*
Y-192092D01*
Y-192378D01*
Y-192664D01*
Y-192951D01*
Y-193237D01*
Y-193523D01*
Y-193810D01*
Y-194096D01*
Y-194382D01*
Y-194669D01*
Y-194955D01*
Y-195241D01*
Y-195528D01*
Y-195814D01*
Y-196100D01*
X853186D01*
Y-196387D01*
Y-196673D01*
Y-196959D01*
Y-197245D01*
Y-197532D01*
Y-197818D01*
Y-198104D01*
X852900D01*
Y-198391D01*
Y-198677D01*
Y-198963D01*
Y-199250D01*
Y-199536D01*
Y-199822D01*
Y-200109D01*
X852614D01*
Y-200395D01*
Y-200681D01*
Y-200968D01*
Y-201254D01*
Y-201540D01*
Y-201826D01*
X852327D01*
Y-202113D01*
Y-202399D01*
Y-202685D01*
Y-202972D01*
Y-203258D01*
Y-203544D01*
X852041D01*
Y-203831D01*
Y-204117D01*
Y-204403D01*
Y-204690D01*
Y-204976D01*
Y-205262D01*
X851755D01*
Y-205549D01*
Y-205835D01*
Y-206121D01*
Y-206407D01*
Y-206694D01*
Y-206980D01*
Y-207266D01*
X851468D01*
Y-207553D01*
Y-207839D01*
Y-208125D01*
Y-208412D01*
Y-208698D01*
Y-208984D01*
X851182D01*
Y-209271D01*
Y-209557D01*
Y-209843D01*
Y-210129D01*
Y-210416D01*
Y-210702D01*
X850896D01*
Y-210988D01*
Y-211275D01*
Y-211561D01*
Y-211847D01*
Y-212134D01*
Y-212420D01*
Y-212706D01*
X850609D01*
Y-212993D01*
Y-213279D01*
Y-213565D01*
Y-213851D01*
Y-214138D01*
Y-214424D01*
X850323D01*
Y-214710D01*
Y-214997D01*
Y-215283D01*
Y-215569D01*
Y-215856D01*
Y-216142D01*
X850037D01*
Y-216428D01*
Y-216715D01*
Y-217001D01*
Y-217287D01*
Y-217574D01*
Y-217860D01*
X849751D01*
Y-218146D01*
Y-218433D01*
Y-218719D01*
Y-219005D01*
Y-219291D01*
Y-219578D01*
Y-219864D01*
X849464D01*
Y-220150D01*
Y-220437D01*
Y-220723D01*
Y-221009D01*
Y-221296D01*
Y-221582D01*
X849178D01*
Y-221868D01*
Y-222155D01*
X836007D01*
Y-221868D01*
Y-221582D01*
X836294D01*
Y-221296D01*
Y-221009D01*
Y-220723D01*
Y-220437D01*
Y-220150D01*
Y-219864D01*
X836580D01*
Y-219578D01*
Y-219291D01*
Y-219005D01*
Y-218719D01*
Y-218433D01*
Y-218146D01*
Y-217860D01*
X836866D01*
Y-217574D01*
Y-217287D01*
Y-217001D01*
Y-216715D01*
Y-216428D01*
Y-216142D01*
X837153D01*
Y-215856D01*
Y-215569D01*
Y-215283D01*
Y-214997D01*
Y-214710D01*
Y-214424D01*
X837439D01*
Y-214138D01*
Y-213851D01*
Y-213565D01*
Y-213279D01*
Y-212993D01*
Y-212706D01*
Y-212420D01*
X837725D01*
Y-212134D01*
Y-211847D01*
Y-211561D01*
Y-211275D01*
Y-210988D01*
Y-210702D01*
X838012D01*
Y-210416D01*
Y-210129D01*
Y-209843D01*
Y-209557D01*
Y-209271D01*
Y-208984D01*
Y-208698D01*
X838298D01*
Y-208412D01*
Y-208125D01*
Y-207839D01*
Y-207553D01*
Y-207266D01*
Y-206980D01*
X838584D01*
Y-206694D01*
Y-206407D01*
Y-206121D01*
Y-205835D01*
Y-205549D01*
Y-205262D01*
X838871D01*
Y-204976D01*
Y-204690D01*
Y-204403D01*
Y-204117D01*
Y-203831D01*
Y-203544D01*
X839157D01*
Y-203258D01*
Y-202972D01*
Y-202685D01*
Y-202399D01*
Y-202113D01*
Y-201826D01*
Y-201540D01*
X839443D01*
Y-201254D01*
Y-200968D01*
Y-200681D01*
Y-200395D01*
Y-200109D01*
Y-199822D01*
X839730D01*
Y-199536D01*
Y-199250D01*
Y-198963D01*
Y-198677D01*
Y-198391D01*
Y-198104D01*
Y-197818D01*
X840016D01*
Y-197532D01*
Y-197245D01*
Y-196959D01*
Y-196673D01*
Y-196387D01*
Y-196100D01*
X839730D01*
Y-195814D01*
Y-195528D01*
X839443D01*
Y-195241D01*
X839157D01*
Y-194955D01*
X838584D01*
Y-194669D01*
X836866D01*
Y-194955D01*
X835435D01*
Y-195241D01*
X834576D01*
Y-195528D01*
X834003D01*
Y-195814D01*
X833717D01*
Y-196100D01*
X833144D01*
Y-196387D01*
X832858D01*
Y-196673D01*
X832572D01*
Y-196959D01*
Y-197245D01*
X832285D01*
Y-197532D01*
Y-197818D01*
Y-198104D01*
X831999D01*
Y-198391D01*
Y-198677D01*
Y-198963D01*
Y-199250D01*
Y-199536D01*
Y-199822D01*
X831713D01*
Y-200109D01*
Y-200395D01*
Y-200681D01*
Y-200968D01*
Y-201254D01*
Y-201540D01*
Y-201826D01*
X831427D01*
Y-202113D01*
Y-202399D01*
Y-202685D01*
Y-202972D01*
Y-203258D01*
Y-203544D01*
X831140D01*
Y-203831D01*
Y-204117D01*
Y-204403D01*
Y-204690D01*
Y-204976D01*
Y-205262D01*
X830854D01*
Y-205549D01*
Y-205835D01*
Y-206121D01*
Y-206407D01*
Y-206694D01*
Y-206980D01*
X830568D01*
Y-207266D01*
Y-207553D01*
Y-207839D01*
Y-208125D01*
Y-208412D01*
Y-208698D01*
Y-208984D01*
X830281D01*
Y-209271D01*
Y-209557D01*
Y-209843D01*
Y-210129D01*
Y-210416D01*
Y-210702D01*
X829995D01*
Y-210988D01*
Y-211275D01*
Y-211561D01*
Y-211847D01*
Y-212134D01*
Y-212420D01*
X829709D01*
Y-212706D01*
Y-212993D01*
Y-213279D01*
Y-213565D01*
Y-213851D01*
Y-214138D01*
Y-214424D01*
X829422D01*
Y-214710D01*
Y-214997D01*
Y-215283D01*
Y-215569D01*
Y-215856D01*
Y-216142D01*
X829136D01*
Y-216428D01*
Y-216715D01*
Y-217001D01*
Y-217287D01*
Y-217574D01*
Y-217860D01*
X828850D01*
Y-218146D01*
Y-218433D01*
Y-218719D01*
Y-219005D01*
Y-219291D01*
Y-219578D01*
X828563D01*
Y-219864D01*
Y-220150D01*
Y-220437D01*
Y-220723D01*
Y-221009D01*
Y-221296D01*
Y-221582D01*
X828277D01*
Y-221868D01*
Y-222155D01*
X815107D01*
Y-221868D01*
Y-221582D01*
X815393D01*
Y-221296D01*
Y-221009D01*
Y-220723D01*
Y-220437D01*
Y-220150D01*
Y-219864D01*
Y-219578D01*
X815679D01*
Y-219291D01*
Y-219005D01*
Y-218719D01*
Y-218433D01*
Y-218146D01*
Y-217860D01*
X815966D01*
Y-217574D01*
Y-217287D01*
Y-217001D01*
Y-216715D01*
Y-216428D01*
Y-216142D01*
X816252D01*
Y-215856D01*
Y-215569D01*
Y-215283D01*
Y-214997D01*
Y-214710D01*
Y-214424D01*
Y-214138D01*
X816538D01*
Y-213851D01*
Y-213565D01*
Y-213279D01*
Y-212993D01*
Y-212706D01*
Y-212420D01*
X816825D01*
Y-212134D01*
Y-211847D01*
Y-211561D01*
Y-211275D01*
Y-210988D01*
Y-210702D01*
X817111D01*
Y-210416D01*
Y-210129D01*
Y-209843D01*
Y-209557D01*
Y-209271D01*
Y-208984D01*
X817397D01*
Y-208698D01*
Y-208412D01*
Y-208125D01*
Y-207839D01*
Y-207553D01*
Y-207266D01*
Y-206980D01*
X817684D01*
Y-206694D01*
Y-206407D01*
Y-206121D01*
Y-205835D01*
Y-205549D01*
Y-205262D01*
X817970D01*
Y-204976D01*
Y-204690D01*
Y-204403D01*
Y-204117D01*
Y-203831D01*
Y-203544D01*
X818256D01*
Y-203258D01*
Y-202972D01*
Y-202685D01*
Y-202399D01*
Y-202113D01*
Y-201826D01*
Y-201540D01*
X818542D01*
Y-201254D01*
Y-200968D01*
Y-200681D01*
Y-200395D01*
Y-200109D01*
Y-199822D01*
X818829D01*
Y-199536D01*
Y-199250D01*
Y-198963D01*
Y-198677D01*
Y-198391D01*
Y-198104D01*
X819115D01*
Y-197818D01*
Y-197532D01*
Y-197245D01*
Y-196959D01*
Y-196673D01*
Y-196387D01*
X819401D01*
Y-196100D01*
Y-195814D01*
Y-195528D01*
Y-195241D01*
Y-194955D01*
Y-194669D01*
Y-194382D01*
X819688D01*
Y-194096D01*
Y-193810D01*
Y-193523D01*
Y-193237D01*
Y-192951D01*
Y-192664D01*
X819974D01*
Y-192378D01*
Y-192092D01*
Y-191806D01*
Y-191519D01*
Y-191233D01*
Y-190946D01*
X820260D01*
Y-190660D01*
Y-190374D01*
Y-190088D01*
Y-189801D01*
Y-189515D01*
Y-189229D01*
X820547D01*
Y-188942D01*
Y-188656D01*
Y-188370D01*
Y-188083D01*
Y-187797D01*
Y-187511D01*
Y-187224D01*
X820833D01*
Y-186938D01*
Y-186652D01*
Y-186365D01*
Y-186079D01*
Y-185793D01*
Y-185507D01*
X821119D01*
Y-185220D01*
Y-184934D01*
Y-184648D01*
Y-184361D01*
Y-184075D01*
Y-183789D01*
X821406D01*
Y-183502D01*
Y-183216D01*
Y-182930D01*
Y-182643D01*
Y-182357D01*
Y-182071D01*
Y-181784D01*
X821692D01*
Y-181498D01*
Y-181212D01*
Y-180926D01*
Y-180639D01*
Y-180353D01*
Y-180067D01*
X821978D01*
Y-179780D01*
Y-179494D01*
Y-179208D01*
Y-178921D01*
Y-178635D01*
Y-178349D01*
X822264D01*
Y-178062D01*
Y-177776D01*
Y-177490D01*
Y-177204D01*
Y-176917D01*
Y-176631D01*
X822551D01*
Y-176345D01*
Y-176058D01*
Y-175772D01*
Y-175486D01*
Y-175199D01*
Y-174913D01*
Y-174627D01*
X822837D01*
Y-174340D01*
Y-174054D01*
Y-173768D01*
Y-173481D01*
Y-173195D01*
Y-172909D01*
X823123D01*
Y-172623D01*
Y-172336D01*
Y-172050D01*
Y-171764D01*
Y-171477D01*
Y-171191D01*
X823410D01*
Y-170905D01*
Y-170618D01*
Y-170332D01*
Y-170046D01*
Y-169759D01*
Y-169473D01*
Y-169187D01*
X823696D01*
Y-168900D01*
Y-168614D01*
Y-168328D01*
X836866D01*
Y-168614D01*
D02*
G37*
%LPC*%
G36*
X68553Y136338D02*
X68511D01*
Y136296D01*
X68553D01*
Y136338D01*
D02*
G37*
G36*
X72049Y129261D02*
X72007D01*
Y129218D01*
X72049D01*
Y129261D01*
D02*
G37*
G36*
X70685Y126361D02*
X70642D01*
Y126319D01*
X70685D01*
Y126361D01*
D02*
G37*
G36*
X801364Y-182930D02*
X793347D01*
Y-183216D01*
Y-183502D01*
Y-183789D01*
Y-184075D01*
Y-184361D01*
X793061D01*
Y-184648D01*
Y-184934D01*
Y-185220D01*
Y-185507D01*
Y-185793D01*
Y-186079D01*
X792774D01*
Y-186365D01*
Y-186652D01*
Y-186938D01*
Y-187224D01*
Y-187511D01*
Y-187797D01*
X792488D01*
Y-188083D01*
Y-188370D01*
Y-188656D01*
Y-188942D01*
Y-189229D01*
Y-189515D01*
X792202D01*
Y-189801D01*
Y-190088D01*
Y-190374D01*
Y-190660D01*
Y-190946D01*
Y-191233D01*
Y-191519D01*
X791915D01*
Y-191806D01*
Y-192092D01*
Y-192378D01*
Y-192664D01*
Y-192951D01*
Y-193237D01*
X791629D01*
Y-193523D01*
Y-193810D01*
Y-194096D01*
X798787D01*
Y-193810D01*
X799932D01*
Y-193523D01*
X800505D01*
Y-193237D01*
X800791D01*
Y-192951D01*
X801077D01*
Y-192664D01*
X801364D01*
Y-192378D01*
X801650D01*
Y-192092D01*
Y-191806D01*
X801936D01*
Y-191519D01*
Y-191233D01*
X802223D01*
Y-190946D01*
Y-190660D01*
X802509D01*
Y-190374D01*
Y-190088D01*
Y-189801D01*
Y-189515D01*
X802795D01*
Y-189229D01*
Y-188942D01*
Y-188656D01*
Y-188370D01*
Y-188083D01*
X803082D01*
Y-187797D01*
Y-187511D01*
Y-187224D01*
Y-186938D01*
Y-186652D01*
Y-186365D01*
Y-186079D01*
Y-185793D01*
Y-185507D01*
Y-185220D01*
Y-184934D01*
X802795D01*
Y-184648D01*
Y-184361D01*
X802509D01*
Y-184075D01*
Y-183789D01*
X802223D01*
Y-183502D01*
X801936D01*
Y-183216D01*
X801364D01*
Y-182930D01*
D02*
G37*
%LPD*%
D11*
X958661Y-263782D02*
Y-271654D01*
X962597D01*
X963909Y-270342D01*
Y-265094D01*
X962597Y-263782D01*
X958661D01*
X967845Y-271654D02*
X970469D01*
X971780Y-270342D01*
Y-267718D01*
X970469Y-266406D01*
X967845D01*
X966533Y-267718D01*
Y-270342D01*
X967845Y-271654D01*
X979652Y-266406D02*
X975716D01*
X974404Y-267718D01*
Y-270342D01*
X975716Y-271654D01*
X979652D01*
X982276Y-266406D02*
Y-270342D01*
X983588Y-271654D01*
X987523D01*
Y-266406D01*
X990147Y-271654D02*
Y-266406D01*
X991459D01*
X992771Y-267718D01*
Y-271654D01*
Y-267718D01*
X994083Y-266406D01*
X995395Y-267718D01*
Y-271654D01*
X1001955D02*
X999331D01*
X998019Y-270342D01*
Y-267718D01*
X999331Y-266406D01*
X1001955D01*
X1003267Y-267718D01*
Y-269030D01*
X998019D01*
X1005890Y-271654D02*
Y-266406D01*
X1009826D01*
X1011138Y-267718D01*
Y-271654D01*
X1015074Y-265094D02*
Y-266406D01*
X1013762D01*
X1016386D01*
X1015074D01*
Y-270342D01*
X1016386Y-271654D01*
X958661Y-224412D02*
Y-232283D01*
X962597D01*
X963909Y-230972D01*
Y-225724D01*
X962597Y-224412D01*
X958661D01*
X967845Y-227036D02*
X970469D01*
X971780Y-228348D01*
Y-232283D01*
X967845D01*
X966533Y-230972D01*
X967845Y-229660D01*
X971780D01*
X975716Y-225724D02*
Y-227036D01*
X974404D01*
X977028D01*
X975716D01*
Y-230972D01*
X977028Y-232283D01*
X984900D02*
X982276D01*
X980964Y-230972D01*
Y-228348D01*
X982276Y-227036D01*
X984900D01*
X986212Y-228348D01*
Y-229660D01*
X980964D01*
X958661Y-185042D02*
Y-192913D01*
X963909D01*
X967845Y-187666D02*
X970469D01*
X971780Y-188978D01*
Y-192913D01*
X967845D01*
X966533Y-191602D01*
X967845Y-190290D01*
X971780D01*
X974404Y-187666D02*
Y-191602D01*
X975716Y-192913D01*
X979652D01*
Y-194225D01*
X978340Y-195537D01*
X977028D01*
X979652Y-192913D02*
Y-187666D01*
X986212Y-192913D02*
X983588D01*
X982276Y-191602D01*
Y-188978D01*
X983588Y-187666D01*
X986212D01*
X987523Y-188978D01*
Y-190290D01*
X982276D01*
X990147Y-187666D02*
Y-192913D01*
Y-190290D01*
X991459Y-188978D01*
X992771Y-187666D01*
X994083D01*
X1005890Y-192913D02*
Y-185042D01*
X1011138Y-192913D01*
Y-185042D01*
X1015074Y-187666D02*
X1017698D01*
X1019009Y-188978D01*
Y-192913D01*
X1015074D01*
X1013762Y-191602D01*
X1015074Y-190290D01*
X1019009D01*
X1021633Y-192913D02*
Y-187666D01*
X1022945D01*
X1024257Y-188978D01*
Y-192913D01*
Y-188978D01*
X1025569Y-187666D01*
X1026881Y-188978D01*
Y-192913D01*
X1033440D02*
X1030817D01*
X1029505Y-191602D01*
Y-188978D01*
X1030817Y-187666D01*
X1033440D01*
X1034752Y-188978D01*
Y-190290D01*
X1029505D01*
X958661Y-145672D02*
Y-153543D01*
X962597D01*
X963909Y-152231D01*
Y-146984D01*
X962597Y-145672D01*
X958661D01*
X967845Y-153543D02*
X970469D01*
X971780Y-152231D01*
Y-149608D01*
X970469Y-148296D01*
X967845D01*
X966533Y-149608D01*
Y-152231D01*
X967845Y-153543D01*
X979652Y-148296D02*
X975716D01*
X974404Y-149608D01*
Y-152231D01*
X975716Y-153543D01*
X979652D01*
X982276Y-148296D02*
Y-152231D01*
X983588Y-153543D01*
X987523D01*
Y-148296D01*
X990147Y-153543D02*
Y-148296D01*
X991459D01*
X992771Y-149608D01*
Y-153543D01*
Y-149608D01*
X994083Y-148296D01*
X995395Y-149608D01*
Y-153543D01*
X1001955D02*
X999331D01*
X998019Y-152231D01*
Y-149608D01*
X999331Y-148296D01*
X1001955D01*
X1003267Y-149608D01*
Y-150919D01*
X998019D01*
X1005890Y-153543D02*
Y-148296D01*
X1009826D01*
X1011138Y-149608D01*
Y-153543D01*
X1015074Y-146984D02*
Y-148296D01*
X1013762D01*
X1016386D01*
X1015074D01*
Y-152231D01*
X1016386Y-153543D01*
X761811Y-263782D02*
Y-271654D01*
X765747D01*
X767059Y-270342D01*
Y-265094D01*
X765747Y-263782D01*
X761811D01*
X773618Y-271654D02*
X770994D01*
X769683Y-270342D01*
Y-267718D01*
X770994Y-266406D01*
X773618D01*
X774930Y-267718D01*
Y-269030D01*
X769683D01*
X777554Y-271654D02*
X781490D01*
X782802Y-270342D01*
X781490Y-269030D01*
X778866D01*
X777554Y-267718D01*
X778866Y-266406D01*
X782802D01*
X788049Y-274277D02*
X789361D01*
X790673Y-272966D01*
Y-266406D01*
X786737D01*
X785426Y-267718D01*
Y-270342D01*
X786737Y-271654D01*
X790673D01*
X793297D02*
X795921D01*
X794609D01*
Y-266406D01*
X793297D01*
X799857Y-271654D02*
Y-266406D01*
X803792D01*
X805104Y-267718D01*
Y-271654D01*
X811664D02*
X809040D01*
X807728Y-270342D01*
Y-267718D01*
X809040Y-266406D01*
X811664D01*
X812976Y-267718D01*
Y-269030D01*
X807728D01*
X815600Y-266406D02*
Y-271654D01*
Y-269030D01*
X816911Y-267718D01*
X818223Y-266406D01*
X819535D01*
X1116142Y-232283D02*
Y-224412D01*
X1120078D01*
X1121389Y-225724D01*
Y-228348D01*
X1120078Y-229660D01*
X1116142D01*
X1118766D02*
X1121389Y-232283D01*
X1127949D02*
X1125325D01*
X1124013Y-230972D01*
Y-228348D01*
X1125325Y-227036D01*
X1127949D01*
X1129261Y-228348D01*
Y-229660D01*
X1124013D01*
X1131885Y-227036D02*
X1134509Y-232283D01*
X1137132Y-227036D01*
D13*
X-423228Y-299213D02*
X1230315D01*
X-423228D02*
Y870079D01*
X1230315Y-299213D02*
Y870079D01*
X-423228D02*
X1230315D01*
X954724Y-299213D02*
Y-141732D01*
X757874Y-299213D02*
Y-141732D01*
X1230315D01*
X757874Y-259842D02*
X1230315D01*
X954724Y-220472D02*
X1230315D01*
X954724Y-181102D02*
X1230315D01*
X1112205Y-259842D02*
Y-220472D01*
X968503Y-285435D02*
X964567D01*
Y-288387D01*
X966535D01*
X964567D01*
Y-291339D01*
X970471Y-287403D02*
Y-291339D01*
Y-289371D01*
X971454Y-288387D01*
X972438Y-287403D01*
X973422D01*
X976374Y-291339D02*
X978342D01*
X977358D01*
Y-287403D01*
X976374D01*
X981294Y-286419D02*
X982278Y-285435D01*
X984246D01*
X985229Y-286419D01*
Y-287403D01*
X984246Y-288387D01*
X983262D01*
X984246D01*
X985229Y-289371D01*
Y-290355D01*
X984246Y-291339D01*
X982278D01*
X981294Y-290355D01*
X987197Y-285435D02*
Y-291339D01*
X990149D01*
X991133Y-290355D01*
Y-286419D01*
X990149Y-285435D01*
X987197D01*
X993101Y-292322D02*
X997037D01*
X1002940Y-291339D02*
X999005D01*
X1002940Y-287403D01*
Y-286419D01*
X1001956Y-285435D01*
X999988D01*
X999005Y-286419D01*
X1004908D02*
X1005892Y-285435D01*
X1007860D01*
X1008844Y-286419D01*
Y-290355D01*
X1007860Y-291339D01*
X1005892D01*
X1004908Y-290355D01*
Y-286419D01*
X1010812Y-291339D02*
X1012780D01*
X1011796D01*
Y-285435D01*
X1010812Y-286419D01*
X1015732D02*
X1016715Y-285435D01*
X1018683D01*
X1019667Y-286419D01*
Y-287403D01*
X1018683Y-288387D01*
X1019667Y-289371D01*
Y-290355D01*
X1018683Y-291339D01*
X1016715D01*
X1015732Y-290355D01*
Y-289371D01*
X1016715Y-288387D01*
X1015732Y-287403D01*
Y-286419D01*
X1016715Y-288387D02*
X1018683D01*
X1021635Y-292322D02*
X1025571D01*
X1027539Y-286419D02*
X1028523Y-285435D01*
X1030490D01*
X1031474Y-286419D01*
Y-290355D01*
X1030490Y-291339D01*
X1028523D01*
X1027539Y-290355D01*
Y-286419D01*
X1033442Y-291339D02*
X1035410D01*
X1034426D01*
Y-285435D01*
X1033442Y-286419D01*
X1038362Y-291339D02*
Y-290355D01*
X1039346D01*
Y-291339D01*
X1038362D01*
X1043282D02*
Y-285435D01*
X1046233D01*
X1047217Y-286419D01*
Y-288387D01*
X1046233Y-289371D01*
X1043282D01*
X1053121Y-287403D02*
X1050169D01*
X1049185Y-288387D01*
Y-290355D01*
X1050169Y-291339D01*
X1053121D01*
X1055089Y-285435D02*
Y-291339D01*
X1058041D01*
X1059025Y-290355D01*
Y-289371D01*
Y-288387D01*
X1058041Y-287403D01*
X1055089D01*
X1060992Y-285435D02*
Y-291339D01*
X1063944D01*
X1064928Y-290355D01*
Y-286419D01*
X1063944Y-285435D01*
X1060992D01*
X1067880Y-291339D02*
X1069848D01*
X1070832Y-290355D01*
Y-288387D01*
X1069848Y-287403D01*
X1067880D01*
X1066896Y-288387D01*
Y-290355D01*
X1067880Y-291339D01*
X1076735Y-287403D02*
X1073783D01*
X1072800Y-288387D01*
Y-290355D01*
X1073783Y-291339D01*
X1076735D01*
D15*
X-83465Y316535D02*
G03*
X-75461Y315160I6167J11908D01*
G01*
X-63489Y318182D02*
G03*
X-75461Y315160I16601J-90959D01*
G01*
X93177Y92517D02*
G03*
X124128Y96447I15747J-171D01*
G01*
X147731Y131444D02*
G03*
X151868Y128960I582261J965229D01*
G01*
X131127Y107580D02*
G03*
X123644Y111930I-10258J-9032D01*
G01*
X131127Y107580D02*
G03*
X151868Y128960I14042J7128D01*
G01*
X124164Y99302D02*
G03*
X124128Y96447I50773J-2062D01*
G01*
X93177Y92517D02*
G03*
X93509Y103737I-99554J8564D01*
G01*
X156848Y367871D02*
G03*
X215438Y409213I-141946J263359D01*
G01*
X70109Y317150D02*
G03*
X18935Y319960I-65279J-721524D01*
G01*
X200857Y227610D02*
G03*
X178460Y241099I-75973J-100813D01*
G01*
X-182012Y343388D02*
G03*
X-218077Y339098I-279J-151416D01*
G01*
X-40641Y319960D02*
G03*
X-63489Y318182I-1549J-127826D01*
G01*
X207734Y295562D02*
G03*
X218355Y322043I-200632J95839D01*
G01*
X97675Y338805D02*
G03*
X127869Y352650I-248579J581966D01*
G01*
X-47029Y53188D02*
G03*
X-37030Y33870I121983J50892D01*
G01*
X-178957Y250941D02*
G03*
X-158897Y230072I64166J41603D01*
G01*
X-166468Y149144D02*
G03*
X-172920Y142853I37797J-45218D01*
G01*
X-195212Y275153D02*
G03*
X-218001Y306065I-822538J-582524D01*
G01*
X127869Y352650D02*
G03*
X156848Y367871I-253236J517306D01*
G01*
X88926Y315100D02*
G03*
X70109Y317150I-64033J-500175D01*
G01*
X163917Y248163D02*
G03*
X184959Y262171I-22157J56092D01*
G01*
X142253Y133733D02*
G03*
X149197Y141927I-5078J11342D01*
G01*
X83094Y99015D02*
G03*
X91148Y103876I-1536J11650D01*
G01*
X45460Y19859D02*
G03*
X57125Y35135I-9196J19114D01*
G01*
X-126713Y333264D02*
G03*
X-150488Y340055I-69234J-197391D01*
G01*
D02*
G03*
X-182012Y343388I-31448J-146698D01*
G01*
X-162848Y197059D02*
G03*
X-182135Y183660I30640J-64690D01*
G01*
X-146365Y129096D02*
G03*
X-173402Y120957I9170J-79436D01*
G01*
X-17895Y320070D02*
G03*
X-9015Y321051I-14076J168098D01*
G01*
X-13643Y10979D02*
G03*
X-1896Y7221I17629J34876D01*
G01*
X-165612Y197907D02*
G03*
X-178401Y201503I-104173J-346047D01*
G01*
X-130074Y130123D02*
G03*
X-146365Y129096I-300J-125031D01*
G01*
X-104938Y116513D02*
G03*
X-113846Y114151I21527J-99166D01*
G01*
X203098Y193081D02*
G03*
X194469Y214279I-142599J-45693D01*
G01*
X-61610Y103598D02*
G03*
X-51758Y65576I264066J48136D01*
G01*
X218355Y322043D02*
G03*
X231993Y380169I-333123J108825D01*
G01*
X184959Y262171D02*
G03*
X196413Y275940I-68462J68599D01*
G01*
X178460Y241099D02*
G03*
X162806Y247747I-81609J-170404D01*
G01*
X27545Y1250D02*
G03*
X45460Y19859I-1035J18923D01*
G01*
X-29531Y23747D02*
G03*
X-13643Y10979I40069J33590D01*
G01*
X-182845Y257051D02*
G03*
X-195213Y275153I-556576J-366975D01*
G01*
X-182135Y183660D02*
G03*
X-187769Y176950I35416J-35454D01*
G01*
X196413Y275940D02*
G03*
X207734Y295562I-119388J81957D01*
G01*
X173919Y158840D02*
G03*
X169611Y174145I-97579J-19210D01*
G01*
X157610Y139583D02*
G03*
X150169Y142482I-39440J-90216D01*
G01*
X147731Y131444D02*
G03*
X142253Y133733I-18205J-35858D01*
G01*
X96148Y320238D02*
G03*
X88926Y315100I11368J-23620D01*
G01*
X-37030Y33870D02*
G03*
X-29531Y23747I71846J45383D01*
G01*
X-127436Y130123D02*
G03*
X-134595Y120974I36068J-35599D01*
G01*
X-118767Y112504D02*
G03*
X-130074Y108042I67346J-187239D01*
G01*
X-158897Y230072D02*
G03*
X-152432Y225805I56288J78243D01*
G01*
D02*
G03*
X-167899Y219630I43050J-130294D01*
G01*
X-152432Y158591D02*
G03*
X-166468Y149144I40151J-74800D01*
G01*
X-173650Y216526D02*
G03*
X-178114Y213402I20412J-33917D01*
G01*
X-187769Y176950D02*
G03*
X-192150Y169007I34964J-24461D01*
G01*
X-172920Y142853D02*
G03*
X-178131Y135536I32545J-28695D01*
G01*
X-218001Y306065D02*
G03*
X-228951Y320099I-700696J-535423D01*
G01*
X187342Y175607D02*
G03*
X183459Y175415I5167J-143712D01*
G01*
X194958Y175548D02*
G03*
X190858Y175672I-3977J-63430D01*
G01*
X179209Y175103D02*
G03*
X169611Y174145I28269J-331931D01*
G01*
X163638Y136550D02*
G03*
X160797Y138083I-27128J-46868D01*
G01*
X78094Y99293D02*
G03*
X81427Y98877I3352J13280D01*
G01*
X81427D02*
G03*
X82094Y98885I111J16670D01*
G01*
X71567Y96238D02*
G03*
X75737Y97618I-2091J13307D01*
G01*
X-9015Y321051D02*
G03*
X11853Y324820I-37033J264650D01*
G01*
X-26615Y319682D02*
G03*
X-17895Y320070I-423J107763D01*
G01*
X-134595Y120974D02*
G03*
X-136221Y117946I30535J-18355D01*
G01*
X-113846Y114151D02*
G03*
X-118767Y112504I39245J-125377D01*
G01*
X-181237Y254560D02*
G03*
X-182845Y257051I-99104J-62242D01*
G01*
X-218077Y339098D02*
G03*
X-224180Y337397I25220J-102284D01*
G01*
X174749Y138733D02*
G03*
X173919Y158840I-61794J7520D01*
G01*
X231993Y380169D02*
G03*
X232520Y384119I-150895J22129D01*
G01*
X206273Y181505D02*
G03*
X203098Y193081I-109758J-23881D01*
G01*
X-51758Y65576D02*
G03*
X-47029Y53188I184666J63401D01*
G01*
X-136221Y117946D02*
G03*
X-137434Y114986I25672J-12248D01*
G01*
X-178114Y213402D02*
G03*
X-181318Y210251I14134J-17578D01*
G01*
X-178131Y135536D02*
G03*
X-181456Y127206I29001J-16405D01*
G01*
X198257Y175210D02*
G03*
X196707Y175402I-5210J-35663D01*
G01*
X199607Y174978D02*
G03*
X198257Y175210I-5210J-26246D01*
G01*
X196707Y175402D02*
G03*
X194958Y175548I-4720J-46159D01*
G01*
X190858Y175672D02*
G03*
X187342Y175607I113J-100388D01*
G01*
X183459Y175415D02*
G03*
X179209Y175102I12734J-202412D01*
G01*
X166139Y134983D02*
G03*
X163638Y136550I-23569J-34848D01*
G01*
X160797Y138083D02*
G03*
X157610Y139583I-31065J-61882D01*
G01*
X149197Y141927D02*
G03*
X149579Y142142I-2909J5604D01*
G01*
X149988Y142384D02*
G03*
X149579Y142142I12096J-20886D01*
G01*
X150169Y142482D02*
G03*
X149988Y142384I1769J-3493D01*
G01*
X95399Y321953D02*
G03*
X94759Y323293I-37693J-17180D01*
G01*
X96148Y320238D02*
G03*
X95399Y321953I-50495J-21021D01*
G01*
X91148Y103876D02*
G03*
X91864Y103767I1027J4344D01*
G01*
X91864Y103767D02*
G03*
X92238Y103746I663J8427D01*
G01*
X92238D02*
G03*
X92606Y103738I478J13917D01*
G01*
X82094Y98885D02*
G03*
X82427Y98906I-257J6702D01*
G01*
D02*
G03*
X82761Y98948I-429J4853D01*
G01*
X82761D02*
G03*
X83094Y99015I-617J3888D01*
G01*
X75737Y97618D02*
G03*
X78094Y99293I-5361J10040D01*
G01*
X70727Y96078D02*
G03*
X70179Y95960I420J-3294D01*
G01*
X70727Y96078D02*
G03*
X71303Y96169I-1452J11034D01*
G01*
X71303Y96169D02*
G03*
X71567Y96238I-446J2253D01*
G01*
X-167899Y219630D02*
G03*
X-173650Y216526I29135J-60853D01*
G01*
X-224180Y337397D02*
G03*
X-226590Y336583I12989J-42408D01*
G01*
X-238681Y332053D02*
X-238669Y332169D01*
X-126713Y333264D02*
X-83465Y316535D01*
X-98854Y116465D02*
X-68224Y111064D01*
X-187567Y161369D02*
X-166979Y159649D01*
X6853Y139D02*
X27545Y1250D01*
X-141323Y103320D02*
X-130074Y108042D01*
X57125Y35135D02*
X67679Y95544D01*
X215438Y409213D02*
X217407Y411069D01*
X-186734Y203586D02*
X-181318Y210251D01*
X223493Y400228D02*
X231686Y387729D01*
X200857Y227610D02*
X208634Y221639D01*
X199468Y218028D02*
X208634Y221639D01*
X199607Y174978D02*
X207939Y173173D01*
X166139Y134983D02*
X173499Y129984D01*
X15880Y325793D02*
X17824Y322182D01*
X-1896Y7221D02*
X2132Y2222D01*
X-184373Y115124D02*
X-181456Y127206D01*
X-184373Y115124D02*
X-173402Y120957D01*
X-238681Y332053D02*
X-228951Y320099D01*
X193774Y215806D02*
X194469Y214279D01*
X193774Y215806D02*
X199468Y218028D01*
X89129Y335299D02*
X97675Y338805D01*
X17824Y322182D02*
X18935Y319960D01*
X-38541Y319945D02*
X-36408Y319902D01*
X-40641Y319960D02*
X-38541Y319945D01*
X-34242Y319840D02*
X-29809Y319682D01*
X-166979Y159649D02*
X-152432Y158591D01*
X-186734Y203586D02*
X-178401Y201503D01*
X-195066Y162063D02*
X-187567Y161369D01*
X-238669Y332169D02*
X-226590Y336583D01*
X217418Y411057D02*
X223493Y400228D01*
X206273Y181505D02*
X207939Y173173D01*
X-141323Y103320D02*
X-137434Y114986D01*
X173499Y129984D02*
X174749Y138733D01*
X123644Y111930D02*
X123771Y108263D01*
X124164Y99302D01*
X89136Y335302D02*
X94759Y323432D01*
X11853Y324820D02*
X15880Y325793D01*
X-165612Y197907D02*
X-162848Y197059D01*
X-181237Y254560D02*
X-180465Y253332D01*
X-179708Y252123D01*
X-195066Y162063D02*
X-192150Y169007D01*
X231686Y387729D02*
X232797Y386063D01*
X232520Y384119D02*
X232797Y386063D01*
X162806Y247747D02*
X163917Y248163D01*
X94759Y323293D02*
Y323432D01*
X92954Y103737D02*
X93509D01*
X92606Y103738D02*
X92954Y103737D01*
X68679Y95710D02*
X69179Y95794D01*
X69679Y95877D01*
X70179Y95960D01*
X67679Y95544D02*
X68679Y95710D01*
X2132Y2222D02*
X3937Y-0D01*
X6853Y139D01*
X-29809Y319682D02*
X-26615D01*
X-36408Y319902D02*
X-34242Y319840D01*
X-130074Y130123D02*
X-127436D01*
X-179708Y252123D02*
X-178957Y250941D01*
X-104938Y116513D02*
X-98854Y116465D01*
X-68224Y111064D02*
X-63779Y109843D01*
X-61610Y103598D01*
D17*
X976378Y-198823D02*
Y-212598D01*
X983265D01*
X985561Y-210303D01*
Y-208007D01*
X983265Y-205711D01*
X976378D01*
X983265D01*
X985561Y-203415D01*
Y-201119D01*
X983265Y-198823D01*
X976378D01*
X992449Y-212598D02*
X997041D01*
X999336Y-210303D01*
Y-205711D01*
X997041Y-203415D01*
X992449D01*
X990153Y-205711D01*
Y-210303D01*
X992449Y-212598D01*
X1006224Y-201119D02*
Y-203415D01*
X1003928D01*
X1008520D01*
X1006224D01*
Y-210303D01*
X1008520Y-212598D01*
X1017703Y-201119D02*
Y-203415D01*
X1015407D01*
X1019999D01*
X1017703D01*
Y-210303D01*
X1019999Y-212598D01*
X1029182D02*
X1033774D01*
X1036070Y-210303D01*
Y-205711D01*
X1033774Y-203415D01*
X1029182D01*
X1026887Y-205711D01*
Y-210303D01*
X1029182Y-212598D01*
X1040662D02*
Y-203415D01*
X1042957D01*
X1045253Y-205711D01*
Y-212598D01*
Y-205711D01*
X1047549Y-203415D01*
X1049845Y-205711D01*
Y-212598D01*
X1077395Y-201119D02*
X1075099Y-198823D01*
X1070508D01*
X1068212Y-201119D01*
Y-203415D01*
X1070508Y-205711D01*
X1075099D01*
X1077395Y-208007D01*
Y-210303D01*
X1075099Y-212598D01*
X1070508D01*
X1068212Y-210303D01*
X1084283Y-212598D02*
X1088874D01*
X1091170Y-210303D01*
Y-205711D01*
X1088874Y-203415D01*
X1084283D01*
X1081987Y-205711D01*
Y-210303D01*
X1084283Y-212598D01*
X1095762D02*
X1100354D01*
X1098058D01*
Y-198823D01*
X1095762D01*
X1116425D02*
Y-212598D01*
X1109537D01*
X1107241Y-210303D01*
Y-205711D01*
X1109537Y-203415D01*
X1116425D01*
X1127904Y-212598D02*
X1123312D01*
X1121016Y-210303D01*
Y-205711D01*
X1123312Y-203415D01*
X1127904D01*
X1130200Y-205711D01*
Y-208007D01*
X1121016D01*
X1134791Y-203415D02*
Y-212598D01*
Y-208007D01*
X1137087Y-205711D01*
X1139383Y-203415D01*
X1141679D01*
X975062Y-159454D02*
X964567D01*
Y-167325D01*
X969815D01*
X964567D01*
Y-175197D01*
X980310Y-164702D02*
Y-175197D01*
Y-169949D01*
X982934Y-167325D01*
X985557Y-164702D01*
X988181D01*
X996053Y-175197D02*
X1001300D01*
X998677D01*
Y-164702D01*
X996053D01*
X1009172Y-162078D02*
X1011796Y-159454D01*
X1017043D01*
X1019667Y-162078D01*
Y-164702D01*
X1017043Y-167325D01*
X1014420D01*
X1017043D01*
X1019667Y-169949D01*
Y-172573D01*
X1017043Y-175197D01*
X1011796D01*
X1009172Y-172573D01*
X1024915Y-159454D02*
Y-175197D01*
X1032786D01*
X1035410Y-172573D01*
Y-162078D01*
X1032786Y-159454D01*
X1024915D01*
X1056401D02*
Y-175197D01*
X1064272D01*
X1066896Y-172573D01*
Y-169949D01*
X1064272Y-167325D01*
X1056401D01*
X1064272D01*
X1066896Y-164702D01*
Y-162078D01*
X1064272Y-159454D01*
X1056401D01*
X1074767Y-164702D02*
X1080015D01*
X1082639Y-167325D01*
Y-175197D01*
X1074767D01*
X1072144Y-172573D01*
X1074767Y-169949D01*
X1082639D01*
X1098382Y-159454D02*
Y-175197D01*
X1090510D01*
X1087887Y-172573D01*
Y-167325D01*
X1090510Y-164702D01*
X1098382D01*
X1108877Y-180445D02*
X1111501D01*
X1114125Y-177821D01*
Y-164702D01*
X1106253D01*
X1103630Y-167325D01*
Y-172573D01*
X1106253Y-175197D01*
X1114125D01*
X1127244D02*
X1121996D01*
X1119372Y-172573D01*
Y-167325D01*
X1121996Y-164702D01*
X1127244D01*
X1129868Y-167325D01*
Y-169949D01*
X1119372D01*
X1161354Y-175197D02*
X1150858D01*
X1161354Y-164702D01*
Y-162078D01*
X1158730Y-159454D01*
X1153482D01*
X1150858Y-162078D01*
X1166601D02*
X1169225Y-159454D01*
X1174473D01*
X1177097Y-162078D01*
Y-172573D01*
X1174473Y-175197D01*
X1169225D01*
X1166601Y-172573D01*
Y-162078D01*
X1182344Y-175197D02*
X1187592D01*
X1184968D01*
Y-159454D01*
X1182344Y-162078D01*
X1195463D02*
X1198087Y-159454D01*
X1203335D01*
X1205959Y-162078D01*
Y-164702D01*
X1203335Y-167325D01*
X1205959Y-169949D01*
Y-172573D01*
X1203335Y-175197D01*
X1198087D01*
X1195463Y-172573D01*
Y-169949D01*
X1198087Y-167325D01*
X1195463Y-164702D01*
Y-162078D01*
X1198087Y-167325D02*
X1203335D01*
X970472Y-253937D02*
X975064D01*
X972768D01*
Y-240162D01*
X970472Y-242458D01*
X981952D02*
X984247Y-240162D01*
X988839D01*
X991135Y-242458D01*
Y-244754D01*
X988839Y-247049D01*
X986543D01*
X988839D01*
X991135Y-249345D01*
Y-251641D01*
X988839Y-253937D01*
X984247D01*
X981952Y-251641D01*
X995727Y-253937D02*
X1004910Y-244754D01*
X1009502Y-242458D02*
X1011798Y-240162D01*
X1016389D01*
X1018685Y-242458D01*
Y-251641D01*
X1016389Y-253937D01*
X1011798D01*
X1009502Y-251641D01*
Y-242458D01*
X1032460Y-240162D02*
X1027869Y-242458D01*
X1023277Y-247049D01*
Y-251641D01*
X1025573Y-253937D01*
X1030164D01*
X1032460Y-251641D01*
Y-249345D01*
X1030164Y-247049D01*
X1023277D01*
X1037052Y-253937D02*
X1046235Y-244754D01*
X1060010Y-253937D02*
X1050827D01*
X1060010Y-244754D01*
Y-242458D01*
X1057715Y-240162D01*
X1053123D01*
X1050827Y-242458D01*
X1064602D02*
X1066898Y-240162D01*
X1071490D01*
X1073785Y-242458D01*
Y-251641D01*
X1071490Y-253937D01*
X1066898D01*
X1064602Y-251641D01*
Y-242458D01*
X1078377Y-253937D02*
X1082969D01*
X1080673D01*
Y-240162D01*
X1078377Y-242458D01*
X1089857D02*
X1092152Y-240162D01*
X1096744D01*
X1099040Y-242458D01*
Y-244754D01*
X1096744Y-247049D01*
X1099040Y-249345D01*
Y-251641D01*
X1096744Y-253937D01*
X1092152D01*
X1089857Y-251641D01*
Y-249345D01*
X1092152Y-247049D01*
X1089857Y-244754D01*
Y-242458D01*
X1092152Y-247049D02*
X1096744D01*
X1133858Y-240818D02*
X1136482Y-238194D01*
X1141730D01*
X1144353Y-240818D01*
Y-251313D01*
X1141730Y-253937D01*
X1136482D01*
X1133858Y-251313D01*
Y-240818D01*
X1149601Y-253937D02*
X1154849D01*
X1152225D01*
Y-238194D01*
X1149601Y-240818D01*
X779528Y-277564D02*
Y-293307D01*
X784775Y-288059D01*
X790023Y-293307D01*
Y-277564D01*
X795270Y-293307D02*
X800518D01*
X797894D01*
Y-282812D01*
X795270D01*
X808390Y-293307D02*
Y-282812D01*
X811013D01*
X813637Y-285436D01*
Y-293307D01*
Y-285436D01*
X816261Y-282812D01*
X818885Y-285436D01*
Y-293307D01*
X824133Y-277564D02*
Y-288059D01*
X829380Y-293307D01*
X834628Y-288059D01*
Y-277564D01*
X850371Y-280188D02*
X847747Y-277564D01*
X842499D01*
X839876Y-280188D01*
Y-290683D01*
X842499Y-293307D01*
X847747D01*
X850371Y-290683D01*
Y-285436D01*
X845123D01*
D118*
X45275Y77362D02*
D03*
Y84055D02*
D03*
X45276Y68111D02*
D03*
Y61418D02*
D03*
X51181Y84055D02*
D03*
X51181Y77363D02*
D03*
D121*
X44882Y96457D02*
D03*
X51574D02*
D03*
X44882Y90552D02*
D03*
X51574D02*
D03*
D128*
X-69002Y117139D02*
D03*
X-96142Y121924D02*
D03*
D129*
X-71033Y128291D02*
D03*
X-90419Y131709D02*
D03*
D130*
X-99197Y307998D02*
D03*
D03*
X-117991Y314839D02*
D03*
X-121411Y305442D02*
D03*
X-146182Y325099D02*
D03*
X-136785Y321679D02*
D03*
X-149602Y315702D02*
D03*
X-140205Y312282D02*
D03*
X-130808Y308862D02*
D03*
X-127388Y318259D02*
D03*
X-108594Y311418D02*
D03*
D03*
X150624Y347902D02*
D03*
D03*
X132648Y339135D02*
D03*
X137031Y330147D02*
D03*
X105684Y325984D02*
D03*
X114672Y330367D02*
D03*
X110067Y316996D02*
D03*
X119055Y321379D02*
D03*
X128043Y325763D02*
D03*
X123660Y334751D02*
D03*
X141636Y343518D02*
D03*
D03*
D131*
X-143193Y318691D02*
D03*
X-105606Y305010D02*
D03*
X112370Y323681D02*
D03*
X148321Y341216D02*
D03*
D132*
X108924Y92346D02*
D03*
X171917Y312819D02*
D03*
X-174539D02*
D03*
X145169Y114708D02*
D03*
D133*
X-139567Y181102D02*
D03*
X147441D02*
D03*
D134*
X-5315Y99606D02*
D03*
Y68189D02*
D03*
D135*
X-6142Y311417D02*
D03*
X3858D02*
D03*
X13858D02*
D03*
D136*
X23858D02*
D03*
D160*
X104528Y223622D02*
D03*
X104528Y249606D02*
D03*
D161*
X126772Y232677D02*
D03*
Y240551D02*
D03*
D162*
X-3740Y118504D02*
D03*
Y56693D02*
D03*
D163*
X34055Y56299D02*
D03*
D164*
X34055Y114961D02*
D03*
D165*
X36811Y96457D02*
D03*
Y92126D02*
D03*
X36811Y87795D02*
D03*
X36811Y83465D02*
D03*
Y79134D02*
D03*
Y74803D02*
D03*
X36811Y70473D02*
D03*
X36811Y66142D02*
D03*
Y61811D02*
D03*
D166*
X-57480Y142913D02*
D03*
X-47849Y154528D02*
D03*
X-112205Y320472D02*
D03*
X-110630Y291082D02*
D03*
X-119685Y288583D02*
D03*
X-138189Y303543D02*
D03*
X-129528Y327165D02*
D03*
X-120458Y323622D02*
D03*
X183071Y201575D02*
D03*
X138189Y317323D02*
D03*
X165354Y338189D02*
D03*
X127953Y318448D02*
D03*
X124016Y328740D02*
D03*
X95419Y308518D02*
D03*
X102362Y309842D02*
D03*
X125984Y339370D02*
D03*
X133858Y346457D02*
D03*
X161024Y346063D02*
D03*
X106693Y334646D02*
D03*
X182283Y271260D02*
D03*
X179528Y273622D02*
D03*
X186221Y281102D02*
D03*
X175591Y289370D02*
D03*
X159449Y279528D02*
D03*
X162598Y276378D02*
D03*
X172441Y267323D02*
D03*
X166535Y261024D02*
D03*
X-129134Y277953D02*
D03*
X-123228Y314567D02*
D03*
X45669Y135827D02*
D03*
X41732Y132283D02*
D03*
X9843Y129528D02*
D03*
X-3937Y140157D02*
D03*
X-5709Y137008D02*
D03*
X787Y190945D02*
D03*
X66929Y120472D02*
D03*
X42913Y72835D02*
D03*
X79528Y140157D02*
D03*
X-118898Y296850D02*
D03*
X-12205Y128347D02*
D03*
X112205Y125984D02*
D03*
X160236Y298425D02*
D03*
X118504Y295276D02*
D03*
X104822Y299731D02*
D03*
X171260Y286221D02*
D03*
X99213Y298340D02*
D03*
X110630Y288070D02*
D03*
X143892Y272047D02*
D03*
X141816Y274410D02*
D03*
X142640Y277559D02*
D03*
X23818Y301969D02*
D03*
X-33070Y300787D02*
D03*
X166535Y287402D02*
D03*
X163779Y290158D02*
D03*
X159843Y289764D02*
D03*
X155512Y289370D02*
D03*
X150787D02*
D03*
X151575Y292913D02*
D03*
X154724D02*
D03*
X146358Y237402D02*
D03*
Y240551D02*
D03*
Y243701D02*
D03*
X137402Y269400D02*
D03*
X128347Y246457D02*
D03*
X-22047Y55905D02*
D03*
X68898Y102362D02*
D03*
X-12992Y66929D02*
D03*
X197244Y369291D02*
D03*
X206693Y365354D02*
D03*
X135039Y262587D02*
D03*
X189764Y281102D02*
D03*
X-84646Y168504D02*
D03*
X-83071Y172441D02*
D03*
X-79921Y170079D02*
D03*
X-79134Y174803D02*
D03*
X9449Y250787D02*
D03*
X-110630Y272441D02*
D03*
X37795Y176772D02*
D03*
X-16535Y168898D02*
D03*
X63277Y277559D02*
D03*
X17421Y247638D02*
D03*
X14961Y250787D02*
D03*
X57087Y292520D02*
D03*
X57732Y278543D02*
D03*
X-1996Y131496D02*
D03*
X155645Y160077D02*
D03*
X129134Y250787D02*
D03*
X99213Y264961D02*
D03*
X80315Y266142D02*
D03*
X32677Y272441D02*
D03*
X37988Y157874D02*
D03*
X62612Y120166D02*
D03*
X101575Y267717D02*
D03*
X95669Y263779D02*
D03*
X30709Y91732D02*
D03*
X25591Y101181D02*
D03*
X56693Y62992D02*
D03*
X25591Y63386D02*
D03*
X24016Y94095D02*
D03*
Y89764D02*
D03*
X51181Y52362D02*
D03*
X12992Y91732D02*
D03*
X44488Y122047D02*
D03*
X-37823Y143661D02*
D03*
X-46091Y143701D02*
D03*
X-20472Y266929D02*
D03*
X-69291Y279528D02*
D03*
X-59055Y294882D02*
D03*
X-116920Y137402D02*
D03*
X81890Y296850D02*
D03*
X-46850Y80129D02*
D03*
X40521Y207510D02*
D03*
Y218337D02*
D03*
Y229164D02*
D03*
Y239990D02*
D03*
X70965Y305020D02*
D03*
X79921Y278346D02*
D03*
X116309Y239990D02*
D03*
Y229164D02*
D03*
Y218337D02*
D03*
Y207510D02*
D03*
Y196683D02*
D03*
X105482Y239990D02*
D03*
Y229164D02*
D03*
Y218337D02*
D03*
Y207510D02*
D03*
Y196683D02*
D03*
X94655Y239990D02*
D03*
Y229164D02*
D03*
Y218337D02*
D03*
Y207510D02*
D03*
Y196683D02*
D03*
X83829Y239990D02*
D03*
Y229164D02*
D03*
Y218337D02*
D03*
Y207510D02*
D03*
Y196683D02*
D03*
X73002Y239990D02*
D03*
Y229164D02*
D03*
Y218337D02*
D03*
Y207510D02*
D03*
Y196683D02*
D03*
X62175Y239990D02*
D03*
Y229164D02*
D03*
Y218337D02*
D03*
Y207510D02*
D03*
Y196683D02*
D03*
X51348Y218337D02*
D03*
Y229164D02*
D03*
Y239990D02*
D03*
X-35600D02*
D03*
Y229164D02*
D03*
Y218337D02*
D03*
Y207510D02*
D03*
Y196683D02*
D03*
X-46427D02*
D03*
Y207510D02*
D03*
Y218337D02*
D03*
Y229164D02*
D03*
Y239990D02*
D03*
X-57254Y196683D02*
D03*
Y207510D02*
D03*
Y218337D02*
D03*
Y229164D02*
D03*
Y239990D02*
D03*
X-68081Y196683D02*
D03*
Y207510D02*
D03*
Y218337D02*
D03*
Y229164D02*
D03*
Y239990D02*
D03*
X-78907Y196683D02*
D03*
Y207510D02*
D03*
Y218337D02*
D03*
Y229164D02*
D03*
Y239990D02*
D03*
X-89734Y196683D02*
D03*
Y207510D02*
D03*
Y218337D02*
D03*
Y229164D02*
D03*
Y239990D02*
D03*
X-100561Y196683D02*
D03*
Y207510D02*
D03*
Y218337D02*
D03*
Y229164D02*
D03*
Y239990D02*
D03*
X-44122Y129921D02*
D03*
X-47333Y112205D02*
D03*
X-49978Y110236D02*
D03*
X-40752Y118726D02*
D03*
X-38783Y116082D02*
D03*
X87598Y308169D02*
D03*
X54134Y308071D02*
D03*
X-74410Y134744D02*
D03*
X-70571Y133661D02*
D03*
X-77756Y136221D02*
D03*
X-74016Y139173D02*
D03*
X126772Y273366D02*
D03*
X51348Y196683D02*
D03*
Y207510D02*
D03*
X101941Y278740D02*
D03*
X101153Y274016D02*
D03*
X118480Y255512D02*
D03*
X123200Y249213D02*
D03*
X97000Y291732D02*
D03*
X120265Y290158D02*
D03*
X107480Y135827D02*
D03*
X98397Y122047D02*
D03*
X66043Y305020D02*
D03*
X-20079Y70866D02*
D03*
X-19291Y75590D02*
D03*
X31496Y129134D02*
D03*
X-7508Y109449D02*
D03*
X-10264Y111811D02*
D03*
X759Y164173D02*
D03*
X3122Y160630D02*
D03*
X-31496Y57480D02*
D03*
X39764Y45276D02*
D03*
X46850Y38583D02*
D03*
X-127953Y216142D02*
D03*
X-150000Y207677D02*
D03*
X-155512Y201969D02*
D03*
X-158296Y204724D02*
D03*
X-152784Y210236D02*
D03*
X-166957Y164613D02*
D03*
X-148025Y133916D02*
D03*
X-11024Y155512D02*
D03*
X-11024Y150787D02*
D03*
X6665Y116142D02*
D03*
X10996Y117323D02*
D03*
X39342Y101575D02*
D03*
X42098Y104331D02*
D03*
X36586Y109843D02*
D03*
X33437Y107480D02*
D03*
M02*
