G04*
G04 #@! TF.GenerationSoftware,Altium Limited,Altium Designer,18.1.6 (161)*
G04*
G04 Layer_Color=2752767*
%FSLAX25Y25*%
%MOIN*%
G70*
G01*
G75*
%ADD10C,0.00591*%
%ADD11C,0.00787*%
%ADD12C,0.01575*%
%ADD13C,0.00394*%
%ADD14C,0.00984*%
%ADD90C,0.01000*%
%ADD91C,0.00600*%
%ADD92C,0.00200*%
%ADD93C,0.00945*%
%ADD94C,0.00827*%
G36*
X913926Y-152365D02*
X915644D01*
Y-152651D01*
X916503D01*
Y-152937D01*
X917362D01*
Y-153224D01*
X918221D01*
Y-153510D01*
X918793D01*
Y-153796D01*
X919080D01*
Y-154083D01*
X919652D01*
Y-154369D01*
X919939D01*
Y-154655D01*
X920511D01*
Y-154942D01*
X920798D01*
Y-155228D01*
X921084D01*
Y-155514D01*
X921370D01*
Y-155801D01*
X921657D01*
Y-156087D01*
X921943D01*
Y-156373D01*
X922229D01*
Y-156659D01*
Y-156946D01*
X922515D01*
Y-157232D01*
X922802D01*
Y-157518D01*
Y-157805D01*
X923088D01*
Y-158091D01*
X923374D01*
Y-158377D01*
Y-158664D01*
X923661D01*
Y-158950D01*
Y-159236D01*
Y-159523D01*
X923947D01*
Y-159809D01*
Y-160095D01*
Y-160382D01*
X924233D01*
Y-160668D01*
Y-160954D01*
Y-161240D01*
Y-161527D01*
X924520D01*
Y-161813D01*
Y-162100D01*
Y-162386D01*
Y-162672D01*
Y-162958D01*
X924806D01*
Y-163245D01*
Y-163531D01*
Y-163817D01*
Y-164104D01*
Y-164390D01*
Y-164676D01*
Y-164963D01*
Y-165249D01*
Y-165535D01*
Y-165822D01*
Y-166108D01*
Y-166394D01*
Y-166681D01*
Y-166967D01*
Y-167253D01*
Y-167539D01*
Y-167826D01*
Y-168112D01*
Y-168398D01*
Y-168685D01*
X924520D01*
Y-168971D01*
Y-169257D01*
Y-169544D01*
Y-169830D01*
Y-170116D01*
Y-170403D01*
Y-170689D01*
X924233D01*
Y-170975D01*
Y-171262D01*
Y-171548D01*
Y-171834D01*
Y-172120D01*
X923947D01*
Y-172407D01*
Y-172693D01*
Y-172979D01*
Y-173266D01*
Y-173552D01*
X923661D01*
Y-173838D01*
Y-174125D01*
Y-174411D01*
X923374D01*
Y-174697D01*
Y-174984D01*
Y-175270D01*
Y-175556D01*
X923088D01*
Y-175842D01*
Y-176129D01*
Y-176415D01*
X922802D01*
Y-176701D01*
Y-176988D01*
X922515D01*
Y-177274D01*
Y-177560D01*
Y-177847D01*
X922229D01*
Y-178133D01*
Y-178419D01*
X921943D01*
Y-178706D01*
Y-178992D01*
X921657D01*
Y-179278D01*
Y-179565D01*
X921370D01*
Y-179851D01*
X921084D01*
Y-180137D01*
Y-180423D01*
X920798D01*
Y-180710D01*
X920511D01*
Y-180996D01*
X920225D01*
Y-181282D01*
Y-181569D01*
X919939D01*
Y-181855D01*
X919652D01*
Y-182141D01*
X919366D01*
Y-182428D01*
X919080D01*
Y-182714D01*
X918793D01*
Y-183000D01*
X918221D01*
Y-183287D01*
X917934D01*
Y-183573D01*
X917362D01*
Y-183859D01*
X917076D01*
Y-184146D01*
X916503D01*
Y-184432D01*
X915644D01*
Y-184718D01*
X914785D01*
Y-185004D01*
X913926D01*
Y-185291D01*
X912208D01*
Y-185577D01*
X907055D01*
Y-185291D01*
X904478D01*
Y-185004D01*
X902474D01*
Y-184718D01*
X901042D01*
Y-184432D01*
X899610D01*
Y-184146D01*
X898179D01*
Y-184432D01*
Y-184718D01*
Y-185004D01*
Y-185291D01*
Y-185577D01*
Y-185863D01*
Y-186150D01*
X897892D01*
Y-186436D01*
Y-186722D01*
Y-187009D01*
Y-187295D01*
Y-187581D01*
Y-187868D01*
X897606D01*
Y-188154D01*
Y-188440D01*
Y-188727D01*
Y-189013D01*
Y-189299D01*
Y-189585D01*
X897320D01*
Y-189872D01*
Y-190158D01*
Y-190444D01*
Y-190731D01*
Y-191017D01*
Y-191303D01*
Y-191590D01*
X897034D01*
Y-191876D01*
Y-192162D01*
Y-192449D01*
Y-192735D01*
Y-193021D01*
Y-193308D01*
X896747D01*
Y-193594D01*
Y-193880D01*
Y-194167D01*
Y-194453D01*
Y-194739D01*
Y-195025D01*
X896461D01*
Y-195312D01*
Y-195598D01*
Y-195884D01*
Y-196171D01*
Y-196457D01*
Y-196743D01*
Y-197030D01*
X896175D01*
Y-197316D01*
Y-197602D01*
Y-197889D01*
Y-198175D01*
Y-198461D01*
Y-198748D01*
X895888D01*
Y-199034D01*
Y-199320D01*
Y-199606D01*
Y-199893D01*
Y-200179D01*
Y-200465D01*
X895602D01*
Y-200752D01*
Y-201038D01*
Y-201324D01*
Y-201611D01*
Y-201897D01*
Y-202183D01*
Y-202470D01*
X882145D01*
Y-202183D01*
X882432D01*
Y-201897D01*
Y-201611D01*
Y-201324D01*
Y-201038D01*
Y-200752D01*
X882718D01*
Y-200465D01*
Y-200179D01*
Y-199893D01*
Y-199606D01*
Y-199320D01*
Y-199034D01*
Y-198748D01*
X883004D01*
Y-198461D01*
Y-198175D01*
Y-197889D01*
Y-197602D01*
Y-197316D01*
Y-197030D01*
X883291D01*
Y-196743D01*
Y-196457D01*
Y-196171D01*
Y-195884D01*
Y-195598D01*
Y-195312D01*
X883577D01*
Y-195025D01*
Y-194739D01*
Y-194453D01*
Y-194167D01*
Y-193880D01*
Y-193594D01*
Y-193308D01*
X883863D01*
Y-193021D01*
Y-192735D01*
Y-192449D01*
Y-192162D01*
Y-191876D01*
Y-191590D01*
X884149D01*
Y-191303D01*
Y-191017D01*
Y-190731D01*
Y-190444D01*
Y-190158D01*
Y-189872D01*
X884436D01*
Y-189585D01*
Y-189299D01*
Y-189013D01*
Y-188727D01*
Y-188440D01*
Y-188154D01*
X884722D01*
Y-187868D01*
Y-187581D01*
Y-187295D01*
Y-187009D01*
Y-186722D01*
Y-186436D01*
Y-186150D01*
X885009D01*
Y-185863D01*
Y-185577D01*
Y-185291D01*
Y-185004D01*
Y-184718D01*
Y-184432D01*
X885295D01*
Y-184146D01*
Y-183859D01*
Y-183573D01*
Y-183287D01*
Y-183000D01*
Y-182714D01*
X885581D01*
Y-182428D01*
Y-182141D01*
Y-181855D01*
Y-181569D01*
Y-181282D01*
Y-180996D01*
X885867D01*
Y-180710D01*
Y-180423D01*
Y-180137D01*
Y-179851D01*
Y-179565D01*
Y-179278D01*
Y-178992D01*
X886154D01*
Y-178706D01*
Y-178419D01*
Y-178133D01*
Y-177847D01*
Y-177560D01*
Y-177274D01*
X886440D01*
Y-176988D01*
Y-176701D01*
Y-176415D01*
Y-176129D01*
Y-175842D01*
Y-175556D01*
X886726D01*
Y-175270D01*
Y-174984D01*
Y-174697D01*
Y-174411D01*
Y-174125D01*
Y-173838D01*
Y-173552D01*
X887013D01*
Y-173266D01*
Y-172979D01*
Y-172693D01*
Y-172407D01*
Y-172120D01*
Y-171834D01*
X887299D01*
Y-171548D01*
Y-171262D01*
Y-170975D01*
Y-170689D01*
Y-170403D01*
Y-170116D01*
X887585D01*
Y-169830D01*
Y-169544D01*
Y-169257D01*
Y-168971D01*
Y-168685D01*
Y-168398D01*
X887872D01*
Y-168112D01*
Y-167826D01*
Y-167539D01*
Y-167253D01*
Y-166967D01*
Y-166681D01*
Y-166394D01*
X888158D01*
Y-166108D01*
Y-165822D01*
Y-165535D01*
Y-165249D01*
Y-164963D01*
Y-164676D01*
X888444D01*
Y-164390D01*
Y-164104D01*
Y-163817D01*
Y-163531D01*
Y-163245D01*
Y-162958D01*
X888731D01*
Y-162672D01*
Y-162386D01*
Y-162100D01*
Y-161813D01*
Y-161527D01*
Y-161240D01*
Y-160954D01*
X889017D01*
Y-160668D01*
Y-160382D01*
Y-160095D01*
Y-159809D01*
Y-159523D01*
Y-159236D01*
X889303D01*
Y-158950D01*
Y-158664D01*
Y-158377D01*
Y-158091D01*
Y-157805D01*
Y-157518D01*
X889590D01*
Y-157232D01*
Y-156946D01*
Y-156659D01*
Y-156373D01*
Y-156087D01*
Y-155801D01*
Y-155514D01*
X889876D01*
Y-155228D01*
Y-154942D01*
Y-154655D01*
Y-154369D01*
Y-154083D01*
Y-153796D01*
X890162D01*
Y-153510D01*
Y-153224D01*
Y-152937D01*
Y-152651D01*
Y-152365D01*
Y-152078D01*
X913926D01*
Y-152365D01*
D02*
G37*
G36*
X945134Y-148929D02*
Y-149215D01*
X944848D01*
Y-149502D01*
Y-149788D01*
Y-150074D01*
Y-150361D01*
Y-150647D01*
Y-150933D01*
X944561D01*
Y-151220D01*
Y-151506D01*
Y-151792D01*
Y-152078D01*
Y-152365D01*
Y-152651D01*
X944275D01*
Y-152937D01*
Y-153224D01*
Y-153510D01*
Y-153796D01*
Y-154083D01*
Y-154369D01*
Y-154655D01*
X943989D01*
Y-154942D01*
Y-155228D01*
Y-155514D01*
Y-155801D01*
Y-156087D01*
Y-156373D01*
X943703D01*
Y-156659D01*
Y-156946D01*
Y-157232D01*
Y-157518D01*
Y-157805D01*
Y-158091D01*
X943416D01*
Y-158377D01*
Y-158664D01*
Y-158950D01*
Y-159236D01*
Y-159523D01*
Y-159809D01*
Y-160095D01*
X943130D01*
Y-160382D01*
Y-160668D01*
Y-160954D01*
Y-161240D01*
Y-161527D01*
Y-161813D01*
X942844D01*
Y-162100D01*
Y-162386D01*
Y-162672D01*
Y-162958D01*
Y-163245D01*
Y-163531D01*
X942557D01*
Y-163817D01*
Y-164104D01*
Y-164390D01*
Y-164676D01*
Y-164963D01*
Y-165249D01*
X942271D01*
Y-165535D01*
Y-165822D01*
Y-166108D01*
Y-166394D01*
Y-166681D01*
Y-166967D01*
Y-167253D01*
X941985D01*
Y-167539D01*
Y-167826D01*
Y-168112D01*
Y-168398D01*
Y-168685D01*
Y-168971D01*
X941698D01*
Y-169257D01*
Y-169544D01*
X942271D01*
Y-169257D01*
X942557D01*
Y-168971D01*
X942844D01*
Y-168685D01*
X943416D01*
Y-168398D01*
X943703D01*
Y-168112D01*
X943989D01*
Y-167826D01*
X944561D01*
Y-167539D01*
X945134D01*
Y-167253D01*
X945420D01*
Y-166967D01*
X945993D01*
Y-166681D01*
X946852D01*
Y-166394D01*
X947425D01*
Y-166108D01*
X948284D01*
Y-165822D01*
X949715D01*
Y-165535D01*
X956014D01*
Y-165822D01*
X957159D01*
Y-166108D01*
X958018D01*
Y-166394D01*
X958591D01*
Y-166681D01*
X958877D01*
Y-166967D01*
X959450D01*
Y-167253D01*
X959736D01*
Y-167539D01*
X960022D01*
Y-167826D01*
X960309D01*
Y-168112D01*
X960595D01*
Y-168398D01*
Y-168685D01*
X960881D01*
Y-168971D01*
Y-169257D01*
X961168D01*
Y-169544D01*
Y-169830D01*
Y-170116D01*
X961454D01*
Y-170403D01*
Y-170689D01*
Y-170975D01*
Y-171262D01*
X961740D01*
Y-171548D01*
Y-171834D01*
Y-172120D01*
Y-172407D01*
Y-172693D01*
Y-172979D01*
Y-173266D01*
Y-173552D01*
Y-173838D01*
Y-174125D01*
Y-174411D01*
Y-174697D01*
Y-174984D01*
Y-175270D01*
Y-175556D01*
Y-175842D01*
Y-176129D01*
Y-176415D01*
X961454D01*
Y-176701D01*
Y-176988D01*
Y-177274D01*
Y-177560D01*
Y-177847D01*
Y-178133D01*
Y-178419D01*
X961168D01*
Y-178706D01*
Y-178992D01*
Y-179278D01*
Y-179565D01*
Y-179851D01*
Y-180137D01*
Y-180423D01*
X960881D01*
Y-180710D01*
Y-180996D01*
Y-181282D01*
Y-181569D01*
Y-181855D01*
Y-182141D01*
X960595D01*
Y-182428D01*
Y-182714D01*
Y-183000D01*
Y-183287D01*
Y-183573D01*
Y-183859D01*
X960309D01*
Y-184146D01*
Y-184432D01*
Y-184718D01*
Y-185004D01*
Y-185291D01*
Y-185577D01*
X960022D01*
Y-185863D01*
Y-186150D01*
Y-186436D01*
Y-186722D01*
Y-187009D01*
Y-187295D01*
Y-187581D01*
X959736D01*
Y-187868D01*
Y-188154D01*
Y-188440D01*
Y-188727D01*
Y-189013D01*
Y-189299D01*
X959450D01*
Y-189585D01*
Y-189872D01*
Y-190158D01*
Y-190444D01*
Y-190731D01*
Y-191017D01*
X959163D01*
Y-191303D01*
Y-191590D01*
Y-191876D01*
Y-192162D01*
Y-192449D01*
Y-192735D01*
Y-193021D01*
X958877D01*
Y-193308D01*
Y-193594D01*
Y-193880D01*
Y-194167D01*
Y-194453D01*
Y-194739D01*
X958591D01*
Y-195025D01*
Y-195312D01*
Y-195598D01*
Y-195884D01*
Y-196171D01*
Y-196457D01*
X958305D01*
Y-196743D01*
Y-197030D01*
Y-197316D01*
Y-197602D01*
Y-197889D01*
Y-198175D01*
X958018D01*
Y-198461D01*
Y-198748D01*
Y-199034D01*
Y-199320D01*
Y-199606D01*
Y-199893D01*
Y-200179D01*
X957732D01*
Y-200465D01*
Y-200752D01*
Y-201038D01*
Y-201324D01*
Y-201611D01*
Y-201897D01*
X957446D01*
Y-202183D01*
Y-202470D01*
X944275D01*
Y-202183D01*
Y-201897D01*
X944561D01*
Y-201611D01*
Y-201324D01*
Y-201038D01*
Y-200752D01*
Y-200465D01*
Y-200179D01*
X944848D01*
Y-199893D01*
Y-199606D01*
Y-199320D01*
Y-199034D01*
Y-198748D01*
Y-198461D01*
Y-198175D01*
X945134D01*
Y-197889D01*
Y-197602D01*
Y-197316D01*
Y-197030D01*
Y-196743D01*
Y-196457D01*
X945420D01*
Y-196171D01*
Y-195884D01*
Y-195598D01*
Y-195312D01*
Y-195025D01*
Y-194739D01*
X945707D01*
Y-194453D01*
Y-194167D01*
Y-193880D01*
Y-193594D01*
Y-193308D01*
Y-193021D01*
Y-192735D01*
X945993D01*
Y-192449D01*
Y-192162D01*
Y-191876D01*
Y-191590D01*
Y-191303D01*
Y-191017D01*
X946279D01*
Y-190731D01*
Y-190444D01*
Y-190158D01*
Y-189872D01*
Y-189585D01*
Y-189299D01*
Y-189013D01*
X946566D01*
Y-188727D01*
Y-188440D01*
Y-188154D01*
Y-187868D01*
Y-187581D01*
Y-187295D01*
X946852D01*
Y-187009D01*
Y-186722D01*
Y-186436D01*
Y-186150D01*
Y-185863D01*
Y-185577D01*
X947138D01*
Y-185291D01*
Y-185004D01*
Y-184718D01*
Y-184432D01*
Y-184146D01*
Y-183859D01*
X947425D01*
Y-183573D01*
Y-183287D01*
Y-183000D01*
Y-182714D01*
Y-182428D01*
Y-182141D01*
Y-181855D01*
X947711D01*
Y-181569D01*
Y-181282D01*
Y-180996D01*
Y-180710D01*
Y-180423D01*
Y-180137D01*
X947997D01*
Y-179851D01*
Y-179565D01*
Y-179278D01*
Y-178992D01*
Y-178706D01*
Y-178419D01*
Y-178133D01*
X948284D01*
Y-177847D01*
Y-177560D01*
Y-177274D01*
Y-176988D01*
Y-176701D01*
Y-176415D01*
X947997D01*
Y-176129D01*
Y-175842D01*
X947711D01*
Y-175556D01*
X947425D01*
Y-175270D01*
X946852D01*
Y-174984D01*
X945134D01*
Y-175270D01*
X943703D01*
Y-175556D01*
X942844D01*
Y-175842D01*
X942271D01*
Y-176129D01*
X941985D01*
Y-176415D01*
X941412D01*
Y-176701D01*
X941126D01*
Y-176988D01*
X940839D01*
Y-177274D01*
Y-177560D01*
X940553D01*
Y-177847D01*
Y-178133D01*
Y-178419D01*
X940267D01*
Y-178706D01*
Y-178992D01*
Y-179278D01*
Y-179565D01*
Y-179851D01*
Y-180137D01*
X939981D01*
Y-180423D01*
Y-180710D01*
Y-180996D01*
Y-181282D01*
Y-181569D01*
Y-181855D01*
Y-182141D01*
X939694D01*
Y-182428D01*
Y-182714D01*
Y-183000D01*
Y-183287D01*
Y-183573D01*
Y-183859D01*
X939408D01*
Y-184146D01*
Y-184432D01*
Y-184718D01*
Y-185004D01*
Y-185291D01*
Y-185577D01*
X939122D01*
Y-185863D01*
Y-186150D01*
Y-186436D01*
Y-186722D01*
Y-187009D01*
Y-187295D01*
X938835D01*
Y-187581D01*
Y-187868D01*
Y-188154D01*
Y-188440D01*
Y-188727D01*
Y-189013D01*
Y-189299D01*
X938549D01*
Y-189585D01*
Y-189872D01*
Y-190158D01*
Y-190444D01*
Y-190731D01*
Y-191017D01*
X938263D01*
Y-191303D01*
Y-191590D01*
Y-191876D01*
Y-192162D01*
Y-192449D01*
Y-192735D01*
X937976D01*
Y-193021D01*
Y-193308D01*
Y-193594D01*
Y-193880D01*
Y-194167D01*
Y-194453D01*
Y-194739D01*
X937690D01*
Y-195025D01*
Y-195312D01*
Y-195598D01*
Y-195884D01*
Y-196171D01*
Y-196457D01*
X937404D01*
Y-196743D01*
Y-197030D01*
Y-197316D01*
Y-197602D01*
Y-197889D01*
Y-198175D01*
X937117D01*
Y-198461D01*
Y-198748D01*
Y-199034D01*
Y-199320D01*
Y-199606D01*
Y-199893D01*
X936831D01*
Y-200179D01*
Y-200465D01*
Y-200752D01*
Y-201038D01*
Y-201324D01*
Y-201611D01*
Y-201897D01*
X936545D01*
Y-202183D01*
Y-202470D01*
X923374D01*
Y-202183D01*
Y-201897D01*
X923661D01*
Y-201611D01*
Y-201324D01*
Y-201038D01*
Y-200752D01*
Y-200465D01*
Y-200179D01*
Y-199893D01*
X923947D01*
Y-199606D01*
Y-199320D01*
Y-199034D01*
Y-198748D01*
Y-198461D01*
Y-198175D01*
X924233D01*
Y-197889D01*
Y-197602D01*
Y-197316D01*
Y-197030D01*
Y-196743D01*
Y-196457D01*
X924520D01*
Y-196171D01*
Y-195884D01*
Y-195598D01*
Y-195312D01*
Y-195025D01*
Y-194739D01*
Y-194453D01*
X924806D01*
Y-194167D01*
Y-193880D01*
Y-193594D01*
Y-193308D01*
Y-193021D01*
Y-192735D01*
X925092D01*
Y-192449D01*
Y-192162D01*
Y-191876D01*
Y-191590D01*
Y-191303D01*
Y-191017D01*
X925379D01*
Y-190731D01*
Y-190444D01*
Y-190158D01*
Y-189872D01*
Y-189585D01*
Y-189299D01*
X925665D01*
Y-189013D01*
Y-188727D01*
Y-188440D01*
Y-188154D01*
Y-187868D01*
Y-187581D01*
Y-187295D01*
X925951D01*
Y-187009D01*
Y-186722D01*
Y-186436D01*
Y-186150D01*
Y-185863D01*
Y-185577D01*
X926237D01*
Y-185291D01*
Y-185004D01*
Y-184718D01*
Y-184432D01*
Y-184146D01*
Y-183859D01*
X926524D01*
Y-183573D01*
Y-183287D01*
Y-183000D01*
Y-182714D01*
Y-182428D01*
Y-182141D01*
Y-181855D01*
X926810D01*
Y-181569D01*
Y-181282D01*
Y-180996D01*
Y-180710D01*
Y-180423D01*
Y-180137D01*
X927096D01*
Y-179851D01*
Y-179565D01*
Y-179278D01*
Y-178992D01*
Y-178706D01*
Y-178419D01*
X927383D01*
Y-178133D01*
Y-177847D01*
Y-177560D01*
Y-177274D01*
Y-176988D01*
Y-176701D01*
X927669D01*
Y-176415D01*
Y-176129D01*
Y-175842D01*
Y-175556D01*
Y-175270D01*
Y-174984D01*
Y-174697D01*
X927955D01*
Y-174411D01*
Y-174125D01*
Y-173838D01*
Y-173552D01*
Y-173266D01*
Y-172979D01*
X928242D01*
Y-172693D01*
Y-172407D01*
Y-172120D01*
Y-171834D01*
Y-171548D01*
Y-171262D01*
X928528D01*
Y-170975D01*
Y-170689D01*
Y-170403D01*
Y-170116D01*
Y-169830D01*
Y-169544D01*
X928814D01*
Y-169257D01*
Y-168971D01*
Y-168685D01*
Y-168398D01*
Y-168112D01*
Y-167826D01*
Y-167539D01*
X929101D01*
Y-167253D01*
Y-166967D01*
Y-166681D01*
Y-166394D01*
Y-166108D01*
Y-165822D01*
X929387D01*
Y-165535D01*
Y-165249D01*
Y-164963D01*
Y-164676D01*
Y-164390D01*
Y-164104D01*
X929673D01*
Y-163817D01*
Y-163531D01*
Y-163245D01*
Y-162958D01*
Y-162672D01*
Y-162386D01*
Y-162100D01*
X929960D01*
Y-161813D01*
Y-161527D01*
Y-161240D01*
Y-160954D01*
Y-160668D01*
Y-160382D01*
X930246D01*
Y-160095D01*
Y-159809D01*
Y-159523D01*
Y-159236D01*
Y-158950D01*
Y-158664D01*
X930532D01*
Y-158377D01*
Y-158091D01*
Y-157805D01*
Y-157518D01*
Y-157232D01*
Y-156946D01*
X930818D01*
Y-156659D01*
Y-156373D01*
Y-156087D01*
Y-155801D01*
Y-155514D01*
Y-155228D01*
Y-154942D01*
X931105D01*
Y-154655D01*
Y-154369D01*
Y-154083D01*
Y-153796D01*
Y-153510D01*
Y-153224D01*
X931391D01*
Y-152937D01*
Y-152651D01*
Y-152365D01*
Y-152078D01*
Y-151792D01*
Y-151506D01*
X931678D01*
Y-151220D01*
Y-150933D01*
Y-150647D01*
Y-150361D01*
Y-150074D01*
Y-149788D01*
Y-149502D01*
X931964D01*
Y-149215D01*
Y-148929D01*
Y-148643D01*
X945134D01*
Y-148929D01*
D02*
G37*
G36*
X1047062Y-166394D02*
X1046775D01*
Y-166681D01*
X1046489D01*
Y-166967D01*
Y-167253D01*
X1046203D01*
Y-167539D01*
X1045916D01*
Y-167826D01*
X1045630D01*
Y-168112D01*
Y-168398D01*
X1045344D01*
Y-168685D01*
X1045057D01*
Y-168971D01*
X1044771D01*
Y-169257D01*
X1044485D01*
Y-169544D01*
Y-169830D01*
X1044198D01*
Y-170116D01*
X1043912D01*
Y-170403D01*
X1043626D01*
Y-170689D01*
Y-170975D01*
X1043340D01*
Y-171262D01*
X1043053D01*
Y-171548D01*
X1042767D01*
Y-171834D01*
X1042480D01*
Y-172120D01*
Y-172407D01*
X1042194D01*
Y-172693D01*
X1041908D01*
Y-172979D01*
X1041622D01*
Y-173266D01*
Y-173552D01*
X1041335D01*
Y-173838D01*
X1041049D01*
Y-174125D01*
X1040763D01*
Y-174411D01*
Y-174697D01*
X1040476D01*
Y-174984D01*
X1040190D01*
Y-175270D01*
X1039904D01*
Y-175556D01*
X1039617D01*
Y-175842D01*
Y-176129D01*
X1039331D01*
Y-176415D01*
X1039045D01*
Y-176701D01*
X1038758D01*
Y-176988D01*
Y-177274D01*
X1038472D01*
Y-177560D01*
X1038186D01*
Y-177847D01*
X1037899D01*
Y-178133D01*
Y-178419D01*
X1037613D01*
Y-178706D01*
X1037327D01*
Y-178992D01*
X1037041D01*
Y-179278D01*
X1036754D01*
Y-179565D01*
Y-179851D01*
X1036468D01*
Y-180137D01*
X1036182D01*
Y-180423D01*
X1035895D01*
Y-180710D01*
Y-180996D01*
X1035609D01*
Y-181282D01*
X1035323D01*
Y-181569D01*
X1035036D01*
Y-181855D01*
Y-182141D01*
X1034750D01*
Y-182428D01*
X1034464D01*
Y-182714D01*
X1034177D01*
Y-183000D01*
X1033891D01*
Y-183287D01*
Y-183573D01*
X1033605D01*
Y-183859D01*
X1033319D01*
Y-184146D01*
X1033032D01*
Y-184432D01*
Y-184718D01*
X1032746D01*
Y-185004D01*
X1032460D01*
Y-185291D01*
X1032173D01*
Y-185577D01*
X1031887D01*
Y-185863D01*
Y-186150D01*
X1032173D01*
Y-186436D01*
Y-186722D01*
X1032460D01*
Y-187009D01*
Y-187295D01*
X1032746D01*
Y-187581D01*
X1033032D01*
Y-187868D01*
Y-188154D01*
X1033319D01*
Y-188440D01*
Y-188727D01*
X1033605D01*
Y-189013D01*
Y-189299D01*
X1033891D01*
Y-189585D01*
Y-189872D01*
X1034177D01*
Y-190158D01*
Y-190444D01*
X1034464D01*
Y-190731D01*
Y-191017D01*
X1034750D01*
Y-191303D01*
Y-191590D01*
X1035036D01*
Y-191876D01*
Y-192162D01*
X1035323D01*
Y-192449D01*
X1035609D01*
Y-192735D01*
Y-193021D01*
X1035895D01*
Y-193308D01*
Y-193594D01*
X1036182D01*
Y-193880D01*
Y-194167D01*
X1036468D01*
Y-194453D01*
Y-194739D01*
X1036754D01*
Y-195025D01*
Y-195312D01*
X1037041D01*
Y-195598D01*
Y-195884D01*
X1037327D01*
Y-196171D01*
Y-196457D01*
X1037613D01*
Y-196743D01*
X1037899D01*
Y-197030D01*
Y-197316D01*
X1038186D01*
Y-197602D01*
Y-197889D01*
X1038472D01*
Y-198175D01*
Y-198461D01*
X1038758D01*
Y-198748D01*
Y-199034D01*
X1039045D01*
Y-199320D01*
Y-199606D01*
X1039331D01*
Y-199893D01*
Y-200179D01*
X1039617D01*
Y-200465D01*
Y-200752D01*
X1039904D01*
Y-201038D01*
X1040190D01*
Y-201324D01*
Y-201611D01*
X1040476D01*
Y-201897D01*
Y-202183D01*
X1040763D01*
Y-202470D01*
X1025588D01*
Y-202183D01*
X1025302D01*
Y-201897D01*
Y-201611D01*
Y-201324D01*
X1025016D01*
Y-201038D01*
Y-200752D01*
Y-200465D01*
X1024729D01*
Y-200179D01*
Y-199893D01*
X1024443D01*
Y-199606D01*
Y-199320D01*
Y-199034D01*
X1024156D01*
Y-198748D01*
Y-198461D01*
Y-198175D01*
X1023870D01*
Y-197889D01*
Y-197602D01*
X1023584D01*
Y-197316D01*
Y-197030D01*
Y-196743D01*
X1023298D01*
Y-196457D01*
Y-196171D01*
Y-195884D01*
X1023011D01*
Y-195598D01*
Y-195312D01*
Y-195025D01*
X1022725D01*
Y-194739D01*
X1022152D01*
Y-195025D01*
Y-195312D01*
X1021866D01*
Y-195598D01*
X1021580D01*
Y-195884D01*
Y-196171D01*
X1021293D01*
Y-196457D01*
X1021007D01*
Y-196743D01*
Y-197030D01*
X1020721D01*
Y-197316D01*
X1020434D01*
Y-197602D01*
Y-197889D01*
X1020148D01*
Y-198175D01*
X1019862D01*
Y-198461D01*
X1019576D01*
Y-198748D01*
Y-199034D01*
X1019289D01*
Y-199320D01*
X1019003D01*
Y-199606D01*
Y-199893D01*
X1018717D01*
Y-200179D01*
X1018430D01*
Y-200465D01*
Y-200752D01*
X1018144D01*
Y-201038D01*
X1017858D01*
Y-201324D01*
Y-201611D01*
X1017571D01*
Y-201897D01*
X1017285D01*
Y-202183D01*
Y-202470D01*
X1001252D01*
Y-202183D01*
X1001538D01*
Y-201897D01*
X1001824D01*
Y-201611D01*
X1002110D01*
Y-201324D01*
X1002397D01*
Y-201038D01*
Y-200752D01*
X1002683D01*
Y-200465D01*
X1002969D01*
Y-200179D01*
X1003256D01*
Y-199893D01*
X1003542D01*
Y-199606D01*
Y-199320D01*
X1003828D01*
Y-199034D01*
X1004115D01*
Y-198748D01*
X1004401D01*
Y-198461D01*
Y-198175D01*
X1004687D01*
Y-197889D01*
X1004974D01*
Y-197602D01*
X1005260D01*
Y-197316D01*
X1005546D01*
Y-197030D01*
Y-196743D01*
X1005832D01*
Y-196457D01*
X1006119D01*
Y-196171D01*
X1006405D01*
Y-195884D01*
X1006691D01*
Y-195598D01*
Y-195312D01*
X1006978D01*
Y-195025D01*
X1007264D01*
Y-194739D01*
X1007550D01*
Y-194453D01*
Y-194167D01*
X1007837D01*
Y-193880D01*
X1008123D01*
Y-193594D01*
X1008409D01*
Y-193308D01*
X1008696D01*
Y-193021D01*
Y-192735D01*
X1008982D01*
Y-192449D01*
X1009268D01*
Y-192162D01*
X1009555D01*
Y-191876D01*
Y-191590D01*
X1009841D01*
Y-191303D01*
X1010127D01*
Y-191017D01*
X1010413D01*
Y-190731D01*
X1010700D01*
Y-190444D01*
Y-190158D01*
X1010986D01*
Y-189872D01*
X1011272D01*
Y-189585D01*
X1011559D01*
Y-189299D01*
Y-189013D01*
X1011845D01*
Y-188727D01*
X1012131D01*
Y-188440D01*
X1012418D01*
Y-188154D01*
X1012704D01*
Y-187868D01*
Y-187581D01*
X1012990D01*
Y-187295D01*
X1013277D01*
Y-187009D01*
X1013563D01*
Y-186722D01*
X1013849D01*
Y-186436D01*
Y-186150D01*
X1014136D01*
Y-185863D01*
X1014422D01*
Y-185577D01*
X1014708D01*
Y-185291D01*
Y-185004D01*
X1014995D01*
Y-184718D01*
X1015281D01*
Y-184432D01*
X1015567D01*
Y-184146D01*
X1015853D01*
Y-183859D01*
Y-183573D01*
X1016140D01*
Y-183287D01*
Y-183000D01*
Y-182714D01*
X1015853D01*
Y-182428D01*
X1015567D01*
Y-182141D01*
Y-181855D01*
X1015281D01*
Y-181569D01*
Y-181282D01*
X1014995D01*
Y-180996D01*
Y-180710D01*
X1014708D01*
Y-180423D01*
Y-180137D01*
X1014422D01*
Y-179851D01*
Y-179565D01*
X1014136D01*
Y-179278D01*
Y-178992D01*
X1013849D01*
Y-178706D01*
X1013563D01*
Y-178419D01*
Y-178133D01*
X1013277D01*
Y-177847D01*
Y-177560D01*
X1012990D01*
Y-177274D01*
Y-176988D01*
X1012704D01*
Y-176701D01*
Y-176415D01*
X1012418D01*
Y-176129D01*
Y-175842D01*
X1012131D01*
Y-175556D01*
Y-175270D01*
X1011845D01*
Y-174984D01*
X1011559D01*
Y-174697D01*
Y-174411D01*
X1011272D01*
Y-174125D01*
Y-173838D01*
X1010986D01*
Y-173552D01*
Y-173266D01*
X1010700D01*
Y-172979D01*
Y-172693D01*
X1010413D01*
Y-172407D01*
Y-172120D01*
X1010127D01*
Y-171834D01*
Y-171548D01*
X1009841D01*
Y-171262D01*
Y-170975D01*
X1009555D01*
Y-170689D01*
X1009268D01*
Y-170403D01*
Y-170116D01*
X1008982D01*
Y-169830D01*
Y-169544D01*
X1008696D01*
Y-169257D01*
Y-168971D01*
X1008409D01*
Y-168685D01*
Y-168398D01*
X1008123D01*
Y-168112D01*
Y-167826D01*
X1007837D01*
Y-167539D01*
Y-167253D01*
X1007550D01*
Y-166967D01*
X1007264D01*
Y-166681D01*
Y-166394D01*
X1006978D01*
Y-166108D01*
X1022725D01*
Y-166394D01*
X1023011D01*
Y-166681D01*
Y-166967D01*
Y-167253D01*
X1023298D01*
Y-167539D01*
Y-167826D01*
Y-168112D01*
X1023584D01*
Y-168398D01*
Y-168685D01*
Y-168971D01*
X1023870D01*
Y-169257D01*
Y-169544D01*
Y-169830D01*
X1024156D01*
Y-170116D01*
Y-170403D01*
Y-170689D01*
X1024443D01*
Y-170975D01*
Y-171262D01*
Y-171548D01*
X1024729D01*
Y-171834D01*
Y-172120D01*
Y-172407D01*
X1025016D01*
Y-172693D01*
Y-172979D01*
Y-173266D01*
X1025302D01*
Y-173552D01*
Y-173838D01*
Y-174125D01*
Y-174411D01*
X1025874D01*
Y-174125D01*
X1026161D01*
Y-173838D01*
X1026447D01*
Y-173552D01*
Y-173266D01*
X1026733D01*
Y-172979D01*
X1027020D01*
Y-172693D01*
Y-172407D01*
X1027306D01*
Y-172120D01*
X1027592D01*
Y-171834D01*
Y-171548D01*
X1027879D01*
Y-171262D01*
X1028165D01*
Y-170975D01*
Y-170689D01*
X1028451D01*
Y-170403D01*
X1028738D01*
Y-170116D01*
Y-169830D01*
X1029024D01*
Y-169544D01*
X1029310D01*
Y-169257D01*
Y-168971D01*
X1029597D01*
Y-168685D01*
X1029883D01*
Y-168398D01*
Y-168112D01*
X1030169D01*
Y-167826D01*
X1030455D01*
Y-167539D01*
Y-167253D01*
X1030742D01*
Y-166967D01*
X1031028D01*
Y-166681D01*
Y-166394D01*
X1031314D01*
Y-166108D01*
X1047062D01*
Y-166394D01*
D02*
G37*
G36*
X1002969D02*
Y-166681D01*
Y-166967D01*
Y-167253D01*
Y-167539D01*
Y-167826D01*
Y-168112D01*
Y-168398D01*
Y-168685D01*
Y-168971D01*
Y-169257D01*
Y-169544D01*
Y-169830D01*
Y-170116D01*
Y-170403D01*
Y-170689D01*
Y-170975D01*
Y-171262D01*
Y-171548D01*
Y-171834D01*
Y-172120D01*
X1002683D01*
Y-172407D01*
Y-172693D01*
Y-172979D01*
Y-173266D01*
Y-173552D01*
X1002397D01*
Y-173838D01*
Y-174125D01*
Y-174411D01*
Y-174697D01*
X1002110D01*
Y-174984D01*
Y-175270D01*
Y-175556D01*
Y-175842D01*
X1001824D01*
Y-176129D01*
Y-176415D01*
Y-176701D01*
X1001538D01*
Y-176988D01*
Y-177274D01*
Y-177560D01*
X1001252D01*
Y-177847D01*
Y-178133D01*
Y-178419D01*
X1000965D01*
Y-178706D01*
Y-178992D01*
Y-179278D01*
X1000679D01*
Y-179565D01*
Y-179851D01*
X1000393D01*
Y-180137D01*
Y-180423D01*
X1000106D01*
Y-180710D01*
Y-180996D01*
Y-181282D01*
X999820D01*
Y-181569D01*
Y-181855D01*
X999534D01*
Y-182141D01*
Y-182428D01*
Y-182714D01*
X999247D01*
Y-183000D01*
Y-183287D01*
X998961D01*
Y-183573D01*
Y-183859D01*
Y-184146D01*
X998675D01*
Y-184432D01*
Y-184718D01*
X998388D01*
Y-185004D01*
Y-185291D01*
Y-185577D01*
X998102D01*
Y-185863D01*
Y-186150D01*
X997816D01*
Y-186436D01*
Y-186722D01*
Y-187009D01*
X997529D01*
Y-187295D01*
Y-187581D01*
X997243D01*
Y-187868D01*
Y-188154D01*
Y-188440D01*
X996957D01*
Y-188727D01*
Y-189013D01*
X996671D01*
Y-189299D01*
Y-189585D01*
Y-189872D01*
X996384D01*
Y-190158D01*
Y-190444D01*
X996098D01*
Y-190731D01*
Y-191017D01*
Y-191303D01*
X995811D01*
Y-191590D01*
Y-191876D01*
X995525D01*
Y-192162D01*
Y-192449D01*
Y-192735D01*
X995239D01*
Y-193021D01*
Y-193308D01*
X994953D01*
Y-193594D01*
Y-193880D01*
Y-194167D01*
X994666D01*
Y-194453D01*
Y-194739D01*
X994380D01*
Y-195025D01*
Y-195312D01*
Y-195598D01*
X994094D01*
Y-195884D01*
Y-196171D01*
X993807D01*
Y-196457D01*
Y-196743D01*
Y-197030D01*
X993521D01*
Y-197316D01*
Y-197602D01*
X993235D01*
Y-197889D01*
Y-198175D01*
Y-198461D01*
X992948D01*
Y-198748D01*
Y-199034D01*
X992662D01*
Y-199320D01*
Y-199606D01*
Y-199893D01*
X992376D01*
Y-200179D01*
Y-200465D01*
X992089D01*
Y-200752D01*
Y-201038D01*
Y-201324D01*
X991803D01*
Y-201611D01*
Y-201897D01*
X991517D01*
Y-202183D01*
Y-202470D01*
Y-202756D01*
X991230D01*
Y-203042D01*
Y-203328D01*
X990944D01*
Y-203615D01*
Y-203901D01*
X990658D01*
Y-204187D01*
Y-204474D01*
X990372D01*
Y-204760D01*
Y-205046D01*
Y-205333D01*
X990085D01*
Y-205619D01*
X989799D01*
Y-205905D01*
Y-206192D01*
Y-206478D01*
X989513D01*
Y-206764D01*
X989226D01*
Y-207051D01*
Y-207337D01*
X988940D01*
Y-207623D01*
Y-207909D01*
X988654D01*
Y-208196D01*
Y-208482D01*
X988367D01*
Y-208769D01*
Y-209055D01*
X988081D01*
Y-209341D01*
X987795D01*
Y-209627D01*
Y-209914D01*
X987508D01*
Y-210200D01*
Y-210486D01*
X987222D01*
Y-210773D01*
X986936D01*
Y-211059D01*
X986650D01*
Y-211345D01*
Y-211632D01*
X986363D01*
Y-211918D01*
X986077D01*
Y-212204D01*
Y-212491D01*
X985791D01*
Y-212777D01*
X985504D01*
Y-213063D01*
X985218D01*
Y-213350D01*
Y-213636D01*
X984932D01*
Y-213922D01*
X984645D01*
Y-214208D01*
X984359D01*
Y-214495D01*
X984073D01*
Y-214781D01*
X983786D01*
Y-215067D01*
Y-215354D01*
X983500D01*
Y-215640D01*
X983214D01*
Y-215926D01*
X982928D01*
Y-216213D01*
X982641D01*
Y-216499D01*
X982355D01*
Y-216785D01*
X982069D01*
Y-217072D01*
X981782D01*
Y-217358D01*
X981210D01*
Y-217644D01*
X980923D01*
Y-217931D01*
X980637D01*
Y-218217D01*
X980351D01*
Y-218503D01*
X980064D01*
Y-218789D01*
X979492D01*
Y-219076D01*
X979205D01*
Y-219362D01*
X978633D01*
Y-219648D01*
X978347D01*
Y-219935D01*
X977774D01*
Y-220221D01*
X977487D01*
Y-220507D01*
X976915D01*
Y-220794D01*
X976342D01*
Y-221080D01*
X975770D01*
Y-221366D01*
X975197D01*
Y-221653D01*
X974624D01*
Y-221939D01*
X973765D01*
Y-222225D01*
X973193D01*
Y-222512D01*
X972334D01*
Y-222798D01*
X971189D01*
Y-223084D01*
X970043D01*
Y-223370D01*
X968326D01*
Y-223657D01*
X966321D01*
Y-223943D01*
X966035D01*
Y-223657D01*
Y-223370D01*
Y-223084D01*
Y-222798D01*
Y-222512D01*
Y-222225D01*
Y-221939D01*
Y-221653D01*
Y-221366D01*
Y-221080D01*
Y-220794D01*
Y-220507D01*
Y-220221D01*
Y-219935D01*
Y-219648D01*
Y-219362D01*
Y-219076D01*
Y-218789D01*
Y-218503D01*
Y-218217D01*
Y-217931D01*
Y-217644D01*
Y-217358D01*
Y-217072D01*
Y-216785D01*
Y-216499D01*
Y-216213D01*
Y-215926D01*
Y-215640D01*
Y-215354D01*
Y-215067D01*
Y-214781D01*
Y-214495D01*
X966608D01*
Y-214208D01*
X967180D01*
Y-213922D01*
X967753D01*
Y-213636D01*
X968326D01*
Y-213350D01*
X968898D01*
Y-213063D01*
X969471D01*
Y-212777D01*
X969757D01*
Y-212491D01*
X970330D01*
Y-212204D01*
X970616D01*
Y-211918D01*
X971189D01*
Y-211632D01*
X971475D01*
Y-211345D01*
X971761D01*
Y-211059D01*
X972334D01*
Y-210773D01*
X972620D01*
Y-210486D01*
X972906D01*
Y-210200D01*
X973193D01*
Y-209914D01*
X973479D01*
Y-209627D01*
X973765D01*
Y-209341D01*
X974052D01*
Y-209055D01*
X974338D01*
Y-208769D01*
X974624D01*
Y-208482D01*
X974911D01*
Y-208196D01*
X975197D01*
Y-207909D01*
X975483D01*
Y-207623D01*
Y-207337D01*
X975770D01*
Y-207051D01*
X976056D01*
Y-206764D01*
X976342D01*
Y-206478D01*
Y-206192D01*
X976629D01*
Y-205905D01*
X976915D01*
Y-205619D01*
Y-205333D01*
X977201D01*
Y-205046D01*
Y-204760D01*
X977487D01*
Y-204474D01*
X977774D01*
Y-204187D01*
Y-203901D01*
X978060D01*
Y-203615D01*
Y-203328D01*
X978347D01*
Y-203042D01*
Y-202756D01*
X976629D01*
Y-202470D01*
X974624D01*
Y-202183D01*
X973479D01*
Y-201897D01*
X972906D01*
Y-201611D01*
X972048D01*
Y-201324D01*
X971475D01*
Y-201038D01*
X971189D01*
Y-200752D01*
X970616D01*
Y-200465D01*
X970330D01*
Y-200179D01*
X970043D01*
Y-199893D01*
X969757D01*
Y-199606D01*
X969471D01*
Y-199320D01*
X969184D01*
Y-199034D01*
Y-198748D01*
X968898D01*
Y-198461D01*
X968612D01*
Y-198175D01*
Y-197889D01*
X968326D01*
Y-197602D01*
Y-197316D01*
X968039D01*
Y-197030D01*
Y-196743D01*
X967753D01*
Y-196457D01*
Y-196171D01*
Y-195884D01*
X967467D01*
Y-195598D01*
Y-195312D01*
Y-195025D01*
Y-194739D01*
X967180D01*
Y-194453D01*
Y-194167D01*
Y-193880D01*
Y-193594D01*
Y-193308D01*
Y-193021D01*
Y-192735D01*
X966894D01*
Y-192449D01*
Y-192162D01*
Y-191876D01*
Y-191590D01*
Y-191303D01*
Y-191017D01*
Y-190731D01*
Y-190444D01*
Y-190158D01*
Y-189872D01*
Y-189585D01*
Y-189299D01*
Y-189013D01*
Y-188727D01*
Y-188440D01*
X966608D01*
Y-188154D01*
Y-187868D01*
Y-187581D01*
Y-187295D01*
Y-187009D01*
Y-186722D01*
Y-186436D01*
Y-186150D01*
Y-185863D01*
Y-185577D01*
Y-185291D01*
Y-185004D01*
Y-184718D01*
Y-184432D01*
Y-184146D01*
X966321D01*
Y-183859D01*
Y-183573D01*
Y-183287D01*
Y-183000D01*
Y-182714D01*
Y-182428D01*
Y-182141D01*
Y-181855D01*
Y-181569D01*
Y-181282D01*
Y-180996D01*
Y-180710D01*
Y-180423D01*
Y-180137D01*
Y-179851D01*
Y-179565D01*
X966035D01*
Y-179278D01*
Y-178992D01*
Y-178706D01*
Y-178419D01*
Y-178133D01*
Y-177847D01*
Y-177560D01*
Y-177274D01*
Y-176988D01*
Y-176701D01*
Y-176415D01*
Y-176129D01*
Y-175842D01*
Y-175556D01*
Y-175270D01*
Y-174984D01*
X965749D01*
Y-174697D01*
Y-174411D01*
Y-174125D01*
Y-173838D01*
Y-173552D01*
Y-173266D01*
Y-172979D01*
Y-172693D01*
Y-172407D01*
Y-172120D01*
Y-171834D01*
Y-171548D01*
Y-171262D01*
Y-170975D01*
X965462D01*
Y-170689D01*
Y-170403D01*
Y-170116D01*
Y-169830D01*
Y-169544D01*
Y-169257D01*
Y-168971D01*
Y-168685D01*
Y-168398D01*
Y-168112D01*
Y-167826D01*
Y-167539D01*
Y-167253D01*
Y-166967D01*
Y-166681D01*
Y-166394D01*
X965176D01*
Y-166108D01*
X978919D01*
Y-166394D01*
Y-166681D01*
Y-166967D01*
Y-167253D01*
Y-167539D01*
Y-167826D01*
Y-168112D01*
Y-168398D01*
Y-168685D01*
Y-168971D01*
Y-169257D01*
Y-169544D01*
Y-169830D01*
Y-170116D01*
X979205D01*
Y-170403D01*
Y-170689D01*
Y-170975D01*
Y-171262D01*
Y-171548D01*
Y-171834D01*
Y-172120D01*
Y-172407D01*
Y-172693D01*
Y-172979D01*
Y-173266D01*
Y-173552D01*
Y-173838D01*
Y-174125D01*
Y-174411D01*
Y-174697D01*
Y-174984D01*
Y-175270D01*
Y-175556D01*
Y-175842D01*
Y-176129D01*
Y-176415D01*
Y-176701D01*
Y-176988D01*
Y-177274D01*
Y-177560D01*
Y-177847D01*
Y-178133D01*
Y-178419D01*
Y-178706D01*
Y-178992D01*
Y-179278D01*
Y-179565D01*
Y-179851D01*
Y-180137D01*
Y-180423D01*
Y-180710D01*
Y-180996D01*
Y-181282D01*
Y-181569D01*
Y-181855D01*
X979492D01*
Y-182141D01*
X979205D01*
Y-182428D01*
Y-182714D01*
X979492D01*
Y-183000D01*
Y-183287D01*
Y-183573D01*
Y-183859D01*
Y-184146D01*
Y-184432D01*
Y-184718D01*
Y-185004D01*
Y-185291D01*
Y-185577D01*
Y-185863D01*
Y-186150D01*
Y-186436D01*
Y-186722D01*
Y-187009D01*
Y-187295D01*
Y-187581D01*
Y-187868D01*
Y-188154D01*
Y-188440D01*
Y-188727D01*
Y-189013D01*
Y-189299D01*
Y-189585D01*
Y-189872D01*
Y-190158D01*
X979778D01*
Y-190444D01*
Y-190731D01*
Y-191017D01*
X980064D01*
Y-191303D01*
X980351D01*
Y-191590D01*
X980637D01*
Y-191876D01*
X981496D01*
Y-192162D01*
X982355D01*
Y-191876D01*
X982641D01*
Y-191590D01*
Y-191303D01*
Y-191017D01*
X982928D01*
Y-190731D01*
Y-190444D01*
X983214D01*
Y-190158D01*
Y-189872D01*
Y-189585D01*
X983500D01*
Y-189299D01*
Y-189013D01*
Y-188727D01*
X983786D01*
Y-188440D01*
Y-188154D01*
Y-187868D01*
X984073D01*
Y-187581D01*
Y-187295D01*
Y-187009D01*
X984359D01*
Y-186722D01*
Y-186436D01*
X984645D01*
Y-186150D01*
Y-185863D01*
Y-185577D01*
X984932D01*
Y-185291D01*
Y-185004D01*
Y-184718D01*
X985218D01*
Y-184432D01*
Y-184146D01*
Y-183859D01*
X985504D01*
Y-183573D01*
Y-183287D01*
X985791D01*
Y-183000D01*
Y-182714D01*
Y-182428D01*
X986077D01*
Y-182141D01*
Y-181855D01*
Y-181569D01*
X986363D01*
Y-181282D01*
Y-180996D01*
Y-180710D01*
X986650D01*
Y-180423D01*
Y-180137D01*
X986936D01*
Y-179851D01*
Y-179565D01*
Y-179278D01*
X987222D01*
Y-178992D01*
Y-178706D01*
Y-178419D01*
X987508D01*
Y-178133D01*
Y-177847D01*
Y-177560D01*
X987795D01*
Y-177274D01*
Y-176988D01*
X988081D01*
Y-176701D01*
Y-176415D01*
Y-176129D01*
X988367D01*
Y-175842D01*
Y-175556D01*
Y-175270D01*
X988654D01*
Y-174984D01*
Y-174697D01*
Y-174411D01*
X988940D01*
Y-174125D01*
Y-173838D01*
Y-173552D01*
Y-173266D01*
X989226D01*
Y-172979D01*
Y-172693D01*
Y-172407D01*
Y-172120D01*
X989513D01*
Y-171834D01*
Y-171548D01*
Y-171262D01*
Y-170975D01*
Y-170689D01*
X989799D01*
Y-170403D01*
Y-170116D01*
Y-169830D01*
Y-169544D01*
Y-169257D01*
Y-168971D01*
X990085D01*
Y-168685D01*
Y-168398D01*
Y-168112D01*
Y-167826D01*
Y-167539D01*
Y-167253D01*
Y-166967D01*
Y-166681D01*
Y-166394D01*
Y-166108D01*
X1002969D01*
Y-166394D01*
D02*
G37*
%LPC*%
G36*
X909631Y-163245D02*
X901615D01*
Y-163531D01*
Y-163817D01*
Y-164104D01*
Y-164390D01*
Y-164676D01*
X901328D01*
Y-164963D01*
Y-165249D01*
Y-165535D01*
Y-165822D01*
Y-166108D01*
Y-166394D01*
X901042D01*
Y-166681D01*
Y-166967D01*
Y-167253D01*
Y-167539D01*
Y-167826D01*
Y-168112D01*
X900756D01*
Y-168398D01*
Y-168685D01*
Y-168971D01*
Y-169257D01*
Y-169544D01*
Y-169830D01*
X900469D01*
Y-170116D01*
Y-170403D01*
Y-170689D01*
Y-170975D01*
Y-171262D01*
Y-171548D01*
Y-171834D01*
X900183D01*
Y-172120D01*
Y-172407D01*
Y-172693D01*
Y-172979D01*
Y-173266D01*
Y-173552D01*
X899897D01*
Y-173838D01*
Y-174125D01*
Y-174411D01*
X907055D01*
Y-174125D01*
X908200D01*
Y-173838D01*
X908772D01*
Y-173552D01*
X909059D01*
Y-173266D01*
X909345D01*
Y-172979D01*
X909631D01*
Y-172693D01*
X909918D01*
Y-172407D01*
Y-172120D01*
X910204D01*
Y-171834D01*
Y-171548D01*
X910490D01*
Y-171262D01*
Y-170975D01*
X910777D01*
Y-170689D01*
Y-170403D01*
Y-170116D01*
Y-169830D01*
X911063D01*
Y-169544D01*
Y-169257D01*
Y-168971D01*
Y-168685D01*
Y-168398D01*
X911349D01*
Y-168112D01*
Y-167826D01*
Y-167539D01*
Y-167253D01*
Y-166967D01*
Y-166681D01*
Y-166394D01*
Y-166108D01*
Y-165822D01*
Y-165535D01*
Y-165249D01*
X911063D01*
Y-164963D01*
Y-164676D01*
X910777D01*
Y-164390D01*
Y-164104D01*
X910490D01*
Y-163817D01*
X910204D01*
Y-163531D01*
X909631D01*
Y-163245D01*
D02*
G37*
%LPD*%
D10*
X447460Y111986D02*
G03*
X447460Y111986I-1050J0D01*
G01*
X448160D02*
G03*
X448160Y111986I-1750J0D01*
G01*
Y80490D02*
G03*
X448160Y80490I-1750J0D01*
G01*
X441502Y155118D02*
X1172162D01*
X441502Y76378D02*
X1172162D01*
X441502Y68504D02*
X1172162D01*
Y162992D01*
X441502D02*
X1172162D01*
X441502Y68504D02*
Y162992D01*
X1098324Y68504D02*
Y162992D01*
X1039418Y68504D02*
Y162992D01*
X969202Y68504D02*
Y162992D01*
X898986Y68504D02*
Y162992D01*
X853959Y68504D02*
Y162992D01*
X793478Y68504D02*
Y162992D01*
X736146Y68504D02*
Y162992D01*
X704973Y68504D02*
Y162992D01*
X626125Y68504D02*
Y162992D01*
X587395Y68504D02*
Y162992D01*
X560630Y68504D02*
Y162992D01*
X499099Y68504D02*
Y162992D01*
X470629Y68504D02*
Y162992D01*
X445536Y150481D02*
X446411Y149606D01*
X444661Y150481D02*
X445536D01*
X444661D02*
X445536Y151356D01*
X444661Y152231D02*
X445536Y151356D01*
X444661Y152231D02*
X445536D01*
X446411Y153106D01*
X447285Y152231D01*
X448160D01*
X447285Y151356D02*
X448160Y152231D01*
X447285Y151356D02*
X448160Y150481D01*
X447285D02*
X448160D01*
X446411Y149606D02*
X447285Y150481D01*
X444661Y141732D02*
X446411Y142607D01*
X448160Y141732D01*
X447285Y143482D02*
X448160Y141732D01*
X447285Y143482D02*
X448160Y145232D01*
X446411Y144357D02*
X448160Y145232D01*
X444661D02*
X446411Y144357D01*
X444661Y145232D02*
X445536Y143482D01*
X444661Y141732D02*
X445536Y143482D01*
X444661Y135608D02*
X446411Y133858D01*
X448160Y135608D01*
X446411Y137358D02*
X448160Y135608D01*
X444661D02*
X446411Y137358D01*
X445361Y126684D02*
X447460D01*
Y128784D01*
X445361D02*
X447460D01*
X445361Y126684D02*
Y128784D01*
X444661Y125984D02*
X448160D01*
Y129484D01*
X444661D02*
X448160D01*
X444661Y125984D02*
Y129484D01*
Y118110D02*
Y118985D01*
X445536Y119860D01*
X444661Y120735D02*
X445536Y119860D01*
X444661Y120735D02*
Y121610D01*
X445536D01*
X446411Y120735D01*
X447285Y121610D01*
X448160D01*
Y120735D02*
Y121610D01*
X447285Y119860D02*
X448160Y120735D01*
X447285Y119860D02*
X448160Y118985D01*
Y118110D02*
Y118985D01*
X447285Y118110D02*
X448160D01*
X446411Y118985D02*
X447285Y118110D01*
X445536D02*
X446411Y118985D01*
X444661Y118110D02*
X445536D01*
X446411Y102362D02*
X448160Y105862D01*
X444661D02*
X448160D01*
X444661D02*
X446411Y102362D01*
X444661Y95363D02*
X445536D01*
X444661D02*
Y97113D01*
X445536D01*
Y97988D01*
X447285D01*
Y97113D02*
Y97988D01*
Y97113D02*
X448160D01*
Y95363D02*
Y97113D01*
X447285Y95363D02*
X448160D01*
X447285Y94488D02*
Y95363D01*
X445536Y94488D02*
X447285D01*
X445536D02*
Y95363D01*
X444661Y86614D02*
X448160D01*
Y90114D01*
X444661D02*
X448160D01*
X444661Y86614D02*
Y90114D01*
X1100687Y152230D02*
X1101211Y152755D01*
X1102261D01*
X1102786Y152230D01*
Y150131D01*
X1102261Y149606D01*
X1101211D01*
X1100687Y150131D01*
Y152230D01*
X1104360Y149082D02*
X1104885Y149606D01*
Y150131D01*
X1104360D01*
Y149606D01*
X1104885D01*
X1104360Y149082D01*
X1103835Y148557D01*
X1109083Y152755D02*
X1108033Y152230D01*
X1106984Y151181D01*
Y150131D01*
X1107509Y149606D01*
X1108558D01*
X1109083Y150131D01*
Y150656D01*
X1108558Y151181D01*
X1106984D01*
X1112232Y152755D02*
X1110133D01*
Y151181D01*
X1111182Y151705D01*
X1111707D01*
X1112232Y151181D01*
Y150131D01*
X1111707Y149606D01*
X1110657D01*
X1110133Y150131D01*
X1113281Y152230D02*
X1113806Y152755D01*
X1114855D01*
X1115380Y152230D01*
Y150131D01*
X1114855Y149606D01*
X1113806D01*
X1113281Y150131D01*
Y152230D01*
X1116430Y149606D02*
Y151705D01*
X1116954D01*
X1117479Y151181D01*
Y149606D01*
Y151181D01*
X1118004Y151705D01*
X1118529Y151181D01*
Y149606D01*
X1119578D02*
Y151705D01*
X1120103D01*
X1120628Y151181D01*
Y149606D01*
Y151181D01*
X1121153Y151705D01*
X1121677Y151181D01*
Y149606D01*
X1126925D02*
X1125875Y150656D01*
Y151705D01*
X1126925Y152755D01*
X1130598Y149606D02*
X1128499D01*
X1130598Y151705D01*
Y152230D01*
X1130074Y152755D01*
X1129024D01*
X1128499Y152230D01*
X1133747Y152755D02*
X1131648D01*
Y151181D01*
X1132697Y151705D01*
X1133222D01*
X1133747Y151181D01*
Y150131D01*
X1133222Y149606D01*
X1132173D01*
X1131648Y150131D01*
X1135321Y149082D02*
X1135846Y149606D01*
Y150131D01*
X1135321D01*
Y149606D01*
X1135846D01*
X1135321Y149082D01*
X1134797Y148557D01*
X1140044Y152755D02*
X1137945D01*
Y151181D01*
X1138995Y151705D01*
X1139519D01*
X1140044Y151181D01*
Y150131D01*
X1139519Y149606D01*
X1138470D01*
X1137945Y150131D01*
X1141094D02*
X1141618Y149606D01*
X1142668D01*
X1143193Y150131D01*
Y152230D01*
X1142668Y152755D01*
X1141618D01*
X1141094Y152230D01*
Y151705D01*
X1141618Y151181D01*
X1143193D01*
X1144242Y149606D02*
Y151705D01*
X1144767D01*
X1145292Y151181D01*
Y149606D01*
Y151181D01*
X1145817Y151705D01*
X1146341Y151181D01*
Y149606D01*
X1147391D02*
X1148440D01*
X1147916D01*
Y151705D01*
X1147391D01*
X1150015Y149606D02*
X1151064D01*
X1150539D01*
Y152755D01*
X1150015D01*
X1152639Y149606D02*
X1153688Y150656D01*
Y151705D01*
X1152639Y152755D01*
X1100687Y144356D02*
X1101211Y144881D01*
X1102261D01*
X1102786Y144356D01*
Y142257D01*
X1102261Y141732D01*
X1101211D01*
X1100687Y142257D01*
Y144356D01*
X1104360Y141208D02*
X1104885Y141732D01*
Y142257D01*
X1104360D01*
Y141732D01*
X1104885D01*
X1104360Y141208D01*
X1103835Y140683D01*
X1106984Y144356D02*
X1107509Y144881D01*
X1108558D01*
X1109083Y144356D01*
Y143831D01*
X1108558Y143307D01*
X1108033D01*
X1108558D01*
X1109083Y142782D01*
Y142257D01*
X1108558Y141732D01*
X1107509D01*
X1106984Y142257D01*
X1110133Y144356D02*
X1110657Y144881D01*
X1111707D01*
X1112232Y144356D01*
Y142257D01*
X1111707Y141732D01*
X1110657D01*
X1110133Y142257D01*
Y144356D01*
X1113281D02*
X1113806Y144881D01*
X1114855D01*
X1115380Y144356D01*
Y142257D01*
X1114855Y141732D01*
X1113806D01*
X1113281Y142257D01*
Y144356D01*
X1116430Y141732D02*
Y143831D01*
X1116954D01*
X1117479Y143307D01*
Y141732D01*
Y143307D01*
X1118004Y143831D01*
X1118529Y143307D01*
Y141732D01*
X1119578D02*
Y143831D01*
X1120103D01*
X1120628Y143307D01*
Y141732D01*
Y143307D01*
X1121153Y143831D01*
X1121677Y143307D01*
Y141732D01*
X1126925D02*
X1125875Y142782D01*
Y143831D01*
X1126925Y144881D01*
X1128499Y141732D02*
X1129549D01*
X1129024D01*
Y144881D01*
X1128499Y144356D01*
X1131123Y141732D02*
X1132173D01*
X1131648D01*
Y144881D01*
X1131123Y144356D01*
X1134272Y141208D02*
X1134797Y141732D01*
Y142257D01*
X1134272D01*
Y141732D01*
X1134797D01*
X1134272Y141208D01*
X1133747Y140683D01*
X1136895Y144356D02*
X1137420Y144881D01*
X1138470D01*
X1138995Y144356D01*
Y143831D01*
X1138470Y143307D01*
X1138995Y142782D01*
Y142257D01*
X1138470Y141732D01*
X1137420D01*
X1136895Y142257D01*
Y142782D01*
X1137420Y143307D01*
X1136895Y143831D01*
Y144356D01*
X1137420Y143307D02*
X1138470D01*
X1140044Y141732D02*
X1141094D01*
X1140569D01*
Y144881D01*
X1140044Y144356D01*
X1142668Y141732D02*
Y143831D01*
X1143193D01*
X1143717Y143307D01*
Y141732D01*
Y143307D01*
X1144242Y143831D01*
X1144767Y143307D01*
Y141732D01*
X1145817D02*
X1146866D01*
X1146341D01*
Y143831D01*
X1145817D01*
X1148440Y141732D02*
X1149490D01*
X1148965D01*
Y144881D01*
X1148440D01*
X1151064Y141732D02*
X1152114Y142782D01*
Y143831D01*
X1151064Y144881D01*
X1100687Y136482D02*
X1101211Y137007D01*
X1102261D01*
X1102786Y136482D01*
Y134383D01*
X1102261Y133858D01*
X1101211D01*
X1100687Y134383D01*
Y136482D01*
X1104360Y133334D02*
X1104885Y133858D01*
Y134383D01*
X1104360D01*
Y133858D01*
X1104885D01*
X1104360Y133334D01*
X1103835Y132809D01*
X1106984Y136482D02*
X1107509Y137007D01*
X1108558D01*
X1109083Y136482D01*
Y135957D01*
X1108558Y135433D01*
X1109083Y134908D01*
Y134383D01*
X1108558Y133858D01*
X1107509D01*
X1106984Y134383D01*
Y134908D01*
X1107509Y135433D01*
X1106984Y135957D01*
Y136482D01*
X1107509Y135433D02*
X1108558D01*
X1110133Y136482D02*
X1110657Y137007D01*
X1111707D01*
X1112232Y136482D01*
Y134383D01*
X1111707Y133858D01*
X1110657D01*
X1110133Y134383D01*
Y136482D01*
X1113281D02*
X1113806Y137007D01*
X1114855D01*
X1115380Y136482D01*
Y134383D01*
X1114855Y133858D01*
X1113806D01*
X1113281Y134383D01*
Y136482D01*
X1116430Y133858D02*
Y135957D01*
X1116954D01*
X1117479Y135433D01*
Y133858D01*
Y135433D01*
X1118004Y135957D01*
X1118529Y135433D01*
Y133858D01*
X1119578D02*
Y135957D01*
X1120103D01*
X1120628Y135433D01*
Y133858D01*
Y135433D01*
X1121153Y135957D01*
X1121677Y135433D01*
Y133858D01*
X1126925D02*
X1125875Y134908D01*
Y135957D01*
X1126925Y137007D01*
X1128499Y136482D02*
X1129024Y137007D01*
X1130074D01*
X1130598Y136482D01*
Y135957D01*
X1130074Y135433D01*
X1129549D01*
X1130074D01*
X1130598Y134908D01*
Y134383D01*
X1130074Y133858D01*
X1129024D01*
X1128499Y134383D01*
X1131648Y133858D02*
X1132697D01*
X1132173D01*
Y137007D01*
X1131648Y136482D01*
X1134797Y133334D02*
X1135321Y133858D01*
Y134383D01*
X1134797D01*
Y133858D01*
X1135321D01*
X1134797Y133334D01*
X1134272Y132809D01*
X1139519Y137007D02*
X1137420D01*
Y135433D01*
X1138470Y135957D01*
X1138995D01*
X1139519Y135433D01*
Y134383D01*
X1138995Y133858D01*
X1137945D01*
X1137420Y134383D01*
X1140569Y136482D02*
X1141094Y137007D01*
X1142143D01*
X1142668Y136482D01*
Y134383D01*
X1142143Y133858D01*
X1141094D01*
X1140569Y134383D01*
Y136482D01*
X1143717Y133858D02*
Y135957D01*
X1144242D01*
X1144767Y135433D01*
Y133858D01*
Y135433D01*
X1145292Y135957D01*
X1145817Y135433D01*
Y133858D01*
X1146866D02*
X1147916D01*
X1147391D01*
Y135957D01*
X1146866D01*
X1149490Y133858D02*
X1150539D01*
X1150015D01*
Y137007D01*
X1149490D01*
X1152114Y133858D02*
X1153163Y134908D01*
Y135957D01*
X1152114Y137007D01*
X1100687Y127559D02*
X1102786D01*
X1100687Y119685D02*
X1102786D01*
X1100687Y111811D02*
X1102786D01*
X1100687Y103937D02*
X1102786D01*
X1100687Y96062D02*
X1102786D01*
X1100687Y88188D02*
X1102786D01*
X1100687Y80314D02*
X1102786D01*
X1041780Y149606D02*
X1042830D01*
X1042305D01*
Y152755D01*
X1041780Y152230D01*
X1044929Y149082D02*
X1045453Y149606D01*
Y150131D01*
X1044929D01*
Y149606D01*
X1045453D01*
X1044929Y149082D01*
X1044404Y148557D01*
X1047552Y149606D02*
X1048602D01*
X1048077D01*
Y152755D01*
X1047552Y152230D01*
X1052275Y152755D02*
X1050176D01*
Y151181D01*
X1051226Y151705D01*
X1051750D01*
X1052275Y151181D01*
Y150131D01*
X1051750Y149606D01*
X1050701D01*
X1050176Y150131D01*
X1053325Y152230D02*
X1053850Y152755D01*
X1054899D01*
X1055424Y152230D01*
Y150131D01*
X1054899Y149606D01*
X1053850D01*
X1053325Y150131D01*
Y152230D01*
X1056473Y149606D02*
Y151705D01*
X1056998D01*
X1057523Y151181D01*
Y149606D01*
Y151181D01*
X1058048Y151705D01*
X1058572Y151181D01*
Y149606D01*
X1059622D02*
Y151705D01*
X1060147D01*
X1060672Y151181D01*
Y149606D01*
Y151181D01*
X1061196Y151705D01*
X1061721Y151181D01*
Y149606D01*
X1066969D02*
X1065919Y150656D01*
Y151705D01*
X1066969Y152755D01*
X1070117Y149606D02*
Y152755D01*
X1068543Y151181D01*
X1070642D01*
X1073791Y152755D02*
X1071692D01*
Y151181D01*
X1072741Y151705D01*
X1073266D01*
X1073791Y151181D01*
Y150131D01*
X1073266Y149606D01*
X1072216D01*
X1071692Y150131D01*
X1075365Y149082D02*
X1075890Y149606D01*
Y150131D01*
X1075365D01*
Y149606D01*
X1075890D01*
X1075365Y149082D01*
X1074840Y148557D01*
X1080088Y149606D02*
X1077989D01*
X1080088Y151705D01*
Y152230D01*
X1079563Y152755D01*
X1078514D01*
X1077989Y152230D01*
X1081137D02*
X1081662Y152755D01*
X1082712D01*
X1083236Y152230D01*
Y151705D01*
X1082712Y151181D01*
X1083236Y150656D01*
Y150131D01*
X1082712Y149606D01*
X1081662D01*
X1081137Y150131D01*
Y150656D01*
X1081662Y151181D01*
X1081137Y151705D01*
Y152230D01*
X1081662Y151181D02*
X1082712D01*
X1084286Y149606D02*
Y151705D01*
X1084811D01*
X1085336Y151181D01*
Y149606D01*
Y151181D01*
X1085860Y151705D01*
X1086385Y151181D01*
Y149606D01*
X1087434D02*
X1088484D01*
X1087959D01*
Y151705D01*
X1087434D01*
X1090058Y149606D02*
X1091108D01*
X1090583D01*
Y152755D01*
X1090058D01*
X1092682Y149606D02*
X1093732Y150656D01*
Y151705D01*
X1092682Y152755D01*
X1041780Y144356D02*
X1042305Y144881D01*
X1043354D01*
X1043879Y144356D01*
Y142257D01*
X1043354Y141732D01*
X1042305D01*
X1041780Y142257D01*
Y144356D01*
X1045453Y141208D02*
X1045978Y141732D01*
Y142257D01*
X1045453D01*
Y141732D01*
X1045978D01*
X1045453Y141208D01*
X1044928Y140683D01*
X1048077Y144356D02*
X1048602Y144881D01*
X1049651D01*
X1050176Y144356D01*
Y143831D01*
X1049651Y143307D01*
X1050176Y142782D01*
Y142257D01*
X1049651Y141732D01*
X1048602D01*
X1048077Y142257D01*
Y142782D01*
X1048602Y143307D01*
X1048077Y143831D01*
Y144356D01*
X1048602Y143307D02*
X1049651D01*
X1053325Y144881D02*
X1051226D01*
Y143307D01*
X1052275Y143831D01*
X1052800D01*
X1053325Y143307D01*
Y142257D01*
X1052800Y141732D01*
X1051750D01*
X1051226Y142257D01*
X1054374Y144356D02*
X1054899Y144881D01*
X1055949D01*
X1056473Y144356D01*
Y142257D01*
X1055949Y141732D01*
X1054899D01*
X1054374Y142257D01*
Y144356D01*
X1057523Y141732D02*
Y143831D01*
X1058048D01*
X1058572Y143307D01*
Y141732D01*
Y143307D01*
X1059097Y143831D01*
X1059622Y143307D01*
Y141732D01*
X1060672D02*
Y143831D01*
X1061196D01*
X1061721Y143307D01*
Y141732D01*
Y143307D01*
X1062246Y143831D01*
X1062771Y143307D01*
Y141732D01*
X1068018D02*
X1066969Y142782D01*
Y143831D01*
X1068018Y144881D01*
X1069592Y144356D02*
X1070117Y144881D01*
X1071167D01*
X1071692Y144356D01*
Y143831D01*
X1071167Y143307D01*
X1070642D01*
X1071167D01*
X1071692Y142782D01*
Y142257D01*
X1071167Y141732D01*
X1070117D01*
X1069592Y142257D01*
X1072741Y144356D02*
X1073266Y144881D01*
X1074315D01*
X1074840Y144356D01*
Y143831D01*
X1074315Y143307D01*
X1073791D01*
X1074315D01*
X1074840Y142782D01*
Y142257D01*
X1074315Y141732D01*
X1073266D01*
X1072741Y142257D01*
X1076414Y141208D02*
X1076939Y141732D01*
Y142257D01*
X1076414D01*
Y141732D01*
X1076939D01*
X1076414Y141208D01*
X1075890Y140683D01*
X1080613Y141732D02*
Y144881D01*
X1079038Y143307D01*
X1081137D01*
X1082187Y144881D02*
X1084286D01*
Y144356D01*
X1082187Y142257D01*
Y141732D01*
X1085336D02*
Y143831D01*
X1085860D01*
X1086385Y143307D01*
Y141732D01*
Y143307D01*
X1086910Y143831D01*
X1087434Y143307D01*
Y141732D01*
X1088484D02*
X1089534D01*
X1089009D01*
Y143831D01*
X1088484D01*
X1091108Y141732D02*
X1092157D01*
X1091633D01*
Y144881D01*
X1091108D01*
X1093732Y141732D02*
X1094781Y142782D01*
Y143831D01*
X1093732Y144881D01*
X1041780Y133858D02*
X1042830D01*
X1042305D01*
Y137007D01*
X1041780Y136482D01*
X1044929Y133334D02*
X1045453Y133858D01*
Y134383D01*
X1044929D01*
Y133858D01*
X1045453D01*
X1044929Y133334D01*
X1044404Y132809D01*
X1049651Y137007D02*
X1047552D01*
Y135433D01*
X1048602Y135957D01*
X1049127D01*
X1049651Y135433D01*
Y134383D01*
X1049127Y133858D01*
X1048077D01*
X1047552Y134383D01*
X1050701Y136482D02*
X1051226Y137007D01*
X1052275D01*
X1052800Y136482D01*
Y134383D01*
X1052275Y133858D01*
X1051226D01*
X1050701Y134383D01*
Y136482D01*
X1053850D02*
X1054374Y137007D01*
X1055424D01*
X1055949Y136482D01*
Y134383D01*
X1055424Y133858D01*
X1054374D01*
X1053850Y134383D01*
Y136482D01*
X1056998Y133858D02*
Y135957D01*
X1057523D01*
X1058048Y135433D01*
Y133858D01*
Y135433D01*
X1058572Y135957D01*
X1059097Y135433D01*
Y133858D01*
X1060147D02*
Y135957D01*
X1060672D01*
X1061196Y135433D01*
Y133858D01*
Y135433D01*
X1061721Y135957D01*
X1062246Y135433D01*
Y133858D01*
X1067493D02*
X1066444Y134908D01*
Y135957D01*
X1067493Y137007D01*
X1071167D02*
X1069068D01*
Y135433D01*
X1070117Y135957D01*
X1070642D01*
X1071167Y135433D01*
Y134383D01*
X1070642Y133858D01*
X1069592D01*
X1069068Y134383D01*
X1072216D02*
X1072741Y133858D01*
X1073791D01*
X1074315Y134383D01*
Y136482D01*
X1073791Y137007D01*
X1072741D01*
X1072216Y136482D01*
Y135957D01*
X1072741Y135433D01*
X1074315D01*
X1075890Y133334D02*
X1076414Y133858D01*
Y134383D01*
X1075890D01*
Y133858D01*
X1076414D01*
X1075890Y133334D01*
X1075365Y132809D01*
X1078514Y136482D02*
X1079038Y137007D01*
X1080088D01*
X1080613Y136482D01*
Y134383D01*
X1080088Y133858D01*
X1079038D01*
X1078514Y134383D01*
Y136482D01*
X1083761Y137007D02*
X1082712Y136482D01*
X1081662Y135433D01*
Y134383D01*
X1082187Y133858D01*
X1083236D01*
X1083761Y134383D01*
Y134908D01*
X1083236Y135433D01*
X1081662D01*
X1084811Y133858D02*
Y135957D01*
X1085336D01*
X1085860Y135433D01*
Y133858D01*
Y135433D01*
X1086385Y135957D01*
X1086910Y135433D01*
Y133858D01*
X1087959D02*
X1089009D01*
X1088484D01*
Y135957D01*
X1087959D01*
X1090583Y133858D02*
X1091633D01*
X1091108D01*
Y137007D01*
X1090583D01*
X1093207Y133858D02*
X1094256Y134908D01*
Y135957D01*
X1093207Y137007D01*
X1041780Y127559D02*
X1043879D01*
X1041780Y119685D02*
X1043879D01*
X1041780Y111811D02*
X1043879D01*
X1041780Y103937D02*
X1043879D01*
X1041780Y96062D02*
X1043879D01*
X1041780Y88188D02*
X1043879D01*
X1041780Y80314D02*
X1043879D01*
X795841Y151705D02*
Y149606D01*
Y150656D01*
X796365Y151181D01*
X796890Y151705D01*
X797415D01*
X798989Y149606D02*
X800039D01*
X799514D01*
Y152755D01*
X798989Y152230D01*
X803712Y152755D02*
X801613D01*
Y151181D01*
X802662Y151705D01*
X803187D01*
X803712Y151181D01*
Y150131D01*
X803187Y149606D01*
X802138D01*
X801613Y150131D01*
X806861Y152755D02*
X804762D01*
Y151181D01*
X805811Y151705D01*
X806336D01*
X806861Y151181D01*
Y150131D01*
X806336Y149606D01*
X805286D01*
X804762Y150131D01*
X807910Y149082D02*
X810009D01*
X811059Y150131D02*
X811584Y149606D01*
X812633D01*
X813158Y150131D01*
Y152230D01*
X812633Y152755D01*
X811584D01*
X811059Y152230D01*
Y151705D01*
X811584Y151181D01*
X813158D01*
X814207Y152230D02*
X814732Y152755D01*
X815782D01*
X816306Y152230D01*
Y150131D01*
X815782Y149606D01*
X814732D01*
X814207Y150131D01*
Y152230D01*
X817356Y152755D02*
Y149606D01*
Y151181D01*
X817881Y151705D01*
X818930D01*
X819455Y151181D01*
Y149606D01*
X822604Y152755D02*
X820504D01*
Y151181D01*
X821554Y151705D01*
X822079D01*
X822604Y151181D01*
Y150131D01*
X822079Y149606D01*
X821029D01*
X820504Y150131D01*
X823653Y152230D02*
X824178Y152755D01*
X825227D01*
X825752Y152230D01*
Y150131D01*
X825227Y149606D01*
X824178D01*
X823653Y150131D01*
Y152230D01*
X826802Y149082D02*
X828901D01*
X829950Y149606D02*
X831000D01*
X830475D01*
Y152755D01*
X829950Y152230D01*
X832574Y149606D02*
X833624D01*
X833099D01*
Y152755D01*
X832574Y152230D01*
X837297Y152755D02*
X835198D01*
Y151181D01*
X836247Y151705D01*
X836772D01*
X837297Y151181D01*
Y150131D01*
X836772Y149606D01*
X835723D01*
X835198Y150131D01*
X838346Y151705D02*
Y149606D01*
Y150656D01*
X838871Y151181D01*
X839396Y151705D01*
X839921D01*
X841495Y149606D02*
X842545D01*
X842020D01*
Y152755D01*
X841495Y152230D01*
X844119D02*
X844644Y152755D01*
X845693D01*
X846218Y152230D01*
Y150131D01*
X845693Y149606D01*
X844644D01*
X844119Y150131D01*
Y152230D01*
X847268D02*
X847792Y152755D01*
X848842D01*
X849367Y152230D01*
Y150131D01*
X848842Y149606D01*
X847792D01*
X847268Y150131D01*
Y152230D01*
X795841Y143831D02*
Y141732D01*
Y142782D01*
X796365Y143307D01*
X796890Y143831D01*
X797415D01*
X798989Y141732D02*
X800039D01*
X799514D01*
Y144881D01*
X798989Y144356D01*
X803712Y141732D02*
X801613D01*
X803712Y143831D01*
Y144356D01*
X803187Y144881D01*
X802138D01*
X801613Y144356D01*
X806861Y144881D02*
X804762D01*
Y143307D01*
X805811Y143831D01*
X806336D01*
X806861Y143307D01*
Y142257D01*
X806336Y141732D01*
X805286D01*
X804762Y142257D01*
X807910Y141208D02*
X810009D01*
X811059Y142257D02*
X811584Y141732D01*
X812633D01*
X813158Y142257D01*
Y144356D01*
X812633Y144881D01*
X811584D01*
X811059Y144356D01*
Y143831D01*
X811584Y143307D01*
X813158D01*
X816306Y144881D02*
X814207D01*
Y143307D01*
X815257Y143831D01*
X815782D01*
X816306Y143307D01*
Y142257D01*
X815782Y141732D01*
X814732D01*
X814207Y142257D01*
X817356Y144881D02*
Y141732D01*
Y143307D01*
X817881Y143831D01*
X818930D01*
X819455Y143307D01*
Y141732D01*
X822604Y144881D02*
X820504D01*
Y143307D01*
X821554Y143831D01*
X822079D01*
X822604Y143307D01*
Y142257D01*
X822079Y141732D01*
X821029D01*
X820504Y142257D01*
X825752Y144881D02*
X823653D01*
Y143307D01*
X824703Y143831D01*
X825227D01*
X825752Y143307D01*
Y142257D01*
X825227Y141732D01*
X824178D01*
X823653Y142257D01*
X826802Y141208D02*
X828901D01*
X829950Y144356D02*
X830475Y144881D01*
X831525D01*
X832049Y144356D01*
Y143831D01*
X831525Y143307D01*
X832049Y142782D01*
Y142257D01*
X831525Y141732D01*
X830475D01*
X829950Y142257D01*
Y142782D01*
X830475Y143307D01*
X829950Y143831D01*
Y144356D01*
X830475Y143307D02*
X831525D01*
X835198Y144881D02*
X833099D01*
Y143307D01*
X834148Y143831D01*
X834673D01*
X835198Y143307D01*
Y142257D01*
X834673Y141732D01*
X833624D01*
X833099Y142257D01*
X836247Y143831D02*
Y141732D01*
Y142782D01*
X836772Y143307D01*
X837297Y143831D01*
X837822D01*
X839396Y141732D02*
X840446D01*
X839921D01*
Y144881D01*
X839396Y144356D01*
X842020D02*
X842545Y144881D01*
X843594D01*
X844119Y144356D01*
Y142257D01*
X843594Y141732D01*
X842545D01*
X842020Y142257D01*
Y144356D01*
X845168D02*
X845693Y144881D01*
X846743D01*
X847268Y144356D01*
Y142257D01*
X846743Y141732D01*
X845693D01*
X845168Y142257D01*
Y144356D01*
X795841Y135957D02*
Y133858D01*
Y134908D01*
X796365Y135433D01*
X796890Y135957D01*
X797415D01*
X801088Y133858D02*
X798989D01*
X801088Y135957D01*
Y136482D01*
X800563Y137007D01*
X799514D01*
X798989Y136482D01*
X804237Y133858D02*
X802138D01*
X804237Y135957D01*
Y136482D01*
X803712Y137007D01*
X802662D01*
X802138Y136482D01*
X805286D02*
X805811Y137007D01*
X806861D01*
X807385Y136482D01*
Y134383D01*
X806861Y133858D01*
X805811D01*
X805286Y134383D01*
Y136482D01*
X808435Y133334D02*
X810534D01*
X811584Y133858D02*
X812633D01*
X812108D01*
Y137007D01*
X811584Y136482D01*
X816306Y133858D02*
X814207D01*
X816306Y135957D01*
Y136482D01*
X815782Y137007D01*
X814732D01*
X814207Y136482D01*
X817356D02*
X817881Y137007D01*
X818930D01*
X819455Y136482D01*
Y134383D01*
X818930Y133858D01*
X817881D01*
X817356Y134383D01*
Y136482D01*
X820504Y137007D02*
Y133858D01*
Y135433D01*
X821029Y135957D01*
X822079D01*
X822604Y135433D01*
Y133858D01*
X823653Y137007D02*
X825752D01*
Y136482D01*
X823653Y134383D01*
Y133858D01*
X826802Y136482D02*
X827326Y137007D01*
X828376D01*
X828901Y136482D01*
Y134383D01*
X828376Y133858D01*
X827326D01*
X826802Y134383D01*
Y136482D01*
X829950Y133334D02*
X832049D01*
X833099Y133858D02*
X834148D01*
X833624D01*
Y137007D01*
X833099Y136482D01*
X837822Y137007D02*
X835723D01*
Y135433D01*
X836772Y135957D01*
X837297D01*
X837822Y135433D01*
Y134383D01*
X837297Y133858D01*
X836247D01*
X835723Y134383D01*
X838871Y136482D02*
X839396Y137007D01*
X840446D01*
X840970Y136482D01*
Y134383D01*
X840446Y133858D01*
X839396D01*
X838871Y134383D01*
Y136482D01*
X842020Y135957D02*
Y133858D01*
Y134908D01*
X842545Y135433D01*
X843069Y135957D01*
X843594D01*
X847268Y137007D02*
X845168D01*
Y135433D01*
X846218Y135957D01*
X846743D01*
X847268Y135433D01*
Y134383D01*
X846743Y133858D01*
X845693D01*
X845168Y134383D01*
X848317Y136482D02*
X848842Y137007D01*
X849891D01*
X850416Y136482D01*
Y134383D01*
X849891Y133858D01*
X848842D01*
X848317Y134383D01*
Y136482D01*
X797940Y128083D02*
X796365D01*
X795841Y127559D01*
Y126509D01*
X796365Y125984D01*
X797940D01*
X798989Y128608D02*
X799514Y129133D01*
X800563D01*
X801088Y128608D01*
Y128083D01*
X800563Y127559D01*
X800039D01*
X800563D01*
X801088Y127034D01*
Y126509D01*
X800563Y125984D01*
X799514D01*
X798989Y126509D01*
X804237Y129133D02*
X802138D01*
Y127559D01*
X803187Y128083D01*
X803712D01*
X804237Y127559D01*
Y126509D01*
X803712Y125984D01*
X802662D01*
X802138Y126509D01*
X805286Y128608D02*
X805811Y129133D01*
X806861D01*
X807385Y128608D01*
Y126509D01*
X806861Y125984D01*
X805811D01*
X805286Y126509D01*
Y128608D01*
X808435Y129133D02*
Y125984D01*
Y127559D01*
X808960Y128083D01*
X810009D01*
X810534Y127559D01*
Y125984D01*
X813682D02*
X811584D01*
X813682Y128083D01*
Y128608D01*
X813158Y129133D01*
X812108D01*
X811584Y128608D01*
X816306Y125984D02*
Y129133D01*
X814732Y127559D01*
X816831D01*
X817881Y128608D02*
X818405Y129133D01*
X819455D01*
X819980Y128608D01*
Y126509D01*
X819455Y125984D01*
X818405D01*
X817881Y126509D01*
Y128608D01*
X797940Y120209D02*
X796365D01*
X795841Y119685D01*
Y118635D01*
X796365Y118110D01*
X797940D01*
X798989Y121259D02*
X801088D01*
Y120734D01*
X798989Y118635D01*
Y118110D01*
X802138Y120734D02*
X802662Y121259D01*
X803712D01*
X804237Y120734D01*
Y118635D01*
X803712Y118110D01*
X802662D01*
X802138Y118635D01*
Y120734D01*
X805286D02*
X805811Y121259D01*
X806861D01*
X807385Y120734D01*
Y118635D01*
X806861Y118110D01*
X805811D01*
X805286Y118635D01*
Y120734D01*
X808435Y121259D02*
Y118110D01*
Y119685D01*
X808960Y120209D01*
X810009D01*
X810534Y119685D01*
Y118110D01*
X813158D02*
Y121259D01*
X811584Y119685D01*
X813682D01*
X814732Y120734D02*
X815257Y121259D01*
X816306D01*
X816831Y120734D01*
Y120209D01*
X816306Y119685D01*
X816831Y119160D01*
Y118635D01*
X816306Y118110D01*
X815257D01*
X814732Y118635D01*
Y119160D01*
X815257Y119685D01*
X814732Y120209D01*
Y120734D01*
X815257Y119685D02*
X816306D01*
X817881Y120734D02*
X818405Y121259D01*
X819455D01*
X819980Y120734D01*
Y118635D01*
X819455Y118110D01*
X818405D01*
X817881Y118635D01*
Y120734D01*
X797940Y112335D02*
X796365D01*
X795841Y111811D01*
Y110761D01*
X796365Y110236D01*
X797940D01*
X798989Y113385D02*
X801088D01*
Y112860D01*
X798989Y110761D01*
Y110236D01*
X802138Y112860D02*
X802662Y113385D01*
X803712D01*
X804237Y112860D01*
Y110761D01*
X803712Y110236D01*
X802662D01*
X802138Y110761D01*
Y112860D01*
X805286Y113385D02*
Y110236D01*
Y111811D01*
X805811Y112335D01*
X806861D01*
X807385Y111811D01*
Y110236D01*
X808435D02*
Y112335D01*
X810009D01*
X810534Y111811D01*
Y110236D01*
X811584Y113385D02*
X813682D01*
Y112860D01*
X811584Y110761D01*
Y110236D01*
X814732Y112860D02*
X815257Y113385D01*
X816306D01*
X816831Y112860D01*
Y110761D01*
X816306Y110236D01*
X815257D01*
X814732Y110761D01*
Y112860D01*
X796890Y102362D02*
X795841Y103412D01*
Y104461D01*
X796890Y105511D01*
X798464Y102362D02*
Y105511D01*
X799514Y104461D01*
X800563Y105511D01*
Y102362D01*
X801613D02*
X802662D01*
X802138D01*
Y104461D01*
X801613D01*
X804237D02*
X806336Y102362D01*
X805286Y103412D01*
X806336Y104461D01*
X804237Y102362D01*
X808960D02*
X807910D01*
X807385Y102887D01*
Y103937D01*
X807910Y104461D01*
X808960D01*
X809484Y103937D01*
Y103412D01*
X807385D01*
X812633Y105511D02*
Y102362D01*
X811059D01*
X810534Y102887D01*
Y103937D01*
X811059Y104461D01*
X812633D01*
X813682Y102362D02*
X814732Y103412D01*
Y104461D01*
X813682Y105511D01*
X796890Y94488D02*
X795841Y95538D01*
Y96587D01*
X796890Y97637D01*
X798464Y94488D02*
Y97637D01*
X799514Y96587D01*
X800563Y97637D01*
Y94488D01*
X801613D02*
X802662D01*
X802138D01*
Y96587D01*
X801613D01*
X804237D02*
X806336Y94488D01*
X805286Y95538D01*
X806336Y96587D01*
X804237Y94488D01*
X808960D02*
X807910D01*
X807385Y95013D01*
Y96062D01*
X807910Y96587D01*
X808960D01*
X809484Y96062D01*
Y95538D01*
X807385D01*
X812633Y97637D02*
Y94488D01*
X811059D01*
X810534Y95013D01*
Y96062D01*
X811059Y96587D01*
X812633D01*
X813682Y94488D02*
X814732Y95538D01*
Y96587D01*
X813682Y97637D01*
X796890Y86614D02*
X795841Y87664D01*
Y88713D01*
X796890Y89763D01*
X798464Y86614D02*
Y89763D01*
X799514Y88713D01*
X800563Y89763D01*
Y86614D01*
X801613D02*
X802662D01*
X802138D01*
Y88713D01*
X801613D01*
X804237D02*
X806336Y86614D01*
X805286Y87664D01*
X806336Y88713D01*
X804237Y86614D01*
X808960D02*
X807910D01*
X807385Y87139D01*
Y88188D01*
X807910Y88713D01*
X808960D01*
X809484Y88188D01*
Y87664D01*
X807385D01*
X812633Y89763D02*
Y86614D01*
X811059D01*
X810534Y87139D01*
Y88188D01*
X811059Y88713D01*
X812633D01*
X813682Y86614D02*
X814732Y87664D01*
Y88713D01*
X813682Y89763D01*
X795841Y80839D02*
X796890Y78740D01*
X797940Y80839D01*
X798989Y81889D02*
X801088D01*
Y81364D01*
X798989Y79265D01*
Y78740D01*
X802138Y81364D02*
X802662Y81889D01*
X803712D01*
X804237Y81364D01*
Y79265D01*
X803712Y78740D01*
X802662D01*
X802138Y79265D01*
Y81364D01*
X805286Y81889D02*
Y78740D01*
Y80314D01*
X805811Y80839D01*
X806861D01*
X807385Y80314D01*
Y78740D01*
X808435Y81364D02*
X808960Y81889D01*
X810009D01*
X810534Y81364D01*
Y80839D01*
X810009Y80314D01*
X809484D01*
X810009D01*
X810534Y79790D01*
Y79265D01*
X810009Y78740D01*
X808960D01*
X808435Y79265D01*
X811584Y81364D02*
X812108Y81889D01*
X813158D01*
X813682Y81364D01*
Y79265D01*
X813158Y78740D01*
X812108D01*
X811584Y79265D01*
Y81364D01*
X814732Y78740D02*
Y80839D01*
X815257D01*
X815782Y80314D01*
Y78740D01*
Y80314D01*
X816306Y80839D01*
X816831Y80314D01*
Y78740D01*
X819980Y81889D02*
X818930Y81364D01*
X817881Y80314D01*
Y79265D01*
X818405Y78740D01*
X819455D01*
X819980Y79265D01*
Y79790D01*
X819455Y80314D01*
X817881D01*
X821029Y81364D02*
X821554Y81889D01*
X822604D01*
X823128Y81364D01*
Y79265D01*
X822604Y78740D01*
X821554D01*
X821029Y79265D01*
Y81364D01*
X738508Y149606D02*
Y152755D01*
X740082D01*
X740607Y152230D01*
Y151181D01*
X740082Y150656D01*
X738508D01*
X739558D02*
X740607Y149606D01*
X742181D02*
X743231D01*
X743756Y150131D01*
Y151181D01*
X743231Y151705D01*
X742181D01*
X741657Y151181D01*
Y150131D01*
X742181Y149606D01*
X744805Y151705D02*
Y150131D01*
X745330Y149606D01*
X746904D01*
Y151705D01*
X747954Y149606D02*
Y151705D01*
X749528D01*
X750053Y151181D01*
Y149606D01*
X753201Y152755D02*
Y149606D01*
X751627D01*
X751102Y150131D01*
Y151181D01*
X751627Y151705D01*
X753201D01*
X755825Y149606D02*
X754776D01*
X754251Y150131D01*
Y151181D01*
X754776Y151705D01*
X755825D01*
X756350Y151181D01*
Y150656D01*
X754251D01*
X759499Y152755D02*
Y149606D01*
X757924D01*
X757400Y150131D01*
Y151181D01*
X757924Y151705D01*
X759499D01*
X738508Y141732D02*
Y144881D01*
X740082D01*
X740607Y144356D01*
Y143307D01*
X740082Y142782D01*
X738508D01*
X739558D02*
X740607Y141732D01*
X742181D02*
X743231D01*
X743756Y142257D01*
Y143307D01*
X743231Y143831D01*
X742181D01*
X741657Y143307D01*
Y142257D01*
X742181Y141732D01*
X744805Y143831D02*
Y142257D01*
X745330Y141732D01*
X746904D01*
Y143831D01*
X747954Y141732D02*
Y143831D01*
X749528D01*
X750053Y143307D01*
Y141732D01*
X753201Y144881D02*
Y141732D01*
X751627D01*
X751102Y142257D01*
Y143307D01*
X751627Y143831D01*
X753201D01*
X755825Y141732D02*
X754776D01*
X754251Y142257D01*
Y143307D01*
X754776Y143831D01*
X755825D01*
X756350Y143307D01*
Y142782D01*
X754251D01*
X759499Y144881D02*
Y141732D01*
X757924D01*
X757400Y142257D01*
Y143307D01*
X757924Y143831D01*
X759499D01*
X738508Y133858D02*
Y137007D01*
X740082D01*
X740607Y136482D01*
Y135433D01*
X740082Y134908D01*
X738508D01*
X739558D02*
X740607Y133858D01*
X742181D02*
X743231D01*
X743756Y134383D01*
Y135433D01*
X743231Y135957D01*
X742181D01*
X741657Y135433D01*
Y134383D01*
X742181Y133858D01*
X744805Y135957D02*
Y134383D01*
X745330Y133858D01*
X746904D01*
Y135957D01*
X747954Y133858D02*
Y135957D01*
X749528D01*
X750053Y135433D01*
Y133858D01*
X753201Y137007D02*
Y133858D01*
X751627D01*
X751102Y134383D01*
Y135433D01*
X751627Y135957D01*
X753201D01*
X755825Y133858D02*
X754776D01*
X754251Y134383D01*
Y135433D01*
X754776Y135957D01*
X755825D01*
X756350Y135433D01*
Y134908D01*
X754251D01*
X759499Y137007D02*
Y133858D01*
X757924D01*
X757400Y134383D01*
Y135433D01*
X757924Y135957D01*
X759499D01*
X763697Y133858D02*
Y137007D01*
X765271D01*
X765796Y136482D01*
Y135433D01*
X765271Y134908D01*
X763697D01*
X764746D02*
X765796Y133858D01*
X768420D02*
X767370D01*
X766845Y134383D01*
Y135433D01*
X767370Y135957D01*
X768420D01*
X768944Y135433D01*
Y134908D01*
X766845D01*
X772093Y135957D02*
X770519D01*
X769994Y135433D01*
Y134383D01*
X770519Y133858D01*
X772093D01*
X773667Y136482D02*
Y135957D01*
X773143D01*
X774192D01*
X773667D01*
Y134383D01*
X774192Y133858D01*
X776291Y135957D02*
X777341D01*
X777865Y135433D01*
Y133858D01*
X776291D01*
X775766Y134383D01*
X776291Y134908D01*
X777865D01*
X778915Y133858D02*
Y135957D01*
X780489D01*
X781014Y135433D01*
Y133858D01*
X783113Y132809D02*
X783638D01*
X784163Y133334D01*
Y135957D01*
X782588D01*
X782064Y135433D01*
Y134383D01*
X782588Y133858D01*
X784163D01*
X785212D02*
X786262D01*
X785737D01*
Y137007D01*
X785212D01*
X789410Y133858D02*
X788361D01*
X787836Y134383D01*
Y135433D01*
X788361Y135957D01*
X789410D01*
X789935Y135433D01*
Y134908D01*
X787836D01*
X738508Y125984D02*
Y129133D01*
X740082D01*
X740607Y128608D01*
Y127559D01*
X740082Y127034D01*
X738508D01*
X739558D02*
X740607Y125984D01*
X742181D02*
X743231D01*
X743756Y126509D01*
Y127559D01*
X743231Y128083D01*
X742181D01*
X741657Y127559D01*
Y126509D01*
X742181Y125984D01*
X744805Y128083D02*
Y126509D01*
X745330Y125984D01*
X746904D01*
Y128083D01*
X747954Y125984D02*
Y128083D01*
X749528D01*
X750053Y127559D01*
Y125984D01*
X753201Y129133D02*
Y125984D01*
X751627D01*
X751102Y126509D01*
Y127559D01*
X751627Y128083D01*
X753201D01*
X755825Y125984D02*
X754776D01*
X754251Y126509D01*
Y127559D01*
X754776Y128083D01*
X755825D01*
X756350Y127559D01*
Y127034D01*
X754251D01*
X759499Y129133D02*
Y125984D01*
X757924D01*
X757400Y126509D01*
Y127559D01*
X757924Y128083D01*
X759499D01*
X738508Y118110D02*
Y121259D01*
X740082D01*
X740607Y120734D01*
Y119685D01*
X740082Y119160D01*
X738508D01*
X739558D02*
X740607Y118110D01*
X742181D02*
X743231D01*
X743756Y118635D01*
Y119685D01*
X743231Y120209D01*
X742181D01*
X741657Y119685D01*
Y118635D01*
X742181Y118110D01*
X744805Y120209D02*
Y118635D01*
X745330Y118110D01*
X746904D01*
Y120209D01*
X747954Y118110D02*
Y120209D01*
X749528D01*
X750053Y119685D01*
Y118110D01*
X753201Y121259D02*
Y118110D01*
X751627D01*
X751102Y118635D01*
Y119685D01*
X751627Y120209D01*
X753201D01*
X755825Y118110D02*
X754776D01*
X754251Y118635D01*
Y119685D01*
X754776Y120209D01*
X755825D01*
X756350Y119685D01*
Y119160D01*
X754251D01*
X759499Y121259D02*
Y118110D01*
X757924D01*
X757400Y118635D01*
Y119685D01*
X757924Y120209D01*
X759499D01*
X738508Y110236D02*
Y113385D01*
X740082D01*
X740607Y112860D01*
Y111811D01*
X740082Y111286D01*
X738508D01*
X739558D02*
X740607Y110236D01*
X742181D02*
X743231D01*
X743756Y110761D01*
Y111811D01*
X743231Y112335D01*
X742181D01*
X741657Y111811D01*
Y110761D01*
X742181Y110236D01*
X744805Y112335D02*
Y110761D01*
X745330Y110236D01*
X746904D01*
Y112335D01*
X747954Y110236D02*
Y112335D01*
X749528D01*
X750053Y111811D01*
Y110236D01*
X753201Y113385D02*
Y110236D01*
X751627D01*
X751102Y110761D01*
Y111811D01*
X751627Y112335D01*
X753201D01*
X755825Y110236D02*
X754776D01*
X754251Y110761D01*
Y111811D01*
X754776Y112335D01*
X755825D01*
X756350Y111811D01*
Y111286D01*
X754251D01*
X759499Y113385D02*
Y110236D01*
X757924D01*
X757400Y110761D01*
Y111811D01*
X757924Y112335D01*
X759499D01*
X739558Y102362D02*
X738508Y103412D01*
Y104461D01*
X739558Y105511D01*
X741132Y102362D02*
Y105511D01*
X742181Y104461D01*
X743231Y105511D01*
Y102362D01*
X744280D02*
X745330D01*
X744805D01*
Y104461D01*
X744280D01*
X746904D02*
X749003Y102362D01*
X747954Y103412D01*
X749003Y104461D01*
X746904Y102362D01*
X751627D02*
X750578D01*
X750053Y102887D01*
Y103937D01*
X750578Y104461D01*
X751627D01*
X752152Y103937D01*
Y103412D01*
X750053D01*
X755301Y105511D02*
Y102362D01*
X753726D01*
X753201Y102887D01*
Y103937D01*
X753726Y104461D01*
X755301D01*
X756350Y102362D02*
X757400Y103412D01*
Y104461D01*
X756350Y105511D01*
X739558Y94488D02*
X738508Y95538D01*
Y96587D01*
X739558Y97637D01*
X741132Y94488D02*
Y97637D01*
X742181Y96587D01*
X743231Y97637D01*
Y94488D01*
X744280D02*
X745330D01*
X744805D01*
Y96587D01*
X744280D01*
X746904D02*
X749003Y94488D01*
X747954Y95538D01*
X749003Y96587D01*
X746904Y94488D01*
X751627D02*
X750578D01*
X750053Y95013D01*
Y96062D01*
X750578Y96587D01*
X751627D01*
X752152Y96062D01*
Y95538D01*
X750053D01*
X755301Y97637D02*
Y94488D01*
X753726D01*
X753201Y95013D01*
Y96062D01*
X753726Y96587D01*
X755301D01*
X756350Y94488D02*
X757400Y95538D01*
Y96587D01*
X756350Y97637D01*
X739558Y86614D02*
X738508Y87664D01*
Y88713D01*
X739558Y89763D01*
X741132Y86614D02*
Y89763D01*
X742181Y88713D01*
X743231Y89763D01*
Y86614D01*
X744280D02*
X745330D01*
X744805D01*
Y88713D01*
X744280D01*
X746904D02*
X749003Y86614D01*
X747954Y87664D01*
X749003Y88713D01*
X746904Y86614D01*
X751627D02*
X750578D01*
X750053Y87139D01*
Y88188D01*
X750578Y88713D01*
X751627D01*
X752152Y88188D01*
Y87664D01*
X750053D01*
X755301Y89763D02*
Y86614D01*
X753726D01*
X753201Y87139D01*
Y88188D01*
X753726Y88713D01*
X755301D01*
X756350Y86614D02*
X757400Y87664D01*
Y88713D01*
X756350Y89763D01*
X738508Y78740D02*
Y81889D01*
X740082D01*
X740607Y81364D01*
Y80314D01*
X740082Y79790D01*
X738508D01*
X739558D02*
X740607Y78740D01*
X742181D02*
X743231D01*
X743756Y79265D01*
Y80314D01*
X743231Y80839D01*
X742181D01*
X741657Y80314D01*
Y79265D01*
X742181Y78740D01*
X744805Y80839D02*
Y79265D01*
X745330Y78740D01*
X746904D01*
Y80839D01*
X747954Y78740D02*
Y80839D01*
X749528D01*
X750053Y80314D01*
Y78740D01*
X753201Y81889D02*
Y78740D01*
X751627D01*
X751102Y79265D01*
Y80314D01*
X751627Y80839D01*
X753201D01*
X755825Y78740D02*
X754776D01*
X754251Y79265D01*
Y80314D01*
X754776Y80839D01*
X755825D01*
X756350Y80314D01*
Y79790D01*
X754251D01*
X759499Y81889D02*
Y78740D01*
X757924D01*
X757400Y79265D01*
Y80314D01*
X757924Y80839D01*
X759499D01*
X707335Y149606D02*
Y152755D01*
X708909D01*
X709434Y152230D01*
Y151181D01*
X708909Y150656D01*
X707335D01*
X711008Y151705D02*
X712058D01*
X712582Y151181D01*
Y149606D01*
X711008D01*
X710484Y150131D01*
X711008Y150656D01*
X712582D01*
X715731Y152755D02*
Y149606D01*
X714157D01*
X713632Y150131D01*
Y151181D01*
X714157Y151705D01*
X715731D01*
X707335Y141732D02*
Y144881D01*
X708909D01*
X709434Y144356D01*
Y143307D01*
X708909Y142782D01*
X707335D01*
X711008Y143831D02*
X712058D01*
X712582Y143307D01*
Y141732D01*
X711008D01*
X710484Y142257D01*
X711008Y142782D01*
X712582D01*
X715731Y144881D02*
Y141732D01*
X714157D01*
X713632Y142257D01*
Y143307D01*
X714157Y143831D01*
X715731D01*
X707335Y133858D02*
Y137007D01*
X708909D01*
X709434Y136482D01*
Y135433D01*
X708909Y134908D01*
X707335D01*
X711008Y135957D02*
X712058D01*
X712582Y135433D01*
Y133858D01*
X711008D01*
X710484Y134383D01*
X711008Y134908D01*
X712582D01*
X715731Y137007D02*
Y133858D01*
X714157D01*
X713632Y134383D01*
Y135433D01*
X714157Y135957D01*
X715731D01*
X707335Y125984D02*
Y129133D01*
X708909D01*
X709434Y128608D01*
Y127559D01*
X708909Y127034D01*
X707335D01*
X711008Y128083D02*
X712058D01*
X712582Y127559D01*
Y125984D01*
X711008D01*
X710484Y126509D01*
X711008Y127034D01*
X712582D01*
X715731Y129133D02*
Y125984D01*
X714157D01*
X713632Y126509D01*
Y127559D01*
X714157Y128083D01*
X715731D01*
X707335Y118110D02*
Y121259D01*
X708909D01*
X709434Y120734D01*
Y119685D01*
X708909Y119160D01*
X707335D01*
X711008Y120209D02*
X712058D01*
X712582Y119685D01*
Y118110D01*
X711008D01*
X710484Y118635D01*
X711008Y119160D01*
X712582D01*
X715731Y121259D02*
Y118110D01*
X714157D01*
X713632Y118635D01*
Y119685D01*
X714157Y120209D01*
X715731D01*
X707335Y110236D02*
Y113385D01*
X708909D01*
X709434Y112860D01*
Y111811D01*
X708909Y111286D01*
X707335D01*
X711008Y112335D02*
X712058D01*
X712582Y111811D01*
Y110236D01*
X711008D01*
X710484Y110761D01*
X711008Y111286D01*
X712582D01*
X715731Y113385D02*
Y110236D01*
X714157D01*
X713632Y110761D01*
Y111811D01*
X714157Y112335D01*
X715731D01*
X707335Y102362D02*
Y105511D01*
X708909D01*
X709434Y104986D01*
Y103937D01*
X708909Y103412D01*
X707335D01*
X711008Y104461D02*
X712058D01*
X712582Y103937D01*
Y102362D01*
X711008D01*
X710484Y102887D01*
X711008Y103412D01*
X712582D01*
X715731Y105511D02*
Y102362D01*
X714157D01*
X713632Y102887D01*
Y103937D01*
X714157Y104461D01*
X715731D01*
X707335Y94488D02*
Y97637D01*
X708909D01*
X709434Y97112D01*
Y96062D01*
X708909Y95538D01*
X707335D01*
X711008Y96587D02*
X712058D01*
X712582Y96062D01*
Y94488D01*
X711008D01*
X710484Y95013D01*
X711008Y95538D01*
X712582D01*
X715731Y97637D02*
Y94488D01*
X714157D01*
X713632Y95013D01*
Y96062D01*
X714157Y96587D01*
X715731D01*
X707335Y86614D02*
Y89763D01*
X708909D01*
X709434Y89238D01*
Y88188D01*
X708909Y87664D01*
X707335D01*
X711008Y88713D02*
X712058D01*
X712582Y88188D01*
Y86614D01*
X711008D01*
X710484Y87139D01*
X711008Y87664D01*
X712582D01*
X715731Y89763D02*
Y86614D01*
X714157D01*
X713632Y87139D01*
Y88188D01*
X714157Y88713D01*
X715731D01*
X707335Y81889D02*
Y79790D01*
X708384Y78740D01*
X709434Y79790D01*
Y81889D01*
X710484Y78740D02*
X711533D01*
X711008D01*
Y80839D01*
X710484D01*
X713632D02*
X714682D01*
X715206Y80314D01*
Y78740D01*
X713632D01*
X713107Y79265D01*
X713632Y79790D01*
X715206D01*
X628487Y152755D02*
X630586D01*
X629537D01*
Y149606D01*
X632160D02*
X633210D01*
X633735Y150131D01*
Y151181D01*
X633210Y151705D01*
X632160D01*
X631636Y151181D01*
Y150131D01*
X632160Y149606D01*
X634784Y148557D02*
Y151705D01*
X636358D01*
X636883Y151181D01*
Y150131D01*
X636358Y149606D01*
X634784D01*
X641081Y152755D02*
Y149606D01*
X643181D01*
X644755Y151705D02*
X645804D01*
X646329Y151181D01*
Y149606D01*
X644755D01*
X644230Y150131D01*
X644755Y150656D01*
X646329D01*
X647379Y151705D02*
Y150131D01*
X647903Y149606D01*
X649478D01*
Y149082D01*
X648953Y148557D01*
X648428D01*
X649478Y149606D02*
Y151705D01*
X652102Y149606D02*
X651052D01*
X650527Y150131D01*
Y151181D01*
X651052Y151705D01*
X652102D01*
X652626Y151181D01*
Y150656D01*
X650527D01*
X653676Y151705D02*
Y149606D01*
Y150656D01*
X654201Y151181D01*
X654725Y151705D01*
X655250D01*
X659973Y151181D02*
X662072D01*
X666270Y152755D02*
Y149606D01*
X667844D01*
X668369Y150131D01*
Y150656D01*
X667844Y151181D01*
X666270D01*
X667844D01*
X668369Y151705D01*
Y152230D01*
X667844Y152755D01*
X666270D01*
X669944Y149606D02*
X670993D01*
X671518Y150131D01*
Y151181D01*
X670993Y151705D01*
X669944D01*
X669419Y151181D01*
Y150131D01*
X669944Y149606D01*
X673092Y152230D02*
Y151705D01*
X672567D01*
X673617D01*
X673092D01*
Y150131D01*
X673617Y149606D01*
X675716Y152230D02*
Y151705D01*
X675191D01*
X676241D01*
X675716D01*
Y150131D01*
X676241Y149606D01*
X678340D02*
X679389D01*
X679914Y150131D01*
Y151181D01*
X679389Y151705D01*
X678340D01*
X677815Y151181D01*
Y150131D01*
X678340Y149606D01*
X680964D02*
Y151705D01*
X681488D01*
X682013Y151181D01*
Y149606D01*
Y151181D01*
X682538Y151705D01*
X683063Y151181D01*
Y149606D01*
X687261Y152755D02*
Y149606D01*
X689360D01*
X690934Y151705D02*
X691984D01*
X692508Y151181D01*
Y149606D01*
X690934D01*
X690409Y150131D01*
X690934Y150656D01*
X692508D01*
X693558Y151705D02*
Y150131D01*
X694083Y149606D01*
X695657D01*
Y149082D01*
X695132Y148557D01*
X694607D01*
X695657Y149606D02*
Y151705D01*
X698281Y149606D02*
X697231D01*
X696706Y150131D01*
Y151181D01*
X697231Y151705D01*
X698281D01*
X698806Y151181D01*
Y150656D01*
X696706D01*
X699855Y151705D02*
Y149606D01*
Y150656D01*
X700380Y151181D01*
X700905Y151705D01*
X701429D01*
X628487Y144881D02*
X630586D01*
X629537D01*
Y141732D01*
X632160D02*
X633210D01*
X633735Y142257D01*
Y143307D01*
X633210Y143831D01*
X632160D01*
X631636Y143307D01*
Y142257D01*
X632160Y141732D01*
X634784Y140683D02*
Y143831D01*
X636358D01*
X636883Y143307D01*
Y142257D01*
X636358Y141732D01*
X634784D01*
X641081Y144881D02*
Y141732D01*
X643181D01*
X644755Y143831D02*
X645804D01*
X646329Y143307D01*
Y141732D01*
X644755D01*
X644230Y142257D01*
X644755Y142782D01*
X646329D01*
X647379Y143831D02*
Y142257D01*
X647903Y141732D01*
X649478D01*
Y141208D01*
X648953Y140683D01*
X648428D01*
X649478Y141732D02*
Y143831D01*
X652102Y141732D02*
X651052D01*
X650527Y142257D01*
Y143307D01*
X651052Y143831D01*
X652102D01*
X652626Y143307D01*
Y142782D01*
X650527D01*
X653676Y143831D02*
Y141732D01*
Y142782D01*
X654201Y143307D01*
X654725Y143831D01*
X655250D01*
X659973Y143307D02*
X662072D01*
X666270Y144881D02*
Y141732D01*
X667844D01*
X668369Y142257D01*
Y142782D01*
X667844Y143307D01*
X666270D01*
X667844D01*
X668369Y143831D01*
Y144356D01*
X667844Y144881D01*
X666270D01*
X669944Y141732D02*
X670993D01*
X671518Y142257D01*
Y143307D01*
X670993Y143831D01*
X669944D01*
X669419Y143307D01*
Y142257D01*
X669944Y141732D01*
X673092Y144356D02*
Y143831D01*
X672567D01*
X673617D01*
X673092D01*
Y142257D01*
X673617Y141732D01*
X675716Y144356D02*
Y143831D01*
X675191D01*
X676241D01*
X675716D01*
Y142257D01*
X676241Y141732D01*
X678340D02*
X679389D01*
X679914Y142257D01*
Y143307D01*
X679389Y143831D01*
X678340D01*
X677815Y143307D01*
Y142257D01*
X678340Y141732D01*
X680964D02*
Y143831D01*
X681488D01*
X682013Y143307D01*
Y141732D01*
Y143307D01*
X682538Y143831D01*
X683063Y143307D01*
Y141732D01*
X687261Y144881D02*
Y141732D01*
X689360D01*
X690934Y143831D02*
X691984D01*
X692508Y143307D01*
Y141732D01*
X690934D01*
X690409Y142257D01*
X690934Y142782D01*
X692508D01*
X693558Y143831D02*
Y142257D01*
X694083Y141732D01*
X695657D01*
Y141208D01*
X695132Y140683D01*
X694607D01*
X695657Y141732D02*
Y143831D01*
X698281Y141732D02*
X697231D01*
X696706Y142257D01*
Y143307D01*
X697231Y143831D01*
X698281D01*
X698806Y143307D01*
Y142782D01*
X696706D01*
X699855Y143831D02*
Y141732D01*
Y142782D01*
X700380Y143307D01*
X700905Y143831D01*
X701429D01*
X628487Y137007D02*
X630586D01*
X629537D01*
Y133858D01*
X632160D02*
X633210D01*
X633735Y134383D01*
Y135433D01*
X633210Y135957D01*
X632160D01*
X631636Y135433D01*
Y134383D01*
X632160Y133858D01*
X634784Y132809D02*
Y135957D01*
X636358D01*
X636883Y135433D01*
Y134383D01*
X636358Y133858D01*
X634784D01*
X641081Y137007D02*
Y133858D01*
X643181D01*
X644755Y135957D02*
X645804D01*
X646329Y135433D01*
Y133858D01*
X644755D01*
X644230Y134383D01*
X644755Y134908D01*
X646329D01*
X647379Y135957D02*
Y134383D01*
X647903Y133858D01*
X649478D01*
Y133334D01*
X648953Y132809D01*
X648428D01*
X649478Y133858D02*
Y135957D01*
X652102Y133858D02*
X651052D01*
X650527Y134383D01*
Y135433D01*
X651052Y135957D01*
X652102D01*
X652626Y135433D01*
Y134908D01*
X650527D01*
X653676Y135957D02*
Y133858D01*
Y134908D01*
X654201Y135433D01*
X654725Y135957D01*
X655250D01*
X659973Y135433D02*
X662072D01*
X666270Y137007D02*
Y133858D01*
X667844D01*
X668369Y134383D01*
Y134908D01*
X667844Y135433D01*
X666270D01*
X667844D01*
X668369Y135957D01*
Y136482D01*
X667844Y137007D01*
X666270D01*
X669944Y133858D02*
X670993D01*
X671518Y134383D01*
Y135433D01*
X670993Y135957D01*
X669944D01*
X669419Y135433D01*
Y134383D01*
X669944Y133858D01*
X673092Y136482D02*
Y135957D01*
X672567D01*
X673617D01*
X673092D01*
Y134383D01*
X673617Y133858D01*
X675716Y136482D02*
Y135957D01*
X675191D01*
X676241D01*
X675716D01*
Y134383D01*
X676241Y133858D01*
X678340D02*
X679389D01*
X679914Y134383D01*
Y135433D01*
X679389Y135957D01*
X678340D01*
X677815Y135433D01*
Y134383D01*
X678340Y133858D01*
X680964D02*
Y135957D01*
X681488D01*
X682013Y135433D01*
Y133858D01*
Y135433D01*
X682538Y135957D01*
X683063Y135433D01*
Y133858D01*
X687261Y137007D02*
Y133858D01*
X689360D01*
X690934Y135957D02*
X691984D01*
X692508Y135433D01*
Y133858D01*
X690934D01*
X690409Y134383D01*
X690934Y134908D01*
X692508D01*
X693558Y135957D02*
Y134383D01*
X694083Y133858D01*
X695657D01*
Y133334D01*
X695132Y132809D01*
X694607D01*
X695657Y133858D02*
Y135957D01*
X698281Y133858D02*
X697231D01*
X696706Y134383D01*
Y135433D01*
X697231Y135957D01*
X698281D01*
X698806Y135433D01*
Y134908D01*
X696706D01*
X699855Y135957D02*
Y133858D01*
Y134908D01*
X700380Y135433D01*
X700905Y135957D01*
X701429D01*
X628487Y129133D02*
X630586D01*
X629537D01*
Y125984D01*
X632160D02*
X633210D01*
X633735Y126509D01*
Y127559D01*
X633210Y128083D01*
X632160D01*
X631636Y127559D01*
Y126509D01*
X632160Y125984D01*
X634784Y124935D02*
Y128083D01*
X636358D01*
X636883Y127559D01*
Y126509D01*
X636358Y125984D01*
X634784D01*
X641081Y129133D02*
Y125984D01*
X643181D01*
X644755Y128083D02*
X645804D01*
X646329Y127559D01*
Y125984D01*
X644755D01*
X644230Y126509D01*
X644755Y127034D01*
X646329D01*
X647379Y128083D02*
Y126509D01*
X647903Y125984D01*
X649478D01*
Y125460D01*
X648953Y124935D01*
X648428D01*
X649478Y125984D02*
Y128083D01*
X652102Y125984D02*
X651052D01*
X650527Y126509D01*
Y127559D01*
X651052Y128083D01*
X652102D01*
X652626Y127559D01*
Y127034D01*
X650527D01*
X653676Y128083D02*
Y125984D01*
Y127034D01*
X654201Y127559D01*
X654725Y128083D01*
X655250D01*
X659973Y127559D02*
X662072D01*
X666270Y129133D02*
Y125984D01*
X667844D01*
X668369Y126509D01*
Y127034D01*
X667844Y127559D01*
X666270D01*
X667844D01*
X668369Y128083D01*
Y128608D01*
X667844Y129133D01*
X666270D01*
X669944Y125984D02*
X670993D01*
X671518Y126509D01*
Y127559D01*
X670993Y128083D01*
X669944D01*
X669419Y127559D01*
Y126509D01*
X669944Y125984D01*
X673092Y128608D02*
Y128083D01*
X672567D01*
X673617D01*
X673092D01*
Y126509D01*
X673617Y125984D01*
X675716Y128608D02*
Y128083D01*
X675191D01*
X676241D01*
X675716D01*
Y126509D01*
X676241Y125984D01*
X678340D02*
X679389D01*
X679914Y126509D01*
Y127559D01*
X679389Y128083D01*
X678340D01*
X677815Y127559D01*
Y126509D01*
X678340Y125984D01*
X680964D02*
Y128083D01*
X681488D01*
X682013Y127559D01*
Y125984D01*
Y127559D01*
X682538Y128083D01*
X683063Y127559D01*
Y125984D01*
X687261Y129133D02*
Y125984D01*
X689360D01*
X690934Y128083D02*
X691984D01*
X692508Y127559D01*
Y125984D01*
X690934D01*
X690409Y126509D01*
X690934Y127034D01*
X692508D01*
X693558Y128083D02*
Y126509D01*
X694083Y125984D01*
X695657D01*
Y125460D01*
X695132Y124935D01*
X694607D01*
X695657Y125984D02*
Y128083D01*
X698281Y125984D02*
X697231D01*
X696706Y126509D01*
Y127559D01*
X697231Y128083D01*
X698281D01*
X698806Y127559D01*
Y127034D01*
X696706D01*
X699855Y128083D02*
Y125984D01*
Y127034D01*
X700380Y127559D01*
X700905Y128083D01*
X701429D01*
X628487Y121259D02*
X630586D01*
X629537D01*
Y118110D01*
X632160D02*
X633210D01*
X633735Y118635D01*
Y119685D01*
X633210Y120209D01*
X632160D01*
X631636Y119685D01*
Y118635D01*
X632160Y118110D01*
X634784Y117061D02*
Y120209D01*
X636358D01*
X636883Y119685D01*
Y118635D01*
X636358Y118110D01*
X634784D01*
X641081Y121259D02*
Y118110D01*
X643181D01*
X644755Y120209D02*
X645804D01*
X646329Y119685D01*
Y118110D01*
X644755D01*
X644230Y118635D01*
X644755Y119160D01*
X646329D01*
X647379Y120209D02*
Y118635D01*
X647903Y118110D01*
X649478D01*
Y117586D01*
X648953Y117061D01*
X648428D01*
X649478Y118110D02*
Y120209D01*
X652102Y118110D02*
X651052D01*
X650527Y118635D01*
Y119685D01*
X651052Y120209D01*
X652102D01*
X652626Y119685D01*
Y119160D01*
X650527D01*
X653676Y120209D02*
Y118110D01*
Y119160D01*
X654201Y119685D01*
X654725Y120209D01*
X655250D01*
X659973Y119685D02*
X662072D01*
X666270Y121259D02*
Y118110D01*
X667844D01*
X668369Y118635D01*
Y119160D01*
X667844Y119685D01*
X666270D01*
X667844D01*
X668369Y120209D01*
Y120734D01*
X667844Y121259D01*
X666270D01*
X669944Y118110D02*
X670993D01*
X671518Y118635D01*
Y119685D01*
X670993Y120209D01*
X669944D01*
X669419Y119685D01*
Y118635D01*
X669944Y118110D01*
X673092Y120734D02*
Y120209D01*
X672567D01*
X673617D01*
X673092D01*
Y118635D01*
X673617Y118110D01*
X675716Y120734D02*
Y120209D01*
X675191D01*
X676241D01*
X675716D01*
Y118635D01*
X676241Y118110D01*
X678340D02*
X679389D01*
X679914Y118635D01*
Y119685D01*
X679389Y120209D01*
X678340D01*
X677815Y119685D01*
Y118635D01*
X678340Y118110D01*
X680964D02*
Y120209D01*
X681488D01*
X682013Y119685D01*
Y118110D01*
Y119685D01*
X682538Y120209D01*
X683063Y119685D01*
Y118110D01*
X687261Y121259D02*
Y118110D01*
X689360D01*
X690934Y120209D02*
X691984D01*
X692508Y119685D01*
Y118110D01*
X690934D01*
X690409Y118635D01*
X690934Y119160D01*
X692508D01*
X693558Y120209D02*
Y118635D01*
X694083Y118110D01*
X695657D01*
Y117586D01*
X695132Y117061D01*
X694607D01*
X695657Y118110D02*
Y120209D01*
X698281Y118110D02*
X697231D01*
X696706Y118635D01*
Y119685D01*
X697231Y120209D01*
X698281D01*
X698806Y119685D01*
Y119160D01*
X696706D01*
X699855Y120209D02*
Y118110D01*
Y119160D01*
X700380Y119685D01*
X700905Y120209D01*
X701429D01*
X628487Y113385D02*
X630586D01*
X629537D01*
Y110236D01*
X632160D02*
X633210D01*
X633735Y110761D01*
Y111811D01*
X633210Y112335D01*
X632160D01*
X631636Y111811D01*
Y110761D01*
X632160Y110236D01*
X634784Y109187D02*
Y112335D01*
X636358D01*
X636883Y111811D01*
Y110761D01*
X636358Y110236D01*
X634784D01*
X641081Y113385D02*
Y110236D01*
X643181D01*
X644755Y112335D02*
X645804D01*
X646329Y111811D01*
Y110236D01*
X644755D01*
X644230Y110761D01*
X644755Y111286D01*
X646329D01*
X647379Y112335D02*
Y110761D01*
X647903Y110236D01*
X649478D01*
Y109712D01*
X648953Y109187D01*
X648428D01*
X649478Y110236D02*
Y112335D01*
X652102Y110236D02*
X651052D01*
X650527Y110761D01*
Y111811D01*
X651052Y112335D01*
X652102D01*
X652626Y111811D01*
Y111286D01*
X650527D01*
X653676Y112335D02*
Y110236D01*
Y111286D01*
X654201Y111811D01*
X654725Y112335D01*
X655250D01*
X659973Y111811D02*
X662072D01*
X666270Y113385D02*
Y110236D01*
X667844D01*
X668369Y110761D01*
Y111286D01*
X667844Y111811D01*
X666270D01*
X667844D01*
X668369Y112335D01*
Y112860D01*
X667844Y113385D01*
X666270D01*
X669944Y110236D02*
X670993D01*
X671518Y110761D01*
Y111811D01*
X670993Y112335D01*
X669944D01*
X669419Y111811D01*
Y110761D01*
X669944Y110236D01*
X673092Y112860D02*
Y112335D01*
X672567D01*
X673617D01*
X673092D01*
Y110761D01*
X673617Y110236D01*
X675716Y112860D02*
Y112335D01*
X675191D01*
X676241D01*
X675716D01*
Y110761D01*
X676241Y110236D01*
X678340D02*
X679389D01*
X679914Y110761D01*
Y111811D01*
X679389Y112335D01*
X678340D01*
X677815Y111811D01*
Y110761D01*
X678340Y110236D01*
X680964D02*
Y112335D01*
X681488D01*
X682013Y111811D01*
Y110236D01*
Y111811D01*
X682538Y112335D01*
X683063Y111811D01*
Y110236D01*
X687261Y113385D02*
Y110236D01*
X689360D01*
X690934Y112335D02*
X691984D01*
X692508Y111811D01*
Y110236D01*
X690934D01*
X690409Y110761D01*
X690934Y111286D01*
X692508D01*
X693558Y112335D02*
Y110761D01*
X694083Y110236D01*
X695657D01*
Y109712D01*
X695132Y109187D01*
X694607D01*
X695657Y110236D02*
Y112335D01*
X698281Y110236D02*
X697231D01*
X696706Y110761D01*
Y111811D01*
X697231Y112335D01*
X698281D01*
X698806Y111811D01*
Y111286D01*
X696706D01*
X699855Y112335D02*
Y110236D01*
Y111286D01*
X700380Y111811D01*
X700905Y112335D01*
X701429D01*
X628487Y105511D02*
X630586D01*
X629537D01*
Y102362D01*
X632160D02*
X633210D01*
X633735Y102887D01*
Y103937D01*
X633210Y104461D01*
X632160D01*
X631636Y103937D01*
Y102887D01*
X632160Y102362D01*
X634784Y101313D02*
Y104461D01*
X636358D01*
X636883Y103937D01*
Y102887D01*
X636358Y102362D01*
X634784D01*
X641081Y105511D02*
Y102362D01*
X643181D01*
X644755Y104461D02*
X645804D01*
X646329Y103937D01*
Y102362D01*
X644755D01*
X644230Y102887D01*
X644755Y103412D01*
X646329D01*
X647379Y104461D02*
Y102887D01*
X647903Y102362D01*
X649478D01*
Y101838D01*
X648953Y101313D01*
X648428D01*
X649478Y102362D02*
Y104461D01*
X652102Y102362D02*
X651052D01*
X650527Y102887D01*
Y103937D01*
X651052Y104461D01*
X652102D01*
X652626Y103937D01*
Y103412D01*
X650527D01*
X653676Y104461D02*
Y102362D01*
Y103412D01*
X654201Y103937D01*
X654725Y104461D01*
X655250D01*
X659973Y103937D02*
X662072D01*
X666270Y105511D02*
Y102362D01*
X667844D01*
X668369Y102887D01*
Y103412D01*
X667844Y103937D01*
X666270D01*
X667844D01*
X668369Y104461D01*
Y104986D01*
X667844Y105511D01*
X666270D01*
X669944Y102362D02*
X670993D01*
X671518Y102887D01*
Y103937D01*
X670993Y104461D01*
X669944D01*
X669419Y103937D01*
Y102887D01*
X669944Y102362D01*
X673092Y104986D02*
Y104461D01*
X672567D01*
X673617D01*
X673092D01*
Y102887D01*
X673617Y102362D01*
X675716Y104986D02*
Y104461D01*
X675191D01*
X676241D01*
X675716D01*
Y102887D01*
X676241Y102362D01*
X678340D02*
X679389D01*
X679914Y102887D01*
Y103937D01*
X679389Y104461D01*
X678340D01*
X677815Y103937D01*
Y102887D01*
X678340Y102362D01*
X680964D02*
Y104461D01*
X681488D01*
X682013Y103937D01*
Y102362D01*
Y103937D01*
X682538Y104461D01*
X683063Y103937D01*
Y102362D01*
X687261Y105511D02*
Y102362D01*
X689360D01*
X690934Y104461D02*
X691984D01*
X692508Y103937D01*
Y102362D01*
X690934D01*
X690409Y102887D01*
X690934Y103412D01*
X692508D01*
X693558Y104461D02*
Y102887D01*
X694083Y102362D01*
X695657D01*
Y101838D01*
X695132Y101313D01*
X694607D01*
X695657Y102362D02*
Y104461D01*
X698281Y102362D02*
X697231D01*
X696706Y102887D01*
Y103937D01*
X697231Y104461D01*
X698281D01*
X698806Y103937D01*
Y103412D01*
X696706D01*
X699855Y104461D02*
Y102362D01*
Y103412D01*
X700380Y103937D01*
X700905Y104461D01*
X701429D01*
X628487Y97637D02*
X630586D01*
X629537D01*
Y94488D01*
X632160D02*
X633210D01*
X633735Y95013D01*
Y96062D01*
X633210Y96587D01*
X632160D01*
X631636Y96062D01*
Y95013D01*
X632160Y94488D01*
X634784Y93439D02*
Y96587D01*
X636358D01*
X636883Y96062D01*
Y95013D01*
X636358Y94488D01*
X634784D01*
X641081Y97637D02*
Y94488D01*
X643181D01*
X644755Y96587D02*
X645804D01*
X646329Y96062D01*
Y94488D01*
X644755D01*
X644230Y95013D01*
X644755Y95538D01*
X646329D01*
X647379Y96587D02*
Y95013D01*
X647903Y94488D01*
X649478D01*
Y93963D01*
X648953Y93439D01*
X648428D01*
X649478Y94488D02*
Y96587D01*
X652102Y94488D02*
X651052D01*
X650527Y95013D01*
Y96062D01*
X651052Y96587D01*
X652102D01*
X652626Y96062D01*
Y95538D01*
X650527D01*
X653676Y96587D02*
Y94488D01*
Y95538D01*
X654201Y96062D01*
X654725Y96587D01*
X655250D01*
X659973Y96062D02*
X662072D01*
X666270Y97637D02*
Y94488D01*
X667844D01*
X668369Y95013D01*
Y95538D01*
X667844Y96062D01*
X666270D01*
X667844D01*
X668369Y96587D01*
Y97112D01*
X667844Y97637D01*
X666270D01*
X669944Y94488D02*
X670993D01*
X671518Y95013D01*
Y96062D01*
X670993Y96587D01*
X669944D01*
X669419Y96062D01*
Y95013D01*
X669944Y94488D01*
X673092Y97112D02*
Y96587D01*
X672567D01*
X673617D01*
X673092D01*
Y95013D01*
X673617Y94488D01*
X675716Y97112D02*
Y96587D01*
X675191D01*
X676241D01*
X675716D01*
Y95013D01*
X676241Y94488D01*
X678340D02*
X679389D01*
X679914Y95013D01*
Y96062D01*
X679389Y96587D01*
X678340D01*
X677815Y96062D01*
Y95013D01*
X678340Y94488D01*
X680964D02*
Y96587D01*
X681488D01*
X682013Y96062D01*
Y94488D01*
Y96062D01*
X682538Y96587D01*
X683063Y96062D01*
Y94488D01*
X687261Y97637D02*
Y94488D01*
X689360D01*
X690934Y96587D02*
X691984D01*
X692508Y96062D01*
Y94488D01*
X690934D01*
X690409Y95013D01*
X690934Y95538D01*
X692508D01*
X693558Y96587D02*
Y95013D01*
X694083Y94488D01*
X695657D01*
Y93963D01*
X695132Y93439D01*
X694607D01*
X695657Y94488D02*
Y96587D01*
X698281Y94488D02*
X697231D01*
X696706Y95013D01*
Y96062D01*
X697231Y96587D01*
X698281D01*
X698806Y96062D01*
Y95538D01*
X696706D01*
X699855Y96587D02*
Y94488D01*
Y95538D01*
X700380Y96062D01*
X700905Y96587D01*
X701429D01*
X628487Y89763D02*
X630586D01*
X629537D01*
Y86614D01*
X632160D02*
X633210D01*
X633735Y87139D01*
Y88188D01*
X633210Y88713D01*
X632160D01*
X631636Y88188D01*
Y87139D01*
X632160Y86614D01*
X634784Y85565D02*
Y88713D01*
X636358D01*
X636883Y88188D01*
Y87139D01*
X636358Y86614D01*
X634784D01*
X641081Y89763D02*
Y86614D01*
X643181D01*
X644755Y88713D02*
X645804D01*
X646329Y88188D01*
Y86614D01*
X644755D01*
X644230Y87139D01*
X644755Y87664D01*
X646329D01*
X647379Y88713D02*
Y87139D01*
X647903Y86614D01*
X649478D01*
Y86089D01*
X648953Y85565D01*
X648428D01*
X649478Y86614D02*
Y88713D01*
X652102Y86614D02*
X651052D01*
X650527Y87139D01*
Y88188D01*
X651052Y88713D01*
X652102D01*
X652626Y88188D01*
Y87664D01*
X650527D01*
X653676Y88713D02*
Y86614D01*
Y87664D01*
X654201Y88188D01*
X654725Y88713D01*
X655250D01*
X659973Y88188D02*
X662072D01*
X666270Y89763D02*
Y86614D01*
X667844D01*
X668369Y87139D01*
Y87664D01*
X667844Y88188D01*
X666270D01*
X667844D01*
X668369Y88713D01*
Y89238D01*
X667844Y89763D01*
X666270D01*
X669944Y86614D02*
X670993D01*
X671518Y87139D01*
Y88188D01*
X670993Y88713D01*
X669944D01*
X669419Y88188D01*
Y87139D01*
X669944Y86614D01*
X673092Y89238D02*
Y88713D01*
X672567D01*
X673617D01*
X673092D01*
Y87139D01*
X673617Y86614D01*
X675716Y89238D02*
Y88713D01*
X675191D01*
X676241D01*
X675716D01*
Y87139D01*
X676241Y86614D01*
X678340D02*
X679389D01*
X679914Y87139D01*
Y88188D01*
X679389Y88713D01*
X678340D01*
X677815Y88188D01*
Y87139D01*
X678340Y86614D01*
X680964D02*
Y88713D01*
X681488D01*
X682013Y88188D01*
Y86614D01*
Y88188D01*
X682538Y88713D01*
X683063Y88188D01*
Y86614D01*
X687261Y89763D02*
Y86614D01*
X689360D01*
X690934Y88713D02*
X691984D01*
X692508Y88188D01*
Y86614D01*
X690934D01*
X690409Y87139D01*
X690934Y87664D01*
X692508D01*
X693558Y88713D02*
Y87139D01*
X694083Y86614D01*
X695657D01*
Y86089D01*
X695132Y85565D01*
X694607D01*
X695657Y86614D02*
Y88713D01*
X698281Y86614D02*
X697231D01*
X696706Y87139D01*
Y88188D01*
X697231Y88713D01*
X698281D01*
X698806Y88188D01*
Y87664D01*
X696706D01*
X699855Y88713D02*
Y86614D01*
Y87664D01*
X700380Y88188D01*
X700905Y88713D01*
X701429D01*
X628487Y81889D02*
X630586D01*
X629537D01*
Y78740D01*
X632160D02*
X633210D01*
X633735Y79265D01*
Y80314D01*
X633210Y80839D01*
X632160D01*
X631636Y80314D01*
Y79265D01*
X632160Y78740D01*
X634784Y77691D02*
Y80839D01*
X636358D01*
X636883Y80314D01*
Y79265D01*
X636358Y78740D01*
X634784D01*
X641081Y81889D02*
Y78740D01*
X643181D01*
X644755Y80839D02*
X645804D01*
X646329Y80314D01*
Y78740D01*
X644755D01*
X644230Y79265D01*
X644755Y79790D01*
X646329D01*
X647379Y80839D02*
Y79265D01*
X647903Y78740D01*
X649478D01*
Y78215D01*
X648953Y77691D01*
X648428D01*
X649478Y78740D02*
Y80839D01*
X652102Y78740D02*
X651052D01*
X650527Y79265D01*
Y80314D01*
X651052Y80839D01*
X652102D01*
X652626Y80314D01*
Y79790D01*
X650527D01*
X653676Y80839D02*
Y78740D01*
Y79790D01*
X654201Y80314D01*
X654725Y80839D01*
X655250D01*
X659973Y80314D02*
X662072D01*
X666270Y81889D02*
Y78740D01*
X667844D01*
X668369Y79265D01*
Y79790D01*
X667844Y80314D01*
X666270D01*
X667844D01*
X668369Y80839D01*
Y81364D01*
X667844Y81889D01*
X666270D01*
X669944Y78740D02*
X670993D01*
X671518Y79265D01*
Y80314D01*
X670993Y80839D01*
X669944D01*
X669419Y80314D01*
Y79265D01*
X669944Y78740D01*
X673092Y81364D02*
Y80839D01*
X672567D01*
X673617D01*
X673092D01*
Y79265D01*
X673617Y78740D01*
X675716Y81364D02*
Y80839D01*
X675191D01*
X676241D01*
X675716D01*
Y79265D01*
X676241Y78740D01*
X678340D02*
X679389D01*
X679914Y79265D01*
Y80314D01*
X679389Y80839D01*
X678340D01*
X677815Y80314D01*
Y79265D01*
X678340Y78740D01*
X680964D02*
Y80839D01*
X681488D01*
X682013Y80314D01*
Y78740D01*
Y80314D01*
X682538Y80839D01*
X683063Y80314D01*
Y78740D01*
X687261Y81889D02*
Y78740D01*
X689360D01*
X690934Y80839D02*
X691984D01*
X692508Y80314D01*
Y78740D01*
X690934D01*
X690409Y79265D01*
X690934Y79790D01*
X692508D01*
X693558Y80839D02*
Y79265D01*
X694083Y78740D01*
X695657D01*
Y78215D01*
X695132Y77691D01*
X694607D01*
X695657Y78740D02*
Y80839D01*
X698281Y78740D02*
X697231D01*
X696706Y79265D01*
Y80314D01*
X697231Y80839D01*
X698281D01*
X698806Y80314D01*
Y79790D01*
X696706D01*
X699855Y80839D02*
Y78740D01*
Y79790D01*
X700380Y80314D01*
X700905Y80839D01*
X701429D01*
X591856Y152230D02*
X591332Y152755D01*
X590282D01*
X589757Y152230D01*
Y151705D01*
X590282Y151181D01*
X591332D01*
X591856Y150656D01*
Y150131D01*
X591332Y149606D01*
X590282D01*
X589757Y150131D01*
X592906Y149606D02*
X593955D01*
X593431D01*
Y152755D01*
X592906D01*
X596055Y149606D02*
X597104D01*
X597629Y150131D01*
Y151181D01*
X597104Y151705D01*
X596055D01*
X595530Y151181D01*
Y150131D01*
X596055Y149606D01*
X599203Y152230D02*
Y151705D01*
X598678D01*
X599728D01*
X599203D01*
Y150131D01*
X599728Y149606D01*
X591856Y144356D02*
X591332Y144881D01*
X590282D01*
X589757Y144356D01*
Y143831D01*
X590282Y143307D01*
X591332D01*
X591856Y142782D01*
Y142257D01*
X591332Y141732D01*
X590282D01*
X589757Y142257D01*
X592906Y141732D02*
X593955D01*
X593431D01*
Y144881D01*
X592906D01*
X596055Y141732D02*
X597104D01*
X597629Y142257D01*
Y143307D01*
X597104Y143831D01*
X596055D01*
X595530Y143307D01*
Y142257D01*
X596055Y141732D01*
X599203Y144356D02*
Y143831D01*
X598678D01*
X599728D01*
X599203D01*
Y142257D01*
X599728Y141732D01*
X591856Y136482D02*
X591332Y137007D01*
X590282D01*
X589757Y136482D01*
Y135957D01*
X590282Y135433D01*
X591332D01*
X591856Y134908D01*
Y134383D01*
X591332Y133858D01*
X590282D01*
X589757Y134383D01*
X592906Y133858D02*
X593955D01*
X593431D01*
Y137007D01*
X592906D01*
X596055Y133858D02*
X597104D01*
X597629Y134383D01*
Y135433D01*
X597104Y135957D01*
X596055D01*
X595530Y135433D01*
Y134383D01*
X596055Y133858D01*
X599203Y136482D02*
Y135957D01*
X598678D01*
X599728D01*
X599203D01*
Y134383D01*
X599728Y133858D01*
X589757Y125984D02*
Y129133D01*
X591332D01*
X591856Y128608D01*
Y127559D01*
X591332Y127034D01*
X589757D01*
X590807D02*
X591856Y125984D01*
X593431D02*
X594480D01*
X595005Y126509D01*
Y127559D01*
X594480Y128083D01*
X593431D01*
X592906Y127559D01*
Y126509D01*
X593431Y125984D01*
X596054Y128083D02*
Y126509D01*
X596579Y125984D01*
X598153D01*
Y128083D01*
X599203Y125984D02*
Y128083D01*
X600777D01*
X601302Y127559D01*
Y125984D01*
X604451Y129133D02*
Y125984D01*
X602876D01*
X602352Y126509D01*
Y127559D01*
X602876Y128083D01*
X604451D01*
X589757Y118110D02*
Y121259D01*
X591332D01*
X591856Y120734D01*
Y119685D01*
X591332Y119160D01*
X589757D01*
X590807D02*
X591856Y118110D01*
X593431D02*
X594480D01*
X595005Y118635D01*
Y119685D01*
X594480Y120209D01*
X593431D01*
X592906Y119685D01*
Y118635D01*
X593431Y118110D01*
X596054Y120209D02*
Y118635D01*
X596579Y118110D01*
X598153D01*
Y120209D01*
X599203Y118110D02*
Y120209D01*
X600777D01*
X601302Y119685D01*
Y118110D01*
X604451Y121259D02*
Y118110D01*
X602876D01*
X602352Y118635D01*
Y119685D01*
X602876Y120209D01*
X604451D01*
X589757Y110236D02*
Y113385D01*
X591332D01*
X591856Y112860D01*
Y111811D01*
X591332Y111286D01*
X589757D01*
X590807D02*
X591856Y110236D01*
X593431D02*
X594480D01*
X595005Y110761D01*
Y111811D01*
X594480Y112335D01*
X593431D01*
X592906Y111811D01*
Y110761D01*
X593431Y110236D01*
X596054Y112335D02*
Y110761D01*
X596579Y110236D01*
X598153D01*
Y112335D01*
X599203Y110236D02*
Y112335D01*
X600777D01*
X601302Y111811D01*
Y110236D01*
X604451Y113385D02*
Y110236D01*
X602876D01*
X602352Y110761D01*
Y111811D01*
X602876Y112335D01*
X604451D01*
X589757Y102362D02*
Y105511D01*
X591332D01*
X591856Y104986D01*
Y103937D01*
X591332Y103412D01*
X589757D01*
X590807D02*
X591856Y102362D01*
X593431D02*
X594480D01*
X595005Y102887D01*
Y103937D01*
X594480Y104461D01*
X593431D01*
X592906Y103937D01*
Y102887D01*
X593431Y102362D01*
X596054Y104461D02*
Y102887D01*
X596579Y102362D01*
X598153D01*
Y104461D01*
X599203Y102362D02*
Y104461D01*
X600777D01*
X601302Y103937D01*
Y102362D01*
X604451Y105511D02*
Y102362D01*
X602876D01*
X602352Y102887D01*
Y103937D01*
X602876Y104461D01*
X604451D01*
X589757Y94488D02*
Y97637D01*
X591332D01*
X591856Y97112D01*
Y96062D01*
X591332Y95538D01*
X589757D01*
X590807D02*
X591856Y94488D01*
X593431D02*
X594480D01*
X595005Y95013D01*
Y96062D01*
X594480Y96587D01*
X593431D01*
X592906Y96062D01*
Y95013D01*
X593431Y94488D01*
X596054Y96587D02*
Y95013D01*
X596579Y94488D01*
X598153D01*
Y96587D01*
X599203Y94488D02*
Y96587D01*
X600777D01*
X601302Y96062D01*
Y94488D01*
X604451Y97637D02*
Y94488D01*
X602876D01*
X602352Y95013D01*
Y96062D01*
X602876Y96587D01*
X604451D01*
X589757Y86614D02*
Y89763D01*
X591332D01*
X591856Y89238D01*
Y88188D01*
X591332Y87664D01*
X589757D01*
X590807D02*
X591856Y86614D01*
X593431D02*
X594480D01*
X595005Y87139D01*
Y88188D01*
X594480Y88713D01*
X593431D01*
X592906Y88188D01*
Y87139D01*
X593431Y86614D01*
X596054Y88713D02*
Y87139D01*
X596579Y86614D01*
X598153D01*
Y88713D01*
X599203Y86614D02*
Y88713D01*
X600777D01*
X601302Y88188D01*
Y86614D01*
X604451Y89763D02*
Y86614D01*
X602876D01*
X602352Y87139D01*
Y88188D01*
X602876Y88713D01*
X604451D01*
X589757Y78740D02*
Y81889D01*
X591332D01*
X591856Y81364D01*
Y80314D01*
X591332Y79790D01*
X589757D01*
X590807D02*
X591856Y78740D01*
X593431D02*
X594480D01*
X595005Y79265D01*
Y80314D01*
X594480Y80839D01*
X593431D01*
X592906Y80314D01*
Y79265D01*
X593431Y78740D01*
X596054Y80839D02*
Y79265D01*
X596579Y78740D01*
X598153D01*
Y80839D01*
X599203Y78740D02*
Y80839D01*
X600777D01*
X601302Y80314D01*
Y78740D01*
X604451Y81889D02*
Y78740D01*
X602876D01*
X602352Y79265D01*
Y80314D01*
X602876Y80839D01*
X604451D01*
X562992Y149606D02*
Y152755D01*
X564566D01*
X565091Y152230D01*
Y151181D01*
X564566Y150656D01*
X562992D01*
X566141Y152755D02*
X568240D01*
X567190D01*
Y149606D01*
X569289Y152755D02*
Y149606D01*
Y151181D01*
X571388D01*
Y152755D01*
Y149606D01*
X562992Y141732D02*
Y144881D01*
X564566D01*
X565091Y144356D01*
Y143307D01*
X564566Y142782D01*
X562992D01*
X566141Y144881D02*
X568240D01*
X567190D01*
Y141732D01*
X569289Y144881D02*
Y141732D01*
Y143307D01*
X571388D01*
Y144881D01*
Y141732D01*
X562992Y133858D02*
Y137007D01*
X564566D01*
X565091Y136482D01*
Y135433D01*
X564566Y134908D01*
X562992D01*
X566141Y137007D02*
X568240D01*
X567190D01*
Y133858D01*
X569289Y137007D02*
Y133858D01*
Y135433D01*
X571388D01*
Y137007D01*
Y133858D01*
X562992Y125984D02*
Y129133D01*
X564566D01*
X565091Y128608D01*
Y127559D01*
X564566Y127034D01*
X562992D01*
X566141Y129133D02*
X568240D01*
X567190D01*
Y125984D01*
X569289Y129133D02*
Y125984D01*
Y127559D01*
X571388D01*
Y129133D01*
Y125984D01*
X562992Y118110D02*
Y121259D01*
X564566D01*
X565091Y120734D01*
Y119685D01*
X564566Y119160D01*
X562992D01*
X566141Y121259D02*
X568240D01*
X567190D01*
Y118110D01*
X569289Y121259D02*
Y118110D01*
Y119685D01*
X571388D01*
Y121259D01*
Y118110D01*
X562992Y110236D02*
Y113385D01*
X565091Y110236D01*
Y113385D01*
X566141Y110236D02*
Y113385D01*
X567715D01*
X568240Y112860D01*
Y111811D01*
X567715Y111286D01*
X566141D01*
X569289Y113385D02*
X571388D01*
X570339D01*
Y110236D01*
X572438Y113385D02*
Y110236D01*
Y111811D01*
X574537D01*
Y113385D01*
Y110236D01*
X562992Y102362D02*
Y105511D01*
X564566D01*
X565091Y104986D01*
Y103937D01*
X564566Y103412D01*
X562992D01*
X566141Y105511D02*
X568240D01*
X567190D01*
Y102362D01*
X569289Y105511D02*
Y102362D01*
Y103937D01*
X571388D01*
Y105511D01*
Y102362D01*
X562992Y94488D02*
Y97637D01*
X564566D01*
X565091Y97112D01*
Y96062D01*
X564566Y95538D01*
X562992D01*
X566141Y97637D02*
X568240D01*
X567190D01*
Y94488D01*
X569289Y97637D02*
Y94488D01*
Y96062D01*
X571388D01*
Y97637D01*
Y94488D01*
X562992Y86614D02*
Y89763D01*
X564566D01*
X565091Y89238D01*
Y88188D01*
X564566Y87664D01*
X562992D01*
X566141Y89763D02*
X568240D01*
X567190D01*
Y86614D01*
X569289Y89763D02*
Y86614D01*
Y88188D01*
X571388D01*
Y89763D01*
Y86614D01*
X562992Y78740D02*
Y81889D01*
X564566D01*
X565091Y81364D01*
Y80314D01*
X564566Y79790D01*
X562992D01*
X566141Y81889D02*
X568240D01*
X567190D01*
Y78740D01*
X569289Y81889D02*
Y78740D01*
Y80314D01*
X571388D01*
Y81889D01*
Y78740D01*
X501462Y152230D02*
X501986Y152755D01*
X503036D01*
X503561Y152230D01*
Y150131D01*
X503036Y149606D01*
X501986D01*
X501462Y150131D01*
Y152230D01*
X505135Y149082D02*
X505660Y149606D01*
Y150131D01*
X505135D01*
Y149606D01*
X505660D01*
X505135Y149082D01*
X504610Y148557D01*
X509858Y152755D02*
X507759D01*
Y151181D01*
X508808Y151705D01*
X509333D01*
X509858Y151181D01*
Y150131D01*
X509333Y149606D01*
X508284D01*
X507759Y150131D01*
X510907Y152230D02*
X511432Y152755D01*
X512482D01*
X513006Y152230D01*
Y150131D01*
X512482Y149606D01*
X511432D01*
X510907Y150131D01*
Y152230D01*
X514056D02*
X514581Y152755D01*
X515630D01*
X516155Y152230D01*
Y150131D01*
X515630Y149606D01*
X514581D01*
X514056Y150131D01*
Y152230D01*
X517205Y149606D02*
Y151705D01*
X517729D01*
X518254Y151181D01*
Y149606D01*
Y151181D01*
X518779Y151705D01*
X519304Y151181D01*
Y149606D01*
X520353D02*
Y151705D01*
X520878D01*
X521403Y151181D01*
Y149606D01*
Y151181D01*
X521927Y151705D01*
X522452Y151181D01*
Y149606D01*
X527700D02*
X526650Y150656D01*
Y151705D01*
X527700Y152755D01*
X529274Y149606D02*
X530324D01*
X529799D01*
Y152755D01*
X529274Y152230D01*
X531898Y150131D02*
X532423Y149606D01*
X533472D01*
X533997Y150131D01*
Y152230D01*
X533472Y152755D01*
X532423D01*
X531898Y152230D01*
Y151705D01*
X532423Y151181D01*
X533997D01*
X535571Y149082D02*
X536096Y149606D01*
Y150131D01*
X535571D01*
Y149606D01*
X536096D01*
X535571Y149082D01*
X535046Y148557D01*
X540294Y152755D02*
X539245Y152230D01*
X538195Y151181D01*
Y150131D01*
X538720Y149606D01*
X539769D01*
X540294Y150131D01*
Y150656D01*
X539769Y151181D01*
X538195D01*
X541344Y150131D02*
X541868Y149606D01*
X542918D01*
X543443Y150131D01*
Y152230D01*
X542918Y152755D01*
X541868D01*
X541344Y152230D01*
Y151705D01*
X541868Y151181D01*
X543443D01*
X544492Y149606D02*
Y151705D01*
X545017D01*
X545542Y151181D01*
Y149606D01*
Y151181D01*
X546067Y151705D01*
X546591Y151181D01*
Y149606D01*
X547641D02*
X548690D01*
X548166D01*
Y151705D01*
X547641D01*
X550265Y149606D02*
X551314D01*
X550789D01*
Y152755D01*
X550265D01*
X552888Y149606D02*
X553938Y150656D01*
Y151705D01*
X552888Y152755D01*
X501462Y144356D02*
X501986Y144881D01*
X503036D01*
X503561Y144356D01*
Y142257D01*
X503036Y141732D01*
X501986D01*
X501462Y142257D01*
Y144356D01*
X505135Y141208D02*
X505660Y141732D01*
Y142257D01*
X505135D01*
Y141732D01*
X505660D01*
X505135Y141208D01*
X504610Y140683D01*
X509858Y144881D02*
X507759D01*
Y143307D01*
X508808Y143831D01*
X509333D01*
X509858Y143307D01*
Y142257D01*
X509333Y141732D01*
X508284D01*
X507759Y142257D01*
X513006Y144881D02*
X510907D01*
Y143307D01*
X511957Y143831D01*
X512482D01*
X513006Y143307D01*
Y142257D01*
X512482Y141732D01*
X511432D01*
X510907Y142257D01*
X514056Y144356D02*
X514581Y144881D01*
X515630D01*
X516155Y144356D01*
Y142257D01*
X515630Y141732D01*
X514581D01*
X514056Y142257D01*
Y144356D01*
X517205Y141732D02*
Y143831D01*
X517729D01*
X518254Y143307D01*
Y141732D01*
Y143307D01*
X518779Y143831D01*
X519304Y143307D01*
Y141732D01*
X520353D02*
Y143831D01*
X520878D01*
X521403Y143307D01*
Y141732D01*
Y143307D01*
X521927Y143831D01*
X522452Y143307D01*
Y141732D01*
X527700D02*
X526650Y142782D01*
Y143831D01*
X527700Y144881D01*
X531373Y141732D02*
X529274D01*
X531373Y143831D01*
Y144356D01*
X530848Y144881D01*
X529799D01*
X529274Y144356D01*
X532423Y141732D02*
X533472D01*
X532947D01*
Y144881D01*
X532423Y144356D01*
X535571Y141208D02*
X536096Y141732D01*
Y142257D01*
X535571D01*
Y141732D01*
X536096D01*
X535571Y141208D01*
X535046Y140683D01*
X540294Y144881D02*
X539245Y144356D01*
X538195Y143307D01*
Y142257D01*
X538720Y141732D01*
X539769D01*
X540294Y142257D01*
Y142782D01*
X539769Y143307D01*
X538195D01*
X543443Y144881D02*
X541344D01*
Y143307D01*
X542393Y143831D01*
X542918D01*
X543443Y143307D01*
Y142257D01*
X542918Y141732D01*
X541868D01*
X541344Y142257D01*
X544492Y141732D02*
Y143831D01*
X545017D01*
X545542Y143307D01*
Y141732D01*
Y143307D01*
X546067Y143831D01*
X546591Y143307D01*
Y141732D01*
X547641D02*
X548690D01*
X548166D01*
Y143831D01*
X547641D01*
X550265Y141732D02*
X551314D01*
X550789D01*
Y144881D01*
X550265D01*
X552888Y141732D02*
X553938Y142782D01*
Y143831D01*
X552888Y144881D01*
X501462Y136482D02*
X501986Y137007D01*
X503036D01*
X503561Y136482D01*
Y134383D01*
X503036Y133858D01*
X501986D01*
X501462Y134383D01*
Y136482D01*
X505135Y133334D02*
X505660Y133858D01*
Y134383D01*
X505135D01*
Y133858D01*
X505660D01*
X505135Y133334D01*
X504610Y132809D01*
X507759Y137007D02*
X509858D01*
Y136482D01*
X507759Y134383D01*
Y133858D01*
X510907Y136482D02*
X511432Y137007D01*
X512482D01*
X513006Y136482D01*
Y134383D01*
X512482Y133858D01*
X511432D01*
X510907Y134383D01*
Y136482D01*
X514056D02*
X514581Y137007D01*
X515630D01*
X516155Y136482D01*
Y134383D01*
X515630Y133858D01*
X514581D01*
X514056Y134383D01*
Y136482D01*
X517205Y133858D02*
Y135957D01*
X517729D01*
X518254Y135433D01*
Y133858D01*
Y135433D01*
X518779Y135957D01*
X519304Y135433D01*
Y133858D01*
X520353D02*
Y135957D01*
X520878D01*
X521403Y135433D01*
Y133858D01*
Y135433D01*
X521927Y135957D01*
X522452Y135433D01*
Y133858D01*
X527700D02*
X526650Y134908D01*
Y135957D01*
X527700Y137007D01*
X531373Y133858D02*
X529274D01*
X531373Y135957D01*
Y136482D01*
X530848Y137007D01*
X529799D01*
X529274Y136482D01*
X532423Y137007D02*
X534522D01*
Y136482D01*
X532423Y134383D01*
Y133858D01*
X536096Y133334D02*
X536621Y133858D01*
Y134383D01*
X536096D01*
Y133858D01*
X536621D01*
X536096Y133334D01*
X535571Y132809D01*
X540819Y137007D02*
X538720D01*
Y135433D01*
X539769Y135957D01*
X540294D01*
X540819Y135433D01*
Y134383D01*
X540294Y133858D01*
X539245D01*
X538720Y134383D01*
X543967Y137007D02*
X542918Y136482D01*
X541868Y135433D01*
Y134383D01*
X542393Y133858D01*
X543443D01*
X543967Y134383D01*
Y134908D01*
X543443Y135433D01*
X541868D01*
X545017Y133858D02*
Y135957D01*
X545542D01*
X546067Y135433D01*
Y133858D01*
Y135433D01*
X546591Y135957D01*
X547116Y135433D01*
Y133858D01*
X548166D02*
X549215D01*
X548690D01*
Y135957D01*
X548166D01*
X550789Y133858D02*
X551839D01*
X551314D01*
Y137007D01*
X550789D01*
X553413Y133858D02*
X554463Y134908D01*
Y135957D01*
X553413Y137007D01*
X503561Y125984D02*
X501462D01*
X503561Y128083D01*
Y128608D01*
X503036Y129133D01*
X501986D01*
X501462Y128608D01*
X505135Y125460D02*
X505660Y125984D01*
Y126509D01*
X505135D01*
Y125984D01*
X505660D01*
X505135Y125460D01*
X504610Y124935D01*
X509333Y125984D02*
Y129133D01*
X507759Y127559D01*
X509858D01*
X510907Y128608D02*
X511432Y129133D01*
X512482D01*
X513006Y128608D01*
Y126509D01*
X512482Y125984D01*
X511432D01*
X510907Y126509D01*
Y128608D01*
X514056D02*
X514581Y129133D01*
X515630D01*
X516155Y128608D01*
Y126509D01*
X515630Y125984D01*
X514581D01*
X514056Y126509D01*
Y128608D01*
X517205Y125984D02*
Y128083D01*
X517729D01*
X518254Y127559D01*
Y125984D01*
Y127559D01*
X518779Y128083D01*
X519304Y127559D01*
Y125984D01*
X520353D02*
Y128083D01*
X520878D01*
X521403Y127559D01*
Y125984D01*
Y127559D01*
X521927Y128083D01*
X522452Y127559D01*
Y125984D01*
X527700D02*
X526650Y127034D01*
Y128083D01*
X527700Y129133D01*
X529274Y126509D02*
X529799Y125984D01*
X530848D01*
X531373Y126509D01*
Y128608D01*
X530848Y129133D01*
X529799D01*
X529274Y128608D01*
Y128083D01*
X529799Y127559D01*
X531373D01*
X533997Y125984D02*
Y129133D01*
X532423Y127559D01*
X534522D01*
X536096Y125460D02*
X536621Y125984D01*
Y126509D01*
X536096D01*
Y125984D01*
X536621D01*
X536096Y125460D01*
X535571Y124935D01*
X540294Y125984D02*
Y129133D01*
X538720Y127559D01*
X540819D01*
X541868Y126509D02*
X542393Y125984D01*
X543443D01*
X543967Y126509D01*
Y128608D01*
X543443Y129133D01*
X542393D01*
X541868Y128608D01*
Y128083D01*
X542393Y127559D01*
X543967D01*
X545017Y125984D02*
Y128083D01*
X545542D01*
X546067Y127559D01*
Y125984D01*
Y127559D01*
X546591Y128083D01*
X547116Y127559D01*
Y125984D01*
X548166D02*
X549215D01*
X548690D01*
Y128083D01*
X548166D01*
X550789Y125984D02*
X551839D01*
X551314D01*
Y129133D01*
X550789D01*
X553413Y125984D02*
X554463Y127034D01*
Y128083D01*
X553413Y129133D01*
X503036Y118110D02*
Y121259D01*
X501462Y119685D01*
X503561D01*
X505135Y117586D02*
X505660Y118110D01*
Y118635D01*
X505135D01*
Y118110D01*
X505660D01*
X505135Y117586D01*
X504610Y117061D01*
X507759Y120734D02*
X508284Y121259D01*
X509333D01*
X509858Y120734D01*
Y120209D01*
X509333Y119685D01*
X509858Y119160D01*
Y118635D01*
X509333Y118110D01*
X508284D01*
X507759Y118635D01*
Y119160D01*
X508284Y119685D01*
X507759Y120209D01*
Y120734D01*
X508284Y119685D02*
X509333D01*
X510907Y120734D02*
X511432Y121259D01*
X512482D01*
X513006Y120734D01*
Y118635D01*
X512482Y118110D01*
X511432D01*
X510907Y118635D01*
Y120734D01*
X514056D02*
X514581Y121259D01*
X515630D01*
X516155Y120734D01*
Y118635D01*
X515630Y118110D01*
X514581D01*
X514056Y118635D01*
Y120734D01*
X517205Y118110D02*
Y120209D01*
X517729D01*
X518254Y119685D01*
Y118110D01*
Y119685D01*
X518779Y120209D01*
X519304Y119685D01*
Y118110D01*
X520353D02*
Y120209D01*
X520878D01*
X521403Y119685D01*
Y118110D01*
Y119685D01*
X521927Y120209D01*
X522452Y119685D01*
Y118110D01*
X527700D02*
X526650Y119160D01*
Y120209D01*
X527700Y121259D01*
X529274Y118110D02*
X530324D01*
X529799D01*
Y121259D01*
X529274Y120734D01*
X531898D02*
X532423Y121259D01*
X533472D01*
X533997Y120734D01*
Y120209D01*
X533472Y119685D01*
X533997Y119160D01*
Y118635D01*
X533472Y118110D01*
X532423D01*
X531898Y118635D01*
Y119160D01*
X532423Y119685D01*
X531898Y120209D01*
Y120734D01*
X532423Y119685D02*
X533472D01*
X535046Y120734D02*
X535571Y121259D01*
X536621D01*
X537146Y120734D01*
Y120209D01*
X536621Y119685D01*
X537146Y119160D01*
Y118635D01*
X536621Y118110D01*
X535571D01*
X535046Y118635D01*
Y119160D01*
X535571Y119685D01*
X535046Y120209D01*
Y120734D01*
X535571Y119685D02*
X536621D01*
X538720Y117586D02*
X539245Y118110D01*
Y118635D01*
X538720D01*
Y118110D01*
X539245D01*
X538720Y117586D01*
X538195Y117061D01*
X541344Y118635D02*
X541868Y118110D01*
X542918D01*
X543443Y118635D01*
Y120734D01*
X542918Y121259D01*
X541868D01*
X541344Y120734D01*
Y120209D01*
X541868Y119685D01*
X543443D01*
X544492Y120734D02*
X545017Y121259D01*
X546067D01*
X546591Y120734D01*
Y120209D01*
X546067Y119685D01*
X546591Y119160D01*
Y118635D01*
X546067Y118110D01*
X545017D01*
X544492Y118635D01*
Y119160D01*
X545017Y119685D01*
X544492Y120209D01*
Y120734D01*
X545017Y119685D02*
X546067D01*
X547641Y118110D02*
Y120209D01*
X548166D01*
X548690Y119685D01*
Y118110D01*
Y119685D01*
X549215Y120209D01*
X549740Y119685D01*
Y118110D01*
X550789D02*
X551839D01*
X551314D01*
Y120209D01*
X550789D01*
X553413Y118110D02*
X554463D01*
X553938D01*
Y121259D01*
X553413D01*
X556037Y118110D02*
X557087Y119160D01*
Y120209D01*
X556037Y121259D01*
X501462Y112860D02*
X501986Y113385D01*
X503036D01*
X503561Y112860D01*
Y110761D01*
X503036Y110236D01*
X501986D01*
X501462Y110761D01*
Y112860D01*
X505135Y109712D02*
X505660Y110236D01*
Y110761D01*
X505135D01*
Y110236D01*
X505660D01*
X505135Y109712D01*
X504610Y109187D01*
X507759Y113385D02*
X509858D01*
Y112860D01*
X507759Y110761D01*
Y110236D01*
X510907Y112860D02*
X511432Y113385D01*
X512482D01*
X513006Y112860D01*
Y110761D01*
X512482Y110236D01*
X511432D01*
X510907Y110761D01*
Y112860D01*
X514056D02*
X514581Y113385D01*
X515630D01*
X516155Y112860D01*
Y110761D01*
X515630Y110236D01*
X514581D01*
X514056Y110761D01*
Y112860D01*
X517205Y110236D02*
Y112335D01*
X517729D01*
X518254Y111811D01*
Y110236D01*
Y111811D01*
X518779Y112335D01*
X519304Y111811D01*
Y110236D01*
X520353D02*
Y112335D01*
X520878D01*
X521403Y111811D01*
Y110236D01*
Y111811D01*
X521927Y112335D01*
X522452Y111811D01*
Y110236D01*
X527700D02*
X526650Y111286D01*
Y112335D01*
X527700Y113385D01*
X531373Y110236D02*
X529274D01*
X531373Y112335D01*
Y112860D01*
X530848Y113385D01*
X529799D01*
X529274Y112860D01*
X532423Y113385D02*
X534522D01*
Y112860D01*
X532423Y110761D01*
Y110236D01*
X536096Y109712D02*
X536621Y110236D01*
Y110761D01*
X536096D01*
Y110236D01*
X536621D01*
X536096Y109712D01*
X535571Y109187D01*
X540819Y113385D02*
X538720D01*
Y111811D01*
X539769Y112335D01*
X540294D01*
X540819Y111811D01*
Y110761D01*
X540294Y110236D01*
X539245D01*
X538720Y110761D01*
X543967Y113385D02*
X542918Y112860D01*
X541868Y111811D01*
Y110761D01*
X542393Y110236D01*
X543443D01*
X543967Y110761D01*
Y111286D01*
X543443Y111811D01*
X541868D01*
X545017Y110236D02*
Y112335D01*
X545542D01*
X546067Y111811D01*
Y110236D01*
Y111811D01*
X546591Y112335D01*
X547116Y111811D01*
Y110236D01*
X548166D02*
X549215D01*
X548690D01*
Y112335D01*
X548166D01*
X550789Y110236D02*
X551839D01*
X551314D01*
Y113385D01*
X550789D01*
X553413Y110236D02*
X554463Y111286D01*
Y112335D01*
X553413Y113385D01*
X501462Y104986D02*
X501986Y105511D01*
X503036D01*
X503561Y104986D01*
Y102887D01*
X503036Y102362D01*
X501986D01*
X501462Y102887D01*
Y104986D01*
X505135Y101838D02*
X505660Y102362D01*
Y102887D01*
X505135D01*
Y102362D01*
X505660D01*
X505135Y101838D01*
X504610Y101313D01*
X507759Y105511D02*
X509858D01*
Y104986D01*
X507759Y102887D01*
Y102362D01*
X510907Y104986D02*
X511432Y105511D01*
X512482D01*
X513006Y104986D01*
Y102887D01*
X512482Y102362D01*
X511432D01*
X510907Y102887D01*
Y104986D01*
X514056D02*
X514581Y105511D01*
X515630D01*
X516155Y104986D01*
Y102887D01*
X515630Y102362D01*
X514581D01*
X514056Y102887D01*
Y104986D01*
X517205Y102362D02*
Y104461D01*
X517729D01*
X518254Y103937D01*
Y102362D01*
Y103937D01*
X518779Y104461D01*
X519304Y103937D01*
Y102362D01*
X520353D02*
Y104461D01*
X520878D01*
X521403Y103937D01*
Y102362D01*
Y103937D01*
X521927Y104461D01*
X522452Y103937D01*
Y102362D01*
X527700D02*
X526650Y103412D01*
Y104461D01*
X527700Y105511D01*
X531373Y102362D02*
X529274D01*
X531373Y104461D01*
Y104986D01*
X530848Y105511D01*
X529799D01*
X529274Y104986D01*
X532423Y105511D02*
X534522D01*
Y104986D01*
X532423Y102887D01*
Y102362D01*
X536096Y101838D02*
X536621Y102362D01*
Y102887D01*
X536096D01*
Y102362D01*
X536621D01*
X536096Y101838D01*
X535571Y101313D01*
X540819Y105511D02*
X538720D01*
Y103937D01*
X539769Y104461D01*
X540294D01*
X540819Y103937D01*
Y102887D01*
X540294Y102362D01*
X539245D01*
X538720Y102887D01*
X543967Y105511D02*
X542918Y104986D01*
X541868Y103937D01*
Y102887D01*
X542393Y102362D01*
X543443D01*
X543967Y102887D01*
Y103412D01*
X543443Y103937D01*
X541868D01*
X545017Y102362D02*
Y104461D01*
X545542D01*
X546067Y103937D01*
Y102362D01*
Y103937D01*
X546591Y104461D01*
X547116Y103937D01*
Y102362D01*
X548166D02*
X549215D01*
X548690D01*
Y104461D01*
X548166D01*
X550789Y102362D02*
X551839D01*
X551314D01*
Y105511D01*
X550789D01*
X553413Y102362D02*
X554463Y103412D01*
Y104461D01*
X553413Y105511D01*
X501462Y97112D02*
X501986Y97637D01*
X503036D01*
X503561Y97112D01*
Y95013D01*
X503036Y94488D01*
X501986D01*
X501462Y95013D01*
Y97112D01*
X505135Y93963D02*
X505660Y94488D01*
Y95013D01*
X505135D01*
Y94488D01*
X505660D01*
X505135Y93963D01*
X504610Y93439D01*
X509858Y97637D02*
X508808Y97112D01*
X507759Y96062D01*
Y95013D01*
X508284Y94488D01*
X509333D01*
X509858Y95013D01*
Y95538D01*
X509333Y96062D01*
X507759D01*
X513006Y97637D02*
X510907D01*
Y96062D01*
X511957Y96587D01*
X512482D01*
X513006Y96062D01*
Y95013D01*
X512482Y94488D01*
X511432D01*
X510907Y95013D01*
X514056Y97112D02*
X514581Y97637D01*
X515630D01*
X516155Y97112D01*
Y95013D01*
X515630Y94488D01*
X514581D01*
X514056Y95013D01*
Y97112D01*
X517205Y94488D02*
Y96587D01*
X517729D01*
X518254Y96062D01*
Y94488D01*
Y96062D01*
X518779Y96587D01*
X519304Y96062D01*
Y94488D01*
X520353D02*
Y96587D01*
X520878D01*
X521403Y96062D01*
Y94488D01*
Y96062D01*
X521927Y96587D01*
X522452Y96062D01*
Y94488D01*
X527700D02*
X526650Y95538D01*
Y96587D01*
X527700Y97637D01*
X531373Y94488D02*
X529274D01*
X531373Y96587D01*
Y97112D01*
X530848Y97637D01*
X529799D01*
X529274Y97112D01*
X534522Y97637D02*
X532423D01*
Y96062D01*
X533472Y96587D01*
X533997D01*
X534522Y96062D01*
Y95013D01*
X533997Y94488D01*
X532947D01*
X532423Y95013D01*
X536096Y93963D02*
X536621Y94488D01*
Y95013D01*
X536096D01*
Y94488D01*
X536621D01*
X536096Y93963D01*
X535571Y93439D01*
X540819Y97637D02*
X538720D01*
Y96062D01*
X539769Y96587D01*
X540294D01*
X540819Y96062D01*
Y95013D01*
X540294Y94488D01*
X539245D01*
X538720Y95013D01*
X541868D02*
X542393Y94488D01*
X543443D01*
X543967Y95013D01*
Y97112D01*
X543443Y97637D01*
X542393D01*
X541868Y97112D01*
Y96587D01*
X542393Y96062D01*
X543967D01*
X545017Y94488D02*
Y96587D01*
X545542D01*
X546067Y96062D01*
Y94488D01*
Y96062D01*
X546591Y96587D01*
X547116Y96062D01*
Y94488D01*
X548166D02*
X549215D01*
X548690D01*
Y96587D01*
X548166D01*
X550789Y94488D02*
X551839D01*
X551314D01*
Y97637D01*
X550789D01*
X553413Y94488D02*
X554463Y95538D01*
Y96587D01*
X553413Y97637D01*
X501462Y89238D02*
X501986Y89763D01*
X503036D01*
X503561Y89238D01*
Y87139D01*
X503036Y86614D01*
X501986D01*
X501462Y87139D01*
Y89238D01*
X505135Y86089D02*
X505660Y86614D01*
Y87139D01*
X505135D01*
Y86614D01*
X505660D01*
X505135Y86089D01*
X504610Y85565D01*
X507759Y87139D02*
X508284Y86614D01*
X509333D01*
X509858Y87139D01*
Y89238D01*
X509333Y89763D01*
X508284D01*
X507759Y89238D01*
Y88713D01*
X508284Y88188D01*
X509858D01*
X510907Y89238D02*
X511432Y89763D01*
X512482D01*
X513006Y89238D01*
Y87139D01*
X512482Y86614D01*
X511432D01*
X510907Y87139D01*
Y89238D01*
X514056D02*
X514581Y89763D01*
X515630D01*
X516155Y89238D01*
Y87139D01*
X515630Y86614D01*
X514581D01*
X514056Y87139D01*
Y89238D01*
X517205Y86614D02*
Y88713D01*
X517729D01*
X518254Y88188D01*
Y86614D01*
Y88188D01*
X518779Y88713D01*
X519304Y88188D01*
Y86614D01*
X520353D02*
Y88713D01*
X520878D01*
X521403Y88188D01*
Y86614D01*
Y88188D01*
X521927Y88713D01*
X522452Y88188D01*
Y86614D01*
X527700D02*
X526650Y87664D01*
Y88713D01*
X527700Y89763D01*
X529274Y89238D02*
X529799Y89763D01*
X530848D01*
X531373Y89238D01*
Y88713D01*
X530848Y88188D01*
X530324D01*
X530848D01*
X531373Y87664D01*
Y87139D01*
X530848Y86614D01*
X529799D01*
X529274Y87139D01*
X534522Y89763D02*
X532423D01*
Y88188D01*
X533472Y88713D01*
X533997D01*
X534522Y88188D01*
Y87139D01*
X533997Y86614D01*
X532947D01*
X532423Y87139D01*
X536096Y86089D02*
X536621Y86614D01*
Y87139D01*
X536096D01*
Y86614D01*
X536621D01*
X536096Y86089D01*
X535571Y85565D01*
X540294Y86614D02*
Y89763D01*
X538720Y88188D01*
X540819D01*
X541868Y89238D02*
X542393Y89763D01*
X543443D01*
X543967Y89238D01*
Y88713D01*
X543443Y88188D01*
X542918D01*
X543443D01*
X543967Y87664D01*
Y87139D01*
X543443Y86614D01*
X542393D01*
X541868Y87139D01*
X545017Y86614D02*
Y88713D01*
X545542D01*
X546067Y88188D01*
Y86614D01*
Y88188D01*
X546591Y88713D01*
X547116Y88188D01*
Y86614D01*
X548166D02*
X549215D01*
X548690D01*
Y88713D01*
X548166D01*
X550789Y86614D02*
X551839D01*
X551314D01*
Y89763D01*
X550789D01*
X553413Y86614D02*
X554463Y87664D01*
Y88713D01*
X553413Y89763D01*
X501462Y81364D02*
X501986Y81889D01*
X503036D01*
X503561Y81364D01*
Y79265D01*
X503036Y78740D01*
X501986D01*
X501462Y79265D01*
Y81364D01*
X505135Y78215D02*
X505660Y78740D01*
Y79265D01*
X505135D01*
Y78740D01*
X505660D01*
X505135Y78215D01*
X504610Y77691D01*
X507759Y81364D02*
X508284Y81889D01*
X509333D01*
X509858Y81364D01*
Y80839D01*
X509333Y80314D01*
X508808D01*
X509333D01*
X509858Y79790D01*
Y79265D01*
X509333Y78740D01*
X508284D01*
X507759Y79265D01*
X510907Y81364D02*
X511432Y81889D01*
X512482D01*
X513006Y81364D01*
Y79265D01*
X512482Y78740D01*
X511432D01*
X510907Y79265D01*
Y81364D01*
X514056D02*
X514581Y81889D01*
X515630D01*
X516155Y81364D01*
Y79265D01*
X515630Y78740D01*
X514581D01*
X514056Y79265D01*
Y81364D01*
X517205Y78740D02*
Y80839D01*
X517729D01*
X518254Y80314D01*
Y78740D01*
Y80314D01*
X518779Y80839D01*
X519304Y80314D01*
Y78740D01*
X520353D02*
Y80839D01*
X520878D01*
X521403Y80314D01*
Y78740D01*
Y80314D01*
X521927Y80839D01*
X522452Y80314D01*
Y78740D01*
X527700D02*
X526650Y79790D01*
Y80839D01*
X527700Y81889D01*
X529274Y78740D02*
X530324D01*
X529799D01*
Y81889D01*
X529274Y81364D01*
X531898Y78740D02*
X532947D01*
X532423D01*
Y81889D01*
X531898Y81364D01*
X535046Y78215D02*
X535571Y78740D01*
Y79265D01*
X535046D01*
Y78740D01*
X535571D01*
X535046Y78215D01*
X534522Y77691D01*
X537670Y81364D02*
X538195Y81889D01*
X539245D01*
X539769Y81364D01*
Y80839D01*
X539245Y80314D01*
X539769Y79790D01*
Y79265D01*
X539245Y78740D01*
X538195D01*
X537670Y79265D01*
Y79790D01*
X538195Y80314D01*
X537670Y80839D01*
Y81364D01*
X538195Y80314D02*
X539245D01*
X540819Y78740D02*
X541868D01*
X541344D01*
Y81889D01*
X540819Y81364D01*
X543443Y78740D02*
Y80839D01*
X543967D01*
X544492Y80314D01*
Y78740D01*
Y80314D01*
X545017Y80839D01*
X545542Y80314D01*
Y78740D01*
X546591D02*
X547641D01*
X547116D01*
Y80839D01*
X546591D01*
X549215Y78740D02*
X550265D01*
X549740D01*
Y81889D01*
X549215D01*
X551839Y78740D02*
X552888Y79790D01*
Y80839D01*
X551839Y81889D01*
X472991Y73490D02*
X473516Y74015D01*
X474566D01*
X475090Y73490D01*
Y72965D01*
X474566Y72440D01*
X475090Y71916D01*
Y71391D01*
X474566Y70866D01*
X473516D01*
X472991Y71391D01*
Y71916D01*
X473516Y72440D01*
X472991Y72965D01*
Y73490D01*
X473516Y72440D02*
X474566D01*
X476140Y71391D02*
X476664Y70866D01*
X477714D01*
X478239Y71391D01*
Y73490D01*
X477714Y74015D01*
X476664D01*
X476140Y73490D01*
Y72965D01*
X476664Y72440D01*
X478239D01*
X482437Y74015D02*
X484536D01*
X483487D01*
Y70866D01*
X486110D02*
X487160D01*
X487685Y71391D01*
Y72440D01*
X487160Y72965D01*
X486110D01*
X485585Y72440D01*
Y71391D01*
X486110Y70866D01*
X489259Y73490D02*
Y72965D01*
X488734D01*
X489784D01*
X489259D01*
Y71391D01*
X489784Y70866D01*
X491883Y72965D02*
X492932D01*
X493457Y72440D01*
Y70866D01*
X491883D01*
X491358Y71391D01*
X491883Y71916D01*
X493457D01*
X494507Y70866D02*
X495556D01*
X495031D01*
Y74015D01*
X494507D01*
X475090Y149606D02*
X472991D01*
X475090Y151705D01*
Y152230D01*
X474566Y152755D01*
X473516D01*
X472991Y152230D01*
X475090Y141732D02*
X472991D01*
X475090Y143831D01*
Y144356D01*
X474566Y144881D01*
X473516D01*
X472991Y144356D01*
X475090Y133858D02*
X472991D01*
X475090Y135957D01*
Y136482D01*
X474566Y137007D01*
X473516D01*
X472991Y136482D01*
X475090Y125984D02*
X472991D01*
X475090Y128083D01*
Y128608D01*
X474566Y129133D01*
X473516D01*
X472991Y128608D01*
X475090Y118110D02*
X472991D01*
X475090Y120209D01*
Y120734D01*
X474566Y121259D01*
X473516D01*
X472991Y120734D01*
Y112860D02*
X473516Y113385D01*
X474566D01*
X475090Y112860D01*
Y112335D01*
X474566Y111811D01*
X474041D01*
X474566D01*
X475090Y111286D01*
Y110761D01*
X474566Y110236D01*
X473516D01*
X472991Y110761D01*
Y104986D02*
X473516Y105511D01*
X474566D01*
X475090Y104986D01*
Y104461D01*
X474566Y103937D01*
X474041D01*
X474566D01*
X475090Y103412D01*
Y102887D01*
X474566Y102362D01*
X473516D01*
X472991Y102887D01*
X474566Y94488D02*
Y97637D01*
X472991Y96062D01*
X475090D01*
Y86614D02*
X472991D01*
X475090Y88713D01*
Y89238D01*
X474566Y89763D01*
X473516D01*
X472991Y89238D01*
X478239Y86614D02*
X476140D01*
X478239Y88713D01*
Y89238D01*
X477714Y89763D01*
X476664D01*
X476140Y89238D01*
X474566Y78740D02*
Y81889D01*
X472991Y80314D01*
X475090D01*
X476140Y81889D02*
X478239D01*
Y81364D01*
X476140Y79265D01*
Y78740D01*
X540319Y58795D02*
X542418D01*
X540319Y59845D02*
X542418D01*
X546616Y57746D02*
Y60894D01*
X548190D01*
X548715Y60369D01*
Y59320D01*
X548190Y58795D01*
X546616D01*
X547666D02*
X548715Y57746D01*
X550289D02*
X551339D01*
X551864Y58270D01*
Y59320D01*
X551339Y59845D01*
X550289D01*
X549765Y59320D01*
Y58270D01*
X550289Y57746D01*
X552913Y59845D02*
Y58270D01*
X553438Y57746D01*
X555012D01*
Y59845D01*
X556587Y60369D02*
Y59845D01*
X556062D01*
X557111D01*
X556587D01*
Y58270D01*
X557111Y57746D01*
X560260D02*
X559210D01*
X558686Y58270D01*
Y59320D01*
X559210Y59845D01*
X560260D01*
X560785Y59320D01*
Y58795D01*
X558686D01*
X563933Y60894D02*
Y57746D01*
X562359D01*
X561834Y58270D01*
Y59320D01*
X562359Y59845D01*
X563933D01*
X568131Y57746D02*
Y60894D01*
X569706D01*
X570231Y60369D01*
Y59320D01*
X569706Y58795D01*
X568131D01*
X571805Y59845D02*
X572854D01*
X573379Y59320D01*
Y57746D01*
X571805D01*
X571280Y58270D01*
X571805Y58795D01*
X573379D01*
X574954Y60369D02*
Y59845D01*
X574429D01*
X575478D01*
X574954D01*
Y58270D01*
X575478Y57746D01*
X577052Y60894D02*
Y57746D01*
Y59320D01*
X577577Y59845D01*
X578627D01*
X579152Y59320D01*
Y57746D01*
X583350Y60894D02*
Y57746D01*
X585449D01*
X588073D02*
X587023D01*
X586498Y58270D01*
Y59320D01*
X587023Y59845D01*
X588073D01*
X588597Y59320D01*
Y58795D01*
X586498D01*
X589647Y57746D02*
Y59845D01*
X591221D01*
X591746Y59320D01*
Y57746D01*
X593845Y56696D02*
X594370D01*
X594895Y57221D01*
Y59845D01*
X593320D01*
X592796Y59320D01*
Y58270D01*
X593320Y57746D01*
X594895D01*
X596469Y60369D02*
Y59845D01*
X595944D01*
X596994D01*
X596469D01*
Y58270D01*
X596994Y57746D01*
X598568Y60894D02*
Y57746D01*
Y59320D01*
X599093Y59845D01*
X600142D01*
X600667Y59320D01*
Y57746D01*
X604865Y59320D02*
X606964D01*
X605915Y60369D02*
Y58270D01*
X611162Y60894D02*
X613261D01*
X612212D01*
Y57746D01*
X614836D02*
X615885D01*
X616410Y58270D01*
Y59320D01*
X615885Y59845D01*
X614836D01*
X614311Y59320D01*
Y58270D01*
X614836Y57746D01*
X617984D02*
X619034D01*
X619558Y58270D01*
Y59320D01*
X619034Y59845D01*
X617984D01*
X617459Y59320D01*
Y58270D01*
X617984Y57746D01*
X620608D02*
X621658D01*
X621133D01*
Y60894D01*
X620608D01*
X628479Y60369D02*
X627955Y60894D01*
X626905D01*
X626380Y60369D01*
Y59845D01*
X626905Y59320D01*
X627955D01*
X628479Y58795D01*
Y58270D01*
X627955Y57746D01*
X626905D01*
X626380Y58270D01*
X629529Y57746D02*
X630579D01*
X630054D01*
Y59845D01*
X629529D01*
X632153D02*
X634252D01*
X632153Y57746D01*
X634252D01*
X636876D02*
X635826D01*
X635301Y58270D01*
Y59320D01*
X635826Y59845D01*
X636876D01*
X637400Y59320D01*
Y58795D01*
X635301D01*
X641599D02*
X643698D01*
X641599Y59845D02*
X643698D01*
X649995Y60369D02*
X649470Y60894D01*
X648421D01*
X647896Y60369D01*
Y59845D01*
X648421Y59320D01*
X649470D01*
X649995Y58795D01*
Y58270D01*
X649470Y57746D01*
X648421D01*
X647896Y58270D01*
X651044Y57746D02*
X652094D01*
X651569D01*
Y60894D01*
X651044D01*
X654193Y57746D02*
X655242D01*
X655767Y58270D01*
Y59320D01*
X655242Y59845D01*
X654193D01*
X653668Y59320D01*
Y58270D01*
X654193Y57746D01*
X657342Y60369D02*
Y59845D01*
X656817D01*
X657866D01*
X657342D01*
Y58270D01*
X657866Y57746D01*
X662589D02*
X663639D01*
X663114D01*
Y60894D01*
X662589D01*
X666787Y57746D02*
X665738D01*
X665213Y58270D01*
Y59320D01*
X665738Y59845D01*
X666787D01*
X667312Y59320D01*
Y58795D01*
X665213D01*
X668362Y57746D02*
Y59845D01*
X669936D01*
X670461Y59320D01*
Y57746D01*
X672560Y56696D02*
X673085D01*
X673609Y57221D01*
Y59845D01*
X672035D01*
X671510Y59320D01*
Y58270D01*
X672035Y57746D01*
X673609D01*
X675184Y60369D02*
Y59845D01*
X674659D01*
X675708D01*
X675184D01*
Y58270D01*
X675708Y57746D01*
X677283Y60894D02*
Y57746D01*
Y59320D01*
X677807Y59845D01*
X678857D01*
X679382Y59320D01*
Y57746D01*
X684105Y59845D02*
X685154D01*
X685679Y59320D01*
Y57746D01*
X684105D01*
X683580Y58270D01*
X684105Y58795D01*
X685679D01*
X686728Y57746D02*
X688303D01*
X688828Y58270D01*
X688303Y58795D01*
X687253D01*
X686728Y59320D01*
X687253Y59845D01*
X688828D01*
X695125Y60894D02*
Y57746D01*
X693550D01*
X693026Y58270D01*
Y59320D01*
X693550Y59845D01*
X695125D01*
X697749Y57746D02*
X696699D01*
X696174Y58270D01*
Y59320D01*
X696699Y59845D01*
X697749D01*
X698273Y59320D01*
Y58795D01*
X696174D01*
X699848Y57746D02*
Y60369D01*
Y59320D01*
X699323D01*
X700372D01*
X699848D01*
Y60369D01*
X700372Y60894D01*
X701947Y57746D02*
X702996D01*
X702471D01*
Y59845D01*
X701947D01*
X704570Y57746D02*
Y59845D01*
X706145D01*
X706670Y59320D01*
Y57746D01*
X709293D02*
X708244D01*
X707719Y58270D01*
Y59320D01*
X708244Y59845D01*
X709293D01*
X709818Y59320D01*
Y58795D01*
X707719D01*
X712967Y60894D02*
Y57746D01*
X711392D01*
X710868Y58270D01*
Y59320D01*
X711392Y59845D01*
X712967D01*
X717165Y57746D02*
X718214D01*
X717690D01*
Y59845D01*
X717165D01*
X719789Y57746D02*
Y59845D01*
X721363D01*
X721888Y59320D01*
Y57746D01*
X726611Y60369D02*
Y59845D01*
X726086D01*
X727135D01*
X726611D01*
Y58270D01*
X727135Y57746D01*
X728710Y60894D02*
Y57746D01*
Y59320D01*
X729234Y59845D01*
X730284D01*
X730809Y59320D01*
Y57746D01*
X733432D02*
X732383D01*
X731858Y58270D01*
Y59320D01*
X732383Y59845D01*
X733432D01*
X733957Y59320D01*
Y58795D01*
X731858D01*
X738155Y57746D02*
Y60894D01*
X739730D01*
X740254Y60369D01*
Y59320D01*
X739730Y58795D01*
X738155D01*
X743403Y60369D02*
X742878Y60894D01*
X741829D01*
X741304Y60369D01*
Y58270D01*
X741829Y57746D01*
X742878D01*
X743403Y58270D01*
X744453Y60894D02*
Y57746D01*
X746027D01*
X746552Y58270D01*
Y58795D01*
X746027Y59320D01*
X744453D01*
X746027D01*
X746552Y59845D01*
Y60369D01*
X746027Y60894D01*
X744453D01*
X750750Y57746D02*
X751799D01*
X751275D01*
Y60894D01*
X750750D01*
X753898Y59845D02*
X754948D01*
X755473Y59320D01*
Y57746D01*
X753898D01*
X753374Y58270D01*
X753898Y58795D01*
X755473D01*
X756522Y59845D02*
Y58270D01*
X757047Y57746D01*
X758621D01*
Y57221D01*
X758097Y56696D01*
X757572D01*
X758621Y57746D02*
Y59845D01*
X760196Y57746D02*
X761245D01*
X761770Y58270D01*
Y59320D01*
X761245Y59845D01*
X760196D01*
X759671Y59320D01*
Y58270D01*
X760196Y57746D01*
X762819Y59845D02*
Y58270D01*
X763344Y57746D01*
X764919D01*
Y59845D01*
X766493Y60369D02*
Y59845D01*
X765968D01*
X767018D01*
X766493D01*
Y58270D01*
X767018Y57746D01*
X558686Y64174D02*
X560785D01*
X558686Y65224D02*
X560785D01*
X567082Y65749D02*
X566557Y66273D01*
X565508D01*
X564983Y65749D01*
Y63650D01*
X565508Y63125D01*
X566557D01*
X567082Y63650D01*
X568656Y65224D02*
X569706D01*
X570231Y64699D01*
Y63125D01*
X568656D01*
X568131Y63650D01*
X568656Y64174D01*
X570231D01*
X571280Y63125D02*
X572330D01*
X571805D01*
Y66273D01*
X571280D01*
X576003Y65224D02*
X574429D01*
X573904Y64699D01*
Y63650D01*
X574429Y63125D01*
X576003D01*
X577052Y65224D02*
Y63650D01*
X577577Y63125D01*
X579152D01*
Y65224D01*
X580201Y63125D02*
X581251D01*
X580726D01*
Y66273D01*
X580201D01*
X583350Y65224D02*
X584399D01*
X584924Y64699D01*
Y63125D01*
X583350D01*
X582825Y63650D01*
X583350Y64174D01*
X584924D01*
X586498Y65749D02*
Y65224D01*
X585974D01*
X587023D01*
X586498D01*
Y63650D01*
X587023Y63125D01*
X590172D02*
X589122D01*
X588597Y63650D01*
Y64699D01*
X589122Y65224D01*
X590172D01*
X590696Y64699D01*
Y64174D01*
X588597D01*
X593845Y66273D02*
Y63125D01*
X592271D01*
X591746Y63650D01*
Y64699D01*
X592271Y65224D01*
X593845D01*
X598568Y63125D02*
Y65749D01*
Y64699D01*
X598043D01*
X599093D01*
X598568D01*
Y65749D01*
X599093Y66273D01*
X600667Y65224D02*
Y63125D01*
Y64174D01*
X601192Y64699D01*
X601717Y65224D01*
X602241D01*
X604340Y63125D02*
X605390D01*
X605915Y63650D01*
Y64699D01*
X605390Y65224D01*
X604340D01*
X603816Y64699D01*
Y63650D01*
X604340Y63125D01*
X606964D02*
Y65224D01*
X607489D01*
X608014Y64699D01*
Y63125D01*
Y64699D01*
X608538Y65224D01*
X609063Y64699D01*
Y63125D01*
X613786Y65749D02*
Y65224D01*
X613261D01*
X614311D01*
X613786D01*
Y63650D01*
X614311Y63125D01*
X616410D02*
X617459D01*
X617984Y63650D01*
Y64699D01*
X617459Y65224D01*
X616410D01*
X615885Y64699D01*
Y63650D01*
X616410Y63125D01*
X619558D02*
X620608D01*
X621133Y63650D01*
Y64699D01*
X620608Y65224D01*
X619558D01*
X619034Y64699D01*
Y63650D01*
X619558Y63125D01*
X622182D02*
X623232D01*
X622707D01*
Y66273D01*
X622182D01*
X627955Y63125D02*
X629529D01*
X630054Y63650D01*
X629529Y64174D01*
X628479D01*
X627955Y64699D01*
X628479Y65224D01*
X630054D01*
X631628Y65749D02*
Y65224D01*
X631103D01*
X632153D01*
X631628D01*
Y63650D01*
X632153Y63125D01*
X634252Y65224D02*
X635301D01*
X635826Y64699D01*
Y63125D01*
X634252D01*
X633727Y63650D01*
X634252Y64174D01*
X635826D01*
X636876Y65224D02*
Y63125D01*
Y64174D01*
X637400Y64699D01*
X637925Y65224D01*
X638450D01*
X640549Y65749D02*
Y65224D01*
X640024D01*
X641074D01*
X640549D01*
Y63650D01*
X641074Y63125D01*
X647896Y65224D02*
X646321D01*
X645797Y64699D01*
Y63650D01*
X646321Y63125D01*
X647896D01*
X650520D02*
X649470D01*
X648945Y63650D01*
Y64699D01*
X649470Y65224D01*
X650520D01*
X651044Y64699D01*
Y64174D01*
X648945D01*
X652094Y63125D02*
Y65224D01*
X653668D01*
X654193Y64699D01*
Y63125D01*
X655767Y65749D02*
Y65224D01*
X655242D01*
X656292D01*
X655767D01*
Y63650D01*
X656292Y63125D01*
X657866Y65224D02*
Y63125D01*
Y64174D01*
X658391Y64699D01*
X658916Y65224D01*
X659441D01*
X662589Y63125D02*
X661540D01*
X661015Y63650D01*
Y64699D01*
X661540Y65224D01*
X662589D01*
X663114Y64699D01*
Y64174D01*
X661015D01*
X667312Y62075D02*
Y65224D01*
X668886D01*
X669411Y64699D01*
Y63650D01*
X668886Y63125D01*
X667312D01*
X670986D02*
X672035D01*
X672560Y63650D01*
Y64699D01*
X672035Y65224D01*
X670986D01*
X670461Y64699D01*
Y63650D01*
X670986Y63125D01*
X673609D02*
X675184D01*
X675708Y63650D01*
X675184Y64174D01*
X674134D01*
X673609Y64699D01*
X674134Y65224D01*
X675708D01*
X676758Y63125D02*
X677807D01*
X677283D01*
Y65224D01*
X676758D01*
X679907Y65749D02*
Y65224D01*
X679382D01*
X680431D01*
X679907D01*
Y63650D01*
X680431Y63125D01*
X682006D02*
X683055D01*
X682530D01*
Y65224D01*
X682006D01*
X685154Y63125D02*
X686204D01*
X686728Y63650D01*
Y64699D01*
X686204Y65224D01*
X685154D01*
X684629Y64699D01*
Y63650D01*
X685154Y63125D01*
X687778D02*
Y65224D01*
X689352D01*
X689877Y64699D01*
Y63125D01*
X694600Y65749D02*
Y65224D01*
X694075D01*
X695125D01*
X694600D01*
Y63650D01*
X695125Y63125D01*
X697224D02*
X698273D01*
X698798Y63650D01*
Y64699D01*
X698273Y65224D01*
X697224D01*
X696699Y64699D01*
Y63650D01*
X697224Y63125D01*
X703521Y65749D02*
Y65224D01*
X702996D01*
X704046D01*
X703521D01*
Y63650D01*
X704046Y63125D01*
X706145D02*
X707194D01*
X707719Y63650D01*
Y64699D01*
X707194Y65224D01*
X706145D01*
X705620Y64699D01*
Y63650D01*
X706145Y63125D01*
X709293D02*
X710343D01*
X710868Y63650D01*
Y64699D01*
X710343Y65224D01*
X709293D01*
X708769Y64699D01*
Y63650D01*
X709293Y63125D01*
X711917D02*
X712967D01*
X712442D01*
Y66273D01*
X711917D01*
X719264Y63125D02*
X718214D01*
X717690Y63650D01*
Y64699D01*
X718214Y65224D01*
X719264D01*
X719789Y64699D01*
Y64174D01*
X717690D01*
X720838Y63125D02*
Y65224D01*
X722412D01*
X722937Y64699D01*
Y63125D01*
X726086Y66273D02*
Y63125D01*
X724512D01*
X723987Y63650D01*
Y64699D01*
X724512Y65224D01*
X726086D01*
X732383D02*
X730809D01*
X730284Y64699D01*
Y63650D01*
X730809Y63125D01*
X732383D01*
X735007D02*
X733957D01*
X733433Y63650D01*
Y64699D01*
X733957Y65224D01*
X735007D01*
X735532Y64699D01*
Y64174D01*
X733433D01*
X736581Y63125D02*
Y65224D01*
X738156D01*
X738680Y64699D01*
Y63125D01*
X740254Y65749D02*
Y65224D01*
X739730D01*
X740779D01*
X740254D01*
Y63650D01*
X740779Y63125D01*
X742354Y65224D02*
Y63125D01*
Y64174D01*
X742878Y64699D01*
X743403Y65224D01*
X743928D01*
X747077Y63125D02*
X746027D01*
X745502Y63650D01*
Y64699D01*
X746027Y65224D01*
X747077D01*
X747601Y64699D01*
Y64174D01*
X745502D01*
X751799Y62075D02*
Y65224D01*
X753374D01*
X753898Y64699D01*
Y63650D01*
X753374Y63125D01*
X751799D01*
X755473D02*
X756522D01*
X757047Y63650D01*
Y64699D01*
X756522Y65224D01*
X755473D01*
X754948Y64699D01*
Y63650D01*
X755473Y63125D01*
X758097D02*
X759671D01*
X760196Y63650D01*
X759671Y64174D01*
X758621D01*
X758097Y64699D01*
X758621Y65224D01*
X760196D01*
X761245Y63125D02*
X762295D01*
X761770D01*
Y65224D01*
X761245D01*
X764394Y65749D02*
Y65224D01*
X763869D01*
X764919D01*
X764394D01*
Y63650D01*
X764919Y63125D01*
X766493D02*
X767542D01*
X767018D01*
Y65224D01*
X766493D01*
X769641Y63125D02*
X770691D01*
X771216Y63650D01*
Y64699D01*
X770691Y65224D01*
X769641D01*
X769117Y64699D01*
Y63650D01*
X769641Y63125D01*
X772265D02*
Y65224D01*
X773840D01*
X774364Y64699D01*
Y63125D01*
X775414D02*
Y63650D01*
X775939D01*
Y63125D01*
X775414D01*
D11*
X1220472Y-240158D02*
Y-200787D01*
X1062992Y-161417D02*
X1338583D01*
X1062992Y-200787D02*
X1338583D01*
X866142Y-240158D02*
X1338583D01*
X866142Y-122047D02*
X1338583D01*
X866142Y-279527D02*
Y-122047D01*
X1062992Y-279527D02*
Y-122047D01*
X-314961Y889764D02*
X1338583D01*
Y-279527D02*
Y889764D01*
X-314961Y-279527D02*
Y889764D01*
Y-279527D02*
X1338583D01*
X1076770Y-265750D02*
X1072835D01*
Y-268702D01*
X1074802D01*
X1072835D01*
Y-271654D01*
X1078738Y-267718D02*
Y-271654D01*
Y-269686D01*
X1079722Y-268702D01*
X1080706Y-267718D01*
X1081690D01*
X1084642Y-271654D02*
X1086610D01*
X1085626D01*
Y-267718D01*
X1084642D01*
X1089561Y-266734D02*
X1090545Y-265750D01*
X1092513D01*
X1093497Y-266734D01*
Y-267718D01*
X1092513Y-268702D01*
X1091529D01*
X1092513D01*
X1093497Y-269686D01*
Y-270670D01*
X1092513Y-271654D01*
X1090545D01*
X1089561Y-270670D01*
X1095465Y-265750D02*
Y-271654D01*
X1098417D01*
X1099401Y-270670D01*
Y-266734D01*
X1098417Y-265750D01*
X1095465D01*
X1101369Y-272638D02*
X1105304D01*
X1107272Y-265750D02*
Y-271654D01*
X1110224D01*
X1111208Y-270670D01*
Y-269686D01*
X1110224Y-268702D01*
X1107272D01*
X1110224D01*
X1111208Y-267718D01*
Y-266734D01*
X1110224Y-265750D01*
X1107272D01*
X1114160Y-271654D02*
X1116128D01*
X1117112Y-270670D01*
Y-268702D01*
X1116128Y-267718D01*
X1114160D01*
X1113176Y-268702D01*
Y-270670D01*
X1114160Y-271654D01*
X1120063Y-266734D02*
Y-267718D01*
X1119079D01*
X1121047D01*
X1120063D01*
Y-270670D01*
X1121047Y-271654D01*
X1123999Y-272638D02*
X1127935D01*
X1133838Y-271654D02*
X1129903D01*
X1133838Y-267718D01*
Y-266734D01*
X1132855Y-265750D01*
X1130887D01*
X1129903Y-266734D01*
X1135806D02*
X1136790Y-265750D01*
X1138758D01*
X1139742Y-266734D01*
Y-270670D01*
X1138758Y-271654D01*
X1136790D01*
X1135806Y-270670D01*
Y-266734D01*
X1141710Y-271654D02*
X1143678D01*
X1142694D01*
Y-265750D01*
X1141710Y-266734D01*
X1146630D02*
X1147614Y-265750D01*
X1149582D01*
X1150565Y-266734D01*
Y-267718D01*
X1149582Y-268702D01*
X1150565Y-269686D01*
Y-270670D01*
X1149582Y-271654D01*
X1147614D01*
X1146630Y-270670D01*
Y-269686D01*
X1147614Y-268702D01*
X1146630Y-267718D01*
Y-266734D01*
X1147614Y-268702D02*
X1149582D01*
X1152533Y-272638D02*
X1156469D01*
X1158437Y-266734D02*
X1159421Y-265750D01*
X1161389D01*
X1162373Y-266734D01*
Y-270670D01*
X1161389Y-271654D01*
X1159421D01*
X1158437Y-270670D01*
Y-266734D01*
X1164340D02*
X1165324Y-265750D01*
X1167292D01*
X1168276Y-266734D01*
Y-270670D01*
X1167292Y-271654D01*
X1165324D01*
X1164340Y-270670D01*
Y-266734D01*
X1170244Y-271654D02*
Y-270670D01*
X1171228D01*
Y-271654D01*
X1170244D01*
X1175164D02*
Y-265750D01*
X1178115D01*
X1179099Y-266734D01*
Y-268702D01*
X1178115Y-269686D01*
X1175164D01*
X1185003Y-267718D02*
X1182051D01*
X1181067Y-268702D01*
Y-270670D01*
X1182051Y-271654D01*
X1185003D01*
X1186971Y-265750D02*
Y-271654D01*
X1189923D01*
X1190907Y-270670D01*
Y-269686D01*
Y-268702D01*
X1189923Y-267718D01*
X1186971D01*
X1192875Y-265750D02*
Y-271654D01*
X1195826D01*
X1196810Y-270670D01*
Y-266734D01*
X1195826Y-265750D01*
X1192875D01*
X1199762Y-271654D02*
X1201730D01*
X1202714Y-270670D01*
Y-268702D01*
X1201730Y-267718D01*
X1199762D01*
X1198778Y-268702D01*
Y-270670D01*
X1199762Y-271654D01*
X1208617Y-267718D02*
X1205666D01*
X1204682Y-268702D01*
Y-270670D01*
X1205666Y-271654D01*
X1208617D01*
D12*
X887795Y-257879D02*
Y-273622D01*
X893043Y-268374D01*
X898291Y-273622D01*
Y-257879D01*
X903538Y-273622D02*
X908786D01*
X906162D01*
Y-263127D01*
X903538D01*
X916657Y-273622D02*
Y-263127D01*
X919281D01*
X921905Y-265751D01*
Y-273622D01*
Y-265751D01*
X924529Y-263127D01*
X927153Y-265751D01*
Y-273622D01*
X932400Y-257879D02*
Y-268374D01*
X937648Y-273622D01*
X942896Y-268374D01*
Y-257879D01*
X958638Y-260503D02*
X956015Y-257879D01*
X950767D01*
X948143Y-260503D01*
Y-270998D01*
X950767Y-273622D01*
X956015D01*
X958638Y-270998D01*
Y-265751D01*
X953391D01*
X1242126Y-221133D02*
X1244750Y-218509D01*
X1249998D01*
X1252621Y-221133D01*
Y-231628D01*
X1249998Y-234252D01*
X1244750D01*
X1242126Y-231628D01*
Y-221133D01*
X1257869D02*
X1260493Y-218509D01*
X1265740D01*
X1268364Y-221133D01*
Y-231628D01*
X1265740Y-234252D01*
X1260493D01*
X1257869Y-231628D01*
Y-221133D01*
X1078740Y-234252D02*
X1083332D01*
X1081036D01*
Y-220477D01*
X1078740Y-222773D01*
X1099403Y-234252D02*
X1090219D01*
X1099403Y-225069D01*
Y-222773D01*
X1097107Y-220477D01*
X1092515D01*
X1090219Y-222773D01*
X1103994Y-234252D02*
X1113178Y-225069D01*
X1117770Y-222773D02*
X1120065Y-220477D01*
X1124657D01*
X1126953Y-222773D01*
Y-231956D01*
X1124657Y-234252D01*
X1120065D01*
X1117770Y-231956D01*
Y-222773D01*
X1140728Y-220477D02*
X1136136Y-222773D01*
X1131545Y-227364D01*
Y-231956D01*
X1133840Y-234252D01*
X1138432D01*
X1140728Y-231956D01*
Y-229660D01*
X1138432Y-227364D01*
X1131545D01*
X1145320Y-234252D02*
X1154503Y-225069D01*
X1168278Y-234252D02*
X1159095D01*
X1168278Y-225069D01*
Y-222773D01*
X1165982Y-220477D01*
X1161391D01*
X1159095Y-222773D01*
X1172870D02*
X1175166Y-220477D01*
X1179757D01*
X1182053Y-222773D01*
Y-231956D01*
X1179757Y-234252D01*
X1175166D01*
X1172870Y-231956D01*
Y-222773D01*
X1186645Y-234252D02*
X1191237D01*
X1188941D01*
Y-220477D01*
X1186645Y-222773D01*
X1198124D02*
X1200420Y-220477D01*
X1205012D01*
X1207308Y-222773D01*
Y-225069D01*
X1205012Y-227364D01*
X1207308Y-229660D01*
Y-231956D01*
X1205012Y-234252D01*
X1200420D01*
X1198124Y-231956D01*
Y-229660D01*
X1200420Y-227364D01*
X1198124Y-225069D01*
Y-222773D01*
X1200420Y-227364D02*
X1205012D01*
X1083330Y-139769D02*
X1072835D01*
Y-147640D01*
X1078082D01*
X1072835D01*
Y-155512D01*
X1088578Y-145017D02*
Y-155512D01*
Y-150264D01*
X1091201Y-147640D01*
X1093825Y-145017D01*
X1096449D01*
X1104321Y-155512D02*
X1109568D01*
X1106944D01*
Y-145017D01*
X1104321D01*
X1117440Y-142393D02*
X1120063Y-139769D01*
X1125311D01*
X1127935Y-142393D01*
Y-145017D01*
X1125311Y-147640D01*
X1122687D01*
X1125311D01*
X1127935Y-150264D01*
Y-152888D01*
X1125311Y-155512D01*
X1120063D01*
X1117440Y-152888D01*
X1133183Y-139769D02*
Y-155512D01*
X1141054D01*
X1143678Y-152888D01*
Y-142393D01*
X1141054Y-139769D01*
X1133183D01*
X1164668D02*
Y-155512D01*
X1172540D01*
X1175164Y-152888D01*
Y-150264D01*
X1172540Y-147640D01*
X1164668D01*
X1172540D01*
X1175164Y-145017D01*
Y-142393D01*
X1172540Y-139769D01*
X1164668D01*
X1183035Y-155512D02*
X1188283D01*
X1190907Y-152888D01*
Y-147640D01*
X1188283Y-145017D01*
X1183035D01*
X1180411Y-147640D01*
Y-152888D01*
X1183035Y-155512D01*
X1198778Y-142393D02*
Y-145017D01*
X1196154D01*
X1201402D01*
X1198778D01*
Y-152888D01*
X1201402Y-155512D01*
X1235512D02*
X1225016D01*
X1235512Y-145017D01*
Y-142393D01*
X1232888Y-139769D01*
X1227640D01*
X1225016Y-142393D01*
X1240759D02*
X1243383Y-139769D01*
X1248631D01*
X1251255Y-142393D01*
Y-152888D01*
X1248631Y-155512D01*
X1243383D01*
X1240759Y-152888D01*
Y-142393D01*
X1256502Y-155512D02*
X1261750D01*
X1259126D01*
Y-139769D01*
X1256502Y-142393D01*
X1269621D02*
X1272245Y-139769D01*
X1277493D01*
X1280117Y-142393D01*
Y-145017D01*
X1277493Y-147640D01*
X1280117Y-150264D01*
Y-152888D01*
X1277493Y-155512D01*
X1272245D01*
X1269621Y-152888D01*
Y-150264D01*
X1272245Y-147640D01*
X1269621Y-145017D01*
Y-142393D01*
X1272245Y-147640D02*
X1277493D01*
X1084646Y-179138D02*
Y-192913D01*
X1091533D01*
X1093829Y-190618D01*
Y-181434D01*
X1091533Y-179138D01*
X1084646D01*
X1098421Y-183730D02*
Y-192913D01*
Y-188322D01*
X1100717Y-186026D01*
X1103012Y-183730D01*
X1105308D01*
X1112196Y-192913D02*
X1116788D01*
X1114492D01*
Y-183730D01*
X1112196D01*
X1123675Y-192913D02*
X1128267D01*
X1125971D01*
Y-179138D01*
X1123675D01*
X1135154Y-192913D02*
X1139746D01*
X1137450D01*
Y-179138D01*
X1135154D01*
X1160409D02*
Y-192913D01*
X1167296D01*
X1169592Y-190618D01*
Y-181434D01*
X1167296Y-179138D01*
X1160409D01*
X1174184Y-183730D02*
Y-192913D01*
Y-188322D01*
X1176480Y-186026D01*
X1178775Y-183730D01*
X1181071D01*
X1190255D02*
X1194846D01*
X1197142Y-186026D01*
Y-192913D01*
X1190255D01*
X1187959Y-190618D01*
X1190255Y-188322D01*
X1197142D01*
X1201734Y-183730D02*
Y-190618D01*
X1204030Y-192913D01*
X1206326Y-190618D01*
X1208621Y-192913D01*
X1210917Y-190618D01*
Y-183730D01*
X1215509Y-192913D02*
X1220101D01*
X1217805D01*
Y-183730D01*
X1215509D01*
X1226988Y-192913D02*
Y-183730D01*
X1233876D01*
X1236172Y-186026D01*
Y-192913D01*
X1245355Y-197505D02*
X1247651D01*
X1249947Y-195209D01*
Y-183730D01*
X1243059D01*
X1240763Y-186026D01*
Y-190618D01*
X1243059Y-192913D01*
X1249947D01*
D13*
X220079Y-5512D02*
G03*
X221124Y-5079I0J1478D01*
G01*
X-88976Y11417D02*
G03*
X-93808Y20102I-9186J576D01*
G01*
X122047Y80315D02*
G03*
X104350Y91778I-17798J-8084D01*
G01*
X122047Y80315D02*
G03*
X148709Y67117I19930J6732D01*
G01*
X303920Y98009D02*
G03*
X241198Y100781I-35836J-99864D01*
G01*
X-25290Y93891D02*
G03*
X-26039Y92176I49746J-22737D01*
G01*
X-24650Y95231D02*
G03*
X-25290Y93891I37053J-18520D01*
G01*
X252954Y28989D02*
G03*
X251345Y26499I97495J-64732D01*
G01*
X88003Y92008D02*
G03*
X96724Y91620I9143J107375D01*
G01*
X58256Y96759D02*
G03*
X79123Y92989I57900J260881D01*
G01*
X299059Y92037D02*
G03*
X288109Y78003I689746J-549456D01*
G01*
X-18818Y87038D02*
G03*
X-26039Y92176I-18589J-18482D01*
G01*
X265321Y47092D02*
G03*
X252954Y28989I544208J-385077D01*
G01*
X79123Y92989D02*
G03*
X88003Y92008I22956J167117D01*
G01*
X0Y89089D02*
G03*
X-18818Y87038I45215J-502226D01*
G01*
X288109Y78003D02*
G03*
X265321Y47092I799750J-613435D01*
G01*
X226550Y347D02*
G03*
X249065Y22879I-41650J64135D01*
G01*
X51174Y91898D02*
G03*
X-0Y89089I14105J-724334D01*
G01*
X-145330Y173277D02*
G03*
X-86739Y131936I200536J222018D01*
G01*
X-148246Y93981D02*
G03*
X-137625Y67500I211253J69358D01*
G01*
X-57761Y116714D02*
G03*
X-27567Y102869I278773J568121D01*
G01*
X-86739Y131936D02*
G03*
X-57761Y116714I282214J502084D01*
G01*
X-114850Y34109D02*
G03*
X-93808Y20102I43198J42085D01*
G01*
X-161884Y152107D02*
G03*
X-148246Y93981I346762J50699D01*
G01*
X-126304Y47878D02*
G03*
X-114850Y34109I79916J54830D01*
G01*
X-137625Y67500D02*
G03*
X-126304Y47878I130709J62335D01*
G01*
X-162411Y156057D02*
G03*
X-161884Y152107I151421J18180D01*
G01*
X221124Y-5079D02*
X226550Y347D01*
X-88976Y-5512D02*
X220079D01*
X-88976D02*
Y11417D01*
X148709Y67117D02*
X241198Y100781D01*
X249065Y22879D02*
X249817Y24061D01*
X96724Y91620D02*
X99918D01*
X-24650Y95231D02*
Y95370D01*
X249817Y24061D02*
X250574Y25270D01*
X251345Y26499D01*
X54229Y97731D02*
X58256Y96759D01*
X-24650Y95370D02*
X-22151Y100647D01*
X99918Y91620D02*
X104350Y91778D01*
X51174Y91898D02*
X52285Y94120D01*
X299059Y92037D02*
X303920Y98009D01*
X52285Y94120D02*
X54229Y97731D01*
X-150190Y177860D02*
X-145330Y173277D01*
X-161578Y159668D02*
X-153384Y172166D01*
X-27567Y102869D02*
X-22151Y100647D01*
X-153384Y172166D02*
X-150190Y177860D01*
X-162689Y158001D02*
X-161578Y159668D01*
X-162689Y158001D02*
X-162411Y156057D01*
D14*
X1224409Y-212598D02*
Y-204727D01*
X1228345D01*
X1229657Y-206039D01*
Y-208663D01*
X1228345Y-209975D01*
X1224409D01*
X1227033D02*
X1229657Y-212598D01*
X1236217D02*
X1233593D01*
X1232281Y-211286D01*
Y-208663D01*
X1233593Y-207351D01*
X1236217D01*
X1237529Y-208663D01*
Y-209975D01*
X1232281D01*
X1240152Y-207351D02*
X1242776Y-212598D01*
X1245400Y-207351D01*
X870079Y-244097D02*
Y-251969D01*
X874014D01*
X875326Y-250657D01*
Y-245409D01*
X874014Y-244097D01*
X870079D01*
X881886Y-251969D02*
X879262D01*
X877950Y-250657D01*
Y-248033D01*
X879262Y-246721D01*
X881886D01*
X883198Y-248033D01*
Y-249345D01*
X877950D01*
X885822Y-251969D02*
X889757D01*
X891069Y-250657D01*
X889757Y-249345D01*
X887134D01*
X885822Y-248033D01*
X887134Y-246721D01*
X891069D01*
X896317Y-254592D02*
X897629D01*
X898941Y-253280D01*
Y-246721D01*
X895005D01*
X893693Y-248033D01*
Y-250657D01*
X895005Y-251969D01*
X898941D01*
X901565D02*
X904189D01*
X902877D01*
Y-246721D01*
X901565D01*
X908124Y-251969D02*
Y-246721D01*
X912060D01*
X913372Y-248033D01*
Y-251969D01*
X919931D02*
X917308D01*
X915996Y-250657D01*
Y-248033D01*
X917308Y-246721D01*
X919931D01*
X921243Y-248033D01*
Y-249345D01*
X915996D01*
X923867Y-246721D02*
Y-251969D01*
Y-249345D01*
X925179Y-248033D01*
X926491Y-246721D01*
X927803D01*
X1066929Y-125987D02*
Y-133858D01*
X1070865D01*
X1072177Y-132546D01*
Y-127299D01*
X1070865Y-125987D01*
X1066929D01*
X1076112Y-133858D02*
X1078736D01*
X1080048Y-132546D01*
Y-129922D01*
X1078736Y-128611D01*
X1076112D01*
X1074801Y-129922D01*
Y-132546D01*
X1076112Y-133858D01*
X1087920Y-128611D02*
X1083984D01*
X1082672Y-129922D01*
Y-132546D01*
X1083984Y-133858D01*
X1087920D01*
X1090544Y-128611D02*
Y-132546D01*
X1091856Y-133858D01*
X1095791D01*
Y-128611D01*
X1098415Y-133858D02*
Y-128611D01*
X1099727D01*
X1101039Y-129922D01*
Y-133858D01*
Y-129922D01*
X1102351Y-128611D01*
X1103663Y-129922D01*
Y-133858D01*
X1110222D02*
X1107598D01*
X1106287Y-132546D01*
Y-129922D01*
X1107598Y-128611D01*
X1110222D01*
X1111534Y-129922D01*
Y-131234D01*
X1106287D01*
X1114158Y-133858D02*
Y-128611D01*
X1118094D01*
X1119406Y-129922D01*
Y-133858D01*
X1123341Y-127299D02*
Y-128611D01*
X1122029D01*
X1124653D01*
X1123341D01*
Y-132546D01*
X1124653Y-133858D01*
X1066929Y-165357D02*
Y-173228D01*
X1072177D01*
X1076112Y-167981D02*
X1078736D01*
X1080048Y-169293D01*
Y-173228D01*
X1076112D01*
X1074801Y-171916D01*
X1076112Y-170605D01*
X1080048D01*
X1082672Y-167981D02*
Y-171916D01*
X1083984Y-173228D01*
X1087920D01*
Y-174540D01*
X1086608Y-175852D01*
X1085296D01*
X1087920Y-173228D02*
Y-167981D01*
X1094479Y-173228D02*
X1091856D01*
X1090544Y-171916D01*
Y-169293D01*
X1091856Y-167981D01*
X1094479D01*
X1095791Y-169293D01*
Y-170605D01*
X1090544D01*
X1098415Y-167981D02*
Y-173228D01*
Y-170605D01*
X1099727Y-169293D01*
X1101039Y-167981D01*
X1102351D01*
X1114158Y-173228D02*
Y-165357D01*
X1119406Y-173228D01*
Y-165357D01*
X1123341Y-167981D02*
X1125965D01*
X1127277Y-169293D01*
Y-173228D01*
X1123341D01*
X1122029Y-171916D01*
X1123341Y-170605D01*
X1127277D01*
X1129901Y-173228D02*
Y-167981D01*
X1131213D01*
X1132525Y-169293D01*
Y-173228D01*
Y-169293D01*
X1133837Y-167981D01*
X1135149Y-169293D01*
Y-173228D01*
X1141708D02*
X1139084D01*
X1137772Y-171916D01*
Y-169293D01*
X1139084Y-167981D01*
X1141708D01*
X1143020Y-169293D01*
Y-170605D01*
X1137772D01*
X1066929Y-204727D02*
Y-212598D01*
X1070865D01*
X1072177Y-211286D01*
Y-206039D01*
X1070865Y-204727D01*
X1066929D01*
X1076112Y-207351D02*
X1078736D01*
X1080048Y-208663D01*
Y-212598D01*
X1076112D01*
X1074801Y-211286D01*
X1076112Y-209975D01*
X1080048D01*
X1083984Y-206039D02*
Y-207351D01*
X1082672D01*
X1085296D01*
X1083984D01*
Y-211286D01*
X1085296Y-212598D01*
X1093167D02*
X1090544D01*
X1089232Y-211286D01*
Y-208663D01*
X1090544Y-207351D01*
X1093167D01*
X1094479Y-208663D01*
Y-209975D01*
X1089232D01*
X1066929Y-244097D02*
Y-251969D01*
X1070865D01*
X1072177Y-250657D01*
Y-245409D01*
X1070865Y-244097D01*
X1066929D01*
X1076112Y-251969D02*
X1078736D01*
X1080048Y-250657D01*
Y-248033D01*
X1078736Y-246721D01*
X1076112D01*
X1074801Y-248033D01*
Y-250657D01*
X1076112Y-251969D01*
X1087920Y-246721D02*
X1083984D01*
X1082672Y-248033D01*
Y-250657D01*
X1083984Y-251969D01*
X1087920D01*
X1090544Y-246721D02*
Y-250657D01*
X1091856Y-251969D01*
X1095791D01*
Y-246721D01*
X1098415Y-251969D02*
Y-246721D01*
X1099727D01*
X1101039Y-248033D01*
Y-251969D01*
Y-248033D01*
X1102351Y-246721D01*
X1103663Y-248033D01*
Y-251969D01*
X1110222D02*
X1107598D01*
X1106287Y-250657D01*
Y-248033D01*
X1107598Y-246721D01*
X1110222D01*
X1111534Y-248033D01*
Y-249345D01*
X1106287D01*
X1114158Y-251969D02*
Y-246721D01*
X1118094D01*
X1119406Y-248033D01*
Y-251969D01*
X1123341Y-245409D02*
Y-246721D01*
X1122029D01*
X1124653D01*
X1123341D01*
Y-250657D01*
X1124653Y-251969D01*
D90*
X-133102Y488D02*
X-131102Y-5512D01*
X-129102Y488D01*
X-131102Y37402D02*
X-129102Y31402D01*
X-133102D02*
X-131102Y37402D01*
Y-5512D02*
Y15945D01*
Y37402D01*
X-132102Y-5512D02*
X-92913D01*
X-132102Y37402D02*
X-88386D01*
X-83362Y-13811D02*
X-77362Y-11811D01*
X-83362Y-9811D02*
X-77362Y-11811D01*
X-88976D02*
X-82976Y-9811D01*
X-88976Y-11811D02*
X-82976Y-13811D01*
X-83169Y-11811D02*
X-77362D01*
X-88976D02*
X-83169D01*
X-77362Y-12811D02*
Y26378D01*
X-88976Y-12811D02*
Y-9449D01*
D91*
X-137795Y3937D02*
Y5936D01*
Y4937D01*
X-143793D01*
X-142794Y3937D01*
Y8935D02*
X-143793Y9935D01*
Y11934D01*
X-142794Y12934D01*
X-138795D01*
X-137795Y11934D01*
Y9935D01*
X-138795Y8935D01*
X-142794D01*
X-136796Y15933D02*
X-137795Y16933D01*
X-138795D01*
Y15933D01*
X-137795D01*
Y16933D01*
X-136796Y15933D01*
X-135796Y14933D01*
X-138795Y20932D02*
X-137795Y21931D01*
Y23931D01*
X-138795Y24930D01*
X-142794D01*
X-143793Y23931D01*
Y21931D01*
X-142794Y20932D01*
X-141794D01*
X-140794Y21931D01*
Y24930D01*
X-142794Y26930D02*
X-143793Y27929D01*
Y29929D01*
X-142794Y30928D01*
X-138795D01*
X-137795Y29929D01*
Y27929D01*
X-138795Y26930D01*
X-142794D01*
X-69463Y-13748D02*
X-73462D01*
X-69463Y-9749D01*
Y-8750D01*
X-70463Y-7750D01*
X-72462D01*
X-73462Y-8750D01*
X-66464Y-14748D02*
X-65465Y-13748D01*
Y-12748D01*
X-66464D01*
Y-13748D01*
X-65465D01*
X-66464Y-14748D01*
X-67464Y-15747D01*
X-61466Y-12748D02*
X-60466Y-13748D01*
X-58467D01*
X-57467Y-12748D01*
Y-8750D01*
X-58467Y-7750D01*
X-60466D01*
X-61466Y-8750D01*
Y-9749D01*
X-60466Y-10749D01*
X-57467D01*
X-51469Y-7750D02*
X-55468D01*
Y-10749D01*
X-53469Y-9749D01*
X-52469D01*
X-51469Y-10749D01*
Y-12748D01*
X-52469Y-13748D01*
X-54468D01*
X-55468Y-12748D01*
D92*
X-28528Y37008D02*
G03*
X-28528Y37008I-1000J0D01*
G01*
Y33858D02*
G03*
X-28528Y33858I-1000J0D01*
G01*
Y30709D02*
G03*
X-28528Y30709I-1000J0D01*
G01*
X-25772Y32283D02*
G03*
X-25772Y32283I-1000J0D01*
G01*
Y35433D02*
G03*
X-25772Y35433I-1000J0D01*
G01*
X-23016Y30709D02*
G03*
X-23016Y30709I-1000J0D01*
G01*
Y33858D02*
G03*
X-23016Y33858I-1000J0D01*
G01*
Y37008D02*
G03*
X-23016Y37008I-1000J0D01*
G01*
X205528Y62992D02*
G03*
X205528Y62992I-1000J0D01*
G01*
X208677D02*
G03*
X208677Y62992I-1000J0D01*
G01*
X211827D02*
G03*
X211827Y62992I-1000J0D01*
G01*
Y57087D02*
G03*
X211827Y57087I-1000J0D01*
G01*
X208677D02*
G03*
X208677Y57087I-1000J0D01*
G01*
X205528D02*
G03*
X205528Y57087I-1000J0D01*
G01*
X205528Y72834D02*
G03*
X205528Y72834I-1000J0D01*
G01*
X208677D02*
G03*
X208677Y72834I-1000J0D01*
G01*
X211827D02*
G03*
X211827Y72834I-1000J0D01*
G01*
X-18291Y44488D02*
G03*
X-18291Y44488I-1000J0D01*
G01*
X117142Y39764D02*
G03*
X117142Y39764I-1000J0D01*
G01*
X43323D02*
G03*
X43323Y39764I-1000J0D01*
G01*
X126295Y17717D02*
G03*
X126295Y17717I-1000J0D01*
G01*
Y23622D02*
G03*
X126295Y23622I-1000J0D01*
G01*
Y41339D02*
G03*
X126295Y41339I-1000J0D01*
G01*
Y35433D02*
G03*
X126295Y35433I-1000J0D01*
G01*
Y29528D02*
G03*
X126295Y29528I-1000J0D01*
G01*
X52476D02*
G03*
X52476Y29528I-1000J0D01*
G01*
Y35433D02*
G03*
X52476Y35433I-1000J0D01*
G01*
Y41339D02*
G03*
X52476Y41339I-1000J0D01*
G01*
Y23622D02*
G03*
X52476Y23622I-1000J0D01*
G01*
Y17717D02*
G03*
X52476Y17717I-1000J0D01*
G01*
X192929Y65413D02*
G03*
X192929Y65413I-1000J0D01*
G01*
Y70413D02*
G03*
X192929Y70413I-1000J0D01*
G01*
X261827Y75224D02*
G03*
X261827Y75224I-1000J0D01*
G01*
X264565Y80709D02*
G03*
X264565Y80709I-1000J0D01*
G01*
X-148606Y159843D02*
G03*
X-148606Y159843I-1000J0D01*
G01*
X-2740Y69488D02*
G03*
X-2740Y69488I-1000J0D01*
G01*
X-5890D02*
G03*
X-5890Y69488I-1000J0D01*
G01*
X-9039D02*
G03*
X-9039Y69488I-1000J0D01*
G01*
X-4315Y72244D02*
G03*
X-4315Y72244I-1000J0D01*
G01*
X-7465D02*
G03*
X-7465Y72244I-1000J0D01*
G01*
X66354D02*
G03*
X66354Y72244I-1000J0D01*
G01*
X69504D02*
G03*
X69504Y72244I-1000J0D01*
G01*
X64780Y69488D02*
G03*
X64780Y69488I-1000J0D01*
G01*
X67929D02*
G03*
X67929Y69488I-1000J0D01*
G01*
X71079D02*
G03*
X71079Y69488I-1000J0D01*
G01*
X46178Y59580D02*
G03*
X46178Y59580I-1000J0D01*
G01*
X119996D02*
G03*
X119996Y59580I-1000J0D01*
G01*
X286033Y92520D02*
G03*
X286033Y92520I-600J0D01*
G01*
X286433D02*
G03*
X286433Y92520I-1000J0D01*
G01*
X276190D02*
G03*
X276190Y92520I-600J0D01*
G01*
X276590D02*
G03*
X276590Y92520I-1000J0D01*
G01*
X-141132Y149606D02*
G03*
X-141132Y149606I-600J0D01*
G01*
X-140732D02*
G03*
X-140732Y149606I-1000J0D01*
G01*
X-135843Y116626D02*
X-135343D01*
X-135843D02*
Y117626D01*
X-135343D01*
Y118126D01*
X-134343D01*
Y117626D02*
Y118126D01*
Y117626D02*
X-133843D01*
Y116626D02*
Y117626D01*
X-134343Y116626D02*
X-133843D01*
X-134343Y116126D02*
Y116626D01*
X-135343Y116126D02*
X-134343D01*
X-135343D02*
Y116626D01*
X-135843Y108752D02*
X-135343D01*
X-135843D02*
Y109752D01*
X-135343D01*
Y110252D01*
X-134343D01*
Y109752D02*
Y110252D01*
Y109752D02*
X-133843D01*
Y108752D02*
Y109752D01*
X-134343Y108752D02*
X-133843D01*
X-134343Y108252D02*
Y108752D01*
X-135343Y108252D02*
X-134343D01*
X-135343D02*
Y108752D01*
X-136572Y81544D02*
X-134572D01*
Y83544D01*
X-136572D02*
X-134572D01*
X-136572Y81544D02*
Y83544D01*
X-127911Y86544D02*
X-125911D01*
Y88544D01*
X-127911D02*
X-125911D01*
X-127911Y86544D02*
Y88544D01*
X-119251Y91544D02*
X-117251D01*
Y93544D01*
X-119251D02*
X-117251D01*
X-119251Y91544D02*
Y93544D01*
X-126572Y64224D02*
X-124572D01*
Y66224D01*
X-126572D02*
X-124572D01*
X-126572Y64224D02*
Y66224D01*
X-117912Y69224D02*
X-115911D01*
Y71224D01*
X-117912D02*
X-115911D01*
X-117912Y69224D02*
Y71224D01*
X-109251Y74224D02*
X-107251D01*
Y76224D01*
X-109251D02*
X-107251D01*
X-109251Y74224D02*
Y76224D01*
X-121572Y55564D02*
X-119572D01*
Y57564D01*
X-121572D02*
X-119572D01*
X-121572Y55564D02*
Y57564D01*
X-112911Y60564D02*
X-110912D01*
Y62564D01*
X-112911D02*
X-110912D01*
X-112911Y60564D02*
Y62564D01*
X-104251Y65564D02*
X-102251D01*
Y67564D01*
X-104251D02*
X-102251D01*
X-104251Y65564D02*
Y67564D01*
X-131572Y72884D02*
X-129572D01*
Y74884D01*
X-131572D02*
X-129572D01*
X-131572Y72884D02*
Y74884D01*
X-122912Y77884D02*
X-120912D01*
Y79884D01*
X-122912D02*
X-120912D01*
X-122912Y77884D02*
Y79884D01*
X-114251Y82884D02*
X-112251D01*
Y84884D01*
X-114251D02*
X-112251D01*
X-114251Y82884D02*
Y84884D01*
X-102809Y115253D02*
Y115753D01*
X-102309Y116253D01*
X-102809Y116753D02*
X-102309Y116253D01*
X-102809Y116753D02*
Y117253D01*
X-102309D01*
X-101809Y116753D01*
X-101309Y117253D01*
X-100809D01*
Y116753D02*
Y117253D01*
X-101309Y116253D02*
X-100809Y116753D01*
X-101309Y116253D02*
X-100809Y115753D01*
Y115253D02*
Y115753D01*
X-101309Y115253D02*
X-100809D01*
X-101809Y115753D02*
X-101309Y115253D01*
X-102309D02*
X-101809Y115753D01*
X-102809Y115253D02*
X-102309D01*
X-36575Y96922D02*
X-34575D01*
Y98922D01*
X-36575D02*
X-34575D01*
X-36575Y96922D02*
Y98922D01*
X-45563Y101306D02*
X-43563D01*
Y103306D01*
X-45563D02*
X-43563D01*
X-45563Y101306D02*
Y103306D01*
X-54551Y105690D02*
X-52551D01*
Y107690D01*
X-54551D02*
X-52551D01*
X-54551Y105690D02*
Y107690D01*
X-63539Y110074D02*
X-61539D01*
Y112074D01*
X-63539D02*
X-61539D01*
X-63539Y110074D02*
Y112074D01*
X-72527Y114457D02*
X-70527D01*
Y116457D01*
X-72527D02*
X-70527D01*
X-72527Y114457D02*
Y116457D01*
X-81515Y118841D02*
X-79515D01*
Y120841D01*
X-81515D02*
X-79515D01*
X-81515Y118841D02*
Y120841D01*
X-67923Y101086D02*
X-65923D01*
Y103086D01*
X-67923D02*
X-65923D01*
X-67923Y101086D02*
Y103086D01*
X-58935Y96702D02*
X-56935D01*
Y98702D01*
X-58935D02*
X-56935D01*
X-58935Y96702D02*
Y98702D01*
X-49947Y92318D02*
X-47947D01*
Y94318D01*
X-49947D02*
X-47947D01*
X-49947Y92318D02*
Y94318D01*
X-40959Y87935D02*
X-38959D01*
Y89935D01*
X-40959D02*
X-38959D01*
X-40959Y87935D02*
Y89935D01*
X243648Y83757D02*
Y84257D01*
X244148Y84757D01*
X243648Y85257D02*
X244148Y84757D01*
X243648Y85257D02*
Y85757D01*
X244148D01*
X244648Y85257D01*
X245148Y85757D01*
X245648D01*
Y85257D02*
Y85757D01*
X245148Y84757D02*
X245648Y85257D01*
X245148Y84757D02*
X245648Y84257D01*
Y83757D02*
Y84257D01*
X245148Y83757D02*
X245648D01*
X244648Y84257D02*
X245148Y83757D01*
X244148D02*
X244648Y84257D01*
X243648Y83757D02*
X244148D01*
X-77962Y36802D02*
X-76762D01*
Y38002D01*
X-77962D02*
X-76762D01*
X-77962Y36802D02*
Y38002D01*
X-78362Y36402D02*
X-76362D01*
Y38402D01*
X-78362D02*
X-76362D01*
X-78362Y36402D02*
Y38402D01*
X209046Y36802D02*
X210246D01*
Y38002D01*
X209046D02*
X210246D01*
X209046Y36802D02*
Y38002D01*
X208646Y36402D02*
X210646D01*
Y38402D01*
X208646D02*
X210646D01*
X208646Y36402D02*
Y38402D01*
X-103362Y37886D02*
X-102862D01*
X-103362D02*
Y38886D01*
X-102862D01*
Y39386D01*
X-101862D01*
Y38886D02*
Y39386D01*
Y38886D02*
X-101362D01*
Y37886D02*
Y38886D01*
X-101862Y37886D02*
X-101362D01*
X-101862Y37386D02*
Y37886D01*
X-102862Y37386D02*
X-101862D01*
X-102862D02*
Y37886D01*
X-103362Y45760D02*
X-102862D01*
X-103362D02*
Y46760D01*
X-102862D01*
Y47260D01*
X-101862D01*
Y46760D02*
Y47260D01*
Y46760D02*
X-101362D01*
Y45760D02*
Y46760D01*
X-101862Y45760D02*
X-101362D01*
X-101862Y45260D02*
Y45760D01*
X-102862Y45260D02*
X-101862D01*
X-102862D02*
Y45760D01*
X-153756Y135827D02*
X-152756Y134827D01*
X-151756Y135827D01*
X-152756Y136827D02*
X-151756Y135827D01*
X-153756D02*
X-152756Y136827D01*
X-119898Y135827D02*
X-118898Y134827D01*
X-117898Y135827D01*
X-118898Y136827D02*
X-117898Y135827D01*
X-119898D02*
X-118898Y136827D01*
X-135827Y134827D02*
X-134827Y136827D01*
X-136827D02*
X-134827D01*
X-136827D02*
X-135827Y134827D01*
X-143701D02*
X-142701Y136827D01*
X-144701D02*
X-142701D01*
X-144701D02*
X-143701Y134827D01*
X-127953D02*
X-126953Y136827D01*
X-128953D02*
X-126953D01*
X-128953D02*
X-127953Y134827D01*
X251551Y56372D02*
X252551Y56872D01*
X253551Y56372D01*
X253051Y57372D02*
X253551Y56372D01*
X253051Y57372D02*
X253551Y58372D01*
X252551Y57872D02*
X253551Y58372D01*
X251551D02*
X252551Y57872D01*
X251551Y58372D02*
X252051Y57372D01*
X251551Y56372D02*
X252051Y57372D01*
X240543Y40053D02*
X241543Y40553D01*
X242543Y40053D01*
X242043Y41053D02*
X242543Y40053D01*
X242043Y41053D02*
X242543Y42053D01*
X241543Y41553D02*
X242543Y42053D01*
X240543D02*
X241543Y41553D01*
X240543Y42053D02*
X241043Y41053D01*
X240543Y40053D02*
X241043Y41053D01*
X263065Y54192D02*
X263565Y53692D01*
X262565Y54192D02*
X263065D01*
X262565D02*
X263065Y54692D01*
X262565Y55192D02*
X263065Y54692D01*
X262565Y55192D02*
X263065D01*
X263565Y55692D01*
X264065Y55192D01*
X264565D01*
X264065Y54692D02*
X264565Y55192D01*
X264065Y54692D02*
X264565Y54192D01*
X264065D02*
X264565D01*
X263565Y53692D02*
X264065Y54192D01*
X247654Y31345D02*
X248154Y30845D01*
X247154Y31345D02*
X247654D01*
X247154D02*
X247654Y31845D01*
X247154Y32345D02*
X247654Y31845D01*
X247154Y32345D02*
X247654D01*
X248154Y32845D01*
X248654Y32345D01*
X249154D01*
X248654Y31845D02*
X249154Y32345D01*
X248654Y31845D02*
X249154Y31345D01*
X248654D02*
X249154D01*
X248154Y30845D02*
X248654Y31345D01*
D93*
X1100687Y157480D02*
Y161259D01*
X1102576D01*
X1103206Y160629D01*
Y159370D01*
X1102576Y158740D01*
X1100687D01*
X1101946D02*
X1103206Y157480D01*
X1105095D02*
X1106354D01*
X1106984Y158110D01*
Y159370D01*
X1106354Y159999D01*
X1105095D01*
X1104465Y159370D01*
Y158110D01*
X1105095Y157480D01*
X1108243Y159999D02*
Y158110D01*
X1108873Y157480D01*
X1110762D01*
Y159999D01*
X1112651Y160629D02*
Y159999D01*
X1112022D01*
X1113281D01*
X1112651D01*
Y158110D01*
X1113281Y157480D01*
X1117059D02*
X1115800D01*
X1115170Y158110D01*
Y159370D01*
X1115800Y159999D01*
X1117059D01*
X1117689Y159370D01*
Y158740D01*
X1115170D01*
X1121467Y161259D02*
Y157480D01*
X1119578D01*
X1118949Y158110D01*
Y159370D01*
X1119578Y159999D01*
X1121467D01*
X1126505Y157480D02*
Y161259D01*
X1128394D01*
X1129024Y160629D01*
Y159370D01*
X1128394Y158740D01*
X1126505D01*
X1130913Y159999D02*
X1132173D01*
X1132802Y159370D01*
Y157480D01*
X1130913D01*
X1130284Y158110D01*
X1130913Y158740D01*
X1132802D01*
X1134692Y160629D02*
Y159999D01*
X1134062D01*
X1135321D01*
X1134692D01*
Y158110D01*
X1135321Y157480D01*
X1137210Y161259D02*
Y157480D01*
Y159370D01*
X1137840Y159999D01*
X1139100D01*
X1139729Y159370D01*
Y157480D01*
X1144767Y161259D02*
Y157480D01*
X1147286D01*
X1150434D02*
X1149175D01*
X1148545Y158110D01*
Y159370D01*
X1149175Y159999D01*
X1150434D01*
X1151064Y159370D01*
Y158740D01*
X1148545D01*
X1152324Y157480D02*
Y159999D01*
X1154213D01*
X1154842Y159370D01*
Y157480D01*
X1157361Y156221D02*
X1157991D01*
X1158621Y156851D01*
Y159999D01*
X1156732D01*
X1156102Y159370D01*
Y158110D01*
X1156732Y157480D01*
X1158621D01*
X1160510Y160629D02*
Y159999D01*
X1159880D01*
X1161140D01*
X1160510D01*
Y158110D01*
X1161140Y157480D01*
X1163029Y161259D02*
Y157480D01*
Y159370D01*
X1163659Y159999D01*
X1164918D01*
X1165548Y159370D01*
Y157480D01*
X1041780Y161259D02*
Y157480D01*
Y159370D01*
X1044299D01*
Y161259D01*
Y157480D01*
X1046188D02*
X1047447D01*
X1048077Y158110D01*
Y159370D01*
X1047447Y159999D01*
X1046188D01*
X1045558Y159370D01*
Y158110D01*
X1046188Y157480D01*
X1049337D02*
X1050596D01*
X1049966D01*
Y161259D01*
X1049337D01*
X1054374Y157480D02*
X1053115D01*
X1052485Y158110D01*
Y159370D01*
X1053115Y159999D01*
X1054374D01*
X1055004Y159370D01*
Y158740D01*
X1052485D01*
X1060042Y161259D02*
Y157480D01*
X1062561D01*
X1065709D02*
X1064450D01*
X1063820Y158110D01*
Y159370D01*
X1064450Y159999D01*
X1065709D01*
X1066339Y159370D01*
Y158740D01*
X1063820D01*
X1067598Y157480D02*
Y159999D01*
X1069488D01*
X1070117Y159370D01*
Y157480D01*
X1072636Y156221D02*
X1073266D01*
X1073896Y156851D01*
Y159999D01*
X1072006D01*
X1071377Y159370D01*
Y158110D01*
X1072006Y157480D01*
X1073896D01*
X1075785Y160629D02*
Y159999D01*
X1075155D01*
X1076414D01*
X1075785D01*
Y158110D01*
X1076414Y157480D01*
X1078304Y161259D02*
Y157480D01*
Y159370D01*
X1078933Y159999D01*
X1080193D01*
X1080822Y159370D01*
Y157480D01*
X971564Y161259D02*
Y157480D01*
Y159370D01*
X974083D01*
Y161259D01*
Y157480D01*
X975972D02*
X977232D01*
X977861Y158110D01*
Y159370D01*
X977232Y159999D01*
X975972D01*
X975343Y159370D01*
Y158110D01*
X975972Y157480D01*
X979121D02*
X980380D01*
X979751D01*
Y161259D01*
X979121D01*
X984159Y157480D02*
X982899D01*
X982269Y158110D01*
Y159370D01*
X982899Y159999D01*
X984159D01*
X984788Y159370D01*
Y158740D01*
X982269D01*
X989826Y161259D02*
X992345D01*
X991086D01*
Y157480D01*
X994234D02*
X995494D01*
X996123Y158110D01*
Y159370D01*
X995494Y159999D01*
X994234D01*
X993604Y159370D01*
Y158110D01*
X994234Y157480D01*
X997383D02*
X998642D01*
X998012D01*
Y161259D01*
X997383D01*
X1002420Y157480D02*
X1001161D01*
X1000531Y158110D01*
Y159370D01*
X1001161Y159999D01*
X1002420D01*
X1003050Y159370D01*
Y158740D01*
X1000531D01*
X1004310Y159999D02*
Y157480D01*
Y158740D01*
X1004939Y159370D01*
X1005569Y159999D01*
X1006199D01*
X1008718D02*
X1009977D01*
X1010607Y159370D01*
Y157480D01*
X1008718D01*
X1008088Y158110D01*
X1008718Y158740D01*
X1010607D01*
X1011866Y157480D02*
Y159999D01*
X1013755D01*
X1014385Y159370D01*
Y157480D01*
X1018163Y159999D02*
X1016274D01*
X1015644Y159370D01*
Y158110D01*
X1016274Y157480D01*
X1018163D01*
X1021312D02*
X1020053D01*
X1019423Y158110D01*
Y159370D01*
X1020053Y159999D01*
X1021312D01*
X1021942Y159370D01*
Y158740D01*
X1019423D01*
X1028239Y157480D02*
X1026980Y158740D01*
Y159999D01*
X1028239Y161259D01*
X1030128Y159370D02*
X1032647D01*
X1033906Y157480D02*
X1035166Y158740D01*
Y159999D01*
X1033906Y161259D01*
X901348D02*
Y157480D01*
Y159370D01*
X903867D01*
Y161259D01*
Y157480D01*
X905757D02*
X907016D01*
X907646Y158110D01*
Y159370D01*
X907016Y159999D01*
X905757D01*
X905127Y159370D01*
Y158110D01*
X905757Y157480D01*
X908905D02*
X910165D01*
X909535D01*
Y161259D01*
X908905D01*
X913943Y157480D02*
X912683D01*
X912054Y158110D01*
Y159370D01*
X912683Y159999D01*
X913943D01*
X914573Y159370D01*
Y158740D01*
X912054D01*
X919610Y161259D02*
X922129D01*
X920870D01*
Y157480D01*
X924018D02*
X925278D01*
X925908Y158110D01*
Y159370D01*
X925278Y159999D01*
X924018D01*
X923389Y159370D01*
Y158110D01*
X924018Y157480D01*
X927167D02*
X928426D01*
X927797D01*
Y161259D01*
X927167D01*
X932205Y157480D02*
X930945D01*
X930316Y158110D01*
Y159370D01*
X930945Y159999D01*
X932205D01*
X932834Y159370D01*
Y158740D01*
X930316D01*
X934094Y159999D02*
Y157480D01*
Y158740D01*
X934724Y159370D01*
X935353Y159999D01*
X935983D01*
X938502D02*
X939761D01*
X940391Y159370D01*
Y157480D01*
X938502D01*
X937872Y158110D01*
X938502Y158740D01*
X940391D01*
X941650Y157480D02*
Y159999D01*
X943540D01*
X944169Y159370D01*
Y157480D01*
X947948Y159999D02*
X946058D01*
X945429Y159370D01*
Y158110D01*
X946058Y157480D01*
X947948D01*
X951096D02*
X949837D01*
X949207Y158110D01*
Y159370D01*
X949837Y159999D01*
X951096D01*
X951726Y159370D01*
Y158740D01*
X949207D01*
X958023Y157480D02*
X956764Y158740D01*
Y159999D01*
X958023Y161259D01*
X959912Y159370D02*
X962431D01*
X961172Y160629D02*
Y158110D01*
X963691Y157480D02*
X964950Y158740D01*
Y159999D01*
X963691Y161259D01*
X856322D02*
Y157480D01*
X858211D01*
X858840Y158110D01*
Y160629D01*
X858211Y161259D01*
X856322D01*
X861989Y157480D02*
X860730D01*
X860100Y158110D01*
Y159370D01*
X860730Y159999D01*
X861989D01*
X862619Y159370D01*
Y158740D01*
X860100D01*
X863878Y157480D02*
X865767D01*
X866397Y158110D01*
X865767Y158740D01*
X864508D01*
X863878Y159370D01*
X864508Y159999D01*
X866397D01*
X870175D02*
X868286D01*
X867657Y159370D01*
Y158110D01*
X868286Y157480D01*
X870175D01*
X871435Y159999D02*
Y157480D01*
Y158740D01*
X872064Y159370D01*
X872694Y159999D01*
X873324D01*
X875213Y157480D02*
X876473D01*
X875843D01*
Y159999D01*
X875213D01*
X878362Y156221D02*
Y159999D01*
X880251D01*
X880881Y159370D01*
Y158110D01*
X880251Y157480D01*
X878362D01*
X882770Y160629D02*
Y159999D01*
X882140D01*
X883399D01*
X882770D01*
Y158110D01*
X883399Y157480D01*
X885289D02*
X886548D01*
X885918D01*
Y159999D01*
X885289D01*
X889067Y157480D02*
X890326D01*
X890956Y158110D01*
Y159370D01*
X890326Y159999D01*
X889067D01*
X888437Y159370D01*
Y158110D01*
X889067Y157480D01*
X892216D02*
Y159999D01*
X894105D01*
X894734Y159370D01*
Y157480D01*
X795841Y161259D02*
X798359D01*
X797100D01*
Y157480D01*
X801508D02*
X800249D01*
X799619Y158110D01*
Y159370D01*
X800249Y159999D01*
X801508D01*
X802138Y159370D01*
Y158740D01*
X799619D01*
X803397Y157480D02*
Y159999D01*
X804027D01*
X804657Y159370D01*
Y157480D01*
Y159370D01*
X805286Y159999D01*
X805916Y159370D01*
Y157480D01*
X807176Y156221D02*
Y159999D01*
X809065D01*
X809694Y159370D01*
Y158110D01*
X809065Y157480D01*
X807176D01*
X810954D02*
X812213D01*
X811584D01*
Y161259D01*
X810954D01*
X814732Y159999D02*
X815991D01*
X816621Y159370D01*
Y157480D01*
X814732D01*
X814102Y158110D01*
X814732Y158740D01*
X816621D01*
X818510Y160629D02*
Y159999D01*
X817881D01*
X819140D01*
X818510D01*
Y158110D01*
X819140Y157480D01*
X822918D02*
X821659D01*
X821029Y158110D01*
Y159370D01*
X821659Y159999D01*
X822918D01*
X823548Y159370D01*
Y158740D01*
X821029D01*
X738508Y157480D02*
Y161259D01*
X740397D01*
X741027Y160629D01*
Y159370D01*
X740397Y158740D01*
X738508D01*
X742916Y159999D02*
X744175D01*
X744805Y159370D01*
Y157480D01*
X742916D01*
X742286Y158110D01*
X742916Y158740D01*
X744805D01*
X748584Y161259D02*
Y157480D01*
X746694D01*
X746065Y158110D01*
Y159370D01*
X746694Y159999D01*
X748584D01*
X756140Y160629D02*
X755511Y161259D01*
X754251D01*
X753621Y160629D01*
Y159999D01*
X754251Y159370D01*
X755511D01*
X756140Y158740D01*
Y158110D01*
X755511Y157480D01*
X754251D01*
X753621Y158110D01*
X757400Y161259D02*
Y157480D01*
Y159370D01*
X758029Y159999D01*
X759289D01*
X759918Y159370D01*
Y157480D01*
X761808Y159999D02*
X763067D01*
X763697Y159370D01*
Y157480D01*
X761808D01*
X761178Y158110D01*
X761808Y158740D01*
X763697D01*
X764956Y156221D02*
Y159999D01*
X766845D01*
X767475Y159370D01*
Y158110D01*
X766845Y157480D01*
X764956D01*
X770624D02*
X769364D01*
X768735Y158110D01*
Y159370D01*
X769364Y159999D01*
X770624D01*
X771253Y159370D01*
Y158740D01*
X768735D01*
X707335Y161259D02*
Y158740D01*
X708594Y157480D01*
X709854Y158740D01*
Y161259D01*
X711113Y157480D02*
X712373D01*
X711743D01*
Y159999D01*
X711113D01*
X714891D02*
X716151D01*
X716781Y159370D01*
Y157480D01*
X714891D01*
X714262Y158110D01*
X714891Y158740D01*
X716781D01*
X718040Y157480D02*
X720559Y159999D01*
X721818Y157480D02*
Y161259D01*
X723708D01*
X724337Y160629D01*
Y159370D01*
X723708Y158740D01*
X721818D01*
X726226Y159999D02*
X727486D01*
X728116Y159370D01*
Y157480D01*
X726226D01*
X725597Y158110D01*
X726226Y158740D01*
X728116D01*
X731894Y161259D02*
Y157480D01*
X730005D01*
X729375Y158110D01*
Y159370D01*
X730005Y159999D01*
X731894D01*
X628487Y161259D02*
Y157480D01*
X630376D01*
X631006Y158110D01*
Y160629D01*
X630376Y161259D01*
X628487D01*
X632265Y159999D02*
Y157480D01*
Y158740D01*
X632895Y159370D01*
X633525Y159999D01*
X634155D01*
X636044Y157480D02*
X637303D01*
X636673D01*
Y159999D01*
X636044D01*
X639192Y157480D02*
X640452D01*
X639822D01*
Y161259D01*
X639192D01*
X642341Y157480D02*
X643600D01*
X642971D01*
Y161259D01*
X642341D01*
X649268D02*
Y157480D01*
X651787D01*
X653676Y159999D02*
X654935D01*
X655565Y159370D01*
Y157480D01*
X653676D01*
X653046Y158110D01*
X653676Y158740D01*
X655565D01*
X656824Y159999D02*
Y158110D01*
X657454Y157480D01*
X659343D01*
Y156851D01*
X658713Y156221D01*
X658084D01*
X659343Y157480D02*
Y159999D01*
X662492Y157480D02*
X661232D01*
X660603Y158110D01*
Y159370D01*
X661232Y159999D01*
X662492D01*
X663122Y159370D01*
Y158740D01*
X660603D01*
X664381Y159999D02*
Y157480D01*
Y158740D01*
X665011Y159370D01*
X665640Y159999D01*
X666270D01*
X671938Y157480D02*
Y161259D01*
X673827D01*
X674457Y160629D01*
Y159370D01*
X673827Y158740D01*
X671938D01*
X676346Y159999D02*
X677605D01*
X678235Y159370D01*
Y157480D01*
X676346D01*
X675716Y158110D01*
X676346Y158740D01*
X678235D01*
X679494Y157480D02*
X680754D01*
X680124D01*
Y159999D01*
X679494D01*
X682643D02*
Y157480D01*
Y158740D01*
X683273Y159370D01*
X683902Y159999D01*
X684532D01*
X589757Y161259D02*
Y157480D01*
Y159370D01*
X592276D01*
Y161259D01*
Y157480D01*
X594165D02*
X595425D01*
X596054Y158110D01*
Y159370D01*
X595425Y159999D01*
X594165D01*
X593536Y159370D01*
Y158110D01*
X594165Y157480D01*
X597314D02*
X598573D01*
X597944D01*
Y161259D01*
X597314D01*
X602352Y157480D02*
X601092D01*
X600462Y158110D01*
Y159370D01*
X601092Y159999D01*
X602352D01*
X602981Y159370D01*
Y158740D01*
X600462D01*
X608019Y161259D02*
X610538D01*
X609278D01*
Y157480D01*
X611797Y159999D02*
Y158110D01*
X612427Y157480D01*
X614316D01*
Y156851D01*
X613687Y156221D01*
X613057D01*
X614316Y157480D02*
Y159999D01*
X615576Y156221D02*
Y159999D01*
X617465D01*
X618095Y159370D01*
Y158110D01*
X617465Y157480D01*
X615576D01*
X621243D02*
X619984D01*
X619354Y158110D01*
Y159370D01*
X619984Y159999D01*
X621243D01*
X621873Y159370D01*
Y158740D01*
X619354D01*
X562992Y157480D02*
Y161259D01*
X564881D01*
X565511Y160629D01*
Y159370D01*
X564881Y158740D01*
X562992D01*
X566770Y157480D02*
X568030D01*
X567400D01*
Y161259D01*
X566770D01*
X570549Y159999D02*
X571808D01*
X572438Y159370D01*
Y157480D01*
X570549D01*
X569919Y158110D01*
X570549Y158740D01*
X572438D01*
X574327Y160629D02*
Y159999D01*
X573697D01*
X574957D01*
X574327D01*
Y158110D01*
X574957Y157480D01*
X578735D02*
X577476D01*
X576846Y158110D01*
Y159370D01*
X577476Y159999D01*
X578735D01*
X579365Y159370D01*
Y158740D01*
X576846D01*
X583143Y161259D02*
Y157480D01*
X581254D01*
X580624Y158110D01*
Y159370D01*
X581254Y159999D01*
X583143D01*
X501462Y161259D02*
Y157480D01*
Y159370D01*
X503980D01*
Y161259D01*
Y157480D01*
X505870D02*
X507129D01*
X507759Y158110D01*
Y159370D01*
X507129Y159999D01*
X505870D01*
X505240Y159370D01*
Y158110D01*
X505870Y157480D01*
X509018D02*
X510278D01*
X509648D01*
Y161259D01*
X509018D01*
X514056Y157480D02*
X512796D01*
X512167Y158110D01*
Y159370D01*
X512796Y159999D01*
X514056D01*
X514686Y159370D01*
Y158740D01*
X512167D01*
X522242Y160629D02*
X521613Y161259D01*
X520353D01*
X519723Y160629D01*
Y159999D01*
X520353Y159370D01*
X521613D01*
X522242Y158740D01*
Y158110D01*
X521613Y157480D01*
X520353D01*
X519723Y158110D01*
X523502Y157480D02*
X524761D01*
X524131D01*
Y159999D01*
X523502D01*
X526650D02*
X529169D01*
X526650Y157480D01*
X529169D01*
X532318D02*
X531058D01*
X530429Y158110D01*
Y159370D01*
X531058Y159999D01*
X532318D01*
X532947Y159370D01*
Y158740D01*
X530429D01*
X475510Y160629D02*
X474880Y161259D01*
X473621D01*
X472991Y160629D01*
Y158110D01*
X473621Y157480D01*
X474880D01*
X475510Y158110D01*
X477399Y157480D02*
X478659D01*
X479288Y158110D01*
Y159370D01*
X478659Y159999D01*
X477399D01*
X476769Y159370D01*
Y158110D01*
X477399Y157480D01*
X480548Y159999D02*
Y158110D01*
X481178Y157480D01*
X483067D01*
Y159999D01*
X484326Y157480D02*
Y159999D01*
X486215D01*
X486845Y159370D01*
Y157480D01*
X488734Y160629D02*
Y159999D01*
X488104D01*
X489364D01*
X488734D01*
Y158110D01*
X489364Y157480D01*
X448745Y160629D02*
X448115Y161259D01*
X446856D01*
X446226Y160629D01*
Y159999D01*
X446856Y159370D01*
X448115D01*
X448745Y158740D01*
Y158110D01*
X448115Y157480D01*
X446856D01*
X446226Y158110D01*
X450004Y159999D02*
Y158110D01*
X450634Y157480D01*
X452523D01*
Y156851D01*
X451894Y156221D01*
X451264D01*
X452523Y157480D02*
Y159999D01*
X453783Y157480D02*
Y159999D01*
X454412D01*
X455042Y159370D01*
Y157480D01*
Y159370D01*
X455672Y159999D01*
X456301Y159370D01*
Y157480D01*
X457561Y161259D02*
Y157480D01*
X459450D01*
X460080Y158110D01*
Y158740D01*
Y159370D01*
X459450Y159999D01*
X457561D01*
X461969Y157480D02*
X463228D01*
X463858Y158110D01*
Y159370D01*
X463228Y159999D01*
X461969D01*
X461339Y159370D01*
Y158110D01*
X461969Y157480D01*
X465118D02*
X466377D01*
X465747D01*
Y161259D01*
X465118D01*
D94*
X500619Y60894D02*
Y57746D01*
Y59320D01*
X502718D01*
Y60894D01*
Y57746D01*
X504293D02*
X505342D01*
X505867Y58270D01*
Y59320D01*
X505342Y59845D01*
X504293D01*
X503768Y59320D01*
Y58270D01*
X504293Y57746D01*
X506916D02*
X507966D01*
X507441D01*
Y60894D01*
X506916D01*
X511115Y57746D02*
X510065D01*
X509540Y58270D01*
Y59320D01*
X510065Y59845D01*
X511115D01*
X511639Y59320D01*
Y58795D01*
X509540D01*
X515837Y60894D02*
Y57746D01*
X517937D01*
X520560D02*
X519511D01*
X518986Y58270D01*
Y59320D01*
X519511Y59845D01*
X520560D01*
X521085Y59320D01*
Y58795D01*
X518986D01*
X522135Y57746D02*
Y59845D01*
X523709D01*
X524234Y59320D01*
Y57746D01*
X526333Y56696D02*
X526858D01*
X527382Y57221D01*
Y59845D01*
X525808D01*
X525283Y59320D01*
Y58270D01*
X525808Y57746D01*
X527382D01*
X528957Y60369D02*
Y59845D01*
X528432D01*
X529481D01*
X528957D01*
Y58270D01*
X529481Y57746D01*
X531056Y60894D02*
Y57746D01*
Y59320D01*
X531580Y59845D01*
X532630D01*
X533155Y59320D01*
Y57746D01*
X500619Y63125D02*
Y66273D01*
X502193D01*
X502718Y65749D01*
Y64699D01*
X502193Y64174D01*
X500619D01*
X501669D02*
X502718Y63125D01*
X504293D02*
X505342D01*
X505867Y63650D01*
Y64699D01*
X505342Y65224D01*
X504293D01*
X503768Y64699D01*
Y63650D01*
X504293Y63125D01*
X506916Y65224D02*
Y63650D01*
X507441Y63125D01*
X509015D01*
Y65224D01*
X510590Y65749D02*
Y65224D01*
X510065D01*
X511115D01*
X510590D01*
Y63650D01*
X511115Y63125D01*
X514263D02*
X513214D01*
X512689Y63650D01*
Y64699D01*
X513214Y65224D01*
X514263D01*
X514788Y64699D01*
Y64174D01*
X512689D01*
X517937Y66273D02*
Y63125D01*
X516362D01*
X515837Y63650D01*
Y64699D01*
X516362Y65224D01*
X517937D01*
X522135Y63125D02*
Y66273D01*
X523709D01*
X524234Y65749D01*
Y64699D01*
X523709Y64174D01*
X522135D01*
X525808Y65224D02*
X526858D01*
X527382Y64699D01*
Y63125D01*
X525808D01*
X525283Y63650D01*
X525808Y64174D01*
X527382D01*
X528957Y65749D02*
Y65224D01*
X528432D01*
X529481D01*
X528957D01*
Y63650D01*
X529481Y63125D01*
X531056Y66273D02*
Y63125D01*
Y64699D01*
X531580Y65224D01*
X532630D01*
X533155Y64699D01*
Y63125D01*
X537353Y66273D02*
Y63125D01*
X539452D01*
X542076D02*
X541026D01*
X540501Y63650D01*
Y64699D01*
X541026Y65224D01*
X542076D01*
X542600Y64699D01*
Y64174D01*
X540501D01*
X543650Y63125D02*
Y65224D01*
X545224D01*
X545749Y64699D01*
Y63125D01*
X547848Y62075D02*
X548373D01*
X548898Y62600D01*
Y65224D01*
X547323D01*
X546799Y64699D01*
Y63650D01*
X547323Y63125D01*
X548898D01*
X550472Y65749D02*
Y65224D01*
X549947D01*
X550997D01*
X550472D01*
Y63650D01*
X550997Y63125D01*
X552571Y66273D02*
Y63125D01*
Y64699D01*
X553096Y65224D01*
X554145D01*
X554670Y64699D01*
Y63125D01*
X448325Y65749D02*
X447800Y66273D01*
X446751D01*
X446226Y65749D01*
Y65224D01*
X446751Y64699D01*
X447800D01*
X448325Y64174D01*
Y63650D01*
X447800Y63125D01*
X446751D01*
X446226Y63650D01*
X449375Y63125D02*
X450424D01*
X449899D01*
Y66273D01*
X449375D01*
X452523Y63125D02*
X453573D01*
X454098Y63650D01*
Y64699D01*
X453573Y65224D01*
X452523D01*
X451998Y64699D01*
Y63650D01*
X452523Y63125D01*
X455672Y65749D02*
Y65224D01*
X455147D01*
X456197D01*
X455672D01*
Y63650D01*
X456197Y63125D01*
X463019Y66273D02*
Y63125D01*
X461444D01*
X460919Y63650D01*
Y64699D01*
X461444Y65224D01*
X463019D01*
X465642Y63125D02*
X464593D01*
X464068Y63650D01*
Y64699D01*
X464593Y65224D01*
X465642D01*
X466167Y64699D01*
Y64174D01*
X464068D01*
X467741Y63125D02*
Y65749D01*
Y64699D01*
X467217D01*
X468266D01*
X467741D01*
Y65749D01*
X468266Y66273D01*
X469840Y63125D02*
X470890D01*
X470365D01*
Y65224D01*
X469840D01*
X472464Y63125D02*
Y65224D01*
X474039D01*
X474563Y64699D01*
Y63125D01*
X475613D02*
X476662D01*
X476138D01*
Y65224D01*
X475613D01*
X478761Y65749D02*
Y65224D01*
X478237D01*
X479286D01*
X478761D01*
Y63650D01*
X479286Y63125D01*
X480861D02*
X481910D01*
X481385D01*
Y65224D01*
X480861D01*
X484009Y63125D02*
X485059D01*
X485583Y63650D01*
Y64699D01*
X485059Y65224D01*
X484009D01*
X483484Y64699D01*
Y63650D01*
X484009Y63125D01*
X486633D02*
Y65224D01*
X488207D01*
X488732Y64699D01*
Y63125D01*
X489782D02*
X491356D01*
X491881Y63650D01*
X491356Y64174D01*
X490306D01*
X489782Y64699D01*
X490306Y65224D01*
X491881D01*
X496079D02*
X496603D01*
Y64699D01*
X496079D01*
Y65224D01*
Y63650D02*
X496603D01*
Y63125D01*
X496079D01*
Y63650D01*
M02*
