M48
;Layer_Color=9474304
;FILE_FORMAT=2:5
INCH,LZ
;TYPE=PLATED
T1F00S00C0.01181
T4F00S00C0.02559
T5F00S00C0.02756
T7F00S00C0.03543
T8F00S00C0.09449
T9F00S00C0.18898
;TYPE=NON_PLATED
T10F00S00C0.02756
%
T01
X0051476Y0017717
Y0023622
Y0029528
Y0035433
Y0041339
X0042323Y0039764
X0116142
X0125295Y0041339
Y0035433
Y0029528
Y0023622
Y0017717
X-0024016Y0030709
Y0033858
Y0037008
X-0026772Y0035433
Y0032283
X-0029528Y0030709
Y0033858
Y0037008
X-0019291Y0044488
X-0149606Y0159843
X-0008465Y0072244
X-0005315
X-000689Y0069488
X-000374
X-0010039
X0045178Y005958
X0063779Y0069488
X0066929
X0070079
X0068504Y0072244
X0065354
X0118996Y005958
X0191929Y0065413
Y0070413
X0204528Y0072834
X0207677
X0210827
X0210827Y0062992
X0207677
X0204528
Y0057087
X0207677
X0210827
X0260827Y0075224
X0263565Y0080709
T04
X-0102362Y0038386
Y004626
X-0134843Y0109252
X-0134843Y0117126
T05
X-0143701Y0135827
X-0135827
X-0127953
T07
X-0120572Y0056564
X-0111911Y0061564
X-0103251Y0066564
X-0108251Y0075224
X-0113251Y0083884
X-0121912Y0078884
X-0116911Y0070224
X-0125572Y0065224
X-0130572Y0073884
X-0135572Y0082544
X-0126911Y0087544
X-0118251Y0092544
X-0066923Y0102086
X-0057935Y0097702
X-0048947Y0093318
X-0039959Y0088935
X-0035575Y0097922
X-0044563Y0102306
X-0053551Y010669
X-0062539Y0111074
X-0071527Y0115457
X-0080515Y0119841
T08
X0209646Y0037402
X-0077362
T09
X-0101809Y0116253
X0244648Y0084757
T10
X-0141732Y0149606
X027559Y009252
X0285433
M30
