M48
;Layer_Color=9474304
;FILE_FORMAT=2:5
INCH,LZ
;TYPE=PLATED
T1F00S00C0.01378
T2F00S00C0.02559
T3F00S00C0.02953
T4F00S00C0.03543
T5F00S00C0.03937
T6F00S00C0.18898
;TYPE=NON_PLATED
T7F00S00C0.11811
%
T01
X-0113189Y0040157
X-0081102Y0022835
X-0076378
X-0036417Y0038383
X-0024606Y0039269
X-0027755Y003071
X-0012319Y0059567
Y0064291
X-0066732Y0050785
X0037992Y0072835
X0048622Y0068898
X0049606Y0092913
X0056896Y0091141
X0052959Y0101771
X007348Y0098425
T02
X-0077756Y0065945
X-0069882
T03
X-0083661Y0065945
X-0069882
T04
X-0134685Y0027244
Y0037244
Y0047244
X-0109426Y0047246
X-0099426
X0003937Y0046929
X0003937Y0036929
Y0056929
Y0066929
X-0002829Y0089896
X-0012226Y0086476
X-0015646Y0095873
X-0006249Y0099293
X-0025043Y0092453
X-0021623Y0083056
X-003102Y0079636
X-003444Y0089033
X-0043837Y0085612
X-0053234Y0082192
X-0099426Y0067246
Y0057246
X-0109426
Y0067246
X-0134685Y0067244
Y0057244
T05
X-0148514Y0027244
Y0037087
Y0046929
Y0056772
Y0066614
T06
X0022107Y0087014
T07
X003937Y0061929
M30
