G04*
G04 #@! TF.GenerationSoftware,Altium Limited,Altium Designer,18.1.6 (161)*
G04*
G04 Layer_Physical_Order=1*
G04 Layer_Color=48896*
%FSLAX25Y25*%
%MOIN*%
G70*
G01*
G75*
%ADD10C,0.00984*%
%ADD11C,0.00787*%
%ADD12C,0.00591*%
%ADD13C,0.00394*%
%ADD14C,0.01575*%
%ADD21R,0.14567X0.04331*%
%ADD22R,0.04331X0.03937*%
%ADD23R,0.05906X0.05118*%
%ADD24R,0.06299X0.10630*%
%ADD25R,0.02362X0.04528*%
%ADD26R,0.03937X0.04331*%
%ADD27R,0.09449X0.05906*%
%ADD28R,0.01575X0.02756*%
%ADD29R,0.01968X0.01378*%
%ADD30R,0.04921X0.04803*%
%ADD31R,0.10630X0.06299*%
%ADD49C,0.05906*%
%ADD52C,0.05118*%
%ADD53C,0.05906*%
%ADD54C,0.05512*%
%ADD55C,0.02362*%
%ADD56C,0.02756*%
%ADD57R,0.03937X0.03937*%
G04:AMPARAMS|DCode=58|XSize=39.37mil|YSize=39.37mil|CornerRadius=9.84mil|HoleSize=0mil|Usage=FLASHONLY|Rotation=0.000|XOffset=0mil|YOffset=0mil|HoleType=Round|Shape=RoundedRectangle|*
%AMROUNDEDRECTD58*
21,1,0.03937,0.01968,0,0,0.0*
21,1,0.01968,0.03937,0,0,0.0*
1,1,0.01968,0.00984,-0.00984*
1,1,0.01968,-0.00984,-0.00984*
1,1,0.01968,-0.00984,0.00984*
1,1,0.01968,0.00984,0.00984*
%
%ADD58ROUNDEDRECTD58*%
G04:AMPARAMS|DCode=59|XSize=49.21mil|YSize=49.21mil|CornerRadius=12.3mil|HoleSize=0mil|Usage=FLASHONLY|Rotation=0.000|XOffset=0mil|YOffset=0mil|HoleType=Round|Shape=RoundedRectangle|*
%AMROUNDEDRECTD59*
21,1,0.04921,0.02461,0,0,0.0*
21,1,0.02461,0.04921,0,0,0.0*
1,1,0.02461,0.01230,-0.01230*
1,1,0.02461,-0.01230,-0.01230*
1,1,0.02461,-0.01230,0.01230*
1,1,0.02461,0.01230,0.01230*
%
%ADD59ROUNDEDRECTD59*%
%ADD60R,0.04921X0.04921*%
%ADD61R,0.05906X0.05906*%
%ADD62C,0.05512*%
%ADD63P,0.08352X4X65.0*%
%ADD64C,0.27559*%
%ADD65C,0.02756*%
G36*
X36335Y107980D02*
X40830Y107718D01*
X45316Y107321D01*
X49788Y106789D01*
X54241Y106123D01*
X58044Y105437D01*
X57999Y104937D01*
X57396D01*
Y101771D01*
X56896D01*
Y101271D01*
X53927D01*
Y98850D01*
X53746Y98425D01*
X53746Y98181D01*
Y96188D01*
X53265Y96052D01*
X52857Y96719D01*
X51683Y98092D01*
X51679Y98088D01*
X48088Y101679D01*
X48092Y101683D01*
X46719Y102857D01*
X45179Y103800D01*
X43510Y104492D01*
X41753Y104913D01*
X39952Y105055D01*
Y105049D01*
X8984D01*
Y105055D01*
X7183Y104913D01*
X5426Y104492D01*
X3757Y103800D01*
X2217Y102857D01*
X843Y101683D01*
X848Y101679D01*
X-1438Y99393D01*
X-1926Y99501D01*
X-3558Y103986D01*
X-3318Y104425D01*
X-1601Y104807D01*
X313Y105217D01*
X4173Y105939D01*
X8052Y106558D01*
X11945Y107074D01*
X15851Y107487D01*
X19767Y107796D01*
X23688Y108002D01*
X27615Y108104D01*
X29579Y108103D01*
X29581Y108103D01*
X29583Y108103D01*
X31834Y108107D01*
X36335Y107980D01*
D02*
G37*
G36*
X72735Y101709D02*
X73313Y101504D01*
X73600Y101398D01*
X73603Y101398D01*
X73606Y101396D01*
X78306Y99679D01*
X78439Y99196D01*
X75273Y95307D01*
X75269Y95299D01*
X75261Y95293D01*
X73877Y93550D01*
X73875Y93548D01*
X73873Y93546D01*
X72815Y92203D01*
X72342Y92367D01*
Y96653D01*
Y100394D01*
X72161D01*
Y100583D01*
X70177D01*
Y101583D01*
X72313D01*
X72568Y101766D01*
X72735Y101709D01*
D02*
G37*
G36*
X-41722Y81560D02*
X-41737Y81376D01*
X-41726D01*
Y79891D01*
X-41737D01*
X-41567Y77735D01*
X-41062Y75632D01*
X-40234Y73634D01*
X-39104Y71790D01*
X-37700Y70146D01*
X-37700Y70146D01*
X-37417Y69763D01*
X-37344Y69653D01*
X-37232Y69090D01*
X-37237Y69053D01*
Y68448D01*
X-53425D01*
X-53426Y68448D01*
X-53999Y68448D01*
X-54115Y68425D01*
X-54234D01*
X-55360Y68201D01*
X-55469Y68156D01*
X-55586Y68133D01*
X-56646Y67693D01*
X-56745Y67628D01*
X-56854Y67582D01*
X-57809Y66944D01*
X-57893Y66861D01*
X-57991Y66795D01*
X-58803Y65983D01*
X-58869Y65885D01*
X-58952Y65801D01*
X-59590Y64846D01*
X-59636Y64737D01*
X-59701Y64638D01*
X-60141Y63578D01*
X-60164Y63461D01*
X-60209Y63352D01*
X-60398Y62401D01*
X-60433D01*
Y62228D01*
X-60433Y62226D01*
Y62107D01*
X-60456Y61991D01*
Y56299D01*
X-60433Y56181D01*
Y55708D01*
X-60277D01*
X-60103Y55448D01*
X-59713Y55187D01*
X-59252Y55095D01*
X-42520D01*
Y50990D01*
X-42847Y50598D01*
X-59252D01*
X-59293Y50590D01*
X-60433D01*
Y49512D01*
X-60456Y49394D01*
Y44606D01*
X-60433Y44488D01*
Y43897D01*
X-60433D01*
X-60366Y43593D01*
X-60711Y43145D01*
X-62779D01*
Y45954D01*
X-66732D01*
X-70685D01*
Y43145D01*
X-72244D01*
Y43307D01*
X-73586D01*
Y63503D01*
X-73086Y63655D01*
X-72720Y63107D01*
X-71982Y62614D01*
X-71112Y62441D01*
X-70382D01*
Y65945D01*
Y69449D01*
X-71112D01*
X-71982Y69276D01*
X-72720Y68783D01*
X-73213Y68045D01*
X-73342Y67398D01*
X-73862Y67346D01*
X-74145Y68030D01*
X-74606Y68631D01*
Y69095D01*
X-75070D01*
X-75671Y69556D01*
X-76370Y69845D01*
X-76270Y70345D01*
X-61741D01*
Y70338D01*
X-59940Y70480D01*
X-58184Y70902D01*
X-56515Y71593D01*
X-54975Y72537D01*
X-53601Y73710D01*
X-53606Y73715D01*
X-45514Y81807D01*
X-44561Y81506D01*
X-43474Y81459D01*
X-42411Y81694D01*
X-42139Y81836D01*
X-41722Y81560D01*
D02*
G37*
G36*
X-20080Y78137D02*
X-19038Y77982D01*
X-18453Y77834D01*
X-18107Y77186D01*
X-17230Y76118D01*
X-17227Y76122D01*
X-17227Y76122D01*
X-13171Y72066D01*
X-13115Y72028D01*
X-12099Y70790D01*
X-11312Y69318D01*
X-10827Y67721D01*
X-10670Y66127D01*
X-10683Y66060D01*
Y18858D01*
X-10670Y18791D01*
X-10827Y17197D01*
X-11312Y15600D01*
X-12099Y14128D01*
X-13157Y12837D01*
X-14448Y11779D01*
X-15920Y10992D01*
X-17517Y10507D01*
X-19111Y10350D01*
X-19178Y10364D01*
X-143543D01*
X-143610Y10350D01*
X-145204Y10507D01*
X-146802Y10992D01*
X-148274Y11779D01*
X-149564Y12837D01*
X-150623Y14128D01*
X-151410Y15600D01*
X-151894Y17197D01*
X-152051Y18791D01*
X-152038Y18858D01*
Y23110D01*
X-144380D01*
Y30389D01*
X-143918Y30581D01*
X-138819Y25481D01*
Y23110D01*
X-134956D01*
X-134685Y23075D01*
X-107607D01*
Y23066D01*
X-105389Y23241D01*
X-103226Y23760D01*
X-101170Y24612D01*
X-99273Y25774D01*
X-97582Y27219D01*
X-97587Y27225D01*
X-92058Y32754D01*
X-91714Y33099D01*
X-91346Y33418D01*
X-90838Y33835D01*
X-89827Y34375D01*
X-88731Y34708D01*
X-87651Y34814D01*
X-87591Y34806D01*
X-85236D01*
Y34646D01*
X-72244D01*
Y34806D01*
X-68044D01*
Y33859D01*
X-69684D01*
Y27560D01*
X-63491D01*
X-62991Y27560D01*
Y27560D01*
X-62991D01*
Y27560D01*
X-56299D01*
Y27560D01*
X-50499D01*
X-49999Y27560D01*
Y27560D01*
X-49999D01*
Y27560D01*
X-43306D01*
Y29204D01*
X-42125D01*
Y27560D01*
X-35432D01*
Y27560D01*
X-35251Y27741D01*
X-32586D01*
Y30710D01*
Y33936D01*
X-32659Y34152D01*
X-32584Y34209D01*
X-31811Y35217D01*
X-31325Y36390D01*
X-31159Y37649D01*
X-31172D01*
Y39269D01*
X-30315D01*
Y46159D01*
X-35039D01*
Y45978D01*
X-35917D01*
Y42714D01*
X-36917D01*
Y45978D01*
X-37681D01*
X-37772Y46433D01*
X-37817Y46543D01*
X-37840Y46659D01*
X-38181Y47480D01*
X-38246Y47579D01*
X-38292Y47688D01*
X-38514Y48021D01*
X-38247Y48521D01*
X-30315D01*
Y49557D01*
X-28740D01*
X-28740Y47340D01*
X-28559Y46915D01*
Y44100D01*
X-20653D01*
Y46915D01*
X-20472Y47340D01*
X-20472Y47584D01*
Y54820D01*
X-24166D01*
Y55433D01*
X-24130D01*
Y68425D01*
X-25277D01*
X-25394Y68448D01*
X-29692D01*
Y69053D01*
X-29680D01*
X-29856Y70831D01*
X-30374Y72540D01*
X-31216Y74115D01*
X-31605Y74589D01*
X-31473Y75072D01*
X-25721Y77165D01*
X-25721Y77165D01*
X-25240Y77378D01*
X-24248Y77732D01*
X-23226Y77986D01*
X-22184Y78140D01*
X-21132Y78190D01*
X-20080Y78137D01*
D02*
G37*
G36*
X41614Y101894D02*
X43211Y101410D01*
X44683Y100623D01*
X45921Y99607D01*
X45959Y99550D01*
X49550Y95959D01*
X49607Y95921D01*
X50623Y94683D01*
X51410Y93211D01*
X51734Y92143D01*
X51619Y91988D01*
X51350Y91748D01*
X50106D01*
Y89370D01*
X49106D01*
Y91748D01*
X48063D01*
X47638Y91929D01*
Y91929D01*
X47638Y91929D01*
X43701D01*
Y86811D01*
Y79528D01*
Y75804D01*
X42429D01*
Y72835D01*
X41929D01*
Y72335D01*
X38764D01*
Y70797D01*
X30441D01*
Y70803D01*
X28640Y70661D01*
X26884Y70240D01*
X25215Y69548D01*
X23675Y68605D01*
X22301Y67431D01*
X22306Y67427D01*
X5596Y50717D01*
X5016Y50957D01*
X3937Y51099D01*
X2858Y50957D01*
X2357Y50749D01*
X1936Y51262D01*
X1149Y52734D01*
X864Y53675D01*
X1296Y53974D01*
X1944Y53476D01*
X2905Y53078D01*
X3437Y53008D01*
Y56929D01*
Y60850D01*
X2905Y60780D01*
X1944Y60382D01*
X1118Y59748D01*
X994Y59588D01*
X521Y59748D01*
Y62795D01*
X8071D01*
Y71063D01*
X521D01*
Y85443D01*
X530D01*
X380Y86967D01*
X317Y87172D01*
X365Y87216D01*
X950Y88134D01*
X1277Y89172D01*
X1325Y90260D01*
X1089Y91322D01*
X586Y92288D01*
X-149Y93090D01*
X-1067Y93675D01*
X-1922Y93945D01*
X-2107Y94466D01*
X2977Y99550D01*
X3015Y99607D01*
X4253Y100623D01*
X5725Y101410D01*
X7322Y101894D01*
X8917Y102051D01*
X8984Y102038D01*
X18459D01*
X18519Y101538D01*
X17470Y101286D01*
X15294Y100385D01*
X13286Y99155D01*
X11496Y97625D01*
X9966Y95835D01*
X8736Y93827D01*
X7835Y91651D01*
X7285Y89361D01*
X7100Y87014D01*
X7285Y84666D01*
X7835Y82376D01*
X8736Y80201D01*
X9966Y78193D01*
X11496Y76402D01*
X13286Y74873D01*
X15294Y73643D01*
X17470Y72741D01*
X19759Y72192D01*
X22107Y72007D01*
X24455Y72192D01*
X26744Y72741D01*
X28920Y73643D01*
X30928Y74873D01*
X32719Y76402D01*
X34248Y78193D01*
X35478Y80201D01*
X36379Y82376D01*
X36929Y84666D01*
X37114Y87014D01*
X36929Y89361D01*
X36379Y91651D01*
X35478Y93827D01*
X34248Y95835D01*
X32719Y97625D01*
X30928Y99155D01*
X28920Y100385D01*
X26744Y101286D01*
X25695Y101538D01*
X25755Y102038D01*
X39952D01*
X40019Y102051D01*
X41614Y101894D01*
D02*
G37*
G36*
X-25394Y56299D02*
X-59252D01*
Y61417D01*
Y61991D01*
X-59028Y63117D01*
X-58589Y64177D01*
X-57951Y65132D01*
X-57140Y65943D01*
X-56185Y66581D01*
X-55125Y67020D01*
X-53999Y67244D01*
X-53425Y67244D01*
X-53425Y67244D01*
X-25394D01*
Y56299D01*
D02*
G37*
G36*
X-81925Y43307D02*
X-85236D01*
Y43145D01*
X-87591D01*
Y43153D01*
X-89809Y42979D01*
X-91972Y42459D01*
X-94027Y41608D01*
X-95924Y40446D01*
X-97616Y39001D01*
X-97616Y39001D01*
X-97964Y38642D01*
X-103484Y33121D01*
X-103521Y33073D01*
X-104360Y32385D01*
X-105370Y31845D01*
X-106467Y31512D01*
X-107547Y31406D01*
X-107607Y31414D01*
X-109686D01*
X-110039Y31767D01*
X-110039Y32480D01*
X-110220Y32905D01*
Y35326D01*
X-113189D01*
X-116157D01*
Y32905D01*
X-116338Y32480D01*
X-116338Y32236D01*
Y31414D01*
X-132958D01*
X-134342Y32798D01*
X-134163Y33326D01*
X-133653Y33393D01*
X-132692Y33791D01*
X-131866Y34425D01*
X-131232Y35251D01*
X-130834Y36212D01*
X-130764Y36744D01*
X-134685D01*
Y37244D01*
X-135185D01*
Y41165D01*
X-135717Y41095D01*
X-136679Y40697D01*
X-137504Y40063D01*
X-138138Y39237D01*
X-138536Y38276D01*
X-138605Y37754D01*
X-139136Y37550D01*
X-140423Y38650D01*
X-142254Y39772D01*
X-144237Y40593D01*
X-146324Y41094D01*
X-148465Y41263D01*
X-148465Y41263D01*
X-148514Y41256D01*
X-148832Y41214D01*
X-148939Y41200D01*
X-148959Y41198D01*
X-149593Y41114D01*
X-150599Y40698D01*
X-151462Y40035D01*
X-151565Y39902D01*
X-152038Y40063D01*
Y44207D01*
X-151538Y44377D01*
X-151333Y44110D01*
X-150508Y43476D01*
X-149546Y43078D01*
X-149014Y43008D01*
Y46929D01*
X-148514D01*
Y47429D01*
X-144593D01*
X-144663Y47961D01*
X-145062Y48923D01*
X-145695Y49748D01*
X-146407Y50295D01*
X-146413Y50330D01*
X-146366Y50714D01*
X-146313Y50828D01*
X-145389Y51108D01*
X-144373Y51651D01*
X-143491Y52375D01*
X-143484Y52379D01*
X-143484Y52380D01*
X-143483Y52381D01*
X-143482Y52382D01*
X-142991Y52873D01*
X-142991Y52872D01*
X-142235Y53793D01*
X-141710Y54774D01*
X-141494Y54797D01*
X-141189Y54717D01*
X-141155Y54542D01*
X-141077Y54426D01*
X-140712Y52908D01*
X-140021Y51239D01*
X-139077Y49698D01*
X-138448Y48962D01*
X-138713Y48323D01*
X-138855Y47244D01*
X-138713Y46165D01*
X-138296Y45159D01*
X-137633Y44296D01*
X-136770Y43633D01*
X-135764Y43217D01*
X-134685Y43075D01*
X-133606Y43217D01*
X-132600Y43633D01*
X-131737Y44296D01*
X-131074Y45159D01*
X-130658Y46165D01*
X-130516Y47244D01*
X-130658Y48323D01*
X-131074Y49329D01*
X-131737Y50192D01*
X-132600Y50855D01*
X-133606Y51272D01*
X-134685Y51414D01*
X-135764Y51272D01*
X-136286Y51055D01*
X-136843Y51735D01*
X-137630Y53207D01*
X-137811Y53802D01*
X-137379Y54101D01*
X-136770Y53633D01*
X-135764Y53217D01*
X-134685Y53075D01*
X-133606Y53217D01*
X-132600Y53633D01*
X-131737Y54296D01*
X-131074Y55159D01*
X-130834Y55739D01*
X-124744D01*
Y55732D01*
X-122943Y55874D01*
X-121187Y56296D01*
X-119518Y56987D01*
X-117977Y57931D01*
X-116604Y59104D01*
X-116604Y59104D01*
X-116235Y59420D01*
X-115633Y59882D01*
X-114480Y60360D01*
X-113303Y60514D01*
X-113243Y60503D01*
X-112764D01*
X-112521Y60003D01*
X-113037Y59331D01*
X-113453Y58325D01*
X-113595Y57246D01*
X-113453Y56167D01*
X-113037Y55161D01*
X-112374Y54298D01*
X-111510Y53635D01*
X-110505Y53219D01*
X-109426Y53076D01*
X-97684D01*
Y53068D01*
X-95466Y53243D01*
X-93303Y53762D01*
X-91247Y54614D01*
X-89350Y55776D01*
X-87659Y57221D01*
X-87664Y57227D01*
X-83115Y61775D01*
X-81925D01*
Y43307D01*
D02*
G37*
G36*
X-41975Y49220D02*
X-41154Y48880D01*
X-40415Y48387D01*
X-39787Y47758D01*
X-39293Y47019D01*
X-38953Y46198D01*
X-38780Y45326D01*
Y44882D01*
Y40157D01*
Y39770D01*
X-38931Y39009D01*
X-39228Y38293D01*
X-39658Y37648D01*
X-40207Y37099D01*
X-40852Y36669D01*
X-41568Y36372D01*
X-42329Y36220D01*
X-49409D01*
Y40157D01*
X-49459Y40656D01*
X-49840Y41578D01*
X-50546Y42283D01*
X-51467Y42665D01*
X-51966Y42714D01*
X-57360D01*
X-58228Y43073D01*
X-58892Y43738D01*
X-59252Y44606D01*
Y45076D01*
Y49394D01*
X-42847D01*
X-41975Y49220D01*
D02*
G37*
G36*
X1047062Y-166394D02*
X1046775D01*
Y-166681D01*
X1046489D01*
Y-166967D01*
Y-167253D01*
X1046203D01*
Y-167539D01*
X1045916D01*
Y-167826D01*
X1045630D01*
Y-168112D01*
Y-168398D01*
X1045344D01*
Y-168685D01*
X1045057D01*
Y-168971D01*
X1044771D01*
Y-169257D01*
X1044485D01*
Y-169544D01*
Y-169830D01*
X1044198D01*
Y-170116D01*
X1043912D01*
Y-170403D01*
X1043626D01*
Y-170689D01*
Y-170975D01*
X1043340D01*
Y-171262D01*
X1043053D01*
Y-171548D01*
X1042767D01*
Y-171834D01*
X1042480D01*
Y-172120D01*
Y-172407D01*
X1042194D01*
Y-172693D01*
X1041908D01*
Y-172979D01*
X1041622D01*
Y-173266D01*
Y-173552D01*
X1041335D01*
Y-173838D01*
X1041049D01*
Y-174125D01*
X1040763D01*
Y-174411D01*
Y-174697D01*
X1040476D01*
Y-174984D01*
X1040190D01*
Y-175270D01*
X1039904D01*
Y-175556D01*
X1039617D01*
Y-175842D01*
Y-176129D01*
X1039331D01*
Y-176415D01*
X1039045D01*
Y-176701D01*
X1038758D01*
Y-176988D01*
Y-177274D01*
X1038472D01*
Y-177560D01*
X1038186D01*
Y-177847D01*
X1037899D01*
Y-178133D01*
Y-178419D01*
X1037613D01*
Y-178706D01*
X1037327D01*
Y-178992D01*
X1037041D01*
Y-179278D01*
X1036754D01*
Y-179565D01*
Y-179851D01*
X1036468D01*
Y-180137D01*
X1036182D01*
Y-180423D01*
X1035895D01*
Y-180710D01*
Y-180996D01*
X1035609D01*
Y-181282D01*
X1035323D01*
Y-181569D01*
X1035036D01*
Y-181855D01*
Y-182141D01*
X1034750D01*
Y-182428D01*
X1034464D01*
Y-182714D01*
X1034177D01*
Y-183000D01*
X1033891D01*
Y-183287D01*
Y-183573D01*
X1033605D01*
Y-183859D01*
X1033319D01*
Y-184146D01*
X1033032D01*
Y-184432D01*
Y-184718D01*
X1032746D01*
Y-185004D01*
X1032460D01*
Y-185291D01*
X1032173D01*
Y-185577D01*
X1031887D01*
Y-185863D01*
Y-186150D01*
X1032173D01*
Y-186436D01*
Y-186722D01*
X1032460D01*
Y-187009D01*
Y-187295D01*
X1032746D01*
Y-187581D01*
X1033032D01*
Y-187868D01*
Y-188154D01*
X1033319D01*
Y-188440D01*
Y-188727D01*
X1033605D01*
Y-189013D01*
Y-189299D01*
X1033891D01*
Y-189585D01*
Y-189872D01*
X1034177D01*
Y-190158D01*
Y-190444D01*
X1034464D01*
Y-190731D01*
Y-191017D01*
X1034750D01*
Y-191303D01*
Y-191590D01*
X1035036D01*
Y-191876D01*
Y-192162D01*
X1035323D01*
Y-192449D01*
X1035609D01*
Y-192735D01*
Y-193021D01*
X1035895D01*
Y-193308D01*
Y-193594D01*
X1036182D01*
Y-193880D01*
Y-194167D01*
X1036468D01*
Y-194453D01*
Y-194739D01*
X1036754D01*
Y-195025D01*
Y-195312D01*
X1037041D01*
Y-195598D01*
Y-195884D01*
X1037327D01*
Y-196171D01*
Y-196457D01*
X1037613D01*
Y-196743D01*
X1037899D01*
Y-197030D01*
Y-197316D01*
X1038186D01*
Y-197602D01*
Y-197889D01*
X1038472D01*
Y-198175D01*
Y-198461D01*
X1038758D01*
Y-198748D01*
Y-199034D01*
X1039045D01*
Y-199320D01*
Y-199606D01*
X1039331D01*
Y-199893D01*
Y-200179D01*
X1039617D01*
Y-200465D01*
Y-200752D01*
X1039904D01*
Y-201038D01*
X1040190D01*
Y-201324D01*
Y-201611D01*
X1040476D01*
Y-201897D01*
Y-202183D01*
X1040763D01*
Y-202470D01*
X1025588D01*
Y-202183D01*
X1025302D01*
Y-201897D01*
Y-201611D01*
Y-201324D01*
X1025016D01*
Y-201038D01*
Y-200752D01*
Y-200465D01*
X1024729D01*
Y-200179D01*
Y-199893D01*
X1024443D01*
Y-199606D01*
Y-199320D01*
Y-199034D01*
X1024156D01*
Y-198748D01*
Y-198461D01*
Y-198175D01*
X1023870D01*
Y-197889D01*
Y-197602D01*
X1023584D01*
Y-197316D01*
Y-197030D01*
Y-196743D01*
X1023298D01*
Y-196457D01*
Y-196171D01*
Y-195884D01*
X1023011D01*
Y-195598D01*
Y-195312D01*
Y-195025D01*
X1022725D01*
Y-194739D01*
X1022152D01*
Y-195025D01*
Y-195312D01*
X1021866D01*
Y-195598D01*
X1021580D01*
Y-195884D01*
Y-196171D01*
X1021293D01*
Y-196457D01*
X1021007D01*
Y-196743D01*
Y-197030D01*
X1020721D01*
Y-197316D01*
X1020434D01*
Y-197602D01*
Y-197889D01*
X1020148D01*
Y-198175D01*
X1019862D01*
Y-198461D01*
X1019576D01*
Y-198748D01*
Y-199034D01*
X1019289D01*
Y-199320D01*
X1019003D01*
Y-199606D01*
Y-199893D01*
X1018717D01*
Y-200179D01*
X1018430D01*
Y-200465D01*
Y-200752D01*
X1018144D01*
Y-201038D01*
X1017858D01*
Y-201324D01*
Y-201611D01*
X1017571D01*
Y-201897D01*
X1017285D01*
Y-202183D01*
Y-202470D01*
X1001252D01*
Y-202183D01*
X1001538D01*
Y-201897D01*
X1001824D01*
Y-201611D01*
X1002110D01*
Y-201324D01*
X1002397D01*
Y-201038D01*
Y-200752D01*
X1002683D01*
Y-200465D01*
X1002969D01*
Y-200179D01*
X1003256D01*
Y-199893D01*
X1003542D01*
Y-199606D01*
Y-199320D01*
X1003828D01*
Y-199034D01*
X1004115D01*
Y-198748D01*
X1004401D01*
Y-198461D01*
Y-198175D01*
X1004687D01*
Y-197889D01*
X1004974D01*
Y-197602D01*
X1005260D01*
Y-197316D01*
X1005546D01*
Y-197030D01*
Y-196743D01*
X1005832D01*
Y-196457D01*
X1006119D01*
Y-196171D01*
X1006405D01*
Y-195884D01*
X1006691D01*
Y-195598D01*
Y-195312D01*
X1006978D01*
Y-195025D01*
X1007264D01*
Y-194739D01*
X1007550D01*
Y-194453D01*
Y-194167D01*
X1007837D01*
Y-193880D01*
X1008123D01*
Y-193594D01*
X1008409D01*
Y-193308D01*
X1008696D01*
Y-193021D01*
Y-192735D01*
X1008982D01*
Y-192449D01*
X1009268D01*
Y-192162D01*
X1009555D01*
Y-191876D01*
Y-191590D01*
X1009841D01*
Y-191303D01*
X1010127D01*
Y-191017D01*
X1010413D01*
Y-190731D01*
X1010700D01*
Y-190444D01*
Y-190158D01*
X1010986D01*
Y-189872D01*
X1011272D01*
Y-189585D01*
X1011559D01*
Y-189299D01*
Y-189013D01*
X1011845D01*
Y-188727D01*
X1012131D01*
Y-188440D01*
X1012418D01*
Y-188154D01*
X1012704D01*
Y-187868D01*
Y-187581D01*
X1012990D01*
Y-187295D01*
X1013277D01*
Y-187009D01*
X1013563D01*
Y-186722D01*
X1013849D01*
Y-186436D01*
Y-186150D01*
X1014136D01*
Y-185863D01*
X1014422D01*
Y-185577D01*
X1014708D01*
Y-185291D01*
Y-185004D01*
X1014995D01*
Y-184718D01*
X1015281D01*
Y-184432D01*
X1015567D01*
Y-184146D01*
X1015853D01*
Y-183859D01*
Y-183573D01*
X1016140D01*
Y-183287D01*
Y-183000D01*
Y-182714D01*
X1015853D01*
Y-182428D01*
X1015567D01*
Y-182141D01*
Y-181855D01*
X1015281D01*
Y-181569D01*
Y-181282D01*
X1014995D01*
Y-180996D01*
Y-180710D01*
X1014708D01*
Y-180423D01*
Y-180137D01*
X1014422D01*
Y-179851D01*
Y-179565D01*
X1014136D01*
Y-179278D01*
Y-178992D01*
X1013849D01*
Y-178706D01*
X1013563D01*
Y-178419D01*
Y-178133D01*
X1013277D01*
Y-177847D01*
Y-177560D01*
X1012990D01*
Y-177274D01*
Y-176988D01*
X1012704D01*
Y-176701D01*
Y-176415D01*
X1012418D01*
Y-176129D01*
Y-175842D01*
X1012131D01*
Y-175556D01*
Y-175270D01*
X1011845D01*
Y-174984D01*
X1011559D01*
Y-174697D01*
Y-174411D01*
X1011272D01*
Y-174125D01*
Y-173838D01*
X1010986D01*
Y-173552D01*
Y-173266D01*
X1010700D01*
Y-172979D01*
Y-172693D01*
X1010413D01*
Y-172407D01*
Y-172120D01*
X1010127D01*
Y-171834D01*
Y-171548D01*
X1009841D01*
Y-171262D01*
Y-170975D01*
X1009555D01*
Y-170689D01*
X1009268D01*
Y-170403D01*
Y-170116D01*
X1008982D01*
Y-169830D01*
Y-169544D01*
X1008696D01*
Y-169257D01*
Y-168971D01*
X1008409D01*
Y-168685D01*
Y-168398D01*
X1008123D01*
Y-168112D01*
Y-167826D01*
X1007837D01*
Y-167539D01*
Y-167253D01*
X1007550D01*
Y-166967D01*
X1007264D01*
Y-166681D01*
Y-166394D01*
X1006978D01*
Y-166108D01*
X1022725D01*
Y-166394D01*
X1023011D01*
Y-166681D01*
Y-166967D01*
Y-167253D01*
X1023298D01*
Y-167539D01*
Y-167826D01*
Y-168112D01*
X1023584D01*
Y-168398D01*
Y-168685D01*
Y-168971D01*
X1023870D01*
Y-169257D01*
Y-169544D01*
Y-169830D01*
X1024156D01*
Y-170116D01*
Y-170403D01*
Y-170689D01*
X1024443D01*
Y-170975D01*
Y-171262D01*
Y-171548D01*
X1024729D01*
Y-171834D01*
Y-172120D01*
Y-172407D01*
X1025016D01*
Y-172693D01*
Y-172979D01*
Y-173266D01*
X1025302D01*
Y-173552D01*
Y-173838D01*
Y-174125D01*
Y-174411D01*
X1025874D01*
Y-174125D01*
X1026161D01*
Y-173838D01*
X1026447D01*
Y-173552D01*
Y-173266D01*
X1026733D01*
Y-172979D01*
X1027020D01*
Y-172693D01*
Y-172407D01*
X1027306D01*
Y-172120D01*
X1027592D01*
Y-171834D01*
Y-171548D01*
X1027879D01*
Y-171262D01*
X1028165D01*
Y-170975D01*
Y-170689D01*
X1028451D01*
Y-170403D01*
X1028738D01*
Y-170116D01*
Y-169830D01*
X1029024D01*
Y-169544D01*
X1029310D01*
Y-169257D01*
Y-168971D01*
X1029597D01*
Y-168685D01*
X1029883D01*
Y-168398D01*
Y-168112D01*
X1030169D01*
Y-167826D01*
X1030455D01*
Y-167539D01*
Y-167253D01*
X1030742D01*
Y-166967D01*
X1031028D01*
Y-166681D01*
Y-166394D01*
X1031314D01*
Y-166108D01*
X1047062D01*
Y-166394D01*
D02*
G37*
G36*
X913926Y-152365D02*
X915644D01*
Y-152651D01*
X916503D01*
Y-152937D01*
X917362D01*
Y-153224D01*
X918221D01*
Y-153510D01*
X918793D01*
Y-153796D01*
X919080D01*
Y-154083D01*
X919652D01*
Y-154369D01*
X919939D01*
Y-154655D01*
X920511D01*
Y-154942D01*
X920798D01*
Y-155228D01*
X921084D01*
Y-155514D01*
X921370D01*
Y-155801D01*
X921657D01*
Y-156087D01*
X921943D01*
Y-156373D01*
X922229D01*
Y-156659D01*
Y-156946D01*
X922515D01*
Y-157232D01*
X922802D01*
Y-157518D01*
Y-157805D01*
X923088D01*
Y-158091D01*
X923374D01*
Y-158377D01*
Y-158664D01*
X923661D01*
Y-158950D01*
Y-159236D01*
Y-159523D01*
X923947D01*
Y-159809D01*
Y-160095D01*
Y-160382D01*
X924233D01*
Y-160668D01*
Y-160954D01*
Y-161240D01*
Y-161527D01*
X924520D01*
Y-161813D01*
Y-162100D01*
Y-162386D01*
Y-162672D01*
Y-162958D01*
X924806D01*
Y-163245D01*
Y-163531D01*
Y-163817D01*
Y-164104D01*
Y-164390D01*
Y-164676D01*
Y-164963D01*
Y-165249D01*
Y-165535D01*
Y-165822D01*
Y-166108D01*
Y-166394D01*
Y-166681D01*
Y-166967D01*
Y-167253D01*
Y-167539D01*
Y-167826D01*
Y-168112D01*
Y-168398D01*
Y-168685D01*
X924520D01*
Y-168971D01*
Y-169257D01*
Y-169544D01*
Y-169830D01*
Y-170116D01*
Y-170403D01*
Y-170689D01*
X924233D01*
Y-170975D01*
Y-171262D01*
Y-171548D01*
Y-171834D01*
Y-172120D01*
X923947D01*
Y-172407D01*
Y-172693D01*
Y-172979D01*
Y-173266D01*
Y-173552D01*
X923661D01*
Y-173838D01*
Y-174125D01*
Y-174411D01*
X923374D01*
Y-174697D01*
Y-174984D01*
Y-175270D01*
Y-175556D01*
X923088D01*
Y-175842D01*
Y-176129D01*
Y-176415D01*
X922802D01*
Y-176701D01*
Y-176988D01*
X922515D01*
Y-177274D01*
Y-177560D01*
Y-177847D01*
X922229D01*
Y-178133D01*
Y-178419D01*
X921943D01*
Y-178706D01*
Y-178992D01*
X921657D01*
Y-179278D01*
Y-179565D01*
X921370D01*
Y-179851D01*
X921084D01*
Y-180137D01*
Y-180423D01*
X920798D01*
Y-180710D01*
X920511D01*
Y-180996D01*
X920225D01*
Y-181282D01*
Y-181569D01*
X919939D01*
Y-181855D01*
X919652D01*
Y-182141D01*
X919366D01*
Y-182428D01*
X919080D01*
Y-182714D01*
X918793D01*
Y-183000D01*
X918221D01*
Y-183287D01*
X917934D01*
Y-183573D01*
X917362D01*
Y-183859D01*
X917076D01*
Y-184146D01*
X916503D01*
Y-184432D01*
X915644D01*
Y-184718D01*
X914785D01*
Y-185004D01*
X913926D01*
Y-185291D01*
X912208D01*
Y-185577D01*
X907055D01*
Y-185291D01*
X904478D01*
Y-185004D01*
X902474D01*
Y-184718D01*
X901042D01*
Y-184432D01*
X899610D01*
Y-184146D01*
X898179D01*
Y-184432D01*
Y-184718D01*
Y-185004D01*
Y-185291D01*
Y-185577D01*
Y-185863D01*
Y-186150D01*
X897892D01*
Y-186436D01*
Y-186722D01*
Y-187009D01*
Y-187295D01*
Y-187581D01*
Y-187868D01*
X897606D01*
Y-188154D01*
Y-188440D01*
Y-188727D01*
Y-189013D01*
Y-189299D01*
Y-189585D01*
X897320D01*
Y-189872D01*
Y-190158D01*
Y-190444D01*
Y-190731D01*
Y-191017D01*
Y-191303D01*
Y-191590D01*
X897034D01*
Y-191876D01*
Y-192162D01*
Y-192449D01*
Y-192735D01*
Y-193021D01*
Y-193308D01*
X896747D01*
Y-193594D01*
Y-193880D01*
Y-194167D01*
Y-194453D01*
Y-194739D01*
Y-195025D01*
X896461D01*
Y-195312D01*
Y-195598D01*
Y-195884D01*
Y-196171D01*
Y-196457D01*
Y-196743D01*
Y-197030D01*
X896175D01*
Y-197316D01*
Y-197602D01*
Y-197889D01*
Y-198175D01*
Y-198461D01*
Y-198748D01*
X895888D01*
Y-199034D01*
Y-199320D01*
Y-199606D01*
Y-199893D01*
Y-200179D01*
Y-200465D01*
X895602D01*
Y-200752D01*
Y-201038D01*
Y-201324D01*
Y-201611D01*
Y-201897D01*
Y-202183D01*
Y-202470D01*
X882145D01*
Y-202183D01*
X882432D01*
Y-201897D01*
Y-201611D01*
Y-201324D01*
Y-201038D01*
Y-200752D01*
X882718D01*
Y-200465D01*
Y-200179D01*
Y-199893D01*
Y-199606D01*
Y-199320D01*
Y-199034D01*
Y-198748D01*
X883004D01*
Y-198461D01*
Y-198175D01*
Y-197889D01*
Y-197602D01*
Y-197316D01*
Y-197030D01*
X883291D01*
Y-196743D01*
Y-196457D01*
Y-196171D01*
Y-195884D01*
Y-195598D01*
Y-195312D01*
X883577D01*
Y-195025D01*
Y-194739D01*
Y-194453D01*
Y-194167D01*
Y-193880D01*
Y-193594D01*
Y-193308D01*
X883863D01*
Y-193021D01*
Y-192735D01*
Y-192449D01*
Y-192162D01*
Y-191876D01*
Y-191590D01*
X884149D01*
Y-191303D01*
Y-191017D01*
Y-190731D01*
Y-190444D01*
Y-190158D01*
Y-189872D01*
X884436D01*
Y-189585D01*
Y-189299D01*
Y-189013D01*
Y-188727D01*
Y-188440D01*
Y-188154D01*
X884722D01*
Y-187868D01*
Y-187581D01*
Y-187295D01*
Y-187009D01*
Y-186722D01*
Y-186436D01*
Y-186150D01*
X885009D01*
Y-185863D01*
Y-185577D01*
Y-185291D01*
Y-185004D01*
Y-184718D01*
Y-184432D01*
X885295D01*
Y-184146D01*
Y-183859D01*
Y-183573D01*
Y-183287D01*
Y-183000D01*
Y-182714D01*
X885581D01*
Y-182428D01*
Y-182141D01*
Y-181855D01*
Y-181569D01*
Y-181282D01*
Y-180996D01*
X885867D01*
Y-180710D01*
Y-180423D01*
Y-180137D01*
Y-179851D01*
Y-179565D01*
Y-179278D01*
Y-178992D01*
X886154D01*
Y-178706D01*
Y-178419D01*
Y-178133D01*
Y-177847D01*
Y-177560D01*
Y-177274D01*
X886440D01*
Y-176988D01*
Y-176701D01*
Y-176415D01*
Y-176129D01*
Y-175842D01*
Y-175556D01*
X886726D01*
Y-175270D01*
Y-174984D01*
Y-174697D01*
Y-174411D01*
Y-174125D01*
Y-173838D01*
Y-173552D01*
X887013D01*
Y-173266D01*
Y-172979D01*
Y-172693D01*
Y-172407D01*
Y-172120D01*
Y-171834D01*
X887299D01*
Y-171548D01*
Y-171262D01*
Y-170975D01*
Y-170689D01*
Y-170403D01*
Y-170116D01*
X887585D01*
Y-169830D01*
Y-169544D01*
Y-169257D01*
Y-168971D01*
Y-168685D01*
Y-168398D01*
X887872D01*
Y-168112D01*
Y-167826D01*
Y-167539D01*
Y-167253D01*
Y-166967D01*
Y-166681D01*
Y-166394D01*
X888158D01*
Y-166108D01*
Y-165822D01*
Y-165535D01*
Y-165249D01*
Y-164963D01*
Y-164676D01*
X888444D01*
Y-164390D01*
Y-164104D01*
Y-163817D01*
Y-163531D01*
Y-163245D01*
Y-162958D01*
X888731D01*
Y-162672D01*
Y-162386D01*
Y-162100D01*
Y-161813D01*
Y-161527D01*
Y-161240D01*
Y-160954D01*
X889017D01*
Y-160668D01*
Y-160382D01*
Y-160095D01*
Y-159809D01*
Y-159523D01*
Y-159236D01*
X889303D01*
Y-158950D01*
Y-158664D01*
Y-158377D01*
Y-158091D01*
Y-157805D01*
Y-157518D01*
X889590D01*
Y-157232D01*
Y-156946D01*
Y-156659D01*
Y-156373D01*
Y-156087D01*
Y-155801D01*
Y-155514D01*
X889876D01*
Y-155228D01*
Y-154942D01*
Y-154655D01*
Y-154369D01*
Y-154083D01*
Y-153796D01*
X890162D01*
Y-153510D01*
Y-153224D01*
Y-152937D01*
Y-152651D01*
Y-152365D01*
Y-152078D01*
X913926D01*
Y-152365D01*
D02*
G37*
G36*
X1002969Y-166394D02*
Y-166681D01*
Y-166967D01*
Y-167253D01*
Y-167539D01*
Y-167826D01*
Y-168112D01*
Y-168398D01*
Y-168685D01*
Y-168971D01*
Y-169257D01*
Y-169544D01*
Y-169830D01*
Y-170116D01*
Y-170403D01*
Y-170689D01*
Y-170975D01*
Y-171262D01*
Y-171548D01*
Y-171834D01*
Y-172120D01*
X1002683D01*
Y-172407D01*
Y-172693D01*
Y-172979D01*
Y-173266D01*
Y-173552D01*
X1002397D01*
Y-173838D01*
Y-174125D01*
Y-174411D01*
Y-174697D01*
X1002110D01*
Y-174984D01*
Y-175270D01*
Y-175556D01*
Y-175842D01*
X1001824D01*
Y-176129D01*
Y-176415D01*
Y-176701D01*
X1001538D01*
Y-176988D01*
Y-177274D01*
Y-177560D01*
X1001252D01*
Y-177847D01*
Y-178133D01*
Y-178419D01*
X1000965D01*
Y-178706D01*
Y-178992D01*
Y-179278D01*
X1000679D01*
Y-179565D01*
Y-179851D01*
X1000393D01*
Y-180137D01*
Y-180423D01*
X1000106D01*
Y-180710D01*
Y-180996D01*
Y-181282D01*
X999820D01*
Y-181569D01*
Y-181855D01*
X999534D01*
Y-182141D01*
Y-182428D01*
Y-182714D01*
X999247D01*
Y-183000D01*
Y-183287D01*
X998961D01*
Y-183573D01*
Y-183859D01*
Y-184146D01*
X998675D01*
Y-184432D01*
Y-184718D01*
X998388D01*
Y-185004D01*
Y-185291D01*
Y-185577D01*
X998102D01*
Y-185863D01*
Y-186150D01*
X997816D01*
Y-186436D01*
Y-186722D01*
Y-187009D01*
X997529D01*
Y-187295D01*
Y-187581D01*
X997243D01*
Y-187868D01*
Y-188154D01*
Y-188440D01*
X996957D01*
Y-188727D01*
Y-189013D01*
X996671D01*
Y-189299D01*
Y-189585D01*
Y-189872D01*
X996384D01*
Y-190158D01*
Y-190444D01*
X996098D01*
Y-190731D01*
Y-191017D01*
Y-191303D01*
X995811D01*
Y-191590D01*
Y-191876D01*
X995525D01*
Y-192162D01*
Y-192449D01*
Y-192735D01*
X995239D01*
Y-193021D01*
Y-193308D01*
X994953D01*
Y-193594D01*
Y-193880D01*
Y-194167D01*
X994666D01*
Y-194453D01*
Y-194739D01*
X994380D01*
Y-195025D01*
Y-195312D01*
Y-195598D01*
X994094D01*
Y-195884D01*
Y-196171D01*
X993807D01*
Y-196457D01*
Y-196743D01*
Y-197030D01*
X993521D01*
Y-197316D01*
Y-197602D01*
X993235D01*
Y-197889D01*
Y-198175D01*
Y-198461D01*
X992948D01*
Y-198748D01*
Y-199034D01*
X992662D01*
Y-199320D01*
Y-199606D01*
Y-199893D01*
X992376D01*
Y-200179D01*
Y-200465D01*
X992089D01*
Y-200752D01*
Y-201038D01*
Y-201324D01*
X991803D01*
Y-201611D01*
Y-201897D01*
X991517D01*
Y-202183D01*
Y-202470D01*
Y-202756D01*
X991230D01*
Y-203042D01*
Y-203328D01*
X990944D01*
Y-203615D01*
Y-203901D01*
X990658D01*
Y-204187D01*
Y-204474D01*
X990372D01*
Y-204760D01*
Y-205046D01*
Y-205333D01*
X990085D01*
Y-205619D01*
X989799D01*
Y-205905D01*
Y-206192D01*
Y-206478D01*
X989513D01*
Y-206764D01*
X989226D01*
Y-207051D01*
Y-207337D01*
X988940D01*
Y-207623D01*
Y-207909D01*
X988654D01*
Y-208196D01*
Y-208482D01*
X988367D01*
Y-208769D01*
Y-209055D01*
X988081D01*
Y-209341D01*
X987795D01*
Y-209627D01*
Y-209914D01*
X987508D01*
Y-210200D01*
Y-210486D01*
X987222D01*
Y-210773D01*
X986936D01*
Y-211059D01*
X986650D01*
Y-211345D01*
Y-211632D01*
X986363D01*
Y-211918D01*
X986077D01*
Y-212204D01*
Y-212491D01*
X985791D01*
Y-212777D01*
X985504D01*
Y-213063D01*
X985218D01*
Y-213350D01*
Y-213636D01*
X984932D01*
Y-213922D01*
X984645D01*
Y-214208D01*
X984359D01*
Y-214495D01*
X984073D01*
Y-214781D01*
X983786D01*
Y-215067D01*
Y-215354D01*
X983500D01*
Y-215640D01*
X983214D01*
Y-215926D01*
X982928D01*
Y-216213D01*
X982641D01*
Y-216499D01*
X982355D01*
Y-216785D01*
X982069D01*
Y-217072D01*
X981782D01*
Y-217358D01*
X981210D01*
Y-217644D01*
X980923D01*
Y-217931D01*
X980637D01*
Y-218217D01*
X980351D01*
Y-218503D01*
X980064D01*
Y-218789D01*
X979492D01*
Y-219076D01*
X979205D01*
Y-219362D01*
X978633D01*
Y-219648D01*
X978347D01*
Y-219935D01*
X977774D01*
Y-220221D01*
X977487D01*
Y-220507D01*
X976915D01*
Y-220794D01*
X976342D01*
Y-221080D01*
X975770D01*
Y-221366D01*
X975197D01*
Y-221653D01*
X974624D01*
Y-221939D01*
X973765D01*
Y-222225D01*
X973193D01*
Y-222512D01*
X972334D01*
Y-222798D01*
X971189D01*
Y-223084D01*
X970043D01*
Y-223370D01*
X968326D01*
Y-223657D01*
X966321D01*
Y-223943D01*
X966035D01*
Y-223657D01*
Y-223370D01*
Y-223084D01*
Y-222798D01*
Y-222512D01*
Y-222225D01*
Y-221939D01*
Y-221653D01*
Y-221366D01*
Y-221080D01*
Y-220794D01*
Y-220507D01*
Y-220221D01*
Y-219935D01*
Y-219648D01*
Y-219362D01*
Y-219076D01*
Y-218789D01*
Y-218503D01*
Y-218217D01*
Y-217931D01*
Y-217644D01*
Y-217358D01*
Y-217072D01*
Y-216785D01*
Y-216499D01*
Y-216213D01*
Y-215926D01*
Y-215640D01*
Y-215354D01*
Y-215067D01*
Y-214781D01*
Y-214495D01*
X966608D01*
Y-214208D01*
X967180D01*
Y-213922D01*
X967753D01*
Y-213636D01*
X968326D01*
Y-213350D01*
X968898D01*
Y-213063D01*
X969471D01*
Y-212777D01*
X969757D01*
Y-212491D01*
X970330D01*
Y-212204D01*
X970616D01*
Y-211918D01*
X971189D01*
Y-211632D01*
X971475D01*
Y-211345D01*
X971761D01*
Y-211059D01*
X972334D01*
Y-210773D01*
X972620D01*
Y-210486D01*
X972906D01*
Y-210200D01*
X973193D01*
Y-209914D01*
X973479D01*
Y-209627D01*
X973765D01*
Y-209341D01*
X974052D01*
Y-209055D01*
X974338D01*
Y-208769D01*
X974624D01*
Y-208482D01*
X974911D01*
Y-208196D01*
X975197D01*
Y-207909D01*
X975483D01*
Y-207623D01*
Y-207337D01*
X975770D01*
Y-207051D01*
X976056D01*
Y-206764D01*
X976342D01*
Y-206478D01*
Y-206192D01*
X976629D01*
Y-205905D01*
X976915D01*
Y-205619D01*
Y-205333D01*
X977201D01*
Y-205046D01*
Y-204760D01*
X977487D01*
Y-204474D01*
X977774D01*
Y-204187D01*
Y-203901D01*
X978060D01*
Y-203615D01*
Y-203328D01*
X978347D01*
Y-203042D01*
Y-202756D01*
X976629D01*
Y-202470D01*
X974624D01*
Y-202183D01*
X973479D01*
Y-201897D01*
X972906D01*
Y-201611D01*
X972048D01*
Y-201324D01*
X971475D01*
Y-201038D01*
X971189D01*
Y-200752D01*
X970616D01*
Y-200465D01*
X970330D01*
Y-200179D01*
X970043D01*
Y-199893D01*
X969757D01*
Y-199606D01*
X969471D01*
Y-199320D01*
X969184D01*
Y-199034D01*
Y-198748D01*
X968898D01*
Y-198461D01*
X968612D01*
Y-198175D01*
Y-197889D01*
X968326D01*
Y-197602D01*
Y-197316D01*
X968039D01*
Y-197030D01*
Y-196743D01*
X967753D01*
Y-196457D01*
Y-196171D01*
Y-195884D01*
X967467D01*
Y-195598D01*
Y-195312D01*
Y-195025D01*
Y-194739D01*
X967180D01*
Y-194453D01*
Y-194167D01*
Y-193880D01*
Y-193594D01*
Y-193308D01*
Y-193021D01*
Y-192735D01*
X966894D01*
Y-192449D01*
Y-192162D01*
Y-191876D01*
Y-191590D01*
Y-191303D01*
Y-191017D01*
Y-190731D01*
Y-190444D01*
Y-190158D01*
Y-189872D01*
Y-189585D01*
Y-189299D01*
Y-189013D01*
Y-188727D01*
Y-188440D01*
X966608D01*
Y-188154D01*
Y-187868D01*
Y-187581D01*
Y-187295D01*
Y-187009D01*
Y-186722D01*
Y-186436D01*
Y-186150D01*
Y-185863D01*
Y-185577D01*
Y-185291D01*
Y-185004D01*
Y-184718D01*
Y-184432D01*
Y-184146D01*
X966321D01*
Y-183859D01*
Y-183573D01*
Y-183287D01*
Y-183000D01*
Y-182714D01*
Y-182428D01*
Y-182141D01*
Y-181855D01*
Y-181569D01*
Y-181282D01*
Y-180996D01*
Y-180710D01*
Y-180423D01*
Y-180137D01*
Y-179851D01*
Y-179565D01*
X966035D01*
Y-179278D01*
Y-178992D01*
Y-178706D01*
Y-178419D01*
Y-178133D01*
Y-177847D01*
Y-177560D01*
Y-177274D01*
Y-176988D01*
Y-176701D01*
Y-176415D01*
Y-176129D01*
Y-175842D01*
Y-175556D01*
Y-175270D01*
Y-174984D01*
X965749D01*
Y-174697D01*
Y-174411D01*
Y-174125D01*
Y-173838D01*
Y-173552D01*
Y-173266D01*
Y-172979D01*
Y-172693D01*
Y-172407D01*
Y-172120D01*
Y-171834D01*
Y-171548D01*
Y-171262D01*
Y-170975D01*
X965462D01*
Y-170689D01*
Y-170403D01*
Y-170116D01*
Y-169830D01*
Y-169544D01*
Y-169257D01*
Y-168971D01*
Y-168685D01*
Y-168398D01*
Y-168112D01*
Y-167826D01*
Y-167539D01*
Y-167253D01*
Y-166967D01*
Y-166681D01*
Y-166394D01*
X965176D01*
Y-166108D01*
X978919D01*
Y-166394D01*
Y-166681D01*
Y-166967D01*
Y-167253D01*
Y-167539D01*
Y-167826D01*
Y-168112D01*
Y-168398D01*
Y-168685D01*
Y-168971D01*
Y-169257D01*
Y-169544D01*
Y-169830D01*
Y-170116D01*
X979205D01*
Y-170403D01*
Y-170689D01*
Y-170975D01*
Y-171262D01*
Y-171548D01*
Y-171834D01*
Y-172120D01*
Y-172407D01*
Y-172693D01*
Y-172979D01*
Y-173266D01*
Y-173552D01*
Y-173838D01*
Y-174125D01*
Y-174411D01*
Y-174697D01*
Y-174984D01*
Y-175270D01*
Y-175556D01*
Y-175842D01*
Y-176129D01*
Y-176415D01*
Y-176701D01*
Y-176988D01*
Y-177274D01*
Y-177560D01*
Y-177847D01*
Y-178133D01*
Y-178419D01*
Y-178706D01*
Y-178992D01*
Y-179278D01*
Y-179565D01*
Y-179851D01*
Y-180137D01*
Y-180423D01*
Y-180710D01*
Y-180996D01*
Y-181282D01*
Y-181569D01*
Y-181855D01*
X979492D01*
Y-182141D01*
X979205D01*
Y-182428D01*
Y-182714D01*
X979492D01*
Y-183000D01*
Y-183287D01*
Y-183573D01*
Y-183859D01*
Y-184146D01*
Y-184432D01*
Y-184718D01*
Y-185004D01*
Y-185291D01*
Y-185577D01*
Y-185863D01*
Y-186150D01*
Y-186436D01*
Y-186722D01*
Y-187009D01*
Y-187295D01*
Y-187581D01*
Y-187868D01*
Y-188154D01*
Y-188440D01*
Y-188727D01*
Y-189013D01*
Y-189299D01*
Y-189585D01*
Y-189872D01*
Y-190158D01*
X979778D01*
Y-190444D01*
Y-190731D01*
Y-191017D01*
X980064D01*
Y-191303D01*
X980351D01*
Y-191590D01*
X980637D01*
Y-191876D01*
X981496D01*
Y-192162D01*
X982355D01*
Y-191876D01*
X982641D01*
Y-191590D01*
Y-191303D01*
Y-191017D01*
X982928D01*
Y-190731D01*
Y-190444D01*
X983214D01*
Y-190158D01*
Y-189872D01*
Y-189585D01*
X983500D01*
Y-189299D01*
Y-189013D01*
Y-188727D01*
X983786D01*
Y-188440D01*
Y-188154D01*
Y-187868D01*
X984073D01*
Y-187581D01*
Y-187295D01*
Y-187009D01*
X984359D01*
Y-186722D01*
Y-186436D01*
X984645D01*
Y-186150D01*
Y-185863D01*
Y-185577D01*
X984932D01*
Y-185291D01*
Y-185004D01*
Y-184718D01*
X985218D01*
Y-184432D01*
Y-184146D01*
Y-183859D01*
X985504D01*
Y-183573D01*
Y-183287D01*
X985791D01*
Y-183000D01*
Y-182714D01*
Y-182428D01*
X986077D01*
Y-182141D01*
Y-181855D01*
Y-181569D01*
X986363D01*
Y-181282D01*
Y-180996D01*
Y-180710D01*
X986650D01*
Y-180423D01*
Y-180137D01*
X986936D01*
Y-179851D01*
Y-179565D01*
Y-179278D01*
X987222D01*
Y-178992D01*
Y-178706D01*
Y-178419D01*
X987508D01*
Y-178133D01*
Y-177847D01*
Y-177560D01*
X987795D01*
Y-177274D01*
Y-176988D01*
X988081D01*
Y-176701D01*
Y-176415D01*
Y-176129D01*
X988367D01*
Y-175842D01*
Y-175556D01*
Y-175270D01*
X988654D01*
Y-174984D01*
Y-174697D01*
Y-174411D01*
X988940D01*
Y-174125D01*
Y-173838D01*
Y-173552D01*
Y-173266D01*
X989226D01*
Y-172979D01*
Y-172693D01*
Y-172407D01*
Y-172120D01*
X989513D01*
Y-171834D01*
Y-171548D01*
Y-171262D01*
Y-170975D01*
Y-170689D01*
X989799D01*
Y-170403D01*
Y-170116D01*
Y-169830D01*
Y-169544D01*
Y-169257D01*
Y-168971D01*
X990085D01*
Y-168685D01*
Y-168398D01*
Y-168112D01*
Y-167826D01*
Y-167539D01*
Y-167253D01*
Y-166967D01*
Y-166681D01*
Y-166394D01*
Y-166108D01*
X1002969D01*
Y-166394D01*
D02*
G37*
G36*
X945134Y-148929D02*
Y-149215D01*
X944848D01*
Y-149502D01*
Y-149788D01*
Y-150074D01*
Y-150361D01*
Y-150647D01*
Y-150933D01*
X944561D01*
Y-151220D01*
Y-151506D01*
Y-151792D01*
Y-152078D01*
Y-152365D01*
Y-152651D01*
X944275D01*
Y-152937D01*
Y-153224D01*
Y-153510D01*
Y-153796D01*
Y-154083D01*
Y-154369D01*
Y-154655D01*
X943989D01*
Y-154942D01*
Y-155228D01*
Y-155514D01*
Y-155801D01*
Y-156087D01*
Y-156373D01*
X943703D01*
Y-156659D01*
Y-156946D01*
Y-157232D01*
Y-157518D01*
Y-157805D01*
Y-158091D01*
X943416D01*
Y-158377D01*
Y-158664D01*
Y-158950D01*
Y-159236D01*
Y-159523D01*
Y-159809D01*
Y-160095D01*
X943130D01*
Y-160382D01*
Y-160668D01*
Y-160954D01*
Y-161240D01*
Y-161527D01*
Y-161813D01*
X942844D01*
Y-162100D01*
Y-162386D01*
Y-162672D01*
Y-162958D01*
Y-163245D01*
Y-163531D01*
X942557D01*
Y-163817D01*
Y-164104D01*
Y-164390D01*
Y-164676D01*
Y-164963D01*
Y-165249D01*
X942271D01*
Y-165535D01*
Y-165822D01*
Y-166108D01*
Y-166394D01*
Y-166681D01*
Y-166967D01*
Y-167253D01*
X941985D01*
Y-167539D01*
Y-167826D01*
Y-168112D01*
Y-168398D01*
Y-168685D01*
Y-168971D01*
X941698D01*
Y-169257D01*
Y-169544D01*
X942271D01*
Y-169257D01*
X942557D01*
Y-168971D01*
X942844D01*
Y-168685D01*
X943416D01*
Y-168398D01*
X943703D01*
Y-168112D01*
X943989D01*
Y-167826D01*
X944561D01*
Y-167539D01*
X945134D01*
Y-167253D01*
X945420D01*
Y-166967D01*
X945993D01*
Y-166681D01*
X946852D01*
Y-166394D01*
X947425D01*
Y-166108D01*
X948284D01*
Y-165822D01*
X949715D01*
Y-165535D01*
X956014D01*
Y-165822D01*
X957159D01*
Y-166108D01*
X958018D01*
Y-166394D01*
X958591D01*
Y-166681D01*
X958877D01*
Y-166967D01*
X959450D01*
Y-167253D01*
X959736D01*
Y-167539D01*
X960022D01*
Y-167826D01*
X960309D01*
Y-168112D01*
X960595D01*
Y-168398D01*
Y-168685D01*
X960881D01*
Y-168971D01*
Y-169257D01*
X961168D01*
Y-169544D01*
Y-169830D01*
Y-170116D01*
X961454D01*
Y-170403D01*
Y-170689D01*
Y-170975D01*
Y-171262D01*
X961740D01*
Y-171548D01*
Y-171834D01*
Y-172120D01*
Y-172407D01*
Y-172693D01*
Y-172979D01*
Y-173266D01*
Y-173552D01*
Y-173838D01*
Y-174125D01*
Y-174411D01*
Y-174697D01*
Y-174984D01*
Y-175270D01*
Y-175556D01*
Y-175842D01*
Y-176129D01*
Y-176415D01*
X961454D01*
Y-176701D01*
Y-176988D01*
Y-177274D01*
Y-177560D01*
Y-177847D01*
Y-178133D01*
Y-178419D01*
X961168D01*
Y-178706D01*
Y-178992D01*
Y-179278D01*
Y-179565D01*
Y-179851D01*
Y-180137D01*
Y-180423D01*
X960881D01*
Y-180710D01*
Y-180996D01*
Y-181282D01*
Y-181569D01*
Y-181855D01*
Y-182141D01*
X960595D01*
Y-182428D01*
Y-182714D01*
Y-183000D01*
Y-183287D01*
Y-183573D01*
Y-183859D01*
X960309D01*
Y-184146D01*
Y-184432D01*
Y-184718D01*
Y-185004D01*
Y-185291D01*
Y-185577D01*
X960022D01*
Y-185863D01*
Y-186150D01*
Y-186436D01*
Y-186722D01*
Y-187009D01*
Y-187295D01*
Y-187581D01*
X959736D01*
Y-187868D01*
Y-188154D01*
Y-188440D01*
Y-188727D01*
Y-189013D01*
Y-189299D01*
X959450D01*
Y-189585D01*
Y-189872D01*
Y-190158D01*
Y-190444D01*
Y-190731D01*
Y-191017D01*
X959163D01*
Y-191303D01*
Y-191590D01*
Y-191876D01*
Y-192162D01*
Y-192449D01*
Y-192735D01*
Y-193021D01*
X958877D01*
Y-193308D01*
Y-193594D01*
Y-193880D01*
Y-194167D01*
Y-194453D01*
Y-194739D01*
X958591D01*
Y-195025D01*
Y-195312D01*
Y-195598D01*
Y-195884D01*
Y-196171D01*
Y-196457D01*
X958305D01*
Y-196743D01*
Y-197030D01*
Y-197316D01*
Y-197602D01*
Y-197889D01*
Y-198175D01*
X958018D01*
Y-198461D01*
Y-198748D01*
Y-199034D01*
Y-199320D01*
Y-199606D01*
Y-199893D01*
Y-200179D01*
X957732D01*
Y-200465D01*
Y-200752D01*
Y-201038D01*
Y-201324D01*
Y-201611D01*
Y-201897D01*
X957446D01*
Y-202183D01*
Y-202470D01*
X944275D01*
Y-202183D01*
Y-201897D01*
X944561D01*
Y-201611D01*
Y-201324D01*
Y-201038D01*
Y-200752D01*
Y-200465D01*
Y-200179D01*
X944848D01*
Y-199893D01*
Y-199606D01*
Y-199320D01*
Y-199034D01*
Y-198748D01*
Y-198461D01*
Y-198175D01*
X945134D01*
Y-197889D01*
Y-197602D01*
Y-197316D01*
Y-197030D01*
Y-196743D01*
Y-196457D01*
X945420D01*
Y-196171D01*
Y-195884D01*
Y-195598D01*
Y-195312D01*
Y-195025D01*
Y-194739D01*
X945707D01*
Y-194453D01*
Y-194167D01*
Y-193880D01*
Y-193594D01*
Y-193308D01*
Y-193021D01*
Y-192735D01*
X945993D01*
Y-192449D01*
Y-192162D01*
Y-191876D01*
Y-191590D01*
Y-191303D01*
Y-191017D01*
X946279D01*
Y-190731D01*
Y-190444D01*
Y-190158D01*
Y-189872D01*
Y-189585D01*
Y-189299D01*
Y-189013D01*
X946566D01*
Y-188727D01*
Y-188440D01*
Y-188154D01*
Y-187868D01*
Y-187581D01*
Y-187295D01*
X946852D01*
Y-187009D01*
Y-186722D01*
Y-186436D01*
Y-186150D01*
Y-185863D01*
Y-185577D01*
X947138D01*
Y-185291D01*
Y-185004D01*
Y-184718D01*
Y-184432D01*
Y-184146D01*
Y-183859D01*
X947425D01*
Y-183573D01*
Y-183287D01*
Y-183000D01*
Y-182714D01*
Y-182428D01*
Y-182141D01*
Y-181855D01*
X947711D01*
Y-181569D01*
Y-181282D01*
Y-180996D01*
Y-180710D01*
Y-180423D01*
Y-180137D01*
X947997D01*
Y-179851D01*
Y-179565D01*
Y-179278D01*
Y-178992D01*
Y-178706D01*
Y-178419D01*
Y-178133D01*
X948284D01*
Y-177847D01*
Y-177560D01*
Y-177274D01*
Y-176988D01*
Y-176701D01*
Y-176415D01*
X947997D01*
Y-176129D01*
Y-175842D01*
X947711D01*
Y-175556D01*
X947425D01*
Y-175270D01*
X946852D01*
Y-174984D01*
X945134D01*
Y-175270D01*
X943703D01*
Y-175556D01*
X942844D01*
Y-175842D01*
X942271D01*
Y-176129D01*
X941985D01*
Y-176415D01*
X941412D01*
Y-176701D01*
X941126D01*
Y-176988D01*
X940839D01*
Y-177274D01*
Y-177560D01*
X940553D01*
Y-177847D01*
Y-178133D01*
Y-178419D01*
X940267D01*
Y-178706D01*
Y-178992D01*
Y-179278D01*
Y-179565D01*
Y-179851D01*
Y-180137D01*
X939981D01*
Y-180423D01*
Y-180710D01*
Y-180996D01*
Y-181282D01*
Y-181569D01*
Y-181855D01*
Y-182141D01*
X939694D01*
Y-182428D01*
Y-182714D01*
Y-183000D01*
Y-183287D01*
Y-183573D01*
Y-183859D01*
X939408D01*
Y-184146D01*
Y-184432D01*
Y-184718D01*
Y-185004D01*
Y-185291D01*
Y-185577D01*
X939122D01*
Y-185863D01*
Y-186150D01*
Y-186436D01*
Y-186722D01*
Y-187009D01*
Y-187295D01*
X938835D01*
Y-187581D01*
Y-187868D01*
Y-188154D01*
Y-188440D01*
Y-188727D01*
Y-189013D01*
Y-189299D01*
X938549D01*
Y-189585D01*
Y-189872D01*
Y-190158D01*
Y-190444D01*
Y-190731D01*
Y-191017D01*
X938263D01*
Y-191303D01*
Y-191590D01*
Y-191876D01*
Y-192162D01*
Y-192449D01*
Y-192735D01*
X937976D01*
Y-193021D01*
Y-193308D01*
Y-193594D01*
Y-193880D01*
Y-194167D01*
Y-194453D01*
Y-194739D01*
X937690D01*
Y-195025D01*
Y-195312D01*
Y-195598D01*
Y-195884D01*
Y-196171D01*
Y-196457D01*
X937404D01*
Y-196743D01*
Y-197030D01*
Y-197316D01*
Y-197602D01*
Y-197889D01*
Y-198175D01*
X937117D01*
Y-198461D01*
Y-198748D01*
Y-199034D01*
Y-199320D01*
Y-199606D01*
Y-199893D01*
X936831D01*
Y-200179D01*
Y-200465D01*
Y-200752D01*
Y-201038D01*
Y-201324D01*
Y-201611D01*
Y-201897D01*
X936545D01*
Y-202183D01*
Y-202470D01*
X923374D01*
Y-202183D01*
Y-201897D01*
X923661D01*
Y-201611D01*
Y-201324D01*
Y-201038D01*
Y-200752D01*
Y-200465D01*
Y-200179D01*
Y-199893D01*
X923947D01*
Y-199606D01*
Y-199320D01*
Y-199034D01*
Y-198748D01*
Y-198461D01*
Y-198175D01*
X924233D01*
Y-197889D01*
Y-197602D01*
Y-197316D01*
Y-197030D01*
Y-196743D01*
Y-196457D01*
X924520D01*
Y-196171D01*
Y-195884D01*
Y-195598D01*
Y-195312D01*
Y-195025D01*
Y-194739D01*
Y-194453D01*
X924806D01*
Y-194167D01*
Y-193880D01*
Y-193594D01*
Y-193308D01*
Y-193021D01*
Y-192735D01*
X925092D01*
Y-192449D01*
Y-192162D01*
Y-191876D01*
Y-191590D01*
Y-191303D01*
Y-191017D01*
X925379D01*
Y-190731D01*
Y-190444D01*
Y-190158D01*
Y-189872D01*
Y-189585D01*
Y-189299D01*
X925665D01*
Y-189013D01*
Y-188727D01*
Y-188440D01*
Y-188154D01*
Y-187868D01*
Y-187581D01*
Y-187295D01*
X925951D01*
Y-187009D01*
Y-186722D01*
Y-186436D01*
Y-186150D01*
Y-185863D01*
Y-185577D01*
X926237D01*
Y-185291D01*
Y-185004D01*
Y-184718D01*
Y-184432D01*
Y-184146D01*
Y-183859D01*
X926524D01*
Y-183573D01*
Y-183287D01*
Y-183000D01*
Y-182714D01*
Y-182428D01*
Y-182141D01*
Y-181855D01*
X926810D01*
Y-181569D01*
Y-181282D01*
Y-180996D01*
Y-180710D01*
Y-180423D01*
Y-180137D01*
X927096D01*
Y-179851D01*
Y-179565D01*
Y-179278D01*
Y-178992D01*
Y-178706D01*
Y-178419D01*
X927383D01*
Y-178133D01*
Y-177847D01*
Y-177560D01*
Y-177274D01*
Y-176988D01*
Y-176701D01*
X927669D01*
Y-176415D01*
Y-176129D01*
Y-175842D01*
Y-175556D01*
Y-175270D01*
Y-174984D01*
Y-174697D01*
X927955D01*
Y-174411D01*
Y-174125D01*
Y-173838D01*
Y-173552D01*
Y-173266D01*
Y-172979D01*
X928242D01*
Y-172693D01*
Y-172407D01*
Y-172120D01*
Y-171834D01*
Y-171548D01*
Y-171262D01*
X928528D01*
Y-170975D01*
Y-170689D01*
Y-170403D01*
Y-170116D01*
Y-169830D01*
Y-169544D01*
X928814D01*
Y-169257D01*
Y-168971D01*
Y-168685D01*
Y-168398D01*
Y-168112D01*
Y-167826D01*
Y-167539D01*
X929101D01*
Y-167253D01*
Y-166967D01*
Y-166681D01*
Y-166394D01*
Y-166108D01*
Y-165822D01*
X929387D01*
Y-165535D01*
Y-165249D01*
Y-164963D01*
Y-164676D01*
Y-164390D01*
Y-164104D01*
X929673D01*
Y-163817D01*
Y-163531D01*
Y-163245D01*
Y-162958D01*
Y-162672D01*
Y-162386D01*
Y-162100D01*
X929960D01*
Y-161813D01*
Y-161527D01*
Y-161240D01*
Y-160954D01*
Y-160668D01*
Y-160382D01*
X930246D01*
Y-160095D01*
Y-159809D01*
Y-159523D01*
Y-159236D01*
Y-158950D01*
Y-158664D01*
X930532D01*
Y-158377D01*
Y-158091D01*
Y-157805D01*
Y-157518D01*
Y-157232D01*
Y-156946D01*
X930818D01*
Y-156659D01*
Y-156373D01*
Y-156087D01*
Y-155801D01*
Y-155514D01*
Y-155228D01*
Y-154942D01*
X931105D01*
Y-154655D01*
Y-154369D01*
Y-154083D01*
Y-153796D01*
Y-153510D01*
Y-153224D01*
X931391D01*
Y-152937D01*
Y-152651D01*
Y-152365D01*
Y-152078D01*
Y-151792D01*
Y-151506D01*
X931678D01*
Y-151220D01*
Y-150933D01*
Y-150647D01*
Y-150361D01*
Y-150074D01*
Y-149788D01*
Y-149502D01*
X931964D01*
Y-149215D01*
Y-148929D01*
Y-148643D01*
X945134D01*
Y-148929D01*
D02*
G37*
%LPC*%
G36*
X56396Y104937D02*
X53927D01*
Y102271D01*
X56396D01*
Y104937D01*
D02*
G37*
G36*
X-68652Y69449D02*
X-69382D01*
Y66445D01*
X-66378D01*
Y67175D01*
X-66551Y68045D01*
X-67044Y68783D01*
X-67781Y69276D01*
X-68652Y69449D01*
D02*
G37*
G36*
X-66378Y65445D02*
X-69382D01*
Y62441D01*
X-68652D01*
X-67781Y62614D01*
X-67044Y63107D01*
X-66551Y63844D01*
X-66378Y64715D01*
Y65445D01*
D02*
G37*
G36*
X-62779Y50013D02*
X-66232D01*
Y46954D01*
X-62779D01*
Y50013D01*
D02*
G37*
G36*
X-67232D02*
X-70685D01*
Y46954D01*
X-67232D01*
Y50013D01*
D02*
G37*
G36*
X-13288Y68244D02*
X-16937D01*
Y62429D01*
X-13288D01*
Y68244D01*
D02*
G37*
G36*
X-17937D02*
X-21587D01*
Y62429D01*
X-17937D01*
Y68244D01*
D02*
G37*
G36*
X-13288Y61429D02*
X-16937D01*
Y55614D01*
X-13288D01*
Y61429D01*
D02*
G37*
G36*
X-17937D02*
X-21587D01*
Y55614D01*
X-17937D01*
Y61429D01*
D02*
G37*
G36*
X-20653Y43100D02*
X-24106D01*
Y40041D01*
X-20653D01*
Y43100D01*
D02*
G37*
G36*
X-25106D02*
X-28559D01*
Y40041D01*
X-25106D01*
Y43100D01*
D02*
G37*
G36*
X-28921Y33678D02*
X-31586D01*
Y31210D01*
X-28921D01*
Y33678D01*
D02*
G37*
G36*
X-72425Y32102D02*
X-78240D01*
Y28453D01*
X-72425D01*
Y32102D01*
D02*
G37*
G36*
X-79240D02*
X-85055D01*
Y28453D01*
X-79240D01*
Y32102D01*
D02*
G37*
G36*
X-28921Y30210D02*
X-31586D01*
Y27741D01*
X-28921D01*
Y30210D01*
D02*
G37*
G36*
X-72425Y27453D02*
X-78240D01*
Y23803D01*
X-72425D01*
Y27453D01*
D02*
G37*
G36*
X-79240D02*
X-85055D01*
Y23803D01*
X-79240D01*
Y27453D01*
D02*
G37*
G36*
X41429Y75804D02*
X38764D01*
Y73335D01*
X41429D01*
Y75804D01*
D02*
G37*
G36*
X4437Y60850D02*
Y57429D01*
X7858D01*
X7788Y57961D01*
X7390Y58923D01*
X6756Y59748D01*
X5930Y60382D01*
X4969Y60780D01*
X4437Y60850D01*
D02*
G37*
G36*
X7858Y56429D02*
X4437D01*
Y53008D01*
X4969Y53078D01*
X5930Y53476D01*
X6756Y54110D01*
X7390Y54936D01*
X7788Y55897D01*
X7858Y56429D01*
D02*
G37*
G36*
X-95473Y51199D02*
X-98926D01*
Y47746D01*
X-95473D01*
Y51199D01*
D02*
G37*
G36*
X-105473D02*
X-108925D01*
Y47746D01*
X-105473D01*
Y51199D01*
D02*
G37*
G36*
X-99926D02*
X-103378D01*
Y47746D01*
X-99926D01*
Y51199D01*
D02*
G37*
G36*
X-109925D02*
X-113378D01*
Y47746D01*
X-109925D01*
Y51199D01*
D02*
G37*
G36*
X-95473Y46746D02*
X-98926D01*
Y43293D01*
X-95473D01*
Y46746D01*
D02*
G37*
G36*
X-99926D02*
X-103378D01*
Y43293D01*
X-99926D01*
Y46746D01*
D02*
G37*
G36*
X-105473D02*
X-108925D01*
Y43293D01*
X-105473D01*
Y46746D01*
D02*
G37*
G36*
X-109925D02*
X-113378D01*
Y43293D01*
X-109925D01*
Y46746D01*
D02*
G37*
G36*
X-144593Y46429D02*
X-148014D01*
Y43008D01*
X-147482Y43078D01*
X-146521Y43476D01*
X-145695Y44110D01*
X-145062Y44936D01*
X-144663Y45897D01*
X-144593Y46429D01*
D02*
G37*
G36*
X-134185Y41165D02*
Y37744D01*
X-130764D01*
X-130834Y38276D01*
X-131232Y39237D01*
X-131866Y40063D01*
X-132692Y40697D01*
X-133653Y41095D01*
X-134185Y41165D01*
D02*
G37*
G36*
X-110220Y38992D02*
X-112689D01*
Y36327D01*
X-110220D01*
Y38992D01*
D02*
G37*
G36*
X-113689D02*
X-116157D01*
Y36327D01*
X-113689D01*
Y38992D01*
D02*
G37*
G36*
X909631Y-163245D02*
X901615D01*
Y-163531D01*
Y-163817D01*
Y-164104D01*
Y-164390D01*
Y-164676D01*
X901328D01*
Y-164963D01*
Y-165249D01*
Y-165535D01*
Y-165822D01*
Y-166108D01*
Y-166394D01*
X901042D01*
Y-166681D01*
Y-166967D01*
Y-167253D01*
Y-167539D01*
Y-167826D01*
Y-168112D01*
X900756D01*
Y-168398D01*
Y-168685D01*
Y-168971D01*
Y-169257D01*
Y-169544D01*
Y-169830D01*
X900469D01*
Y-170116D01*
Y-170403D01*
Y-170689D01*
Y-170975D01*
Y-171262D01*
Y-171548D01*
Y-171834D01*
X900183D01*
Y-172120D01*
Y-172407D01*
Y-172693D01*
Y-172979D01*
Y-173266D01*
Y-173552D01*
X899897D01*
Y-173838D01*
Y-174125D01*
Y-174411D01*
X907055D01*
Y-174125D01*
X908200D01*
Y-173838D01*
X908772D01*
Y-173552D01*
X909059D01*
Y-173266D01*
X909345D01*
Y-172979D01*
X909631D01*
Y-172693D01*
X909918D01*
Y-172407D01*
Y-172120D01*
X910204D01*
Y-171834D01*
Y-171548D01*
X910490D01*
Y-171262D01*
Y-170975D01*
X910777D01*
Y-170689D01*
Y-170403D01*
Y-170116D01*
Y-169830D01*
X911063D01*
Y-169544D01*
Y-169257D01*
Y-168971D01*
Y-168685D01*
Y-168398D01*
X911349D01*
Y-168112D01*
Y-167826D01*
Y-167539D01*
Y-167253D01*
Y-166967D01*
Y-166681D01*
Y-166394D01*
Y-166108D01*
Y-165822D01*
Y-165535D01*
Y-165249D01*
X911063D01*
Y-164963D01*
Y-164676D01*
X910777D01*
Y-164390D01*
Y-164104D01*
X910490D01*
Y-163817D01*
X910204D01*
Y-163531D01*
X909631D01*
Y-163245D01*
D02*
G37*
%LPD*%
D10*
X59800Y98867D02*
G03*
X60630Y98524I830J830D01*
G01*
X-66338Y30709D02*
Y38974D01*
X60630Y98524D02*
X62106D01*
X56896Y101771D02*
X59800Y98867D01*
X-66732Y38974D02*
X-66338D01*
X56896Y91141D02*
Y93405D01*
X70823Y101083D02*
X73480Y98425D01*
X70177Y101083D02*
X70823D01*
X52959Y101771D02*
X56896D01*
X48622Y68898D02*
Y72835D01*
X37992D02*
X41930D01*
X49606Y89370D02*
Y92913D01*
X1224409Y-212598D02*
Y-204727D01*
X1228345D01*
X1229657Y-206039D01*
Y-208663D01*
X1228345Y-209975D01*
X1224409D01*
X1227033D02*
X1229657Y-212598D01*
X1236217D02*
X1233593D01*
X1232281Y-211286D01*
Y-208663D01*
X1233593Y-207351D01*
X1236217D01*
X1237529Y-208663D01*
Y-209975D01*
X1232281D01*
X1240152Y-207351D02*
X1242776Y-212598D01*
X1245400Y-207351D01*
X870079Y-244097D02*
Y-251969D01*
X874014D01*
X875326Y-250657D01*
Y-245409D01*
X874014Y-244097D01*
X870079D01*
X881886Y-251969D02*
X879262D01*
X877950Y-250657D01*
Y-248033D01*
X879262Y-246721D01*
X881886D01*
X883198Y-248033D01*
Y-249345D01*
X877950D01*
X885822Y-251969D02*
X889757D01*
X891069Y-250657D01*
X889757Y-249345D01*
X887134D01*
X885822Y-248033D01*
X887134Y-246721D01*
X891069D01*
X896317Y-254592D02*
X897629D01*
X898941Y-253280D01*
Y-246721D01*
X895005D01*
X893693Y-248033D01*
Y-250657D01*
X895005Y-251969D01*
X898941D01*
X901565D02*
X904189D01*
X902877D01*
Y-246721D01*
X901565D01*
X908124Y-251969D02*
Y-246721D01*
X912060D01*
X913372Y-248033D01*
Y-251969D01*
X919931D02*
X917308D01*
X915996Y-250657D01*
Y-248033D01*
X917308Y-246721D01*
X919931D01*
X921243Y-248033D01*
Y-249345D01*
X915996D01*
X923867Y-246721D02*
Y-251969D01*
Y-249345D01*
X925179Y-248033D01*
X926491Y-246721D01*
X927803D01*
X1066929Y-125987D02*
Y-133858D01*
X1070865D01*
X1072177Y-132546D01*
Y-127299D01*
X1070865Y-125987D01*
X1066929D01*
X1076112Y-133858D02*
X1078736D01*
X1080048Y-132546D01*
Y-129922D01*
X1078736Y-128611D01*
X1076112D01*
X1074801Y-129922D01*
Y-132546D01*
X1076112Y-133858D01*
X1087920Y-128611D02*
X1083984D01*
X1082672Y-129922D01*
Y-132546D01*
X1083984Y-133858D01*
X1087920D01*
X1090544Y-128611D02*
Y-132546D01*
X1091856Y-133858D01*
X1095791D01*
Y-128611D01*
X1098415Y-133858D02*
Y-128611D01*
X1099727D01*
X1101039Y-129922D01*
Y-133858D01*
Y-129922D01*
X1102351Y-128611D01*
X1103663Y-129922D01*
Y-133858D01*
X1110222D02*
X1107598D01*
X1106287Y-132546D01*
Y-129922D01*
X1107598Y-128611D01*
X1110222D01*
X1111534Y-129922D01*
Y-131234D01*
X1106287D01*
X1114158Y-133858D02*
Y-128611D01*
X1118094D01*
X1119406Y-129922D01*
Y-133858D01*
X1123341Y-127299D02*
Y-128611D01*
X1122029D01*
X1124653D01*
X1123341D01*
Y-132546D01*
X1124653Y-133858D01*
X1066929Y-165357D02*
Y-173228D01*
X1072177D01*
X1076112Y-167981D02*
X1078736D01*
X1080048Y-169293D01*
Y-173228D01*
X1076112D01*
X1074801Y-171916D01*
X1076112Y-170605D01*
X1080048D01*
X1082672Y-167981D02*
Y-171916D01*
X1083984Y-173228D01*
X1087920D01*
Y-174540D01*
X1086608Y-175852D01*
X1085296D01*
X1087920Y-173228D02*
Y-167981D01*
X1094479Y-173228D02*
X1091856D01*
X1090544Y-171916D01*
Y-169293D01*
X1091856Y-167981D01*
X1094479D01*
X1095791Y-169293D01*
Y-170605D01*
X1090544D01*
X1098415Y-167981D02*
Y-173228D01*
Y-170605D01*
X1099727Y-169293D01*
X1101039Y-167981D01*
X1102351D01*
X1114158Y-173228D02*
Y-165357D01*
X1119406Y-173228D01*
Y-165357D01*
X1123341Y-167981D02*
X1125965D01*
X1127277Y-169293D01*
Y-173228D01*
X1123341D01*
X1122029Y-171916D01*
X1123341Y-170605D01*
X1127277D01*
X1129901Y-173228D02*
Y-167981D01*
X1131213D01*
X1132525Y-169293D01*
Y-173228D01*
Y-169293D01*
X1133837Y-167981D01*
X1135149Y-169293D01*
Y-173228D01*
X1141708D02*
X1139084D01*
X1137772Y-171916D01*
Y-169293D01*
X1139084Y-167981D01*
X1141708D01*
X1143020Y-169293D01*
Y-170605D01*
X1137772D01*
X1066929Y-204727D02*
Y-212598D01*
X1070865D01*
X1072177Y-211286D01*
Y-206039D01*
X1070865Y-204727D01*
X1066929D01*
X1076112Y-207351D02*
X1078736D01*
X1080048Y-208663D01*
Y-212598D01*
X1076112D01*
X1074801Y-211286D01*
X1076112Y-209975D01*
X1080048D01*
X1083984Y-206039D02*
Y-207351D01*
X1082672D01*
X1085296D01*
X1083984D01*
Y-211286D01*
X1085296Y-212598D01*
X1093167D02*
X1090544D01*
X1089232Y-211286D01*
Y-208663D01*
X1090544Y-207351D01*
X1093167D01*
X1094479Y-208663D01*
Y-209975D01*
X1089232D01*
X1066929Y-244097D02*
Y-251969D01*
X1070865D01*
X1072177Y-250657D01*
Y-245409D01*
X1070865Y-244097D01*
X1066929D01*
X1076112Y-251969D02*
X1078736D01*
X1080048Y-250657D01*
Y-248033D01*
X1078736Y-246721D01*
X1076112D01*
X1074801Y-248033D01*
Y-250657D01*
X1076112Y-251969D01*
X1087920Y-246721D02*
X1083984D01*
X1082672Y-248033D01*
Y-250657D01*
X1083984Y-251969D01*
X1087920D01*
X1090544Y-246721D02*
Y-250657D01*
X1091856Y-251969D01*
X1095791D01*
Y-246721D01*
X1098415Y-251969D02*
Y-246721D01*
X1099727D01*
X1101039Y-248033D01*
Y-251969D01*
Y-248033D01*
X1102351Y-246721D01*
X1103663Y-248033D01*
Y-251969D01*
X1110222D02*
X1107598D01*
X1106287Y-250657D01*
Y-248033D01*
X1107598Y-246721D01*
X1110222D01*
X1111534Y-248033D01*
Y-249345D01*
X1106287D01*
X1114158Y-251969D02*
Y-246721D01*
X1118094D01*
X1119406Y-248033D01*
Y-251969D01*
X1123341Y-245409D02*
Y-246721D01*
X1122029D01*
X1124653D01*
X1123341D01*
Y-250657D01*
X1124653Y-251969D01*
D11*
X67918Y100022D02*
G03*
X65354Y101083I-2564J-2568D01*
G01*
X63779Y93307D02*
G03*
X64567Y94095I0J787D01*
G01*
X67920Y100020D02*
G03*
X67918Y100022I-2566J-2566D01*
G01*
X65354Y101083D02*
X65748D01*
X64567D02*
X65354D01*
X62205Y93307D02*
X63779D01*
X56896Y93405D02*
X62106D01*
X56896Y95965D02*
X62106D01*
X69416Y98524D02*
X70177D01*
X67920Y100020D02*
X69416Y98524D01*
X56896Y93405D02*
Y95078D01*
Y95965D01*
X62106D02*
X64567D01*
Y101083D01*
Y94095D02*
Y95965D01*
X62106Y101083D02*
X64567D01*
X1220472Y-240158D02*
Y-200787D01*
X1062992Y-161417D02*
X1338583D01*
X1062992Y-200787D02*
X1338583D01*
X866142Y-240158D02*
X1338583D01*
X866142Y-122047D02*
X1338583D01*
X866142Y-279527D02*
Y-122047D01*
X1062992Y-279527D02*
Y-122047D01*
X-314961Y889764D02*
X1338583D01*
Y-279527D02*
Y889764D01*
X-314961Y-279527D02*
Y889764D01*
Y-279527D02*
X1338583D01*
X1076770Y-265750D02*
X1072835D01*
Y-268702D01*
X1074802D01*
X1072835D01*
Y-271654D01*
X1078738Y-267718D02*
Y-271654D01*
Y-269686D01*
X1079722Y-268702D01*
X1080706Y-267718D01*
X1081690D01*
X1084642Y-271654D02*
X1086610D01*
X1085626D01*
Y-267718D01*
X1084642D01*
X1089561Y-266734D02*
X1090545Y-265750D01*
X1092513D01*
X1093497Y-266734D01*
Y-267718D01*
X1092513Y-268702D01*
X1091529D01*
X1092513D01*
X1093497Y-269686D01*
Y-270670D01*
X1092513Y-271654D01*
X1090545D01*
X1089561Y-270670D01*
X1095465Y-265750D02*
Y-271654D01*
X1098417D01*
X1099401Y-270670D01*
Y-266734D01*
X1098417Y-265750D01*
X1095465D01*
X1101369Y-272638D02*
X1105304D01*
X1107272Y-271654D02*
Y-267718D01*
X1109240Y-265750D01*
X1111208Y-267718D01*
Y-271654D01*
Y-268702D01*
X1107272D01*
X1113176Y-271654D02*
X1115144D01*
X1114160D01*
Y-267718D01*
X1113176D01*
X1118096D02*
Y-271654D01*
Y-269686D01*
X1119079Y-268702D01*
X1120063Y-267718D01*
X1121047D01*
X1123999Y-272638D02*
X1127935D01*
X1133838Y-271654D02*
X1129903D01*
X1133838Y-267718D01*
Y-266734D01*
X1132855Y-265750D01*
X1130887D01*
X1129903Y-266734D01*
X1135806D02*
X1136790Y-265750D01*
X1138758D01*
X1139742Y-266734D01*
Y-270670D01*
X1138758Y-271654D01*
X1136790D01*
X1135806Y-270670D01*
Y-266734D01*
X1141710Y-271654D02*
X1143678D01*
X1142694D01*
Y-265750D01*
X1141710Y-266734D01*
X1146630D02*
X1147614Y-265750D01*
X1149582D01*
X1150565Y-266734D01*
Y-267718D01*
X1149582Y-268702D01*
X1150565Y-269686D01*
Y-270670D01*
X1149582Y-271654D01*
X1147614D01*
X1146630Y-270670D01*
Y-269686D01*
X1147614Y-268702D01*
X1146630Y-267718D01*
Y-266734D01*
X1147614Y-268702D02*
X1149582D01*
X1152533Y-272638D02*
X1156469D01*
X1158437Y-266734D02*
X1159421Y-265750D01*
X1161389D01*
X1162373Y-266734D01*
Y-270670D01*
X1161389Y-271654D01*
X1159421D01*
X1158437Y-270670D01*
Y-266734D01*
X1164340D02*
X1165324Y-265750D01*
X1167292D01*
X1168276Y-266734D01*
Y-270670D01*
X1167292Y-271654D01*
X1165324D01*
X1164340Y-270670D01*
Y-266734D01*
X1170244Y-271654D02*
Y-270670D01*
X1171228D01*
Y-271654D01*
X1170244D01*
X1175164D02*
Y-265750D01*
X1178115D01*
X1179099Y-266734D01*
Y-268702D01*
X1178115Y-269686D01*
X1175164D01*
X1185003Y-267718D02*
X1182051D01*
X1181067Y-268702D01*
Y-270670D01*
X1182051Y-271654D01*
X1185003D01*
X1186971Y-265750D02*
Y-271654D01*
X1189923D01*
X1190907Y-270670D01*
Y-269686D01*
Y-268702D01*
X1189923Y-267718D01*
X1186971D01*
X1192875Y-265750D02*
Y-271654D01*
X1195826D01*
X1196810Y-270670D01*
Y-266734D01*
X1195826Y-265750D01*
X1192875D01*
X1199762Y-271654D02*
X1201730D01*
X1202714Y-270670D01*
Y-268702D01*
X1201730Y-267718D01*
X1199762D01*
X1198778Y-268702D01*
Y-270670D01*
X1199762Y-271654D01*
X1208617Y-267718D02*
X1205666D01*
X1204682Y-268702D01*
Y-270670D01*
X1205666Y-271654D01*
X1208617D01*
D12*
X-64765Y74803D02*
G03*
X-57694Y77732I0J10000D01*
G01*
X-97726Y74803D02*
G03*
X-104797Y71874I0J-10000D01*
G01*
X-112667Y67246D02*
G03*
X-119738Y64317I0J-10000D01*
G01*
X-124831Y62008D02*
G03*
X-120079Y63976I0J6721D01*
G01*
X-139764Y56465D02*
G03*
X-136835Y49394I10000J0D01*
G01*
X-135827Y62008D02*
G03*
X-139764Y58071I0J-3937D01*
G01*
X-108806Y62008D02*
G03*
X-101735Y64937I0J10000D01*
G01*
X-113243Y62008D02*
G03*
X-117673Y60173I0J-6265D01*
G01*
X-124744Y57244D02*
G03*
X-117673Y60173I0J10000D01*
G01*
X-61741Y71850D02*
G03*
X-54670Y74779I0J10000D01*
G01*
X-90679Y71850D02*
G03*
X-97750Y68922I0J-10000D01*
G01*
X-19178Y8858D02*
G03*
X-9178Y18858I0J10000D01*
G01*
Y66060D02*
G03*
X-12107Y73131I-10000J0D01*
G01*
X-17784Y81102D02*
G03*
X-16162Y77186I5539J0D01*
G01*
X-16249Y4921D02*
G03*
X-6249Y14921I0J10000D01*
G01*
Y68446D02*
G03*
X-9178Y75517I-10000J0D01*
G01*
X-16240Y83623D02*
G03*
X-15502Y81841I2520J0D01*
G01*
X-3937Y48945D02*
G03*
X-1008Y41874I10000J0D01*
G01*
X-3937Y74045D02*
G03*
X-6866Y81116I-10000J0D01*
G01*
X-984Y55993D02*
G03*
X1945Y48921I10000J0D01*
G01*
X-984Y85443D02*
G03*
X-2829Y89896I-6299J0D01*
G01*
X-153567Y51669D02*
G03*
X-156496Y44598I7071J-7071D01*
G01*
Y14764D02*
G03*
X-146653Y4921I9843J0D01*
G01*
X-15207Y90797D02*
G03*
X-16240Y88302I2495J-2495D01*
G01*
X-12992Y91831D02*
G03*
X-15008Y90996I0J-2851D01*
G01*
X-12992Y91831D02*
G03*
X-10977Y92664I0J2851D01*
G01*
D02*
G03*
X-10976Y92666I-2015J2018D01*
G01*
X-153543Y18858D02*
G03*
X-143543Y8858I10000J0D01*
G01*
X-36024Y34303D02*
G03*
X-32677Y37649I0J3347D01*
G01*
X-47835Y34303D02*
G03*
X-51109Y32946I0J-4631D01*
G01*
X62106Y93405D02*
G03*
X62205Y93307I98J0D01*
G01*
X68799Y95965D02*
G03*
X66535Y93701I0J-2264D01*
G01*
X61137Y88302D02*
G03*
X66535Y93701I0J5399D01*
G01*
X53543Y89253D02*
G03*
X53937Y88302I1344J0D01*
G01*
X53543Y89952D02*
G03*
X50614Y97023I-10000J0D01*
G01*
X30441Y69291D02*
G03*
X23370Y66362I0J-10000D01*
G01*
X46161Y67716D02*
G03*
X44587Y69291I-1575J0D01*
G01*
X46161Y67716D02*
G03*
X47736Y66142I1575J0D01*
G01*
X50394D02*
G03*
X53543Y69291I0J3150D01*
G01*
X47023Y100614D02*
G03*
X39952Y103543I-7071J-7071D01*
G01*
X8984D02*
G03*
X1912Y100614I0J-10000D01*
G01*
X70079Y93307D02*
G03*
X70177Y93405I0J98D01*
G01*
X68504Y93307D02*
G03*
X67716Y92520I0J-787D01*
G01*
X64788Y82504D02*
G03*
X67716Y89575I-7071J7071D01*
G01*
X56896Y77953D02*
G03*
X62598Y80315I0J8065D01*
G01*
X-152067Y50689D02*
G03*
X-153543Y47125I3564J-3564D01*
G01*
X-148503Y52165D02*
G03*
X-152067Y50689I0J-5041D01*
G01*
X-144548Y53444D02*
G03*
X-144546Y53446I-3090J3094D01*
G01*
X-147638Y52165D02*
G03*
X-144548Y53444I0J4372D01*
G01*
X-144055Y53937D02*
G03*
X-142717Y57169I-3232J3232D01*
G01*
X-144551Y62701D02*
G03*
X-144554Y62704I-4438J-4433D01*
G01*
X-142717Y58268D02*
G03*
X-144551Y62701I-6273J0D01*
G01*
X-15650Y95869D02*
G03*
X-17784Y90711I5166J-5158D01*
G01*
X-15646Y95873D02*
G03*
X-15650Y95869I5162J-5162D01*
G01*
X-54670Y74779D02*
X-43837Y85612D01*
X-57694Y77732D02*
X-53234Y82192D01*
X-97726Y74803D02*
X-64765D01*
X-109426Y67246D02*
X-104797Y71874D01*
X-112667Y67246D02*
X-109426D01*
X-120079Y63976D02*
X-119738Y64317D01*
X-135827Y62008D02*
X-124831D01*
X-139764Y56465D02*
Y58071D01*
Y55118D02*
Y56465D01*
X-99426Y67246D02*
X-97750Y68922D01*
X-101735Y64937D02*
X-99426Y67246D01*
X-113243Y62008D02*
X-108806D01*
X-134685Y57244D02*
X-124744D01*
X-90679Y71850D02*
X-61741D01*
X-143543Y8858D02*
X-19178D01*
X-9178Y18858D02*
Y66060D01*
X-16162Y77186D02*
X-12107Y73131D01*
X-17784Y81102D02*
Y90711D01*
X-146653Y4921D02*
X-16249D01*
X-6249Y14921D02*
Y68446D01*
X-15502Y81841D02*
X-9178Y75517D01*
X-1008Y41874D02*
X3937Y36929D01*
X-3937Y48945D02*
Y74045D01*
X-12226Y86476D02*
X1912Y100614D01*
X-12226Y86476D02*
X-6866Y81116D01*
X3937Y46929D02*
X23370Y66362D01*
X1945Y48921D02*
X3937Y46929D01*
X-984Y55993D02*
Y85443D01*
X-156496Y14764D02*
Y44598D01*
X-153567Y51669D02*
X-148465Y56772D01*
X-16240Y83623D02*
Y88302D01*
X-15207Y90797D02*
X-15008Y90996D01*
X-10976Y92666D02*
X-8760Y94882D01*
X-153543Y18858D02*
Y47125D01*
X-136835Y49394D02*
X-134685Y47244D01*
X-47835Y34303D02*
X-36024D01*
X-32677Y37649D02*
Y42714D01*
X-46653Y30710D02*
X-38779D01*
X-53346D02*
X-51109Y32946D01*
X-59645Y30710D02*
X-53346D01*
X-59645Y30709D02*
Y30710D01*
X49606Y72835D02*
Y77953D01*
X48622Y72835D02*
X49606D01*
X53937Y88302D02*
X61137D01*
X53543Y89370D02*
Y89952D01*
Y89253D02*
Y89370D01*
X30441Y69291D02*
X44587D01*
X47736Y66142D02*
X50394D01*
X53543Y77953D02*
X56896D01*
X53543Y69291D02*
Y77953D01*
X47023Y100614D02*
X50614Y97023D01*
X8984Y103543D02*
X39952D01*
X68799Y95965D02*
X70177D01*
X68504Y93307D02*
X70079D01*
X67716Y89575D02*
Y92520D01*
X62598Y80315D02*
X64788Y82504D01*
X-148503Y52165D02*
X-147638D01*
X-144546Y53446D02*
X-144055Y53937D01*
X-142717Y57169D02*
Y58268D01*
X-148465Y66614D02*
X-144554Y62704D01*
X-8760Y94882D02*
X-6249Y97392D01*
Y99293D01*
D13*
X65645Y105419D02*
G03*
X29580Y109708I-35786J-147126D01*
G01*
X-88943Y92377D02*
G03*
X-111792Y94155I-21300J-126048D01*
G01*
X6465Y4267D02*
G03*
X26524Y25136I-44106J62472D01*
G01*
X65569Y80260D02*
G03*
X42780Y49348I799750J-613435D01*
G01*
X-72921Y87933D02*
G03*
X-88943Y92377I-32623J-86515D01*
G01*
X-1944Y106376D02*
G03*
X-25719Y99585I45459J-204182D01*
G01*
X-36240Y95657D02*
G03*
X-54715Y87767I178444J-443420D01*
G01*
X29580Y109708D02*
G03*
X-1944Y106376I-76J-150031D01*
G01*
X-143418Y95246D02*
G03*
X-134538Y94265I22956J167117D01*
G01*
X42780Y49348D02*
G03*
X30413Y31246I544208J-385077D01*
G01*
X-62909Y84017D02*
G03*
X-54854Y87628I-79796J188795D01*
G01*
X-25719Y99585D02*
G03*
X-36240Y95657I86484J-247670D01*
G01*
X0Y0D02*
G03*
X6465Y4267I-49823J82511D01*
G01*
X76518Y94294D02*
G03*
X65569Y80260I689746J-549456D01*
G01*
X-164285Y99015D02*
G03*
X-143418Y95246I57900J260881D01*
G01*
X-134538Y94265D02*
G03*
X-125818Y93877I9143J107375D01*
G01*
X-65686Y85128D02*
G03*
X-72921Y87933I-109610J-271954D01*
G01*
X30413Y31246D02*
G03*
X28804Y28755I97495J-64732D01*
G01*
X71748Y103718D02*
G03*
X65645Y105419I-31323J-100583D01*
G01*
X74157Y102904D02*
G03*
X71748Y103718I-15399J-41594D01*
G01*
X-170256Y96377D02*
X-168312Y99988D01*
X-65686Y85128D02*
X-62909Y84017D01*
X76518Y94294D02*
X81379Y100265D01*
X-171368Y94155D02*
X-170256Y96377D01*
X-116024Y94097D02*
X-113891Y94139D01*
X-111792Y94155D01*
X-122624Y93877D02*
X-118191Y94035D01*
X74157Y102904D02*
X81379Y100265D01*
X-168312Y99988D02*
X-164285Y99015D01*
X28033Y27527D02*
X28804Y28755D01*
X27275Y26318D02*
X28033Y27527D01*
X-125818Y93877D02*
X-122624D01*
X-118191Y94035D02*
X-116024Y94097D01*
X-54854Y87628D02*
X-54715Y87767D01*
X26524Y25136D02*
X27275Y26318D01*
X-171368Y0D02*
X0D01*
X-171368D02*
Y94155D01*
D14*
X1084646Y-179138D02*
X1093829D01*
X1089237D01*
Y-192913D01*
X1100717D02*
X1105308D01*
X1107604Y-190618D01*
Y-186026D01*
X1105308Y-183730D01*
X1100717D01*
X1098421Y-186026D01*
Y-190618D01*
X1100717Y-192913D01*
X1112196Y-197505D02*
Y-183730D01*
X1119083D01*
X1121379Y-186026D01*
Y-190618D01*
X1119083Y-192913D01*
X1112196D01*
X1139746Y-179138D02*
Y-192913D01*
X1148929D01*
X1155817Y-183730D02*
X1160409D01*
X1162704Y-186026D01*
Y-192913D01*
X1155817D01*
X1153521Y-190618D01*
X1155817Y-188322D01*
X1162704D01*
X1167296Y-183730D02*
Y-190618D01*
X1169592Y-192913D01*
X1176480D01*
Y-195209D01*
X1174184Y-197505D01*
X1171888D01*
X1176480Y-192913D02*
Y-183730D01*
X1187959Y-192913D02*
X1183367D01*
X1181071Y-190618D01*
Y-186026D01*
X1183367Y-183730D01*
X1187959D01*
X1190255Y-186026D01*
Y-188322D01*
X1181071D01*
X1194846Y-183730D02*
Y-192913D01*
Y-188322D01*
X1197142Y-186026D01*
X1199438Y-183730D01*
X1201734D01*
X887795Y-257879D02*
Y-273622D01*
X893043Y-268374D01*
X898291Y-273622D01*
Y-257879D01*
X903538Y-273622D02*
X908786D01*
X906162D01*
Y-263127D01*
X903538D01*
X916657Y-273622D02*
Y-263127D01*
X919281D01*
X921905Y-265751D01*
Y-273622D01*
Y-265751D01*
X924529Y-263127D01*
X927153Y-265751D01*
Y-273622D01*
X932400Y-257879D02*
Y-268374D01*
X937648Y-273622D01*
X942896Y-268374D01*
Y-257879D01*
X958638Y-260503D02*
X956015Y-257879D01*
X950767D01*
X948143Y-260503D01*
Y-270998D01*
X950767Y-273622D01*
X956015D01*
X958638Y-270998D01*
Y-265751D01*
X953391D01*
X1242126Y-221133D02*
X1244750Y-218509D01*
X1249998D01*
X1252621Y-221133D01*
Y-231628D01*
X1249998Y-234252D01*
X1244750D01*
X1242126Y-231628D01*
Y-221133D01*
X1257869D02*
X1260493Y-218509D01*
X1265740D01*
X1268364Y-221133D01*
Y-231628D01*
X1265740Y-234252D01*
X1260493D01*
X1257869Y-231628D01*
Y-221133D01*
X1087924Y-234252D02*
X1078740D01*
X1087924Y-225069D01*
Y-222773D01*
X1085628Y-220477D01*
X1081036D01*
X1078740Y-222773D01*
X1092515Y-234252D02*
X1097107D01*
X1094811D01*
Y-220477D01*
X1092515Y-222773D01*
X1103994Y-234252D02*
X1113178Y-225069D01*
X1117770Y-222773D02*
X1120065Y-220477D01*
X1124657D01*
X1126953Y-222773D01*
Y-231956D01*
X1124657Y-234252D01*
X1120065D01*
X1117770Y-231956D01*
Y-222773D01*
X1140728Y-220477D02*
X1131545D01*
Y-227364D01*
X1136136Y-225069D01*
X1138432D01*
X1140728Y-227364D01*
Y-231956D01*
X1138432Y-234252D01*
X1133840D01*
X1131545Y-231956D01*
X1145320Y-234252D02*
X1154503Y-225069D01*
X1168278Y-234252D02*
X1159095D01*
X1168278Y-225069D01*
Y-222773D01*
X1165982Y-220477D01*
X1161391D01*
X1159095Y-222773D01*
X1172870D02*
X1175166Y-220477D01*
X1179757D01*
X1182053Y-222773D01*
Y-231956D01*
X1179757Y-234252D01*
X1175166D01*
X1172870Y-231956D01*
Y-222773D01*
X1186645Y-234252D02*
X1191237D01*
X1188941D01*
Y-220477D01*
X1186645Y-222773D01*
X1198124D02*
X1200420Y-220477D01*
X1205012D01*
X1207308Y-222773D01*
Y-225069D01*
X1205012Y-227364D01*
X1207308Y-229660D01*
Y-231956D01*
X1205012Y-234252D01*
X1200420D01*
X1198124Y-231956D01*
Y-229660D01*
X1200420Y-227364D01*
X1198124Y-225069D01*
Y-222773D01*
X1200420Y-227364D02*
X1205012D01*
X1083330Y-139769D02*
X1072835D01*
Y-147640D01*
X1078082D01*
X1072835D01*
Y-155512D01*
X1088578Y-145017D02*
Y-155512D01*
Y-150264D01*
X1091201Y-147640D01*
X1093825Y-145017D01*
X1096449D01*
X1104321Y-155512D02*
X1109568D01*
X1106944D01*
Y-145017D01*
X1104321D01*
X1117440Y-142393D02*
X1120063Y-139769D01*
X1125311D01*
X1127935Y-142393D01*
Y-145017D01*
X1125311Y-147640D01*
X1122687D01*
X1125311D01*
X1127935Y-150264D01*
Y-152888D01*
X1125311Y-155512D01*
X1120063D01*
X1117440Y-152888D01*
X1133183Y-139769D02*
Y-155512D01*
X1141054D01*
X1143678Y-152888D01*
Y-142393D01*
X1141054Y-139769D01*
X1133183D01*
X1164668Y-155512D02*
Y-145017D01*
X1169916Y-139769D01*
X1175164Y-145017D01*
Y-155512D01*
Y-147640D01*
X1164668D01*
X1180411Y-155512D02*
X1185659D01*
X1183035D01*
Y-145017D01*
X1180411D01*
X1193530D02*
Y-155512D01*
Y-150264D01*
X1196154Y-147640D01*
X1198778Y-145017D01*
X1201402D01*
X1235512Y-155512D02*
X1225016D01*
X1235512Y-145017D01*
Y-142393D01*
X1232888Y-139769D01*
X1227640D01*
X1225016Y-142393D01*
X1240759D02*
X1243383Y-139769D01*
X1248631D01*
X1251255Y-142393D01*
Y-152888D01*
X1248631Y-155512D01*
X1243383D01*
X1240759Y-152888D01*
Y-142393D01*
X1256502Y-155512D02*
X1261750D01*
X1259126D01*
Y-139769D01*
X1256502Y-142393D01*
X1269621D02*
X1272245Y-139769D01*
X1277493D01*
X1280117Y-142393D01*
Y-145017D01*
X1277493Y-147640D01*
X1280117Y-150264D01*
Y-152888D01*
X1277493Y-155512D01*
X1272245D01*
X1269621Y-152888D01*
Y-150264D01*
X1272245Y-147640D01*
X1269621Y-145017D01*
Y-142393D01*
X1272245Y-147640D02*
X1277493D01*
D21*
X-51968Y47243D02*
D03*
Y59054D02*
D03*
D22*
X-38779Y30710D02*
D03*
X-32086D02*
D03*
X-53346D02*
D03*
X-46653D02*
D03*
X41930Y72835D02*
D03*
X48622D02*
D03*
X-59645Y30709D02*
D03*
X-66338D02*
D03*
D23*
X-24606Y51080D02*
D03*
Y43600D02*
D03*
X-66732Y38974D02*
D03*
Y46454D02*
D03*
D24*
X-17437Y61929D02*
D03*
X-28461D02*
D03*
D25*
X-40157Y51966D02*
D03*
X-32677D02*
D03*
Y42714D02*
D03*
X-36417D02*
D03*
X-40157D02*
D03*
X-36417Y51966D02*
D03*
D26*
X56896Y101771D02*
D03*
Y95078D02*
D03*
X-113189Y35826D02*
D03*
X-113189Y29133D02*
D03*
D27*
X49606Y83661D02*
D03*
D28*
X53543Y89370D02*
D03*
X49606D02*
D03*
X45669D02*
D03*
X53543Y77953D02*
D03*
X49606D02*
D03*
X45669D02*
D03*
D29*
X70177Y98524D02*
D03*
Y101083D02*
D03*
Y95965D02*
D03*
Y93405D02*
D03*
X62106D02*
D03*
Y95965D02*
D03*
Y98524D02*
D03*
Y101083D02*
D03*
D30*
X-46751Y38976D02*
D03*
X-58365D02*
D03*
D31*
X-78740Y27953D02*
D03*
Y38976D02*
D03*
D49*
X-99426Y67246D02*
D03*
Y57246D02*
D03*
X-109426Y67246D02*
D03*
Y57246D02*
D03*
X-148514Y56772D02*
D03*
Y46929D02*
D03*
Y37087D02*
D03*
Y66614D02*
D03*
X-2829Y89896D02*
D03*
X-12226Y86476D02*
D03*
X-21623Y83056D02*
D03*
X-53234Y82192D02*
D03*
X-43837Y85612D02*
D03*
X-34440Y89033D02*
D03*
X-25043Y92453D02*
D03*
X-15646Y95873D02*
D03*
X-134685Y67244D02*
D03*
Y57244D02*
D03*
Y47244D02*
D03*
Y37244D02*
D03*
X3937Y36929D02*
D03*
X3937Y46929D02*
D03*
X3937Y56929D02*
D03*
D52*
X-35025Y88447D02*
G03*
X-37954Y81376I7071J-7071D01*
G01*
X-33465Y69053D02*
G03*
X-35025Y72820I-5328J0D01*
G01*
X-37954Y79891D02*
G03*
X-35025Y72820I10000J0D01*
G01*
Y88447D02*
X-34440Y89033D01*
X-37954Y79891D02*
Y81376D01*
X-33465Y63976D02*
Y69053D01*
D53*
X-97684Y57246D02*
G03*
X-90613Y60175I0J10000D01*
G01*
X-87591Y38976D02*
G03*
X-94662Y36047I0J-10000D01*
G01*
X-107607Y27244D02*
G03*
X-100536Y30173I0J10000D01*
G01*
X-141744Y34303D02*
G03*
X-148465Y37087I-6721J-6721D01*
G01*
X-99426Y57246D02*
X-97684D01*
X-83661Y65945D02*
X-77756D01*
X-84842D02*
X-83661D01*
X-87591Y38976D02*
X-58365D01*
X-77756Y38976D02*
Y65945D01*
X-100536Y30173D02*
X-94662Y36047D01*
X-134685Y27244D02*
X-107607D01*
X-90613Y60175D02*
X-84842Y65945D01*
X-77756Y38976D02*
X-77559D01*
X-78740D02*
X-77756D01*
X-109426Y57246D02*
X-99426D01*
X-141744Y34303D02*
X-134685Y27244D01*
D54*
X-17437Y68632D02*
G03*
X-19178Y72835I-5944J0D01*
G01*
X-21623Y78737D02*
G03*
X-19178Y72835I8347J0D01*
G01*
X-21623Y84890D02*
G03*
X-24552Y91961I-10000J0D01*
G01*
X-17437Y64291D02*
Y68632D01*
X-21623Y83056D02*
Y84890D01*
Y78737D02*
Y83056D01*
X-25043Y92453D02*
X-24552Y91961D01*
D55*
X-32677Y51966D02*
Y61929D01*
X-26575Y51966D02*
Y61929D01*
Y51966D02*
X-24606D01*
X-26575Y51080D02*
Y51966D01*
X-17437Y64291D02*
X-12319D01*
X-17437Y59567D02*
X-12319D01*
X-76378Y22835D02*
Y27953D01*
X-81102Y22835D02*
Y27953D01*
X-113189Y35826D02*
Y40157D01*
X-32677Y51966D02*
X-26575D01*
Y51080D02*
X-24606D01*
Y51966D01*
X-36417D02*
Y61929D01*
X-32086Y30710D02*
X-27755D01*
X-24606Y39269D02*
Y43600D01*
X-36417Y38383D02*
Y42714D01*
X-66732Y46454D02*
Y50785D01*
D56*
X-17437Y61929D02*
Y64291D01*
D57*
X-77756Y65945D02*
D03*
D58*
X-69882D02*
D03*
D59*
X-69882D02*
D03*
D60*
X-83661D02*
D03*
D61*
X-99426Y47246D02*
D03*
X-109426D02*
D03*
X-148514Y27244D02*
D03*
X-134685D02*
D03*
X3937Y66929D02*
D03*
D62*
X39370Y61929D02*
D03*
D63*
X-31020Y79636D02*
D03*
X-6249Y99293D02*
D03*
D64*
X22107Y87014D02*
D03*
D65*
X-76378Y22835D02*
D03*
X-81102D02*
D03*
X-12319Y64291D02*
D03*
Y59567D02*
D03*
X-113189Y40157D02*
D03*
X-27755Y30710D02*
D03*
X-24606Y39269D02*
D03*
X-36417Y38383D02*
D03*
X-66732Y50785D02*
D03*
X56896Y91141D02*
D03*
X73480Y98425D02*
D03*
X52959Y101771D02*
D03*
X48622Y68898D02*
D03*
X37992Y72835D02*
D03*
X49606Y92913D02*
D03*
M02*
